**ABCDEFGHIJKLMNOPQRSTUVWXYZabcdefghijklmnopqrstuvwxyz**************************
**PARASOLID !"#$%&'()*+,-./:;<=>?@[\]^_`{|}~0123456789**************************
**PART1;
MC=AMD64;
MC_MODEL=Intel64 Family 6 Model 60 Stepping 3, GenuineIntel;
MC_ID=unknown;
OS=Windows_NT;
OS_RELEASE=unknown;
FRU=Parasolid Version 30.0, build 310,  6- 8-2018;
APPL=SOLIDWORKS 2018-2018316;
SITE=;
USER=unknown;
FORMAT=text;
GUISE=transmit;
KEY=Shareway-STB0402;
FILE=Shareway-STB0402.x_t;
DATE=Tue Oct  8 11:10:22 2019;
**PART2;
SCH=SCH_3000310_30000;
USFLD_SIZE=0;
**PART3;
**END_OF_HEADER*****************************************************************
T51 : TRANSMIT FILE created by modeller version 300031023 SCH_3000310_30000_1300
6205 0 12 33 CCCCCCI4 mesh1006 0 I8 polyline1008 0 CCCCCCCDI5 owner1040 0 CCCCCC
I13 boundary_mesh1006 0 I17 boundary_polyline1008 0 CCCA16 index_map_offset0 0 1
 dA9 index_map82 0 A17 node_id_index_map82 0 A20 schema_embedding_map82 0 A5 chi
ld12 0 A14 lowest_node_id0 0 1 dZ1 1746 2 3 0 0 0 0 0 0 1e3 1e-8 0 4 0 1 0 1 1 5
 6 7 8 0 0 9 10 11 0 0 0 0 0 0 81 255 2 2 1433 12 1 0 0 0 0 13 0 70 11 CI9 list_
type0 0 1 uI10 notransmit0 0 1 lCCCDCCDI12 finger_index0 0 1 dI12 finger_block10
12 0 CZ3 0 4 T1 0 0 3 20 1 14 14 13 255 5 94 0 1 0 15 0 0 16 0 51 255 6 1379 0 1
7 18 0 0 +-.00215 0 5e-5 0 1 0 15e-5 0 0 1 31 255 7 1327 0 10 19 0 0 --.00215 -.
001 5e-5 0 1 0 0 0 1 15e-5 29 255 8 1318 0 11 20 0 -.0023 -.001 5e-5 19 8 CCCCCC
CA5 owner12 0 Z9 28 0 1 16 0 21 V0 16 255 10 1325 0 ?22 0 23 7 0 0 1 18 255 11 1
316 0 24 0 25 8 ?1 17 255 24 0 26 27 28 11 29 23 0 30 +18 25 1307 0 31 11 32 20
 ?1 17 31 0 33 34 35 25 36 37 0 28 +18 32 1299 0 36 25 38 39 ?1 29 20 1309 0 25
 39 8 -.0023 .001 5e-5 29 39 1301 0 32 40 20 -.00215 .001 -1e-4 29 40 1298 0 38
 41 39 -.00215 -.001 -1e-4 18 38 1296 0 22 32 42 40 ?1 29 41 1283 0 42 43 40 .00
23 .001 5e-5 18 42 1281 0 44 38 45 41 ?1 29 43 1274 0 45 46 41 .0023 -.001 5e-5
 18 45 1272 0 47 42 48 43 ?1 29 46 1266 0 48 49 43 .00215 -.001 -1e-4 18 48 1264
 0 50 45 51 46 ?1 29 49 1263 0 51 52 46 .00215 .001 -1e-4 18 51 1261 0 53 48 54
 49 ?1 29 52 862 0 54 55 49 .0013 .001 5e-5 18 54 860 0 56 51 57 52 ?1 29 55 855
 0 57 58 52 .00215 -.001 5e-5 18 57 853 0 59 54 60 55 ?1 29 58 731 0 60 61 55 -.
00215 .001 5e-5 18 60 729 0 62 57 63 58 ?1 29 61 453 0 63 64 58 -.00215 .00105 0
 18 63 451 0 65 60 66 61 ?1 29 64 447 0 66 67 61 .00215 -.00105 0 18 66 445 0 68
 63 69 64 ?1 29 67 223 0 69 70 64 .0018 -.00215 .0019 18 69 221 0 71 66 72 67 ?1
 29 70 220 0 72 73 67 -.0018 -.00215 .0019 18 72 218 0 74 69 75 70 ?1 29 73 217
 0 75 76 70 -.00215 -.0018 .0019 18 75 215 0 77 72 78 73 ?1 29 76 214 0 78 79 73
 -.00215 .0018 .0019 18 78 212 0 80 75 81 76 ?1 29 79 201 0 81 82 76 .00215 .001
8 .0019 18 81 199 0 83 78 84 79 ?1 29 82 198 0 84 85 79 .00215 -.0018 .0019 18 8
4 196 0 86 81 87 82 ?1 29 85 175 0 87 88 82 -.00215 -.0018 0 18 87 173 0 89 84 9
0 85 ?1 29 88 172 0 90 91 85 -.00215 .0018 0 18 90 170 0 92 87 93 88 ?1 29 91 16
9 0 93 94 88 .0018 -.00215 0 18 93 167 0 95 90 96 91 ?1 29 94 166 0 96 97 91 -.0
018 -.00215 0 18 96 164 0 98 93 99 94 ?1 29 97 163 0 99 100 94 .00215 .0018 0 18
 99 161 0 101 96 102 97 ?1 29 100 160 0 102 103 97 .00215 -.0018 0 18 102 158 0
 104 99 105 100 ?1 29 103 147 0 105 106 100 -.0018 .00215 .0019 18 105 145 0 107
 102 108 103 ?1 29 106 144 0 108 109 103 .0018 .00215 .0019 18 108 142 0 110 105
 111 106 ?1 29 109 141 0 111 112 106 -.0018 .00215 0 18 111 139 0 113 108 114 10
9 ?1 29 112 138 0 114 115 109 .0018 .00215 0 18 114 136 0 116 111 117 112 ?1 29
 115 673 0 118 119 112 .00215 .00105 0 18 118 606 0 120 121 122 115 ?1 29 119 67
4 0 122 123 115 .00125 .00105 0 18 122 608 0 124 118 125 119 ?1 29 123 675 0 125
 126 119 .00125 -.00105 0 18 125 610 0 127 122 128 123 ?1 29 126 677 0 129 130 1
23 .00215 .00105 5e-5 18 129 603 0 131 132 133 126 ?1 29 130 678 0 133 134 126 .
00125 .00105 5e-5 18 133 605 0 135 129 136 130 ?1 29 134 679 0 136 137 130 .0012
5 -.00105 5e-5 18 136 607 0 138 133 121 134 ?1 29 137 680 0 121 139 134 .00215 -
.00105 5e-5 18 121 609 0 140 136 118 137 ?1 29 139 681 0 141 142 137 -.00215 -.0
0105 0 18 141 547 0 143 144 145 139 ?1 29 142 682 0 145 146 139 -.00125 -.00105
 0 18 145 549 0 147 141 132 142 ?1 29 146 683 0 132 148 142 -.00125 .00105 0 18
 132 551 0 149 145 129 146 ?1 29 148 685 0 117 150 146 -.00215 -.00105 5e-5 18 1
17 544 0 151 114 152 148 ?1 29 150 686 0 152 153 148 -.00125 -.00105 5e-5 18 152
 546 0 154 117 155 150 ?1 29 153 687 0 155 156 150 -.00125 .00105 5e-5 18 155 54
8 0 157 152 144 153 ?1 29 156 688 0 144 158 153 -.00215 .00105 5e-5 18 144 550 0
 159 155 141 156 ?1 29 158 839 0 160 161 156 -.0013 .001 5e-5 18 160 785 0 162 1
63 164 158 ?1 29 161 842 0 164 165 158 -.0013 -.001 5e-5 18 164 790 0 166 160 16
7 161 ?1 29 165 843 0 128 168 161 -.0013 .001 -1e-4 18 128 788 0 169 125 163 165
 ?1 29 168 846 0 163 170 165 -.0013 -.001 -1e-4 18 163 783 0 171 128 160 168 ?1
 29 170 963 0 172 173 168 .0013 -.001 5e-5 18 172 909 0 174 175 176 170 ?1 29 17
3 967 0 167 177 170 .0013 -.001 -1e-4 18 167 912 0 178 164 175 173 ?1 29 177 970
 0 175 179 173 .0013 .001 -1e-4 18 175 907 0 180 167 172 177 ?1 29 179 1106 0 18
1 182 177 -.00215 -.001 5e-5 18 181 1054 0 183 184 185 179 ?1 29 182 1108 0 176
 186 179 -.0023 .001 95e-5 18 176 1060 0 34 172 187 182 ?1 29 186 1109 0 187 188
 182 -.00215 .001 95e-5 18 187 1059 0 189 176 190 186 ?1 29 188 1110 0 190 191 1
86 -.00215 -.001 95e-5 18 190 1058 0 192 187 184 188 ?1 29 191 1111 0 184 193 18
8 -.0023 -.001 95e-5 18 184 1055 0 27 190 181 191 ?1 29 193 1218 0 194 195 191 .
00215 .001 5e-5 18 194 1166 0 196 197 0 193 ?1 29 195 1220 0 185 198 193 .0023 -
.001 95e-5 18 185 1172 0 199 181 200 195 ?1 29 198 1221 0 200 201 195 .00215 -.0
01 95e-5 18 200 1171 0 202 185 203 198 ?1 29 201 1222 0 203 204 198 .00215 .001
 95e-5 18 203 1170 0 205 200 197 201 ?1 29 204 1223 0 197 0 201 .0023 .001 95e-5
 18 197 1167 0 206 203 194 204 ?1 17 206 0 207 208 44 197 209 210 0 211 +15 255
 207 929 0 212 213 0 17 208 0 207 212 206 185 214 215 0 0 -17 44 0 207 206 212 4
2 216 217 0 209 +17 209 0 218 53 211 42 206 210 0 219 -16 210 1282 0 ?206 220 22
1 222 0 0 1 17 211 0 218 209 223 197 205 224 0 214 -15 218 925 0 209 225 0 17 22
3 0 218 211 226 203 196 227 0 228 -17 205 0 229 202 214 203 211 224 0 223 +16 22
4 1157 0 ?205 230 215 231 0 0 1 17 214 0 229 205 232 197 208 215 0 0 +15 229 119
2 0 214 233 0 17 232 0 229 214 202 185 234 235 0 208 +16 215 1154 0 ?214 224 0 2
36 0 0 1 30 255 236 1215 0 215 0 231 0 +.0023 -.001 95e-5 0 1 0 30 231 1214 0 22
4 236 237 0 +.0023 .001 95e-5 -1 0 0 30 237 1213 0 230 231 238 0 +.00215 -.001 9
5e-5 0 -1 0 16 230 1160 0 ?202 235 224 237 0 0 1 30 238 1212 0 235 237 239 0 +.0
023 -.001 95e-5 1 0 0 16 235 1163 0 ?232 240 230 238 0 0 1 30 239 1206 0 240 238
 241 0 +.00215 -.001 95e-5 0 0 -1 16 240 1153 0 ?59 227 235 239 0 0 1 30 241 120
5 0 227 239 242 0 +.00215 .001 95e-5 0 0 -1 16 227 1149 0 ?196 243 240 241 0 0 1
 30 242 1103 0 243 241 244 0 +-.0023 -.001 95e-5 0 -1 0 16 243 1042 0 ?245 246 2
27 242 0 0 1 30 244 1102 0 246 242 247 0 +-.0023 -.001 95e-5 1 0 0 16 246 1045 0
 ?192 248 243 244 0 0 1 30 247 1101 0 248 244 249 0 +-.00215 -.001 95e-5 0 1 0 1
6 248 1048 0 ?189 250 246 247 0 0 1 30 249 1100 0 250 247 251 0 +-.0023 .001 95e
-5 -1 0 0 16 250 1051 0 ?252 253 248 249 0 0 1 30 251 1094 0 253 249 254 0 +-.00
215 .001 95e-5 0 0 -1 16 253 1041 0 ?62 255 250 251 0 0 1 30 254 1093 0 255 251
 256 0 +-.00215 -.001 95e-5 0 0 -1 16 255 1037 0 ?183 257 253 254 0 0 1 30 256 9
60 0 258 254 259 0 +.0013 -.001 -1e-4 0 1 0 16 258 893 0 ?260 261 262 256 0 0 1
 30 259 959 0 261 256 263 0 +.0013 .001 -1e-4 1 0 0 16 261 896 0 ?264 265 258 25
9 0 0 1 30 263 957 0 265 259 266 0 +.0013 -.001 -1e-4 -1 216840434497101e-30 0 1
6 265 1265 0 ?178 267 261 263 0 0 1 30 266 956 0 257 263 268 0 +.0013 -.001 5e-5
 0 1 0 16 257 871 0 ?269 262 255 266 0 0 1 30 268 955 0 262 266 270 0 +.0013 .00
1 5e-5 1 0 0 16 262 875 0 ?226 258 257 268 0 0 1 30 270 952 0 267 268 271 0 +.00
13 -.001 -1e-4 0 0 1 16 267 874 0 ?272 221 265 270 0 0 1 30 271 951 0 221 270 22
2 0 +.0023 -.001 -1e-4 0 0 1 16 221 1273 0 ?199 210 267 271 0 0 1 30 222 950 0 2
10 271 273 0 +.0023 .001 -1e-4 0 0 1 30 273 949 0 220 222 274 0 +.0013 .001 -1e-
4 0 0 1 16 220 881 0 ?275 276 210 273 0 0 1 30 274 836 0 277 273 278 0 +-.0013 -
.001 -1e-4 0 -1 0 16 277 768 0 ?279 280 281 274 0 0 1 30 278 835 0 280 274 282 0
 +-.0013 -.001 -1e-4 -1 0 0 16 280 771 0 ?283 284 277 278 0 0 1 30 282 833 0 284
 278 285 0 +-.0013 .001 -1e-4 1 0 0 16 284 1300 0 ?169 286 280 282 0 0 1 30 285
 832 0 276 282 287 0 +-.0013 -.001 5e-5 0 -1 0 16 276 746 0 ?288 281 220 285 0 0
 1 30 287 831 0 281 285 289 0 +-.0013 -.001 5e-5 -1 0 0 16 281 750 0 ?290 277 27
6 287 0 0 1 30 289 828 0 286 287 291 0 +-.0013 .001 -1e-4 0 0 1 16 286 749 0 ?29
2 293 284 289 0 0 1 30 291 827 0 293 289 294 0 +-.0023 .001 -1e-4 0 0 1 16 293 1
308 0 ?34 295 286 291 0 0 1 30 294 826 0 295 291 296 0 +-.0023 -.001 -1e-4 0 0 1
 16 295 1317 0 ?27 297 293 294 0 0 1 30 296 825 0 297 294 298 0 +-.0013 -.001 -1
e-4 0 0 1 16 297 756 0 ?166 299 295 296 0 0 1 30 298 672 0 300 296 301 0 +-.0021
5 -.00105 5e-5 0 1 0 16 300 516 0 ?302 303 304 298 304 304 1 30 301 671 0 303 29
8 305 0 +-.00215 .00105 5e-5 1 0 0 16 303 528 0 ?306 307 300 301 0 0 1 30 305 67
0 0 307 301 308 0 +-.00125 -.00105 5e-5 0 -1 0 16 307 524 0 ?309 310 303 305 0 0
 1 30 308 669 0 310 305 311 0 +-.00215 -.00105 5e-5 -1 0 0 16 310 520 0 ?312 313
 307 308 0 0 1 30 311 667 0 314 308 315 0 +-.00215 .00105 0 1 0 0 16 314 535 0 ?
316 317 318 311 0 0 1 30 315 666 0 317 311 319 0 +-.00125 -.00105 0 0 -1 0 16 31
7 538 0 ?320 321 314 315 0 0 1 30 319 665 0 321 315 322 0 +-.00215 -.00105 0 -1
 0 0 16 321 541 0 ?143 304 317 319 0 0 1 30 322 664 0 323 319 324 0 +-.00215 -.0
0105 5e-5 0 0 -1 16 323 523 0 ?325 326 327 322 0 0 1 30 324 663 0 327 322 328 0
 +-.00125 -.00105 5e-5 0 0 -1 16 327 527 0 ?147 323 329 324 0 0 1 30 328 662 0 3
29 324 330 0 +-.00125 .00105 5e-5 0 0 -1 16 329 531 0 ?149 327 313 328 0 0 1 30
 330 661 0 313 328 331 0 +-.00215 .00105 5e-5 0 0 -1 16 313 519 0 ?65 329 310 33
0 0 0 1 30 331 660 0 332 330 333 0 +.00215 -.00105 5e-5 0 -1 0 16 332 575 0 ?334
 335 336 331 336 336 1 30 333 659 0 335 331 337 0 +.00215 -.00105 5e-5 -1 0 0 16
 335 587 0 ?338 339 332 333 0 0 1 30 337 658 0 339 333 340 0 +.00125 -.00105 5e-
5 0 1 0 16 339 583 0 ?341 342 335 337 0 0 1 30 340 657 0 342 337 343 0 +.00215 .
00105 5e-5 1 0 0 16 342 579 0 ?344 345 339 340 0 0 1 30 343 655 0 299 340 346 0
 +.00215 -.00105 0 -1 0 0 16 299 594 0 ?347 348 297 343 0 0 1 30 346 654 0 348 3
43 349 0 +.00125 -.00105 0 0 1 0 16 348 597 0 ?350 351 299 346 0 0 1 30 349 653
 0 351 346 352 0 +.00215 .00105 0 1 0 0 16 351 600 0 ?120 336 348 349 0 0 1 30 3
52 652 0 318 349 353 0 +.00215 .00105 5e-5 0 0 -1 16 318 582 0 ?354 314 355 352
 0 0 1 30 353 651 0 355 352 356 0 +.00125 .00105 5e-5 0 0 -1 16 355 586 0 ?124 3
18 357 353 0 0 1 30 356 650 0 357 353 358 0 +.00125 -.00105 5e-5 0 0 -1 16 357 5
90 0 ?127 355 345 356 0 0 1 30 358 649 0 345 356 359 0 +.00215 -.00105 5e-5 0 0
 -1 16 345 578 0 ?68 357 342 358 0 0 1 30 359 5 0 360 358 361 0 +.00215 .00215 .
0019 -2017120320903265e-31 1 0 16 360 197 0 ?362 363 364 359 0 0 1 30 361 8 0 36
3 359 365 0 +-.00215 .00215 .0019 -1 0 0 16 363 143 0 ?366 367 360 361 0 0 1 30
 365 11 0 367 361 368 0 +-.00215 .00215 .0019 2017120320903265e-31 -1 0 16 367 2
13 0 ?369 370 363 365 0 0 1 30 368 14 0 370 365 371 0 +-.00215 -.00215 .0019 1 0
 0 16 370 219 0 ?372 373 367 368 0 0 1 30 371 69 0 374 368 375 0 +.00215 .00215
 0 -2017120320903265e-31 1 0 16 374 159 0 ?376 377 326 371 326 326 1 30 375 68 0
 377 371 378 0 +-.00215 .00215 0 -1 0 0 16 377 137 0 ?379 380 374 375 0 0 1 30 3
78 67 0 381 375 382 0 +-.00215 .00215 0 2017120320903265e-31 -1 0 16 381 171 0 ?
383 364 380 378 380 380 1 30 382 66 0 364 378 384 0 +-.00215 -.00215 0 1 0 0 16
 364 165 0 ?385 360 381 382 0 0 1 30 384 150 0 373 382 386 0 --.0018 .00215 .001
9 0 0 -1 16 373 148 0 ?107 387 370 384 0 0 1 30 386 155 0 387 384 388 0 +.0018 .
00215 .0019 0 0 -1 16 387 153 0 ?389 390 373 386 0 0 1 31 388 178 0 390 386 391
 0 --.0018 -.0018 0 0 0 1 1 0 0 35e-5 16 390 176 0 ?392 393 387 388 0 0 1 31 391
 183 0 393 388 394 0 -.0018 -.0018 0 0 0 1 1 0 0 35e-5 16 393 181 0 ?95 395 390
 391 0 0 1 31 394 188 0 395 391 396 0 --.0018 .0018 0 0 0 1 1 0 0 35e-5 16 395 1
86 0 ?113 397 393 394 0 0 1 31 396 193 0 397 394 398 0 -.0018 .0018 0 0 0 1 1 0
 0 35e-5 16 397 191 0 ?399 400 395 396 0 0 1 30 398 204 0 400 396 401 0 +.00215
 -.0018 .0019 0 0 -1 16 400 202 0 ?402 403 397 398 0 0 1 30 401 209 0 403 398 40
4 0 -.00215 .0018 .0019 0 0 -1 16 403 207 0 ?83 405 400 401 0 0 1 31 404 226 0 4
05 401 406 0 +-.0018 -.0018 .0019 0 0 1 1 0 0 35e-5 16 405 224 0 ?74 407 403 404
 0 0 1 31 406 231 0 407 404 408 0 +.0018 -.0018 .0019 0 0 1 1 0 0 35e-5 16 407 2
29 0 ?86 409 405 406 0 0 1 31 408 236 0 409 406 410 0 +-.0018 .0018 .0019 0 0 1
 1 0 0 35e-5 16 409 234 0 ?80 411 407 408 0 0 1 31 410 241 0 411 408 412 0 +.001
8 .0018 .0019 0 0 1 1 0 0 35e-5 16 411 239 0 ?110 413 409 410 0 0 1 30 412 246 0
 413 410 414 0 --.00215 -.0018 .0019 0 0 -1 16 413 244 0 ?77 415 411 412 0 0 1 3
0 414 251 0 415 412 416 0 +-.00215 .0018 .0019 0 0 -1 16 415 249 0 ?417 418 413
 414 0 0 1 30 416 256 0 418 414 419 0 +-.0018 -.00215 .0019 0 0 -1 16 418 254 0
 ?420 421 415 416 0 0 1 30 419 261 0 421 416 422 0 -.0018 -.00215 .0019 0 0 -1 1
6 421 259 0 ?71 423 418 419 0 0 1 30 422 735 0 423 419 424 0 +0 .001 5e-5 -1 0 0
 16 423 733 0 ?425 426 421 422 0 0 1 30 424 859 0 426 422 427 0 +-21684043449710
1e-33 -.001 5e-5 -1 216840434497101e-30 0 16 426 857 0 ?428 429 423 424 0 0 1 30
 427 1269 0 429 424 430 0 +.00215 -.001 -1e-4 0 -1 0 16 429 1267 0 ?431 432 426
 427 0 0 1 31 430 1277 0 432 427 433 0 -.00215 -.001 5e-5 216840434497101e-30 1
 0 -1 216840434497101e-30 0 15e-5 16 432 1275 0 ?47 217 429 430 0 0 1 30 433 128
6 0 217 430 434 0 -.0023 .001 5e-5 0 -1 0 16 217 1284 0 ?44 435 432 433 0 0 1 31
 434 1292 0 435 433 436 0 -.00215 .001 5e-5 0 -1 0 0 0 -1 15e-5 16 435 1290 0 ?5
3 437 217 434 0 0 1 30 436 1304 0 437 434 438 0 +-.00215 0 -1e-4 0 1 0 16 437 13
02 0 ?439 37 435 436 0 0 1 31 438 1312 0 37 436 19 0 --.00215 .001 5e-5 0 -1 0 0
 0 -1 15e-5 16 37 1310 0 ?31 23 437 438 0 0 1 30 19 1321 0 23 438 7 0 --.0023 -.
001 5e-5 0 1 0 16 23 1319 0 ?24 10 37 19 0 0 1 17 439 0 440 169 283 32 441 437 0
 35 +15 440 812 0 283 442 0 17 169 0 440 279 439 128 35 284 0 443 +17 283 0 440
 439 279 38 171 280 0 441 +17 441 0 444 445 36 38 439 437 0 0 -17 35 0 33 31 443
 32 169 284 0 0 -15 33 809 0 35 446 0 17 443 0 33 35 162 128 292 286 0 447 -17 1
62 0 33 443 62 160 425 423 0 292 -17 292 0 448 288 447 160 443 286 0 449 +17 447
 0 448 292 450 128 279 277 0 0 -15 448 797 0 288 451 0 17 450 0 448 447 288 163
 166 297 0 0 -17 279 0 440 283 169 163 447 277 0 450 +17 288 0 448 450 292 164 4
49 276 0 452 +17 166 0 453 290 171 164 450 297 0 288 +15 453 801 0 30 454 0 17 2
90 0 453 455 166 181 452 281 0 302 +17 171 0 453 166 22 163 283 280 0 279 -17 22
 0 453 171 30 38 445 10 0 283 +17 30 0 453 22 456 11 27 295 0 445 -17 445 0 444
 29 441 11 22 10 0 0 -15 444 1368 0 445 17 0 17 29 0 444 36 445 25 24 23 0 0 -17
 36 0 444 441 29 32 31 37 0 439 -14 255 17 1367 457 ?0 458 444 5 6 +0 0 0 458 21
 81 1 457 1715 459 17 460 0 0 461 462 14 458 1346 461 ?17 233 463 5 18 +0 0 17 2
33 21 13 21 29 0 0 0 0 0 0 9 15 14 15 1134 464 ?465 0 466 5 467 -0 0 465 0 21 81
 1 464 1717 459 15 468 0 461 469 470 14 465 1022 469 ?471 15 472 5 473 -0 0 471
 15 21 15 466 1132 0 196 15 0 50 255 467 89 0 15 474 475 0 +.00215 .00215 .0019
 -1 -2017120320903265e-31 0 2017120320903265e-31 -1 0 50 474 88 0 476 473 467 0
 +-.00215 .00215 .0019 0 -1 0 0 0 -1 51 475 291 0 477 467 478 0 +.0018 .0018 .00
19 0 0 -1 35e-5 -1 0 0 14 477 279 479 ?480 481 482 5 475 +0 0 480 481 21 51 478
 312 0 480 475 483 0 +-.0018 .0018 .0019 0 0 -1 35e-5 -1 0 0 14 480 300 484 ?485
 477 486 5 478 +0 0 485 477 21 51 483 333 0 485 478 487 0 +.0018 -.0018 .0019 0
 0 -1 35e-5 -1 0 0 14 485 321 488 ?489 480 490 5 483 +0 0 489 480 21 51 487 354
 0 489 483 18 0 +-.0018 -.0018 .0019 0 0 -1 35e-5 -1 0 0 14 489 342 491 ?492 485
 493 5 487 +0 0 492 485 21 51 18 1358 0 458 487 6 0 +.00215 0 5e-5 0 1 0 15e-5 0
 0 1 81 1 491 1722 459 489 494 0 488 495 496 14 492 615 495 ?497 489 498 5 499 -
0 0 497 489 21 15 493 343 0 500 489 0 17 500 0 493 501 502 75 74 405 0 0 -17 501
 0 493 98 500 87 77 413 0 0 -17 502 0 493 500 98 72 420 418 0 0 -17 74 0 503 372
 369 72 500 405 0 504 +15 503 3 0 362 505 0 17 372 0 503 86 74 69 504 370 0 506
 +17 369 0 503 74 80 75 507 367 0 500 +17 504 0 508 420 71 72 372 370 0 502 -15
 508 78 0 385 509 0 17 420 0 508 385 504 96 502 418 0 510 +17 71 0 508 504 385 6
9 511 421 0 372 +17 385 0 508 71 420 93 510 364 0 511 +17 511 0 490 104 506 93 7
1 421 0 0 -15 490 322 0 506 485 0 17 104 0 490 512 511 102 95 393 0 402 -17 506
 0 490 511 512 69 86 407 0 0 -17 512 0 490 506 104 84 402 400 0 0 -17 86 0 503 3
62 372 84 506 407 0 513 +17 362 0 503 110 86 81 513 360 0 514 +17 513 0 466 402
 83 84 362 360 0 512 -17 402 0 466 376 513 102 512 400 0 515 +17 83 0 466 513 10
1 81 516 403 0 362 +17 101 0 466 83 354 99 517 326 0 399 +17 516 0 482 116 514 9
9 83 403 0 0 -15 482 280 0 514 477 0 17 116 0 482 518 516 114 399 397 0 389 -17
 514 0 482 516 518 81 110 411 0 0 -17 518 0 482 514 116 108 389 387 0 0 -17 110
 0 503 366 362 108 514 411 0 519 +17 366 0 503 80 110 105 519 363 0 520 +17 519
 0 521 389 107 108 366 363 0 518 -15 521 82 0 519 476 0 17 389 0 521 379 519 114
 518 387 0 522 +17 107 0 521 519 379 105 523 373 0 366 +17 379 0 521 107 389 111
 522 377 0 523 +17 523 0 486 92 520 111 107 373 0 0 -15 486 301 0 520 480 0 17 9
2 0 486 524 523 90 113 395 0 417 -17 520 0 486 523 524 105 80 409 0 0 -17 524 0
 486 520 92 78 417 415 0 0 -17 80 0 503 369 366 78 520 409 0 507 +17 507 0 472 4
17 77 78 369 367 0 524 -15 472 1020 0 183 465 0 17 417 0 472 383 507 90 524 415
 0 525 +17 77 0 472 507 89 75 501 413 0 369 +17 89 0 472 77 325 87 526 380 0 392
 +17 325 0 472 89 527 141 151 323 0 526 +17 526 0 528 529 392 141 89 380 0 0 -16
 380 455 0 ?89 381 377 378 381 381 1 17 392 0 528 526 510 87 98 390 0 501 +15 52
8 44 0 526 481 0 17 510 0 528 392 95 96 385 364 0 0 -17 98 0 493 502 501 96 392
 390 0 420 -17 95 0 528 510 515 93 104 393 0 385 +17 515 0 528 95 530 102 376 37
4 0 0 -17 530 0 528 515 531 66 347 299 0 376 -17 376 0 466 532 402 66 515 374 0
 0 +17 532 0 466 533 376 121 68 345 0 0 -17 533 0 466 534 532 57 140 336 0 0 -17
 68 0 535 347 536 66 532 345 0 530 +15 535 626 0 347 537 0 17 347 0 535 138 68 1
25 530 299 0 531 +17 536 0 535 68 138 121 338 335 0 532 -17 138 0 535 536 347 13
6 127 357 0 538 -17 338 0 539 341 140 136 536 335 0 0 +15 539 865 0 56 471 0 17
 341 0 539 344 338 133 538 339 0 540 +17 140 0 539 338 541 121 533 336 0 536 +17
 541 0 539 140 174 57 428 426 0 533 -16 336 854 0 ?140 332 351 331 332 332 1 17
 174 0 539 541 56 172 269 257 0 428 -17 428 0 542 543 59 172 541 426 0 272 +15 5
42 933 0 544 545 0 17 543 0 542 544 428 167 272 267 0 546 -17 59 0 542 428 234 5
7 534 240 0 541 +17 272 0 547 269 546 172 543 267 0 0 +15 547 921 0 269 548 0 17
 269 0 547 549 272 54 174 257 0 0 +17 546 0 547 272 549 167 260 258 0 0 -17 549
 0 547 546 269 175 275 220 0 0 -17 260 0 550 264 178 175 546 258 0 549 +15 550 9
36 0 264 551 0 17 264 0 550 431 260 51 180 261 0 552 +17 178 0 550 260 431 167 5
44 265 0 543 +17 431 0 550 178 264 48 552 429 0 544 +17 544 0 542 47 543 48 178
 265 0 0 -17 47 0 542 199 544 45 50 432 0 212 +17 199 0 542 234 47 185 212 221 0
 232 +17 50 0 463 552 216 48 47 432 0 431 -17 212 0 207 44 208 45 199 221 0 216
 -17 216 0 463 50 219 45 44 217 0 0 -15 463 1347 0 219 458 0 17 219 0 463 216 55
2 42 53 435 0 0 -17 552 0 463 219 50 51 431 429 0 0 -17 53 0 218 180 209 51 219
 435 0 264 +17 180 0 218 275 53 175 264 261 0 260 -17 275 0 218 226 180 54 549 2
20 0 269 +17 226 0 218 223 275 194 56 262 0 0 +17 56 0 539 174 334 54 226 262 0
 275 -17 334 0 539 56 344 194 553 332 0 226 +17 344 0 539 334 341 129 540 342 0
 553 +17 553 0 466 354 196 129 334 332 0 0 -17 354 0 466 101 553 118 131 318 0 5
17 +17 196 0 466 553 228 194 223 227 0 334 +17 228 0 466 196 534 203 202 230 0 0
 -17 534 0 466 228 533 200 59 240 0 0 -17 202 0 229 232 205 200 228 230 0 234 +1
7 234 0 542 59 199 200 232 235 0 534 -17 131 0 498 540 120 129 354 318 0 344 -17
 517 0 528 554 399 118 101 326 0 0 -17 554 0 528 531 517 122 120 351 0 0 -17 399
 0 528 517 522 99 116 397 0 516 +16 326 449 0 ?101 374 323 371 374 374 1 17 522
 0 528 399 113 114 379 377 0 0 -17 113 0 528 522 525 111 92 395 0 379 +17 525 0
 528 113 555 90 383 381 0 0 -17 555 0 528 525 556 63 316 314 0 383 -17 383 0 472
 557 417 63 525 381 0 0 +17 557 0 472 558 383 144 65 313 0 0 -17 558 0 472 559 5
57 60 159 304 0 0 -17 65 0 560 316 561 63 557 313 0 555 +15 560 567 0 316 562 0
 17 316 0 560 157 65 132 555 314 0 556 +17 561 0 560 65 157 144 306 303 0 557 -1
7 157 0 560 561 316 155 149 329 0 563 -17 306 0 564 309 159 155 561 303 0 0 +15
 564 570 0 302 565 0 17 309 0 564 312 306 152 563 307 0 566 +17 159 0 564 306 42
5 144 558 304 0 561 +17 425 0 564 159 449 60 162 423 0 558 +16 304 730 0 ?159 30
0 321 298 300 300 1 17 449 0 564 425 452 160 288 276 0 0 -17 452 0 564 449 302 1
64 290 281 0 0 -17 302 0 564 452 312 181 527 300 0 0 +17 312 0 564 302 309 117 5
66 310 0 527 +17 527 0 472 325 183 117 302 300 0 0 -17 183 0 472 527 567 181 455
 255 0 290 +17 567 0 472 183 559 190 189 248 0 0 -17 455 0 453 456 290 190 183 2
55 0 567 -17 456 0 453 30 455 184 192 246 0 245 -17 192 0 568 189 245 190 456 24
6 0 455 +17 245 0 568 192 252 184 569 243 0 0 +15 568 1080 0 245 570 0 17 252 0
 568 245 189 176 571 250 0 569 +17 569 0 26 28 27 176 245 243 0 0 -15 26 805 0 2
8 572 0 17 28 0 26 24 569 25 34 293 0 29 -17 27 0 26 569 24 184 30 295 0 456 +17
 34 0 33 571 31 176 28 293 0 252 +17 571 0 33 62 34 187 252 250 0 559 -17 62 0 3
3 162 571 60 559 253 0 425 +17 559 0 472 567 558 187 62 253 0 0 -14 572 802 573
 ?446 454 26 5 574 -0 0 446 454 21 81 1 573 1724 459 572 575 0 495 576 577 14 44
6 806 576 ?442 572 33 5 578 -0 0 442 572 21 14 454 798 579 ?572 451 453 5 580 -0
 0 572 451 21 50 574 820 0 572 578 580 0 +-.0023 -.001 -1e-4 1 0 0 0 0 -1 50 578
 821 0 446 581 574 0 +-.0013 .001 -1e-4 0 -1 0 0 0 -1 50 580 819 0 454 574 582 0
 +-.0013 -.001 -1e-4 0 1 0 0 0 1 50 582 818 0 451 580 583 0 +-.0013 -.001 -1e-4
 -1 0 0 0 0 1 14 451 794 584 ?454 562 448 5 582 -0 0 454 562 21 50 583 648 0 565
 582 585 0 +0 0 5e-5 0 0 -1 -1 0 0 14 565 743 586 ?476 471 564 5 583 +0 0 476 47
1 21 50 585 646 0 587 583 588 0 +-.00215 -.00105 5e-5 0 -1 0 0 0 -1 14 587 556 5
89 ?590 537 591 5 585 -0 0 590 537 21 50 588 645 0 590 585 592 0 +-.00125 -.0010
5 5e-5 1 0 0 0 0 -1 14 590 560 593 ?562 587 594 5 588 -0 0 562 587 21 50 592 644
 0 562 588 595 0 +-.00215 .00105 5e-5 0 1 0 0 0 1 14 562 564 596 ?451 590 560 5
 592 -0 0 451 590 21 50 595 642 0 471 592 499 0 +0 0 5e-5 0 0 1 1 0 0 14 471 867
 597 ?565 465 539 5 595 -0 0 565 465 21 50 499 640 0 492 595 598 0 +.00215 .0010
5 5e-5 0 1 0 0 0 1 50 598 639 0 497 499 599 0 +.00125 -.00105 5e-5 -1 0 0 0 0 1
 14 497 619 600 ?537 492 601 5 598 -0 0 537 492 21 50 599 638 0 537 598 602 0 +.
00215 -.00105 5e-5 0 -1 0 0 0 -1 14 537 623 603 ?587 497 535 5 599 -0 0 587 497
 21 50 602 2 0 505 599 604 0 +0 0 .0019 0 0 1 1 0 0 14 505 1 605 ?481 509 503 5
 602 +0 0 481 509 21 50 604 65 0 481 602 606 0 +0 0 0 0 0 1 1 0 0 14 481 43 607
 ?477 505 528 5 604 -0 0 477 505 21 50 606 86 0 509 604 473 0 +-.00215 -.00215 .
0019 0 1 0 0 0 1 14 509 79 608 ?505 476 508 5 606 -0 0 505 476 21 50 473 87 0 46
5 606 474 0 +-.00215 .00215 .0019 1 2017120320903265e-31 0 -2017120320903265e-31
 1 0 81 1 608 1737 459 509 609 0 607 610 611 14 476 83 610 ?509 565 521 5 474 -0
 0 509 565 21 81 1 610 1738 459 476 612 0 608 613 614 80 255 1 459 615 616 9000
 1 1 1 1 1 1 1 1 0 FFFFTFTFFFFFFF1 81 1 612 1615 617 476 0 610 618 609 619 81 1
 613 1739 459 442 620 0 610 621 622 82 255 1 614 235077737 14 442 810 613 ?548 4
46 440 5 581 -0 0 548 446 21 81 1 620 1633 617 442 0 613 623 624 625 81 1 621 17
40 459 548 624 0 613 626 627 82 1 622 1725956243 14 548 918 621 ?225 442 547 5 6
28 -0 0 225 442 21 81 1 624 1634 617 548 0 621 620 629 630 81 1 626 1741 459 225
 629 0 621 631 632 82 1 627 1745027215 14 225 922 626 ?213 548 218 5 633 -0 0 21
3 548 21 81 1 629 1635 617 225 0 626 624 634 635 81 1 631 1742 459 213 634 0 626
 636 637 82 1 632 1744765075 14 213 926 631 ?545 225 207 5 638 -0 0 545 225 21 8
1 1 634 1636 617 213 0 631 629 639 640 81 1 636 1743 459 545 639 0 631 641 642 8
2 1 637 1744502931 14 545 930 636 ?551 213 542 5 643 -0 0 551 213 21 81 1 639 16
37 617 545 0 636 634 644 645 81 1 641 1744 459 551 644 0 636 646 647 82 1 642 17
44240787 14 551 934 641 ?570 545 550 5 648 +0 0 570 545 21 81 1 644 1638 617 551
 0 641 639 649 650 81 1 646 1745 459 570 649 0 641 651 652 82 1 647 1737687187 1
4 570 1078 646 ?233 551 568 5 653 -0 0 233 551 21 81 1 649 1639 617 570 0 646 64
4 654 655 81 1 651 1746 459 233 654 0 646 0 656 82 1 652 1782251665 14 233 1190
 651 ?458 570 229 5 657 +0 0 458 570 21 81 1 654 1640 617 233 0 651 649 658 659
 82 1 656 1793982609 80 1 617 0 660 8001 0 0 0 0 3 5 0 0 0 FFFFTFTFFFFFFF2 81 1
 658 1641 617 458 0 461 654 460 661 83 255 3 659 .792156862745098 .8196078431372
55 .933333333333333 81 1 461 1716 459 458 658 0 457 464 662 81 1 460 1642 617 17
 0 457 658 0 663 83 3 661 .823529411764706 .819607843137255 .780392156862745 83
 3 663 .823529411764706 .819607843137255 .780392156862745 82 1 662 -1880096621 7
9 255 15 660 SDL/TYSA_COLOUR50 657 1203 0 233 0 653 0 +0 0 95e-5 0 0 1 1 0 0 50
 653 1091 0 570 657 648 0 +0 0 95e-5 0 0 -1 -1 0 0 50 648 947 0 551 653 643 0 +0
 0 -1e-4 0 0 -1 -1 0 0 50 643 945 0 545 648 638 0 +.0013 -.001 -1e-4 21684043449
7101e-30 1 0 -1 216840434497101e-30 0 50 638 944 0 213 643 633 0 +.0023 -.001 -1
e-4 -1 0 0 0 0 1 50 633 943 0 225 638 628 0 +.0013 .001 -1e-4 0 -1 0 0 0 -1 50 6
28 942 0 548 633 581 0 +.0013 -.001 -1e-4 1 0 0 0 0 -1 50 581 823 0 442 628 578
 0 +0 0 -1e-4 0 0 1 1 0 0 83 3 655 .792156862745098 .819607843137255 .9333333333
33333 83 3 650 .823529411764706 .819607843137255 .780392156862745 83 3 645 .8235
29411764706 .819607843137255 .780392156862745 83 3 640 .823529411764706 .8196078
43137255 .780392156862745 83 3 635 .823529411764706 .819607843137255 .7803921568
62745 83 3 630 .823529411764706 .819607843137255 .780392156862745 81 1 623 1632
 617 446 0 576 575 620 664 83 3 625 .823529411764706 .819607843137255 .780392156
862745 81 1 576 1725 459 446 623 0 573 579 665 81 1 575 1631 617 572 0 573 666 6
23 667 83 3 664 .823529411764706 .819607843137255 .780392156862745 81 1 666 1630
 617 454 0 579 668 575 669 83 3 667 .823529411764706 .819607843137255 .780392156
862745 81 1 579 1726 459 454 666 0 576 584 670 81 1 668 1629 617 451 0 584 671 6
66 672 83 3 669 .823529411764706 .819607843137255 .780392156862745 81 1 584 1727
 459 451 668 0 579 586 673 81 1 671 1628 617 562 0 596 674 668 675 83 3 672 .823
529411764706 .819607843137255 .780392156862745 81 1 596 1731 459 562 671 0 593 5
97 676 81 1 674 1627 617 590 0 593 677 671 678 83 3 675 .792156862745098 .819607
843137255 .933333333333333 81 1 593 1730 459 590 674 0 589 596 679 81 1 677 1626
 617 587 0 589 680 674 681 83 3 678 .792156862745098 .819607843137255 .933333333
333333 81 1 589 1729 459 587 677 0 586 593 682 81 1 680 1625 617 537 0 603 683 6
77 684 83 3 681 .792156862745098 .819607843137255 .933333333333333 81 1 603 1734
 459 537 680 0 600 605 685 81 1 683 1624 617 497 0 600 686 680 687 83 3 684 .792
156862745098 .819607843137255 .933333333333333 81 1 600 1733 459 497 683 0 597 6
03 688 81 1 686 1623 617 492 0 495 494 683 689 83 3 687 .792156862745098 .819607
843137255 .933333333333333 81 1 495 1723 459 492 686 0 491 573 690 81 1 494 1622
 617 489 0 491 691 686 692 83 3 689 .792156862745098 .819607843137255 .933333333
333333 81 1 691 1621 617 485 0 488 693 494 694 83 3 692 .792156862745098 .819607
843137255 .933333333333333 81 1 488 1721 459 485 691 0 484 491 695 81 1 693 1620
 617 480 0 484 696 691 697 83 3 694 .792156862745098 .819607843137255 .933333333
333333 81 1 484 1720 459 480 693 0 479 488 698 81 1 696 1619 617 477 0 479 699 6
93 700 83 3 697 .792156862745098 .819607843137255 .933333333333333 81 1 479 1719
 459 477 696 0 469 484 701 81 1 699 1618 617 481 0 607 702 696 703 83 3 700 .792
156862745098 .819607843137255 .933333333333333 81 1 607 1736 459 481 699 0 605 6
08 704 81 1 702 1617 617 505 0 605 609 699 705 83 3 703 .792156862745098 .819607
843137255 .933333333333333 81 1 605 1735 459 505 702 0 603 607 706 81 1 609 1616
 617 509 0 608 612 702 707 83 3 705 .792156862745098 .819607843137255 .933333333
333333 83 3 707 .792156862745098 .819607843137255 .933333333333333 82 1 706 2279
99849 82 1 704 233635980 81 1 469 1718 459 465 708 0 464 479 709 82 1 701 938344
553 81 1 708 1612 617 465 0 469 468 710 711 82 1 709 1806303377 81 1 468 1611 61
7 15 0 464 0 708 712 81 1 710 1613 617 471 0 597 708 618 713 83 3 711 .792156862
745098 .819607843137255 .933333333333333 81 1 597 1732 459 471 710 0 596 600 714
 81 1 618 1614 617 565 0 586 710 612 715 83 3 713 .792156862745098 .819607843137
255 .933333333333333 81 1 586 1728 459 565 618 0 584 589 716 83 3 715 .792156862
745098 .819607843137255 .933333333333333 82 1 716 1750597777 82 1 714 1754071185
 83 3 712 .792156862745098 .819607843137255 .933333333333333 82 1 698 940310633
 82 1 695 942276713 82 1 690 1688928396 82 1 688 1689059468 82 1 685 1689190540
 82 1 682 1677721740 82 1 679 1677852812 82 1 676 1677983884 82 1 673 1733296271
 82 1 670 1733034131 82 1 665 1732509843 83 3 619 .792156862745098 .819607843137
255 .933333333333333 79 14 616 SWEntUnchanged82 1 611 234553449 15 601 622 0 350
 497 0 17 350 0 601 135 127 122 531 348 0 554 +17 135 0 601 538 350 133 124 355
 0 341 -17 127 0 601 350 538 125 138 357 0 347 +17 531 0 528 530 554 125 350 348
 0 0 -17 538 0 601 127 135 136 341 339 0 338 -17 124 0 498 120 540 122 135 355 0
 350 +15 498 618 0 120 492 0 17 120 0 498 131 124 118 554 351 0 354 +17 540 0 49
8 124 131 133 344 342 0 0 -15 594 563 0 320 590 0 17 320 0 594 154 149 145 556 3
17 0 529 +17 154 0 594 563 320 152 147 327 0 309 -17 149 0 594 320 563 132 157 3
29 0 316 +17 556 0 528 555 529 132 320 317 0 0 -17 529 0 528 556 526 145 143 321
 0 0 -17 143 0 591 151 147 141 529 321 0 325 +15 591 559 0 143 587 0 17 151 0 59
1 566 143 117 325 323 0 312 -17 147 0 591 143 566 145 154 327 0 320 +17 566 0 59
1 147 151 152 312 310 0 0 -17 563 0 594 149 154 155 309 307 0 306 -82 1 577 1732
771987 17 189 0 568 252 192 187 567 248 0 571 +82 1 496 944242793 82 1 470 18080
72849 82 1 462 -1878130541 19 16 95 0 1 0 9 5 S0 74 4 CI16 index_map_offset0 0 1
 dCCZ20 14 3 0 0 651 2 460 0 0 0 0 0 0 0 0 0 0 0 0 0 0 0 0 0 80 2 12 717 718 800
4 0 0 0 0 3 5 0 0 0 FFTFFFFFFFFFFF2 3 83 1 13 1 79 16 718 SDL/TYSA_DENSITY1 0 
