**ABCDEFGHIJKLMNOPQRSTUVWXYZabcdefghijklmnopqrstuvwxyz**************************
**PARASOLID !"#$%&'()*+,-./:;<=>?@[\]^_`{|}~0123456789**************************
**PART1;
MC=AMD64;
MC_MODEL=Intel64 Family 6 Model 15 Stepping 13, GenuineIntel;
MC_ID=unknown;
OS=Windows_NT;
OS_RELEASE=unknown;
FRU=Parasolid Version 30.0, build 310,  6- 8-2018;
APPL=SOLIDWORKS 2018-2018211;
SITE=;
USER=unknown;
FORMAT=text;
GUISE=transmit;
KEY=DO-214AA_SMB;
FILE=DO-214AA_SMB.x_t;
DATE=Sun Mar 17 16:56:35 2019;
**PART2;
SCH=SCH_3000310_30000;
USFLD_SIZE=0;
**PART3;
**END_OF_HEADER*****************************************************************
T51 : TRANSMIT FILE created by modeller version 300031023 SCH_3000310_30000_1300
6205 0 12 33 CCCCCCI4 mesh1006 0 I8 polyline1008 0 CCCCCCCDI5 owner1040 0 CCCCCC
I13 boundary_mesh1006 0 I17 boundary_polyline1008 0 CCCA16 index_map_offset0 0 1
 dA9 index_map82 0 A17 node_id_index_map82 0 A20 schema_embedding_map82 0 A5 chi
ld12 0 A14 lowest_node_id0 0 1 dZ1 2115 0 2 0 0 0 0 0 0 1e3 1e-8 0 3 0 1 0 1 1 4
 5 6 7 0 0 8 9 10 0 0 0 0 0 0 70 11 CI9 list_type0 0 1 uI10 notransmit0 0 1 lCCC
DCCDI12 finger_index0 0 1 dI12 finger_block1012 0 CZ2 0 4 T1 0 0 2 20 1 11 11 13
 255 4 94 0 1 0 12 0 0 13 0 50 255 5 1418 0 14 15 0 0 -.00125 0 0 -.707106781186
548 0 .707106781186548 0 -1 0 30 255 6 1444 0 9 16 0 0 +.0014 -.001 15e-5 -1 0 0
 29 255 7 1459 0 10 17 0 .0023 .001 .001000000000000032 19 8 CCCCCCCA5 owner12 0
 Z8 28 0 1 13 0 18 V0 16 255 9 1442 0 ?19 0 20 6 0 0 1 18 255 10 1457 0 21 0 22
 7 ?1 17 255 21 0 23 24 25 10 26 27 0 28 +18 22 1454 0 29 10 30 17 ?1 17 29 0 31
 32 28 22 33 34 0 35 +18 30 1448 0 36 22 37 38 ?1 29 17 1456 0 22 38 7 .0023 -.0
01 .001000000000000032 29 38 1450 0 30 39 17 .0023 .001 .001199999999999964 29 3
9 1438 0 37 40 38 .00155 -.001 15e-5 18 37 1436 0 41 30 42 39 ?1 29 40 1383 0 42
 43 39 .00125 -.00175 -433680868994202e-33 18 42 1381 0 44 37 45 40 ?1 29 43 138
0 0 45 46 40 .00125 .00175 -3252606517456515e-34 18 45 1378 0 47 42 48 43 ?1 29
 46 863 0 48 49 43 -.0023 .001 .001199999999999964 18 48 860 0 50 45 51 46 1e-8
 1 29 49 857 0 51 52 46 -.0023 -.001 .001199999999999964 18 51 855 0 53 48 54 49
 1e-8 1 29 52 854 0 54 55 49 -.0023 -.001 .001000000000000032 18 54 851 0 56 51
 57 52 1e-8 1 29 55 840 0 57 58 52 -.00155 .001 .0001499999999998946 18 57 838 0
 59 54 60 55 ?1 29 58 836 0 60 61 55 -.00155 -.001 15e-5 18 60 834 0 62 57 63 58
 ?1 29 61 833 0 63 64 58 -.002215 .001 15e-5 18 63 831 0 65 60 66 61 ?1 29 64 77
8 0 66 67 61 -.00125 .00175 0 18 66 776 0 68 63 69 64 ?1 29 67 770 0 69 70 64 -.
00125 -.00175 0 18 69 768 0 71 66 72 67 ?1 29 70 577 0 72 73 67 -.0014 .001765 1
5e-5 18 72 575 0 74 69 75 70 ?1 29 73 435 0 75 76 70 -.0013 -.00175 .0022 18 75
 432 0 77 72 78 73 1e-8 1 29 76 426 0 78 79 73 -.0019 .00175 .0022 18 78 423 0 8
0 75 81 76 1e-8 1 29 79 420 0 81 82 76 -.0013 .00175 .0022 18 81 418 0 83 78 84
 79 1e-8 1 29 82 323 0 84 85 79 -.0023 -.00185 .001000000000000032 18 84 321 0 8
6 81 87 82 ?1 29 85 314 0 87 88 82 .0023 -.00185 .001000000000000032 18 87 312 0
 89 84 90 85 ?1 29 88 284 0 90 91 85 .0023 .00185 .001000000000000032 18 90 282
 0 24 87 92 88 ?1 29 91 281 0 92 93 88 -.0023 .00185 .001000000000000032 18 92 2
79 0 94 90 95 91 ?1 29 93 177 0 95 96 91 -.0023 -.00185 .001199999999999964 18 9
5 175 0 97 92 98 93 ?1 29 96 169 0 98 99 93 .0023 -.00185 .001199999999999964 18
 98 167 0 100 95 101 96 ?1 29 99 161 0 101 102 96 .0023 .00185 .0011999999999999
64 18 101 159 0 103 98 104 99 ?1 29 102 158 0 104 105 99 -.0023 .00185 .00119999
9999999964 18 104 156 0 106 101 107 102 ?1 29 105 149 0 107 108 102 .0022 .00175
 .0022 18 107 147 0 109 104 110 105 ?1 29 108 145 0 110 111 105 .0022 -.00175 .0
022 18 110 143 0 112 107 113 108 ?1 29 111 141 0 113 114 108 -.0022 -.00175 .002
2 18 113 139 0 115 110 116 111 ?1 29 114 138 0 116 117 111 -.0022 .00175 .0022 1
8 116 136 0 118 113 119 114 ?1 29 117 529 0 120 121 114 -.0019 -.00175 .0022 18
 120 477 0 122 123 124 117 1e-8 1 29 121 531 0 119 125 117 -.0013 .00175 .002201
 18 119 483 0 126 116 127 121 ?1 29 125 532 0 127 128 121 -.0013 -.00175 .002201
 18 127 482 0 129 119 130 125 ?1 29 128 533 0 130 131 125 -.0019 -.00175 .002201
 18 130 481 0 132 127 123 128 ?1 29 131 534 0 123 133 128 -.0019 .00175 .002201
 18 123 478 0 134 130 120 131 ?1 29 133 734 0 124 135 131 -.002215 -.001765 15e-
5 18 124 656 0 136 120 137 133 ?1 29 135 735 0 137 138 133 -.002215 .001765 15e-
5 18 137 657 0 139 124 140 135 ?1 29 138 741 0 140 141 135 -.0014 -.001765 15e-5
 18 140 666 0 142 137 143 138 ?1 29 141 1101 0 143 144 138 -.002215 -.001 .00014
99999999998946 18 143 965 0 145 140 146 141 ?1 29 144 1102 0 146 147 141 -.00155
 .001 -50000000000036e-18 18 146 979 0 148 143 149 144 ?1 29 147 1105 0 149 150
 144 -.00155 -.001 -500000000000365e-19 18 149 969 0 151 146 152 147 ?1 29 150 1
106 0 152 153 147 -.0024 .001 -500000000000361e-19 18 152 980 0 154 149 155 150
 ?1 29 153 1107 0 155 156 150 -.0024 .001 .0001499999999998946 18 155 968 0 157
 152 158 153 ?1 29 156 1108 0 158 159 153 -.0024 -.001 .0001499999999998946 18 1
58 986 0 160 155 161 156 ?1 29 159 1109 0 161 162 156 -.0024 -.001 -500000000000
366e-19 18 161 970 0 163 158 164 159 ?1 29 162 1110 0 164 165 159 -.00265 .001 .
0001999999999999655 18 164 981 0 166 161 167 162 ?1 29 165 1111 0 167 168 162 -.
00245000000000007 .001 .0001999999999999685 18 167 971 0 169 164 170 165 ?1 29 1
68 1112 0 170 171 165 -.00245000000000007 -.001 .0001999999999999685 18 170 987
 0 172 167 173 168 ?1 29 171 1113 0 173 174 168 -.00265 -.001 .00019999999999996
55 18 173 972 0 175 170 176 171 ?1 29 174 1114 0 176 177 171 -.00265 .001 .00094
9999999999962 18 176 982 0 178 173 179 174 ?1 29 177 1115 0 179 180 174 -.002450
00000000007 .001 .000949999999999965 18 179 973 0 181 176 182 177 ?1 29 180 1116
 0 182 183 177 -.00245000000000007 -.001 .000949999999999965 18 182 988 0 184 17
9 185 180 ?1 29 183 1117 0 185 186 180 -.00265 -.001 .000949999999999962 18 185
 974 0 187 182 188 183 ?1 29 186 1120 0 189 190 183 -.0023 .001 .001000000000000
032 18 189 977 0 191 192 193 186 1e-8 1 29 190 1122 0 188 194 186 -.0024 -.001 .
001199999999999964 18 188 976 0 195 185 196 190 ?1 29 194 1123 0 196 197 190 -.0
024 -.001 .001000000000000032 18 196 989 0 198 188 199 194 ?1 29 197 1124 0 199
 200 194 -.0024 .001 .001000000000000032 18 199 975 0 201 196 192 197 ?1 29 200
 1125 0 192 202 197 -.0024 .001 .001199999999999964 18 192 983 0 203 199 189 200
 ?1 29 202 1353 0 193 204 200 .002215 -.001765 15e-5 18 193 1284 0 205 189 206 2
02 ?1 29 204 1354 0 206 207 202 .002215 .001765 15e-5 18 206 1285 0 208 193 209
 204 ?1 29 207 1359 0 209 210 204 .0014 .001765 15e-5 18 209 1286 0 211 206 212
 207 ?1 29 210 1360 0 212 213 207 .0014 -.001765 15e-5 18 212 1275 0 214 209 215
 210 ?1 29 213 1687 0 215 216 210 .002215 -.001 .0001499999999998946 18 215 1555
 0 217 212 218 213 ?1 29 216 1688 0 218 219 213 .002215 .001 .000149999999999894
6 18 218 1553 0 220 215 221 216 ?1 29 219 1689 0 221 222 216 .00155 -.001 -50000
0000000365e-19 18 221 1567 0 223 218 224 219 ?1 29 222 1691 0 224 225 219 .00155
 .001 .0001499999999998946 18 224 1554 0 226 221 227 222 ?1 29 225 1692 0 227 22
8 222 .00155 .001 -50000000000036e-18 18 227 1557 0 229 224 230 225 ?1 29 228 16
93 0 230 231 225 .0024 -.001 -500000000000366e-19 18 230 1568 0 232 227 233 228
 ?1 29 231 1694 0 233 234 228 .0024 -.001 .0001499999999998946 18 233 1556 0 235
 230 236 231 ?1 29 234 1695 0 236 237 231 .0024 .001 .0001499999999998946 18 236
 1574 0 238 233 239 234 ?1 29 237 1696 0 239 240 234 .0024 .001 -500000000000361
e-19 18 239 1558 0 241 236 242 237 ?1 29 240 1697 0 242 243 237 .00265 -.001 .00
01999999999999655 18 242 1569 0 244 239 245 240 ?1 29 243 1698 0 245 246 240 .00
245000000000007 -.001 .0001999999999999685 18 245 1559 0 247 242 248 243 ?1 29 2
46 1699 0 248 249 243 .00245000000000007 .001 .0001999999999999685 18 248 1575 0
 250 245 251 246 ?1 29 249 1700 0 251 252 246 .00265 .001 .0001999999999999655 1
8 251 1560 0 253 248 254 249 ?1 29 252 1701 0 254 255 249 .00265 -.001 .00094999
9999999962 18 254 1570 0 256 251 257 252 ?1 29 255 1702 0 257 258 252 .002450000
00000007 -.001 .000949999999999965 18 257 1561 0 259 254 260 255 ?1 29 258 1703
 0 260 261 255 .00245000000000007 .001 .000949999999999965 18 260 1576 0 262 257
 263 258 ?1 29 261 1704 0 263 264 258 .00265 .001 .000949999999999962 18 263 156
2 0 265 260 266 261 ?1 29 264 1708 0 267 268 261 .0023 -.001 .001199999999999964
 18 267 1572 0 269 270 0 264 ?1 29 268 1709 0 266 271 264 .0024 .001 .0011999999
99999964 18 266 1564 0 272 263 273 268 ?1 29 271 1710 0 273 274 268 .0024 .001 .
001000000000000032 18 273 1577 0 275 266 276 271 ?1 29 274 1711 0 276 277 271 .0
024 -.001 .001000000000000032 18 276 1563 0 278 273 270 274 ?1 29 277 1712 0 270
 0 274 .0024 -.001 .001199999999999964 18 270 1571 0 279 276 267 277 ?1 17 279 0
 280 281 256 270 282 283 0 284 -15 255 280 1616 0 285 286 0 17 281 0 280 285 279
 267 287 288 0 289 +17 256 0 280 279 244 254 290 291 0 292 -17 282 0 293 294 284
 254 279 283 0 0 +16 283 1504 0 ?282 295 296 297 0 0 1 17 284 0 293 282 272 270
 298 299 0 287 -15 293 1605 0 284 300 0 17 272 0 293 284 294 266 301 302 0 303 -
17 298 0 304 305 287 266 284 299 0 0 +16 299 1508 0 ?298 306 27 307 0 0 1 17 287
 0 304 298 289 270 281 288 0 0 -15 304 1609 0 289 308 0 17 289 0 304 287 305 267
 36 309 0 0 -16 288 1520 0 ?281 310 311 312 0 0 1 16 310 1505 0 ?294 313 288 314
 0 0 1 16 311 1524 0 ?315 288 316 317 0 0 1 30 312 1677 0 288 317 314 0 +.0024 -
.001 .001199999999999964 -1 0 0 30 317 1678 0 311 318 312 0 +.0024 -.001 .001000
000000000032 -1 0 0 30 314 1676 0 310 312 319 0 +.00265 .001 .000949999999999962
 -216840434497101e-30 1 3020062015208265e-45 30 319 1675 0 313 314 320 0 +.00245
000000000007 .001 .000949999999999965 0 -1 0 16 313 1501 0 ?321 302 310 319 0 0
 1 31 255 320 1674 0 302 319 322 0 +.0024 .001 .000949999999999964 0 1 0 0 0 1 2
5e-5 16 302 1525 0 ?301 323 313 320 0 0 1 31 322 1673 0 323 320 324 0 +.0024 .00
1 .000949999999999964 0 1 0 0 0 1 500000000000691e-19 16 323 1500 0 ?325 296 302
 322 0 0 1 31 324 1672 0 296 322 297 0 +.0024 -.001 .000949999999999964 0 1 0 0
 0 1 500000000000691e-19 16 296 1512 0 ?326 283 323 324 0 0 1 31 297 1671 0 283
 324 327 0 +.0024 -.001 .000949999999999964 0 1 0 0 0 1 25e-5 30 327 1670 0 295
 297 328 0 +.00265 .001 .0001999999999999655 -216840434497101e-30 1 302006201520
8265e-45 16 295 1497 0 ?329 330 283 327 0 0 1 30 328 1669 0 330 327 331 0 +.0024
5000000000007 .001 .0001999999999999685 0 -1 0 16 330 1493 0 ?332 333 295 328 0
 0 1 30 331 1668 0 333 328 334 0 +.00265 .001 .000949999999999962 0 0 -1 16 333
 1526 0 ?335 336 330 331 0 0 1 30 334 1667 0 336 331 337 0 +.00245000000000007 .
001 .000949999999999965 0 0 -1 16 336 1492 0 ?338 339 333 334 0 0 1 30 337 1666
 0 339 334 340 0 +.00245000000000007 -.001 .000949999999999965 0 0 -1 16 339 151
3 0 ?341 291 336 337 0 0 1 30 340 1665 0 291 337 342 0 +.00265 -.001 .0009499999
99999962 0 0 -1 16 291 1496 0 ?290 343 339 340 0 0 1 30 342 1664 0 343 340 344 0
 +.0024 .001 -500000000000361e-19 608827227902622e-44 1 216840434497101e-30 16 3
43 1489 0 ?345 346 291 342 0 0 1 30 344 1663 0 346 342 347 0 +.0024 .001 .000149
9999999998946 0 -1 0 16 346 1485 0 ?348 349 343 344 0 0 1 31 347 1662 0 349 344
 350 0 +.0024 .001 .000199999999999964 0 1 0 0 0 1 25e-5 16 349 1527 0 ?351 352
 346 347 0 0 1 31 350 1661 0 352 347 353 0 +.0024 .001 .000199999999999964 0 1 0
 0 0 1 500000000000691e-19 16 352 1484 0 ?354 355 349 350 0 0 1 31 353 1660 0 35
5 350 356 0 +.0024 -.001 .000199999999999964 0 1 0 0 0 1 500000000000691e-19 16
 355 1514 0 ?357 358 352 353 0 0 1 31 356 1659 0 358 353 359 0 +.0024 -.001 .000
199999999999964 0 1 0 0 0 1 25e-5 16 358 1488 0 ?360 361 355 356 0 0 1 30 359 16
58 0 361 356 362 0 +.00155 .001 -50000000000036e-18 608827227902622e-44 1 216840
434497101e-30 16 361 1481 0 ?229 363 358 359 0 0 1 30 362 1657 0 363 359 364 0 +
.00155 .001 -50000000000036e-18 2807720014556425e-29 0 1 16 363 1529 0 ?226 365
 361 362 0 0 1 30 364 1656 0 365 362 366 0 +.00155 .001 .0001499999999998946 0 -
1 0 16 365 1476 0 ?367 368 363 364 0 0 1 30 366 1655 0 368 364 369 0 +.00155 -.0
01 -500000000000365e-19 -2807720014556425e-29 1084202172485878e-30 -1 16 368 151
7 0 ?223 370 365 366 0 0 1 30 369 1654 0 370 366 371 0 +.0024 .001 -500000000000
361e-19 -1 0 1275531967630008e-31 16 370 1528 0 ?372 373 368 369 0 0 1 30 371 16
53 0 373 369 374 0 +.0024 .001 .0001499999999998946 -1 0 1275531967630008e-31 16
 373 1479 0 ?375 376 370 371 0 0 1 30 374 1652 0 376 371 377 0 +.0024 -.001 .000
1499999999998946 -1 0 1275531967630008e-31 16 376 1515 0 ?378 379 373 374 0 0 1
 30 377 1651 0 379 374 380 0 +.0024 -.001 -500000000000366e-19 -1 0 127553196763
0008e-31 16 379 1480 0 ?381 382 376 377 0 0 1 30 380 1352 0 382 377 383 0 +.0014
 .00185 15e-5 0 1 -1245367360287404e-31 16 382 1269 0 ?211 384 379 380 0 0 1 30
 383 1336 0 385 380 386 0 -.002215 -.00185 15e-5 124536736028736e-31 -1 12453673
60287402e-31 16 385 1256 0 ?387 388 389 383 384 389 1 30 386 1335 0 388 383 390
 0 -.0023 -.001765 15e-5 -1 -1414176746720222e-31 176116956204279e-46 16 388 125
5 0 ?391 392 385 386 0 0 1 30 390 1099 0 393 386 394 0 +-.0024 .001 .00119999999
9999964 0 1 -216840434497101e-30 16 393 912 0 ?395 396 397 390 0 0 1 30 394 1098
 0 396 390 398 0 +-.0024 .001 .001000000000000032 0 -1 0 16 396 908 0 ?399 400 3
93 394 0 0 1 30 398 1096 0 1 394 401 402 +-.0023 .001 .001199999999999964 0 0 -1
 30 401 1094 0 1 398 403 404 +-.0023 -.001 .001199999999999964 0 108420217248587
8e-30 1 141 255 402 405 402 402 398 133 255 405 1129 0 406 407 408 0 +398 -.0023
 .001 .001199999999999964 -.0023 .001 .001000000000000032 0 .0001999999999999305
 16 406 923 0 ?409 410 392 405 0 0 1 133 407 862 0 411 412 405 0 +413 -.0023 .00
1 .001199999999999964 -.0023 .00185 .001199999999999964 -85e-5 0 133 408 1130 0
 414 405 415 0 +415 -.0024 .001 .001000000000000032 -.0023 .001 .001000000000000
032 0 999999999999981e-19 16 414 941 0 ?416 417 418 408 0 0 1 30 415 1131 0 1 40
8 419 420 +-.0024 .001 .001000000000000032 1 0 0 133 419 1132 0 410 415 421 0 +4
21 -.0023 .001 .001000000000000032 -.0023 -.001 .001000000000000032 0 .002 141 4
20 408 420 420 415 16 410 935 0 ?422 397 406 419 0 0 1 30 421 1133 0 1 419 423 4
24 +-.0023 .001 .001000000000000032 0 -1 0 133 423 1134 0 417 421 425 0 +425 -.0
024 .001 .001199999999999964 -.0023 .001 .001199999999999964 0 999999999999981e-
19 141 424 419 424 424 421 16 417 934 0 ?426 427 414 423 0 0 1 30 425 1135 0 1 4
23 428 429 +-.0024 .001 .001199999999999964 1 0 0 133 428 1136 0 392 425 430 0 +
430 -.0023 -.001 .001199999999999964 -.0023 .001 .001199999999999964 -.002 0 141
 429 423 429 429 425 16 392 916 0 ?431 406 388 428 0 0 1 30 430 1137 0 1 428 432
 433 +-.0023 .001 .001199999999999964 0 1 -216840434497101e-30 133 432 1138 0 39
7 430 434 0 +401 -.0023 -.001 .001000000000000032 -.0023 -.001 .0011999999999999
64 -.000199999999999931 -216840434497101e-33 141 433 428 433 433 430 16 397 942
 0 ?435 393 410 432 0 0 1 133 434 1139 0 400 432 436 0 +436 -.0024 -.001 .001199
999999999964 -.0023 -.001 .001199999999999964 0 999999999999981e-19 16 400 922 0
 ?437 418 396 434 0 0 1 30 436 1140 0 1 434 438 439 +-.0024 -.001 .0011999999999
99964 1 0 0 133 438 1141 0 418 436 440 0 +440 -.0024 -.001 .001000000000000032 -
.0023 -.001 .001000000000000032 0 999999999999981e-19 141 439 434 439 439 436 16
 418 952 0 ?441 414 400 438 0 0 1 30 440 1142 0 1 438 442 443 +-.0024 -.001 .001
000000000000032 1 0 0 30 442 1200 0 444 440 445 0 -.0023 .001765 15e-5 1 9427844
97813482e-31 -1174113041361862e-47 141 443 438 443 443 440 16 444 1198 0 ?446 44
7 448 442 0 0 1 30 445 1386 0 447 442 449 0 +.00125 0 0 0 -1 0 16 447 1384 0 ?45
0 451 444 445 0 0 1 30 449 1392 0 451 445 452 0 +.002274875621890565 -.001852487
562189055 .001024875621890562 .705345615858599 -.0705345615858575 .7053456158585
99 16 451 1390 0 ?214 453 447 449 0 0 1 30 452 1397 0 453 449 16 0 +.00227487562
1890565 .001852487562189055 .001024875621890562 -.705345615858599 -.070534561585
8575 -.705345615858599 16 453 1395 0 ?47 20 451 452 0 0 1 30 16 1441 0 20 452 6
 0 +.0014 .001 15e-5 1 0 0 16 20 1440 0 ?220 9 453 16 0 0 1 17 220 0 454 238 226
 218 455 20 0 375 +15 454 1627 0 26 456 0 17 238 0 454 250 220 236 375 373 0 457
 -17 226 0 454 220 372 224 458 363 0 459 +17 455 0 460 367 461 224 220 20 0 0 -1
7 375 0 462 217 457 218 238 373 0 461 +15 462 1584 0 217 463 0 17 217 0 462 235
 375 215 464 389 0 378 -17 457 0 462 375 235 236 348 346 0 354 -17 461 0 460 455
 465 218 208 384 0 464 -15 460 1443 0 466 467 0 17 465 0 460 461 211 206 446 444
 0 468 -17 208 0 31 469 464 206 461 384 0 465 +16 384 1431 0 ?208 389 382 383 38
9 385 1 17 464 0 31 208 387 218 217 389 0 0 +15 31 350 0 470 471 0 17 387 0 31 4
64 470 215 205 385 0 0 +16 389 1428 0 ?464 385 384 383 385 384 1 17 470 0 31 387
 32 193 472 473 0 0 +17 205 0 460 474 466 193 387 385 0 391 -17 474 0 460 211 20
5 212 391 388 0 475 -17 466 0 460 205 367 215 19 9 0 387 -17 391 0 476 472 214 1
93 474 388 0 470 +15 476 598 0 477 478 0 17 472 0 476 479 391 87 470 473 0 32 -1
7 214 0 476 391 477 212 44 451 0 474 +17 477 0 476 214 480 42 71 481 0 0 -17 44
 0 482 483 475 42 214 451 0 450 -15 482 1407 0 484 14 0 17 483 0 482 484 44 45 4
50 447 0 0 -17 475 0 482 44 484 212 211 382 0 0 -17 450 0 485 71 486 42 483 447
 0 477 +15 485 292 0 486 487 0 17 71 0 485 68 450 69 477 481 0 480 +17 486 0 485
 450 68 45 488 489 0 483 +17 68 0 485 486 71 66 490 491 0 488 +17 488 0 492 74 4
7 66 486 489 0 493 -16 489 777 0 ?486 494 481 495 0 0 1 16 494 1458 0 ?24 496 48
9 497 496 496 1 16 481 1382 0 ?71 489 498 499 0 0 1 30 495 308 0 489 499 497 0 +
-1649872871173595e-34 .00175 0 1 942784497813482e-31 0 30 499 301 0 481 500 495
 0 +247480930676039e-33 -.00175 0 -1 -1414176746720222e-31 0 30 497 317 0 496 49
5 501 0 +.0023 -.00185 .001000000000000032 0 1 0 16 496 315 0 ?35 502 494 497 49
4 494 1 30 501 326 0 502 497 503 0 +.0023 -.00185 .001000000000000032 1 14141767
46720222e-31 0 16 502 324 0 ?89 504 496 501 0 0 1 30 503 332 0 1 501 505 506 +-.
0023 -.00185 .001000000000000032 0 -1 0 30 505 384 0 507 503 508 0 --.0022637254
9019608 .00181372549019608 .00063725490196083 .0990147542976641 -.09901475429766
41 -.990147542976675 141 506 509 510 510 503 133 509 853 0 504 511 412 0 +503 -.
0023 -.001 .001000000000000032 -.0023 -.00185 .001000000000000032 -85e-5 0 141 5
10 511 506 506 503 133 511 850 0 512 513 509 0 +503 -.0023 .00185 .0010000000000
00032 -.0023 .001 .001000000000000032 -.0037 -.00285 16 512 330 0 ?191 514 504 5
11 0 0 1 30 513 843 0 448 515 511 0 +-.0014 .001 15e-5 1 0 0 16 448 841 0 ?516 4
44 517 513 0 0 1 30 515 837 0 517 518 513 0 +-.0014 -.001 15e-5 -1 0 0 16 517 83
5 0 ?519 448 520 515 0 0 1 30 518 787 0 520 521 515 0 +1368159203978458e-20 .001
623631840796025 -.001263681592039784 -.705345615858599 .0705345615858573 .705345
615858599 16 520 785 0 ?74 517 491 518 0 0 1 30 521 781 0 491 522 518 0 +-.00125
 0 0 0 1 0 16 491 779 0 ?68 520 523 521 0 0 1 30 522 773 0 523 524 521 0 +136815
9203978458e-20 -.001623631840796025 -.001263681592039786 .705345615858598 .07053
45615858577 -.705345615858598 16 523 771 0 ?480 491 514 522 0 0 1 30 524 581 0 5
14 525 522 0 -.0023 .001765 15e-5 -1 -942784497813482e-31 1174113041361862e-47 1
6 514 579 0 ?526 523 512 524 0 0 1 30 525 549 0 1 527 524 528 +-.0013 -.00175 .0
02201 0 0 -1 133 527 548 0 529 530 525 0 +525 -.0013 -.00175 .002201 -.0013 -.00
175 .0022 0 1000000000000132e-21 141 528 527 528 528 525 16 529 464 0 ?531 532 5
33 527 0 0 1 30 530 547 0 1 534 527 535 +-.0013 .00175 .002201 0 0 -1 133 534 54
6 0 533 536 530 0 +530 -.0013 .00175 .002201 -.0013 .00175 .0022 0 1000000000000
132e-21 141 535 534 535 535 530 16 533 452 0 ?537 529 538 534 0 0 1 133 536 545
 0 539 540 534 0 +541 -.0013 -.00175 .0022 -.0013 .00175 .0022 0 .0035 16 539 46
1 0 ?542 543 544 536 0 0 1 30 540 544 0 1 545 536 546 +-.0013 .00175 .0022 -1 0
 0 30 541 519 0 1 547 548 549 +-.0013 -.00175 .0022 0 1 0 30 547 521 0 1 550 541
 551 +-.0019 .00175 .0022 0 -1 0 30 548 86 0 552 541 553 0 +-.0023 .00185 .0022
 0 0 -1 141 549 536 549 549 541 16 552 157 0 ?554 555 556 548 0 0 1 30 553 87 0
 555 548 557 0 +.0023 .00185 .0022 0 0 -1 16 555 160 0 ?558 559 552 553 0 0 1 30
 557 88 0 559 553 560 0 +.0023 -.00185 .0022 0 0 -1 16 559 168 0 ?561 562 555 55
7 0 0 1 30 560 89 0 562 557 563 0 +-.0023 -.00185 .0022 0 0 -1 16 562 176 0 ?564
 565 559 560 0 0 1 30 563 142 0 565 560 566 0 +-.0022 -.00185 .0022 0 -1 0 16 56
5 140 0 ?115 567 562 563 0 0 1 30 566 146 0 1 563 568 569 +.0023 -.00175 .0022 1
 1414176746720222e-31 0 30 568 150 0 570 566 571 0 +.0022 .00185 .0022 0 1 0 141
 569 572 573 573 566 133 572 434 0 567 574 575 0 +566 -.0013 -.00175 .0022 .0022
 -.00175 .0022 -.0036 -1e-4 141 573 574 569 569 566 133 574 431 0 576 577 572 0
 +566 -.0022 -.00175 .0022 -.0019 -.00175 .0022 -.0045 -.0042 16 576 144 0 ?122
 570 567 574 0 0 1 133 577 425 0 578 579 574 0 +571 -.0019 .00175 .0022 -.0022 .
00175 .0022 -4e-4 -1e-4 16 578 424 0 ?118 580 570 577 0 0 1 133 579 422 0 580 58
1 577 0 +571 .0022 .00175 .0022 -.0013 .00175 .0022 -.0045 -.001 30 571 153 0 1
 568 582 583 +-.0023 .00175 .0022 -1 -942784497813482e-31 0 30 582 164 0 584 571
 585 0 +.0023 .00185 .001199999999999964 1 942784497813482e-31 0 141 583 577 586
 586 571 141 586 579 583 583 571 16 584 162 0 ?587 588 580 582 0 0 1 30 585 172
 0 589 582 590 0 +.0023 -.00185 .001199999999999964 0 -1 0 16 589 170 0 ?25 591
 588 585 588 588 1 30 590 180 0 591 585 413 0 +-.0023 -.00185 .00119999999999996
4 -1 -1414176746720222e-31 0 16 591 178 0 ?97 411 589 590 0 0 1 30 413 185 0 1 5
90 592 593 +-.0023 .00185 .001199999999999964 0 1 0 30 592 234 0 594 413 595 0 -
-.002182843137254905 .001732843137254905 .002371568627450975 -.0990147542976638
 .0990147542976637 -.990147542976675 141 593 407 596 596 413 141 596 412 593 593
 413 133 412 859 0 597 509 407 0 +413 -.0023 -.00185 .001199999999999964 -.0023
 -.001 .001199999999999964 -.0037 -.00285 16 597 183 0 ?598 498 411 412 0 0 1 17
 598 0 599 56 600 51 601 597 0 435 +16 498 285 0 ?602 481 597 500 0 0 1 16 411 8
61 0 ?106 597 591 407 0 0 1 17 106 0 603 554 50 104 604 411 0 605 +15 603 865 0
 50 606 0 17 554 0 603 191 106 92 605 552 0 0 +17 50 0 603 106 191 48 409 406 0
 604 -17 604 0 607 53 608 48 106 411 0 426 -17 605 0 609 587 602 104 554 552 0 6
10 -15 609 78 0 558 611 0 17 587 0 609 558 605 101 610 584 0 612 +17 602 0 609 6
05 558 92 613 498 0 554 +17 610 0 614 615 103 104 587 584 0 608 -15 614 204 0 10
3 616 0 17 615 0 614 617 610 116 608 594 0 618 +17 103 0 614 610 619 101 620 621
 0 622 +17 608 0 607 604 618 104 615 594 0 0 -15 607 202 0 623 624 0 17 618 0 60
7 608 623 116 115 565 0 0 -16 594 218 0 ?615 621 473 592 0 0 1 16 621 216 0 ?103
 625 594 595 0 0 1 16 473 360 0 ?470 594 626 581 0 0 1 16 626 585 0 ?627 473 628
 629 0 0 1 30 581 381 0 473 629 579 0 -.0023 -.00185 .001000000000000032 .099014
7542976641 -.0990147542976644 .990147542976675 30 629 382 0 626 508 581 0 +-.002
3 -.00185 .001000000000000032 -.0990147542976641 -.0990147542976644 .99014754297
6675 30 508 383 0 628 505 629 0 -.00226372549019608 .00181372549019608 .00063725
4901960829 .0990147542976641 .0990147542976641 .990147542976675 16 628 366 0 ?46
8 626 507 508 0 0 1 17 468 0 492 446 613 206 469 628 0 0 +16 507 573 0 ?94 628 6
30 505 0 0 1 17 94 0 492 613 631 92 632 507 0 633 +16 630 456 0 ?634 507 532 635
 0 0 1 17 634 0 636 637 134 78 638 630 0 639 +16 532 460 0 ?640 630 529 641 0 0
 1 133 635 541 0 630 642 643 0 +643 -.0019 .00175 .002201 -.0019 .00175 .0022 0
 1000000000000132e-21 30 642 540 0 1 644 635 645 +-.0019 -.00175 .0022 1 0 0 30
 643 542 0 1 635 545 646 +-.0019 .00175 .002201 0 0 -1 133 545 543 0 647 643 540
 0 +540 -.0013 .00175 .0022 -.0019 .00175 .0022 0 6e-4 141 646 635 646 646 643 1
6 647 449 0 ?639 648 649 545 0 0 1 17 639 0 650 638 537 78 83 647 0 0 +16 648 45
3 0 ?637 544 647 575 0 0 1 16 649 611 0 ?136 647 651 652 0 0 1 17 136 0 653 145
 654 124 655 649 0 656 +16 651 612 0 ?145 649 657 658 659 657 1 30 652 716 0 649
 658 660 0 -.0023 -.001765 15e-5 1 1414176746720222e-31 -176116956204279e-46 30
 658 717 0 651 661 652 0 --.002215 -.00185 15e-5 -124536736028736e-31 -1 1245367
360287402e-31 30 660 526 0 543 652 662 0 +-.0013 .00175 .002201 -1 0 0 16 543 46
5 0 ?663 664 539 660 0 0 1 30 662 525 0 664 660 665 0 +-.0019 .00175 .002201 0 -
1 0 16 664 468 0 ?132 666 543 662 0 0 1 30 665 524 0 666 662 550 0 +-.0019 -.001
75 .002201 1 0 0 16 666 471 0 ?129 538 664 665 0 0 1 30 550 523 0 538 665 547 0
 +-.0013 -.00175 .002201 0 1 0 16 538 474 0 ?126 533 666 550 0 0 1 17 126 0 667
 663 129 119 668 538 0 669 +15 667 503 0 663 670 0 17 663 0 667 132 126 123 671
 543 0 638 +17 129 0 667 126 132 127 672 666 0 673 +17 668 0 674 531 669 127 126
 538 0 0 -17 669 0 674 668 542 119 537 533 0 671 -15 674 500 0 542 675 0 17 542
 0 674 669 531 81 77 539 0 537 +17 537 0 650 639 671 81 669 533 0 0 +17 671 0 65
0 537 638 119 663 543 0 0 -15 650 488 0 639 676 0 17 638 0 650 671 639 123 634 6
30 0 0 -14 255 676 485 677 ?678 679 650 4 680 -0 0 678 679 18 81 255 1 677 2064
 681 676 682 0 0 683 684 14 678 489 683 ?685 676 636 4 686 -0 0 685 676 18 14 67
9 351 687 ?676 616 688 4 689 +0 0 676 616 18 50 680 509 0 676 686 690 0 +-.0013
 .00175 .002201 0 -1 0 0 0 -1 13 18 29 0 0 0 0 0 0 8 12 14 12 1463 691 ?478 0 69
2 4 693 -694 694 478 0 18 81 1 691 2067 681 12 695 0 687 696 697 14 478 1218 696
 ?471 12 476 4 698 +0 0 471 12 18 15 692 1461 0 35 12 0 50 693 91 0 694 699 700
 0 +.0023 -.00185 .0022 -1 0 0 0 0 1 14 694 81 701 ?611 702 23 4 693 -12 12 611
 702 18 81 1 701 2069 681 694 703 0 696 704 705 14 611 79 704 ?706 694 609 4 699
 -0 0 706 694 18 14 702 83 707 ?694 708 709 4 700 -0 0 694 708 18 15 23 80 0 25
 694 0 17 25 0 23 21 612 30 622 589 0 305 +17 612 0 23 25 24 101 558 555 0 0 -17
 622 0 710 620 36 101 25 589 0 587 -17 305 0 304 289 298 30 303 711 0 26 +17 303
 0 454 301 26 266 305 711 0 298 -16 711 1511 0 ?305 316 306 712 0 0 1 17 26 0 45
4 303 713 30 21 27 0 0 -17 713 0 454 26 275 10 714 316 0 33 +16 27 1538 0 ?21 29
9 34 715 0 0 1 16 34 1543 0 ?29 27 716 717 0 0 1 30 715 1681 0 27 717 712 0 +.00
23 .001 .001199999999999964 0 0 -1 30 717 1682 0 34 718 715 0 +.0023 .001 .00100
0000000000032 0 -1 0 30 712 1680 0 711 715 318 0 +.0024 .001 .001199999999999964
 -1 0 0 30 318 1679 0 316 712 317 0 +.0024 .001 .001000000000000032 -1 0 0 16 31
6 1532 0 ?713 311 711 318 0 0 1 30 718 1683 0 716 719 717 0 +.0023 -.001 .001199
999999999964 0 1084202172485878e-30 1 16 716 1548 0 ?720 34 309 718 0 0 1 30 719
 1684 0 309 721 718 0 +.0023 .001 .001199999999999964 0 1 -216840434497101e-30 1
6 309 1533 0 ?36 716 0 719 0 0 1 30 721 1685 0 306 307 719 0 +.0024 .001 .001000
000000000032 0 -1 0 16 306 1521 0 ?722 711 299 721 0 0 1 30 307 1686 0 299 0 721
 0 +.0024 .001 .001199999999999964 0 1 -216840434497101e-30 17 722 0 723 315 714
 276 724 306 0 0 +15 723 1620 0 33 725 0 17 315 0 723 33 722 22 726 311 0 285 +1
7 714 0 723 722 33 273 713 316 0 0 -17 724 0 727 325 278 273 722 306 0 714 -15 7
27 1602 0 724 728 0 17 325 0 727 321 724 260 275 323 0 0 +17 278 0 727 724 321 2
76 326 296 0 726 -17 321 0 727 278 325 257 729 313 0 326 +17 326 0 280 341 726 2
57 278 296 0 0 +17 726 0 280 326 285 276 315 311 0 722 -17 285 0 280 726 281 22
 720 716 0 0 -17 720 0 692 100 35 267 285 716 0 281 +17 100 0 692 561 720 98 269
 588 0 730 +17 35 0 692 720 561 22 32 496 0 315 +17 561 0 692 35 100 87 730 559
 0 472 +17 32 0 31 470 29 87 35 496 0 0 -17 730 0 709 97 89 98 561 559 0 731 -15
 709 82 0 564 702 0 17 97 0 709 564 730 95 731 591 0 600 +17 89 0 709 730 564 87
 479 502 0 561 +17 731 0 732 733 734 98 97 591 0 735 -15 732 198 0 734 736 0 17
 733 0 732 737 731 110 735 556 0 738 -17 734 0 732 731 739 95 623 625 0 601 -17
 735 0 710 269 738 98 733 556 0 0 +15 710 200 0 735 740 0 17 269 0 710 36 735 26
7 100 588 0 720 -17 738 0 710 735 620 110 109 570 0 0 -16 556 210 0 ?735 552 625
 741 0 0 1 16 625 213 0 ?623 556 621 742 0 0 1 30 741 231 0 556 742 500 0 -.0021
7843137254902 -.00172843137254902 .002415686274509795 -.0990147542976638 .099014
754297664 .990147542976675 30 742 232 0 625 595 741 0 +-.002182843137254905 -.00
1732843137254905 .002371568627450975 .0990147542976638 .0990147542976641 .990147
542976675 30 500 287 0 498 741 499 0 +.0023 .00185 .001000000000000032 -1 -94278
4497813482e-31 0 30 595 233 0 621 592 742 0 -.002182843137254905 .00173284313725
4905 .002371568627450975 -.0990147542976638 -.0990147542976638 .990147542976675
 17 623 0 607 618 601 113 734 625 0 0 +17 601 0 607 623 53 95 598 597 0 0 -17 53
 0 607 601 604 51 431 392 0 598 -17 431 0 743 744 437 48 53 392 0 0 +15 743 1021
 0 431 745 0 17 744 0 743 746 431 192 426 417 0 0 -17 437 0 743 431 746 51 747 4
00 0 0 +17 746 0 743 437 744 188 395 393 0 0 -17 747 0 748 749 435 188 437 400 0
 746 -15 748 1039 0 435 750 0 17 749 0 748 751 747 185 195 752 0 0 +17 435 0 748
 747 441 51 56 397 0 437 +17 441 0 748 435 198 54 753 418 0 0 +17 56 0 599 86 59
8 54 435 397 0 754 -15 599 873 0 56 755 0 17 86 0 599 600 56 84 754 504 0 627 +1
7 754 0 688 756 627 54 86 504 0 422 -15 688 588 0 656 679 0 17 756 0 688 633 754
 189 422 410 0 409 -17 627 0 688 754 656 84 757 626 0 564 +16 504 852 0 ?86 512
 502 509 0 0 1 17 422 0 758 753 416 54 756 410 0 441 +15 758 1032 0 422 759 0 17
 753 0 758 760 422 196 441 418 0 0 -17 416 0 758 422 760 189 761 414 0 0 +17 760
 0 758 416 753 199 399 396 0 0 -17 761 0 762 763 409 199 416 414 0 760 -15 762 1
028 0 409 764 0 17 763 0 762 765 761 179 201 766 0 0 +17 409 0 762 761 426 189 5
0 406 0 416 +17 426 0 762 409 203 48 744 417 0 431 +17 203 0 762 426 178 192 767
 768 0 395 -17 178 0 762 203 166 176 769 770 0 771 -17 767 0 772 773 395 176 203
 768 0 0 +16 768 915 0 ?767 774 766 775 0 0 1 17 395 0 772 767 195 192 746 393 0
 744 +15 772 1017 0 395 776 0 17 195 0 772 395 773 188 749 752 0 747 -17 773 0 7
72 195 767 185 771 427 0 749 -16 752 948 0 ?749 777 778 779 0 0 1 16 777 911 0 ?
780 766 752 781 0 0 1 16 778 900 0 ?782 752 427 783 0 0 1 31 779 1087 0 752 783
 781 0 +-.0024 -.001 .000949999999999964 0 -1 0 0 0 -1 25e-5 30 783 1088 0 778 4
03 779 0 +-.00245000000000007 .001 .000949999999999965 0 -1 0 31 781 1086 0 777
 779 784 0 +-.0024 -.001 .000949999999999964 0 -1 0 0 0 -1 500000000000691e-19 3
1 784 1085 0 766 781 775 0 +-.0024 .001 .000949999999999964 0 -1 0 0 0 -1 500000
000000691e-19 16 766 929 0 ?763 768 777 784 0 0 1 31 775 1084 0 768 784 785 0 +-
.0024 .001 .000949999999999964 0 -1 0 0 0 -1 25e-5 30 785 1083 0 774 775 786 0 +
-.00265 .001 .0001999999999999655 216840434497101e-30 1 3020062015208265e-45 16
 774 896 0 ?787 788 768 785 0 0 1 30 786 1082 0 788 785 789 0 +-.002450000000000
07 .001 .0001999999999999685 0 -1 0 16 788 892 0 ?790 791 774 786 0 0 1 30 789 1
081 0 791 786 792 0 +-.00265 -.001 .000949999999999962 0 0 -1 16 791 949 0 ?751
 793 788 789 0 0 1 30 792 1080 0 793 789 794 0 +-.00245000000000007 -.001 .00094
9999999999965 0 0 -1 16 793 903 0 ?795 796 791 792 0 0 1 30 794 1079 0 796 792 7
97 0 +-.00245000000000007 .001 .000949999999999965 0 0 -1 16 796 930 0 ?765 770
 793 794 0 0 1 30 797 1078 0 770 794 798 0 +-.00265 .001 .000949999999999962 0 0
 -1 16 770 907 0 ?769 799 796 797 0 0 1 30 798 1077 0 799 797 800 0 +-.0024 .001
 -500000000000361e-19 -608827227902622e-44 1 216840434497101e-30 16 799 888 0 ?8
01 802 770 798 0 0 1 30 800 1076 0 802 798 803 0 +-.0024 .001 .00014999999999989
46 0 -1 0 16 802 885 0 ?804 805 799 800 0 0 1 31 803 1075 0 805 800 806 0 +-.002
4 -.001 .000199999999999964 0 -1 0 0 0 -1 25e-5 16 805 950 0 ?807 808 802 803 0
 0 1 31 806 1074 0 808 803 809 0 +-.0024 -.001 .000199999999999964 0 -1 0 0 0 -1
 500000000000691e-19 16 808 895 0 ?810 811 805 806 0 0 1 31 809 1073 0 811 806 8
12 0 +-.0024 .001 .000199999999999964 0 -1 0 0 0 -1 500000000000691e-19 16 811 9
31 0 ?813 814 808 809 0 0 1 31 812 1072 0 814 809 815 0 +-.0024 .001 .0001999999
99999964 0 -1 0 0 0 -1 25e-5 16 814 899 0 ?816 817 811 812 0 0 1 30 815 1071 0 8
17 812 818 0 +-.00155 .001 -50000000000036e-18 -608827227902622e-44 1 2168404344
97101e-30 16 817 953 0 ?819 820 814 815 0 0 1 30 818 1070 0 820 815 821 0 +-.001
55 -.001 -500000000000365e-19 2807720014556425e-29 1084202172485878e-30 -1 16 82
0 962 0 ?822 823 817 818 0 0 1 30 821 1069 0 823 818 824 0 +-.00155 .001 .000149
9999999998946 0 -1 0 16 823 959 0 ?825 826 820 821 0 0 1 30 824 1068 0 826 821 8
27 0 +-.00155 .001 -50000000000036e-18 -2807720014556425e-29 0 1 16 826 956 0 ?8
28 829 823 824 0 0 1 30 827 1067 0 829 824 830 0 +-.0024 -.001 -500000000000366e
-19 1 0 1275531967630008e-31 16 829 951 0 ?831 832 826 827 0 0 1 30 830 1066 0 8
32 827 833 0 +-.0024 -.001 .0001499999999998946 1 0 1275531967630008e-31 16 832
 883 0 ?834 835 829 830 0 0 1 30 833 1065 0 835 830 836 0 +-.0024 .001 .00014999
99999998946 1 0 1275531967630008e-31 16 835 932 0 ?837 838 832 833 0 0 1 30 836
 1064 0 838 833 661 0 +-.0024 .001 -500000000000361e-19 1 0 1275531967630008e-31
 16 838 891 0 ?839 840 835 836 0 0 1 30 661 733 0 840 836 658 0 +-.0014 .00185 1
5e-5 0 1 -1245367360287404e-31 16 840 630 0 ?841 659 838 661 0 0 1 17 841 0 842
 493 142 72 654 840 0 0 +16 659 832 0 ?139 657 840 658 657 651 1 17 139 0 653 52
6 65 137 843 659 0 631 +16 657 829 0 ?844 651 659 658 651 659 1 17 844 0 845 157
 834 63 846 657 0 837 +15 845 996 0 834 847 0 17 157 0 845 804 844 155 837 835 0
 848 -17 834 0 845 844 804 143 160 832 0 0 +17 846 0 688 656 843 143 844 657 0 5
19 -17 837 0 762 516 813 63 157 835 0 0 +17 516 0 762 148 837 57 65 448 0 828 +1
7 813 0 762 837 765 155 169 811 0 0 +17 765 0 762 813 763 167 181 796 0 0 +17 16
9 0 849 790 848 167 813 811 0 850 -15 849 1002 0 790 851 0 17 790 0 849 810 169
 170 850 788 0 795 +17 848 0 849 169 810 155 804 802 0 813 -17 850 0 852 181 795
 167 790 788 0 765 -15 852 1008 0 782 853 0 17 181 0 852 782 850 179 765 796 0 8
54 -17 795 0 852 850 782 170 184 793 0 0 +17 782 0 852 795 181 182 854 778 0 780
 +17 184 0 748 198 172 182 795 793 0 782 -17 198 0 748 441 184 196 780 777 0 399
 -17 172 0 748 184 160 170 810 808 0 790 -17 160 0 748 172 519 158 834 832 0 804
 -17 810 0 849 848 790 158 172 808 0 0 +17 519 0 748 160 855 143 62 517 0 834 +1
7 804 0 845 834 157 158 848 802 0 810 +17 855 0 748 519 831 60 822 820 0 825 -17
 62 0 653 59 145 60 519 517 0 855 -15 653 842 0 65 856 0 17 59 0 653 65 62 57 82
5 823 0 516 -17 145 0 653 62 136 143 656 651 0 846 +17 656 0 688 627 846 124 145
 651 0 757 -17 757 0 476 655 479 124 627 626 0 0 -17 655 0 476 480 757 140 136 6
49 0 0 -17 479 0 476 757 472 84 89 502 0 0 -17 480 0 476 477 655 69 142 523 0 49
0 +17 142 0 842 841 490 140 480 523 0 654 -17 490 0 842 142 493 69 68 491 0 0 -1
5 842 797 0 493 857 0 17 493 0 842 490 841 66 74 520 0 0 -17 74 0 492 631 488 72
 493 520 0 526 +15 492 580 0 446 858 0 17 631 0 492 94 74 137 526 514 0 632 -17
 526 0 653 654 139 72 631 514 0 841 +17 654 0 653 136 526 140 841 840 0 655 -17
 632 0 688 843 633 137 94 507 0 0 -17 843 0 688 846 632 63 139 659 0 844 -17 633
 0 688 632 756 92 191 512 0 602 -17 191 0 603 50 554 189 633 512 0 756 +17 446 0
 492 47 468 209 465 444 0 484 +14 858 1201 859 ?755 471 492 4 860 +0 0 755 471 1
8 81 1 859 2072 681 858 861 0 707 862 863 14 755 875 862 ?606 858 599 4 864 -606
 606 606 858 18 14 471 1208 865 ?858 478 31 4 866 +0 0 858 478 18 50 860 380 0 8
58 867 689 0 -.0023 .00185 .001000000000000032 938105637677863e-31 -.99503719020
999 .0995037190209955 -1 -942784497813482e-31 0 50 867 227 0 736 868 860 0 +2474
80930676039e-33 -.00175 .0022 1407158456516794e-31 -.99503719020999 .09950371902
09955 -1 -1414176746720222e-31 0 50 689 379 0 679 860 866 0 --.0023 -.00185 .001
000000000000032 .99503719020999 0 .0995037190209955 0 -1 0 50 866 378 0 471 689
 698 0 -.0023 -.00185 .001000000000000032 -.99503719020999 0 .0995037190209955 0
 1 0 50 698 377 0 478 866 15 0 -.0023 -.00185 .001000000000000032 -1407158456516
794e-31 .995037190209989 .0995037190209958 1 1414176746720222e-31 0 50 15 808 0
 857 698 5 0 --.0014 0 15e-5 .707106781186548 0 .707106781186548 0 -1 0 14 857 7
96 869 ?847 670 842 4 15 +0 0 847 670 18 81 1 869 2075 681 857 870 0 865 871 872
 14 847 994 871 ?873 857 845 4 874 +0 0 873 857 18 14 670 501 875 ?857 675 667 4
 876 +0 0 857 675 18 81 1 875 2077 681 670 877 0 871 878 879 14 675 497 878 ?670
 685 674 4 880 -0 0 670 685 18 50 876 514 0 670 881 880 0 +0 0 .002201 0 0 1 1 0
 0 50 881 710 0 856 874 876 0 +-.0014 .00185 15e-5 0 1245367360287402e-31 1 0 -1
 1245367360287402e-31 50 880 512 0 675 876 882 0 +-.0013 -.00175 .002201 -1 0 0
 0 0 1 50 882 511 0 685 880 686 0 +-.0019 -.00175 .002201 0 1 0 0 0 1 14 685 493
 883 ?675 678 884 4 882 -0 0 675 678 18 50 686 510 0 678 882 680 0 +-.0019 .0017
5 .002201 1 0 0 0 0 -1 81 1 883 2079 681 685 885 0 878 886 887 15 884 496 0 888
 685 0 17 888 0 884 673 640 75 889 544 0 531 +17 673 0 884 672 888 127 531 529 0
 668 -17 640 0 884 888 672 120 890 532 0 0 +17 889 0 732 739 737 120 888 544 0 6
37 -16 544 457 0 ?888 539 648 644 0 0 1 17 531 0 674 542 668 75 673 529 0 0 +133
 644 539 0 544 891 642 0 +642 -.0019 -.00175 .0022 -.0013 -.00175 .0022 0 6e-4 3
0 891 538 0 1 641 644 892 +-.0019 -.00175 .002201 0 0 -1 133 641 537 0 532 575 8
91 0 +891 -.0019 -.00175 .002201 -.0019 -.00175 .0022 0 1000000000000132e-21 141
 892 641 892 892 891 133 575 536 0 648 572 641 0 +547 -.0019 .00175 .0022 -.0019
 -.00175 .0022 0 .0035 17 739 0 732 734 889 113 122 576 0 623 -17 737 0 732 889
 733 75 112 567 0 888 -17 637 0 636 890 634 120 80 648 0 640 +15 636 492 0 637 6
78 0 17 890 0 636 134 637 130 640 532 0 672 -17 80 0 893 118 122 78 637 648 0 61
7 -15 893 437 0 80 706 0 17 118 0 893 115 80 116 617 578 0 615 +17 122 0 893 80
 115 120 739 576 0 889 +17 617 0 614 83 615 78 118 578 0 634 -17 83 0 614 619 61
7 81 639 647 0 894 -17 619 0 614 103 83 107 894 580 0 0 -17 894 0 895 77 109 81
 619 580 0 542 +15 895 443 0 77 708 0 17 77 0 895 112 894 75 542 539 0 737 -17 1
09 0 895 894 112 107 738 570 0 620 +16 580 151 0 ?894 584 578 579 0 0 1 17 112 0
 895 109 77 110 737 567 0 733 +16 570 148 0 ?109 578 576 568 0 0 1 17 620 0 710
 738 622 107 103 621 0 619 -16 567 433 0 ?112 576 565 572 0 0 1 14 708 439 886 ?
702 856 895 4 690 +706 706 702 856 18 81 1 886 2080 681 708 896 0 883 897 898 14
 856 844 897 ?708 606 653 4 881 -0 0 708 606 18 50 690 2 0 706 680 899 0 +0 0 .0
022 0 0 1 1 0 0 14 706 1 900 ?487 611 893 4 690 +708 708 487 611 18 81 1 900 208
2 681 706 901 0 897 902 903 14 487 43 902 ?736 706 485 4 899 -0 0 736 706 18 81
 1 902 2083 681 487 904 0 900 905 906 14 736 197 905 ?740 487 732 4 867 +0 0 740
 487 18 50 899 65 0 487 690 699 0 +0 0 0 0 0 1 1 0 0 50 699 90 0 611 899 693 0 +
.0023 .00185 .0022 942784497813482e-31 -1 0 1 942784497813482e-31 0 81 1 905 208
4 681 736 907 0 902 908 909 14 740 199 908 ?624 736 710 4 868 +0 0 624 736 18 81
 1 908 2085 681 740 910 0 905 911 912 14 624 201 911 ?616 740 607 4 913 +0 0 616
 740 18 50 868 228 0 740 913 867 0 +.0022 0 .0022 .99503719020999 0 .09950371902
09952 0 -1 0 50 913 229 0 624 914 868 0 +-.0022 0 .0022 -.99503719020999 0 .0995
037190209952 0 1 0 50 914 230 0 616 864 913 0 +-1649872871173595e-34 .00175 .002
2 -938105637677863e-31 .99503719020999 .0995037190209952 1 942784497813482e-31 0
 14 616 203 915 ?679 624 614 4 914 +0 0 679 624 18 50 864 93 0 755 700 914 0 +-.
0023 -.00185 .0022 1 0 0 0 0 -1 50 700 92 0 702 693 864 0 +.0023 -.00185 .0022 -
1414176746720222e-31 1 0 -1 -1414176746720222e-31 0 81 1 915 2087 681 616 916 0
 911 917 918 80 255 1 681 919 920 9000 1 1 1 1 1 1 1 1 0 FFFFTFTFFFFFFF1 81 1 91
6 1906 921 616 0 915 922 923 924 81 1 911 2086 681 624 922 0 908 915 925 81 1 91
7 2088 681 873 926 0 915 927 928 82 255 1 918 1321664631 14 873 997 917 ?851 847
 929 4 930 +0 0 851 847 18 81 1 926 1915 921 873 0 917 931 932 933 81 1 927 2089
 681 851 932 0 917 934 935 82 1 928 1546715281 14 851 1000 927 ?936 873 849 4 93
7 +0 0 936 873 18 81 1 932 1916 921 851 0 927 926 938 939 81 1 934 2090 681 936
 938 0 927 940 941 82 1 935 1542389905 14 936 1003 934 ?853 851 942 4 943 +0 0 8
53 851 18 81 1 938 1917 921 936 0 934 932 944 945 81 1 940 2091 681 853 944 0 93
4 946 947 82 1 941 1541472401 14 853 1006 940 ?948 936 852 4 949 +0 0 948 936 18
 81 1 944 1918 921 853 0 940 938 950 951 81 1 946 2092 681 948 950 0 940 952 953
 82 1 947 1537605777 14 948 1009 946 ?954 853 955 4 956 +0 0 954 853 18 81 1 950
 1919 921 948 0 946 944 957 958 81 1 952 2093 681 954 957 0 946 959 960 82 1 953
 1536688273 14 954 1012 952 ?776 948 961 4 962 +0 0 776 948 18 81 1 957 1920 921
 954 0 952 950 963 964 81 1 959 2094 681 776 963 0 952 965 966 82 1 960 15323628
97 14 776 1015 959 ?745 954 772 4 967 +0 0 745 954 18 81 1 963 1921 921 776 0 95
9 957 968 969 81 1 965 2095 681 745 968 0 959 970 971 82 1 966 1531445393 14 745
 1018 965 ?764 776 743 4 972 -0 0 764 776 18 81 1 968 1922 921 745 0 965 963 973
 974 81 1 970 2096 681 764 973 0 965 975 976 82 1 971 1529282705 14 764 1022 970
 ?759 745 762 4 977 -0 0 759 745 18 81 1 973 1923 921 764 0 970 968 978 979 81 1
 975 2097 681 759 978 0 970 980 981 82 1 976 1529020561 14 759 1029 975 ?750 764
 758 4 982 -0 0 750 764 18 81 1 978 1924 921 759 0 975 973 983 984 81 1 980 2098
 681 750 983 0 975 985 986 82 1 981 1528758417 14 750 1033 980 ?987 759 748 4 98
8 -0 0 987 759 18 81 1 983 1925 921 750 0 980 978 989 990 81 1 985 2099 681 987
 989 0 980 991 992 82 1 986 1528496273 14 987 1040 985 ?467 750 993 4 994 -0 0 4
67 750 18 81 1 989 1926 921 987 0 985 983 995 996 81 1 991 2100 681 467 995 0 98
5 997 998 82 1 992 1521942673 14 467 1305 991 ?14 987 460 4 999 +0 0 14 987 18 8
1 1 995 1927 921 467 0 991 989 1000 1001 81 1 997 2101 681 14 1000 0 991 1002 10
03 82 1 998 2106392723 14 14 1406 997 ?463 467 482 4 5 +0 0 463 467 18 81 1 1000
 1928 921 14 0 997 995 1004 1005 81 1 1002 2102 681 463 1004 0 997 1006 1007 82
 1 1003 2121203859 14 463 1582 1002 ?1008 14 462 4 1009 -0 0 1008 14 18 81 1 100
4 1929 921 463 0 1002 1000 1010 1011 81 1 1006 2103 681 1008 1010 0 1002 1012 10
13 82 1 1007 -2067529581 14 1008 1585 1006 ?1014 463 1015 4 1016 -0 0 1014 463 1
8 81 1 1010 1930 921 1008 0 1006 1004 1017 1018 81 1 1012 2104 681 1014 1017 0 1
006 1019 1020 82 1 1013 -2068447085 14 1014 1588 1012 ?1021 1008 1022 4 1023 -0
 0 1021 1008 18 81 1 1017 1931 921 1014 0 1012 1010 1024 1025 81 1 1019 2105 681
 1021 1024 0 1012 1026 1027 82 1 1020 -2072772461 14 1021 1591 1019 ?1028 1014 1
029 4 1030 -0 0 1028 1014 18 81 1 1024 1932 921 1021 0 1019 1017 1031 1032 81 1
 1026 2106 681 1028 1031 0 1019 1033 1034 82 1 1027 -2073689965 14 1028 1594 102
6 ?1035 1021 1036 4 1037 -0 0 1035 1021 18 81 1 1031 1933 921 1028 0 1026 1024 1
038 1039 81 1 1033 2107 681 1035 1038 0 1026 1040 1041 82 1 1034 -2077556589 14
 1035 1597 1033 ?728 1028 1042 4 1043 -0 0 728 1028 18 81 1 1038 1934 921 1035 0
 1033 1031 1044 1045 81 1 1040 2108 681 728 1044 0 1033 1046 1047 82 1 1041 -207
8474093 14 728 1600 1040 ?300 1035 727 4 1048 -0 0 300 1035 18 81 1 1044 1935 92
1 728 0 1040 1038 1049 1050 81 1 1046 2109 681 300 1049 0 1040 1051 1052 82 1 10
47 -2082799469 14 300 1603 1046 ?308 728 293 4 1053 -0 0 308 728 18 81 1 1049 19
36 921 300 0 1046 1044 1054 1055 81 1 1051 2110 681 308 1054 0 1046 1056 1057 82
 1 1052 -2083716973 14 308 1606 1051 ?286 300 304 4 1058 +0 0 286 300 18 81 1 10
54 1937 921 308 0 1051 1049 1059 1060 81 1 1056 2111 681 286 1059 0 1051 1061 10
62 82 1 1057 -2085748589 14 286 1610 1056 ?725 308 280 4 1063 +0 0 725 308 18 81
 1 1059 1938 921 286 0 1056 1054 1064 1065 81 1 1061 2112 681 725 1064 0 1056 10
66 1067 82 1 1062 -2085879661 14 725 1617 1061 ?456 286 723 4 1068 +0 0 456 286
 18 81 1 1064 1939 921 725 0 1061 1059 1069 1070 81 1 1066 2113 681 456 1069 0 1
061 1071 1072 82 1 1067 -2086010733 14 456 1621 1066 ?1073 725 454 4 1074 +0 0 1
073 725 18 81 1 1069 1940 921 456 0 1066 1064 1075 1076 81 1 1071 2114 681 1073
 1075 0 1066 1077 1078 82 1 1072 -2086141805 14 1073 1628 1071 ?0 456 1079 4 108
0 -0 0 0 456 18 81 1 1075 1941 921 1073 0 1071 1069 0 1081 81 1 1077 2115 681 60
6 1082 0 1071 0 1083 82 1 1078 -2092695405 14 606 867 1077 ?856 755 603 4 864 -7
55 755 856 755 18 81 1 1082 1895 921 606 0 1077 1084 1085 1086 82 1 1083 1591804
049 80 1 921 0 1087 8001 0 0 0 0 3 5 0 0 0 FFFFTFTFFFFFFF2 81 1 1084 1894 921 75
5 0 862 861 1082 1088 81 1 1085 1896 921 856 0 897 1082 896 1089 83 255 3 1086 .
1450980392156862 .1411764705882352 .1411764705882352 81 1 897 2081 681 856 1085
 0 886 900 1090 81 1 896 1897 921 708 0 886 1085 1091 1092 83 3 1089 .0980392156
862745 .0980392156862745 .0980392156862745 81 1 1091 1898 921 702 0 707 896 703
 1093 83 3 1092 .1450980392156862 .1411764705882352 .1411764705882352 81 1 707 2
071 681 702 1091 0 704 859 1094 81 1 703 1899 921 694 0 701 1091 1095 1096 83 3
 1093 .1450980392156862 .1411764705882352 .1411764705882352 81 1 1095 1900 921 6
11 0 704 703 901 1097 83 3 1096 .1450980392156862 .1411764705882352 .14117647058
82352 81 1 704 2070 681 611 1095 0 701 707 1098 81 1 901 1901 921 706 0 900 1095
 904 1099 83 3 1097 .1450980392156862 .1411764705882352 .1411764705882352 81 1 9
04 1902 921 487 0 902 901 907 1100 83 3 1099 .1450980392156862 .1411764705882352
 .1411764705882352 81 1 907 1903 921 736 0 905 904 910 1101 83 3 1100 .145098039
2156862 .1411764705882352 .1411764705882352 81 1 910 1904 921 740 0 908 907 922
 1102 83 3 1101 .1450980392156862 .1411764705882352 .1411764705882352 81 1 922 1
905 921 624 0 911 910 916 1103 83 3 1102 .1450980392156862 .1411764705882352 .14
11764705882352 83 3 1103 .1450980392156862 .1411764705882352 .1411764705882352 8
2 1 1098 138608756 82 1 1094 139133044 82 1 1090 1588592785 81 1 862 2073 681 75
5 1084 0 859 865 1104 81 1 861 1893 921 858 0 859 1105 1084 1106 83 3 1088 .1450
980392156862 .1411764705882352 .1411764705882352 81 1 1105 1892 921 471 0 865 11
07 861 1108 83 3 1106 .1450980392156862 .1411764705882352 .1411764705882352 81 1
 865 2074 681 471 1105 0 862 869 1109 81 1 1107 1891 921 478 0 696 695 1105 1110
 83 3 1108 .1450980392156862 .1411764705882352 .1411764705882352 81 1 696 2068 6
81 478 1107 0 691 701 1111 81 1 695 1890 921 12 0 691 0 1107 1112 83 3 1110 .145
0980392156862 .1411764705882352 .1411764705882352 83 3 1112 .1450980392156862 .1
411764705882352 .1411764705882352 82 1 1111 2117992595 82 1 1109 2116944019 82 1
 1104 1592459409 79 255 15 1087 SDL/TYSA_COLOUR83 3 1081 .827450980392157 .83921
568627451 .827450980392157 15 1079 1630 0 1113 1073 0 50 1080 1649 0 1073 0 1074
 0 +.001550000000000035 0 .001149999999999928 1 0 -2807720014556425e-29 28077200
14556425e-29 0 1 50 1074 1647 0 456 1080 1068 0 +.0024 .001 .001199999999999964
 0 1 0 0 0 1 50 1068 1646 0 725 1074 1063 0 +.0024 .001 .001000000000000032 0 0
 -1 -1 0 0 50 1063 1645 0 286 1068 1058 0 +.0024 -.001 .001199999999999964 0 -1
 1084202172485878e-30 0 -1084202172485878e-30 -1 50 1058 1644 0 308 1063 1053 0
 +.0024 .001 .001199999999999964 0 216840434497101e-30 1 0 -1 216840434497101e-3
0 51 255 1053 1643 0 300 1058 1048 0 -.0024 0 .000949999999999964 0 1 0 25e-5 0
 0 1 51 1048 1642 0 728 1053 1043 0 +.0024 0 .000949999999999964 0 1 0 500000000
000691e-19 0 0 1 50 1043 1641 0 1035 1048 1037 0 +.00265 .001 .00094999999999996
2 -1 -216840434497101e-30 0 216840434497101e-30 -1 0 50 1037 1640 0 1028 1043 10
30 0 +.00245000000000007 .001 .000949999999999965 1 0 0 0 0 -1 51 1030 1639 0 10
21 1037 1023 0 -.0024 0 .000199999999999964 0 1 0 25e-5 0 0 1 51 1023 1638 0 101
4 1030 1016 0 +.0024 0 .000199999999999964 0 1 0 500000000000691e-19 0 0 1 50 10
16 1637 0 1008 1023 1009 0 +.0024 .001 -500000000000361e-19 1275531967630008e-31
 -216840434497101e-30 1 0 -1 -216840434497101e-30 50 1009 1636 0 463 1016 999 0
 +.0024 .001 .0001499999999998946 -1275531967630008e-31 0 -1 -1 0 12755319676300
08e-31 50 999 1329 0 467 1009 994 0 +.0014 .00185 15e-5 0 -1245367360287402e-31
 -1 0 1 -1245367360287402e-31 50 994 1063 0 987 999 988 0 +-.001550000000000035
 0 .001149999999999928 -1 0 -2807720014556425e-29 -2807720014556425e-29 0 1 50 9
88 1061 0 750 994 982 0 +-.0024 -.001 .001199999999999964 0 1 -1084202172485878e
-30 0 1084202172485878e-30 1 50 982 1060 0 759 988 977 0 +-.0024 .001 .001000000
000000032 0 0 1 1 0 0 50 977 1059 0 764 982 972 0 +-.0024 .001 .0011999999999999
64 0 -1 0 0 0 -1 50 972 1058 0 745 977 967 0 +-.0024 .001 .001199999999999964 0
 -216840434497101e-30 -1 0 1 -216840434497101e-30 51 967 1057 0 776 972 962 0 +-
.0024 0 .000949999999999964 0 -1 0 25e-5 0 0 -1 51 962 1056 0 954 967 956 0 --.0
024 0 .000949999999999964 0 -1 0 500000000000691e-19 0 0 -1 50 956 1055 0 948 96
2 949 0 +-.00265 .001 .000949999999999962 -1 216840434497101e-30 0 -216840434497
101e-30 -1 0 50 949 1054 0 853 956 943 0 +-.00245000000000007 .001 .000949999999
999965 1 0 0 0 0 -1 51 943 1053 0 936 949 937 0 +-.0024 0 .000199999999999964 0
 -1 0 25e-5 0 0 -1 51 937 1052 0 851 943 930 0 --.0024 0 .000199999999999964 0 -
1 0 500000000000691e-19 0 0 -1 50 930 1051 0 873 937 874 0 +-.0024 .001 -5000000
00000361e-19 1275531967630008e-31 216840434497101e-30 -1 0 1 216840434497101e-30
 50 874 1050 0 847 930 881 0 +-.0024 .001 .0001499999999998946 -1275531967630008
e-31 0 1 1 0 1275531967630008e-31 17 1113 0 1079 41 458 221 229 361 0 381 -17 41
 0 1079 459 1113 37 223 368 0 19 -17 458 0 1079 1113 459 227 226 363 0 372 -17 2
29 0 1015 241 381 227 1113 361 0 458 +17 381 0 1015 229 1114 221 232 379 0 0 +15
 1015 1587 0 1114 1008 0 17 1114 0 1015 381 241 230 345 343 0 360 -17 232 0 280
 244 223 230 381 379 0 1114 -17 244 0 280 256 232 242 360 358 0 1115 -17 223 0 2
80 232 19 221 41 368 0 1113 +17 19 0 280 223 378 37 466 9 0 367 +17 378 0 280 19
 357 215 235 376 0 466 +17 367 0 460 466 455 37 459 365 0 0 +17 459 0 1079 458 4
1 224 367 365 0 455 -17 357 0 280 378 341 233 247 355 0 0 +17 235 0 462 457 217
 233 378 376 0 348 -17 348 0 1022 247 354 233 457 346 0 357 +15 1022 1590 0 1116
 1014 0 17 247 0 1022 1116 348 245 357 355 0 332 -17 354 0 1022 348 1116 236 250
 352 0 0 +17 1116 0 1022 354 247 248 332 330 0 338 -17 250 0 454 262 238 248 354
 352 0 1116 -17 262 0 454 275 250 260 338 336 0 729 -17 275 0 454 713 262 273 32
5 323 0 724 -17 338 0 1036 332 729 248 262 336 0 0 +17 729 0 1036 338 259 260 32
1 313 0 325 -15 1036 1596 0 729 1028 0 17 259 0 1036 729 332 257 341 339 0 321 -
17 332 0 1036 259 338 245 1116 330 0 341 +17 341 0 280 357 326 245 259 339 0 0 +
17 360 0 1029 345 1115 230 244 358 0 0 +17 1115 0 1029 360 253 242 329 295 0 290
 -15 1029 1593 0 1115 1021 0 17 253 0 1029 1115 345 251 351 349 0 329 -17 329 0
 1042 265 290 251 1115 295 0 335 +17 290 0 1042 329 292 242 256 291 0 0 +15 1042
 1599 0 292 1035 0 17 292 0 1042 290 265 254 294 310 0 282 -17 265 0 1042 292 32
9 263 335 333 0 294 -17 294 0 293 272 282 263 292 310 0 301 +17 301 0 454 335 30
3 263 272 302 0 0 +17 335 0 454 351 301 251 265 333 0 0 +17 351 0 454 372 335 23
9 253 349 0 0 +17 372 0 454 226 351 227 241 370 0 0 +17 241 0 1015 1114 229 239
 372 370 0 345 -17 345 0 1029 253 360 239 1114 343 0 351 +83 3 1076 .82745098039
2157 .83921568627451 .827450980392157 83 3 1070 .827450980392157 .83921568627451
 .827450980392157 83 3 1065 .827450980392157 .83921568627451 .827450980392157 83
 3 1060 .827450980392157 .83921568627451 .827450980392157 83 3 1055 .82745098039
2157 .83921568627451 .827450980392157 83 3 1050 .827450980392157 .83921568627451
 .827450980392157 83 3 1045 .827450980392157 .83921568627451 .827450980392157 83
 3 1039 .827450980392157 .83921568627451 .827450980392157 83 3 1032 .82745098039
2157 .83921568627451 .827450980392157 83 3 1025 .827450980392157 .83921568627451
 .827450980392157 83 3 1018 .827450980392157 .83921568627451 .827450980392157 83
 3 1011 .827450980392157 .83921568627451 .827450980392157 83 3 1005 .09803921568
62745 .0980392156862745 .0980392156862745 83 3 1001 .0980392156862745 .098039215
6862745 .0980392156862745 83 3 996 .827450980392157 .83921568627451 .82745098039
2157 15 993 1042 0 819 987 0 17 819 0 993 828 822 146 151 817 0 839 +17 828 0 99
3 825 819 57 148 826 0 0 +17 822 0 993 819 825 149 855 820 0 831 +17 151 0 929 1
63 839 149 819 817 0 822 -17 839 0 929 151 801 146 154 838 0 0 +15 929 999 0 801
 873 0 17 801 0 929 839 163 152 1117 799 0 816 +17 154 0 762 166 148 152 839 838
 0 801 -17 166 0 762 178 154 164 816 814 0 787 -17 148 0 762 154 516 146 828 826
 0 819 -17 816 0 942 1117 787 152 166 814 0 0 +17 787 0 942 816 175 164 1118 774
 0 769 +15 942 1005 0 787 936 0 17 175 0 942 787 1117 173 807 805 0 1118 -17 111
8 0 955 187 769 173 787 774 0 751 -17 769 0 955 1118 771 164 178 770 0 0 +15 955
 1011 0 771 948 0 17 771 0 955 769 187 176 773 427 0 767 +17 187 0 955 771 1118
 185 751 791 0 773 -16 427 904 0 ?771 778 417 403 0 0 1 30 403 1089 0 427 401 78
3 0 +-.00265 .001 .000949999999999962 216840434497101e-30 1 3020062015208265e-45
 17 751 0 748 807 749 173 187 791 0 0 +17 807 0 748 831 751 161 175 805 0 0 +17
 831 0 748 855 807 149 163 829 0 0 +17 163 0 929 801 151 161 831 829 0 1117 -17
 1117 0 942 175 816 161 801 799 0 807 -17 825 0 993 822 828 60 59 823 0 0 +83 3
 990 .827450980392157 .83921568627451 .827450980392157 83 3 984 .827450980392157
 .83921568627451 .827450980392157 83 3 979 .827450980392157 .83921568627451 .827
450980392157 83 3 974 .827450980392157 .83921568627451 .827450980392157 83 3 969
 .827450980392157 .83921568627451 .827450980392157 83 3 964 .827450980392157 .83
921568627451 .827450980392157 15 961 1014 0 399 954 0 17 399 0 961 780 201 196 7
60 396 0 753 +17 780 0 961 854 399 182 198 777 0 0 +17 201 0 961 399 854 199 763
 766 0 761 -17 854 0 961 201 780 179 782 778 0 763 -83 3 958 .827450980392157 .8
3921568627451 .827450980392157 83 3 951 .827450980392157 .83921568627451 .827450
980392157 83 3 945 .827450980392157 .83921568627451 .827450980392157 83 3 939 .8
27450980392157 .83921568627451 .827450980392157 81 1 931 1914 921 847 0 871 870
 926 1119 83 3 933 .827450980392157 .83921568627451 .827450980392157 81 1 871 20
76 681 847 931 0 869 875 1120 81 1 870 1913 921 857 0 869 877 931 1121 83 3 1119
 .827450980392157 .83921568627451 .827450980392157 81 1 877 1912 921 670 0 875 1
122 870 1123 83 3 1121 .0980392156862745 .0980392156862745 .0980392156862745 81
 1 1122 1911 921 675 0 878 885 877 1124 83 3 1123 .690196078431373 .662745098039
216 .596078431372549 81 1 878 2078 681 675 1122 0 875 883 1125 81 1 885 1910 921
 685 0 883 1126 1122 1127 83 3 1124 .690196078431373 .662745098039216 .596078431
372549 81 1 1126 1909 921 678 0 683 682 885 1128 83 3 1127 .690196078431373 .662
745098039216 .596078431372549 81 1 683 2065 681 678 1126 0 677 687 1129 81 1 682
 1908 921 676 0 677 923 1126 1130 83 3 1128 .690196078431373 .662745098039216 .5
96078431372549 81 1 923 1907 921 679 0 687 916 682 1131 83 3 1130 .6901960784313
73 .662745098039216 .596078431372549 81 1 687 2066 681 679 923 0 683 691 1132 83
 3 1131 .1450980392156862 .1411764705882352 .1411764705882352 82 1 1132 15684732
33 82 1 1129 1905721463 82 1 1125 1905197175 82 1 1120 1547632785 82 1 925 13232
37521 83 3 924 .1450980392156862 .1411764705882352 .1411764705882352 79 14 920 S
WEntUnchanged82 1 912 1324417171 82 1 909 1325531255 82 1 906 135528595 82 1 903
 132055159 82 1 898 1911095415 17 115 0 893 122 118 113 618 565 0 739 +17 134 0
 636 634 890 123 132 664 0 663 -17 672 0 884 640 673 130 129 666 0 0 -17 132 0 6
67 129 663 130 134 664 0 890 +82 1 887 1905459319 82 1 879 1898643575 82 1 872 1
408172174 82 1 863 2110980243 17 47 0 492 488 446 45 484 453 0 486 +17 484 0 482
 475 483 209 47 453 0 0 -17 65 0 653 139 59 63 516 448 0 843 -17 564 0 709 89 97
 84 600 562 0 479 +17 600 0 599 598 86 95 564 562 0 734 -17 36 0 710 622 269 30
 289 309 0 25 +16 588 1452 0 ?100 589 584 585 589 589 1 17 33 0 723 714 315 10 2
9 34 0 0 -17 24 0 23 612 21 90 28 494 0 558 +17 558 0 609 602 587 90 612 555 0 4
69 +17 469 0 31 28 208 90 468 628 0 613 -17 28 0 31 29 469 10 24 494 0 713 -17 6
13 0 492 468 94 90 602 498 0 0 -82 1 705 138870931 82 1 697 -2024472429 82 1 684
 1905983607 141 645 644 645 645 642 141 551 575 551 551 547 141 546 545 546 546
 540 17 211 0 460 465 474 209 475 382 0 446 +141 404 432 404 404 401 19 13 95 0
 1 0 8 4 S0 74 4 CI16 index_map_offset0 0 1 dCCZ20 11 2 0 0 1077 1075 0 0 0 0 0
 0 0 0 0 0 0 0 0 0 0 0 0 0 1 0 
