**ABCDEFGHIJKLMNOPQRSTUVWXYZabcdefghijklmnopqrstuvwxyz**************************
**PARASOLID !"#$%&'()*+,-./:;<=>?@[\]^_`{|}~0123456789**************************
**PART1;
MC=AMD64;
MC_MODEL=Intel64 Family 6 Model 15 Stepping 13, GenuineIntel;
MC_ID=unknown;
OS=Windows_NT;
OS_RELEASE=unknown;
FRU=Parasolid Version 30.0, build 310,  6- 8-2018;
APPL=SOLIDWORKS 2018-2018211;
SITE=;
USER=unknown;
FORMAT=text;
GUISE=transmit;
KEY=DO-214AB-SMC;
FILE=DO-214AB-SMC.x_t;
DATE=Sun Mar 17 17:10:56 2019;
**PART2;
SCH=SCH_3000310_30000;
USFLD_SIZE=0;
**PART3;
**END_OF_HEADER*****************************************************************
T51 : TRANSMIT FILE created by modeller version 300031023 SCH_3000310_30000_1300
6205 0 12 33 CCCCCCI4 mesh1006 0 I8 polyline1008 0 CCCCCCCDI5 owner1040 0 CCCCCC
I13 boundary_mesh1006 0 I17 boundary_polyline1008 0 CCCA16 index_map_offset0 0 1
 dA9 index_map82 0 A17 node_id_index_map82 0 A20 schema_embedding_map82 0 A5 chi
ld12 0 A14 lowest_node_id0 0 1 dZ1 2095 0 2 0 0 0 0 0 0 1e3 1e-8 0 3 0 1 0 1 1 4
 5 6 7 0 0 8 9 10 0 0 0 0 0 0 70 11 CI9 list_type0 0 1 uI10 notransmit0 0 1 lCCC
DCCDI12 finger_index0 0 1 dI12 finger_block1012 0 CZ2 0 4 T1 0 0 2 20 1 11 11 13
 255 4 94 0 1 0 12 0 0 13 0 50 255 5 1387 0 14 15 0 0 -.00225 0 0 -.707106781186
546 0 .70710678118655 0 -1 0 30 255 6 1413 0 9 16 0 0 +.0024 -.0015 15e-5 -1 0 0
 29 255 7 1428 0 10 17 0 .00355 .0015 .00110000000000004 19 8 CCCCCCCA5 owner12
 0 Z8 28 0 1 13 0 18 V0 16 255 9 1411 0 ?19 0 20 6 0 0 1 18 255 10 1426 0 21 0 2
2 7 ?1 17 255 21 0 23 24 25 10 26 27 0 28 +18 22 1423 0 29 10 30 17 ?1 17 29 0 3
1 32 28 22 33 34 0 35 +18 30 1417 0 36 22 37 38 ?1 29 17 1425 0 22 38 7 .00355 -
.0015 .00110000000000004 29 38 1419 0 30 39 17 .00355 .0015 .001299999999999954
 29 39 1407 0 37 40 38 .0027 -.0015 15e-5 18 37 1405 0 41 30 42 39 ?1 29 40 1353
 0 42 43 39 .00225 -.00285 433680868994202e-33 18 42 1351 0 44 37 45 40 ?1 29 43
 1350 0 45 46 40 .00225 .00285 3252606517456515e-34 18 45 1348 0 47 42 48 43 ?1
 29 46 836 0 48 49 43 -.00355 .0015 .001299999999999954 18 48 833 0 50 45 51 46
 1e-8 1 29 49 830 0 51 52 46 -.00355 -.0015 .001299999999999954 18 51 828 0 53 4
8 54 49 1e-8 1 29 52 827 0 54 55 49 -.00355 -.0015 .00110000000000004 18 54 824
 0 56 51 57 52 1e-8 1 29 55 813 0 57 58 52 -.0027 .0015 .0001499999999998682 18
 57 811 0 59 54 60 55 ?1 29 58 809 0 60 61 55 -.0027 -.0015 15e-5 18 60 807 0 62
 57 63 58 ?1 29 61 806 0 63 64 58 -.003463636363636365 .0015 15e-5 18 63 804 0 6
5 60 66 61 ?1 29 64 755 0 66 67 61 -.00225 .00285 -216840434497101e-33 18 66 753
 0 68 63 69 64 ?1 29 67 747 0 69 70 64 -.00225 -.00285 0 18 69 745 0 71 66 72 67
 ?1 29 70 555 0 72 73 67 -.0024 .002863636363636365 15e-5 18 72 553 0 74 69 75 7
0 ?1 29 73 415 0 75 76 70 -.00295 .00285 .0024 18 75 412 0 77 72 78 73 1e-8 1 29
 76 409 0 78 79 73 -.00205 .00285 .0024 18 78 407 0 80 75 81 76 1e-8 1 29 79 406
 0 81 82 76 -.00205 -.00285 .0024 18 81 403 0 83 78 84 79 1e-8 1 29 82 309 0 84
 85 79 -.00355 -.00295 .00110000000000004 18 84 307 0 86 81 87 82 ?1 29 85 301 0
 87 88 82 .00355 -.00295 .00110000000000004 18 87 299 0 89 84 90 85 ?1 29 88 273
 0 90 91 85 .00355 .00295 .00110000000000004 18 90 271 0 24 87 92 88 ?1 29 91 27
0 0 92 93 88 -.00355 .00295 .00110000000000004 18 92 268 0 94 90 95 91 ?1 29 93
 177 0 95 96 91 -.00355 .00295 .001299999999999954 18 95 175 0 97 92 98 93 ?1 29
 96 169 0 98 99 93 .00355 .00295 .001299999999999954 18 98 167 0 100 95 101 96 ?
1 29 99 161 0 101 102 96 -.00355 -.00295 .001299999999999954 18 101 159 0 103 98
 104 99 ?1 29 102 158 0 104 105 99 .00355 -.00295 .001299999999999954 18 104 156
 0 106 101 107 102 ?1 29 105 149 0 107 108 102 .00345 -.00285 .0024 18 107 147 0
 109 104 110 105 ?1 29 108 145 0 110 111 105 .00345 .00285 .0024 18 110 143 0 11
2 107 113 108 ?1 29 111 141 0 113 114 108 -.00345 -.00285 .0024 18 113 139 0 115
 110 116 111 ?1 29 114 138 0 116 117 111 -.00345 .00285 .0024 18 116 136 0 118 1
13 119 114 ?1 29 117 507 0 120 121 114 -.00295 -.00285 .0024 18 120 455 0 122 12
3 124 117 1e-8 1 29 121 509 0 119 125 117 -.00205 .00285 .002401 18 119 461 0 12
6 116 127 121 ?1 29 125 510 0 127 128 121 -.00205 -.00285 .002401 18 127 460 0 1
29 119 130 125 ?1 29 128 511 0 130 131 125 -.00295 -.00285 .002401 18 130 459 0
 132 127 123 128 ?1 29 131 512 0 123 133 128 -.00295 .00285 .002401 18 123 456 0
 134 130 120 131 ?1 29 133 711 0 124 135 131 -.003463636363636365 -.002863636363
636365 15e-5 18 124 633 0 136 120 137 133 ?1 29 135 712 0 137 138 133 -.00346363
6363636365 .002863636363636365 15e-5 18 137 634 0 139 124 140 135 ?1 29 138 718
 0 140 141 135 -.0024 -.002863636363636365 15e-5 18 140 643 0 142 137 143 138 ?1
 29 141 1072 0 143 144 138 -.003463636363636365 -.0015 .0001499999999998682 18 1
43 936 0 145 140 146 141 ?1 29 144 1073 0 146 147 141 -.0027 .0015 -500000000000
46e-18 18 146 950 0 148 143 149 144 ?1 29 147 1076 0 149 150 144 -.0027 -.0015 -
500000000000464e-19 18 149 940 0 151 146 152 147 ?1 29 150 1077 0 152 153 147 -.
00365 .0015 -500000000000461e-19 18 152 951 0 154 149 155 150 ?1 29 153 1078 0 1
55 156 150 -.00365 .0015 .000149999999999868 18 155 939 0 157 152 158 153 ?1 29
 156 1079 0 158 159 153 -.00365 -.0015 .000149999999999868 18 158 957 0 160 155
 161 156 ?1 29 159 1080 0 161 162 156 -.00365 -.0015 -500000000000465e-19 18 161
 941 0 163 158 164 159 ?1 29 162 1081 0 164 165 159 -.0039 .0015 .00019999999999
99565 18 164 952 0 166 161 167 162 ?1 29 165 1082 0 167 168 162 -.00370000000000
0085 .0015 .0001999999999999595 18 167 942 0 169 164 170 165 ?1 29 168 1083 0 17
0 171 165 -.003700000000000085 -.0015 .0001999999999999595 18 170 958 0 172 167
 173 168 ?1 29 171 1084 0 173 174 168 -.0039 -.0015 .0001999999999999565 18 173
 943 0 175 170 176 171 ?1 29 174 1085 0 176 177 171 -.0039 .0015 .00104999999999
9952 18 176 953 0 178 173 179 174 ?1 29 177 1086 0 179 180 174 -.003700000000000
085 .0015 .001049999999999956 18 179 944 0 181 176 182 177 ?1 29 180 1087 0 182
 183 177 -.003700000000000085 -.0015 .001049999999999956 18 182 959 0 184 179 18
5 180 ?1 29 183 1088 0 185 186 180 -.0039 -.0015 .001049999999999952 18 185 945
 0 187 182 188 183 ?1 29 186 1091 0 189 190 183 -.00355 .0015 .00110000000000004
 18 189 948 0 191 192 193 186 1e-8 1 29 190 1093 0 188 194 186 -.00365 -.0015 .0
01299999999999954 18 188 947 0 195 185 196 190 ?1 29 194 1094 0 196 197 190 -.00
365 -.0015 .00110000000000004 18 196 960 0 198 188 199 194 ?1 29 197 1095 0 199
 200 194 -.00365 .0015 .00110000000000004 18 199 946 0 201 196 192 197 ?1 29 200
 1096 0 192 202 197 -.00365 .0015 .001299999999999954 18 192 954 0 203 199 189 2
00 ?1 29 202 1323 0 193 204 200 .003463636363636365 -.002863636363636365 15e-5 1
8 193 1254 0 205 189 206 202 ?1 29 204 1324 0 206 207 202 .003463636363636365 .0
02863636363636365 15e-5 18 206 1255 0 208 193 209 204 ?1 29 207 1329 0 209 210 2
04 .0024 .002863636363636365 15e-5 18 209 1256 0 211 206 212 207 ?1 29 210 1330
 0 212 213 207 .0024 -.002863636363636365 15e-5 18 212 1245 0 214 209 215 210 ?1
 29 213 1654 0 215 216 210 .003463636363636365 -.0015 .0001499999999998682 18 21
5 1522 0 217 212 218 213 ?1 29 216 1655 0 218 219 213 .003463636363636365 .0015
 .0001499999999998682 18 218 1520 0 220 215 221 216 ?1 29 219 1656 0 221 222 216
 .0027 -.0015 -500000000000464e-19 18 221 1534 0 223 218 224 219 ?1 29 222 1658
 0 224 225 219 .0027 .0015 .0001499999999998682 18 224 1521 0 226 221 227 222 ?1
 29 225 1659 0 227 228 222 .0027 .0015 -50000000000046e-18 18 227 1524 0 229 224
 230 225 ?1 29 228 1660 0 230 231 225 .00365 -.0015 -500000000000465e-19 18 230
 1535 0 232 227 233 228 ?1 29 231 1661 0 233 234 228 .00365 -.0015 .000149999999
999868 18 233 1523 0 235 230 236 231 ?1 29 234 1662 0 236 237 231 .00365 .0015 .
000149999999999868 18 236 1541 0 238 233 239 234 ?1 29 237 1663 0 239 240 234 .0
0365 .0015 -500000000000461e-19 18 239 1525 0 241 236 242 237 ?1 29 240 1664 0 2
42 243 237 .0039 -.0015 .0001999999999999565 18 242 1536 0 244 239 245 240 ?1 29
 243 1665 0 245 246 240 .003700000000000085 -.0015 .0001999999999999595 18 245 1
526 0 247 242 248 243 ?1 29 246 1666 0 248 249 243 .003700000000000085 .0015 .00
01999999999999595 18 248 1542 0 250 245 251 246 ?1 29 249 1667 0 251 252 246 .00
39 .0015 .0001999999999999565 18 251 1527 0 253 248 254 249 ?1 29 252 1668 0 254
 255 249 .0039 -.0015 .001049999999999952 18 254 1537 0 256 251 257 252 ?1 29 25
5 1669 0 257 258 252 .003700000000000085 -.0015 .001049999999999956 18 257 1528
 0 259 254 260 255 ?1 29 258 1670 0 260 261 255 .003700000000000085 .0015 .00104
9999999999956 18 260 1543 0 262 257 263 258 ?1 29 261 1671 0 263 264 258 .0039 .
0015 .001049999999999952 18 263 1529 0 265 260 266 261 ?1 29 264 1675 0 267 268
 261 .00355 -.0015 .001299999999999954 18 267 1539 0 269 270 0 264 ?1 29 268 167
6 0 266 271 264 .00365 .0015 .001299999999999954 18 266 1531 0 272 263 273 268 ?
1 29 271 1677 0 273 274 268 .00365 .0015 .00110000000000004 18 273 1544 0 275 26
6 276 271 ?1 29 274 1678 0 276 277 271 .00365 -.0015 .00110000000000004 18 276 1
530 0 278 273 270 274 ?1 29 277 1679 0 270 0 274 .00365 -.0015 .0012999999999999
54 18 270 1538 0 279 276 267 277 ?1 17 279 0 280 281 256 270 282 283 0 284 -15 2
55 280 1583 0 285 286 0 17 281 0 280 285 279 267 287 288 0 289 +17 256 0 280 279
 244 254 290 291 0 292 -17 282 0 293 294 284 254 279 283 0 0 +16 283 1471 0 ?282
 295 296 297 0 0 1 17 284 0 293 282 272 270 298 299 0 287 -15 293 1572 0 284 300
 0 17 272 0 293 284 294 266 301 302 0 303 -17 298 0 304 305 287 266 284 299 0 0
 +16 299 1475 0 ?298 306 27 307 0 0 1 17 287 0 304 298 289 270 281 288 0 0 -15 3
04 1576 0 289 308 0 17 289 0 304 287 305 267 36 309 0 0 -16 288 1487 0 ?281 310
 311 312 0 0 1 16 310 1472 0 ?294 313 288 314 0 0 1 16 311 1491 0 ?315 288 316 3
17 0 0 1 30 312 1644 0 288 317 314 0 +.00365 -.0015 .001299999999999954 -1 0 0 3
0 317 1645 0 311 318 312 0 +.00365 -.0015 .00110000000000004 -1 0 0 30 314 1643
 0 310 312 319 0 +.0039 .0015 .001049999999999952 -144560289664734e-30 1 2270165
336057145e-45 30 319 1642 0 313 314 320 0 +.003700000000000085 .0015 .0010499999
99999956 0 -1 0 16 313 1468 0 ?321 302 310 319 0 0 1 31 255 320 1641 0 302 319 3
22 0 +.00365 .0015 .001049999999999954 0 1 0 0 0 1 25e-5 16 302 1492 0 ?301 323
 313 320 0 0 1 31 322 1640 0 323 320 324 0 +.00365 .0015 .001049999999999954 0 1
 0 0 0 1 500000000000856e-19 16 323 1467 0 ?325 296 302 322 0 0 1 31 324 1639 0
 296 322 297 0 +.00365 -.0015 .001049999999999954 0 1 0 0 0 1 500000000000856e-1
9 16 296 1479 0 ?326 283 323 324 0 0 1 31 297 1638 0 283 324 327 0 +.00365 -.001
5 .001049999999999954 0 1 0 0 0 1 25e-5 30 327 1637 0 295 297 328 0 +.0039 .0015
 .0001999999999999565 -144560289664734e-30 1 2270165336057145e-45 16 295 1464 0
 ?329 330 283 327 0 0 1 30 328 1636 0 330 327 331 0 +.003700000000000085 .0015 .
0001999999999999595 0 -1 0 16 330 1460 0 ?332 333 295 328 0 0 1 30 331 1635 0 33
3 328 334 0 +.0039 .0015 .001049999999999952 0 0 -1 16 333 1493 0 ?335 336 330 3
31 0 0 1 30 334 1634 0 336 331 337 0 +.003700000000000085 .0015 .001049999999999
956 0 0 -1 16 336 1459 0 ?338 339 333 334 0 0 1 30 337 1633 0 339 334 340 0 +.00
3700000000000085 -.0015 .001049999999999956 0 0 -1 16 339 1480 0 ?341 291 336 33
7 0 0 1 30 340 1632 0 291 337 342 0 +.0039 -.0015 .001049999999999952 0 0 -1 16
 291 1463 0 ?290 343 339 340 0 0 1 30 342 1631 0 343 340 344 0 +.00365 .0015 -50
0000000000461e-19 4283540012862655e-45 1 144560289664734e-30 16 343 1456 0 ?345
 346 291 342 0 0 1 30 344 1630 0 346 342 347 0 +.00365 .0015 .000149999999999868
 0 -1 0 16 346 1452 0 ?348 349 343 344 0 0 1 31 347 1629 0 349 344 350 0 +.00365
 .0015 .0001999999999999545 0 1 0 0 0 1 25e-5 16 349 1494 0 ?351 352 346 347 0 0
 1 31 350 1628 0 352 347 353 0 +.00365 .0015 .0001999999999999545 0 1 0 0 0 1 50
0000000000864e-19 16 352 1451 0 ?354 355 349 350 0 0 1 31 353 1627 0 355 350 356
 0 +.00365 -.0015 .0001999999999999545 0 1 0 0 0 1 500000000000864e-19 16 355 14
81 0 ?357 358 352 353 0 0 1 31 356 1626 0 358 353 359 0 +.00365 -.0015 .00019999
99999999545 0 1 0 0 0 1 25e-5 16 358 1455 0 ?360 361 355 356 0 0 1 30 359 1625 0
 361 356 362 0 +.0027 .0015 -50000000000046e-18 4283540012862655e-45 1 144560289
664734e-30 16 361 1448 0 ?229 363 358 359 0 0 1 30 362 1624 0 363 359 364 0 +.00
27 .0015 -50000000000046e-18 2963151238003945e-29 0 1 16 363 1496 0 ?226 365 361
 362 0 0 1 30 364 1623 0 365 362 366 0 +.0027 .0015 .0001499999999998682 0 -1 0
 16 365 1443 0 ?367 368 363 364 0 0 1 30 366 1622 0 368 364 369 0 +.0027 -.0015
 -500000000000464e-19 -2963151238003945e-29 0 -1 16 368 1484 0 ?223 370 365 366
 0 0 1 30 369 1621 0 370 366 371 0 +.00365 .0015 -500000000000461e-19 -1 0 11412
65444721586e-31 16 370 1495 0 ?372 373 368 369 0 0 1 30 371 1620 0 373 369 374 0
 +.00365 .0015 .000149999999999868 -1 0 1141265444721586e-31 16 373 1446 0 ?375
 376 370 371 0 0 1 30 374 1619 0 376 371 377 0 +.00365 -.0015 .00014999999999986
8 -1 0 1141265444721586e-31 16 376 1482 0 ?378 379 373 374 0 0 1 30 377 1618 0 3
79 374 380 0 +.00365 -.0015 -500000000000465e-19 -1 0 1141265444721586e-31 16 37
9 1447 0 ?381 382 376 377 0 0 1 30 380 1322 0 382 377 383 0 +.0024 .00295 15e-5
 0 1 -1194460020534878e-31 16 382 1239 0 ?211 384 379 380 0 0 1 30 383 1306 0 38
5 380 386 0 -.003463636363636365 -.00295 15e-5 1085872745940752e-32 -1 119446002
0534878e-31 16 385 1226 0 ?387 388 389 383 384 389 1 30 386 1305 0 388 383 390 0
 -.00355 -.002863636363636365 15e-5 -1 0 0 16 388 1225 0 ?391 392 385 386 0 0 1
 30 390 1070 0 393 386 394 0 +-.00365 .0015 .001299999999999954 0 1 -14456028966
4734e-30 16 393 883 0 ?395 396 397 390 0 0 1 30 394 1069 0 396 390 398 0 +-.0036
5 .0015 .00110000000000004 0 -1 0 16 396 879 0 ?399 400 393 394 0 0 1 30 398 106
7 0 1 394 401 402 +-.00355 .0015 .001299999999999954 0 0 -1 30 401 1065 0 1 398
 403 404 +-.00355 -.0015 .001299999999999954 0 0 1 141 255 402 405 402 402 398 1
33 255 405 1100 0 406 407 408 0 +398 -.00355 .0015 .001299999999999954 -.00355 .
0015 .00110000000000004 0 .000199999999999914 16 406 894 0 ?409 410 392 405 0 0
 1 133 407 835 0 411 412 405 0 +413 -.00355 .0015 .001299999999999954 -.00355 .0
0295 .001299999999999954 -.00145 0 133 408 1101 0 414 405 415 0 +415 -.00365 .00
15 .00110000000000004 -.00355 .0015 .00110000000000004 0 999999999999981e-19 16
 414 912 0 ?416 417 418 408 0 0 1 30 415 1102 0 1 408 419 420 +-.00365 .0015 .00
110000000000004 1 0 0 133 419 1103 0 410 415 421 0 +421 -.00355 .0015 .001100000
00000004 -.00355 -.0015 .00110000000000004 0 .003 141 420 408 420 420 415 16 410
 906 0 ?422 397 406 419 0 0 1 30 421 1104 0 1 419 423 424 +-.00355 .0015 .001100
00000000004 0 -1 0 133 423 1105 0 417 421 425 0 +425 -.00365 .0015 .001299999999
999954 -.00355 .0015 .001299999999999954 0 999999999999981e-19 141 424 419 424 4
24 421 16 417 905 0 ?426 427 414 423 0 0 1 30 425 1106 0 1 423 428 429 +-.00365
 .0015 .001299999999999954 1 0 0 133 428 1107 0 392 425 430 0 +430 -.00355 -.001
5 .001299999999999954 -.00355 .0015 .001299999999999954 -.003 0 141 429 423 429
 429 425 16 392 887 0 ?431 406 388 428 0 0 1 30 430 1108 0 1 428 432 433 +-.0035
5 .0015 .001299999999999954 0 1 -144560289664734e-30 133 432 1109 0 397 430 434
 0 +401 -.00355 -.0015 .00110000000000004 -.00355 -.0015 .001299999999999954 -.0
001999999999999145 -433680868994202e-33 141 433 428 433 433 430 16 397 913 0 ?43
5 393 410 432 0 0 1 133 434 1110 0 400 432 436 0 +436 -.00365 -.0015 .0012999999
99999954 -.00355 -.0015 .001299999999999954 0 999999999999981e-19 16 400 893 0 ?
437 418 396 434 0 0 1 30 436 1111 0 1 434 438 439 +-.00365 -.0015 .0012999999999
99954 1 0 0 133 438 1112 0 418 436 440 0 +440 -.00365 -.0015 .00110000000000004
 -.00355 -.0015 .00110000000000004 0 999999999999981e-19 141 439 434 439 439 436
 16 418 923 0 ?441 414 400 438 0 0 1 30 440 1113 0 1 438 442 443 +-.00365 -.0015
 .00110000000000004 1 0 0 30 442 1171 0 444 440 445 0 -.00355 .00286363636363636
5 15e-5 1 1221636250687892e-31 -145919566108281e-46 141 443 438 443 443 440 16 4
44 1169 0 ?446 447 448 442 0 0 1 30 445 1356 0 447 442 449 0 +.00225 0 0 0 -1 0
 16 447 1354 0 ?450 451 444 445 0 0 1 30 449 1361 0 451 445 452 0 +.003449588477
36628 -.002959053497942385 .001199588477366272 .705650329009545 -.06415002990995
55 .705650329009541 16 451 1359 0 ?214 453 447 449 0 0 1 30 452 1366 0 453 449 1
6 0 +.00344958847736628 .002959053497942385 .001199588477366272 -.70565032900954
5 -.0641500299099556 -.705650329009541 16 453 1364 0 ?47 20 451 452 0 0 1 30 16
 1410 0 20 452 6 0 +.0024 .0015 15e-5 1 0 0 16 20 1409 0 ?220 9 453 16 0 0 1 17
 220 0 454 238 226 218 455 20 0 375 +15 454 1594 0 26 456 0 17 238 0 454 250 220
 236 375 373 0 457 -17 226 0 454 220 372 224 458 363 0 459 +17 455 0 460 367 461
 224 220 20 0 0 -17 375 0 462 217 457 218 238 373 0 461 +15 462 1551 0 217 463 0
 17 217 0 462 235 375 215 464 389 0 378 -17 457 0 462 375 235 236 348 346 0 354
 -17 461 0 460 455 465 218 208 384 0 464 -15 460 1412 0 466 467 0 17 465 0 460 4
61 211 206 446 444 0 468 -17 208 0 31 469 464 206 461 384 0 465 +16 384 1400 0 ?
208 389 382 383 389 385 1 17 464 0 31 208 387 218 217 389 0 0 +15 31 334 0 470 4
71 0 17 387 0 31 464 470 215 205 385 0 0 +16 389 1397 0 ?464 385 384 383 385 384
 1 17 470 0 31 387 32 193 472 473 0 0 +17 205 0 460 474 466 193 387 385 0 391 -1
7 474 0 460 211 205 212 391 388 0 475 -17 466 0 460 205 367 215 19 9 0 387 -17 3
91 0 476 472 214 193 474 388 0 470 +15 476 576 0 477 478 0 17 472 0 476 479 391
 87 470 473 0 32 -17 214 0 476 391 477 212 44 451 0 474 +17 477 0 476 214 480 42
 71 481 0 0 -17 44 0 482 483 475 42 214 451 0 450 -15 482 1376 0 484 14 0 17 483
 0 482 484 44 45 450 447 0 0 -17 475 0 482 44 484 212 211 382 0 0 -17 450 0 485
 71 486 42 483 447 0 477 +15 485 280 0 486 487 0 17 71 0 485 68 450 69 477 481 0
 480 +17 486 0 485 450 68 45 488 489 0 483 +17 68 0 485 486 71 66 490 491 0 488
 +17 488 0 492 74 47 66 486 489 0 493 -16 489 754 0 ?486 494 481 495 0 0 1 16 49
4 1427 0 ?24 496 489 497 496 496 1 16 481 1352 0 ?71 489 498 499 0 0 1 30 495 29
6 0 489 499 497 0 +-3481663314460495e-34 .00285 0 1 1221636250687892e-31 0 30 49
9 289 0 481 500 495 0 +0 -.00285 0 -1 0 0 30 497 304 0 496 495 501 0 +.00355 -.0
0295 .00110000000000004 0 1 0 16 496 302 0 ?35 502 494 497 494 494 1 30 501 312
 0 502 497 503 0 +.00355 -.00295 .00110000000000004 1 0 0 16 502 310 0 ?89 504 4
96 501 0 0 1 30 503 317 0 1 501 505 506 +-.00355 -.00295 .00110000000000004 0 -1
 0 30 505 368 0 507 503 508 0 --.00350203252032521 .00290203252032521 .000572357
723577298 .0901669634667394 -.0901669634667394 -.991836598134176 141 506 509 510
 510 503 133 509 826 0 504 511 412 0 +503 -.00355 -.0015 .00110000000000004 -.00
355 -.00295 .00110000000000004 -.00145 0 141 510 511 506 506 503 133 511 823 0 5
12 513 509 0 +503 -.00355 .00295 .00110000000000004 -.00355 .0015 .0011000000000
0004 -.0059 -.00445 16 512 315 0 ?191 514 504 511 0 0 1 30 513 816 0 448 515 511
 0 +-.0024 .0015 15e-5 1 0 0 16 448 814 0 ?516 444 517 513 0 0 1 30 515 810 0 51
7 518 513 0 +-.0024 -.0015 15e-5 -1 0 0 16 517 808 0 ?519 448 520 515 0 0 1 30 5
18 763 0 520 521 515 0 +858024691358008e-19 .002637654320987665 -.00233580246913
5785 -.705650329009545 .0641500299099554 .705650329009541 16 520 761 0 ?74 517 4
91 518 0 0 1 30 521 758 0 491 522 518 0 +-.00225 0 0 0 1 0 16 491 756 0 ?68 520
 523 521 0 0 1 30 522 750 0 523 524 521 0 +858024691358008e-19 -.002637654320987
665 -.002335802469135785 .705650329009545 .0641500299099555 -.705650329009541 16
 523 748 0 ?480 491 514 522 0 0 1 30 524 559 0 514 525 522 0 -.00355 .0028636363
63636365 15e-5 -1 -1221636250687892e-31 145919566108281e-46 16 514 557 0 ?526 52
3 512 524 0 0 1 30 525 527 0 1 527 524 528 +-.00205 -.00285 .002401 0 0 -1 133 5
27 526 0 529 530 525 0 +525 -.00205 -.00285 .002401 -.00205 -.00285 .0024 0 1000
000000000132e-21 141 528 527 528 528 525 16 529 442 0 ?531 532 533 527 0 0 1 30
 530 525 0 1 534 527 535 +-.00205 .00285 .002401 0 0 -1 133 534 524 0 533 536 53
0 0 +530 -.00205 .00285 .002401 -.00205 .00285 .0024 0 1000000000000132e-21 141
 535 534 535 535 530 16 533 430 0 ?537 529 538 534 0 0 1 133 536 523 0 539 540 5
34 0 +541 -.00205 -.00285 .0024 -.00205 .00285 .0024 0 .0057 16 539 439 0 ?542 5
43 544 536 0 0 1 30 540 522 0 1 545 536 546 +-.00205 .00285 .0024 -1 0 0 30 541
 497 0 1 547 548 549 +-.00205 -.00285 .0024 -152168725962878e-30 1 0 30 547 499
 0 1 550 541 551 +-.00295 .00285 .0024 0 -1 0 30 548 86 0 552 541 553 0 +-.00355
 .00295 .0024 0 0 -1 141 549 536 549 549 541 16 552 176 0 ?554 555 556 548 0 0 1
 30 553 87 0 555 548 557 0 +.00355 .00295 .0024 0 0 -1 16 555 168 0 ?558 559 552
 553 0 0 1 30 557 88 0 559 553 560 0 +.00355 -.00295 .0024 0 0 -1 16 559 157 0 ?
561 562 555 557 0 0 1 30 560 89 0 562 557 563 0 +-.00355 -.00295 .0024 0 0 -1 16
 562 160 0 ?564 565 559 560 0 0 1 30 563 142 0 565 560 566 0 +-.00345 -.00295 .0
024 0 -1 0 16 565 140 0 ?115 567 562 563 0 0 1 30 566 146 0 1 563 568 569 +-.003
55 .00285 .0024 -1 -1221636250687892e-31 0 30 568 150 0 570 566 571 0 +.00345 .0
0295 .0024 0 1 0 141 569 572 573 573 566 133 572 414 0 567 574 575 0 +566 -.0029
5 .00285 .0024 -.00345 .00285 .0024 -6e-4 -1e-4 141 573 574 569 569 566 133 574
 411 0 576 577 572 0 +566 .00345 .00285 .0024 -.00205 .00285 .0024 -.007 -.0015
 16 576 144 0 ?578 570 567 574 0 0 1 133 577 405 0 579 580 574 0 +571 -.00205 -.
00285 .0024 .00345 -.00285 .0024 -.0056 -1e-4 16 579 404 0 ?109 581 570 577 0 0
 1 133 580 402 0 581 582 577 0 +571 -.00345 -.00285 .0024 -.00295 -.00285 .0024
 -.007 -.0065 30 571 153 0 1 568 583 584 +.00355 -.00285 .0024 1 0 0 30 583 164
 0 585 571 586 0 +-.00355 -.00295 .001299999999999954 -1 0 0 141 584 577 587 587
 571 141 587 580 584 584 571 16 585 162 0 ?588 589 581 583 0 0 1 30 586 172 0 59
0 583 591 0 +.00355 -.00295 .001299999999999954 0 -1 0 16 590 170 0 ?25 592 589
 586 589 589 1 30 591 180 0 592 586 413 0 +.00355 .00295 .001299999999999954 1 1
221636250687892e-31 0 16 592 178 0 ?100 411 590 591 0 0 1 30 413 185 0 1 591 593
 594 +-.00355 .00295 .001299999999999954 0 1 0 30 593 234 0 595 413 596 0 -.0034
26829268292685 -.002826829268292685 .00265487804878048 .0901669634667398 -.09016
69634667398 -.991836598134176 141 594 407 597 597 413 141 597 412 594 594 413 13
3 412 832 0 598 509 407 0 +413 -.00355 -.00295 .001299999999999954 -.00355 -.001
5 .001299999999999954 -.0059 -.00445 16 598 183 0 ?599 498 411 412 0 0 1 17 599
 0 600 56 601 51 602 598 0 435 +16 498 274 0 ?603 481 598 500 0 0 1 16 411 834 0
 ?97 598 592 407 0 0 1 17 97 0 604 554 50 95 605 411 0 606 +15 604 838 0 50 607
 0 17 554 0 604 191 97 92 606 552 0 0 +17 50 0 604 97 191 48 409 406 0 605 -17 6
05 0 608 53 609 48 97 411 0 426 -17 606 0 610 100 603 95 554 552 0 611 -15 610 7
8 0 558 612 0 17 100 0 610 558 606 98 611 592 0 613 +17 603 0 610 606 558 92 614
 498 0 554 +17 611 0 615 616 617 95 100 592 0 609 -15 615 198 0 617 618 0 17 616
 0 615 619 611 116 609 556 0 620 -17 617 0 615 611 621 98 622 623 0 624 -17 609
 0 608 605 620 95 616 556 0 0 +15 608 200 0 609 625 0 17 620 0 608 609 626 116 1
15 565 0 0 -16 556 210 0 ?609 552 623 627 0 0 1 16 623 213 0 ?622 556 628 629 0
 0 1 30 627 231 0 556 629 500 0 +-.003426829268292685 .002826829268292685 .00265
487804878048 -.0901669634667398 .0901669634667398 -.991836598134176 30 629 232 0
 623 596 627 0 -.003421951219512195 .0028219512195122 .00270853658536584 .090166
9634667398 .0901669634667398 -.991836598134176 30 500 276 0 498 627 499 0 +.0035
5 .00295 .00110000000000004 -1 -1221636250687892e-31 0 30 596 233 0 628 593 629
 0 --.003426829268292685 -.002826829268292685 .00265487804878048 .09016696346673
98 .0901669634667398 .991836598134176 16 628 216 0 ?103 623 595 596 0 0 1 17 103
 0 630 631 632 101 626 628 0 602 +16 595 218 0 ?633 628 473 593 0 0 1 17 633 0 6
30 634 631 107 635 595 0 636 +16 473 344 0 ?470 595 637 582 0 0 1 16 637 563 0 ?
638 473 639 640 0 0 1 30 582 365 0 473 640 580 0 -.00355 -.00295 .00110000000000
004 .0901669634667394 -.0901669634667394 .991836598134176 30 640 366 0 637 508 5
82 0 +-.00355 -.00295 .00110000000000004 -.0901669634667394 -.0901669634667394 .
991836598134176 30 508 367 0 639 505 640 0 -.003502032520325205 .002902032520325
21 .000572357723577298 .0901669634667394 .0901669634667395 .991836598134176 16 6
39 350 0 ?468 637 507 508 0 0 1 17 468 0 492 446 614 206 469 639 0 0 +16 507 551
 0 ?94 639 641 505 0 0 1 17 94 0 492 614 642 92 643 507 0 644 +16 641 434 0 ?645
 507 532 646 0 0 1 17 645 0 647 648 134 75 649 641 0 650 +16 532 438 0 ?651 641
 529 652 0 0 1 133 646 519 0 641 653 654 0 +654 -.00295 .00285 .002401 -.00295 .
00285 .0024 0 1000000000000132e-21 30 653 518 0 1 655 646 656 +-.00295 -.00285 .
0024 1 0 0 30 654 520 0 1 646 545 657 +-.00295 .00285 .002401 0 0 -1 133 545 521
 0 658 654 540 0 +540 -.00205 .00285 .0024 -.00295 .00285 .0024 0 9e-4 141 657 6
46 657 657 654 16 658 427 0 ?650 659 660 545 0 0 1 17 650 0 661 649 537 75 80 65
8 0 0 +16 659 431 0 ?648 544 658 575 0 0 1 16 660 588 0 ?136 658 662 663 0 0 1 1
7 136 0 664 145 665 124 666 660 0 667 +16 662 589 0 ?145 660 668 669 670 668 1 3
0 663 693 0 660 669 671 0 -.00355 -.002863636363636365 15e-5 1 0 0 30 669 694 0
 662 672 663 0 --.003463636363636365 -.00295 15e-5 -1085872745940752e-32 -1 1194
460020534878e-31 30 671 504 0 543 663 673 0 +-.00205 .00285 .002401 -1 0 0 16 54
3 443 0 ?674 675 539 671 0 0 1 30 673 503 0 675 671 676 0 +-.00295 .00285 .00240
1 0 -1 0 16 675 446 0 ?132 677 543 673 0 0 1 30 676 502 0 677 673 550 0 +-.00295
 -.00285 .002401 1 0 0 16 677 449 0 ?129 538 675 676 0 0 1 30 550 501 0 538 676
 547 0 +-.00205 -.00285 .002401 -152168725962878e-30 1 0 16 538 452 0 ?126 533 6
77 550 0 0 1 17 126 0 678 674 129 119 679 538 0 680 +15 678 481 0 674 681 0 17 6
74 0 678 132 126 123 682 543 0 649 +17 129 0 678 126 132 127 683 677 0 684 +17 6
79 0 685 531 680 127 126 538 0 0 -17 680 0 685 679 542 119 537 533 0 682 -15 685
 478 0 542 686 0 17 542 0 685 680 531 78 83 539 0 537 +17 537 0 661 650 682 78 6
80 533 0 0 +17 682 0 661 537 649 119 674 543 0 0 -15 661 466 0 650 687 0 17 649
 0 661 682 650 123 645 641 0 0 -14 255 687 463 688 ?689 690 661 4 691 -0 0 689 6
90 18 81 255 1 688 2044 692 687 693 0 0 694 695 14 689 467 694 ?696 687 647 4 69
7 -0 0 696 687 18 14 690 335 698 ?687 699 700 4 701 +0 0 687 699 18 50 691 487 0
 687 697 702 0 +-.00205 .00285 .002401 0 -1 0 0 0 -1 13 18 29 0 0 0 0 0 0 8 12 1
4 12 1432 703 ?478 0 704 4 705 -706 706 478 0 18 81 1 703 2047 692 12 707 0 698
 708 709 14 478 1189 708 ?471 12 476 4 710 +0 0 471 12 18 15 704 1430 0 35 12 0
 50 705 91 0 706 711 712 0 +.00355 -.00295 .0024 -1 0 0 0 0 1 14 706 81 713 ?612
 714 23 4 705 -12 12 612 714 18 81 1 713 2049 692 706 715 0 708 716 717 14 612 7
9 716 ?718 706 610 4 711 -0 0 718 706 18 14 714 83 719 ?706 720 721 4 712 -0 0 7
06 720 18 15 23 80 0 25 706 0 17 25 0 23 21 613 30 624 590 0 305 +17 613 0 23 25
 24 98 558 555 0 617 -17 624 0 722 622 36 98 25 590 0 0 -17 305 0 304 289 298 30
 303 723 0 26 +17 303 0 454 301 26 266 305 723 0 298 -16 723 1478 0 ?305 316 306
 724 0 0 1 17 26 0 454 303 725 30 21 27 0 0 -17 725 0 454 26 275 10 726 316 0 33
 +16 27 1505 0 ?21 299 34 727 0 0 1 16 34 1510 0 ?29 27 728 729 0 0 1 30 727 164
8 0 27 729 724 0 +.00355 .0015 .001299999999999954 0 0 -1 30 729 1649 0 34 730 7
27 0 +.00355 .0015 .00110000000000004 0 -1 0 30 724 1647 0 723 727 318 0 +.00365
 .0015 .001299999999999954 -1 0 0 30 318 1646 0 316 724 317 0 +.00365 .0015 .001
10000000000004 -1 0 0 16 316 1499 0 ?725 311 723 318 0 0 1 30 730 1650 0 728 731
 729 0 +.00355 -.0015 .001299999999999954 0 0 1 16 728 1515 0 ?732 34 309 730 0
 0 1 30 731 1651 0 309 733 730 0 +.00355 .0015 .001299999999999954 0 1 -14456028
9664734e-30 16 309 1500 0 ?36 728 0 731 0 0 1 30 733 1652 0 306 307 731 0 +.0036
5 .0015 .00110000000000004 0 -1 0 16 306 1488 0 ?734 723 299 733 0 0 1 30 307 16
53 0 299 0 733 0 +.00365 .0015 .001299999999999954 0 1 -144560289664734e-30 17 7
34 0 735 315 726 276 736 306 0 0 +15 735 1587 0 33 737 0 17 315 0 735 33 734 22
 738 311 0 285 +17 726 0 735 734 33 273 725 316 0 0 -17 736 0 739 325 278 273 73
4 306 0 726 -15 739 1569 0 736 740 0 17 325 0 739 321 736 260 275 323 0 0 +17 27
8 0 739 736 321 276 326 296 0 738 -17 321 0 739 278 325 257 741 313 0 326 +17 32
6 0 280 341 738 257 278 296 0 0 +17 738 0 280 326 285 276 315 311 0 734 -17 285
 0 280 738 281 22 732 728 0 0 -17 732 0 704 106 35 267 285 728 0 281 +17 106 0 7
04 561 732 104 269 589 0 742 +17 35 0 704 732 561 22 32 496 0 315 +17 561 0 704
 35 106 87 742 559 0 472 +17 32 0 31 470 29 87 35 496 0 0 -17 742 0 721 588 89 1
04 561 559 0 631 -15 721 82 0 564 714 0 17 588 0 721 564 742 101 631 585 0 601 +
17 89 0 721 742 564 87 479 502 0 561 +17 631 0 630 633 103 104 588 585 0 635 -15
 630 204 0 103 699 0 17 635 0 722 269 636 104 633 595 0 0 -15 722 202 0 622 743
 0 17 269 0 722 36 635 267 106 589 0 732 -17 636 0 722 635 622 107 112 570 0 0 -
17 622 0 722 636 624 110 617 623 0 0 +17 112 0 744 578 109 110 636 570 0 621 +16
 570 148 0 ?112 579 576 568 0 0 1 15 744 422 0 83 720 0 17 578 0 744 83 112 78 6
21 576 0 542 +17 109 0 744 112 83 107 634 579 0 633 +17 621 0 615 617 80 110 578
 576 0 622 -17 80 0 615 621 619 78 650 658 0 578 -17 619 0 615 80 616 75 118 567
 0 645 -17 118 0 745 115 77 116 619 567 0 616 +16 567 413 0 ?118 576 565 572 0 0
 1 15 745 417 0 77 718 0 17 115 0 745 122 118 113 620 565 0 626 +17 77 0 745 118
 122 75 648 659 0 619 -17 122 0 745 77 115 120 632 581 0 746 +17 648 0 647 747 6
45 120 77 659 0 651 +15 647 470 0 648 689 0 17 747 0 647 134 648 130 651 532 0 6
83 -17 651 0 748 749 683 120 747 532 0 0 +15 748 474 0 749 696 0 17 749 0 748 68
4 651 81 746 544 0 531 +17 683 0 748 651 684 130 129 677 0 0 -17 684 0 748 683 7
49 127 531 529 0 679 -17 531 0 685 542 679 81 684 529 0 0 +17 746 0 630 632 634
 120 749 544 0 648 -16 544 435 0 ?749 539 659 655 0 0 1 133 655 517 0 544 750 65
3 0 +653 -.00295 -.00285 .0024 -.00205 -.00285 .0024 0 9e-4 30 750 516 0 1 652 6
55 751 +-.00295 -.00285 .002401 0 0 -1 133 652 515 0 532 575 750 0 +750 -.00295
 -.00285 .002401 -.00295 -.00285 .0024 0 1000000000000132e-21 141 751 652 751 75
1 750 133 575 514 0 659 572 652 0 +547 -.00295 .00285 .0024 -.00295 -.00285 .002
4 0 .0057 17 632 0 630 103 746 113 122 581 0 0 -17 634 0 630 746 633 81 109 579
 0 749 -16 581 151 0 ?122 585 579 580 0 0 1 14 696 471 752 ?686 689 748 4 753 -0
 0 686 689 18 81 1 752 2052 692 696 754 0 719 755 756 14 686 475 755 ?681 696 68
5 4 757 -0 0 681 696 18 50 753 489 0 696 757 697 0 +-.00295 -.00285 .002401 0 1
 0 0 0 1 50 757 490 0 686 758 753 0 +-.00205 -.00285 .002401 -1 -152168725962878
e-30 0 152168725962878e-30 -1 0 50 697 488 0 689 753 691 0 +-.00295 .00285 .0024
01 1 0 0 0 0 -1 50 758 492 0 681 759 757 0 +0 0 .002401 0 0 1 1 0 0 14 681 479 7
60 ?761 686 678 4 758 +0 0 761 686 18 50 759 687 0 762 763 758 0 +-.0024 .00295
 15e-5 0 1194460020534878e-31 1 0 -1 1194460020534878e-31 14 762 817 764 ?720 60
7 664 4 759 -0 0 720 607 18 50 763 1021 0 765 766 759 0 +-.00365 .0015 .00014999
9999999868 -1141265444721586e-31 0 1 1 0 1141265444721586e-31 14 765 965 767 ?76
8 761 769 4 763 +0 0 768 761 18 50 766 1022 0 768 770 763 0 +-.00365 .0015 -5000
00000000461e-19 1141265444721586e-31 144560289664734e-30 -1 0 1 144560289664734e
-30 14 768 968 771 ?772 765 773 4 766 +0 0 772 765 18 51 255 770 1023 0 772 774
 766 0 --.00365 0 .0001999999999999545 0 -1 0 500000000000864e-19 0 0 -1 14 772
 971 775 ?776 768 777 4 770 +0 0 776 768 18 51 774 1024 0 776 778 770 0 +-.00365
 0 .0001999999999999545 0 -1 0 25e-5 0 0 -1 14 776 974 779 ?780 772 781 4 774 +0
 0 780 772 18 50 778 1025 0 780 782 774 0 +-.003700000000000085 .0015 .001049999
999999956 1 0 0 0 0 -1 14 780 977 783 ?784 776 785 4 778 +0 0 784 776 18 50 782
 1026 0 784 786 778 0 +-.0039 .0015 .001049999999999952 -1 144560289664734e-30 0
 -144560289664734e-30 -1 0 14 784 980 787 ?788 780 789 4 782 +0 0 788 780 18 51
 786 1027 0 788 790 782 0 --.00365 0 .001049999999999954 0 -1 0 500000000000856e
-19 0 0 -1 14 788 983 791 ?792 784 793 4 786 +0 0 792 784 18 51 790 1028 0 792 7
94 786 0 +-.00365 0 .001049999999999954 0 -1 0 25e-5 0 0 -1 14 792 986 795 ?796
 788 797 4 790 +0 0 796 788 18 50 794 1029 0 796 798 790 0 +-.00365 .0015 .00129
9999999999954 0 -144560289664734e-30 -1 0 1 -144560289664734e-30 14 796 989 799
 ?800 792 801 4 794 -0 0 800 792 18 50 798 1030 0 800 802 794 0 +-.00365 .0015 .
001299999999999954 0 -1 0 0 0 -1 14 800 993 803 ?804 796 805 4 798 -0 0 804 796
 18 50 802 1031 0 804 806 798 0 +-.00365 .0015 .00110000000000004 0 0 1 1 0 0 14
 804 1000 807 ?808 800 809 4 802 -0 0 808 800 18 50 806 1032 0 808 810 802 0 +-.
00365 -.0015 .001299999999999954 0 1 0 0 0 1 14 808 1004 811 ?812 804 813 4 806
 -0 0 812 804 18 50 810 1034 0 812 814 806 0 +-.00270000000000004 0 .00124999999
9999908 -1 0 -2963151238003945e-29 -2963151238003945e-29 0 1 14 812 1011 815 ?46
7 808 816 4 810 -0 0 467 808 18 50 814 1299 0 467 817 810 0 +.0024 .00295 15e-5
 0 -1194460020534878e-31 -1 0 1 -1194460020534878e-31 14 467 1275 818 ?14 812 46
0 4 814 +0 0 14 812 18 50 817 1603 0 463 819 814 0 +.00365 .0015 .00014999999999
9868 -1141265444721586e-31 0 -1 -1 0 1141265444721586e-31 14 463 1549 820 ?821 1
4 462 4 817 -0 0 821 14 18 50 819 1604 0 821 822 817 0 +.00365 .0015 -5000000000
00461e-19 1141265444721586e-31 -144560289664734e-30 1 0 -1 -144560289664734e-30
 14 821 1552 823 ?824 463 825 4 819 -0 0 824 463 18 51 822 1605 0 824 826 819 0
 +.00365 0 .0001999999999999545 0 1 0 500000000000864e-19 0 0 1 14 824 1555 827
 ?828 821 829 4 822 -0 0 828 821 18 51 826 1606 0 828 830 822 0 -.00365 0 .00019
99999999999545 0 1 0 25e-5 0 0 1 14 828 1558 831 ?832 824 833 4 826 -0 0 832 824
 18 50 830 1607 0 832 834 826 0 +.003700000000000085 .0015 .001049999999999956 1
 0 0 0 0 -1 14 832 1561 835 ?836 828 837 4 830 -0 0 836 828 18 50 834 1608 0 836
 838 830 0 +.0039 .0015 .001049999999999952 -1 -144560289664734e-30 0 1445602896
64734e-30 -1 0 14 836 1564 839 ?740 832 840 4 834 -0 0 740 832 18 51 838 1609 0
 740 841 834 0 +.00365 0 .001049999999999954 0 1 0 500000000000856e-19 0 0 1 14
 740 1567 842 ?300 836 739 4 838 -0 0 300 836 18 51 841 1610 0 300 843 838 0 -.0
0365 0 .001049999999999954 0 1 0 25e-5 0 0 1 14 300 1570 844 ?308 740 293 4 841
 -0 0 308 740 18 50 843 1611 0 308 845 841 0 +.00365 .0015 .001299999999999954 0
 144560289664734e-30 1 0 -1 144560289664734e-30 14 308 1573 846 ?286 300 304 4 8
43 +0 0 286 300 18 50 845 1612 0 286 847 843 0 +.00365 -.0015 .00129999999999995
4 0 -1 0 0 0 -1 14 286 1577 848 ?737 308 280 4 845 +0 0 737 308 18 50 847 1613 0
 737 849 845 0 +.00365 .0015 .00110000000000004 0 0 -1 -1 0 0 14 737 1584 850 ?4
56 286 735 4 847 +0 0 456 286 18 50 849 1614 0 456 851 847 0 +.00365 .0015 .0012
99999999999954 0 1 0 0 0 1 14 456 1588 852 ?853 737 454 4 849 +0 0 853 737 18 50
 851 1616 0 853 0 849 0 +.00270000000000004 0 .001249999999999908 1 0 -296315123
8003945e-29 2963151238003945e-29 0 1 14 853 1595 854 ?0 456 855 4 851 -0 0 0 456
 18 81 1 854 2082 692 853 856 0 852 857 858 15 855 1597 0 859 853 0 17 859 0 855
 41 458 221 229 361 0 381 -17 41 0 855 459 859 37 223 368 0 19 -17 458 0 855 859
 459 227 226 363 0 372 -17 229 0 825 241 381 227 859 361 0 458 +17 381 0 825 229
 860 221 232 379 0 0 +15 825 1554 0 860 821 0 17 860 0 825 381 241 230 345 343 0
 360 -17 232 0 280 244 223 230 381 379 0 860 -17 244 0 280 256 232 242 360 358 0
 861 -17 223 0 280 232 19 221 41 368 0 859 +17 19 0 280 223 378 37 466 9 0 367 +
17 378 0 280 19 357 215 235 376 0 466 +17 367 0 460 466 455 37 459 365 0 0 +17 4
59 0 855 458 41 224 367 365 0 455 -17 357 0 280 378 341 233 247 355 0 0 +17 235
 0 462 457 217 233 378 376 0 348 -17 348 0 829 247 354 233 457 346 0 357 +15 829
 1557 0 862 824 0 17 247 0 829 862 348 245 357 355 0 332 -17 354 0 829 348 862 2
36 250 352 0 0 +17 862 0 829 354 247 248 332 330 0 338 -17 250 0 454 262 238 248
 354 352 0 862 -17 262 0 454 275 250 260 338 336 0 741 -17 275 0 454 725 262 273
 325 323 0 736 -17 338 0 837 332 741 248 262 336 0 0 +17 741 0 837 338 259 260 3
21 313 0 325 -15 837 1563 0 741 832 0 17 259 0 837 741 332 257 341 339 0 321 -17
 332 0 837 259 338 245 862 330 0 341 +17 341 0 280 357 326 245 259 339 0 0 +17 3
60 0 833 345 861 230 244 358 0 0 +17 861 0 833 360 253 242 329 295 0 290 -15 833
 1560 0 861 828 0 17 253 0 833 861 345 251 351 349 0 329 -17 329 0 840 265 290 2
51 861 295 0 335 +17 290 0 840 329 292 242 256 291 0 0 +15 840 1566 0 292 836 0
 17 292 0 840 290 265 254 294 310 0 282 -17 265 0 840 292 329 263 335 333 0 294
 -17 294 0 293 272 282 263 292 310 0 301 +17 301 0 454 335 303 263 272 302 0 0 +
17 335 0 454 351 301 251 265 333 0 0 +17 351 0 454 372 335 239 253 349 0 0 +17 3
72 0 454 226 351 227 241 370 0 0 +17 241 0 825 860 229 239 372 370 0 345 -17 345
 0 833 253 360 239 860 343 0 351 +80 255 1 692 863 864 9000 1 1 1 1 1 1 1 1 0 FF
FFTFTFFFFFFF1 81 1 856 1921 865 853 0 854 866 0 867 81 1 852 2081 692 456 866 0
 850 854 868 81 1 857 2083 692 14 869 0 854 870 871 82 255 1 858 -1865875317 14
 14 1375 857 ?463 467 482 4 5 +0 0 463 467 18 81 1 869 1908 865 14 0 857 872 873
 874 81 1 870 2084 692 761 875 0 857 876 877 82 1 871 -1946877813 14 761 772 870
 ?765 681 878 4 15 +0 0 765 681 18 81 1 875 1893 865 761 0 870 879 880 881 81 1
 876 2085 692 699 882 0 870 883 884 82 1 877 481296517 14 699 203 876 ?690 743 6
30 4 885 +0 0 690 743 18 81 1 882 1886 865 699 0 876 886 887 888 81 1 883 2086 6
92 618 889 0 876 890 891 82 1 884 1585578096 14 618 197 883 ?625 487 615 4 892 +
0 0 625 487 18 81 1 889 1883 865 618 0 883 893 894 895 81 1 890 2087 692 718 896
 0 883 897 898 82 1 891 1589444720 14 718 1 890 ?487 612 745 4 702 +720 720 487
 612 18 81 1 896 1881 865 718 0 890 899 893 900 81 1 897 2088 692 720 901 0 890
 902 903 82 1 898 147783792 14 720 419 897 ?714 762 744 4 702 +718 718 714 762 1
8 81 1 901 1877 865 720 0 897 904 905 906 81 1 902 2089 692 487 893 0 897 907 90
8 82 1 903 -28049296 14 487 43 902 ?618 718 485 4 909 -0 0 618 718 18 81 1 893 1
882 865 487 0 902 896 889 910 81 1 907 2090 692 743 886 0 902 911 912 82 1 908 1
51257227 14 743 201 907 ?699 625 722 4 913 +0 0 699 625 18 81 1 886 1885 865 743
 0 907 894 882 914 81 1 911 2091 692 471 915 0 907 916 917 82 1 912 1587150987 1
4 471 1179 911 ?918 478 31 4 919 +0 0 918 478 18 81 1 915 1872 865 471 0 911 920
 921 922 81 1 916 2092 692 918 921 0 911 923 924 82 1 917 -1951072117 14 918 117
2 916 ?925 471 492 4 926 +0 0 925 471 18 81 1 921 1873 865 918 0 916 915 927 928
 81 1 923 2093 692 925 927 0 916 929 930 82 1 924 -1957035893 14 925 847 923 ?60
7 918 600 4 931 -607 607 607 918 18 81 1 927 1874 865 925 0 923 921 932 933 81 1
 929 2094 692 607 932 0 923 934 935 82 1 930 1532559497 14 607 840 929 ?762 925
 604 4 931 -925 925 762 925 18 81 1 932 1875 865 607 0 929 927 904 936 81 1 934
 2095 692 625 894 0 929 0 937 82 1 935 1531969673 14 625 199 934 ?743 618 608 4
 938 +0 0 743 618 18 81 1 894 1884 865 625 0 934 889 886 939 82 1 937 1588330633
 80 1 865 0 940 8001 0 0 0 0 3 5 0 0 0 FFFFTFTFFFFFFF2 83 255 3 939 .14509803921
56862 .1411764705882352 .1411764705882352 79 255 15 940 SDL/TYSA_COLOUR50 938 22
8 0 625 913 892 0 +-.00345 0 .0024 -.995893206467704 0 .0905357460425151 0 1 0 5
0 913 229 0 743 885 938 0 +.00345 0 .0024 .995893206467704 0 .0905357460425151 0
 -1 0 50 892 227 0 618 938 926 0 +-3481663314460495e-34 .00285 .0024 -1216619242
83475e-30 .995893206467704 .0905357460425151 1 1221636250687892e-31 0 50 926 364
 0 918 892 701 0 -.00355 .00295 .00110000000000004 121661924283475e-30 -.9958932
06467704 .0905357460425147 -1 -1221636250687892e-31 0 50 701 363 0 690 926 919 0
 --.00355 -.00295 .00110000000000004 .995893206467704 0 .0905357460425147 0 -1 0
 50 919 362 0 471 701 710 0 -.00355 -.00295 .00110000000000004 -.995893206467704
 0 .0905357460425147 0 1 0 50 710 361 0 478 919 15 0 -.00355 -.00295 .0011000000
0000004 0 .995893206467704 .0905357460425147 1 0 0 50 15 784 0 761 710 5 0 --.00
24 0 15e-5 .707106781186546 0 .70710678118655 0 -1 0 50 885 230 0 699 931 913 0
 +0 -.00285 .0024 0 -.995893206467704 .0905357460425151 -1 0 0 50 931 93 0 925 7
12 885 0 +-.00355 -.00295 .0024 1 0 0 0 0 -1 50 712 92 0 714 705 931 0 +.00355 -
.00295 .0024 0 1 0 0 0 1 81 1 904 1876 865 762 0 764 932 901 941 83 3 936 .14509
80392156862 .1411764705882352 .1411764705882352 81 1 764 2055 692 762 904 0 760
 767 942 83 3 941 .1450980392156862 .1411764705882352 .1411764705882352 81 1 760
 2054 692 681 879 0 755 764 943 81 1 767 2056 692 765 880 0 764 771 944 82 1 942
 1528758409 81 1 880 1894 865 765 0 767 875 945 946 81 1 771 2057 692 768 945 0
 767 775 947 82 1 944 1487601801 81 1 945 1895 865 768 0 771 880 948 949 81 1 77
5 2058 692 772 948 0 771 779 950 82 1 947 1486684297 81 1 948 1896 865 772 0 775
 945 951 952 81 1 779 2059 692 776 951 0 775 783 953 82 1 950 1482358921 81 1 95
1 1897 865 776 0 779 948 954 955 81 1 783 2060 692 780 954 0 779 787 956 82 1 95
3 1481441417 81 1 954 1898 865 780 0 783 951 957 958 81 1 787 2061 692 784 957 0
 783 791 959 82 1 956 1477574793 81 1 957 1899 865 784 0 787 954 960 961 81 1 79
1 2062 692 788 960 0 787 795 962 82 1 959 1476657289 81 1 960 1900 865 788 0 791
 957 963 964 81 1 795 2063 692 792 963 0 791 799 965 82 1 962 1472331913 81 1 96
3 1901 865 792 0 795 960 966 967 81 1 799 2064 692 796 966 0 795 803 968 82 1 96
5 1471414409 81 1 966 1902 865 796 0 799 963 969 970 81 1 803 2065 692 800 969 0
 799 807 971 82 1 968 1469251721 81 1 969 1903 865 800 0 803 966 972 973 81 1 80
7 2066 692 804 972 0 803 811 974 82 1 971 1468989577 81 1 972 1904 865 804 0 807
 969 975 976 81 1 811 2067 692 808 975 0 807 815 977 82 1 974 1468727433 81 1 97
5 1905 865 808 0 811 972 978 979 81 1 815 2068 692 812 978 0 811 818 980 82 1 97
7 1468465289 81 1 978 1906 865 812 0 815 975 872 981 81 1 818 2069 692 467 872 0
 815 820 982 82 1 980 1461911689 81 1 872 1907 865 467 0 818 978 869 983 81 1 82
0 2070 692 463 873 0 818 823 984 82 1 982 -1961623413 81 1 873 1909 865 463 0 82
0 869 985 986 81 1 823 2071 692 821 985 0 820 827 987 82 1 984 -1840709493 81 1
 985 1910 865 821 0 823 873 988 989 81 1 827 2072 692 824 988 0 823 831 990 82 1
 987 -1841626997 81 1 988 1911 865 824 0 827 985 991 992 81 1 831 2073 692 828 9
91 0 827 835 993 82 1 990 -1845952373 81 1 991 1912 865 828 0 831 988 994 995 81
 1 835 2074 692 832 994 0 831 839 996 82 1 993 -1846869877 81 1 994 1913 865 832
 0 835 991 997 998 81 1 839 2075 692 836 997 0 835 842 999 82 1 996 -1850736501
 81 1 997 1914 865 836 0 839 994 1000 1001 81 1 842 2076 692 740 1000 0 839 844
 1002 82 1 999 -1851654005 81 1 1000 1915 865 740 0 842 997 1003 1004 81 1 844 2
077 692 300 1003 0 842 846 1005 82 1 1002 -1855979381 81 1 1003 1916 865 300 0 8
44 1000 1006 1007 81 1 846 2078 692 308 1006 0 844 848 1008 82 1 1005 -185689688
5 81 1 1006 1917 865 308 0 846 1003 1009 1010 81 1 848 2079 692 286 1009 0 846 8
50 1011 82 1 1008 -1858928501 81 1 1009 1918 865 286 0 848 1006 1012 1013 81 1 8
50 2080 692 737 1012 0 848 852 1014 82 1 1011 -1859059573 81 1 1012 1919 865 737
 0 850 1009 866 1015 82 1 1014 -1859190645 81 1 866 1920 865 456 0 852 1012 856
 1016 83 3 1015 .827450980392157 .83921568627451 .827450980392157 83 3 1016 .827
450980392157 .83921568627451 .827450980392157 83 3 1013 .827450980392157 .839215
68627451 .827450980392157 83 3 1010 .827450980392157 .83921568627451 .8274509803
92157 83 3 1007 .827450980392157 .83921568627451 .827450980392157 83 3 1004 .827
450980392157 .83921568627451 .827450980392157 83 3 1001 .827450980392157 .839215
68627451 .827450980392157 83 3 998 .827450980392157 .83921568627451 .82745098039
2157 83 3 995 .827450980392157 .83921568627451 .827450980392157 83 3 992 .827450
980392157 .83921568627451 .827450980392157 83 3 989 .827450980392157 .8392156862
7451 .827450980392157 83 3 986 .827450980392157 .83921568627451 .827450980392157
 83 3 983 .0980392156862745 .0980392156862745 .0980392156862745 83 3 981 .827450
980392157 .83921568627451 .827450980392157 83 3 979 .827450980392157 .8392156862
7451 .827450980392157 83 3 976 .827450980392157 .83921568627451 .827450980392157
 83 3 973 .827450980392157 .83921568627451 .827450980392157 83 3 970 .8274509803
92157 .83921568627451 .827450980392157 83 3 967 .827450980392157 .83921568627451
 .827450980392157 83 3 964 .827450980392157 .83921568627451 .827450980392157 83
 3 961 .827450980392157 .83921568627451 .827450980392157 83 3 958 .8274509803921
57 .83921568627451 .827450980392157 83 3 955 .827450980392157 .83921568627451 .8
27450980392157 83 3 952 .827450980392157 .83921568627451 .827450980392157 83 3 9
49 .827450980392157 .83921568627451 .827450980392157 83 3 946 .827450980392157 .
83921568627451 .827450980392157 81 1 879 1892 865 681 0 760 1017 875 1018 81 1 7
55 2053 692 686 1017 0 752 760 1019 82 1 943 -40566672 81 1 1017 1891 865 686 0
 755 754 879 1020 82 1 1019 -34013072 81 1 754 1890 865 696 0 752 1021 1017 1022
 83 3 1020 .690196078431373 .662745098039216 .596078431372549 81 1 1021 1889 865
 689 0 694 693 754 1023 83 3 1022 .690196078431373 .662745098039216 .59607843137
2549 81 1 694 2045 692 689 1021 0 688 698 1024 81 1 693 1888 865 687 0 688 887 1
021 1025 83 3 1023 .690196078431373 .662745098039216 .596078431372549 81 1 887 1
887 865 690 0 698 882 693 1026 83 3 1025 .690196078431373 .662745098039216 .5960
78431372549 81 1 698 2046 692 690 887 0 694 703 1027 83 3 1026 .1450980392156862
 .1411764705882352 .1411764705882352 82 1 1027 -1783037815 82 1 1024 -33488784 8
3 3 1018 .690196078431373 .662745098039216 .596078431372549 83 3 933 .1450980392
156862 .1411764705882352 .1411764705882352 15 600 845 0 56 925 0 17 56 0 600 86
 599 54 435 397 0 1028 -17 86 0 600 601 56 84 1028 504 0 638 +17 435 0 813 1029
 441 51 56 397 0 437 +17 1028 0 700 1030 638 54 86 504 0 422 -15 700 566 0 667 6
90 0 17 1030 0 700 644 1028 189 422 410 0 409 -17 638 0 700 1028 667 84 1031 637
 0 564 +16 504 825 0 ?86 512 502 509 0 0 1 17 422 0 809 1032 416 54 1030 410 0 4
41 +15 809 1003 0 422 804 0 17 1032 0 809 1033 422 196 441 418 0 0 -17 416 0 809
 422 1033 189 1034 414 0 0 +17 441 0 813 435 198 54 1032 418 0 0 +15 813 1010 0
 435 808 0 17 198 0 813 441 184 196 1035 1036 0 399 -17 184 0 813 198 172 182 10
37 1038 0 1039 -17 1035 0 793 1040 399 182 198 1036 0 0 +16 1036 882 0 ?1035 104
1 1042 1043 0 0 1 17 399 0 793 1035 201 196 1033 396 0 1032 +15 793 985 0 399 78
8 0 17 201 0 793 399 1040 199 1044 1041 0 1034 -17 1033 0 809 416 1032 199 399 3
96 0 0 -17 1040 0 793 201 1035 179 1039 1045 0 1044 -17 1044 0 805 1046 1034 179
 201 1041 0 0 +16 1041 900 0 ?1044 1047 1036 1048 0 0 1 17 1034 0 805 1044 409 1
99 416 414 0 1033 -15 805 999 0 409 800 0 17 409 0 805 1034 426 189 50 406 0 416
 +17 426 0 805 409 203 48 1049 417 0 431 +17 203 0 805 426 178 192 1050 1047 0 3
95 -17 1049 0 801 1051 431 192 426 417 0 0 -17 431 0 801 1049 437 48 53 392 0 0
 +15 801 992 0 431 796 0 17 437 0 801 431 1051 51 1029 400 0 0 +17 53 0 608 602
 605 51 431 392 0 599 -17 602 0 608 626 53 101 599 598 0 588 -17 626 0 608 620 6
02 113 103 628 0 632 -17 1051 0 801 437 1049 188 395 393 0 0 -17 1029 0 813 1052
 435 188 437 400 0 1051 -17 1052 0 813 1053 1029 185 195 1042 0 0 +17 1053 0 813
 1054 1052 173 187 1055 0 0 +17 195 0 797 395 1056 188 1052 1042 0 1029 -16 1042
 919 0 ?1052 1036 1045 1057 0 0 1 16 1045 871 0 ?1039 1042 427 1058 0 0 1 31 105
7 1058 0 1042 1058 1043 0 +-.00365 -.0015 .001049999999999954 0 -1 0 0 0 -1 25e-
5 30 1058 1059 0 1045 403 1057 0 +-.003700000000000085 .0015 .001049999999999956
 0 -1 0 31 1043 1057 0 1036 1057 1048 0 +-.00365 -.0015 .001049999999999954 0 -1
 0 0 0 -1 500000000000856e-19 31 1048 1056 0 1041 1043 1059 0 +-.00365 .0015 .00
1049999999999954 0 -1 0 0 0 -1 500000000000856e-19 31 1059 1055 0 1047 1048 1060
 0 +-.00365 .0015 .001049999999999954 0 -1 0 0 0 -1 25e-5 16 1047 886 0 ?1050 10
61 1041 1059 0 0 1 30 1060 1054 0 1061 1059 1062 0 +-.0039 .0015 .00019999999999
99565 144560289664734e-30 1 2270165336057145e-45 16 1061 867 0 ?1063 1064 1047 1
060 0 0 1 30 1062 1053 0 1064 1060 1065 0 +-.003700000000000085 .0015 .000199999
9999999595 0 -1 0 16 1064 863 0 ?1066 1055 1061 1062 0 0 1 30 1065 1052 0 1055 1
062 1067 0 +-.0039 -.0015 .001049999999999952 0 0 -1 16 1055 920 0 ?1053 1038 10
64 1065 0 0 1 30 1067 1051 0 1038 1065 1068 0 +-.003700000000000085 -.0015 .0010
49999999999956 0 0 -1 16 1038 874 0 ?1037 1069 1055 1067 0 0 1 30 1068 1050 0 10
69 1067 1070 0 +-.003700000000000085 .0015 .001049999999999956 0 0 -1 16 1069 90
1 0 ?1046 1071 1038 1068 0 0 1 30 1070 1049 0 1071 1068 1072 0 +-.0039 .0015 .00
1049999999999952 0 0 -1 16 1071 878 0 ?1073 1074 1069 1070 0 0 1 30 1072 1048 0
 1074 1070 1075 0 +-.00365 .0015 -500000000000461e-19 -4283540012862655e-45 1 14
4560289664734e-30 16 1074 859 0 ?1076 1077 1071 1072 0 0 1 30 1075 1047 0 1077 1
072 1078 0 +-.00365 .0015 .000149999999999868 0 -1 0 16 1077 856 0 ?1079 1080 10
74 1075 0 0 1 31 1078 1046 0 1080 1075 1081 0 +-.00365 -.0015 .00019999999999995
45 0 -1 0 0 0 -1 25e-5 16 1080 921 0 ?1054 1082 1077 1078 0 0 1 31 1081 1045 0 1
082 1078 1083 0 +-.00365 -.0015 .0001999999999999545 0 -1 0 0 0 -1 5000000000008
64e-19 16 1082 866 0 ?1084 1085 1080 1081 0 0 1 31 1083 1044 0 1085 1081 1086 0
 +-.00365 .0015 .0001999999999999545 0 -1 0 0 0 -1 500000000000864e-19 16 1085 9
02 0 ?1087 1088 1082 1083 0 0 1 31 1086 1043 0 1088 1083 1089 0 +-.00365 .0015 .
0001999999999999545 0 -1 0 0 0 -1 25e-5 16 1088 870 0 ?1090 1091 1085 1086 0 0 1
 30 1089 1042 0 1091 1086 1092 0 +-.0027 .0015 -50000000000046e-18 -428354001286
2655e-45 1 144560289664734e-30 16 1091 924 0 ?1093 1094 1088 1089 0 0 1 30 1092
 1041 0 1094 1089 1095 0 +-.0027 -.0015 -500000000000464e-19 2963151238003945e-2
9 0 -1 16 1094 933 0 ?1096 1097 1091 1092 0 0 1 30 1095 1040 0 1097 1092 1098 0
 +-.0027 .0015 .0001499999999998682 0 -1 0 16 1097 930 0 ?1099 1100 1094 1095 0
 0 1 30 1098 1039 0 1100 1095 1101 0 +-.0027 .0015 -50000000000046e-18 -29631512
38003945e-29 0 1 16 1100 927 0 ?1102 1103 1097 1098 0 0 1 30 1101 1038 0 1103 10
98 1104 0 +-.00365 -.0015 -500000000000465e-19 1 0 1141265444721586e-31 16 1103
 922 0 ?1105 1106 1100 1101 0 0 1 30 1104 1037 0 1106 1101 1107 0 +-.00365 -.001
5 .000149999999999868 1 0 1141265444721586e-31 16 1106 854 0 ?1108 1109 1103 110
4 0 0 1 30 1107 1036 0 1109 1104 1110 0 +-.00365 .0015 .000149999999999868 1 0 1
141265444721586e-31 16 1109 903 0 ?1111 1112 1106 1107 0 0 1 30 1110 1035 0 1112
 1107 672 0 +-.00365 .0015 -500000000000461e-19 1 0 1141265444721586e-31 16 1112
 862 0 ?1113 1114 1109 1110 0 0 1 30 672 710 0 1114 1110 669 0 +-.0024 .00295 15
e-5 0 1 -1194460020534878e-31 16 1114 607 0 ?1115 670 1112 672 0 0 1 17 1115 0 8
78 493 142 72 665 1114 0 0 +16 670 805 0 ?139 668 1114 669 668 662 1 17 139 0 66
4 526 65 137 1116 670 0 642 +16 668 802 0 ?1117 662 670 669 662 670 1 17 1117 0
 769 157 1108 63 1118 668 0 1111 +15 769 967 0 1108 765 0 17 157 0 769 1079 1117
 155 1111 1109 0 1119 -17 1108 0 769 1117 1079 143 160 1106 0 0 +17 1118 0 700 6
67 1116 143 1117 668 0 519 -17 1111 0 805 516 1087 63 157 1109 0 0 +17 516 0 805
 148 1111 57 65 448 0 1102 +17 1087 0 805 1111 1046 155 169 1085 0 0 +17 1046 0
 805 1087 1044 167 181 1069 0 0 +17 169 0 777 1066 1119 167 1087 1085 0 1120 -15
 777 973 0 1066 772 0 17 1066 0 777 1084 169 170 1120 1064 0 1037 +17 1119 0 777
 169 1084 155 1079 1077 0 1087 -17 1120 0 785 181 1037 167 1066 1064 0 1046 -15
 785 979 0 1039 780 0 17 181 0 785 1039 1120 179 1046 1069 0 1040 -17 1037 0 785
 1120 1039 170 184 1038 0 0 +17 1039 0 785 1037 181 182 1040 1045 0 1035 +17 108
4 0 777 1119 1066 158 172 1082 0 0 +17 1079 0 769 1108 157 158 1119 1077 0 1084
 +17 172 0 813 184 160 170 1084 1082 0 1066 -17 160 0 813 172 519 158 1108 1106
 0 1079 -17 519 0 813 160 1121 143 62 517 0 1108 +17 1121 0 813 519 1105 60 1096
 1094 0 1099 -17 62 0 664 59 145 60 519 517 0 1121 -15 664 815 0 65 762 0 17 59
 0 664 65 62 57 1099 1097 0 516 -17 145 0 664 62 136 143 667 662 0 1118 +17 667
 0 700 638 1118 124 145 662 0 1031 -17 1031 0 476 666 479 124 638 637 0 0 -17 66
6 0 476 480 1031 140 136 660 0 0 -17 479 0 476 1031 472 84 89 502 0 0 -17 480 0
 476 477 666 69 142 523 0 490 +17 142 0 878 1115 490 140 480 523 0 665 -17 490 0
 878 142 493 69 68 491 0 0 -15 878 773 0 493 761 0 17 493 0 878 490 1115 66 74 5
20 0 0 -17 74 0 492 642 488 72 493 520 0 526 +15 492 558 0 446 918 0 17 642 0 49
2 94 74 137 526 514 0 643 -17 526 0 664 665 139 72 642 514 0 1115 +17 665 0 664
 136 526 140 1115 1114 0 666 -17 643 0 700 1116 644 137 94 507 0 0 -17 1116 0 70
0 1118 643 63 139 670 0 1117 -17 644 0 700 643 1030 92 191 512 0 603 -17 191 0 6
04 50 554 189 644 512 0 1030 +17 446 0 492 47 468 209 465 444 0 484 +17 47 0 492
 488 446 45 484 453 0 486 +17 484 0 482 475 483 209 47 453 0 0 -17 65 0 664 139
 59 63 516 448 0 1116 -17 1099 0 816 1096 1102 60 59 1097 0 0 +15 816 1013 0 109
3 812 0 17 1096 0 816 1093 1099 149 1121 1094 0 1105 +17 1102 0 816 1099 1093 57
 148 1100 0 0 +17 1093 0 816 1102 1096 146 151 1091 0 1113 +17 148 0 805 154 516
 146 1102 1100 0 1093 -17 154 0 805 166 148 152 1113 1112 0 1076 -17 166 0 805 1
78 154 164 1090 1088 0 1063 -17 1113 0 773 151 1076 146 154 1112 0 0 +17 1076 0
 773 1113 163 152 1122 1074 0 1090 +15 773 970 0 1076 768 0 17 163 0 773 1076 15
1 161 1105 1103 0 1122 -17 1122 0 781 175 1090 161 1076 1074 0 1054 -17 1090 0 7
81 1122 1063 152 166 1088 0 0 +15 781 976 0 1063 776 0 17 1063 0 781 1090 175 16
4 1123 1061 0 1073 +17 175 0 781 1063 1122 173 1054 1080 0 1123 -17 1123 0 789 1
87 1073 173 1063 1061 0 1053 -17 1073 0 789 1123 1124 164 178 1071 0 0 +15 789 9
82 0 1124 784 0 17 1124 0 789 1073 187 176 1056 427 0 1050 +17 178 0 805 203 166
 176 1073 1071 0 1124 -17 187 0 789 1124 1123 185 1053 1055 0 1056 -17 1056 0 79
7 195 1050 185 1124 427 0 1052 -16 427 875 0 ?1124 1045 417 403 0 0 1 17 1050 0
 797 1056 395 176 203 1047 0 0 +15 797 988 0 395 792 0 17 395 0 797 1050 195 192
 1051 393 0 1049 +30 403 1060 0 427 401 1058 0 +-.0039 .0015 .001049999999999952
 144560289664734e-30 1 2270165336057145e-45 17 1054 0 813 1105 1053 161 175 1080
 0 0 +17 1105 0 813 1121 1054 149 163 1103 0 0 +17 151 0 773 163 1113 149 1093 1
091 0 1096 -17 564 0 721 89 588 84 601 562 0 479 +17 601 0 600 599 86 101 564 56
2 0 0 -83 3 928 .1450980392156862 .1411764705882352 .1411764705882352 81 1 920 1
871 865 478 0 708 707 915 1125 83 3 922 .1450980392156862 .1411764705882352 .141
1764705882352 81 1 708 2048 692 478 920 0 703 713 1126 81 1 707 1870 865 12 0 70
3 0 920 1127 83 3 1125 .1450980392156862 .1411764705882352 .1411764705882352 83
 3 1127 .1450980392156862 .1411764705882352 .1411764705882352 82 1 1126 -1950023
541 83 3 914 .1450980392156862 .1411764705882352 .1411764705882352 83 3 910 .145
0980392156862 .1411764705882352 .1411764705882352 50 909 65 0 487 702 711 0 +0 0
 0 0 0 1 1 0 0 50 702 2 0 718 691 909 0 +0 0 .0024 0 0 1 1 0 0 50 711 90 0 612 9
09 705 0 +.00355 .00295 .0024 1221636250687892e-31 -1 0 1 1221636250687892e-31 0
 81 1 905 1878 865 714 0 719 901 715 1128 83 3 906 .1450980392156862 .1411764705
882352 .1411764705882352 81 1 719 2051 692 714 905 0 716 752 1129 81 1 715 1879
 865 706 0 713 905 899 1130 83 3 1128 .1450980392156862 .1411764705882352 .14117
64705882352 81 1 899 1880 865 612 0 716 715 896 1131 83 3 1130 .1450980392156862
 .1411764705882352 .1411764705882352 81 1 716 2050 692 612 899 0 713 719 1132 83
 3 1131 .1450980392156862 .1411764705882352 .1411764705882352 82 1 1132 15433738
8 82 1 1129 154861676 83 3 900 .1450980392156862 .1411764705882352 .141176470588
2352 83 3 895 .1450980392156862 .1411764705882352 .1411764705882352 83 3 888 .14
50980392156862 .1411764705882352 .1411764705882352 83 3 881 .1450980392156862 .1
411764705882352 .1411764705882352 83 3 874 .0980392156862745 .0980392156862745 .
0980392156862745 82 1 868 -1859321717 83 3 867 .827450980392157 .83921568627451
 .827450980392157 79 14 864 SWEntUnchanged82 1 756 -33750928 17 134 0 647 645 74
7 123 132 675 0 674 -17 132 0 678 129 674 130 134 675 0 747 +17 83 0 744 109 578
 81 542 539 0 634 -17 36 0 722 624 269 30 289 309 0 25 +16 589 1421 0 ?106 590 5
85 586 590 590 1 17 33 0 735 726 315 10 29 34 0 0 -17 24 0 23 613 21 90 28 494 0
 558 +17 558 0 610 603 100 90 613 555 0 469 +17 469 0 31 28 208 90 468 639 0 614
 -17 28 0 31 29 469 10 24 494 0 725 -17 614 0 492 468 94 90 603 498 0 0 -82 1 71
7 154599563 82 1 709 -1797652341 82 1 695 -33226640 141 656 655 656 656 653 141
 551 575 551 551 547 141 546 545 546 546 540 17 211 0 460 465 474 209 475 382 0
 446 +141 404 432 404 404 401 19 13 95 0 1 0 8 4 S0 74 4 CI16 index_map_offset0
 0 1 dCCZ20 11 2 0 0 934 856 0 0 0 0 0 0 0 0 0 0 0 0 0 0 0 0 0 0 1 0 
