**ABCDEFGHIJKLMNOPQRSTUVWXYZabcdefghijklmnopqrstuvwxyz**************************
**PARASOLID !"#$%&'()*+,-./:;<=>?@[\]^_`{|}~0123456789**************************
**PART1;
MC=AMD64;
MC_MODEL=Intel64 Family 6 Model 15 Stepping 13, GenuineIntel;
MC_ID=unknown;
OS=Windows_NT;
OS_RELEASE=unknown;
FRU=Parasolid Version 30.0, build 310,  6- 8-2018;
APPL=SOLIDWORKS 2018-2018211;
SITE=;
USER=unknown;
FORMAT=text;
GUISE=transmit;
KEY=DO-214AC_SMA;
FILE=DO-214AC_SMA.x_t;
DATE=Sun Mar 17 16:49:51 2019;
**PART2;
SCH=SCH_3000310_30000;
USFLD_SIZE=0;
**PART3;
**END_OF_HEADER*****************************************************************
T51 : TRANSMIT FILE created by modeller version 300031023 SCH_3000310_30000_1300
6205 0 12 33 CCCCCCI4 mesh1006 0 I8 polyline1008 0 CCCCCCCDI5 owner1040 0 CCCCCC
I13 boundary_mesh1006 0 I17 boundary_polyline1008 0 CCCA16 index_map_offset0 0 1
 dA9 index_map82 0 A17 node_id_index_map82 0 A20 schema_embedding_map82 0 A5 chi
ld12 0 A14 lowest_node_id0 0 1 dZ1 2078 0 2 0 0 0 0 0 0 1e3 1e-8 0 3 0 1 0 1 1 4
 5 6 7 0 0 8 9 10 0 0 0 0 0 0 70 11 CI9 list_type0 0 1 uI10 notransmit0 0 1 lCCC
DCCDI12 finger_index0 0 1 dI12 finger_block1012 0 CZ2 0 4 T1 0 0 2 20 1 11 11 13
 255 4 94 0 1 0 12 0 0 13 0 50 255 5 1362 0 14 15 0 0 +9e-4 0 0 .707106781186546
 0 -.70710678118655 0 1 0 30 255 6 1388 0 9 16 0 0 +.00105 -75e-5 .0001500000000
000345 -1 0 0 29 255 7 1403 0 10 17 0 .00215 75e-5 .001000000000000034 19 8 CCCC
CCCA5 owner12 0 Z8 28 0 1 13 0 18 V0 16 255 9 1386 0 ?19 0 20 6 0 0 1 18 255 10
 1401 0 21 0 22 7 ?1 17 255 21 0 23 24 25 10 26 27 0 28 +18 22 1398 0 29 10 30 1
7 ?1 17 29 0 31 32 28 22 33 34 0 35 +18 30 1392 0 36 22 37 38 ?1 29 17 1400 0 22
 38 7 .00215 -75e-5 .001000000000000034 29 38 1394 0 30 39 17 .00215 75e-5 .0011
99999999999966 29 39 1382 0 37 40 38 .0012 -75e-5 .0001500000000000345 18 37 138
0 0 41 30 42 39 ?1 29 40 1328 0 42 43 39 9e-4 .00125 0 18 42 1326 0 44 37 45 40
 ?1 29 43 1325 0 45 46 40 9e-4 -.00125 1084202172485504e-34 18 45 1323 0 47 42 4
8 43 ?1 29 46 831 0 48 49 43 -.00215 75e-5 .001199999999999966 18 48 829 0 50 45
 51 46 ?1 29 49 828 0 51 52 46 -.00215 -75e-5 .001199999999999966 18 51 826 0 53
 48 54 49 ?1 29 52 822 0 54 55 49 -.00215 75e-5 .001000000000000034 18 54 820 0
 56 51 57 52 ?1 29 55 808 0 57 58 52 -.0012 75e-5 .0001500000000000345 18 57 806
 0 59 54 60 55 ?1 29 58 805 0 60 61 55 -.002065 75e-5 .0001500000000000345 18 60
 803 0 62 57 63 58 ?1 29 61 802 0 63 64 58 -.002065 -75e-5 .0001500000000000345
 18 63 800 0 65 60 66 61 ?1 29 64 756 0 66 67 61 -9e-4 .00125 216840434497101e-3
3 18 66 754 0 68 63 69 64 ?1 29 67 748 0 69 70 64 -9e-4 -.00125 0 18 69 746 0 71
 66 72 67 ?1 29 70 555 0 72 73 67 -.00105 .001265 .0001500000000000345 18 72 553
 0 74 69 75 70 ?1 29 73 415 0 75 76 70 -.00115 -.00125 .00215 18 75 412 0 77 72
 78 73 1e-8 1 29 76 406 0 78 79 73 -.00175 .00125 .00215 18 78 403 0 80 75 81 76
 1e-8 1 29 79 400 0 81 82 76 -.00115 .00125 .00215 18 81 398 0 83 78 84 79 1e-8
 1 29 82 309 0 84 85 79 -.00215 -.00135 .001000000000000034 18 84 307 0 86 81 87
 82 ?1 29 85 301 0 87 88 82 .00215 -.00135 .001000000000000034 18 87 299 0 89 84
 90 85 ?1 29 88 273 0 90 91 85 .00215 .00135 .001000000000000034 18 90 271 0 24
 87 92 88 ?1 29 91 270 0 92 93 88 -.00215 .00135 .001000000000000034 18 92 268 0
 94 90 95 91 ?1 29 93 177 0 95 96 91 -.00215 -.00135 .001199999999999966 18 95 1
75 0 97 92 98 93 ?1 29 96 169 0 98 99 93 .00215 -.00135 .001199999999999966 18 9
8 167 0 100 95 101 96 ?1 29 99 161 0 101 102 96 .00215 .00135 .00119999999999996
6 18 101 159 0 103 98 104 99 ?1 29 102 158 0 104 105 99 -.00215 .00135 .00119999
9999999966 18 104 156 0 106 101 107 102 ?1 29 105 149 0 107 108 102 .00205 .0012
5 .00215 18 107 147 0 109 104 110 105 ?1 29 108 145 0 110 111 105 .00205 -.00125
 .00215 18 110 143 0 112 107 113 108 ?1 29 111 141 0 113 114 108 -.00205 -.00125
 .00215 18 113 139 0 115 110 116 111 ?1 29 114 138 0 116 117 111 -.00205 .00125
 .00215 18 116 136 0 118 113 119 114 ?1 29 117 507 0 120 121 114 -.00175 -.00125
 .00215 18 120 455 0 122 123 124 117 1e-8 1 29 121 509 0 119 125 117 -.00115 .00
125 .002151 18 119 461 0 126 116 127 121 ?1 29 125 510 0 127 128 121 -.00115 -.0
0125 .002151 18 127 460 0 129 119 130 125 ?1 29 128 511 0 130 131 125 -.00175 -.
00125 .002151 18 130 459 0 132 127 123 128 ?1 29 131 512 0 123 133 128 -.00175 .
00125 .002151 18 123 456 0 134 130 120 131 ?1 29 133 713 0 124 135 131 -.002065
 -.001265 .0001500000000000345 18 124 637 0 136 120 137 133 ?1 29 135 714 0 137
 138 133 -.002065 .001265 .0001500000000000345 18 137 638 0 139 124 140 135 ?1 2
9 138 716 0 140 141 135 -.00105 -.001265 .0001500000000000345 18 140 647 0 142 1
37 143 138 ?1 29 141 1063 0 143 144 138 -.0012 75e-5 -500000000000339e-19 18 143
 941 0 145 140 146 141 ?1 29 144 1065 0 146 147 141 -.0012 -75e-5 .0001499999999
998982 18 146 928 0 148 143 149 144 ?1 29 147 1066 0 149 150 144 -.0012 -75e-5 -
500000000000339e-19 18 149 931 0 151 146 152 147 ?1 29 150 1067 0 152 153 147 -.
00225 75e-5 -50000000000034e-18 18 152 942 0 154 149 155 150 ?1 29 153 1068 0 15
5 156 150 -.00225 75e-5 .000149999999999898 18 155 930 0 157 152 158 153 ?1 29 1
56 1069 0 158 159 153 -.00225 -75e-5 .000149999999999898 18 158 948 0 160 155 16
1 156 ?1 29 159 1070 0 161 162 156 -.00225 -75e-5 -50000000000034e-18 18 161 932
 0 163 158 164 159 ?1 29 162 1071 0 164 165 159 -.0025 75e-5 .000199999999999968
 18 164 943 0 166 161 167 162 ?1 29 165 1072 0 167 168 162 -.00230000000000007 7
5e-5 .000199999999999971 18 167 933 0 169 164 170 165 ?1 29 168 1073 0 170 171 1
65 -.00230000000000007 -75e-5 .000199999999999971 18 170 949 0 172 167 173 168 ?
1 29 171 1074 0 173 174 168 -.0025 -75e-5 .000199999999999968 18 173 934 0 175 1
70 176 171 ?1 29 174 1075 0 176 177 171 -.0025 75e-5 .000949999999999964 18 176
 944 0 178 173 179 174 ?1 29 177 1076 0 179 180 174 -.00230000000000007 75e-5 .0
00949999999999967 18 179 935 0 181 176 182 177 ?1 29 180 1077 0 182 183 177 -.00
230000000000007 -75e-5 .000949999999999967 18 182 950 0 184 179 185 180 ?1 29 18
3 1078 0 185 186 180 -.0025 -75e-5 .000949999999999964 18 185 936 0 187 182 188
 183 ?1 29 186 1080 0 189 190 183 -.00215 -75e-5 .001000000000000034 18 189 946
 0 191 192 193 186 ?1 29 190 1083 0 188 194 186 -.00225 -75e-5 .0011999999999999
66 18 188 938 0 195 185 196 190 ?1 29 194 1084 0 196 197 190 -.00225 -75e-5 .001
000000000000034 18 196 951 0 198 188 199 194 ?1 29 197 1085 0 199 200 194 -.0022
5 75e-5 .001000000000000034 18 199 937 0 201 196 192 197 ?1 29 200 1086 0 192 20
2 197 -.00225 75e-5 .001199999999999966 18 192 945 0 203 199 189 200 ?1 29 202 1
302 0 193 204 200 .002065 -.001265 .0001500000000000345 18 193 1233 0 205 189 20
6 202 ?1 29 204 1303 0 206 207 202 .002065 .001265 .0001500000000000345 18 206 1
234 0 208 193 209 204 ?1 29 207 1304 0 209 210 204 .00105 .001265 .0001500000000
000345 18 209 1235 0 211 206 212 207 ?1 29 210 1305 0 212 213 207 .00105 -.00126
5 .0001500000000000345 18 212 1225 0 214 209 215 210 ?1 29 213 1629 0 215 216 21
0 .002065 -75e-5 .000149999999999898 18 215 1497 0 217 212 218 213 ?1 29 216 163
0 0 218 219 213 .002065 75e-5 .000149999999999898 18 218 1495 0 220 215 221 216
 ?1 29 219 1631 0 221 222 216 .0012 -75e-5 -500000000000339e-19 18 221 1509 0 22
3 218 224 219 ?1 29 222 1633 0 224 225 219 .0012 75e-5 .0001499999999998982 18 2
24 1496 0 226 221 227 222 ?1 29 225 1634 0 227 228 222 .0012 75e-5 -500000000000
339e-19 18 227 1499 0 229 224 230 225 ?1 29 228 1635 0 230 231 225 .00225 -75e-5
 -50000000000034e-18 18 230 1510 0 232 227 233 228 ?1 29 231 1636 0 233 234 228
 .00225 -75e-5 .000149999999999898 18 233 1498 0 235 230 236 231 ?1 29 234 1637
 0 236 237 231 .00225 75e-5 .000149999999999898 18 236 1516 0 238 233 239 234 ?1
 29 237 1638 0 239 240 234 .00225 75e-5 -50000000000034e-18 18 239 1500 0 241 23
6 242 237 ?1 29 240 1639 0 242 243 237 .0025 -75e-5 .000199999999999968 18 242 1
511 0 244 239 245 240 ?1 29 243 1640 0 245 246 240 .00230000000000007 -75e-5 .00
0199999999999971 18 245 1501 0 247 242 248 243 ?1 29 246 1641 0 248 249 243 .002
30000000000007 75e-5 .000199999999999971 18 248 1517 0 250 245 251 246 ?1 29 249
 1642 0 251 252 246 .0025 75e-5 .000199999999999968 18 251 1502 0 253 248 254 24
9 ?1 29 252 1643 0 254 255 249 .0025 -75e-5 .000949999999999964 18 254 1512 0 25
6 251 257 252 ?1 29 255 1644 0 257 258 252 .00230000000000007 -75e-5 .0009499999
99999967 18 257 1503 0 259 254 260 255 ?1 29 258 1645 0 260 261 255 .00230000000
000007 75e-5 .000949999999999967 18 260 1518 0 262 257 263 258 ?1 29 261 1646 0
 263 264 258 .0025 75e-5 .000949999999999964 18 263 1504 0 265 260 266 261 ?1 29
 264 1650 0 267 268 261 .00215 -75e-5 .001199999999999966 18 267 1514 0 269 270
 0 264 ?1 29 268 1651 0 266 271 264 .00225 75e-5 .001199999999999966 18 266 1506
 0 272 263 273 268 ?1 29 271 1652 0 273 274 268 .00225 75e-5 .001000000000000034
 18 273 1519 0 275 266 276 271 ?1 29 274 1653 0 276 277 271 .00225 -75e-5 .00100
0000000000034 18 276 1505 0 278 273 270 274 ?1 29 277 1654 0 270 0 274 .00225 -7
5e-5 .001199999999999966 18 270 1513 0 279 276 267 277 ?1 17 279 0 280 281 256 2
70 282 283 0 284 -15 255 280 1558 0 285 286 0 17 281 0 280 285 279 267 287 288 0
 289 +17 256 0 280 279 244 254 290 291 0 292 -17 282 0 293 294 284 254 279 283 0
 0 +16 283 1446 0 ?282 295 296 297 0 0 1 17 284 0 293 282 272 270 298 299 0 287
 -15 293 1547 0 284 300 0 17 272 0 293 284 294 266 301 302 0 303 -17 298 0 304 3
05 287 266 284 299 0 0 +16 299 1450 0 ?298 306 27 307 0 0 1 17 287 0 304 298 289
 270 281 288 0 0 -15 304 1551 0 289 308 0 17 289 0 304 287 305 267 36 309 0 0 -1
6 288 1462 0 ?281 310 311 312 0 0 1 16 310 1447 0 ?294 313 288 314 0 0 1 16 311
 1466 0 ?315 288 316 317 0 0 1 30 312 1619 0 288 317 314 0 +.00225 -75e-5 .00119
9999999999966 -1 0 0 30 317 1620 0 311 318 312 0 +.00225 -75e-5 .001000000000000
034 -1 0 0 30 314 1618 0 310 312 319 0 +.0025 75e-5 .000949999999999964 -2891205
79329468e-30 1 4026749353611025e-45 30 319 1617 0 313 314 320 0 +.00230000000000
007 75e-5 .000949999999999967 0 -1 0 16 313 1443 0 ?321 302 310 319 0 0 1 31 255
 320 1616 0 302 319 322 0 +.00225 75e-5 .000949999999999966 0 1 0 0 0 1 25e-5 16
 302 1467 0 ?301 323 313 320 0 0 1 31 322 1615 0 323 320 324 0 +.00225 75e-5 .00
0949999999999966 0 1 0 0 0 1 50000000000068e-18 16 323 1442 0 ?325 296 302 322 0
 0 1 31 324 1614 0 296 322 297 0 +.00225 -75e-5 .000949999999999966 0 1 0 0 0 1
 50000000000068e-18 16 296 1454 0 ?326 283 323 324 0 0 1 31 297 1613 0 283 324 3
27 0 +.00225 -75e-5 .000949999999999966 0 1 0 0 0 1 25e-5 30 327 1612 0 295 297
 328 0 +.0025 75e-5 .000199999999999968 -289120579329468e-30 1 4026749353611025e
-45 16 295 1439 0 ?329 330 283 327 0 0 1 30 328 1611 0 330 327 331 0 +.002300000
00000007 75e-5 .000199999999999971 0 -1 0 16 330 1435 0 ?332 333 295 328 0 0 1 3
0 331 1610 0 333 328 334 0 +.0025 75e-5 .000949999999999964 0 0 -1 16 333 1468 0
 ?335 336 330 331 0 0 1 30 334 1609 0 336 331 337 0 +.00230000000000007 75e-5 .0
00949999999999967 0 0 -1 16 336 1434 0 ?338 339 333 334 0 0 1 30 337 1608 0 339
 334 340 0 +.00230000000000007 -75e-5 .000949999999999967 0 0 -1 16 339 1455 0 ?
341 291 336 337 0 0 1 30 340 1607 0 291 337 342 0 +.0025 -75e-5 .000949999999999
964 0 0 -1 16 291 1438 0 ?290 343 339 340 0 0 1 30 342 1606 0 343 340 344 0 +.00
225 75e-5 -50000000000034e-18 811769637203495e-44 1 289120579329468e-30 16 343 1
431 0 ?345 346 291 342 0 0 1 30 344 1605 0 346 342 347 0 +.00225 75e-5 .00014999
9999999898 0 -1 0 16 346 1427 0 ?348 349 343 344 0 0 1 31 347 1604 0 349 344 350
 0 +.00225 75e-5 .0001999999999999665 0 1 0 0 0 1 25e-5 16 349 1469 0 ?351 352 3
46 347 0 0 1 31 350 1603 0 352 347 353 0 +.00225 75e-5 .0001999999999999665 0 1
 0 0 0 1 500000000000682e-19 16 352 1426 0 ?354 355 349 350 0 0 1 31 353 1602 0
 355 350 356 0 +.00225 -75e-5 .0001999999999999665 0 1 0 0 0 1 500000000000682e-
19 16 355 1456 0 ?357 358 352 353 0 0 1 31 356 1601 0 358 353 359 0 +.00225 -75e
-5 .0001999999999999665 0 1 0 0 0 1 25e-5 16 358 1430 0 ?360 361 355 356 0 0 1 3
0 359 1600 0 361 356 362 0 +.0012 75e-5 -500000000000339e-19 811769637203495e-44
 1 289120579329468e-30 16 361 1423 0 ?229 363 358 359 0 0 1 30 362 1599 0 363 35
9 364 0 +.0012 75e-5 -500000000000339e-19 2807720014556425e-29 1084202172485874e
-30 1 16 363 1471 0 ?226 365 361 362 0 0 1 30 364 1598 0 365 362 366 0 +.0012 75
e-5 .0001499999999998982 0 -1 0 16 365 1418 0 ?367 368 363 364 0 0 1 30 366 1597
 0 368 364 369 0 +.0012 -75e-5 -500000000000339e-19 -2807720014556425e-29 0 -1 1
6 368 1459 0 ?223 370 365 366 0 0 1 30 369 1596 0 370 366 371 0 +.00225 75e-5 -5
0000000000034e-18 -1 0 1032573497605244e-31 16 370 1470 0 ?372 373 368 369 0 0 1
 30 371 1595 0 373 369 374 0 +.00225 75e-5 .000149999999999898 -1 0 103257349760
5244e-31 16 373 1421 0 ?375 376 370 371 0 0 1 30 374 1594 0 376 371 377 0 +.0022
5 -75e-5 .000149999999999898 -1 0 1032573497605244e-31 16 376 1457 0 ?378 379 37
3 374 0 0 1 30 377 1593 0 379 374 380 0 +.00225 -75e-5 -50000000000034e-18 -1 0
 1032573497605244e-31 16 379 1422 0 ?381 382 376 377 0 0 1 30 380 1297 0 382 377
 383 0 +.00105 .00135 .0001500000000000345 0 1 -120466908053945e-30 16 382 1218
 0 ?211 384 379 380 0 0 1 30 383 1286 0 385 380 386 0 -.002065 -.00135 .00015000
00000000345 1204669080539406e-32 -1 120466908053945e-30 16 385 1208 0 ?387 388 3
89 383 384 389 1 30 386 1285 0 388 383 390 0 -.00215 -.001265 .00015000000000003
45 -1 0 0 16 388 1207 0 ?391 392 385 386 0 0 1 30 390 1060 0 393 386 394 0 +-.00
225 75e-5 .001199999999999966 0 1 -289120579329468e-30 16 393 874 0 ?395 396 397
 390 0 0 1 30 394 1059 0 396 390 398 0 +-.00225 75e-5 .001000000000000034 0 -1 0
 16 396 870 0 ?399 400 393 394 0 0 1 30 398 1058 0 392 394 401 0 +-.00215 75e-5
 .001199999999999966 0 1 -289120579329468e-30 16 392 878 0 ?402 403 388 398 0 0
 1 30 401 1057 0 403 398 404 0 +-.00215 75e-5 .001199999999999966 0 108420217248
5874e-30 -1 16 403 885 0 ?405 406 392 401 0 0 1 30 404 1056 0 406 401 407 0 +-.0
0215 75e-5 .001000000000000034 0 -1 0 16 406 897 0 ?408 397 403 404 0 0 1 30 407
 1055 0 397 404 409 0 +-.00215 -75e-5 .001199999999999966 0 0 1 16 397 904 0 ?41
0 393 406 407 0 0 1 30 409 1054 0 400 407 411 0 +-.00225 -75e-5 .001199999999999
966 1 0 0 16 400 884 0 ?412 413 396 409 0 0 1 30 411 1053 0 413 409 414 0 +-.002
25 -75e-5 .001000000000000034 1 0 0 16 413 914 0 ?415 416 400 411 0 0 1 30 414 1
052 0 416 411 417 0 +-.00225 75e-5 .001000000000000034 1 0 0 16 416 903 0 ?418 4
19 413 414 0 0 1 30 417 1051 0 419 414 420 0 +-.00225 75e-5 .001199999999999966
 1 0 0 16 419 896 0 ?421 422 416 417 0 0 1 30 420 1050 0 422 417 423 0 +-.0025 7
5e-5 .000949999999999964 289120579329468e-30 1 4026749353611025e-45 16 422 866 0
 ?424 425 419 420 0 0 1 30 423 1049 0 425 420 426 0 +-.00230000000000007 75e-5 .
000949999999999967 0 -1 0 16 425 862 0 ?427 428 422 423 0 0 1 31 426 1048 0 428
 423 429 0 +-.00225 -75e-5 .000949999999999966 0 -1 0 0 0 -1 25e-5 16 428 910 0
 ?430 431 425 426 0 0 1 31 429 1047 0 431 426 432 0 +-.00225 -75e-5 .00094999999
9999966 0 -1 0 0 0 -1 50000000000068e-18 16 431 873 0 ?433 434 428 429 0 0 1 31
 432 1046 0 434 429 435 0 +-.00225 75e-5 .000949999999999966 0 -1 0 0 0 -1 50000
000000068e-18 16 434 891 0 ?436 437 431 432 0 0 1 31 435 1045 0 437 432 438 0 +-
.00225 75e-5 .000949999999999966 0 -1 0 0 0 -1 25e-5 16 437 877 0 ?439 440 434 4
35 0 0 1 30 438 1044 0 440 435 441 0 +-.0025 75e-5 .000199999999999968 289120579
329468e-30 1 4026749353611025e-45 16 440 858 0 ?442 443 437 438 0 0 1 30 441 104
3 0 443 438 444 0 +-.00230000000000007 75e-5 .000199999999999971 0 -1 0 16 443 8
54 0 ?445 446 440 441 0 0 1 30 444 1042 0 446 441 447 0 +-.0025 -75e-5 .00094999
9999999964 0 0 -1 16 446 911 0 ?448 449 443 444 0 0 1 30 447 1041 0 449 444 450
 0 +-.00230000000000007 -75e-5 .000949999999999967 0 0 -1 16 449 865 0 ?451 452
 446 447 0 0 1 30 450 1040 0 452 447 453 0 +-.00230000000000007 75e-5 .000949999
999999967 0 0 -1 16 452 892 0 ?454 455 449 450 0 0 1 30 453 1039 0 455 450 456 0
 +-.0025 75e-5 .000949999999999964 0 0 -1 16 455 869 0 ?457 458 452 453 0 0 1 30
 456 1038 0 458 453 459 0 +-.00225 75e-5 -50000000000034e-18 -811769637203495e-4
4 1 289120579329468e-30 16 458 850 0 ?460 461 455 456 0 0 1 30 459 1037 0 461 45
6 462 0 +-.00225 75e-5 .000149999999999898 0 -1 0 16 461 847 0 ?463 464 458 459
 0 0 1 31 462 1036 0 464 459 465 0 +-.00225 -75e-5 .0001999999999999665 0 -1 0 0
 0 -1 25e-5 16 464 912 0 ?466 467 461 462 0 0 1 31 465 1035 0 467 462 468 0 +-.0
0225 -75e-5 .0001999999999999665 0 -1 0 0 0 -1 500000000000682e-19 16 467 857 0
 ?469 470 464 465 0 0 1 31 468 1034 0 470 465 471 0 +-.00225 75e-5 .000199999999
9999665 0 -1 0 0 0 -1 500000000000682e-19 16 470 893 0 ?472 473 467 468 0 0 1 31
 471 1033 0 473 468 474 0 +-.00225 75e-5 .0001999999999999665 0 -1 0 0 0 -1 25e-
5 16 473 861 0 ?475 476 470 471 0 0 1 30 474 1032 0 476 471 477 0 +-.0012 75e-5
 -500000000000339e-19 -811769637203495e-44 1 289120579329468e-30 16 476 915 0 ?4
78 479 473 474 0 0 1 30 477 1031 0 479 474 480 0 +-.0012 -75e-5 -500000000000339
e-19 2807720014556425e-29 0 -1 16 479 924 0 ?481 482 476 477 0 0 1 30 480 1030 0
 482 477 483 0 +-.0012 75e-5 .0001499999999998982 0 -1 0 16 482 921 0 ?484 485 4
79 480 0 0 1 30 483 1029 0 485 480 486 0 +-.0012 75e-5 -500000000000339e-19 -280
7720014556425e-29 1084202172485874e-30 1 16 485 918 0 ?487 488 482 483 0 0 1 30
 486 1028 0 488 483 489 0 +-.00225 -75e-5 -50000000000034e-18 1 0 10325734976052
44e-31 16 488 913 0 ?490 491 485 486 0 0 1 30 489 1027 0 491 486 492 0 +-.00225
 -75e-5 .000149999999999898 1 0 1032573497605244e-31 16 491 845 0 ?493 494 488 4
89 0 0 1 30 492 1026 0 494 489 495 0 +-.00225 75e-5 .000149999999999898 1 0 1032
573497605244e-31 16 494 894 0 ?496 497 491 492 0 0 1 30 495 1025 0 497 492 498 0
 +-.00225 75e-5 -50000000000034e-18 1 0 1032573497605244e-31 16 497 853 0 ?499 5
00 494 495 0 0 1 30 498 708 0 500 495 501 0 +-.00105 .00135 .0001500000000000345
 0 1 -120466908053945e-30 16 500 612 0 ?502 503 497 498 0 0 1 30 501 697 0 504 4
98 505 0 --.002065 -.00135 .0001500000000000345 -1204669080539406e-32 -1 1204669
08053945e-30 16 504 599 0 ?506 507 508 501 503 508 1 30 505 696 0 507 501 509 0
 -.00215 -.001265 .0001500000000000345 1 0 0 16 507 598 0 ?136 510 504 505 0 0 1
 30 509 504 0 511 505 512 0 +-.00115 .00125 .002151 -1 0 0 16 511 443 0 ?513 514
 515 509 0 0 1 30 512 503 0 514 509 516 0 +-.00175 .00125 .002151 0 -1 0 16 514
 446 0 ?132 517 511 512 0 0 1 30 516 502 0 517 512 518 0 +-.00175 -.00125 .00215
1 1 0 0 16 517 449 0 ?129 519 514 516 0 0 1 30 518 501 0 519 516 520 0 +-.00115
 .00125 .002151 0 1 0 16 519 452 0 ?126 521 517 518 0 0 1 30 520 499 0 1 518 522
 523 +-.00175 .00125 .00215 0 -1 0 30 522 497 0 1 520 524 525 +-.00115 .00125 .0
0215 0 1 0 141 255 523 526 523 523 520 133 255 526 514 0 527 528 529 0 +520 -.00
175 .00125 .00215 -.00175 -.00125 .00215 0 .0025 16 527 431 0 ?530 531 510 526 0
 0 1 133 528 414 0 532 533 526 0 +534 -.00115 -.00125 .00215 .00205 -.00125 .002
15 -.0033 -1e-4 133 529 515 0 535 526 536 0 +536 -.00175 -.00125 .002151 -.00175
 -.00125 .00215 0 1000000000000132e-21 16 535 438 0 ?537 538 539 529 0 0 1 30 53
6 516 0 1 529 540 541 +-.00175 -.00125 .002151 0 0 -1 133 540 517 0 531 536 542
 0 +542 -.00175 -.00125 .00215 -.00115 -.00125 .00215 0 6e-4 141 541 529 541 541
 536 16 531 435 0 ?543 515 527 540 0 0 1 30 542 518 0 1 540 544 545 +-.00175 -.0
0125 .00215 1 0 0 133 544 519 0 538 542 546 0 +546 -.00175 .00125 .002151 -.0017
5 .00125 .00215 0 1000000000000132e-21 141 545 540 545 545 542 16 538 434 0 ?547
 548 535 544 0 0 1 30 546 520 0 1 544 549 550 +-.00175 .00125 .002151 0 0 -1 133
 549 521 0 510 546 551 0 +551 -.00115 .00125 .00215 -.00175 .00125 .00215 0 6e-4
 141 550 544 550 550 546 16 510 427 0 ?552 527 507 549 0 0 1 30 551 522 0 1 549
 553 554 +-.00115 .00125 .00215 -1 0 0 133 553 523 0 515 551 555 0 +522 -.00115
 -.00125 .00215 -.00115 .00125 .00215 -.0025 0 141 554 549 554 554 551 16 515 43
9 0 ?556 511 531 553 0 0 1 133 555 524 0 521 553 557 0 +557 -.00115 .00125 .0021
51 -.00115 .00125 .00215 0 1000000000000132e-21 16 521 430 0 ?558 539 519 555 0
 0 1 30 557 525 0 1 555 559 560 +-.00115 .00125 .002151 0 0 -1 133 559 526 0 539
 557 561 0 +561 -.00115 -.00125 .002151 -.00115 -.00125 .00215 0 100000000000013
2e-21 141 560 555 560 560 557 16 539 442 0 ?562 535 521 559 0 0 1 30 561 527 0 1
 559 563 564 +-.00115 -.00125 .002151 0 0 -1 30 563 559 0 565 561 566 0 -.00215
 .001265 .0001500000000000345 -1 -1008560160451632e-31 1214981241159988e-47 141
 564 559 564 564 561 16 565 557 0 ?567 568 569 563 0 0 1 30 566 751 0 568 563 57
0 0 -.0001149253731343164 -.001148507462686572 -.001014925373134312 -.7053456158
586 -.0705345615858572 .705345615858598 16 568 749 0 ?571 572 565 566 0 0 1 30 5
70 759 0 572 566 573 0 +-9e-4 .00125 0 0 1 0 16 572 757 0 ?68 574 568 570 0 0 1
 30 573 764 0 574 570 575 0 -.0001149253731343164 .001148507462686572 -.00101492
5373134312 .7053456158586 -.0705345615858572 -.705345615858598 16 574 762 0 ?74
 576 572 573 0 0 1 30 575 814 0 576 573 577 0 +-.00105 -75e-5 .00015000000000003
45 -1 0 0 16 576 813 0 ?578 579 574 575 0 0 1 30 577 817 0 579 575 580 0 +-.0010
5 75e-5 .0001500000000000345 1 0 0 16 579 815 0 ?581 582 576 577 0 0 1 30 580 11
48 0 582 577 583 0 -.00215 .001265 .0001500000000000345 1 1008560160451632e-31 -
1214981241159988e-47 16 582 1146 0 ?584 585 579 580 0 0 1 30 583 1331 0 585 580
 586 0 +9e-4 -.00125 0 0 -1 0 16 585 1329 0 ?587 588 582 583 0 0 1 30 586 1336 0
 588 583 589 0 -.002024378109452755 -.00136243781094527 .00112437810945275 -.705
3456158586 .0705345615858571 -.705345615858596 16 588 1334 0 ?214 590 585 586 0
 0 1 30 589 1341 0 590 586 16 0 -.002024378109452755 .001362437810945272 .001124
37810945275 .7053456158586 .0705345615858572 .705345615858596 16 590 1339 0 ?44
 20 588 589 0 0 1 30 16 1385 0 20 589 6 0 +.00105 75e-5 .0001500000000000345 1 0
 0 16 20 1384 0 ?220 9 590 16 0 0 1 17 220 0 591 238 226 218 592 20 0 375 +15 59
1 1569 0 26 593 0 17 238 0 591 250 220 236 375 373 0 594 -17 226 0 591 220 372 2
24 595 363 0 596 +17 592 0 597 367 598 224 220 20 0 0 -17 375 0 599 217 594 218
 238 373 0 598 +15 599 1526 0 217 600 0 17 217 0 599 235 375 215 601 389 0 378 -
17 594 0 599 375 235 236 348 346 0 354 -17 598 0 597 592 602 218 208 384 0 601 -
15 597 1387 0 603 604 0 17 602 0 597 598 211 206 584 582 0 605 -17 208 0 31 606
 601 206 598 384 0 602 +16 384 1375 0 ?208 389 382 383 389 385 1 17 601 0 31 208
 387 218 217 389 0 0 +15 31 334 0 607 608 0 17 387 0 31 601 607 215 205 385 0 0
 +16 389 1372 0 ?601 385 384 383 385 384 1 17 607 0 31 387 32 193 609 610 0 0 +1
7 205 0 597 611 603 193 387 385 0 391 -17 611 0 597 211 205 212 391 388 0 612 -1
7 603 0 597 205 367 215 19 9 0 387 -17 391 0 613 609 214 193 611 388 0 607 +15 6
13 576 0 614 615 0 17 609 0 613 616 391 87 607 610 0 32 -17 214 0 613 391 614 21
2 47 588 0 611 +17 614 0 613 214 571 45 71 617 0 0 -17 47 0 618 619 612 45 214 5
88 0 587 -15 618 1351 0 620 14 0 17 619 0 618 620 47 42 587 585 0 0 -17 612 0 61
8 47 620 212 211 382 0 0 -17 587 0 621 71 622 45 619 585 0 614 +15 621 1169 0 62
2 623 0 17 71 0 621 68 587 69 614 617 0 571 +17 622 0 621 587 68 42 624 625 0 61
9 +17 68 0 621 622 71 66 626 572 0 624 +17 624 0 627 74 44 66 622 625 0 628 -16
 625 755 0 ?622 629 617 630 0 0 1 16 629 1402 0 ?24 631 625 632 631 631 1 16 617
 1324 0 ?71 625 633 634 0 0 1 30 630 296 0 625 634 632 0 +-126070020056454e-33 .
00125 0 1 1008560160451632e-31 0 30 634 289 0 617 635 630 0 +0 -.00125 0 -1 0 0
 30 632 304 0 631 630 636 0 +.00215 -.00135 .001000000000000034 0 1 0 16 631 302
 0 ?35 637 629 632 629 629 1 30 636 312 0 637 632 638 0 +.00215 -.00135 .0010000
00000000034 1 0 0 16 637 310 0 ?89 639 631 636 0 0 1 30 638 317 0 569 636 640 0
 +-.00215 -.00135 .001000000000000034 0 -1 0 16 569 315 0 ?641 565 639 638 639 6
39 1 30 640 368 0 548 638 642 0 --.00212352941176471 .001323529411764708 .000735
294117647102 .099014754297664 -.099014754297664 -.990147542976675 16 548 551 0 ?
94 643 538 640 0 0 1 30 642 367 0 643 640 644 0 -.002123529411764705 .0013235294
1176471 .000735294117647102 .099014754297664 .099014754297664 .990147542976675 1
6 643 350 0 ?605 645 548 642 0 0 1 30 644 366 0 645 642 646 0 +-.00215 -.00135 .
001000000000000034 -.099014754297664 -.099014754297664 .990147542976675 16 645 5
63 0 ?647 610 643 644 0 0 1 30 646 365 0 610 644 648 0 -.00215 -.00135 .00100000
0000000034 .099014754297664 -.099014754297664 .990147542976675 16 610 344 0 ?607
 649 645 646 0 0 1 133 648 402 0 650 646 651 0 +652 .00205 .00125 .00215 -.00115
 .00125 .00215 -.0042 -.001 16 650 151 0 ?653 654 655 648 0 0 1 133 651 405 0 65
5 648 533 0 +652 -.00175 .00125 .00215 -.00205 .00125 .00215 -4e-4 -1e-4 30 652
 153 0 1 656 657 658 +-.00215 .00125 .00215 -1 -1008560160451632e-31 0 30 656 15
0 0 659 534 652 0 +.00205 .00135 .00215 0 1 0 30 657 164 0 654 652 660 0 +.00215
 .00135 .001199999999999966 1 1008560160451632e-31 0 141 658 651 661 661 652 141
 661 648 658 658 652 16 654 162 0 ?662 663 650 657 0 0 1 30 660 172 0 664 657 66
5 0 +.00215 -.00135 .001199999999999966 0 -1 0 16 664 170 0 ?25 666 663 660 663
 663 1 30 665 180 0 666 660 667 0 +-.00215 -.00135 .001199999999999966 -1 0 0 16
 666 178 0 ?97 668 664 665 0 0 1 30 667 185 0 669 665 670 0 +-.00215 .00135 .001
199999999999966 0 1 0 16 669 183 0 ?671 633 668 667 668 668 1 30 670 234 0 649 6
67 672 0 --.002036449864498645 .001236449864498646 .00227872628726287 -.10411584
1259067 .104115841259067 -.989100491961173 16 649 218 0 ?673 674 610 670 0 0 1 3
0 672 233 0 674 670 675 0 -.002036449864498645 .001236449864498646 .002278726287
26287 -.104115841259067 -.104115841259067 .989100491961173 16 674 216 0 ?103 676
 649 672 0 0 1 30 675 232 0 676 672 677 0 +-.002036449864498645 -.00123644986449
8646 .00227872628726287 .104115841259067 .104115841259067 .989100491961173 16 67
6 213 0 ?678 679 674 675 0 0 1 30 677 231 0 679 675 635 0 -.00202777777777778 -.
00122777777777778 .002361111111111105 -.104115841259067 .104115841259067 .989100
491961173 16 679 210 0 ?680 681 676 677 0 0 1 30 635 276 0 633 677 634 0 +.00215
 .00135 .001000000000000034 -1 -1008560160451632e-31 0 16 633 274 0 ?682 617 669
 635 0 0 1 17 682 0 683 684 685 92 686 633 0 687 +15 683 78 0 685 688 0 17 684 0
 683 662 682 104 687 681 0 689 -17 685 0 683 682 662 90 690 691 0 606 +17 686 0
 627 605 94 90 682 633 0 0 -17 687 0 692 641 106 92 684 681 0 0 +15 692 838 0 50
 693 0 17 641 0 692 50 687 54 694 569 0 405 +17 106 0 692 687 50 104 695 668 0 6
84 +16 681 157 0 ?687 691 679 524 0 0 1 16 691 160 0 ?685 696 681 697 0 0 1 30 5
24 86 0 681 522 697 0 +-.00215 .00135 .00215 0 0 -1 30 697 87 0 691 524 698 0 +.
00215 .00135 .00215 0 0 -1 30 698 88 0 696 697 699 0 +.00215 -.00135 .00215 0 0
 -1 16 696 168 0 ?700 701 691 698 0 0 1 30 699 89 0 701 698 702 0 +-.00215 -.001
35 .00215 0 0 -1 16 701 176 0 ?703 704 696 699 0 0 1 30 702 142 0 704 699 534 0
 +-.00205 -.00135 .00215 0 -1 0 16 704 140 0 ?115 532 701 702 0 0 1 30 534 146 0
 1 702 656 705 +.00215 -.00125 .00215 1 0 0 141 705 528 706 706 534 141 706 533
 705 705 534 133 533 411 0 707 651 528 0 +534 -.00205 -.00125 .00215 -.00175 -.0
0125 .00215 -.0042 -.0039 16 707 144 0 ?122 659 532 533 0 0 1 17 122 0 708 80 11
5 120 709 707 0 710 +16 659 148 0 ?109 655 707 656 0 0 1 16 532 413 0 ?112 707 7
04 528 0 0 1 17 112 0 711 109 77 110 712 532 0 713 +15 711 422 0 77 714 0 17 109
 0 711 653 112 107 715 659 0 716 +17 77 0 711 112 653 75 556 515 0 712 -17 712 0
 717 710 713 75 112 532 0 543 -17 713 0 717 712 718 110 680 679 0 715 -15 717 19
8 0 719 720 0 17 718 0 717 713 719 98 97 666 0 680 -17 680 0 721 269 715 98 713
 679 0 0 +17 715 0 721 680 716 110 109 659 0 0 -15 721 200 0 680 722 0 17 716 0
 721 715 723 107 103 674 0 724 -17 723 0 721 716 36 101 25 664 0 662 -17 103 0 7
25 689 724 101 716 674 0 723 +17 724 0 725 103 83 107 653 650 0 0 -15 725 204 0
 103 726 0 17 83 0 725 724 727 81 552 510 0 653 -17 653 0 711 77 109 81 724 650
 0 556 +17 556 0 728 729 562 81 77 515 0 558 +15 728 478 0 556 730 0 17 729 0 72
8 731 556 119 558 521 0 732 -17 562 0 728 556 731 75 733 539 0 0 +17 558 0 734 5
52 732 81 729 521 0 0 +15 734 466 0 552 735 0 17 552 0 734 736 558 78 83 510 0 0
 +17 732 0 734 558 736 119 513 511 0 0 -17 736 0 734 732 552 123 547 538 0 0 -17
 513 0 737 132 126 123 732 511 0 736 +15 737 481 0 513 738 0 17 132 0 737 129 51
3 130 134 514 0 739 +17 126 0 737 513 129 119 731 519 0 729 +17 129 0 737 126 13
2 127 740 517 0 733 +17 731 0 728 562 729 127 126 519 0 0 -17 740 0 741 537 733
 130 129 517 0 0 -17 733 0 741 740 543 127 562 539 0 731 -15 741 474 0 543 742 0
 17 543 0 741 733 537 75 710 531 0 562 +17 537 0 741 543 740 120 739 535 0 0 +17
 710 0 717 709 712 120 543 531 0 530 -17 709 0 717 719 710 113 122 707 0 678 -17
 530 0 743 739 547 120 80 527 0 537 +15 743 470 0 530 744 0 17 739 0 743 134 530
 130 537 535 0 740 -17 547 0 743 530 134 78 736 538 0 552 +17 80 0 708 118 122 7
8 530 527 0 727 -15 708 417 0 80 745 0 17 118 0 708 115 80 116 727 655 0 673 +17
 727 0 725 83 673 78 118 655 0 547 -17 673 0 725 727 689 116 746 649 0 747 +16 6
55 404 0 ?118 650 659 651 0 0 1 17 689 0 725 673 103 104 662 654 0 746 -17 746 0
 748 695 747 104 673 649 0 0 -17 747 0 748 746 678 116 115 704 0 0 -15 748 202 0
 678 749 0 17 678 0 748 747 750 113 719 676 0 0 +17 115 0 708 122 118 113 747 70
4 0 709 +17 750 0 748 678 53 95 671 669 0 0 -17 719 0 717 718 709 95 678 676 0 7
50 -17 53 0 748 750 695 51 402 392 0 671 -17 671 0 751 752 753 51 750 669 0 410
 +15 751 833 0 752 754 0 17 752 0 751 86 671 189 410 397 0 408 -17 753 0 751 671
 86 95 703 701 0 719 -17 410 0 755 756 415 51 752 397 0 412 +15 755 1001 0 410 7
57 0 17 756 0 755 430 410 188 412 400 0 758 -17 415 0 755 410 198 189 759 413 0
 0 +17 412 0 760 402 758 51 756 400 0 0 +15 760 983 0 402 761 0 17 402 0 760 762
 412 48 53 392 0 0 +17 758 0 760 412 762 188 395 393 0 0 -17 762 0 760 758 402 1
92 421 419 0 0 -17 395 0 763 439 195 192 758 393 0 762 +15 763 979 0 395 764 0 1
7 439 0 763 765 395 176 203 437 0 0 +17 195 0 763 395 765 188 430 428 0 756 -17
 765 0 763 195 439 185 424 422 0 430 -17 430 0 755 448 756 185 195 428 0 0 +17 4
48 0 755 466 430 173 187 446 0 0 +17 466 0 755 490 448 161 175 464 0 0 +17 187 0
 766 424 767 185 448 446 0 765 -15 766 973 0 424 768 0 17 424 0 766 457 187 176
 765 422 0 439 +17 767 0 766 187 457 173 442 440 0 448 -17 457 0 766 767 424 164
 178 455 0 0 +17 442 0 769 475 175 164 767 440 0 457 +15 769 967 0 442 770 0 17
 475 0 769 771 442 152 166 473 0 0 +17 175 0 769 442 771 173 466 464 0 767 -17 7
71 0 769 175 475 161 460 458 0 466 -17 460 0 772 499 163 152 771 458 0 475 +15 7
72 961 0 460 773 0 17 499 0 772 151 460 143 154 497 0 0 +17 163 0 772 460 151 16
1 490 488 0 771 -17 151 0 772 163 499 149 478 476 0 481 -17 490 0 755 774 466 14
9 163 488 0 0 +17 774 0 755 578 490 146 481 479 0 484 -17 578 0 755 160 774 63 1
48 576 0 493 +17 481 0 775 478 484 149 774 479 0 490 +17 484 0 775 481 487 146 5
9 482 0 0 +15 775 1004 0 478 776 0 17 487 0 775 484 478 57 145 485 0 0 +17 59 0
 777 62 148 57 484 482 0 581 -15 777 816 0 62 778 0 17 62 0 777 139 59 60 581 57
9 0 779 -17 148 0 777 59 506 146 578 576 0 774 -17 581 0 780 145 496 57 62 579 0
 487 +15 780 990 0 405 781 0 17 145 0 780 154 581 143 487 485 0 478 -17 496 0 78
0 581 472 60 157 494 0 0 +17 472 0 780 496 454 155 169 470 0 0 +17 157 0 782 463
 783 155 496 494 0 784 -15 782 958 0 493 785 0 17 463 0 782 493 157 158 784 461
 0 469 +17 783 0 782 157 493 60 65 508 0 496 +17 784 0 786 169 469 155 463 461 0
 472 -15 786 964 0 445 787 0 17 169 0 786 445 784 167 472 470 0 788 -17 469 0 78
6 784 445 158 172 467 0 0 +17 445 0 786 469 169 170 788 443 0 451 +17 172 0 755
 184 160 170 469 467 0 445 -17 184 0 755 198 172 182 451 449 0 427 -17 160 0 755
 172 578 158 493 491 0 463 -17 493 0 782 783 463 63 160 491 0 0 +17 198 0 755 41
5 184 196 433 431 0 399 -17 451 0 789 788 427 170 184 449 0 0 +17 427 0 789 451
 181 182 790 425 0 433 +15 789 970 0 427 791 0 17 181 0 789 427 788 179 454 452
 0 790 -17 790 0 792 201 433 179 427 425 0 436 -17 433 0 792 790 399 182 198 431
 0 0 +15 792 976 0 399 793 0 17 399 0 792 433 201 196 794 396 0 759 +17 201 0 79
2 399 790 199 436 434 0 795 -17 794 0 796 418 759 199 399 396 0 0 -17 759 0 796
 794 408 196 415 413 0 0 -15 796 994 0 408 797 0 17 408 0 796 759 418 189 56 406
 0 415 +17 418 0 796 408 794 54 795 416 0 0 +17 56 0 798 694 191 54 408 406 0 64
1 -15 798 566 0 799 800 0 17 694 0 798 801 56 92 641 569 0 682 -17 191 0 798 56
 647 189 86 639 0 752 -17 647 0 798 191 799 84 802 645 0 703 +17 86 0 751 753 75
2 84 191 639 0 647 +16 639 824 0 ?86 569 637 638 569 569 1 17 799 0 798 647 65 1
24 506 504 0 802 -17 802 0 613 803 616 124 647 645 0 0 -17 703 0 804 89 97 84 75
3 701 0 616 +15 804 82 0 703 805 0 17 89 0 804 806 703 87 616 637 0 700 +17 97 0
 804 703 806 95 718 666 0 753 +17 616 0 613 802 609 84 89 637 0 0 -17 806 0 804
 97 89 98 700 696 0 718 -17 700 0 807 35 100 87 806 696 0 609 +15 807 1405 0 35
 12 0 17 35 0 807 808 700 22 32 631 0 315 +17 100 0 807 700 808 98 269 663 0 806
 +17 808 0 807 100 35 267 285 809 0 281 +17 269 0 721 36 680 267 100 663 0 808 -
16 663 1396 0 ?100 664 654 660 664 664 1 17 36 0 721 723 269 30 289 309 0 25 +16
 309 1475 0 ?36 809 0 810 0 0 1 17 25 0 23 21 690 30 723 664 0 305 +15 23 80 0 2
5 811 0 17 690 0 23 25 24 101 685 691 0 0 -17 305 0 304 289 298 30 303 812 0 26
 +17 303 0 591 301 26 266 305 812 0 298 -16 812 1453 0 ?305 316 306 813 0 0 1 17
 26 0 591 303 814 30 21 27 0 0 -17 814 0 591 26 275 10 815 316 0 33 +16 27 1480
 0 ?21 299 34 816 0 0 1 16 34 1485 0 ?29 27 809 817 0 0 1 30 816 1623 0 27 817 8
13 0 +.00215 75e-5 .001199999999999966 0 1084202172485874e-30 -1 30 817 1624 0 3
4 818 816 0 +.00215 75e-5 .001000000000000034 0 -1 0 30 813 1622 0 812 816 318 0
 +.00225 75e-5 .001199999999999966 -1 0 0 30 318 1621 0 316 813 317 0 +.00225 75
e-5 .001000000000000034 -1 0 0 16 316 1474 0 ?814 311 812 318 0 0 1 30 818 1625
 0 809 810 817 0 +.00215 -75e-5 .001199999999999966 0 0 1 16 809 1490 0 ?808 34
 309 818 0 0 1 30 810 1626 0 309 819 818 0 +.00215 75e-5 .001199999999999966 0 1
 -289120579329468e-30 30 819 1627 0 306 307 810 0 +.00225 75e-5 .001000000000000
034 0 -1 0 16 306 1463 0 ?820 812 299 819 0 0 1 30 307 1628 0 299 0 819 0 +.0022
5 75e-5 .001199999999999966 0 1 -289120579329468e-30 17 820 0 821 315 815 276 82
2 306 0 0 +15 821 1562 0 33 823 0 17 315 0 821 33 820 22 824 311 0 285 +17 815 0
 821 820 33 273 814 316 0 0 -17 822 0 825 325 278 273 820 306 0 815 -15 825 1544
 0 822 826 0 17 325 0 825 321 822 260 275 323 0 0 +17 278 0 825 822 321 276 326
 296 0 824 -17 321 0 825 278 325 257 827 313 0 326 +17 326 0 280 341 824 257 278
 296 0 0 +17 824 0 280 326 285 276 315 311 0 820 -17 285 0 280 824 281 22 808 80
9 0 0 -17 341 0 280 357 326 245 259 339 0 0 +17 357 0 280 378 341 233 247 355 0
 0 +17 259 0 828 827 332 257 341 339 0 321 -15 828 1538 0 827 829 0 17 827 0 828
 338 259 260 321 313 0 325 -17 332 0 828 259 338 245 830 330 0 341 +17 338 0 828
 332 827 248 262 336 0 0 +17 830 0 831 354 247 248 332 330 0 338 -15 831 1532 0
 830 832 0 17 354 0 831 348 830 236 250 352 0 0 +17 247 0 831 830 348 245 357 35
5 0 332 -17 348 0 831 247 354 233 594 346 0 357 +17 250 0 591 262 238 248 354 35
2 0 830 -17 262 0 591 275 250 260 338 336 0 827 -17 275 0 591 814 262 273 325 32
3 0 822 -14 255 832 1530 833 ?834 835 831 4 836 -0 0 834 835 18 81 255 1 833 202
7 837 832 838 0 0 839 840 14 834 1533 839 ?829 832 841 4 842 -0 0 829 832 18 14
 835 1527 843 ?832 600 844 4 845 -0 0 832 600 18 51 255 836 1580 0 832 842 845 0
 +.00225 0 .0001999999999999665 0 1 0 500000000000682e-19 0 0 1 13 18 29 0 0 0 0
 0 0 8 12 14 12 1407 846 ?623 0 807 4 847 -811 811 623 0 18 81 1 846 2030 837 12
 848 0 843 849 850 14 623 1171 849 ?615 12 621 4 851 -0 0 615 12 18 50 847 91 0
 811 852 853 0 +.00215 -.00135 .00215 -1 0 0 0 0 1 14 811 81 854 ?688 805 23 4 8
47 -12 12 688 805 18 81 1 854 2032 837 811 855 0 849 856 857 14 688 79 856 ?745
 811 683 4 852 -0 0 745 811 18 14 805 83 858 ?811 714 804 4 853 -0 0 811 714 18
 81 1 858 2034 837 805 859 0 856 860 861 14 714 419 860 ?805 778 711 4 862 +745
 745 805 778 18 50 853 92 0 805 847 863 0 +.00215 -.00135 .00215 0 1 0 0 0 1 50
 863 93 0 693 853 864 0 +-.00215 -.00135 .00215 1 0 0 0 0 -1 14 693 840 865 ?754
 866 692 4 863 -754 754 754 866 18 50 864 230 0 726 863 867 0 +-126070020056454e
-33 .00125 .00215 -1003018579168436e-31 .994505452921407 .104684784518039 1 1008
560160451632e-31 0 14 726 203 868 ?800 749 725 4 864 +0 0 800 749 18 50 867 229
 0 749 864 869 0 +-.00205 0 .00215 -.994505452921407 0 .104684784518039 0 1 0 14
 749 201 870 ?726 722 748 4 867 +0 0 726 722 18 50 869 228 0 722 867 871 0 +.002
05 0 .00215 .994505452921407 0 .104684784518039 0 -1 0 14 722 199 872 ?749 720 7
21 4 869 +0 0 749 720 18 50 871 227 0 720 869 873 0 +0 -.00125 .00215 0 -.994505
452921407 .104684784518039 -1 0 0 14 720 197 874 ?722 745 717 4 871 +0 0 722 745
 18 50 873 364 0 866 871 875 0 -.00215 .00135 .001000000000000034 10035548682135
28e-31 -.995037190209989 .0995037190209954 -1 -1008560160451632e-31 0 14 866 114
9 876 ?693 608 627 4 873 +0 0 693 608 18 50 875 363 0 800 873 877 0 --.00215 -.0
0135 .001000000000000034 .995037190209989 0 .0995037190209954 0 -1 0 14 800 335
 878 ?735 726 798 4 875 +0 0 735 726 18 50 877 362 0 608 875 879 0 -.00215 -.001
35 .001000000000000034 -.995037190209989 0 .0995037190209954 0 1 0 14 608 1156 8
80 ?866 615 31 4 877 +0 0 866 615 18 50 879 361 0 615 877 15 0 -.00215 -.00135 .
001000000000000034 0 .995037190209989 .0995037190209954 1 0 0 14 615 1166 881 ?6
08 623 613 4 879 +0 0 608 623 18 50 15 785 0 882 879 5 0 +-.00105 0 15e-5 -.7071
06781186547 0 -.707106781186549 0 1 0 14 882 773 883 ?785 738 884 4 15 +0 0 785
 738 18 81 1 883 2045 837 882 885 0 881 886 887 14 785 956 886 ?773 882 782 4 88
8 +0 0 773 882 18 14 738 479 889 ?882 730 737 4 890 +0 0 882 730 18 15 884 774 0
 628 882 0 17 628 0 884 626 502 66 74 574 0 0 -17 626 0 884 142 628 69 68 572 0
 0 -17 502 0 884 628 142 72 891 500 0 0 +17 74 0 627 892 624 72 628 574 0 567 +1
5 627 558 0 584 866 0 17 892 0 627 94 74 137 567 565 0 801 -17 567 0 777 891 139
 72 892 565 0 502 +17 891 0 777 136 567 140 502 500 0 803 -17 139 0 777 567 62 1
37 779 503 0 892 +17 779 0 798 65 801 60 139 503 0 783 -16 503 804 0 ?139 508 50
0 501 508 504 1 16 508 801 0 ?783 504 503 501 504 503 1 17 65 0 798 799 779 63 7
83 508 0 506 -17 801 0 798 779 694 137 94 548 0 0 -17 94 0 627 686 892 92 801 54
8 0 694 +17 506 0 777 148 136 63 799 504 0 578 +17 136 0 777 506 891 124 803 507
 0 799 +17 803 0 613 571 802 140 136 507 0 0 -17 571 0 613 614 803 69 142 568 0
 626 +17 142 0 884 502 626 140 571 568 0 891 -17 584 0 627 44 605 209 602 582 0
 620 +17 44 0 627 624 584 42 620 590 0 622 +17 605 0 627 584 686 206 606 643 0 0
 +17 620 0 618 612 619 209 44 590 0 0 -17 606 0 31 28 208 90 605 643 0 686 -17 2
8 0 31 29 606 10 24 629 0 814 -17 24 0 23 690 21 90 28 629 0 685 +81 1 889 2047
 837 738 893 0 886 894 895 14 730 475 894 ?738 742 728 4 896 -0 0 738 742 18 50
 890 492 0 738 897 896 0 +0 0 .002151 0 0 1 1 0 0 50 897 689 0 778 888 890 0 +-.
00105 .00135 .0001500000000000345 0 120466908053945e-30 1 0 -1 120466908053945e-
30 50 896 490 0 730 890 898 0 +-.00115 .00125 .002151 -1 0 0 0 0 1 50 898 489 0
 742 896 899 0 +-.00175 -.00125 .002151 0 1 0 0 0 1 14 742 471 900 ?730 744 741
 4 898 -0 0 730 744 18 50 899 488 0 744 898 901 0 +-.00175 .00125 .002151 1 0 0
 0 0 -1 14 744 467 902 ?742 735 743 4 899 -0 0 742 735 18 50 901 487 0 735 899 8
62 0 +-.00115 .00125 .002151 0 -1 0 0 0 -1 14 735 463 903 ?744 800 734 4 901 -0
 0 744 800 18 50 862 2 0 745 901 851 0 +0 0 .00215 0 0 1 1 0 0 14 745 1 904 ?720
 688 708 4 862 +714 714 720 688 18 50 851 65 0 623 862 852 0 +0 0 0 0 0 1 1 0 0
 50 852 90 0 688 851 847 0 +.00215 .00135 .00215 1008560160451632e-31 -1 0 1 100
8560160451632e-31 0 81 1 904 2052 837 745 905 0 903 906 907 80 255 1 837 908 909
 9000 1 1 1 1 1 1 1 1 0 FFFFTFTFFFFFFF1 81 1 905 1865 910 745 0 904 911 912 913
 81 1 903 2051 837 735 914 0 902 904 915 81 1 906 2053 837 754 916 0 904 917 918
 82 255 1 907 1297285235 14 754 835 906 ?778 693 751 4 863 -693 693 778 693 18 8
1 1 916 1859 910 754 0 906 919 920 921 81 1 917 2054 837 778 920 0 906 922 923 8
2 1 918 1662517417 14 778 818 917 ?714 754 777 4 897 -0 0 714 754 18 81 1 920 18
60 910 778 0 917 916 924 925 81 1 922 2055 837 776 926 0 917 927 928 82 1 923 16
59633833 14 776 1002 922 ?604 757 775 4 929 -0 0 604 757 18 81 1 926 1889 910 77
6 0 922 930 931 932 81 1 927 2056 837 757 930 0 922 933 934 82 1 928 1592983721
 14 757 995 927 ?776 797 755 4 935 -0 0 776 797 18 81 1 930 1888 910 757 0 927 9
36 926 937 81 1 933 2057 837 797 936 0 927 938 939 82 1 934 1599537321 14 797 99
1 933 ?757 781 796 4 940 -0 0 757 781 18 81 1 936 1887 910 797 0 933 941 930 942
 81 1 938 2058 837 781 941 0 933 943 944 82 1 939 1599799465 14 781 984 938 ?797
 761 780 4 945 -0 0 797 761 18 81 1 941 1886 910 781 0 938 946 936 947 81 1 943
 2059 837 761 946 0 938 948 949 82 1 944 1600061609 14 761 980 943 ?781 764 760
 4 950 -0 0 781 764 18 81 1 946 1885 910 761 0 943 951 941 952 81 1 948 2060 837
 764 951 0 943 953 954 82 1 949 1600323753 14 764 977 948 ?761 793 763 4 955 +0
 0 761 793 18 81 1 951 1884 910 764 0 948 956 946 957 81 1 953 2061 837 793 956
 0 948 958 959 82 1 954 1602486441 14 793 974 953 ?764 768 792 4 960 +0 0 764 76
8 18 81 1 956 1883 910 793 0 953 961 951 962 81 1 958 2062 837 768 961 0 953 963
 964 82 1 959 1603403945 14 768 971 958 ?793 791 766 4 965 +0 0 793 791 18 81 1
 961 1882 910 768 0 958 966 956 967 81 1 963 2063 837 791 966 0 958 968 969 82 1
 964 1607729321 14 791 968 963 ?768 770 789 4 970 +0 0 768 770 18 81 1 966 1881
 910 791 0 963 971 961 972 81 1 968 2064 837 770 971 0 963 973 974 82 1 969 1608
646825 14 770 965 968 ?791 787 769 4 975 +0 0 791 787 18 81 1 971 1880 910 770 0
 968 976 966 977 81 1 973 2065 837 787 976 0 968 978 979 82 1 974 1612513449 14
 787 962 973 ?770 773 786 4 980 +0 0 770 773 18 81 1 976 1879 910 787 0 973 981
 971 982 81 1 978 2066 837 773 981 0 973 983 984 82 1 979 1613430953 14 773 959
 978 ?787 785 772 4 985 +0 0 787 785 18 81 1 981 1878 910 773 0 978 986 976 987
 81 1 983 2067 837 604 931 0 978 988 989 82 1 984 1617756329 14 604 1260 983 ?14
 776 597 4 990 +0 0 14 776 18 81 1 931 1890 910 604 0 983 926 991 992 81 1 988 2
068 837 600 993 0 983 994 995 82 1 989 2132082861 14 600 1524 988 ?835 14 599 4
 996 -0 0 835 14 18 81 1 993 1892 910 600 0 988 991 997 998 81 1 994 2069 837 14
 991 0 988 999 1000 82 1 995 -2041577299 14 14 1350 994 ?600 604 618 4 5 +0 0 60
0 604 18 81 1 991 1891 910 14 0 994 931 993 1001 81 1 999 2070 837 1002 1003 0 9
94 1004 1005 82 1 1000 2147221677 14 1002 1570 999 ?0 593 1006 4 1007 -0 0 0 593
 18 81 1 1003 1904 910 1002 0 999 1008 0 1009 81 1 1004 2071 837 829 1010 0 999
 1011 1012 82 1 1005 -2066743123 14 829 1536 1004 ?1013 834 828 4 1014 -0 0 1013
 834 18 81 1 1010 1896 910 829 0 1004 1015 1016 1017 81 1 1011 2072 837 823 1018
 0 1004 1019 1020 82 1 1012 -2051604307 14 823 1559 1011 ?593 286 821 4 1021 +0
 0 593 286 18 81 1 1018 1902 910 823 0 1011 1022 1008 1023 81 1 1019 2073 837 82
6 1024 0 1011 1025 1026 82 1 1020 -2060058451 14 826 1542 1019 ?300 1013 825 4 1
027 -0 0 300 1013 18 81 1 1024 1898 910 826 0 1019 1016 1028 1029 81 1 1025 2074
 837 1013 1016 0 1019 1030 1031 82 1 1026 -2056847187 14 1013 1539 1025 ?826 829
 1032 4 1033 -0 0 826 829 18 81 1 1016 1897 910 1013 0 1025 1010 1024 1034 81 1
 1030 2075 837 308 1035 0 1025 1036 1037 82 1 1031 -2052521811 14 308 1548 1030
 ?286 300 304 4 1038 +0 0 286 300 18 81 1 1035 1900 910 308 0 1030 1028 1022 103
9 81 1 1036 2076 837 300 1028 0 1030 1040 1041 82 1 1037 -2059796307 14 300 1545
 1036 ?308 826 293 4 1042 -0 0 308 826 18 81 1 1028 1899 910 300 0 1036 1024 103
5 1043 81 1 1040 2077 837 286 1022 0 1036 1044 1045 82 1 1041 -2057764691 14 286
 1552 1040 ?823 308 280 4 1046 +0 0 823 308 18 81 1 1022 1901 910 286 0 1040 103
5 1018 1047 81 1 1044 2078 837 593 1008 0 1040 0 1048 82 1 1045 -2059927379 14 5
93 1563 1044 ?1002 823 591 4 1049 +0 0 1002 823 18 81 1 1008 1903 910 593 0 1044
 1018 1003 1050 82 1 1048 -2060189523 80 1 910 0 1051 8001 0 0 0 0 3 5 0 0 0 FFF
FTFTFFFFFFF2 83 255 3 1050 .827450980392157 .83921568627451 .827450980392157 79
 255 15 1051 SDL/TYSA_COLOUR50 1049 1589 0 593 1007 1021 0 +.00225 75e-5 .001199
999999999966 0 1 1084202172485874e-30 0 -1084202172485874e-30 1 50 1007 1591 0 1
002 0 1049 0 +.001200000000000034 0 .001149999999999932 1 0 -2807720014556425e-2
9 2807720014556425e-29 0 1 50 1021 1588 0 823 1049 1046 0 +.00225 75e-5 .0010000
00000000034 0 0 -1 -1 0 0 50 1046 1587 0 286 1021 1038 0 +.00225 -75e-5 .0011999
99999999966 0 -1 0 0 0 -1 50 1038 1586 0 308 1046 1042 0 +.00225 75e-5 .00119999
9999999966 0 289120579329468e-30 1 0 -1 289120579329468e-30 51 1042 1585 0 300 1
038 1027 0 -.00225 0 .000949999999999966 0 1 0 25e-5 0 0 1 51 1027 1584 0 826 10
42 1033 0 +.00225 0 .000949999999999966 0 1 0 50000000000068e-18 0 0 1 50 1033 1
583 0 1013 1027 1014 0 +.0025 75e-5 .000949999999999964 -1 -289120579329468e-30
 0 289120579329468e-30 -1 0 50 1014 1582 0 829 1033 842 0 +.00230000000000007 75
e-5 .000949999999999967 1 0 0 0 0 -1 51 842 1581 0 834 1014 836 0 -.00225 0 .000
1999999999999665 0 1 0 25e-5 0 0 1 83 3 1047 .827450980392157 .83921568627451 .8
27450980392157 83 3 1043 .827450980392157 .83921568627451 .827450980392157 83 3
 1039 .827450980392157 .83921568627451 .827450980392157 83 3 1034 .8274509803921
57 .83921568627451 .827450980392157 15 1032 1541 0 292 1013 0 17 292 0 1032 290
 265 254 294 310 0 282 -17 290 0 1032 329 292 242 256 291 0 0 +17 265 0 1032 292
 329 263 335 333 0 294 -17 294 0 293 272 282 263 292 310 0 301 +17 301 0 591 335
 303 263 272 302 0 0 +17 335 0 591 351 301 251 265 333 0 0 +17 351 0 591 372 335
 239 253 349 0 0 +17 372 0 591 226 351 227 241 370 0 0 +17 253 0 841 1052 345 25
1 351 349 0 329 -15 841 1535 0 1052 834 0 17 1052 0 841 360 253 242 329 295 0 29
0 -17 345 0 841 253 360 239 1053 343 0 351 +17 329 0 1032 265 290 251 1052 295 0
 335 +17 360 0 841 345 1052 230 244 358 0 0 +17 1053 0 844 381 241 230 345 343 0
 360 -15 844 1529 0 1053 835 0 17 381 0 844 229 1053 221 232 379 0 0 +17 241 0 8
44 1053 229 239 372 370 0 345 -17 229 0 844 241 381 227 1054 361 0 595 +17 1054
 0 1006 41 595 221 229 361 0 381 -17 595 0 1006 1054 596 227 226 363 0 372 -15 1
006 1572 0 1054 1002 0 17 596 0 1006 595 41 224 367 365 0 592 -17 41 0 1006 596
 1054 37 223 368 0 19 -17 367 0 597 603 592 37 596 365 0 0 +17 223 0 280 232 19
 221 41 368 0 1054 +17 19 0 280 223 378 37 603 9 0 367 +17 378 0 280 19 357 215
 235 376 0 603 +17 235 0 599 594 217 233 378 376 0 348 -17 232 0 280 244 223 230
 381 379 0 1053 -17 244 0 280 256 232 242 360 358 0 1052 -83 3 1029 .82745098039
2157 .83921568627451 .827450980392157 83 3 1023 .827450980392157 .83921568627451
 .827450980392157 81 1 1015 1895 910 834 0 839 838 1010 1055 83 3 1017 .82745098
0392157 .83921568627451 .827450980392157 81 1 839 2028 837 834 1015 0 833 843 10
56 81 1 838 1894 910 832 0 833 997 1015 1057 83 3 1055 .827450980392157 .8392156
8627451 .827450980392157 81 1 997 1893 910 835 0 843 993 838 1058 83 3 1057 .827
450980392157 .83921568627451 .827450980392157 81 1 843 2029 837 835 997 0 839 84
6 1059 83 3 1058 .827450980392157 .83921568627451 .827450980392157 82 1 1059 -20
42494803 82 1 1056 -2047737683 83 3 1009 .827450980392157 .83921568627451 .82745
0980392157 83 3 1001 .0980392156862745 .0980392156862745 .0980392156862745 83 3
 998 .827450980392157 .83921568627451 .827450980392157 50 996 1578 0 600 845 990
 0 +.00225 75e-5 .000149999999999898 -1032573497605244e-31 0 -1 -1 0 10325734976
05244e-31 50 845 1579 0 835 836 996 0 +.00225 75e-5 -50000000000034e-18 10325734
97605244e-31 -289120579329468e-30 1 0 -1 -289120579329468e-30 50 990 1278 0 604
 996 929 0 +.00105 .00135 .0001500000000000345 0 -120466908053945e-30 -1 0 1 -12
0466908053945e-30 50 929 1023 0 776 990 935 0 +-.001200000000000034 0 .001149999
999999932 -1 0 -2807720014556425e-29 -2807720014556425e-29 0 1 50 935 1021 0 757
 929 940 0 +-.00225 -75e-5 .001199999999999966 0 1 0 0 0 1 50 940 1020 0 797 935
 945 0 +-.00225 75e-5 .001000000000000034 0 0 1 1 0 0 50 945 1019 0 781 940 950
 0 +-.00225 75e-5 .001199999999999966 0 -1 -1084202172485874e-30 0 1084202172485
874e-30 -1 50 950 1018 0 761 945 955 0 +-.00225 75e-5 .001199999999999966 0 -289
120579329468e-30 -1 0 1 -289120579329468e-30 51 955 1017 0 764 950 960 0 +-.0022
5 0 .000949999999999966 0 -1 0 25e-5 0 0 -1 51 960 1016 0 793 955 965 0 --.00225
 0 .000949999999999966 0 -1 0 50000000000068e-18 0 0 -1 50 965 1015 0 768 960 97
0 0 +-.0025 75e-5 .000949999999999964 -1 289120579329468e-30 0 -289120579329468e
-30 -1 0 50 970 1014 0 791 965 975 0 +-.00230000000000007 75e-5 .000949999999999
967 1 0 0 0 0 -1 51 975 1013 0 770 970 980 0 +-.00225 0 .0001999999999999665 0 -
1 0 25e-5 0 0 -1 51 980 1012 0 787 975 985 0 --.00225 0 .0001999999999999665 0 -
1 0 500000000000682e-19 0 0 -1 50 985 1011 0 773 980 888 0 +-.00225 75e-5 -50000
000000034e-18 1032573497605244e-31 289120579329468e-30 -1 0 1 289120579329468e-3
0 50 888 1010 0 785 985 897 0 +-.00225 75e-5 .000149999999999898 -10325734976052
44e-31 0 1 1 0 1032573497605244e-31 83 3 992 .0980392156862745 .0980392156862745
 .0980392156862745 81 1 986 1877 910 785 0 886 885 981 1060 83 3 987 .8274509803
92157 .83921568627451 .827450980392157 81 1 886 2046 837 785 986 0 883 889 1061
 81 1 885 1876 910 882 0 883 893 986 1062 83 3 1060 .827450980392157 .8392156862
7451 .827450980392157 81 1 893 1875 910 738 0 889 1063 885 1064 83 3 1062 .14509
80392156862 .1411764705882352 .1411764705882352 81 1 1063 1874 910 730 0 894 106
5 893 1066 83 3 1064 .690196078431373 .662745098039216 .596078431372549 81 1 894
 2048 837 730 1063 0 889 900 1067 81 1 1065 1873 910 742 0 900 1068 1063 1069 83
 3 1066 .690196078431373 .662745098039216 .596078431372549 81 1 900 2049 837 742
 1065 0 894 902 1070 81 1 1068 1872 910 744 0 902 914 1065 1071 83 3 1069 .69019
6078431373 .662745098039216 .596078431372549 81 1 902 2050 837 744 1068 0 900 90
3 1072 81 1 914 1871 910 735 0 903 1073 1068 1074 83 3 1071 .690196078431373 .66
2745098039216 .596078431372549 81 1 1073 1870 910 800 0 878 1075 914 1076 83 3 1
074 .690196078431373 .662745098039216 .596078431372549 81 1 878 2042 837 800 107
3 0 876 880 1077 81 1 1075 1869 910 726 0 868 1078 1073 1079 83 3 1076 .14509803
92156862 .1411764705882352 .1411764705882352 81 1 868 2037 837 726 1075 0 865 87
0 1080 81 1 1078 1868 910 749 0 870 1081 1075 1082 83 3 1079 .1450980392156862 .
1411764705882352 .1411764705882352 81 1 870 2038 837 749 1078 0 868 872 1083 81
 1 1081 1867 910 722 0 872 912 1078 1084 83 3 1082 .1450980392156862 .1411764705
882352 .1411764705882352 81 1 872 2039 837 722 1081 0 870 874 1085 81 1 912 1866
 910 720 0 874 905 1081 1086 83 3 1084 .1450980392156862 .1411764705882352 .1411
764705882352 81 1 874 2040 837 720 912 0 872 876 1087 83 3 1086 .145098039215686
2 .1411764705882352 .1411764705882352 81 1 876 2041 837 866 1088 0 874 878 1089
 82 1 1087 -1588592525 81 1 1088 1857 910 866 0 876 1090 919 1091 82 1 1089 2137
194669 81 1 1090 1856 910 608 0 880 1092 1088 1093 81 1 919 1858 910 693 0 865 1
088 916 1094 83 3 1091 .1450980392156862 .1411764705882352 .1411764705882352 81
 1 865 2036 837 693 919 0 860 868 1095 83 3 1094 .1450980392156862 .141176470588
2352 .1411764705882352 81 1 860 2035 837 714 924 0 858 865 1096 82 1 1095 166297
6169 81 1 924 1861 910 714 0 860 920 859 1097 82 1 1096 -337379213 81 1 859 1862
 910 805 0 858 924 855 1098 83 3 1097 .1450980392156862 .1411764705882352 .14117
64705882352 81 1 855 1863 910 811 0 854 859 911 1099 83 3 1098 .1450980392156862
 .1411764705882352 .1411764705882352 81 1 911 1864 910 688 0 856 855 905 1100 83
 3 1099 .1450980392156862 .1411764705882352 .1411764705882352 81 1 856 2033 837
 688 911 0 854 858 1101 83 3 1100 .1450980392156862 .1411764705882352 .141176470
5882352 82 1 1101 1303838831 81 1 880 2043 837 608 1090 0 878 881 1102 81 1 1092
 1855 910 615 0 881 1103 1090 1104 83 3 1093 .1450980392156862 .1411764705882352
 .1411764705882352 81 1 881 2044 837 615 1092 0 880 883 1105 81 1 1103 1854 910
 623 0 849 848 1092 1106 83 3 1104 .1450980392156862 .1411764705882352 .14117647
05882352 81 1 849 2031 837 623 1103 0 846 854 1107 81 1 848 1853 910 12 0 846 0
 1103 1108 83 3 1106 .1450980392156862 .1411764705882352 .1411764705882352 83 3
 1108 .1450980392156862 .1411764705882352 .1411764705882352 82 1 1107 2144665773
 82 1 1105 2144207021 82 1 1102 2143158445 82 1 1085 703660205 82 1 1083 7079200
41 82 1 1080 -1592459149 82 1 1077 684261545 82 1 1072 -342818701 82 1 1070 -343
080845 82 1 1067 -343342989 82 1 1061 1618673833 83 3 982 .827450980392157 .8392
1568627451 .827450980392157 83 3 977 .827450980392157 .83921568627451 .827450980
392157 83 3 972 .827450980392157 .83921568627451 .827450980392157 83 3 967 .8274
50980392157 .83921568627451 .827450980392157 83 3 962 .827450980392157 .83921568
627451 .827450980392157 83 3 957 .827450980392157 .83921568627451 .8274509803921
57 83 3 952 .827450980392157 .83921568627451 .827450980392157 83 3 947 .82745098
0392157 .83921568627451 .827450980392157 83 3 942 .827450980392157 .839215686274
51 .827450980392157 83 3 937 .827450980392157 .83921568627451 .827450980392157 8
3 3 932 .827450980392157 .83921568627451 .827450980392157 83 3 925 .145098039215
6862 .1411764705882352 .1411764705882352 83 3 921 .1450980392156862 .14117647058
82352 .1411764705882352 82 1 915 -342556557 83 3 913 .1450980392156862 .14117647
05882352 .1411764705882352 79 14 909 SWEntUnchanged82 1 895 -349896589 82 1 887
 1377960103 82 1 861 1304363119 82 1 857 684785837 82 1 850 -1998520147 82 1 840
 -2046820179 17 33 0 821 815 315 10 29 34 0 0 -17 32 0 31 607 29 87 35 631 0 0 -
17 795 0 780 436 405 199 418 416 0 794 -17 436 0 780 454 795 179 201 434 0 0 +17
 405 0 780 795 421 54 50 403 0 418 +17 421 0 780 405 203 48 762 419 0 402 +17 50
 0 692 106 641 48 405 403 0 695 -17 695 0 748 53 746 48 106 668 0 421 -16 668 83
0 0 ?106 669 666 667 669 669 1 17 203 0 780 421 178 192 439 437 0 395 -17 178 0
 780 203 166 176 457 455 0 424 -17 166 0 780 178 154 164 475 473 0 442 -17 154 0
 780 166 145 152 499 497 0 460 -17 454 0 780 472 436 167 181 452 0 0 +17 788 0 7
89 181 451 167 445 443 0 454 -17 478 0 775 487 481 143 151 476 0 499 +17 662 0 6
83 685 684 101 689 654 0 690 +17 134 0 743 547 739 123 132 514 0 513 -17 211 0 5
97 602 611 209 612 382 0 584 +141 525 553 525 525 522 19 13 95 0 1 0 8 4 S0 74 4
 CI16 index_map_offset0 0 1 dCCZ20 11 2 0 0 1044 1003 0 0 0 0 0 0 0 0 0 0 0 0 0
 0 0 0 0 0 1 0 
