**ABCDEFGHIJKLMNOPQRSTUVWXYZabcdefghijklmnopqrstuvwxyz**************************
**PARASOLID !"#$%&'()*+,-./:;<=>?@[\]^_`{|}~0123456789**************************
**PART1;
MC=AMD64;
MC_MODEL=Intel64 Family 6 Model 60 Stepping 3, GenuineIntel;
MC_ID=unknown;
OS=Windows_NT;
OS_RELEASE=unknown;
FRU=Parasolid Version 31.1, build 284, 10- 9-2019;
APPL=SOLIDWORKS 2020-2020062;
SITE=;
USER=unknown;
FORMAT=text;
GUISE=transmit;
KEY=ANT-GPS_250X250X27;
FILE=ANT-GPS_250X250X27.x_t;
DATE=Wed May 27 13:41:55 2020;
**PART2;
SCH=SCH_3101284_31100;
USFLD_SIZE=0;
**PART3;
**END_OF_HEADER*****************************************************************
T51 : TRANSMIT FILE created by modeller version 310128423 SCH_3101284_31100_1300
6222 0 12 34 CCCCCCI4 mesh1006 0 I8 polyline1008 0 CCCCCCCDI5 owner1040 0 CCCCCC
I13 boundary_mesh1006 0 I17 boundary_polyline1008 0 CCCA16 index_map_offset0 0 1
 dA9 index_map82 0 A17 node_id_index_map82 0 A20 schema_embedding_map82 0 A5 chi
ld12 0 A14 lowest_node_id0 0 1 dA16 mesh_offset_data206 0 Z1 1076 2 3 0 0 0 0 0
 0 1e3 1e-8 0 4 0 1 0 1 1 5 6 7 8 0 0 9 10 11 0 0 0 0 0 0 0 81 255 2 2 1055 12 1
 13 0 0 0 0 14 70 11 CI9 list_type0 0 1 uI10 notransmit0 0 1 lCCCDCCDI12 finger_
index0 0 1 dI12 finger_block1012 0 CZ3 0 4 T1 0 0 8 20 1 15 15 13 255 5 94 0 1 0
 16 0 0 17 0 50 255 6 460 0 18 19 0 0 --.01015 -.01065 .00201 .707106781186552 .
707106781186543 0 0 0 -1 31 255 7 928 0 10 20 0 0 -0 .0025 0 0 0 1 1 0 0 4e-4 29
 255 8 512 0 11 21 0 .00998277308041275 -.0125 0 19 8 CCCCCCCA5 owner12 0 Z9 28
 0 1 17 0 22 V0 16 255 10 925 0 ?23 0 24 7 0 0 1 18 255 11 510 0 25 0 26 8 ?1 17
 255 25 0 27 28 29 11 30 31 0 32 -18 26 504 0 33 11 34 21 ?1 17 33 0 35 36 37 26
 38 39 0 40 -18 34 498 0 41 26 42 43 ?1 29 21 506 0 26 43 8 .0125 .0099827730804
1275 0 29 43 500 0 34 44 21 -.00998277308041275 .0125 0 29 44 494 0 42 45 43 -.0
125 -.00998277308041276 0 18 42 492 0 46 34 47 44 ?1 29 45 402 0 47 48 44 -.0106
5 -.01015 .002 18 47 400 0 49 42 50 45 ?1 29 48 394 0 50 51 45 -.01015 -.01065 .
002 18 50 392 0 52 47 53 48 ?1 29 51 381 0 53 54 48 -.01015 -.01065 .00201 18 53
 379 0 55 50 56 51 ?1 29 54 378 0 56 57 51 -.01065 -.01015 .00201 18 56 376 0 58
 53 59 54 ?1 29 57 370 0 59 60 54 .01065 .01015 .00201 18 59 368 0 61 56 62 57 ?
1 29 60 367 0 62 63 57 .01065 .01015 .002 18 62 365 0 64 59 65 60 ?1 29 63 359 0
 65 66 60 .01015 .01065 .00201 18 65 357 0 67 62 68 63 ?1 29 66 356 0 68 69 63 .
01015 .01065 .002 18 68 354 0 70 65 71 66 ?1 29 69 296 0 72 73 66 -.01065 .01065
 .002 18 72 240 0 74 75 76 69 ?1 29 73 298 0 76 77 69 .01065 -.01065 .002 18 76
 237 0 78 72 79 73 ?1 29 77 300 0 71 80 73 -.01065 .01065 .00201 18 71 243 0 81
 68 75 77 ?1 29 80 302 0 75 82 77 .01065 -.01065 .00201 18 75 241 0 83 71 72 80
 ?1 29 82 865 0 84 85 80 -.00998277308041275 -.0125 .002 18 84 780 0 86 79 87 82
 ?1 29 85 867 0 87 88 82 -.0125 -.00998277308041275 .002 18 87 778 0 89 84 90 85
 ?1 29 88 868 0 79 91 85 -.00998277308041275 -.0125 0 18 79 777 0 92 76 84 88 ?1
 29 91 871 0 93 94 88 -.0125 .00998277308041275 .002 18 93 642 0 95 96 97 91 ?1
 29 94 873 0 97 98 91 -.00998277308041275 .0125 .002 18 97 640 0 99 93 0 94 ?1 2
9 98 874 0 96 100 94 -.0125 .00998277308041275 0 18 96 639 0 101 102 93 98 ?1 29
 100 877 0 103 104 98 .00998277308041275 .0125 .002 18 103 688 0 105 106 102 100
 ?1 29 104 879 0 102 107 100 .0125 .00998277308041275 .002 18 102 686 0 37 103 9
6 104 ?1 29 107 880 0 106 108 104 .00998277308041275 .0125 0 18 106 685 0 36 109
 103 107 ?1 29 108 883 0 110 111 107 .0125 -.00998277308041275 .002 18 110 734 0
 112 90 109 108 ?1 29 111 885 0 109 113 108 .00998277308041275 -.0125 .002 18 10
9 732 0 29 110 106 111 ?1 29 113 886 0 90 0 111 .0125 -.00998277308041275 0 18 9
0 731 0 28 87 110 113 ?1 17 28 0 27 112 25 90 32 114 0 115 -15 255 27 740 0 29 1
16 0 17 112 0 27 29 28 110 115 117 0 118 +17 32 0 119 120 121 11 28 114 0 122 +1
6 114 710 0 ?32 31 123 124 0 0 1 17 115 0 125 126 127 90 112 117 0 121 -15 125 5
61 0 38 128 0 17 126 0 125 38 115 26 121 129 0 0 +17 127 0 125 115 38 110 130 13
1 0 0 -16 117 717 0 ?112 132 31 133 0 0 1 17 121 0 119 32 40 90 126 129 0 0 -15
 119 44 0 134 135 0 17 40 0 119 121 136 26 36 137 0 126 +16 129 502 0 ?126 138 1
39 140 0 0 1 16 138 496 0 ?141 142 129 143 0 0 1 16 139 508 0 ?122 129 144 145 0
 0 1 30 255 140 67 0 129 145 143 0 +.0125 .0125 0 -693889390390723e-31 1 0 30 14
5 68 0 139 146 140 0 +-.0125 -.0125 0 1 0 0 30 143 66 0 138 140 147 0 +-.0125 .0
125 0 -1 0 0 31 147 330 0 148 143 149 0 -0 .0025 .00201 0 0 1 1 0 0 .00182492856
7783885 16 148 327 0 ?150 151 152 147 0 0 1 30 149 362 0 151 147 153 0 +.01015 .
01065 .00201 0 0 -1 16 151 360 0 ?154 155 148 149 0 0 1 30 153 373 0 155 149 156
 0 +.01065 .01015 .00201 0 0 1 16 155 371 0 ?61 157 151 153 0 0 1 30 156 384 0 1
57 153 158 0 --.0104 -.0104 .00201 -.707106781186543 .707106781186553 0 16 157 3
82 0 ?55 159 155 156 0 0 1 30 158 389 0 159 156 160 0 -.0104 .0104 .00201 .70710
6781186548 -.707106781186548 0 16 159 387 0 ?67 161 157 158 0 0 1 30 160 397 0 1
61 158 162 0 +-.01015 -.01065 .00201 0 0 -1 16 161 395 0 ?163 164 159 160 0 0 1
 30 162 405 0 164 160 165 0 +-.01065 -.01015 .00201 0 0 1 16 164 403 0 ?58 166 1
61 162 0 0 1 30 165 416 0 166 162 20 0 -.01015 .01065 .002 -.707106781186548 .70
7106781186548 0 16 166 408 0 ?64 24 164 165 0 0 1 30 20 417 0 24 165 7 0 --.0101
5 -.01065 .002 .707106781186543 -.707106781186553 0 16 24 412 0 ?49 10 166 20 0
 0 1 17 49 0 167 168 169 47 52 24 0 170 +15 167 187 0 169 171 0 17 168 0 167 172
 49 72 170 173 0 0 -17 169 0 167 49 174 50 78 175 0 0 -17 52 0 176 177 178 50 49
 24 0 163 -17 170 0 179 58 180 47 168 173 0 178 +15 179 254 0 170 181 0 17 58 0
 179 182 170 56 178 164 0 183 +17 180 0 179 170 182 72 184 185 0 168 +16 173 208
 0 ?170 175 186 187 0 0 1 17 178 0 176 52 188 47 58 164 0 0 -15 176 449 0 188 18
 0 17 188 0 176 178 177 56 55 157 0 0 -17 177 0 176 188 52 53 163 161 0 0 -17 55
 0 189 83 183 53 188 157 0 190 +15 189 270 0 191 192 0 17 83 0 189 191 55 75 190
 193 0 194 +17 183 0 189 55 81 56 182 195 0 188 +17 190 0 196 163 194 53 83 193
 0 177 -15 196 258 0 190 197 0 17 163 0 196 78 190 50 177 161 0 169 +17 194 0 19
6 190 78 75 198 199 0 200 -16 193 380 0 ?83 201 195 202 0 0 1 16 201 230 0 ?191
 203 193 204 0 0 1 16 195 224 0 ?183 193 205 206 0 0 1 30 202 294 0 193 206 204
 0 +-.01065 -.01065 .00201 1 0 0 30 206 295 0 195 207 202 0 +-.01065 .01065 .002
01 1628848334250525e-31 -1 0 30 204 293 0 201 202 208 0 +.01065 .01065 .00201 -2
443272501375785e-31 1 0 30 208 292 0 203 204 187 0 +-.01065 .01065 .00201 -1 0 0
 16 203 358 0 ?81 185 201 208 0 0 1 30 187 291 0 173 208 209 0 +-.01065 .01065 .
002 1628848334250525e-31 -1 0 30 209 290 0 175 187 210 0 +-.01065 -.01065 .002 1
 0 0 16 175 393 0 ?78 211 173 209 0 0 1 30 210 289 0 211 209 212 0 +.01065 .0106
5 .002 -2443272501375785e-31 1 0 16 211 216 0 ?213 205 175 210 0 0 1 30 212 288
 0 205 210 214 0 +-.01065 .01065 .002 -1 0 0 16 205 355 0 ?74 195 211 212 0 0 1
 30 214 287 0 185 212 215 0 +-.01065 .01065 .00201 0 0 -1 16 185 211 0 ?180 199
 203 214 0 0 1 30 215 285 0 199 214 216 0 +.01065 -.01065 .00201 0 0 -1 16 199 2
19 0 ?198 217 185 215 0 0 1 31 216 165 0 217 215 218 0 +0 .0025 .0027 0 0 1 1 0
 0 .001125 16 217 145 0 ?219 144 199 216 0 0 1 30 218 5 0 142 216 220 0 +-.0125
 .0125 .002 693889390390723e-31 -1 0 16 142 582 0 ?221 222 138 218 0 0 1 30 220
 8 0 222 218 223 0 +-.0125 -.0125 .002 1 0 0 16 222 566 0 ?224 131 142 220 0 0 1
 30 223 11 0 131 220 225 0 +.0125 .0125 .002 -693889390390723e-31 1 0 16 131 550
 0 ?130 152 222 223 0 0 1 30 225 14 0 152 223 146 0 +-.0125 .0125 .002 -1 0 0 16
 152 534 0 ?226 148 131 225 0 0 1 30 146 69 0 144 225 145 0 +-.0125 .0125 0 6938
89390390723e-31 -1 0 16 144 490 0 ?227 139 217 146 0 0 1 17 227 0 228 229 230 42
 134 144 0 0 +15 228 588 0 231 16 0 17 229 0 228 231 227 87 46 232 0 221 +17 230
 0 228 227 231 96 95 233 0 134 -17 134 0 119 234 235 96 227 144 0 0 -17 234 0 11
9 136 134 34 101 236 0 141 +17 235 0 119 134 120 42 92 237 0 227 +17 120 0 119 2
35 32 79 122 139 0 0 -17 92 0 238 86 46 79 235 237 0 239 -16 237 756 0 ?235 232
 132 240 0 0 1 16 232 759 0 ?229 186 237 207 0 0 1 16 132 768 0 ?89 237 117 241
 0 0 1 31 240 837 0 237 242 241 0 +-.00998277308041275 -.00998277308041275 0 0 0
 -1 -1 0 0 .00251722691958725 30 242 838 0 243 244 240 0 +-.00998277308041275 .0
125 0 0 0 1 31 241 834 0 132 240 245 0 +-.00998277308041275 -.00998277308041275
 .002 0 0 -1 -1 0 0 .00251722691958725 30 245 831 0 186 241 207 0 +-.00998277308
041275 -.0125 0 0 0 1 16 186 763 0 ?86 173 232 245 0 0 1 30 207 829 0 232 245 20
6 0 +-.0125 -.00998277308041275 0 0 0 1 17 86 0 238 89 92 84 239 186 0 246 +15 2
38 786 0 89 247 0 17 89 0 238 46 86 87 246 132 0 229 +17 239 0 248 122 249 79 86
 186 0 120 -17 246 0 250 224 221 84 89 132 0 249 -15 250 613 0 251 171 167 17 22
4 0 250 118 246 109 249 222 0 0 +17 221 0 250 246 251 87 231 142 0 0 +17 249 0 2
48 239 30 84 224 222 0 0 -15 248 577 0 30 252 0 17 30 0 248 249 122 109 25 31 0
 224 +17 122 0 248 30 239 11 120 139 0 0 +16 31 713 0 ?30 117 114 253 0 0 1 30 2
53 856 0 31 133 254 0 +.00998277308041275 -.0125 0 0 0 1 30 133 858 0 117 255 25
3 0 +.0125 -.00998277308041275 0 0 0 1 31 254 855 0 137 253 256 0 +.009982773080
41275 .00998277308041275 0 0 0 -1 -1 0 0 .00251722691958725 16 137 664 0 ?40 39
 257 254 0 0 1 31 256 852 0 257 254 258 0 +.00998277308041275 .00998277308041275
 .002 0 0 -1 -1 0 0 .00251722691958725 16 257 676 0 ?37 137 233 256 0 0 1 30 258
 849 0 259 256 260 0 +.00998277308041275 .0125 0 0 0 1 16 259 671 0 ?105 123 39
 258 0 0 1 30 260 847 0 39 258 261 0 +.0125 .00998277308041275 0 0 0 1 16 39 667
 0 ?38 259 137 260 0 0 1 31 261 846 0 236 260 262 0 +-.00998277308041275 .009982
77308041275 0 0 0 -1 -1 0 0 .002517226919587245 16 236 618 0 ?234 243 263 261 0
 0 1 31 262 843 0 263 261 244 0 +-.00998277308041275 .00998277308041275 .002 0 0
 -1 -1 0 0 .002517226919587245 16 263 630 0 ?99 236 264 262 0 0 1 30 244 840 0 2
33 262 242 0 +-.0125 .00998277308041275 0 0 0 1 16 233 625 0 ?95 257 243 244 0 0
 1 17 95 0 265 99 101 93 230 233 0 251 +16 243 621 0 ?266 233 236 242 0 0 1 17 2
66 0 267 268 141 97 41 243 0 226 +15 267 545 0 266 269 0 17 268 0 267 270 266 10
3 226 152 0 0 -17 141 0 267 266 270 34 136 138 0 0 +17 41 0 265 101 99 34 266 24
3 0 234 -17 226 0 250 251 271 97 268 152 0 0 +17 251 0 250 221 226 93 99 263 0 2
31 -17 271 0 250 226 130 103 37 257 0 268 -17 130 0 250 271 118 102 127 131 0 0
 +17 37 0 35 33 105 102 271 257 0 38 +15 35 694 0 37 272 0 17 105 0 35 37 36 103
 270 259 0 271 +17 38 0 125 127 126 102 33 39 0 130 +17 36 0 35 105 33 106 40 13
7 0 270 -17 270 0 267 141 268 106 105 259 0 136 -17 136 0 119 40 234 106 141 138
 0 0 -14 255 272 691 273 ?274 116 35 5 275 -0 0 274 116 22 81 1 273 1056 276 272
 277 0 0 278 279 14 274 645 278 ?280 272 265 5 281 -0 0 280 272 22 14 116 737 28
2 ?272 247 27 5 283 -0 0 272 247 22 51 255 275 819 0 272 283 281 0 -.00998277308
041275 .00998277308041275 0 0 0 1 .00251722691958725 1 0 0 13 22 29 0 0 0 0 0 0
 9 16 14 16 590 284 ?252 0 228 5 285 -0 0 252 0 22 81 1 284 1059 276 16 286 0 28
2 287 288 14 252 579 287 ?128 16 248 5 289 -0 0 128 16 22 50 285 89 0 16 289 290
 0 +-.0125 .0125 .002 1 693889390390723e-31 0 -693889390390723e-31 1 0 50 289 88
 0 252 291 285 0 +-.0125 -.0125 .002 0 1 0 0 0 1 54 255 290 346 0 292 285 19 0 +
0 .0025 .00271 0 0 1 .001824928567783885 7e-4 1 0 0 14 292 339 293 ?294 295 296
 5 290 -0 0 294 295 22 50 19 439 0 294 290 6 0 -.01015 .01065 .00201 -.707106781
186548 -.707106781186548 0 0 0 -1 14 294 427 297 ?18 292 298 5 19 +0 0 18 292 22
 81 1 297 1062 276 294 299 0 293 300 301 14 18 448 300 ?247 294 176 5 6 +0 0 247
 294 22 15 298 428 0 302 294 0 17 302 0 298 303 304 59 67 159 0 0 -17 303 0 298
 70 302 62 61 155 0 0 -17 304 0 298 302 70 65 154 151 0 0 -17 67 0 189 81 191 65
 302 159 0 305 +17 81 0 189 183 67 71 305 203 0 184 +17 191 0 189 67 83 59 200 2
01 0 302 +17 305 0 306 154 184 65 81 203 0 304 -15 306 266 0 305 307 0 17 154 0
 306 74 305 68 304 151 0 172 +17 184 0 306 305 74 71 180 185 0 182 -17 74 0 306
 184 154 72 172 205 0 180 +17 182 0 179 180 58 71 183 195 0 0 -17 172 0 167 64 1
68 68 74 205 0 0 -17 64 0 167 174 172 62 70 166 0 213 +17 174 0 167 169 64 76 21
3 211 0 0 -17 70 0 298 304 303 68 64 166 0 154 -17 213 0 308 61 198 62 174 211 0
 303 +15 308 262 0 213 309 0 17 61 0 308 200 213 59 303 155 0 191 +17 198 0 308
 213 200 76 194 199 0 174 +17 200 0 308 198 61 75 191 201 0 0 -14 309 259 310 ?3
07 197 308 5 311 -0 0 307 197 22 81 1 310 1064 276 309 312 0 300 313 314 14 307
 263 313 ?192 309 306 5 315 -0 0 192 309 22 14 197 255 316 ?309 181 196 5 317 -0
 0 309 181 22 50 311 279 0 309 315 317 0 +.01065 .01065 .00201 -1 -2443272501375
785e-31 0 2443272501375785e-31 -1 0 50 315 280 0 307 318 311 0 +-.01065 .01065 .
00201 0 -1 0 0 0 -1 50 317 278 0 197 311 319 0 +-.01065 -.01065 .00201 0 1 0 0 0
 1 50 319 277 0 181 317 320 0 +-.01065 .01065 .00201 1 1628848334250525e-31 0 -1
628848334250525e-31 1 0 14 181 251 321 ?197 135 179 5 319 -0 0 197 135 22 50 320
 163 0 295 319 322 0 +0 .0025 .0027 0 0 1 1 0 0 14 295 153 323 ?292 192 324 5 32
0 +0 0 292 192 22 50 322 2 0 171 320 325 0 +0 0 .002 0 0 1 1 0 0 14 171 204 326
 ?135 269 250 5 322 +0 0 135 269 22 50 325 65 0 135 322 327 0 +0 0 0 0 0 1 1 0 0
 14 135 43 328 ?181 171 329 5 325 -0 0 181 171 22 50 327 86 0 269 325 291 0 +-.0
125 .0125 .002 0 -1 0 0 0 -1 14 269 547 330 ?171 128 267 5 327 -0 0 171 128 22 5
0 291 87 0 128 327 289 0 +.0125 .0125 .002 -1 -693889390390723e-31 0 69388939039
0723e-31 -1 0 14 128 563 331 ?269 252 125 5 291 -0 0 269 252 22 81 1 331 1072 27
6 128 332 0 330 333 334 80 255 1 276 335 336 9000 1 1 1 1 1 1 1 1 0 FFFFTFTFFFFF
FF1 81 1 332 993 337 128 0 331 338 339 340 81 1 330 1071 276 269 339 0 328 331 3
41 81 1 333 1073 276 192 342 0 331 343 344 82 255 1 334 -992345886 14 192 267 33
3 ?295 307 345 5 318 +0 0 295 307 22 81 1 342 1001 337 192 0 333 346 347 348 81
 1 343 1074 276 247 349 0 333 350 351 82 1 344 -1108934433 14 247 783 343 ?116 1
8 238 5 352 -0 0 116 18 22 81 1 349 1006 337 247 0 343 353 354 355 81 1 350 1075
 276 280 356 0 343 357 358 82 1 351 -1030618910 14 280 938 350 ?359 274 360 5 36
1 -0 0 359 274 22 81 1 356 1010 337 280 0 350 362 363 364 81 1 357 1076 276 359
 363 0 350 0 365 82 1 358 -972291868 14 359 943 357 ?0 280 366 5 367 +0 0 0 280
 22 81 1 363 1011 337 359 0 357 356 0 368 82 1 365 -974257948 80 1 337 0 369 800
1 0 0 0 0 3 5 0 0 0 FFFFTFTFFFFFFF2 83 255 3 368 .823529411764706 .8196078431372
55 .780392156862745 79 255 15 369 SDL/TYSA_COLOUR15 366 945 0 370 359 0 50 367 9
53 0 359 0 361 0 +0 .0025 -.002 0 0 -1 -1 0 0 51 361 951 0 280 367 283 0 -0 .002
5 -.002 0 0 1 4e-4 1 0 0 51 283 824 0 116 361 275 0 -.00998277308041275 -.009982
77308041275 0 0 0 1 .002517226919587245 1 0 0 17 370 0 366 370 370 0 371 264 0 0
 +17 371 0 360 371 371 0 370 264 0 0 -16 264 935 0 ?370 263 0 372 0 0 1 31 372 9
55 0 264 0 124 0 +0 .0025 -.002 0 0 -1 -1 0 0 4e-4 31 124 864 0 114 372 255 0 +.
00998277308041275 -.00998277308041275 0 0 0 -1 1 0 0 .002517226919587245 31 255
 861 0 123 124 133 0 +.00998277308041275 -.00998277308041275 .002 0 0 -1 1 0 0 .
002517226919587245 16 123 722 0 ?29 114 259 255 0 0 1 17 29 0 27 25 112 109 118
 123 0 30 +17 118 0 250 130 224 110 29 123 0 127 -15 360 941 0 371 280 373 15 37
3 942 0 23 280 0 17 23 0 373 23 23 0 374 10 0 0 +17 374 0 329 374 374 0 23 10 0
 0 -15 329 927 0 374 135 119 81 1 362 1009 337 274 0 278 277 356 375 83 3 364 .8
23529411764706 .819607843137255 .780392156862745 81 1 278 1057 276 274 362 0 273
 282 376 81 1 277 1008 337 272 0 273 354 362 377 83 3 375 .937254901960784 .8156
86274509804 .647058823529412 81 1 354 1007 337 116 0 282 349 277 378 83 3 377 .9
37254901960784 .815686274509804 .647058823529412 81 1 282 1058 276 116 354 0 278
 284 379 83 3 378 .937254901960784 .815686274509804 .647058823529412 82 1 379 -1
021640478 82 1 376 -1003814686 81 1 353 1005 337 18 0 300 299 349 380 83 3 355 .
937254901960784 .815686274509804 .647058823529412 81 1 300 1063 276 18 353 0 297
 310 381 81 1 299 1004 337 294 0 297 382 353 383 83 3 380 .866666666666667 .9098
03921568627 1 81 1 382 1003 337 292 0 293 347 299 384 83 3 383 .866666666666667
 .909803921568627 1 81 1 293 1061 276 292 382 0 287 297 385 81 1 347 1002 337 29
5 0 323 342 382 386 83 3 384 .823529411764706 .819607843137255 .780392156862745
 81 1 323 1068 276 295 347 0 321 326 387 83 3 386 .823529411764706 .819607843137
255 .780392156862745 81 1 321 1067 276 181 388 0 316 323 389 81 1 326 1069 276 1
71 390 0 323 328 391 82 1 387 -1130299174 81 1 390 995 337 171 0 326 339 392 393
 81 1 328 1070 276 135 392 0 326 330 394 82 1 391 -1095302942 81 1 392 996 337 1
35 0 328 390 388 395 82 1 394 -1143602972 81 1 388 997 337 181 0 321 392 396 397
 83 3 395 .937254901960784 .815686274509804 .647058823529412 81 1 396 998 337 19
7 0 316 388 312 398 83 3 397 .866666666666667 .909803921568627 1 81 1 316 1066 2
76 197 396 0 313 321 399 81 1 312 999 337 309 0 310 396 346 400 83 3 398 .866666
666666667 .909803921568627 1 81 1 346 1000 337 307 0 313 312 342 401 83 3 400 .8
66666666666667 .909803921568627 1 81 1 313 1065 276 307 346 0 310 316 402 83 3 4
01 .866666666666667 .909803921568627 1 82 1 402 -1102380833 82 1 399 -1101856545
 81 1 339 994 337 269 0 330 332 390 403 83 3 393 .937254901960784 .8156862745098
04 .647058823529412 83 3 403 .937254901960784 .815686274509804 .647058823529412
 82 1 389 -1101594401 81 1 287 1060 276 252 338 0 284 293 404 82 1 385 -10912397
14 81 1 338 992 337 252 0 287 286 332 405 82 1 404 -990773022 81 1 286 991 337 1
6 0 284 0 338 406 83 3 405 .937254901960784 .815686274509804 .647058823529412 83
 3 406 .937254901960784 .815686274509804 .647058823529412 82 1 381 -1082785569 5
1 352 809 0 247 281 318 0 --.00998277308041275 -.00998277308041275 0 0 0 1 .0025
1722691958725 1 0 0 51 281 814 0 274 275 352 0 --.00998277308041275 .00998277308
041275 0 0 0 1 .002517226919587245 1 0 0 50 318 282 0 192 352 315 0 +0 0 .00201
 0 0 1 1 0 0 83 3 348 .866666666666667 .909803921568627 1 15 345 328 0 150 192 1
89 17 150 0 345 150 150 0 407 148 0 0 +17 407 0 296 407 407 0 150 148 0 0 -15 29
6 340 0 407 292 408 15 408 341 0 409 292 0 17 409 0 408 409 409 0 219 217 0 0 -1
7 219 0 324 219 219 0 409 217 0 0 +15 324 155 0 219 295 0 82 1 341 -993918750 83
 3 340 .937254901960784 .815686274509804 .647058823529412 79 14 336 SWEntUnchang
ed82 1 314 -1102118689 82 1 301 -1084751649 82 1 288 -989658910 15 265 648 0 99
 274 0 17 99 0 265 41 95 97 251 263 0 266 +82 1 279 -1012727582 17 231 0 228 230
 229 93 221 142 0 0 -17 101 0 265 95 41 96 234 236 0 230 -17 46 0 238 92 89 42 2
29 232 0 235 -17 78 0 196 194 163 76 169 175 0 198 +19 17 95 0 1 0 9 5 S0 74 4 C
I16 index_map_offset0 0 1 dCCZ20 15 8 0 0 357 410 411 412 413 13 363 2 0 0 0 0 0
 0 0 0 0 0 0 0 81 2 410 958 414 1 0 411 0 0 0 415 81 2 411 962 416 1 410 412 0 0
 0 417 81 1 412 966 418 1 411 413 0 0 419 81 2 413 967 420 1 412 13 0 0 0 0 81 2
 13 990 421 1 413 2 0 0 0 422 80 2 421 423 424 9000 0 0 0 0 3 5 0 0 0 FFTFFFFFFF
FFFF9 1 82 1 422 1 79 24 424 BODY_IN_LIGHTWEIGHT_PERM80 2 420 425 426 9000 0 0 0
 0 3 5 0 0 0 FFTFFFFFFFFFFF9 1 79 16 426 BODY_RECIPE_200180 1 418 427 428 9000 1
 1 1 1 1 1 1 1 0 FFTFFFFFFFFFFF1 82 1 419 244606 79 10 428 BODY_MATCH80 2 416 42
9 430 9000 0 0 0 0 3 5 0 0 0 FFTFFFFFFFFFFF9 1 82 1 417 106 79 30 430 LAST_BODY_
MODIFYING_FEATURE_ID80 2 414 431 432 9000 0 0 0 0 3 5 0 0 0 FFTFFFFFFFFFFF9 1 82
 1 415 214 79 19 432 ENT_TIME_STAMP_200180 2 12 433 434 9000 0 0 0 0 3 5 0 0 0 F
FTFFFFFFFFFFF9 1 82 1 14 106 79 12 434 ATOM_ID_20011 0 
