**ABCDEFGHIJKLMNOPQRSTUVWXYZabcdefghijklmnopqrstuvwxyz**************************
**PARASOLID !"#$%&'()*+,-./:;<=>?@[\]^_`{|}~0123456789**************************
**PART1;
MC=AMD64;
MC_MODEL=Intel64 Family 6 Model 60 Stepping 3, GenuineIntel;
MC_ID=unknown;
OS=Windows_NT;
OS_RELEASE=unknown;
FRU=Parasolid Version 30.0, build 310,  6- 8-2018;
APPL=SOLIDWORKS 2018-2018316;
SITE=;
USER=unknown;
FORMAT=text;
GUISE=transmit;
KEY=ANT-GPS;
FILE=ANT-GPS.x_t;
DATE=Tue Oct  8 13:15:22 2019;
**PART2;
SCH=SCH_3000310_30000;
USFLD_SIZE=0;
**PART3;
**END_OF_HEADER*****************************************************************
T51 : TRANSMIT FILE created by modeller version 300031023 SCH_3000310_30000_1300
6205 0 12 33 CCCCCCI4 mesh1006 0 I8 polyline1008 0 CCCCCCCDI5 owner1040 0 CCCCCC
I13 boundary_mesh1006 0 I17 boundary_polyline1008 0 CCCA16 index_map_offset0 0 1
 dA9 index_map82 0 A17 node_id_index_map82 0 A20 schema_embedding_map82 0 A5 chi
ld12 0 A14 lowest_node_id0 0 1 dZ1 1142 2 3 0 0 0 0 0 0 1e3 1e-8 0 4 0 1 0 1 1 5
 6 7 8 0 0 9 10 11 0 0 0 0 0 0 81 255 2 2 992 12 1 0 0 0 0 13 0 70 11 CI9 list_t
ype0 0 1 uI10 notransmit0 0 1 lCCCDCCDI12 finger_index0 0 1 dI12 finger_block101
2 0 CZ3 0 4 T1 0 0 3 20 1 14 14 13 255 5 94 0 1 0 15 0 0 16 0 50 255 6 460 0 17
 18 0 0 --.0068 -.0066 .00416 .70710678118655 .707106781186545 0 0 0 -1 31 255 7
 929 0 10 19 0 0 -0 .0016 0 0 0 1 1 0 0 4e-4 29 255 8 513 0 11 20 0 .00796051224
213829 -.01 0 19 8 CCCCCCCA5 owner12 0 Z9 28 0 1 16 0 21 V0 16 255 10 926 0 ?22
 0 23 7 0 0 1 18 255 11 511 0 24 0 25 8 ?1 17 255 24 0 26 27 28 11 29 30 0 31 -1
8 25 505 0 32 11 33 20 ?1 17 32 0 34 35 36 25 37 38 0 39 -18 33 499 0 40 25 41 4
2 ?1 29 20 507 0 25 42 8 .01 .00796690475583121 0 29 42 501 0 33 43 20 -.0079669
0475583121 .01 0 29 43 495 0 41 44 42 -.01 -.00796690475583121 0 18 41 493 0 45
 33 46 43 ?1 29 44 402 0 46 47 43 -.0073 -.0061 .00415 18 46 400 0 48 41 49 44 ?
1 29 47 394 0 49 50 44 -.0068 -.0066 .00415 18 49 392 0 51 46 52 47 ?1 29 50 381
 0 52 53 47 -.0068 -.0066 .00416 18 52 379 0 54 49 55 50 ?1 29 53 378 0 55 56 50
 -.0073 -.0061 .00416 18 55 376 0 57 52 58 53 ?1 29 56 370 0 58 59 53 .0073 .007
5 .00416 18 58 368 0 60 55 61 56 ?1 29 59 367 0 61 62 56 .0073 .0075 .00415 18 6
1 365 0 63 58 64 59 ?1 29 62 359 0 64 65 59 .0068 .008 .00416 18 64 357 0 66 61
 67 62 ?1 29 65 356 0 67 68 62 .0068 .008 .00415 18 67 354 0 69 64 70 65 ?1 29 6
8 294 0 71 72 65 -.0073 .008 .00415 18 71 238 0 73 74 75 68 ?1 29 72 296 0 75 76
 68 .0073 -.0066 .00415 18 75 235 0 77 71 78 72 ?1 29 76 298 0 70 79 72 -.0073 .
008 .00416 18 70 241 0 80 67 74 76 ?1 29 79 300 0 74 81 76 .0073 -.0066 .00416 1
8 74 239 0 82 70 71 79 ?1 29 81 866 0 83 84 79 -.00796690475583122 -.01 .00415 1
8 83 781 0 85 78 86 81 ?1 29 84 868 0 86 87 81 -.01 -.00796690475583121 .00415 1
8 86 779 0 88 83 89 84 ?1 29 87 869 0 78 90 84 -.00796690475583122 -.01 0 18 78
 778 0 91 75 83 87 ?1 29 90 872 0 92 93 87 -.01 .00796690475583121 .00415 18 92
 643 0 94 95 96 90 ?1 29 93 874 0 96 97 90 -.00796690475583121 .01 .00415 18 96
 641 0 98 92 0 93 ?1 29 97 875 0 95 99 93 -.01 .00796690475583121 0 18 95 640 0
 100 101 92 97 ?1 29 99 878 0 102 103 97 .00796690475583121 .01 .00415 18 102 68
9 0 104 105 101 99 ?1 29 103 880 0 101 106 99 .01 .00796690475583121 .00415 18 1
01 687 0 36 102 95 103 ?1 29 106 881 0 105 107 103 .00796690475583121 .01 0 18 1
05 686 0 35 108 102 106 ?1 29 107 884 0 109 110 106 .0079605122421383 -.01 .0041
5 18 109 735 0 28 89 108 107 ?1 29 110 885 0 108 111 107 .01 -.00796051224213831
 .00415 18 108 737 0 112 109 105 110 ?1 29 111 888 0 89 0 110 .01 -.007960512242
13831 0 18 89 734 0 27 86 109 111 ?1 17 27 0 26 112 24 89 31 113 0 114 -15 255 2
6 745 0 28 115 0 17 112 0 26 28 27 108 114 116 0 117 +17 31 0 118 119 120 11 27
 113 0 121 +16 113 715 0 ?31 116 122 123 0 0 1 17 114 0 124 125 126 89 112 116 0
 120 -15 124 562 0 37 127 0 17 125 0 124 37 114 25 120 128 0 0 +17 126 0 124 114
 37 108 129 130 0 0 -16 116 722 0 ?112 30 113 131 0 0 1 17 120 0 118 31 39 89 12
5 128 0 0 -15 118 44 0 132 133 0 17 39 0 118 120 134 25 35 135 0 125 +16 128 503
 0 ?125 136 137 138 0 0 1 16 136 497 0 ?139 140 128 141 0 0 1 16 137 509 0 ?121
 128 142 143 0 0 1 30 255 138 67 0 128 143 141 0 +.01 .01 0 0 1 0 30 143 68 0 13
7 144 138 0 +-.01 -.01 0 1 0 0 30 141 66 0 136 138 145 0 +-.01 .01 0 -1 0 0 31 1
45 329 0 146 141 147 0 -0 .0016 .00416 0 0 1 1 0 0 .001633330601085555 16 146 32
6 0 ?148 149 150 145 0 0 1 30 147 362 0 149 145 151 0 +.0068 .008 .00416 0 0 -1
 16 149 360 0 ?152 153 146 147 0 0 1 30 151 373 0 153 147 154 0 +.0073 .0075 .00
416 0 0 1 16 153 371 0 ?60 155 149 151 0 0 1 30 154 384 0 155 151 156 0 --.0067
 -.0067 .00416 -.707106781186545 .70710678118655 0 16 155 382 0 ?54 157 153 154
 0 0 1 30 156 389 0 157 154 158 0 -.0074 .0074 .00416 .707106781186545 -.7071067
8118655 0 16 157 387 0 ?66 159 155 156 0 0 1 30 158 397 0 159 156 160 0 +-.0068
 -.0066 .00416 0 0 -1 16 159 395 0 ?161 162 157 158 0 0 1 30 160 405 0 162 158 1
63 0 +-.0073 -.0061 .00416 0 0 1 16 162 403 0 ?57 164 159 160 0 0 1 30 163 416 0
 164 160 19 0 -.0068 .008 .00415 -.707106781186545 .70710678118655 0 16 164 408
 0 ?63 23 162 163 0 0 1 30 19 417 0 23 163 7 0 --.0068 -.0066 .00415 .7071067811
86545 -.70710678118655 0 16 23 412 0 ?48 10 164 19 0 0 1 17 48 0 165 166 167 46
 51 23 0 168 +15 165 185 0 167 169 0 17 166 0 165 170 48 71 168 171 0 0 -17 167
 0 165 48 172 49 77 173 0 0 -17 51 0 174 175 176 49 48 23 0 161 -17 168 0 177 57
 178 46 166 171 0 176 +15 177 252 0 168 179 0 17 57 0 177 180 168 55 176 162 0 1
81 +17 178 0 177 168 180 71 182 183 0 166 +16 171 206 0 ?168 173 184 185 0 0 1 1
7 176 0 174 51 186 46 57 162 0 0 -15 174 449 0 186 17 0 17 186 0 174 176 175 55
 54 155 0 0 -17 175 0 174 186 51 52 161 159 0 0 -17 54 0 187 82 181 52 186 155 0
 188 +15 187 268 0 189 190 0 17 82 0 187 189 54 74 188 191 0 192 +17 181 0 187 5
4 80 55 180 193 0 186 +17 188 0 194 161 192 52 82 191 0 175 -15 194 256 0 188 19
5 0 17 161 0 194 77 188 49 175 159 0 167 +17 192 0 194 188 77 74 196 197 0 198 -
16 191 380 0 ?82 199 193 200 0 0 1 16 199 228 0 ?189 201 191 202 0 0 1 16 193 22
2 0 ?181 191 203 204 0 0 1 30 200 292 0 191 204 202 0 +-.0073 -.0066 .00416 1 0
 0 30 204 293 0 193 205 200 0 +-.0073 .008 .00416 1188166764367676e-31 -1 0 30 2
02 291 0 199 200 206 0 +.0073 .008 .00416 -1188166764367676e-31 1 0 30 206 290 0
 201 202 185 0 +-.0073 .008 .00416 -1 0 0 16 201 358 0 ?80 183 199 206 0 0 1 30
 185 289 0 171 206 207 0 +-.0073 .008 .00415 1188166764367676e-31 -1 0 30 207 28
8 0 173 185 208 0 +-.0073 -.0066 .00415 1 0 0 16 173 393 0 ?77 209 171 207 0 0 1
 30 208 287 0 209 207 210 0 +.0073 .008 .00415 -1188166764367676e-31 1 0 16 209
 214 0 ?211 203 173 208 0 0 1 30 210 286 0 203 208 212 0 +-.0073 .008 .00415 -1
 0 0 16 203 355 0 ?73 193 209 210 0 0 1 30 212 285 0 183 210 213 0 +-.0073 .008
 .00416 0 0 -1 16 183 209 0 ?178 197 201 212 0 0 1 30 213 283 0 197 212 214 0 +.
0073 -.0066 .00416 0 0 -1 16 197 217 0 ?196 215 183 213 0 0 1 31 214 162 0 215 2
13 216 0 +0 .0016 .0045 0 0 1 1 0 0 .001125 16 215 142 0 ?217 142 197 214 0 0 1
 30 216 5 0 140 214 218 0 +-.01 .01 .00415 867361737988404e-31 -1 0 16 140 583 0
 ?219 220 136 216 0 0 1 30 218 8 0 220 216 221 0 +-.01 -.01 .00415 1 0 0 16 220
 567 0 ?222 130 140 218 0 0 1 30 221 11 0 130 218 223 0 +.01 .01 .00415 0 1 0 16
 130 551 0 ?129 150 220 221 0 0 1 30 223 14 0 150 221 144 0 +-.01 .01 .00415 -1
 0 0 16 150 535 0 ?224 146 130 223 0 0 1 30 144 69 0 142 223 143 0 +-.01 .01 0 8
67361737988404e-31 -1 0 16 142 491 0 ?225 137 215 144 0 0 1 17 225 0 226 227 228
 41 132 142 0 0 +15 226 589 0 229 15 0 17 227 0 226 229 225 86 45 230 0 219 +17
 228 0 226 225 229 95 94 231 0 132 -17 132 0 118 232 233 95 225 142 0 0 -17 232
 0 118 134 132 33 100 234 0 139 +17 233 0 118 132 119 41 91 235 0 225 +17 119 0
 118 233 31 78 121 137 0 0 -17 91 0 236 85 45 78 233 235 0 237 -16 235 757 0 ?23
3 230 238 239 0 0 1 16 230 760 0 ?227 184 235 205 0 0 1 16 238 769 0 ?88 235 30
 240 0 0 1 31 239 838 0 235 241 240 0 +-.00796690475583122 -.00796690475583121 0
 0 0 -1 -1 0 0 .00203309524416879 30 241 839 0 242 243 239 0 +-.0079669047558312
1 .01 0 0 0 1 31 240 835 0 238 239 244 0 +-.00796690475583122 -.0079669047558312
1 .00415 0 0 -1 -1 0 0 .00203309524416879 30 244 832 0 184 240 205 0 +-.00796690
475583122 -.01 0 0 0 1 16 184 764 0 ?85 171 230 244 0 0 1 30 205 830 0 230 244 2
04 0 +-.01 -.00796690475583121 0 0 0 1 17 85 0 236 88 91 83 237 184 0 245 +15 23
6 787 0 88 246 0 17 88 0 236 45 85 86 245 238 0 227 +17 237 0 247 121 248 78 85
 184 0 119 -17 245 0 249 222 219 83 88 238 0 248 -15 249 614 0 250 169 165 17 22
2 0 249 117 245 109 248 220 0 0 +17 219 0 249 245 250 86 229 140 0 0 +17 248 0 2
47 237 29 83 222 220 0 0 -15 247 82 0 121 251 0 17 29 0 247 248 121 109 24 30 0
 222 +17 121 0 247 29 237 11 119 137 0 0 +16 30 718 0 ?29 238 116 252 0 0 1 30 2
52 859 0 30 253 131 0 +.0079605122421383 -.01 0 0 0 1 30 253 860 0 122 123 252 0
 +.0079605122421383 -.01 .00415 -.707106781186549 -.707106781186546 0 30 131 858
 0 116 252 254 0 +.01 -.00796051224213831 0 0 0 1 31 254 856 0 135 131 255 0 +.0
0796690475583121 .00796690475583121 0 0 0 -1 -1 0 0 .00203309524416879 16 135 66
5 0 ?39 38 256 254 0 0 1 31 255 853 0 256 254 257 0 +.00796690475583121 .0079669
0475583121 .00415 0 0 -1 -1 0 0 .00203309524416879 16 256 677 0 ?36 135 231 255
 0 0 1 30 257 850 0 258 255 259 0 +.00796690475583121 .01 0 0 0 1 16 258 672 0 ?
104 122 38 257 0 0 1 30 259 848 0 38 257 260 0 +.01 .00796690475583121 0 0 0 1 1
6 38 668 0 ?37 258 135 259 0 0 1 31 260 847 0 234 259 261 0 +-.00796690475583121
 .00796690475583121 0 0 0 -1 -1 0 0 .00203309524416879 16 234 619 0 ?232 242 262
 260 0 0 1 31 261 844 0 262 260 243 0 +-.00796690475583121 .00796690475583121 .0
0415 0 0 -1 -1 0 0 .00203309524416879 16 262 631 0 ?98 234 263 261 0 0 1 30 243
 841 0 231 261 241 0 +-.01 .00796690475583121 0 0 0 1 16 231 626 0 ?94 256 242 2
43 0 0 1 17 94 0 264 98 100 92 228 231 0 250 +16 242 622 0 ?265 231 234 241 0 0
 1 17 265 0 266 267 139 96 40 242 0 224 +15 266 546 0 265 268 0 17 267 0 266 269
 265 102 224 150 0 0 -17 139 0 266 265 269 33 134 136 0 0 +17 40 0 264 100 98 33
 265 242 0 232 -17 224 0 249 250 270 96 267 150 0 0 +17 250 0 249 219 224 92 98
 262 0 229 -17 270 0 249 224 129 102 36 256 0 267 -17 129 0 249 270 117 101 126
 130 0 0 +17 36 0 34 32 104 101 270 256 0 37 +15 34 695 0 36 271 0 17 104 0 34 3
6 35 102 269 258 0 270 +17 37 0 124 126 125 101 32 38 0 129 +17 35 0 34 104 32 1
05 39 135 0 269 -17 269 0 266 139 267 105 104 258 0 134 -17 134 0 118 39 232 105
 139 136 0 0 -14 255 271 692 272 ?273 115 34 5 274 -0 0 273 115 21 81 1 272 1122
 275 271 276 0 0 277 278 14 273 646 277 ?279 271 264 5 280 -0 0 279 271 21 14 11
5 742 281 ?271 246 26 5 282 -0 0 271 246 21 51 255 274 820 0 271 282 280 0 -.007
96690475583121 .00796690475583121 0 0 0 1 .00203309524416879 1 0 0 13 21 29 0 0
 0 0 0 0 9 15 14 15 591 283 ?127 0 226 5 284 -0 0 127 0 21 81 1 283 1125 275 15
 285 0 281 286 287 14 127 564 286 ?268 15 124 5 288 -0 0 268 15 21 50 284 89 0 1
5 289 290 0 +-.01 .01 .00415 1 867361737988404e-31 0 -867361737988404e-31 1 0 50
 289 88 0 251 288 284 0 +-.01 -.01 .00415 0 1 0 0 0 1 54 255 290 345 0 291 284 1
8 0 +0 .0016 .00471 0 0 1 .001633330601085555 55e-5 1 0 0 14 291 338 292 ?293 29
4 295 5 290 -0 0 293 294 21 50 18 439 0 293 290 6 0 -.0068 .008 .00416 -.7071067
8118655 -.707106781186545 0 0 0 -1 14 293 427 296 ?17 291 297 5 18 +0 0 17 291 2
1 81 1 296 1128 275 293 298 0 292 299 300 14 17 448 299 ?246 293 174 5 6 +0 0 24
6 293 21 15 297 428 0 301 293 0 17 301 0 297 302 303 58 66 157 0 0 -17 302 0 297
 69 301 61 60 153 0 0 -17 303 0 297 301 69 64 152 149 0 0 -17 66 0 187 80 189 64
 301 157 0 304 +17 80 0 187 181 66 70 304 201 0 182 +17 189 0 187 66 82 58 198 1
99 0 301 +17 304 0 305 152 182 64 80 201 0 303 -15 305 264 0 304 306 0 17 152 0
 305 73 304 67 303 149 0 170 +17 182 0 305 304 73 70 178 183 0 180 -17 73 0 305
 182 152 71 170 203 0 178 +17 180 0 177 178 57 70 181 193 0 0 -17 170 0 165 63 1
66 67 73 203 0 0 -17 63 0 165 172 170 61 69 164 0 211 +17 172 0 165 167 63 75 21
1 209 0 0 -17 69 0 297 303 302 67 63 164 0 152 -17 211 0 307 60 196 61 172 209 0
 302 +15 307 260 0 211 308 0 17 60 0 307 198 211 58 302 153 0 189 +17 196 0 307
 211 198 75 192 197 0 172 +17 198 0 307 196 60 74 189 199 0 0 -14 308 257 309 ?3
06 195 307 5 310 -0 0 306 195 21 81 1 309 1130 275 308 311 0 299 312 313 14 306
 261 312 ?190 308 305 5 314 -0 0 190 308 21 14 195 253 315 ?308 179 194 5 316 -0
 0 308 179 21 50 310 277 0 308 314 316 0 +.0073 .008 .00416 -1 -1188166764367676
e-31 0 1188166764367676e-31 -1 0 50 314 278 0 306 317 310 0 +-.0073 .008 .00416
 0 -1 0 0 0 -1 50 316 276 0 195 310 318 0 +-.0073 -.0066 .00416 0 1 0 0 0 1 50 3
18 275 0 179 316 319 0 +-.0073 .008 .00416 1 1188166764367676e-31 0 -11881667643
67676e-31 1 0 14 179 249 320 ?195 133 177 5 318 -0 0 195 133 21 50 319 160 0 294
 318 321 0 +0 .0016 .0045 0 0 1 1 0 0 14 294 150 322 ?291 190 323 5 319 +0 0 291
 190 21 50 321 2 0 169 319 324 0 +0 0 .00415 0 0 1 1 0 0 14 169 202 325 ?251 268
 249 5 321 +0 0 251 268 21 50 324 65 0 133 321 326 0 +0 0 0 0 0 1 1 0 0 14 133 4
3 327 ?179 251 328 5 324 -0 0 179 251 21 50 326 86 0 268 324 288 0 +-.01 .01 .00
415 0 -1 0 0 0 -1 14 268 548 329 ?169 127 266 5 326 -0 0 169 127 21 50 288 87 0
 127 326 289 0 +.01 .01 .00415 -1 0 0 0 0 1 81 1 329 1137 275 268 330 0 327 331
 332 80 255 1 275 333 334 9000 1 1 1 1 1 1 1 1 0 FFFFTFTFFFFFFF1 81 1 330 1059 3
35 268 0 329 336 337 338 81 1 327 1136 275 133 339 0 325 329 340 81 1 331 1138 2
75 251 341 0 329 342 343 82 255 1 332 -1906442101 14 251 83 331 ?133 169 247 5 2
89 -0 0 133 169 21 81 1 341 1061 335 251 0 331 337 339 344 81 1 342 1139 275 190
 345 0 331 346 347 82 1 343 -1430519669 14 190 265 342 ?294 306 348 5 317 +0 0 2
94 306 21 81 1 345 1067 335 190 0 342 349 350 351 81 1 346 1140 275 246 352 0 34
2 353 354 82 1 347 -1669398392 14 246 784 346 ?115 17 236 5 355 -0 0 115 17 21 8
1 1 352 1072 335 246 0 346 356 357 358 81 1 353 1141 275 279 359 0 346 360 361 8
2 1 354 -1943273333 14 279 939 353 ?362 273 363 5 364 -0 0 362 273 21 81 1 359 1
076 335 279 0 353 365 366 367 81 1 360 1142 275 362 366 0 353 0 368 82 1 361 597
295246 14 362 944 360 ?0 279 369 5 370 +0 0 0 279 21 81 1 366 1077 335 362 0 360
 359 0 371 82 1 368 595329166 80 1 335 0 372 8001 0 0 0 0 3 5 0 0 0 FFFFTFTFFFFF
FF2 83 255 3 371 .823529411764706 .819607843137255 .780392156862745 79 255 15 37
2 SDL/TYSA_COLOUR15 369 946 0 373 362 0 50 370 954 0 362 0 364 0 +0 .0016 -.002
 0 0 -1 -1 0 0 51 364 952 0 279 370 282 0 -0 .0016 -.002 0 0 1 4e-4 1 0 0 50 282
 827 0 115 364 274 0 +.0079605122421383 -.01 0 -.707106781186546 .70710678118654
9 0 -.707106781186549 -.707106781186546 0 17 373 0 369 373 373 0 374 263 0 0 +17
 374 0 363 374 374 0 373 263 0 0 -16 263 936 0 ?373 262 0 375 0 0 1 31 375 956 0
 263 0 123 0 +0 .0016 -.002 0 0 -1 -1 0 0 4e-4 30 123 863 0 113 375 253 0 +.0079
605122421383 -.01 0 -.707106781186549 -.707106781186546 0 15 363 942 0 374 279 3
76 15 376 943 0 22 279 0 17 22 0 376 22 22 0 377 10 0 0 +17 377 0 328 377 377 0
 22 10 0 0 -15 328 928 0 377 133 118 81 1 365 1075 335 273 0 277 276 359 378 83
 3 367 .823529411764706 .819607843137255 .780392156862745 81 1 277 1123 275 273
 365 0 272 281 379 81 1 276 1074 335 271 0 272 357 365 380 83 3 378 .29803921568
62745 .2980392156862745 .2980392156862745 81 1 357 1073 335 115 0 281 352 276 38
1 83 3 380 .2980392156862745 .2980392156862745 .2980392156862745 81 1 281 1124 2
75 115 357 0 277 283 382 83 3 381 .2980392156862745 .2980392156862745 .298039215
6862745 82 1 382 -1934557045 82 1 379 -1916469109 81 1 356 1071 335 17 0 299 298
 352 383 83 3 358 .2980392156862745 .2980392156862745 .2980392156862745 81 1 299
 1129 275 17 356 0 296 309 384 81 1 298 1070 335 293 0 296 385 356 386 83 3 383
 .894117647058824 .913725490196078 .929411764705882 81 1 385 1069 335 291 0 292
 350 298 387 83 3 386 .894117647058824 .913725490196078 .929411764705882 81 1 29
2 1127 275 291 385 0 286 296 388 81 1 350 1068 335 294 0 322 345 385 389 83 3 38
7 .823529411764706 .819607843137255 .780392156862745 81 1 322 1134 275 294 350 0
 320 325 390 83 3 389 .823529411764706 .819607843137255 .780392156862745 81 1 32
0 1133 275 179 391 0 315 322 392 81 1 325 1135 275 169 337 0 322 327 393 82 1 39
0 1488519297 81 1 337 1060 335 169 0 325 330 341 394 82 1 393 -1655701365 83 3 3
94 .2980392156862745 .2980392156862745 .2980392156862745 81 1 391 1063 335 179 0
 320 339 395 396 81 1 315 1132 275 195 395 0 312 320 397 82 1 392 -1662058360 81
 1 395 1064 335 195 0 315 391 311 398 81 1 312 1131 275 306 349 0 309 315 399 82
 1 397 -1662320504 81 1 349 1066 335 306 0 312 311 345 400 82 1 399 -1662844792
 81 1 311 1065 335 308 0 309 395 349 401 83 3 400 .894117647058824 .913725490196
078 .929411764705882 83 3 401 .894117647058824 .913725490196078 .929411764705882
 83 3 398 .894117647058824 .913725490196078 .929411764705882 81 1 339 1062 335 1
33 0 327 341 391 402 83 3 396 .894117647058824 .913725490196078 .929411764705882
 83 3 402 .2980392156862745 .2980392156862745 .2980392156862745 81 1 286 1126 27
5 127 336 0 283 292 403 82 1 388 -1118306170 81 1 336 1058 335 127 0 286 285 330
 404 82 1 403 -1904869237 81 1 285 1057 335 15 0 283 0 336 405 83 3 404 .2980392
156862745 .2980392156862745 .2980392156862745 83 3 405 .2980392156862745 .298039
2156862745 .2980392156862745 82 1 384 -416546680 51 355 810 0 246 280 317 0 --.0
0796690475583122 -.00796690475583121 0 0 0 1 .00203309524416879 1 0 0 51 280 815
 0 273 274 355 0 --.00796690475583121 .00796690475583121 0 0 0 1 .00203309524416
879 1 0 0 50 317 280 0 190 355 314 0 +0 0 .00416 0 0 1 1 0 0 83 3 351 .894117647
058824 .913725490196078 .929411764705882 15 348 327 0 148 190 187 17 148 0 348 1
48 148 0 406 146 0 0 +17 406 0 295 406 406 0 148 146 0 0 -15 295 339 0 406 291 4
07 15 407 340 0 408 291 0 17 408 0 407 408 408 0 217 215 0 0 -17 217 0 323 217 2
17 0 408 215 0 0 +15 323 152 0 217 294 0 83 3 344 .2980392156862745 .29803921568
62745 .2980392156862745 82 1 340 -1431961458 83 3 338 .2980392156862745 .2980392
156862745 .2980392156862745 79 14 334 SWEntUnchanged82 1 313 -1662582648 82 1 30
0 -418512760 82 1 287 -1902182261 15 264 649 0 98 273 0 17 98 0 264 40 94 96 250
 262 0 265 +82 1 278 -1925382005 17 117 0 249 129 222 108 28 122 0 126 -17 28 0
 26 24 112 109 117 122 0 29 +16 122 729 0 ?28 113 258 253 0 0 1 17 229 0 226 228
 227 92 219 140 0 0 -17 100 0 264 94 40 95 232 234 0 228 -17 45 0 236 91 88 41 2
27 230 0 233 -17 77 0 194 192 161 75 167 173 0 196 +19 16 95 0 1 0 9 5 S0 74 4 C
I16 index_map_offset0 0 1 dCCZ20 14 3 0 0 360 2 366 0 0 0 0 0 0 0 0 0 0 0 0 0 0
 0 0 0 80 2 12 409 410 8004 0 0 0 0 3 5 0 0 0 FFTFFFFFFFFFFF2 3 83 1 13 1 79 16
 410 SDL/TYSA_DENSITY1 0 
