**ABCDEFGHIJKLMNOPQRSTUVWXYZabcdefghijklmnopqrstuvwxyz**************************
**PARASOLID !"#$%&'()*+,-./:;<=>?@[\]^_`{|}~0123456789**************************
**PART1;
MC=AMD64;
MC_MODEL=Intel64 Family 6 Model 158 Stepping 13, GenuineIntel;
MC_ID=unknown;
OS=Windows_NT;
OS_RELEASE=unknown;
FRU=Parasolid Version 33.1, build 260,  4-25-2022;
APPL=SOLIDWORKS 2022-2022207;
SITE=;
USER=unknown;
FORMAT=text;
GUISE=transmit;
KEY=FILEPLS_PLS-01R.x_t;
DATE=Mon Jul 22 15:45:43 2024;
**PART2;
SCH=SCH_3301260_33103;
USFLD_SIZE=0;
**PART3;
**END_OF_HEADER*****************************************************************
T51 : TRANSMIT FILE created by modeller version 330126023 SCH_3301260_33103_1300
6230 0 12 35 CCCI7 lattice222 0 CCCI4 mesh1006 0 I8 polyline1008 0 CCCCCCCDI5 ow
ner1040 0 CCCCCCI13 boundary_mesh1006 0 I17 boundary_polyline1008 0 CCCA16 index
_map_offset0 0 1 dA9 index_map82 0 A17 node_id_index_map82 0 A20 schema_embeddin
g_map82 0 A5 child12 0 A14 lowest_node_id0 0 1 dA16 mesh_offset_data206 0 Z1 147
1 2 3 0 0 0 0 0 0 0 1e3 1e-8 0 4 0 1 0 1 1 5 6 7 8 0 0 9 10 11 0 0 0 0 0 0 0 81
 255 2 2 1421 12 1 13 0 0 0 0 14 70 11 CI9 list_type0 0 1 uI10 notransmit0 0 1 l
CCCDCCDI12 finger_index0 0 1 dI12 finger_block1012 0 CZ3 0 4 T1 0 0 11 20 1 15 1
5 13 255 5 174 0 1 0 16 0 0 17 0 50 255 6 1156 18 19 20 0 0 -0 12e-5 .01054 0 -.
707106781186551 -.707106781186544 -1 0 0 30 255 7 1164 0 21 22 0 0 --8e-5 8e-5 .
01058 .577350269189624 -.577350269189624 .577350269189629 29 255 8 1043 0 11 23
 0 32e-5 32e-5 .01034 19 8 CCCCCCCA5 owner12 0 Z9 52 0 1 17 0 24 V0 16 255 10 10
49 0 ?25 0 26 27 0 0 1 18 255 11 1041 0 28 0 29 8 ?1 17 255 28 0 30 31 32 11 33
 26 0 34 +18 29 1033 0 35 11 36 23 ?1 17 35 0 37 38 39 29 40 41 0 32 +18 36 1025
 0 42 29 43 44 ?1 29 23 1035 0 29 44 8 -32e-5 32e-5 .01034 29 44 1027 0 36 45 23
 -32e-5 -32e-5 .01034 29 45 1024 0 43 46 44 32e-5 -32e-5 .01034 18 43 1022 0 25
 36 47 45 ?1 29 46 1015 0 47 48 45 -12e-5 -12e-5 .01054 18 47 1013 0 49 43 50 46
 ?1 29 48 1011 0 50 51 46 -12e-5 12e-5 .01054 18 50 1009 0 52 47 53 48 ?1 29 51
 1007 0 53 54 48 12e-5 12e-5 .01054 18 53 1005 0 55 50 56 51 ?1 29 54 1004 0 56
 57 51 12e-5 -12e-5 .01054 18 56 1002 0 58 53 59 54 ?1 29 57 991 0 59 60 54 32e-
5 .00407 -.00182 18 59 989 0 61 56 62 57 ?1 29 60 983 0 62 63 57 -32e-5 .00407 -
.00182 18 62 981 0 64 59 65 60 ?1 29 63 974 0 65 66 60 -.000119999999999998 .004
27 -.00138 18 65 972 0 67 62 68 63 ?1 29 66 970 0 68 69 63 -.0001199999999999978
 .00427 -.00162 18 68 968 0 70 65 71 66 ?1 29 69 966 0 71 72 66 .000119999999999
998 .00427 -.00162 18 71 964 0 73 68 74 69 ?1 29 72 963 0 74 75 69 .000119999999
999998 .00427 -.00138 18 74 961 0 76 71 77 72 ?1 29 75 955 0 77 78 72 -32e-5 .00
407 -.00118 18 77 953 0 79 74 80 75 ?1 29 78 952 0 80 81 75 32e-5 .00407 -.00118
 18 80 950 0 82 77 83 78 ?1 29 81 664 0 83 84 78 32e-5 32e-5 .00254 18 83 662 0
 31 80 85 81 ?1 29 84 644 0 85 86 81 -32e-5 32e-5 54e-5 18 85 642 0 87 83 88 84
 ?1 29 86 531 0 88 89 84 .00105 -67e-5 8e-4 18 88 529 0 90 85 91 86 ?1 29 89 244
 0 91 92 86 -.00105 67e-5 8e-4 18 91 242 0 93 88 94 89 ?1 29 92 126 0 95 96 89 6
5e-5 .00127 0 18 95 109 0 97 98 99 92 ?1 29 96 128 0 99 100 92 .00105 -87e-5 0 1
8 99 111 0 101 95 102 96 ?1 29 100 129 0 102 103 96 65e-5 -.00127 0 18 102 112 0
 104 99 105 100 ?1 29 103 130 0 105 106 100 -65e-5 -.00127 0 18 105 113 0 107 10
2 108 103 ?1 29 106 133 0 108 109 103 -65e-5 .00127 0 18 108 116 0 110 105 111 1
06 ?1 29 109 51 0 94 112 106 65e-5 .00127 .00254 18 94 49 0 113 91 114 109 ?1 29
 112 48 0 114 115 109 .00105 87e-5 .00254 18 114 46 0 116 94 117 112 ?1 29 115 4
5 0 117 118 112 .00105 -87e-5 .00254 18 117 43 0 119 114 120 115 ?1 29 118 42 0
 120 121 115 65e-5 -.00127 .00254 18 120 40 0 122 117 123 118 ?1 29 121 39 0 123
 124 118 -65e-5 -.00127 .00254 18 123 37 0 125 120 126 121 ?1 29 124 36 0 126 12
7 121 -.00105 -87e-5 .00254 18 126 34 0 128 123 129 124 ?1 29 127 33 0 129 130 1
24 -.00105 87e-5 .00254 18 129 31 0 131 126 98 127 ?1 29 130 30 0 98 132 127 -65
e-5 .00127 .00254 18 98 28 0 133 129 95 130 ?1 29 132 344 0 134 135 130 -.00127
 -67e-5 8e-4 18 134 292 0 136 137 138 132 ?1 29 135 345 0 138 139 132 -.00105 -6
7e-5 8e-4 18 138 294 0 140 134 141 135 ?1 29 139 347 0 141 142 135 -.00127 67e-5
 8e-4 18 141 295 0 143 138 144 139 ?1 29 142 348 0 111 145 139 -.00127 -67e-5 .0
021 18 111 296 0 146 108 147 142 ?1 29 145 349 0 147 148 142 -.00105 -67e-5 .002
1 18 147 291 0 149 111 150 145 ?1 29 148 350 0 150 151 145 -.00105 67e-5 .0021 1
8 150 297 0 152 147 137 148 ?1 29 151 351 0 137 153 148 -.00127 67e-5 .0021 18 1
37 298 0 154 150 134 151 ?1 29 153 488 0 155 156 151 -.00105 87e-5 0 18 155 441
 0 157 158 159 153 ?1 29 156 489 0 159 160 153 -.00105 87e-5 54e-5 18 159 443 0
 161 155 162 156 ?1 29 160 490 0 162 163 156 -.00105 -87e-5 54e-5 18 162 445 0 1
64 159 165 160 ?1 29 163 491 0 165 166 160 -.00105 -87e-5 0 18 165 439 0 167 162
 168 163 ?1 29 166 492 0 144 169 163 .00105 87e-5 -52340794533783e-32 18 144 438
 0 170 141 171 166 ?1 29 169 493 0 171 172 166 .00105 87e-5 54e-5 18 171 440 0 1
73 144 158 169 ?1 29 172 494 0 158 174 169 .00105 -87e-5 54e-5 18 158 442 0 175
 171 155 172 ?1 29 174 608 0 168 176 172 .00105 -67e-5 .0021 18 168 564 0 177 16
5 178 174 ?1 29 176 609 0 178 179 174 .00127 -67e-5 .0021 18 178 566 0 180 168 1
81 176 ?1 29 179 610 0 181 182 176 .00105 67e-5 .0021 18 181 565 0 183 178 184 1
79 ?1 29 182 611 0 184 185 179 .00127 67e-5 .0021 18 184 568 0 186 181 187 182 ?
1 29 185 612 0 187 188 182 .00127 -67e-5 8e-4 18 187 563 0 189 184 190 185 ?1 29
 188 614 0 190 191 185 .00105 67e-5 8e-4 18 190 567 0 192 187 193 188 ?1 29 191
 615 0 193 194 188 .00127 67e-5 8e-4 18 193 570 0 195 190 196 191 ?1 29 194 867
 0 196 197 191 -32e-5 -32e-5 .00254 18 196 729 0 198 193 199 194 ?1 29 197 868 0
 199 200 194 -32e-5 -32e-5 54e-5 18 199 750 0 201 196 202 197 ?1 29 200 869 0 20
2 203 197 32e-5 -32e-5 .00254 18 202 733 0 204 199 205 200 ?1 29 203 870 0 205 2
06 200 32e-5 -32e-5 54e-5 18 205 751 0 207 202 208 203 ?1 29 206 871 0 208 209 2
03 -32e-5 32e-5 .00254 18 208 749 0 210 205 211 206 ?1 29 209 874 0 211 212 206
 32e-5 32e-5 54e-5 18 211 752 0 213 208 214 209 ?1 29 212 876 0 214 215 209 32e-
5 32e-5 -86e-5 18 214 740 0 216 211 217 212 ?1 29 215 877 0 218 219 212 32e-5 64
e-5 -.00118 18 218 748 0 220 221 222 215 ?1 29 219 880 0 217 223 215 32e-5 -32e-
5 -86e-5 18 217 738 0 224 214 225 219 ?1 29 223 881 0 222 226 219 32e-5 64e-5 -.
00182 18 222 747 0 227 218 228 223 ?1 29 226 885 0 225 229 223 -32e-5 -32e-5 -86
e-5 18 225 735 0 230 217 221 226 ?1 29 229 886 0 221 231 226 -32e-5 32e-5 -86e-5
 18 221 732 0 232 225 218 229 ?1 29 231 887 0 228 233 229 -32e-5 64e-5 -.00182 1
8 228 746 0 234 222 235 231 ?1 29 233 888 0 235 0 231 -32e-5 64e-5 -.00118 18 23
5 745 0 236 228 0 233 ?1 17 236 0 237 238 239 235 240 241 0 242 +15 255 237 794
 0 243 244 0 17 238 0 237 243 236 218 245 246 0 247 -17 239 0 237 236 243 77 248
 249 0 240 +17 240 0 250 64 251 77 236 241 0 0 -16 241 954 0 ?236 252 253 254 0
 0 1 17 242 0 255 256 257 235 258 259 0 245 -15 255 797 0 260 261 0 17 256 0 255
 260 242 228 251 252 0 0 +17 257 0 255 242 260 221 262 263 0 258 -17 258 0 264 2
65 245 221 242 259 0 0 +16 259 716 0 ?258 263 246 266 0 0 1 17 245 0 264 258 267
 235 238 246 0 251 +15 264 806 0 265 268 0 17 267 0 264 245 265 218 269 270 0 23
8 -16 246 715 0 ?245 259 271 272 0 0 1 17 251 0 250 240 234 235 256 252 0 0 -15
 250 785 0 240 273 0 17 234 0 250 251 64 228 274 275 0 276 +16 252 710 0 ?256 27
5 241 277 0 0 1 16 275 982 0 ?234 278 252 279 0 0 1 30 277 865 0 252 0 279 0 +-3
2e-5 64e-5 -.00118 8470329472543e-29 179206970658761e-30 -1 30 279 864 0 275 277
 254 0 +-32e-5 .00427 -.00182 0 -1 -179206970658761e-30 30 254 863 0 241 279 280
 0 +-32e-5 .00427 -.00118 0 -1 -179206970658761e-30 30 280 862 0 263 254 281 0 +
-32e-5 32e-5 -86e-5 8470329472543e-29 -1 0 16 263 678 0 ?262 282 259 280 0 0 1 3
1 255 281 861 0 282 280 266 0 +-32e-5 64e-5 -86e-5 -1 0 0 0 0 -1 96e-5 16 282 70
9 0 ?260 283 263 281 0 0 1 31 266 860 0 259 281 284 0 +-32e-5 64e-5 -86e-5 -1 0
 0 0 0 -1 32e-5 30 284 858 0 285 266 286 0 +-32e-5 -32e-5 -86e-5 0 0 1 16 285 67
9 0 ?287 288 289 284 289 289 1 30 286 857 0 290 284 291 0 +-32e-5 32e-5 -86e-5 0
 0 1 16 290 688 0 ?87 289 292 286 292 292 1 30 291 855 0 278 286 293 0 +-32e-5 6
4e-5 -.00182 1 0 0 16 278 712 0 ?294 295 275 291 0 0 1 30 293 854 0 295 291 296
 0 +32e-5 .00427 -.00182 0 -1 -179206970658761e-30 16 295 990 0 ?227 297 278 293
 0 0 1 30 296 853 0 283 293 298 0 +-32e-5 -32e-5 -86e-5 1 0 0 16 283 681 0 ?299
 300 282 296 0 0 1 31 298 852 0 300 296 301 0 +32e-5 64e-5 -86e-5 -1 0 0 0 0 -1
 96e-5 16 300 711 0 ?302 303 283 298 0 0 1 30 301 850 0 304 298 305 0 +32e-5 -32
e-5 -86e-5 0 0 1 16 304 682 0 ?306 307 288 301 288 288 1 30 305 848 0 297 301 30
8 0 +32e-5 64e-5 -.00118 -16940658945086e-29 -179206970658761e-30 1 16 297 714 0
 ?247 271 295 305 0 0 1 30 308 847 0 271 305 309 0 +32e-5 .00427 -.00118 0 -1 -1
79206970658761e-30 16 271 951 0 ?220 246 297 308 0 0 1 30 309 846 0 303 308 310
 0 +32e-5 32e-5 -86e-5 -16940658945086e-29 1 0 16 303 684 0 ?311 270 300 309 0 0
 1 31 310 845 0 270 309 312 0 +32e-5 64e-5 -86e-5 -1 0 0 0 0 -1 32e-5 16 270 713
 0 ?269 313 303 310 0 0 1 30 312 843 0 314 310 272 0 +32e-5 32e-5 -86e-5 0 0 1 1
6 314 685 0 ?315 316 307 312 307 307 1 30 272 841 0 246 312 317 0 +-32e-5 64e-5
 -.00118 -1 0 0 30 317 840 0 313 272 318 0 +-32e-5 32e-5 -86e-5 -1 0 0 16 313 68
7 0 ?319 292 270 317 0 0 1 30 318 838 0 316 317 320 0 +0 32e-5 .00254 1 0 0 16 3
16 727 0 ?321 322 314 318 0 0 1 30 320 837 0 322 318 323 0 +32e-5 54210108624275
2e-34 .00254 16940658945086e-29 -1 0 16 322 724 0 ?324 325 316 320 0 0 1 30 323
 836 0 325 320 326 0 +0 -32e-5 .00254 -1 0 0 16 325 721 0 ?327 328 322 323 0 0 1
 30 326 835 0 328 323 329 0 +-32e-5 -271050543121376e-34 .00254 -847032947254301
e-31 1 0 16 328 718 0 ?330 331 325 326 0 0 1 30 329 607 0 331 326 332 0 +.00105
 -2127181007030205e-34 8e-4 2492418787323e-28 1 -612323399573677e-31 16 331 560
 0 ?333 334 328 329 0 0 1 30 332 606 0 334 329 335 0 +.00127 254498821078818e-33
 8e-4 161821219773956e-30 -1 612323399573677e-31 16 334 559 0 ?336 337 331 332 0
 0 1 30 335 605 0 337 332 338 0 +-758000809799839e-83 67e-5 8e-4 1 -377373430684
139e-63 -616297582203916e-47 16 337 562 0 ?195 339 334 335 0 0 1 30 338 604 0 33
9 335 340 0 +942124781365467e-82 -67e-5 8e-4 1 -377373430684139e-63 -61629758220
3916e-47 16 339 553 0 ?189 341 337 338 0 0 1 30 340 603 0 341 338 342 0 +.00127
 67e-5 .0021 0 -612323399573677e-31 -1 16 341 558 0 ?343 344 339 340 0 0 1 30 34
2 602 0 344 340 345 0 +-758000809799839e-83 67e-5 .0021 1 -377373430684139e-63 -
616297582203916e-47 16 344 557 0 ?186 346 341 342 0 0 1 30 345 601 0 346 342 347
 0 +.00105 67e-5 .0021 0 -612323399573677e-31 -1 16 346 549 0 ?348 349 344 345 0
 0 1 30 347 600 0 349 345 350 0 +.00127 334100863023396e-33 .0021 16182121977395
6e-30 -1 612323399573677e-31 16 349 551 0 ?351 352 346 347 0 0 1 30 350 599 0 35
2 347 353 0 +942124781365467e-82 -67e-5 .0021 1 -377373430684139e-63 -6162975822
03916e-47 16 352 556 0 ?180 354 349 350 0 0 1 30 353 598 0 354 350 355 0 +.00105
 -1331160587584428e-34 .0021 2492418787323e-28 1 -612323399573677e-31 16 354 547
 0 ?356 357 352 353 0 0 1 30 355 597 0 357 353 358 0 +.00105 -67e-5 .0021 0 -612
323399573677e-31 -1 16 357 554 0 ?90 359 354 355 0 0 1 30 358 596 0 359 355 360
 0 +.00127 -67e-5 .0021 0 -612323399573677e-31 -1 16 359 552 0 ?361 362 357 358
 0 0 1 30 360 486 0 363 358 364 0 +.00105 -87e-5 -52340794533783e-32 40155636017
98165e-31 0 1 16 363 422 0 ?365 366 367 360 0 0 1 30 364 485 0 366 360 368 0 +.0
0105 -87e-5 54e-5 0 1 62310469683075e-30 16 366 418 0 ?369 370 363 364 0 0 1 30
 368 484 0 370 364 371 0 +.00105 87e-5 -52340794533783e-32 -4015563601798165e-31
 -200778180089908e-30 -1 16 370 414 0 ?372 373 366 368 0 0 1 30 371 482 0 362 36
8 374 0 +-.00105 -87e-5 0 4015563601798165e-31 0 1 16 362 429 0 ?375 376 359 371
 0 0 1 30 374 481 0 376 371 377 0 +-.00105 -87e-5 54e-5 0 1 62310469683075e-30 1
6 376 432 0 ?378 367 362 374 0 0 1 30 377 480 0 367 374 379 0 +-.00105 87e-5 0 -
4015563601798165e-31 -200778180089908e-30 -1 16 367 435 0 ?157 363 376 377 0 0 1
 30 379 479 0 380 377 381 0 +.00105 87e-5 -52340794533783e-32 -1 0 2492418787323
e-28 16 380 417 0 ?382 383 384 379 0 0 1 30 381 478 0 384 379 385 0 +.00105 87e-
5 54e-5 -1 0 2492418787323e-28 16 384 421 0 ?161 380 386 381 0 0 1 30 385 477 0
 386 381 387 0 +.00105 -87e-5 54e-5 -1 0 2492418787323e-28 16 386 425 0 ?164 384
 373 385 0 0 1 30 387 476 0 373 385 388 0 +.00105 -87e-5 -52340794533783e-32 -1
 0 2492418787323e-28 16 373 413 0 ?167 386 370 387 0 0 1 30 388 343 0 389 387 39
0 0 +-.00127 334100863023396e-33 .0021 -161821219773956e-30 -1 612323399573677e-
31 16 389 278 0 ?146 391 392 388 0 0 1 30 390 342 0 391 388 393 0 +7580008097998
39e-83 67e-5 .0021 -1 -377373430684139e-63 -616297582203916e-47 16 391 285 0 ?15
4 394 389 390 0 0 1 30 393 341 0 394 390 395 0 +-.00105 -1331160587584428e-34 .0
021 -2492418787323e-28 1 -612323399573677e-31 16 394 281 0 ?152 396 391 393 0 0
 1 30 395 340 0 396 393 397 0 +-942124781365467e-82 -67e-5 .0021 -1 -37737343068
4139e-63 -616297582203916e-47 16 396 265 0 ?398 399 394 395 0 0 1 30 397 339 0 3
83 395 400 0 +-.00127 254498821078818e-33 8e-4 -161821219773956e-30 -1 612323399
573677e-31 16 383 261 0 ?401 402 380 397 0 0 1 30 400 338 0 402 397 403 0 +75800
0809799839e-83 67e-5 8e-4 -1 -377373430684139e-63 -616297582203916e-47 16 402 27
4 0 ?143 404 383 400 0 0 1 30 403 337 0 404 400 405 0 +-.00105 -2127181007030205
e-34 8e-4 -2492418787323e-28 1 -612323399573677e-31 16 404 269 0 ?406 392 402 40
3 0 0 1 30 405 336 0 392 403 407 0 +-942124781365467e-82 -67e-5 8e-4 -1 -3773734
30684139e-63 -616297582203916e-47 16 392 288 0 ?408 389 404 405 0 0 1 30 407 335
 0 409 405 410 0 +-.00127 -67e-5 .0021 0 -612323399573677e-31 -1 16 409 268 0 ?1
36 411 412 407 0 0 1 30 410 334 0 412 407 413 0 +-.00105 -67e-5 .0021 0 -6123233
99573677e-31 -1 16 412 273 0 ?414 409 415 410 0 0 1 30 413 333 0 415 410 416 0 +
-.00105 67e-5 .0021 0 -612323399573677e-31 -1 16 415 277 0 ?417 412 399 413 0 0
 1 30 416 332 0 399 413 418 0 +-.00127 67e-5 .0021 0 -612323399573677e-31 -1 16
 399 264 0 ?419 415 396 416 0 0 1 30 418 5 0 420 416 421 0 +-65e-5 .00127 .00254
 -1 0 0 16 420 4 0 ?422 423 424 418 0 0 1 30 421 8 0 423 418 425 0 +-.00105 87e-
5 .00254 -.707106781186548 -.707106781186548 0 16 423 7 0 ?131 426 420 421 0 0 1
 30 425 11 0 426 421 427 0 +-.00105 87e-5 .00254 2492418787323e-28 -1 0 16 426 1
0 0 ?128 428 423 425 0 0 1 30 427 14 0 428 425 429 0 +-.00105 -87e-5 .00254 .707
106781186547 -.707106781186548 0 16 428 13 0 ?125 430 426 427 0 0 1 30 429 17 0
 430 427 431 0 +-65e-5 -.00127 .00254 1 -166800334228539e-30 0 16 430 16 0 ?122
 432 428 429 0 0 1 30 431 20 0 432 429 433 0 +65e-5 -.00127 .00254 .707106781186
547 .707106781186548 0 16 432 19 0 ?119 434 430 431 0 0 1 30 433 23 0 434 431 43
5 0 +.00105 87e-5 .00254 -12462093936615e-29 1 0 16 434 22 0 ?116 436 432 433 0
 0 1 30 435 26 0 436 433 437 0 +65e-5 .00127 .00254 -.707106781186548 .707106781
186547 0 16 436 25 0 ?113 438 434 435 0 0 1 30 437 125 0 411 435 439 0 +-65e-5 .
00127 0 -1 0 0 16 411 105 0 ?440 441 409 437 0 0 1 30 439 124 0 441 437 442 0 +-
.00105 87e-5 0 -.707106781186548 -.707106781186548 0 16 441 101 0 ?443 444 411 4
39 0 0 1 30 442 122 0 444 439 445 0 +-.00105 -87e-5 0 .707106781186547 -.7071067
81186548 0 16 444 93 0 ?107 446 441 442 0 0 1 30 445 121 0 446 442 447 0 +-65e-5
 -.00127 0 1 -166800334228539e-30 0 16 446 89 0 ?104 448 444 445 0 0 1 30 447 12
0 0 448 445 449 0 +65e-5 -.00127 0 .707106781186547 .707106781186548 0 16 448 85
 0 ?450 424 446 447 0 0 1 30 449 118 0 424 447 451 0 +65e-5 .00127 0 -.707106781
186548 .707106781186547 0 16 424 77 0 ?97 420 448 449 0 0 1 30 451 166 0 438 449
 452 0 +65e-5 .00127 .00254 0 0 -1 16 438 134 0 ?453 454 436 451 0 0 1 30 452 16
7 0 454 451 455 0 +.00105 87e-5 .00254 0 0 -1 16 454 135 0 ?456 457 438 452 0 0
 1 30 455 168 0 457 452 458 0 +.00105 -87e-5 .00254 0 0 -1 16 457 136 0 ?459 460
 454 455 0 0 1 30 458 169 0 460 455 461 0 +65e-5 -.00127 .00254 0 0 -1 16 460 13
7 0 ?462 463 457 458 0 0 1 30 461 170 0 463 458 464 0 +-65e-5 -.00127 .00254 0 0
 -1 16 463 138 0 ?465 466 460 461 0 0 1 30 464 171 0 466 461 467 0 +-.00105 -87e
-5 .00254 0 0 -1 16 466 139 0 ?468 469 463 464 0 0 1 30 467 172 0 469 464 470 0
 +-.00105 87e-5 .00254 0 0 -1 16 469 140 0 ?471 472 466 467 0 0 1 30 470 173 0 4
72 467 473 0 +-65e-5 .00127 .00254 0 0 -1 16 472 141 0 ?474 475 469 470 0 0 1 30
 473 645 0 475 470 476 0 +.00105 32e-5 54e-5 -1 0 2492418787323e-28 16 475 643 0
 ?477 478 472 473 0 0 1 30 476 649 0 478 473 479 0 +32e-5 -87e-5 54e-5 -16940658
945086e-29 1 62310469683075e-30 16 478 647 0 ?480 481 475 476 0 0 1 30 479 653 0
 481 476 482 0 +.00105 -32e-5 54e-5 1 0 -2492418787323e-28 16 481 651 0 ?483 484
 478 479 0 0 1 30 482 656 0 484 479 485 0 +-32e-5 -87e-5 54e-5 847032947254301e-
31 -1 -62310469683075e-30 16 484 654 0 ?486 249 481 482 0 0 1 30 485 958 0 249 4
82 487 0 +-32e-5 .00407 -.00118 -1 0 0 16 249 956 0 ?239 488 484 485 0 0 1 30 48
7 967 0 488 485 489 0 +.000119999999999998 .00427 -.00182 16940658945086e-29 179
206970658761e-30 -1 16 488 965 0 ?73 490 249 487 0 0 1 30 489 971 0 490 487 491
 0 +-32e-5 .00427 -.00162 -1 0 0 16 490 969 0 ?70 492 488 489 0 0 1 30 491 975 0
 492 489 493 0 +-.000119999999999998 .00427 -.00118 -847032947254301e-31 -179206
970658761e-30 1 16 492 973 0 ?67 494 490 491 0 0 1 30 493 978 0 494 491 495 0 +3
2e-5 .00427 -.00138 1 0 0 16 494 976 0 ?496 497 492 493 0 0 1 30 495 986 0 497 4
93 498 0 +-32e-5 .00407 -.00182 847032947254301e-31 179206970658761e-30 -1 16 49
7 984 0 ?64 499 494 495 0 0 1 30 498 994 0 499 495 500 0 +32e-5 .00407 -.00182 1
 0 0 16 499 992 0 ?61 501 497 498 0 0 1 30 500 999 0 501 498 502 0 +32e-5 .00407
 -.00118 -16940658945086e-29 -179206970658761e-30 1 16 501 997 0 ?82 503 499 500
 0 0 1 30 502 1008 0 503 500 504 0 +12e-5 2032879073410315e-35 .01054 -169406589
45086e-29 1 0 16 503 1006 0 ?55 505 501 502 0 0 1 30 504 1012 0 505 502 506 0 +0
 12e-5 .01054 -1 0 0 16 505 1010 0 ?52 507 503 504 0 0 1 30 506 1016 0 507 504 5
08 0 +-12e-5 -1016439536705156e-35 .01054 847032947254301e-31 -1 0 16 507 1014 0
 ?49 509 505 506 0 0 1 30 508 1019 0 509 506 510 0 +0 -12e-5 .01054 1 0 0 16 509
 1017 0 ?511 512 507 508 0 0 1 30 510 1030 0 512 508 513 0 +-32e-5 -32e-5 .01034
 -1 0 0 16 512 1028 0 ?514 41 509 510 0 0 1 30 513 1038 0 41 510 515 0 +-32e-5 3
2e-5 .01034 -847032947254301e-31 1 0 16 41 1036 0 ?35 26 512 513 0 0 1 30 515 10
46 0 26 513 27 0 +-32e-5 32e-5 .01034 1 0 0 16 26 1044 0 ?28 10 41 515 0 0 1 30
 27 1051 0 10 515 516 0 +32e-5 32e-5 .01034 16940658945086e-29 -1 0 30 516 1110
 0 517 27 518 0 --32e-5 .00407 -.00118 .577350269189627 .577350269189623 -.57735
0269189628 16 517 1090 0 ?79 519 21 516 0 0 1 30 518 1109 0 519 516 520 0 -32e-5
 .00407 -.00118 .577350269189627 -.577350269189623 .577350269189628 16 519 1088
 0 ?76 521 517 518 0 0 1 30 520 1108 0 521 518 522 0 --32e-5 .00407 -.00182 .577
350269189627 .577350269189623 .577350269189628 16 521 1085 0 ?523 253 519 520 0
 0 1 30 522 1107 0 253 520 524 0 +.0001066666666666656 .004283333333333335 -.001
606666666666665 -.577350269189628 .577350269189622 .577350269189627 16 253 1082
 0 ?525 241 521 522 0 0 1 30 524 1167 0 526 522 527 0 -8e-5 -8e-5 .01058 .577350
269189624 -.577350269189624 -.577350269189629 16 526 1147 0 ?58 528 0 524 0 0 1
 30 527 1166 0 528 524 22 0 --8e-5 -8e-5 .01058 .577350269189624 .57735026918962
4 .577350269189629 16 528 1145 0 ?42 529 526 527 0 0 1 30 22 1165 0 529 527 7 0
 +8e-5 8e-5 .01058 -.577350269189624 -.577350269189624 .577350269189629 16 529 1
142 0 ?530 21 528 22 0 0 1 17 530 0 531 532 533 53 534 529 0 0 +16 21 1139 0 ?53
5 517 529 7 0 0 1 17 535 0 536 40 537 29 538 21 0 0 +15 536 1129 0 535 539 0 17
 40 0 536 540 535 36 35 41 0 514 -17 537 0 536 535 540 50 49 507 0 0 -17 538 0 5
41 542 33 50 535 21 0 537 -15 541 1127 0 534 19 0 17 542 0 541 534 538 53 52 505
 0 530 -17 33 0 541 538 534 29 28 26 0 535 -17 534 0 541 33 542 11 530 529 0 533
 -17 533 0 531 530 543 11 25 10 0 0 -15 531 1131 0 530 544 0 17 543 0 531 533 53
2 43 58 526 0 0 -17 25 0 545 546 34 43 533 10 0 547 +15 545 767 0 34 548 0 17 54
6 0 545 549 25 202 547 288 0 324 -17 34 0 545 25 549 11 31 307 0 534 +17 547 0 5
50 514 204 43 546 288 0 551 +15 550 761 0 547 552 0 17 514 0 550 553 547 36 551
 512 0 39 +17 204 0 550 547 553 202 327 325 0 546 -16 288 680 0 ?547 304 285 301
 304 304 1 17 551 0 554 58 42 43 514 512 0 543 -15 554 1133 0 42 555 0 17 58 0 5
54 556 551 56 543 526 0 532 +17 42 0 554 551 556 36 540 528 0 40 +17 556 0 554 4
2 58 47 511 509 0 0 -17 540 0 536 537 40 47 42 528 0 556 -17 511 0 557 55 49 56
 556 509 0 0 +15 557 1003 0 49 558 0 17 55 0 557 52 511 53 532 503 0 542 +17 49
 0 557 511 52 47 537 507 0 540 +17 52 0 557 49 55 50 542 505 0 538 +17 532 0 531
 543 530 56 55 503 0 511 -14 255 558 780 559 ?560 561 557 5 562 +0 0 560 561 24
 81 1 559 1422 563 558 564 0 0 565 566 14 560 1069 565 ?567 558 568 5 569 +0 0 5
67 558 24 14 561 771 570 ?558 548 30 5 571 +572 572 558 548 24 50 562 822 0 558
 571 573 0 +0 0 .01054 0 0 1 1 0 0 13 24 53 0 0 0 0 0 0 9 16 14 16 380 574 ?575
 0 576 5 577 +578 578 575 0 24 81 1 574 1425 563 16 579 0 570 580 581 14 575 257
 580 ?582 16 583 5 584 -0 0 582 16 24 15 576 383 0 382 16 0 50 577 117 0 578 585
 586 0 +0 0 0 0 0 -1 -1 0 0 14 578 75 587 ?588 589 590 5 577 +16 16 588 589 24 8
1 1 587 1427 563 578 591 0 580 592 593 14 588 299 592 ?594 578 595 5 596 -0 0 59
4 578 24 14 589 1 597 ?578 598 599 5 585 -0 0 578 598 24 15 590 378 0 600 578 0
 17 600 0 590 601 602 99 167 373 0 450 -17 601 0 590 603 600 102 450 448 0 0 -17
 602 0 590 600 603 165 107 444 0 0 -17 167 0 604 375 101 165 600 373 0 605 +17 4
50 0 606 365 462 99 601 448 0 0 +15 606 146 0 450 607 0 17 365 0 606 608 450 158
 101 363 0 459 +17 462 0 606 450 609 102 610 460 0 601 +17 609 0 606 462 608 120
 119 432 0 0 -17 610 0 611 612 104 120 462 460 0 609 -15 611 148 0 104 613 0 17
 612 0 611 465 610 123 122 430 0 0 -17 104 0 611 610 465 102 603 446 0 462 +17 4
65 0 611 104 612 105 614 463 0 603 +17 603 0 590 602 601 105 104 446 0 0 -17 614
 0 615 616 107 123 465 463 0 612 -15 615 150 0 107 617 0 17 616 0 615 468 614 12
6 125 428 0 0 -17 107 0 615 614 605 105 602 444 0 465 +17 605 0 615 107 468 165
 375 362 0 602 -17 468 0 615 605 616 162 618 466 0 0 +17 375 0 604 175 167 162 6
05 362 0 619 +15 604 461 0 375 620 0 17 175 0 604 101 375 158 164 386 0 621 -17
 619 0 583 618 471 162 378 376 0 468 -15 583 152 0 471 575 622 17 618 0 583 623
 619 126 468 466 0 616 -17 471 0 583 619 623 159 624 469 0 0 +17 378 0 625 173 1
64 159 619 376 0 626 +15 625 457 0 378 627 0 17 173 0 625 621 378 171 161 384 0
 628 -17 164 0 625 378 621 162 175 386 0 375 +17 626 0 629 624 443 159 157 367 0
 471 -15 629 154 0 443 630 0 17 624 0 629 133 626 129 471 469 0 623 -17 443 0 62
9 626 474 155 110 441 0 0 +17 157 0 631 170 161 155 626 367 0 382 +15 631 453 0
 157 632 0 17 170 0 631 628 157 144 382 380 0 372 -17 161 0 631 157 628 159 173
 384 0 378 +17 382 0 576 110 633 155 170 380 0 443 +17 110 0 576 634 382 108 443
 441 0 474 -17 633 0 576 382 634 144 97 424 0 0 -17 634 0 576 633 110 95 440 411
 0 0 -17 97 0 635 636 372 95 633 424 0 453 +15 635 142 0 97 598 0 17 636 0 635 6
37 97 94 453 438 0 638 -17 372 0 635 97 456 144 628 370 0 633 +17 453 0 639 440
 638 95 636 438 0 634 +15 639 156 0 440 582 0 17 440 0 639 640 453 108 634 411 0
 0 +17 638 0 639 453 640 94 422 420 0 0 -17 640 0 639 638 440 98 474 472 0 0 -17
 422 0 641 131 113 98 638 420 0 640 +15 641 3 0 422 589 0 17 131 0 641 128 422 1
29 133 423 0 624 +17 113 0 641 422 116 94 637 436 0 636 +17 116 0 641 113 119 11
4 642 434 0 643 +17 637 0 635 456 636 114 113 436 0 0 -17 456 0 635 372 637 171
 643 454 0 0 +17 643 0 644 642 369 114 456 454 0 637 -15 644 144 0 459 645 0 17
 642 0 644 459 643 117 116 434 0 0 -17 369 0 644 643 459 171 621 366 0 456 +17 4
59 0 644 369 642 158 608 457 0 0 +17 621 0 625 164 173 158 369 366 0 365 -17 608
 0 606 609 365 117 459 457 0 642 -14 645 145 646 ?598 607 647 5 648 -0 0 598 607
 24 81 1 646 1430 563 645 649 0 597 650 651 14 598 143 650 ?589 645 635 5 586 -0
 0 589 645 24 14 607 147 652 ?645 613 606 5 653 -0 0 645 613 24 15 647 527 0 654
 645 644 50 648 159 0 645 586 653 0 +.00105 87e-5 .00254 -1 -12462093936615e-29
 0 12462093936615e-29 -1 0 50 586 158 0 598 577 648 0 +65e-5 .00127 .00254 -.707
106781186547 -.707106781186548 0 .707106781186548 -.707106781186547 0 50 653 160
 0 607 648 655 0 +65e-5 -.00127 .00254 -.707106781186548 .707106781186547 0 -.70
7106781186547 -.707106781186548 0 50 655 161 0 613 653 656 0 +-65e-5 -.00127 .00
254 166800334228539e-30 1 0 -1 166800334228539e-30 0 14 613 149 657 ?607 617 611
 5 655 -0 0 607 617 24 50 656 162 0 617 655 584 0 +-.00105 -87e-5 .00254 .707106
781186548 .707106781186547 0 -.707106781186547 .707106781186548 0 14 617 151 658
 ?613 630 615 5 656 -0 0 613 630 24 50 584 163 0 575 656 659 0 +-.00105 87e-5 .0
0254 1 2492418787323e-28 0 -2492418787323e-28 1 0 50 659 164 0 630 584 660 0 +-.
00105 87e-5 .00254 .707106781186548 -.707106781186548 0 .707106781186548 .707106
781186548 0 14 630 155 661 ?617 582 629 5 659 -0 0 617 582 24 50 660 165 0 582 6
59 662 0 +-65e-5 .00127 .00254 0 -1 0 0 0 -1 14 582 157 663 ?630 575 639 5 660 -
0 0 630 575 24 50 662 1105 664 665 660 666 0 +-32e-5 .00407 -.00118 0 .707106781
186551 .707106781186545 1 0 0 81 2 664 1106 667 662 0 0 668 18 669 670 14 665 10
75 671 ?19 672 673 5 662 +0 0 19 672 24 50 666 1103 668 672 662 674 0 +-32e-5 .0
0407 -.00118 -.707106781186545 .707106781186551 668241900995151e-31 -84703294725
4301e-31 -179206970658761e-30 1 81 2 668 1104 667 666 0 0 675 664 676 677 14 672
 1073 678 ?665 567 679 5 666 +0 0 665 567 24 50 674 1101 675 567 666 569 0 +32e-
5 .00407 -.00118 .707106781186545 .707106781186551 2465070123670975e-31 16940658
945086e-29 179206970658761e-30 -1 81 2 675 1102 667 674 0 0 680 668 681 682 14 5
67 1071 683 ?672 560 684 5 674 +0 0 672 560 24 50 569 1099 680 560 674 685 0 +-3
2e-5 .00407 -.00182 0 .707106781186551 -.707106781186545 -1 0 0 81 2 680 1100 66
7 569 0 0 0 675 686 687 50 685 1162 688 555 569 689 0 -0 -12e-5 .01054 0 .707106
781186551 -.707106781186545 1 0 0 81 2 688 1163 667 685 0 0 690 0 691 692 14 555
 1132 693 ?0 544 554 5 685 +0 0 0 544 24 50 689 1160 690 544 685 20 0 -12e-5 203
2879073410315e-35 .01054 -.707106781186551 -1197885481783892e-31 -.7071067811865
44 -16940658945086e-29 1 0 81 2 690 1161 667 689 0 0 694 688 695 696 14 544 1130
 697 ?555 539 531 5 689 +0 0 555 539 24 50 20 1158 694 539 689 6 0 --12e-5 -1016
439536705156e-35 .01054 .707106781186551 598942740891946e-31 -.707106781186544 8
47032947254301e-31 -1 0 81 2 694 1159 667 20 0 0 18 690 698 699 14 539 1128 700
 ?544 19 536 5 20 +0 0 544 19 24 81 1 700 1442 563 539 701 0 697 702 703 14 19 1
126 702 ?539 665 541 5 6 +0 0 539 665 24 81 1 702 1443 563 19 704 0 700 705 706
 80 255 1 563 707 708 9000 1 1 1 1 1 1 1 1 0 FFFFTFTFFFFFFF1 81 1 704 1316 709 1
9 0 702 710 701 711 81 1 705 1444 563 548 712 0 702 713 714 82 255 1 706 8522305
59 14 548 765 705 ?561 552 545 5 715 +716 716 561 552 24 81 1 712 1309 709 548 0
 705 717 718 719 81 1 713 1445 563 552 717 0 705 720 721 82 1 714 765591967 14 5
52 759 713 ?548 722 550 5 723 +724 724 548 722 24 81 1 717 1308 709 552 0 713 72
5 712 726 81 1 720 1446 563 722 725 0 713 727 728 82 1 721 767099295 14 722 753
 720 ?552 729 37 5 730 +729 729 552 729 24 81 1 725 1307 709 722 0 720 731 717 7
32 81 1 727 1447 563 733 734 0 720 735 736 82 1 728 767951263 14 733 777 727 ?57
2 273 737 5 573 -0 0 572 273 24 81 1 734 1302 709 733 0 727 738 739 740 81 1 735
 1448 563 273 738 0 727 741 742 82 1 736 717619615 14 273 783 735 ?733 743 250 5
 744 +0 0 733 743 24 81 1 738 1301 709 273 0 735 745 734 746 81 1 741 1449 563 7
43 745 0 735 747 748 82 1 742 701432223 14 743 786 741 ?273 749 750 5 751 +0 0 2
73 749 24 81 1 745 1300 709 743 0 741 752 738 753 81 1 747 1450 563 749 752 0 74
1 754 755 82 1 748 702022047 14 749 789 747 ?743 244 756 5 757 +0 0 743 244 24 8
1 1 752 1299 709 749 0 747 758 745 759 81 1 754 1451 563 244 758 0 747 760 761 8
2 1 755 702611871 14 244 792 754 ?749 261 237 5 762 +0 0 749 261 24 81 1 758 129
8 709 244 0 754 763 752 764 81 1 760 1452 563 729 731 0 754 765 766 82 1 761 702
939551 14 729 756 760 ?722 724 767 5 730 +722 722 722 724 24 81 1 731 1306 709 7
29 0 760 768 725 769 81 1 765 1453 563 724 768 0 760 770 771 82 1 766 767492510
 14 724 762 765 ?729 716 772 5 723 +552 552 729 716 24 81 1 768 1305 709 724 0 7
65 773 731 774 81 1 770 1454 563 716 773 0 765 775 776 82 1 771 766640542 14 716
 768 770 ?724 572 777 5 715 +548 548 724 572 24 81 1 773 1304 709 716 0 770 739
 768 778 81 1 775 1455 563 572 739 0 770 779 780 82 1 776 765133214 14 572 774 7
75 ?716 733 781 5 571 +561 561 716 733 24 81 1 739 1303 709 572 0 775 734 773 78
2 81 1 779 1456 563 261 763 0 775 783 784 82 1 780 763625886 14 261 795 779 ?244
 785 255 5 786 +0 0 244 785 24 81 1 763 1297 709 261 0 779 787 758 788 81 1 783
 1457 563 785 787 0 779 789 790 82 1 784 703791518 14 785 798 783 ?261 791 792 5
 793 +0 0 261 791 24 81 1 787 1296 709 785 0 783 794 763 795 81 1 789 1458 563 7
91 794 0 783 796 797 82 1 790 704381342 14 791 801 789 ?785 268 798 5 799 +0 0 7
85 268 24 81 1 794 1295 709 791 0 789 800 787 801 81 1 796 1459 563 268 800 0 78
9 802 803 82 1 797 704971166 14 268 804 796 ?791 804 264 5 805 +0 0 791 804 24 8
1 1 800 1294 709 268 0 796 806 794 807 81 1 802 1460 563 627 808 0 796 809 810 8
2 1 803 705298846 14 627 454 802 ?620 632 811 5 812 -0 0 620 632 24 81 1 808 128
7 709 627 0 802 813 814 815 81 1 809 1461 563 804 806 0 802 816 817 82 1 810 107
676062 14 804 585 809 ?268 818 819 5 820 +0 0 268 818 24 81 1 806 1293 709 804 0
 809 821 800 822 81 1 816 1462 563 818 821 0 809 823 824 82 1 817 615514524 14 8
18 582 816 ?804 825 826 5 827 -0 0 804 825 24 81 1 821 1292 709 818 0 816 828 80
6 829 81 1 823 1463 563 825 828 0 816 830 831 82 1 824 615383452 14 825 579 823
 ?818 832 833 5 834 -0 0 818 832 24 81 1 828 1291 709 825 0 823 835 821 836 81 1
 830 1464 563 832 835 0 823 837 838 82 1 831 614859164 14 832 576 830 ?825 839 8
40 5 841 +0 0 825 839 24 81 1 835 1290 709 832 0 830 842 828 843 81 1 837 1465 5
63 839 842 0 830 844 845 82 1 838 614728092 14 839 573 837 ?832 620 846 5 847 -0
 0 832 620 24 81 1 842 1289 709 839 0 837 814 835 848 81 1 844 1466 563 620 814
 0 837 849 850 82 1 845 614924700 14 620 458 844 ?839 627 604 5 851 -0 0 839 627
 24 81 1 814 1288 709 620 0 844 808 842 852 81 1 849 1467 563 632 813 0 844 853
 854 82 1 850 -951713464 14 632 450 849 ?627 855 631 5 856 -0 0 627 855 24 81 1
 813 1286 709 632 0 849 857 808 858 81 1 853 1468 563 855 857 0 849 859 860 82 1
 854 -951975608 14 855 320 853 ?632 861 862 5 863 +0 0 632 861 24 81 1 857 1285
 709 855 0 853 864 813 865 81 1 859 1469 563 861 864 0 853 866 867 82 1 860 1791
75735 14 861 316 859 ?855 868 869 5 870 -0 0 855 868 24 81 1 864 1284 709 861 0
 859 871 857 872 81 1 866 1470 563 868 871 0 859 873 874 82 1 867 172622135 14 8
68 312 866 ?861 594 875 5 876 -0 0 861 594 24 81 1 871 1283 709 868 0 866 877 86
4 878 81 1 873 1471 563 594 877 0 866 0 879 82 1 874 180683063 14 594 303 873 ?8
68 588 880 5 881 +0 0 868 588 24 81 1 877 1282 709 594 0 873 882 871 883 82 1 87
9 180224311 80 1 709 0 884 8001 0 0 0 0 3 5 0 0 0 FFFFTFTFFFFFFF2 81 1 882 1281
 709 588 0 592 591 877 885 83 255 3 883 .1450980392156862 .1411764705882352 .141
1764705882352 81 1 592 1428 563 588 882 0 587 597 886 81 1 591 1280 709 578 0 58
7 887 882 888 83 3 885 .1450980392156862 .1411764705882352 .1411764705882352 81
 1 887 1279 709 589 0 597 889 591 890 83 3 888 .1450980392156862 .14117647058823
52 .1411764705882352 81 1 597 1429 563 589 887 0 592 646 891 81 1 889 1278 709 5
98 0 650 649 887 892 83 3 890 .1450980392156862 .1411764705882352 .1411764705882
352 81 1 650 1431 563 598 889 0 646 652 893 81 1 649 1277 709 645 0 646 894 889
 895 83 3 892 .1450980392156862 .1411764705882352 .1411764705882352 81 1 894 127
6 709 607 0 652 896 649 897 83 3 895 .1450980392156862 .1411764705882352 .141176
4705882352 81 1 652 1432 563 607 894 0 650 657 898 81 1 896 1275 709 613 0 657 8
99 894 900 83 3 897 .1450980392156862 .1411764705882352 .1411764705882352 81 1 6
57 1433 563 613 896 0 652 658 901 81 1 899 1274 709 617 0 658 902 896 903 83 3 9
00 .1450980392156862 .1411764705882352 .1411764705882352 81 1 658 1434 563 617 8
99 0 657 661 904 81 1 902 1273 709 630 0 661 905 899 906 83 3 903 .1450980392156
862 .1411764705882352 .1411764705882352 81 1 661 1435 563 630 902 0 658 663 907
 81 1 905 1272 709 582 0 663 908 902 909 83 3 906 .1450980392156862 .14117647058
82352 .1411764705882352 81 1 663 1436 563 582 905 0 661 671 910 81 1 908 1271 70
9 575 0 580 579 905 911 83 3 909 .1450980392156862 .1411764705882352 .1411764705
882352 81 1 580 1426 563 575 908 0 574 587 912 81 1 579 1270 709 16 0 574 0 908
 913 83 3 911 .1450980392156862 .1411764705882352 .1411764705882352 83 3 913 .14
50980392156862 .1411764705882352 .1411764705882352 82 1 912 188612936 81 1 671 1
437 563 665 710 0 663 678 914 82 1 910 54657332 81 1 710 1315 709 665 0 671 915
 704 916 81 1 678 1438 563 672 915 0 671 683 917 82 1 914 842793375 81 1 915 131
4 709 672 0 678 918 710 919 81 1 683 1439 563 567 918 0 678 693 920 82 1 917 844
366239 81 1 918 1313 709 567 0 683 921 915 922 81 1 693 1440 563 555 923 0 683 6
97 924 82 1 920 845676959 81 1 923 1319 709 555 0 693 925 0 926 81 1 697 1441 56
3 544 925 0 693 700 927 82 1 924 848167327 81 1 925 1318 709 544 0 697 701 923 9
28 82 1 927 849740191 81 1 701 1317 709 539 0 700 704 925 929 83 3 928 .86274509
8039216 .741176470588235 .498039215686275 83 3 929 .862745098039216 .74117647058
8235 .498039215686275 83 3 926 .862745098039216 .741176470588235 .49803921568627
5 81 1 921 1312 709 560 0 565 564 918 930 83 3 922 .862745098039216 .74117647058
8235 .498039215686275 81 1 565 1423 563 560 921 0 559 570 931 81 1 564 1311 709
 558 0 559 718 921 932 83 3 930 .862745098039216 .741176470588235 .4980392156862
75 81 1 718 1310 709 561 0 570 712 564 933 83 3 932 .862745098039216 .7411764705
88235 .498039215686275 81 1 570 1424 563 561 718 0 565 574 934 83 3 933 .8627450
98039216 .741176470588235 .498039215686275 82 1 934 764084639 82 1 931 846856607
 83 3 919 .862745098039216 .741176470588235 .498039215686275 83 3 916 .862745098
039216 .741176470588235 .498039215686275 82 1 907 54395208 82 1 904 53870920 82
 1 901 53608756 82 1 898 53346632 82 1 893 52822344 82 1 891 97845662 82 1 886 1
80945207 79 255 15 884 SDL/TYSA_COLOUR15 880 306 0 935 594 0 50 881 329 0 594 86
3 876 0 +-942124781365467e-82 -67e-5 .0021 0 -1 612323399573677e-31 0 -612323399
573677e-31 -1 50 863 330 0 855 870 881 0 +-4331623501927415e-83 489858719658941e
-34 8e-4 616297582203916e-47 -612323399573677e-31 -1 0 1 -612323399573677e-31 50
 876 327 0 868 881 596 0 +758000809799839e-83 67e-5 .0021 0 -1 612323399573677e-
31 0 -612323399573677e-31 -1 50 596 326 0 588 876 585 0 +-.00127 334100863023396
e-33 .0021 1 -161821219773956e-30 990869194151477e-47 161821219773956e-30 1 0 50
 585 2 0 589 596 577 0 +0 0 .00254 0 0 -1 -1 0 0 50 870 331 0 861 851 863 0 +-43
31623501927415e-83 128587913910472e-33 .0021 616297582203916e-47 -61232339957367
7e-31 -1 0 1 -612323399573677e-31 50 851 471 0 620 812 870 0 +.00105 -87e-5 -523
40794533783e-32 0 -1 0 0 0 -1 50 812 472 0 627 856 851 0 +.00105 -87e-5 54e-5 24
92418787323e-28 -62310469683075e-30 1 1 0 -2492418787323e-28 50 856 473 0 632 84
7 812 0 +.00105 87e-5 -52340794533783e-32 -500423308140608e-46 1 -20077818008990
8e-30 0 200778180089908e-30 1 50 847 591 0 839 841 856 0 +.00127 334100863023396
e-33 .0021 -1 -161821219773956e-30 990869194151477e-47 -161821219773956e-30 1 0
 50 841 592 0 832 834 847 0 +942124781365467e-82 -67e-5 .0021 0 -1 6123233995736
77e-31 0 -612323399573677e-31 -1 50 834 593 0 825 827 841 0 +4331623501927415e-8
3 128587913910472e-33 .0021 -616297582203916e-47 -612323399573677e-31 -1 0 1 -61
2323399573677e-31 50 827 594 0 818 820 834 0 +-758000809799839e-83 67e-5 .0021 0
 -1 612323399573677e-31 0 -612323399573677e-31 -1 50 820 595 0 804 573 827 0 +43
31623501927415e-83 489858719658941e-34 8e-4 -616297582203916e-47 -61232339957367
7e-31 -1 0 1 -612323399573677e-31 50 573 821 0 733 562 820 0 +0 .00427 -.0015 0
 -1 -179206970658761e-30 1 0 0 17 935 0 880 149 136 138 408 392 0 414 -17 149 0
 880 398 935 147 414 412 0 936 -17 136 0 880 935 398 134 937 409 0 401 +17 408 0
 862 938 140 134 935 392 0 0 +17 414 0 622 406 939 138 149 412 0 0 +15 622 255 0
 939 575 0 17 406 0 622 940 414 91 140 404 0 0 +17 939 0 622 414 940 147 152 394
 0 0 -17 940 0 622 939 406 150 417 415 0 0 -17 152 0 869 154 936 150 939 394 0 9
41 +15 869 319 0 146 861 0 17 154 0 869 146 152 137 941 391 0 942 +17 936 0 869
 152 146 147 398 396 0 939 -17 941 0 875 417 942 150 154 391 0 940 -15 875 315 0
 143 868 0 17 417 0 875 143 941 91 940 415 0 406 +17 942 0 875 941 143 137 419 3
99 0 943 -17 143 0 875 942 417 141 93 402 0 419 +17 419 0 595 401 943 141 942 39
9 0 938 +17 943 0 595 419 937 137 146 389 0 0 -15 595 302 0 401 588 0 17 937 0 5
95 943 401 111 136 409 0 398 -17 146 0 869 936 154 111 943 389 0 937 +17 401 0 5
95 937 419 134 938 383 0 408 +17 398 0 880 136 149 111 936 396 0 0 +17 938 0 862
 93 408 141 401 383 0 0 -15 862 323 0 938 855 0 17 93 0 862 140 938 91 143 402 0
 417 -17 140 0 862 408 93 138 406 404 0 935 -83 3 878 .1450980392156862 .1411764
705882352 .1411764705882352 83 3 872 .1450980392156862 .1411764705882352 .141176
4705882352 83 3 865 .1450980392156862 .1411764705882352 .1411764705882352 83 3 8
58 .0980392156862745 .0980392156862745 .0980392156862745 83 3 852 .0980392156862
745 .0980392156862745 .0980392156862745 83 3 848 .1450980392156862 .141176470588
2352 .1411764705882352 15 846 575 0 944 839 0 17 944 0 846 945 361 193 336 334 0
 0 -17 945 0 846 351 944 184 343 341 0 0 -17 361 0 846 944 351 187 946 359 0 336
 +17 336 0 819 947 195 187 944 334 0 0 +15 819 587 0 336 804 0 17 947 0 819 333
 336 88 189 339 0 654 -17 195 0 819 336 333 193 192 337 0 343 +17 333 0 819 195
 947 190 654 331 0 348 +17 192 0 826 948 343 190 195 337 0 333 -17 343 0 826 192
 186 193 945 341 0 944 +15 826 584 0 192 818 0 17 186 0 826 343 948 184 183 344
 0 949 +17 948 0 826 186 192 181 348 346 0 356 -17 183 0 833 950 949 181 186 344
 0 948 -17 949 0 833 183 180 184 351 349 0 945 -15 833 581 0 949 825 0 17 180 0
 833 949 950 178 177 352 0 946 +17 351 0 846 361 945 178 949 349 0 0 +17 950 0 8
33 180 183 168 356 354 0 951 -17 177 0 840 90 946 168 180 352 0 950 -17 946 0 84
0 177 189 178 361 359 0 351 -15 840 578 0 189 832 0 17 189 0 840 946 90 187 947
 339 0 361 +17 90 0 840 189 177 88 951 357 0 947 +17 951 0 647 356 654 168 90 35
7 0 0 -17 356 0 647 348 951 181 950 354 0 0 +17 654 0 647 951 348 88 333 331 0 0
 -17 348 0 647 654 356 190 948 346 0 0 +83 3 843 .1450980392156862 .141176470588
2352 .1411764705882352 83 3 836 .1450980392156862 .1411764705882352 .14117647058
82352 83 3 829 .1450980392156862 .1411764705882352 .1411764705882352 83 3 822 .1
450980392156862 .1411764705882352 .1411764705882352 83 3 815 .0980392156862745 .
0980392156862745 .0980392156862745 15 811 640 0 477 627 625 17 477 0 811 486 480
 85 213 475 0 0 +17 486 0 811 483 477 199 952 484 0 0 +17 480 0 811 477 483 211
 207 478 0 0 +17 213 0 781 216 87 211 477 475 0 315 -15 781 776 0 213 572 0 17 2
16 0 781 319 213 214 315 314 0 265 -17 87 0 781 213 319 85 232 290 0 952 +17 315
 0 777 207 311 211 216 314 0 480 +15 777 770 0 207 716 0 17 207 0 777 224 315 20
5 480 478 0 306 -17 311 0 777 315 224 214 953 303 0 0 +17 224 0 777 311 207 217
 306 304 0 953 -17 953 0 798 954 269 217 311 303 0 302 -15 798 803 0 269 791 0 1
7 954 0 798 247 953 222 302 300 0 955 -17 269 0 798 953 247 214 267 270 0 311 +1
7 302 0 792 956 294 217 954 300 0 299 +15 792 800 0 302 785 0 17 956 0 792 276 3
02 225 299 283 0 260 -17 294 0 792 302 276 222 957 278 0 0 +17 299 0 772 306 230
 217 956 283 0 0 +15 772 764 0 201 724 0 17 306 0 772 201 299 205 224 304 0 483
 +17 230 0 772 299 201 225 287 285 0 956 -17 201 0 772 230 306 199 483 481 0 287
 -17 287 0 767 952 262 199 230 285 0 486 +15 767 758 0 952 729 0 17 952 0 767 23
2 287 85 486 484 0 477 -17 262 0 767 287 232 225 257 263 0 0 +17 232 0 767 262 9
52 221 87 290 0 319 -17 319 0 781 87 216 221 265 313 0 257 +17 265 0 264 267 258
 214 319 313 0 269 -17 483 0 811 480 486 205 201 481 0 0 +17 276 0 792 294 956 2
28 260 282 0 957 -17 957 0 750 274 227 228 294 278 0 256 -15 750 788 0 274 743 0
 17 274 0 750 61 957 62 234 275 0 958 -17 227 0 750 957 61 222 959 295 0 954 +17
 61 0 750 227 274 59 958 499 0 959 +17 959 0 756 82 955 59 227 295 0 960 -15 756
 791 0 959 749 0 17 82 0 756 220 959 80 961 501 0 243 +17 955 0 756 959 220 222
 247 297 0 294 -17 960 0 568 958 962 59 525 253 0 961 -15 568 1070 0 963 560 0 1
7 958 0 568 963 960 62 61 499 0 523 -17 962 0 568 960 963 71 70 490 0 525 -17 52
5 0 684 964 961 71 960 253 0 0 +17 961 0 684 525 965 59 82 501 0 0 -15 684 1072
 0 525 567 0 17 965 0 684 961 964 80 76 519 0 248 -17 964 0 684 965 525 74 73 48
8 0 496 -17 76 0 673 966 248 74 965 519 0 964 +17 248 0 673 76 79 80 239 249 0 0
 -15 673 1076 0 76 665 0 17 79 0 673 248 966 77 967 517 0 968 +17 966 0 673 79 7
6 65 496 494 0 967 -17 967 0 679 969 968 65 79 517 0 0 -17 968 0 679 967 523 77
 64 497 0 239 -15 679 1074 0 523 672 0 17 523 0 679 968 969 62 963 521 0 0 +17 6
4 0 250 234 240 62 968 497 0 274 +17 969 0 679 523 967 68 67 492 0 0 -17 963 0 5
68 962 958 68 523 521 0 969 -17 67 0 737 496 70 65 969 492 0 966 +15 737 962 0 6
7 733 0 17 496 0 737 73 67 74 966 494 0 0 +17 70 0 737 67 73 68 962 490 0 963 +1
7 73 0 737 70 496 71 964 488 0 962 +17 220 0 756 955 82 218 243 271 0 267 +17 24
7 0 798 269 954 218 955 297 0 0 +17 243 0 237 239 238 80 220 271 0 965 -17 260 0
 255 257 256 225 276 282 0 262 +83 3 807 .862745098039216 .741176470588235 .4980
39215686275 51 255 805 824 0 268 762 571 0 -0 64e-5 -86e-5 -1 0 0 32e-5 0 0 1 50
 762 825 0 244 715 805 0 +-32e-5 .00427 -.00118 0 -179206970658761e-30 1 0 -1 -1
79206970658761e-30 50 571 823 0 561 805 562 0 +-32e-5 32e-5 -86e-5 0 1 0 0 0 1 5
0 715 826 0 548 799 762 0 +32e-5 32e-5 -86e-5 1 16940658945086e-29 0 -1694065894
5086e-29 1 0 50 799 827 0 791 757 715 0 +32e-5 64e-5 -.00118 1 0 0 0 0 -1 50 757
 828 0 749 723 799 0 +32e-5 .00427 -.00118 1 -3035884170512105e-47 1694065894508
6e-29 16940658945086e-29 0 -1 50 723 829 0 552 793 757 0 +-32e-5 -32e-5 -86e-5 0
 -1 0 0 0 -1 51 793 830 0 785 751 723 0 +0 64e-5 -86e-5 -1 0 0 96e-5 0 0 1 50 75
1 831 0 743 730 793 0 +-32e-5 .00427 -.00182 0 179206970658761e-30 -1 0 1 179206
970658761e-30 50 730 832 0 722 786 751 0 +-32e-5 32e-5 -86e-5 -1 -8470329472543e
-29 0 847032947254301e-31 -1 0 50 786 833 0 261 744 730 0 +-32e-5 64e-5 -.00118
 -1 0 0 0 0 1 50 744 834 0 273 0 786 0 +-32e-5 .00427 -.00118 -1 151794208525605
5e-47 -8470329472543e-29 -847032947254301e-31 0 1 83 3 801 .862745098039216 .741
176470588235 .498039215686275 83 3 795 .862745098039216 .741176470588235 .498039
215686275 83 3 788 .862745098039216 .741176470588235 .498039215686275 83 3 782 .
862745098039216 .741176470588235 .498039215686275 83 3 778 .862745098039216 .741
176470588235 .498039215686275 83 3 774 .862745098039216 .741176470588235 .498039
215686275 83 3 769 .862745098039216 .741176470588235 .498039215686275 83 3 764 .
862745098039216 .741176470588235 .498039215686275 83 3 759 .862745098039216 .741
176470588235 .498039215686275 83 3 753 .862745098039216 .741176470588235 .498039
215686275 83 3 746 .862745098039216 .741176470588235 .498039215686275 83 3 740 .
862745098039216 .741176470588235 .498039215686275 83 3 732 .862745098039216 .741
176470588235 .498039215686275 15 37 755 0 39 722 0 17 39 0 37 35 198 36 553 289
 0 0 +17 198 0 37 39 38 196 330 328 0 553 -17 553 0 550 204 514 196 39 289 0 327
 -16 289 677 0 ?39 285 290 284 285 285 1 17 327 0 599 330 324 196 204 325 0 0 +1
5 599 660 0 327 589 641 17 330 0 599 321 327 208 198 328 0 0 +17 324 0 599 327 3
21 202 549 322 0 0 +17 321 0 599 324 330 83 210 316 0 0 +17 549 0 545 34 546 83
 324 322 0 321 -17 210 0 30 32 31 208 321 316 0 38 -15 30 773 0 32 561 0 17 32 0
 30 28 210 29 38 292 0 33 +17 31 0 30 210 28 83 34 307 0 549 -17 38 0 37 198 35
 208 32 292 0 330 -16 292 686 0 ?32 290 313 286 290 290 1 16 307 683 0 ?34 314 3
04 312 314 314 1 83 3 726 .862745098039216 .741176470588235 .498039215686275 83
 3 719 .862745098039216 .741176470588235 .498039215686275 83 3 711 .862745098039
216 .741176470588235 .498039215686275 79 14 708 SWEntUnchanged82 1 703 851050911
 80 2 667 970 971 8044 0 0 0 0 3 5 0 0 0 FFFFTFFFTTFFFF3 2 81 2 18 1157 667 6 0
 0 664 694 972 973 84 255 6 698 BAAAAB83 3 699 -126217744835362e-43 .00028284271
2474621 .0002000000000000025 84 6 972 BAAAAB83 3 973 0 .000282842712474621 .0002
000000000000025 79 17 971 SDL/TYSA_BLEND_ID84 6 695 BAAAAB83 3 696 -252435489670
724e-43 .000282842712474621 .0002000000000000025 84 6 691 BAAAAB83 3 692 0 .0002
82842712474621 .0002000000000000025 84 6 686 BAAAAB83 3 687 0 .00028284271247462
1 .0002000000000000025 84 6 681 BAAAAB83 3 682 2971943978389405e-35 .00028284271
24746205 .0002000000000000025 84 6 676 BAAAAB83 3 677 2753255630669545e-34 .0002
82842712474621 .0002000000000000025 84 6 669 BAAAAB83 3 670 0 .00028284271247462
1 .0002000000000000025 82 1 651 102367644 17 119 0 641 116 122 117 609 432 0 608
 +17 122 0 641 119 125 120 612 430 0 610 +17 125 0 641 122 128 123 616 428 0 614
 +17 128 0 641 125 131 126 623 426 0 618 +17 623 0 583 471 618 129 128 426 0 0 -
17 133 0 629 474 624 98 131 423 0 422 -17 474 0 629 443 133 108 640 472 0 440 +1
7 628 0 631 161 170 171 372 370 0 369 -17 101 0 604 167 175 99 365 363 0 600 -82
 1 593 51118408 82 1 581 -948764344 82 1 566 719978911 19 17 175 0 1 0 9 5 S0 74
 4 CI16 index_map_offset0 0 1 dCCZ20 15 11 0 0 873 974 975 976 977 688 978 979 1
3 923 2 0 0 0 0 0 0 0 0 0 81 5 974 259 980 1 0 975 0 0 981 0 0 0 0 81 2 975 899
 982 1 974 976 0 0 0 983 81 2 976 900 984 1 975 977 0 0 0 0 81 2 977 920 985 1 9
76 978 0 0 0 986 81 1 978 1212 987 1 977 979 0 0 988 81 2 979 1218 989 1 978 13
 0 0 990 0 81 2 13 1269 991 1 979 2 0 0 0 992 80 2 991 993 994 9000 0 0 0 0 3 5
 0 0 0 FFTFFFFFFFFFFF9 1 82 1 992 1 79 24 994 BODY_IN_LIGHTWEIGHT_PERM80 2 989 9
95 996 8004 0 0 0 0 3 5 0 0 0 FFTFFFFFFFFFFF2 3 83 1 990 78e2 79 16 996 SDL/TYSA
_DENSITY80 1 987 997 998 9000 1 1 1 1 1 1 1 1 0 FFTFFFFFFFFFFF1 82 1 988 324 79
 10 998 BODY_MATCH80 2 985 999 1000 9000 0 0 0 0 3 5 0 0 0 FFTFFFFFFFFFFF9 1 82
 1 986 437 79 30 1000 LAST_BODY_MODIFYING_FEATURE_ID80 2 984 1001 1002 9000 0 0
 0 0 3 5 0 0 0 FFTFFFFFFFFFFF9 1 79 16 1002 BODY_RECIPE_200180 2 982 1003 1004 9
000 0 0 0 0 3 5 0 0 0 FFTFFFFFFFFFFT9 1 82 1 983 948 79 19 1004 ENT_TIME_STAMP_2
00180 5 980 1005 1006 9000 0 0 0 0 3 6 0 0 0 FFTTTTTTFTTFTT2 2 2 2 2 83 1 981 1
 79 19 1006 BODY_SCALING_FACTOR80 2 12 1007 1008 9000 0 0 0 0 3 5 0 0 0 FFTFFFFF
FFFFFF9 1 82 1 14 133 79 12 1008 ATOM_ID_20011 0 
