**ABCDEFGHIJKLMNOPQRSTUVWXYZabcdefghijklmnopqrstuvwxyz**************************
**PARASOLID !"#$%&'()*+,-./:;<=>?@[\]^_`{|}~0123456789**************************
**PART1;
MC=AMD64;
MC_MODEL=Intel64 Family 6 Model 15 Stepping 13, GenuineIntel;
MC_ID=unknown;
OS=Windows_NT;
OS_RELEASE=unknown;
FRU=Parasolid Version 30.0, build 310,  6- 8-2018;
APPL=SOLIDWORKS 2018-2018211;
SITE=;
USER=unknown;
FORMAT=text;
GUISE=transmit;
KEY=PLS_PLS-01;
FILE=PLS_PLS-01.x_t;
DATE=Sun Aug 18 22:38:05 2019;
**PART2;
SCH=SCH_3000310_30000;
USFLD_SIZE=0;
**PART3;
**END_OF_HEADER*****************************************************************
T51 : TRANSMIT FILE created by modeller version 300031023 SCH_3000310_30000_1300
6205 0 12 33 CCCCCCI4 mesh1006 0 I8 polyline1008 0 CCCCCCCDI5 owner1040 0 CCCCCC
I13 boundary_mesh1006 0 I17 boundary_polyline1008 0 CCCA16 index_map_offset0 0 1
 dA9 index_map82 0 A17 node_id_index_map82 0 A20 schema_embedding_map82 0 A5 chi
ld12 0 A14 lowest_node_id0 0 1 dZ1 1304 0 2 0 0 0 0 0 0 1e3 1e-8 0 3 0 1 0 1 1 4
 5 6 7 0 0 8 9 10 0 0 0 0 0 0 70 11 CI9 list_type0 0 1 uI10 notransmit0 0 1 lCCC
DCCDI12 finger_index0 0 1 dI12 finger_block1012 0 CZ2 0 4 T1 0 0 2 20 1 11 11 13
 255 4 174 0 1 0 12 0 0 13 0 50 255 5 969 0 14 15 0 0 +32e-5 32e-5 -.0028 .70710
6781186545 119788548178388e-30 -.707106781186551 16940658945086e-29 -1 0 30 255
 6 973 0 16 17 0 0 -32e-5 32e-5 -.0028 .577350269189627 .577350269189628 .577350
269189623 29 255 7 1019 0 10 18 0 .00105 -67e-5 8e-4 19 8 CCCCCCCA5 owner12 0 Z8
 52 0 1 13 0 19 V0 16 255 9 923 0 ?20 0 21 22 0 0 1 18 255 10 1017 0 23 0 24 7 ?
1 17 255 23 0 25 26 27 10 28 29 0 30 +18 24 915 0 20 10 31 18 ?1 17 20 0 32 33 3
4 24 35 9 0 36 +18 31 907 0 37 24 38 39 ?1 29 18 917 0 24 39 7 32e-5 -32e-5 -.00
28 29 39 909 0 31 40 18 32e-5 32e-5 -.0028 29 40 900 0 38 41 39 -.00011999999999
99978 .0001199999999999978 -.003 18 38 898 0 42 31 43 40 ?1 29 41 896 0 43 44 40
 .0001199999999999978 .0001199999999999978 -.003 18 43 894 0 45 38 46 41 ?1 29 4
4 892 0 46 47 41 -.0001199999999999978 -.0001199999999999978 -.003 18 46 890 0 4
8 43 49 44 ?1 29 47 889 0 49 50 44 .0001199999999999978 -.0001199999999999978 -.
003 18 49 887 0 51 46 52 47 ?1 29 50 881 0 52 53 47 -32e-5 -32e-5 -.0028 18 52 8
79 0 54 49 55 50 ?1 29 53 878 0 55 56 50 -32e-5 32e-5 -.0028 18 55 876 0 57 52 5
8 53 ?1 29 56 786 0 58 59 53 -32e-5 -32e-5 .00834 18 58 784 0 60 55 61 56 ?1 29
 59 778 0 61 62 56 -32e-5 32e-5 .00834 18 61 776 0 63 58 64 59 ?1 29 62 770 0 64
 65 59 32e-5 -32e-5 .00834 18 64 768 0 66 61 67 62 ?1 29 65 767 0 67 68 62 32e-5
 32e-5 .00834 18 67 765 0 69 64 70 65 ?1 29 68 758 0 70 71 65 .00011999999999999
78 .0001199999999999978 .00854 18 70 756 0 72 67 73 68 ?1 29 71 754 0 73 74 68 -
.0001199999999999978 .0001199999999999978 .00854 18 73 752 0 75 70 76 71 ?1 29 7
4 750 0 76 77 71 .0001199999999999978 -.0001199999999999978 .00854 18 76 748 0 7
8 73 79 74 ?1 29 77 747 0 79 80 74 -.0001199999999999978 -.0001199999999999978 .
00854 18 79 745 0 81 76 82 77 ?1 29 80 541 0 82 83 77 32e-5 32e-5 .00254 18 82 5
39 0 84 79 85 80 ?1 29 83 521 0 85 86 80 -32e-5 32e-5 54e-5 18 85 519 0 87 82 88
 83 ?1 29 86 244 0 88 89 83 -.00105 67e-5 8e-4 18 88 242 0 90 85 91 86 ?1 29 89
 126 0 92 93 86 65e-5 .00127 0 18 92 109 0 94 95 96 89 ?1 29 93 128 0 96 97 89 .
00105 -87e-5 0 18 96 111 0 98 92 99 93 ?1 29 97 129 0 99 100 93 65e-5 -.00127 0
 18 99 112 0 101 96 102 97 ?1 29 100 130 0 102 103 97 -65e-5 -.00127 0 18 102 11
3 0 104 99 105 100 ?1 29 103 133 0 105 106 100 -65e-5 .00127 0 18 105 116 0 107
 102 108 103 ?1 29 106 51 0 91 109 103 65e-5 .00127 .00254 18 91 49 0 110 88 111
 106 ?1 29 109 48 0 111 112 106 .00105 87e-5 .00254 18 111 46 0 113 91 114 109 ?
1 29 112 45 0 114 115 109 .00105 -87e-5 .00254 18 114 43 0 116 111 117 112 ?1 29
 115 42 0 117 118 112 65e-5 -.00127 .00254 18 117 40 0 119 114 120 115 ?1 29 118
 39 0 120 121 115 -65e-5 -.00127 .00254 18 120 37 0 122 117 123 118 ?1 29 121 36
 0 123 124 118 -.00105 -87e-5 .00254 18 123 34 0 125 120 126 121 ?1 29 124 33 0
 126 127 121 -.00105 87e-5 .00254 18 126 31 0 128 123 95 124 ?1 29 127 30 0 95 1
29 124 -65e-5 .00127 .00254 18 95 28 0 130 126 92 127 ?1 29 129 344 0 131 132 12
7 -.00127 -67e-5 8e-4 18 131 292 0 133 134 135 129 ?1 29 132 345 0 135 136 129 -
.00105 -67e-5 8e-4 18 135 294 0 137 131 138 132 ?1 29 136 347 0 138 139 132 -.00
127 67e-5 8e-4 18 138 295 0 140 135 141 136 ?1 29 139 348 0 108 142 136 -.00127
 -67e-5 .0021 18 108 296 0 143 105 144 139 ?1 29 142 349 0 144 145 139 -.00105 -
67e-5 .0021 18 144 291 0 146 108 147 142 ?1 29 145 350 0 147 148 142 -.00105 67e
-5 .0021 18 147 297 0 149 144 134 145 ?1 29 148 351 0 134 150 145 -.00127 67e-5
 .0021 18 134 298 0 151 147 131 148 ?1 29 150 488 0 152 153 148 -.00105 87e-5 0
 18 152 441 0 154 155 156 150 ?1 29 153 489 0 156 157 150 -.00105 87e-5 54e-5 18
 156 443 0 158 152 159 153 ?1 29 157 490 0 159 160 153 -.00105 -87e-5 54e-5 18 1
59 445 0 161 156 162 157 ?1 29 160 491 0 162 163 157 -.00105 -87e-5 0 18 162 439
 0 164 159 165 160 ?1 29 163 492 0 141 166 160 .00105 87e-5 -52340794533783e-32
 18 141 438 0 167 138 168 163 ?1 29 166 493 0 168 169 163 .00105 87e-5 54e-5 18
 168 440 0 170 141 155 166 ?1 29 169 494 0 155 171 166 .00105 -87e-5 54e-5 18 15
5 442 0 172 168 152 169 ?1 29 171 691 0 165 173 169 32e-5 -32e-5 .00254 18 165 6
09 0 174 162 175 171 ?1 29 173 692 0 175 176 171 32e-5 -32e-5 54e-5 18 175 599 0
 33 165 177 173 ?1 29 176 693 0 177 178 173 -32e-5 -32e-5 .00254 18 177 611 0 17
9 175 180 176 ?1 29 178 694 0 180 181 176 -32e-5 -32e-5 54e-5 18 180 602 0 182 1
77 183 178 ?1 29 181 696 0 183 184 178 32e-5 32e-5 54e-5 18 183 610 0 185 180 18
6 181 ?1 29 184 697 0 186 187 181 -32e-5 32e-5 .00254 18 186 612 0 188 183 189 1
84 ?1 29 187 1096 0 189 190 184 .00105 -67e-5 .0021 18 189 1052 0 27 186 191 187
 ?1 29 190 1097 0 191 192 187 .00127 -67e-5 .0021 18 191 1054 0 193 189 194 190
 ?1 29 192 1098 0 194 195 190 .00105 67e-5 .0021 18 194 1053 0 196 191 197 192 ?
1 29 195 1099 0 197 198 192 .00127 67e-5 .0021 18 197 1056 0 199 194 200 195 ?1
 29 198 1100 0 200 201 195 .00127 -67e-5 8e-4 18 200 1051 0 26 197 202 198 ?1 29
 201 1102 0 202 203 198 .00105 67e-5 8e-4 18 202 1055 0 204 200 205 201 ?1 29 20
3 1103 0 205 0 201 .00127 67e-5 8e-4 18 205 1058 0 206 202 0 203 ?1 17 206 0 207
 208 209 205 204 210 0 211 +15 255 207 1075 0 208 212 0 17 208 0 207 30 206 200
 213 214 0 0 +17 209 0 207 206 30 202 215 216 0 217 +17 204 0 218 219 211 202 20
6 210 0 209 -16 210 1050 0 ?206 220 214 221 0 0 1 17 211 0 218 204 199 205 222 2
23 0 213 +15 218 1072 0 204 224 0 17 199 0 218 211 219 197 196 225 0 226 +17 222
 0 227 228 213 197 211 223 0 0 -16 223 1046 0 ?211 225 220 229 0 0 1 17 213 0 22
7 222 230 205 208 214 0 0 -15 227 1063 0 213 231 0 17 230 0 227 213 228 200 232
 233 0 208 +16 214 1047 0 ?208 210 216 234 0 0 1 16 216 1048 0 ?209 214 0 235 0
 0 1 30 234 1094 0 214 235 221 0 +.00127 254498821078818e-33 8e-4 16182121977395
6e-30 -1 612323399573677e-31 30 235 1095 0 216 0 234 0 +.00105 -2127181007030205
e-34 8e-4 2492418787323e-28 1 -612323399573677e-31 30 221 1093 0 210 234 236 0 +
-758000809799839e-83 67e-5 8e-4 1 -377373430684139e-63 -616297582203916e-47 30 2
36 1092 0 220 221 229 0 +942124781365467e-82 -67e-5 8e-4 1 -377373430684139e-63
 -616297582203916e-47 16 220 1041 0 ?26 223 210 236 0 0 1 30 229 1091 0 223 236
 237 0 +.00127 67e-5 .0021 0 -612323399573677e-31 -1 30 237 1090 0 225 229 238 0
 +-758000809799839e-83 67e-5 .0021 1 -377373430684139e-63 -616297582203916e-47 1
6 225 1045 0 ?199 239 223 237 0 0 1 30 238 1089 0 239 237 240 0 +.00105 67e-5 .0
021 0 -612323399573677e-31 -1 16 239 1037 0 ?217 241 225 238 0 0 1 30 240 1088 0
 241 238 242 0 +.00127 334100863023396e-33 .0021 161821219773956e-30 -1 61232339
9573677e-31 16 241 1039 0 ?228 243 239 240 0 0 1 30 242 1087 0 243 240 244 0 +94
2124781365467e-82 -67e-5 .0021 1 -377373430684139e-63 -616297582203916e-47 16 24
3 1044 0 ?193 245 241 242 0 0 1 30 244 1086 0 245 242 246 0 +.00105 -13311605875
84428e-34 .0021 2492418787323e-28 1 -612323399573677e-31 16 245 1035 0 ?247 29 2
43 244 0 0 1 30 246 1085 0 29 244 248 0 +.00105 -67e-5 .0021 0 -612323399573677e
-31 -1 16 29 1042 0 ?23 233 245 246 0 0 1 30 248 1084 0 233 246 249 0 +.00127 -6
7e-5 .0021 0 -612323399573677e-31 -1 16 233 1040 0 ?230 250 29 248 0 0 1 30 249
 682 0 251 248 252 0 +32e-5 -32e-5 -.003 0 0 1 16 251 916 0 ?33 253 254 249 254
 254 1 30 252 681 0 255 249 256 0 +-32e-5 -32e-5 -.003 0 0 1 16 255 880 0 ?182 2
54 257 252 257 257 1 30 256 680 0 258 252 259 0 +-32e-5 32e-5 -.003 0 0 1 16 258
 877 0 ?87 257 260 256 260 260 1 30 259 679 0 261 256 262 0 +32e-5 32e-5 -.003 0
 0 1 16 261 908 0 ?185 260 263 259 263 263 1 30 262 678 0 253 259 264 0 +0 32e-5
 .00254 1 0 0 16 253 583 0 ?265 266 251 262 0 0 1 30 264 677 0 266 262 267 0 +-3
2e-5 -271050543121376e-34 .00254 -8470329472543e-29 1 0 16 266 580 0 ?268 269 25
3 264 0 0 1 30 267 676 0 269 264 270 0 +0 -32e-5 .00254 -1 0 0 16 269 577 0 ?271
 272 266 267 0 0 1 30 270 675 0 272 267 273 0 +32e-5 542101086242752e-34 .00254
 16940658945086e-29 -1 0 16 272 574 0 ?274 275 269 270 0 0 1 30 273 486 0 276 27
0 277 0 +.00105 -87e-5 -52340794533783e-32 4015563601798165e-31 0 1 16 276 422 0
 ?278 279 280 273 0 0 1 30 277 485 0 279 273 281 0 +.00105 -87e-5 54e-5 0 1 6231
0469683075e-30 16 279 418 0 ?282 283 276 277 0 0 1 30 281 484 0 283 277 284 0 +.
00105 87e-5 -52340794533783e-32 -4015563601798165e-31 -200778180089908e-30 -1 16
 283 414 0 ?285 286 279 281 0 0 1 30 284 482 0 275 281 287 0 +-.00105 -87e-5 0 4
015563601798165e-31 0 1 16 275 429 0 ?288 289 272 284 0 0 1 30 287 481 0 289 284
 290 0 +-.00105 -87e-5 54e-5 0 1 62310469683075e-30 16 289 432 0 ?291 280 275 28
7 0 0 1 30 290 480 0 280 287 292 0 +-.00105 87e-5 0 -4015563601798165e-31 -20077
8180089908e-30 -1 16 280 435 0 ?154 276 289 290 0 0 1 30 292 479 0 293 290 294 0
 +.00105 87e-5 -52340794533783e-32 -1 0 2492418787323e-28 16 293 417 0 ?295 296
 297 292 0 0 1 30 294 478 0 297 292 298 0 +.00105 87e-5 54e-5 -1 0 2492418787323
e-28 16 297 421 0 ?158 293 299 294 0 0 1 30 298 477 0 299 294 300 0 +.00105 -87e
-5 54e-5 -1 0 2492418787323e-28 16 299 425 0 ?161 297 286 298 0 0 1 30 300 476 0
 286 298 301 0 +.00105 -87e-5 -52340794533783e-32 -1 0 2492418787323e-28 16 286
 413 0 ?164 299 283 300 0 0 1 30 301 343 0 302 300 303 0 +-.00127 33410086302339
6e-33 .0021 -161821219773956e-30 -1 612323399573677e-31 16 302 278 0 ?143 304 30
5 301 0 0 1 30 303 342 0 304 301 306 0 +758000809799839e-83 67e-5 .0021 -1 -3773
73430684139e-63 -616297582203916e-47 16 304 285 0 ?151 307 302 303 0 0 1 30 306
 341 0 307 303 308 0 +-.00105 -1331160587584428e-34 .0021 -2492418787323e-28 1 -
612323399573677e-31 16 307 281 0 ?149 309 304 306 0 0 1 30 308 340 0 309 306 310
 0 +-942124781365467e-82 -67e-5 .0021 -1 -377373430684139e-63 -616297582203916e-
47 16 309 265 0 ?311 312 307 308 0 0 1 30 310 339 0 296 308 313 0 +-.00127 25449
8821078818e-33 8e-4 -161821219773956e-30 -1 612323399573677e-31 16 296 261 0 ?31
4 315 293 310 0 0 1 30 313 338 0 315 310 316 0 +758000809799839e-83 67e-5 8e-4 -
1 -377373430684139e-63 -616297582203916e-47 16 315 274 0 ?140 317 296 313 0 0 1
 30 316 337 0 317 313 318 0 +-.00105 -2127181007030205e-34 8e-4 -2492418787323e-
28 1 -612323399573677e-31 16 317 269 0 ?319 305 315 316 0 0 1 30 318 336 0 305 3
16 320 0 +-942124781365467e-82 -67e-5 8e-4 -1 -377373430684139e-63 -616297582203
916e-47 16 305 288 0 ?321 302 317 318 0 0 1 30 320 335 0 322 318 323 0 +-.00127
 -67e-5 .0021 0 -612323399573677e-31 -1 16 322 268 0 ?133 324 325 320 0 0 1 30 3
23 334 0 325 320 326 0 +-.00105 -67e-5 .0021 0 -612323399573677e-31 -1 16 325 27
3 0 ?327 322 328 323 0 0 1 30 326 333 0 328 323 329 0 +-.00105 67e-5 .0021 0 -61
2323399573677e-31 -1 16 328 277 0 ?330 325 312 326 0 0 1 30 329 332 0 312 326 33
1 0 +-.00127 67e-5 .0021 0 -612323399573677e-31 -1 16 312 264 0 ?332 328 309 329
 0 0 1 30 331 5 0 333 329 334 0 +-65e-5 .00127 .00254 -1 0 0 16 333 4 0 ?335 336
 337 331 0 0 1 30 334 8 0 336 331 338 0 +-.00105 87e-5 .00254 -.707106781186548
 -.707106781186548 0 16 336 7 0 ?128 339 333 334 0 0 1 30 338 11 0 339 334 340 0
 +-.00105 87e-5 .00254 2492418787323e-28 -1 0 16 339 10 0 ?125 341 336 338 0 0 1
 30 340 14 0 341 338 342 0 +-.00105 -87e-5 .00254 .707106781186547 -.70710678118
6548 0 16 341 13 0 ?122 343 339 340 0 0 1 30 342 17 0 343 340 344 0 +-65e-5 -.00
127 .00254 1 -166800334228539e-30 0 16 343 16 0 ?119 345 341 342 0 0 1 30 344 20
 0 345 342 346 0 +65e-5 -.00127 .00254 .707106781186547 .707106781186548 0 16 34
5 19 0 ?116 347 343 344 0 0 1 30 346 23 0 347 344 348 0 +.00105 87e-5 .00254 -12
462093936615e-29 1 0 16 347 22 0 ?113 349 345 346 0 0 1 30 348 26 0 349 346 350
 0 +65e-5 .00127 .00254 -.707106781186548 .707106781186547 0 16 349 25 0 ?110 35
1 347 348 0 0 1 30 350 125 0 324 348 352 0 +-65e-5 .00127 0 -1 0 0 16 324 105 0
 ?353 354 322 350 0 0 1 30 352 124 0 354 350 355 0 +-.00105 87e-5 0 -.7071067811
86548 -.707106781186548 0 16 354 101 0 ?356 357 324 352 0 0 1 30 355 122 0 357 3
52 358 0 +-.00105 -87e-5 0 .707106781186547 -.707106781186548 0 16 357 93 0 ?104
 359 354 355 0 0 1 30 358 121 0 359 355 360 0 +-65e-5 -.00127 0 1 -1668003342285
39e-30 0 16 359 89 0 ?101 361 357 358 0 0 1 30 360 120 0 361 358 362 0 +65e-5 -.
00127 0 .707106781186547 .707106781186548 0 16 361 85 0 ?363 337 359 360 0 0 1 3
0 362 118 0 337 360 364 0 +65e-5 .00127 0 -.707106781186548 .707106781186547 0 1
6 337 77 0 ?94 333 361 362 0 0 1 30 364 166 0 351 362 365 0 +65e-5 .00127 .00254
 0 0 -1 16 351 134 0 ?366 367 349 364 0 0 1 30 365 167 0 367 364 368 0 +.00105 8
7e-5 .00254 0 0 -1 16 367 135 0 ?369 370 351 365 0 0 1 30 368 168 0 370 365 371
 0 +.00105 -87e-5 .00254 0 0 -1 16 370 136 0 ?372 373 367 368 0 0 1 30 371 169 0
 373 368 374 0 +65e-5 -.00127 .00254 0 0 -1 16 373 137 0 ?375 376 370 371 0 0 1
 30 374 170 0 376 371 377 0 +-65e-5 -.00127 .00254 0 0 -1 16 376 138 0 ?378 379
 373 374 0 0 1 30 377 171 0 379 374 380 0 +-.00105 -87e-5 .00254 0 0 -1 16 379 1
39 0 ?381 382 376 377 0 0 1 30 380 172 0 382 377 383 0 +-.00105 87e-5 .00254 0 0
 -1 16 382 140 0 ?384 385 379 380 0 0 1 30 383 173 0 385 380 386 0 +-65e-5 .0012
7 .00254 0 0 -1 16 385 141 0 ?387 388 382 383 0 0 1 30 386 522 0 388 383 389 0 +
.00105 32e-5 54e-5 -1 0 2492418787323e-28 16 388 520 0 ?390 391 385 386 0 0 1 30
 389 526 0 391 386 392 0 +-32e-5 -87e-5 54e-5 8470329472543e-29 -1 -623104696830
75e-30 16 391 524 0 ?393 394 388 389 0 0 1 30 392 530 0 394 389 395 0 +.00105 -3
2e-5 54e-5 1 0 -2492418787323e-28 16 394 528 0 ?396 397 391 392 0 0 1 30 395 533
 0 397 392 398 0 +32e-5 -87e-5 54e-5 -16940658945086e-29 1 62310469683075e-30 16
 397 531 0 ?399 400 394 395 0 0 1 30 398 751 0 400 395 401 0 +0 -.00011999999999
99978 .00854 1 0 0 16 400 749 0 ?78 402 397 398 0 0 1 30 401 755 0 402 398 403 0
 +-.0001199999999999978 -1016439536705142e-35 .00854 8470329472543e-29 -1 0 16 4
02 753 0 ?81 404 400 401 0 0 1 30 403 759 0 404 401 405 0 +0 .000119999999999997
8 .00854 -1 0 0 16 404 757 0 ?75 406 402 403 0 0 1 30 405 762 0 406 403 407 0 +.
0001199999999999978 2032879073410285e-35 .00854 -16940658945086e-29 1 0 16 406 7
60 0 ?408 409 404 405 0 0 1 30 407 773 0 409 405 410 0 +32e-5 32e-5 .00834 16940
658945086e-29 -1 0 16 409 771 0 ?411 412 406 407 0 0 1 30 410 781 0 412 407 413
 0 +-32e-5 32e-5 .00834 1 0 0 16 412 779 0 ?69 414 409 410 0 0 1 30 413 789 0 41
4 410 415 0 +-32e-5 32e-5 .00834 -8470329472543e-29 1 0 16 414 787 0 ?63 416 412
 413 0 0 1 30 415 794 0 416 413 417 0 +-32e-5 -32e-5 .00834 -1 0 0 16 416 792 0
 ?60 418 414 415 0 0 1 30 417 843 0 419 415 420 0 -799999999999985e-19 799999999
999985e-19 .00858 .577350269189626 .577350269189626 -.577350269189626 16 419 827
 0 ?72 421 16 417 0 0 1 30 420 842 0 421 417 422 0 -799999999999985e-19 -7999999
99999985e-19 .00858 -.577350269189626 .577350269189626 .577350269189626 16 421 8
25 0 ?66 423 419 420 0 0 1 30 422 841 0 423 420 424 0 --799999999999986e-19 7999
99999999985e-19 .00858 -.577350269189626 .577350269189626 -.577350269189626 16 4
23 822 0 ?425 426 421 422 0 0 1 30 424 840 0 426 422 427 0 +-799999999999985e-19
 -799999999999985e-19 .00858 -.577350269189626 -.577350269189626 -.5773502691896
26 16 426 819 0 ?428 263 423 424 0 0 1 30 427 884 0 418 424 429 0 +-32e-5 -32e-5
 -.0028 8470329472543e-29 -1 0 16 418 882 0 ?430 431 416 427 0 0 1 30 429 893 0
 431 427 432 0 +-32e-5 -.0001199999999999978 -.003 -1 0 0 16 431 891 0 ?48 433 4
18 429 0 0 1 30 432 897 0 433 429 434 0 +.0001199999999999978 -32e-5 -.003 16940
658945086e-29 -1 0 16 433 895 0 ?51 435 431 432 0 0 1 30 434 901 0 435 432 436 0
 +32e-5 .0001199999999999978 -.003 1 0 0 16 435 899 0 ?45 437 433 434 0 0 1 30 4
36 904 0 437 434 438 0 +-.0001199999999999978 32e-5 -.003 -8470329472543e-29 1 0
 16 437 902 0 ?439 440 435 436 0 0 1 30 438 912 0 440 436 441 0 +-32e-5 32e-5 -.
0028 -1 0 0 16 440 910 0 ?57 21 437 438 0 0 1 30 441 920 0 21 438 22 0 +32e-5 32
e-5 -.0028 -16940658945086e-29 1 0 16 21 918 0 ?37 9 440 441 0 0 1 30 22 925 0 9
 441 442 0 +32e-5 -32e-5 -.0028 1 0 0 30 442 976 0 250 22 443 0 --32e-5 -32e-5 -
.0028 .577350269189627 .577350269189628 -.577350269189623 16 250 960 0 ?54 444 2
33 442 0 0 1 30 443 975 0 444 442 17 0 --32e-5 32e-5 -.0028 -.577350269189628 .5
77350269189628 .577350269189622 16 444 958 0 ?42 445 250 443 0 0 1 30 17 974 0 4
45 443 6 0 +.0001066666666666654 -.0001066666666666654 -.003013333333333335 .577
350269189628 -.577350269189627 .577350269189622 16 445 955 0 ?446 16 444 17 0 0
 1 17 446 0 447 35 448 24 449 445 0 0 +16 16 952 0 ?450 419 445 6 0 0 1 17 450 0
 451 452 453 43 454 16 0 0 +15 451 942 0 450 455 0 17 452 0 451 456 450 38 45 43
5 0 439 -17 453 0 451 450 456 31 57 440 0 0 -17 454 0 457 458 459 31 450 16 0 45
3 -15 457 940 0 449 14 0 17 458 0 457 449 454 24 37 21 0 446 -17 459 0 457 454 4
49 43 51 433 0 450 -17 449 0 457 459 458 49 446 445 0 448 -17 51 0 460 48 45 49
 459 433 0 449 +15 460 888 0 48 461 0 17 48 0 460 439 51 46 448 431 0 462 +17 45
 0 460 51 439 43 452 435 0 459 +17 439 0 460 45 48 38 462 437 0 0 +17 462 0 463
 54 42 46 439 437 0 464 -15 463 946 0 42 465 0 17 54 0 463 466 462 52 464 250 0
 35 +17 42 0 463 462 466 38 456 444 0 452 +17 464 0 447 448 35 46 54 250 0 0 -15
 447 944 0 446 467 0 17 448 0 447 446 464 49 48 431 0 0 -17 35 0 447 464 446 52
 20 9 0 430 -17 430 0 468 182 469 52 466 418 0 34 +15 468 636 0 469 470 0 17 182
 0 468 471 430 180 34 255 0 472 +17 469 0 468 430 471 55 87 258 0 456 -17 466 0
 463 42 54 55 430 418 0 0 -17 34 0 32 20 472 52 182 255 0 0 -15 32 628 0 34 473
 0 17 472 0 32 34 33 180 396 394 0 393 -17 33 0 32 472 20 175 36 251 0 474 +17 3
96 0 475 399 393 175 472 394 0 0 +17 393 0 475 396 390 180 471 391 0 0 +15 475 5
17 0 396 476 477 17 390 0 475 393 399 85 478 388 0 0 +17 471 0 468 469 182 85 39
3 391 0 390 -17 399 0 475 390 396 183 474 397 0 0 +17 478 0 479 480 87 183 390 3
88 0 399 -15 479 644 0 480 481 0 17 480 0 479 57 478 31 185 261 0 454 -17 87 0 4
79 478 57 85 469 258 0 471 +17 57 0 479 87 480 55 453 440 0 469 +17 185 0 482 47
4 37 183 480 261 0 478 +15 482 620 0 36 483 0 17 474 0 482 36 185 175 399 397 0
 396 -17 37 0 482 185 36 31 458 21 0 480 +17 36 0 482 37 474 24 33 251 0 458 -14
 255 483 617 484 ?485 473 482 4 486 +485 485 485 473 19 81 255 1 484 1263 487 48
3 488 0 0 489 490 14 485 613 489 ?491 483 492 4 486 +483 483 491 483 19 14 473 6
25 493 ?483 470 32 4 494 +491 491 483 470 19 50 486 669 0 485 495 496 0 +32e-5 3
2e-5 -.003 1 16940658945086e-29 0 -16940658945086e-29 1 0 13 19 53 0 0 0 0 0 0 8
 12 14 12 380 497 ?498 0 499 4 500 +501 501 498 0 19 81 1 497 1266 487 12 502 0
 493 503 504 14 498 257 503 ?505 12 506 4 507 -0 0 505 12 19 15 499 383 0 295 12
 0 50 500 117 0 501 508 509 0 +0 0 0 0 0 -1 -1 0 0 14 501 75 510 ?511 512 513 4
 500 +12 12 511 512 19 81 1 510 1268 487 501 514 0 503 515 516 14 511 299 515 ?5
17 501 518 4 519 -0 0 517 501 19 14 512 1 520 ?501 521 522 4 508 -0 0 501 521 19
 15 513 378 0 523 501 0 17 523 0 513 524 525 96 164 286 0 363 -17 524 0 513 526
 523 99 363 361 0 0 -17 525 0 513 523 526 162 104 357 0 0 -17 164 0 527 288 98 1
62 523 286 0 528 +17 363 0 529 278 375 96 524 361 0 0 +15 529 146 0 363 530 0 17
 278 0 529 531 363 155 98 276 0 372 +17 375 0 529 363 532 99 533 373 0 524 +17 5
32 0 529 375 531 117 116 345 0 0 -17 533 0 534 535 101 117 375 373 0 532 -15 534
 148 0 101 536 0 17 535 0 534 378 533 120 119 343 0 0 -17 101 0 534 533 378 99 5
26 359 0 375 +17 378 0 534 101 535 102 537 376 0 526 +17 526 0 513 525 524 102 1
01 359 0 0 -17 537 0 538 539 104 120 378 376 0 535 -15 538 150 0 104 540 0 17 53
9 0 538 381 537 123 122 341 0 0 -17 104 0 538 537 528 102 525 357 0 378 +17 528
 0 538 104 381 162 288 275 0 525 -17 381 0 538 528 539 159 541 379 0 0 +17 288 0
 527 172 164 159 528 275 0 542 +15 527 461 0 288 543 0 17 172 0 527 98 288 155 1
61 299 0 544 -17 542 0 506 541 384 159 291 289 0 381 -15 506 152 0 384 498 545 1
7 541 0 506 546 542 123 381 379 0 539 -17 384 0 506 542 546 156 547 382 0 0 +17
 291 0 477 170 161 156 542 289 0 548 +15 477 457 0 291 476 0 17 170 0 477 544 29
1 168 158 297 0 549 -17 161 0 477 291 544 159 172 299 0 288 +17 548 0 550 547 35
6 156 154 280 0 384 -15 550 154 0 356 551 0 17 547 0 550 130 548 126 384 382 0 5
46 -17 356 0 550 548 387 152 107 354 0 0 +17 154 0 552 167 158 152 548 280 0 295
 +15 552 453 0 154 553 0 17 167 0 552 549 154 141 295 293 0 285 -17 158 0 552 15
4 549 156 170 297 0 291 +17 295 0 499 107 554 152 167 293 0 356 +17 107 0 499 55
5 295 105 356 354 0 387 -17 554 0 499 295 555 141 94 337 0 0 -17 555 0 499 554 1
07 92 353 324 0 0 -17 94 0 556 557 285 92 554 337 0 366 +15 556 142 0 94 521 0 1
7 557 0 556 558 94 91 366 351 0 559 -17 285 0 556 94 369 141 549 283 0 554 +17 3
66 0 560 353 559 92 557 351 0 555 +15 560 156 0 353 505 0 17 353 0 560 561 366 1
05 555 324 0 0 +17 559 0 560 366 561 91 335 333 0 0 -17 561 0 560 559 353 95 387
 385 0 0 -17 335 0 562 128 110 95 559 333 0 561 +15 562 3 0 335 512 0 17 128 0 5
62 125 335 126 130 336 0 547 +17 110 0 562 335 113 91 558 349 0 557 +17 113 0 56
2 110 116 111 563 347 0 564 +17 558 0 556 369 557 111 110 349 0 0 -17 369 0 556
 285 558 168 564 367 0 0 +17 564 0 565 563 282 111 369 367 0 558 -15 565 144 0 3
72 566 0 17 563 0 565 372 564 114 113 347 0 0 -17 282 0 565 564 372 168 544 279
 0 369 +17 372 0 565 282 563 155 531 370 0 0 +17 544 0 477 161 170 155 282 279 0
 278 -17 531 0 529 532 278 114 372 370 0 563 -14 566 145 567 ?521 530 568 4 569
 -0 0 521 530 19 81 1 567 1271 487 566 570 0 520 571 572 14 521 143 571 ?512 566
 556 4 509 -0 0 512 566 19 14 530 147 573 ?566 536 529 4 574 -0 0 566 536 19 15
 568 1015 0 215 566 565 50 569 159 0 566 509 574 0 +.00105 87e-5 .00254 -1 -1246
2093936615e-29 0 12462093936615e-29 -1 0 50 509 158 0 521 500 569 0 +65e-5 .0012
7 .00254 -.707106781186547 -.707106781186548 0 .707106781186548 -.70710678118654
7 0 50 574 160 0 530 569 575 0 +65e-5 -.00127 .00254 -.707106781186548 .70710678
1186547 0 -.707106781186547 -.707106781186548 0 50 575 161 0 536 574 576 0 +-65e
-5 -.00127 .00254 166800334228539e-30 1 0 -1 166800334228539e-30 0 14 536 149 57
7 ?530 540 534 4 575 -0 0 530 540 19 50 576 162 0 540 575 507 0 +-.00105 -87e-5
 .00254 .707106781186548 .707106781186547 0 -.707106781186547 .707106781186548 0
 14 540 151 578 ?536 551 538 4 576 -0 0 536 551 19 50 507 163 0 498 576 579 0 +-
.00105 87e-5 .00254 1 2492418787323e-28 0 -2492418787323e-28 1 0 50 579 164 0 55
1 507 580 0 +-.00105 87e-5 .00254 .707106781186548 -.707106781186548 0 .70710678
1186548 .707106781186548 0 14 551 155 581 ?540 505 550 4 579 -0 0 540 505 19 50
 580 165 0 505 579 582 0 +-65e-5 .00127 .00254 0 -1 0 0 0 -1 14 505 157 583 ?551
 498 560 4 580 -0 0 551 498 19 50 582 839 0 584 580 585 0 -.0001199999999999978
 2032879073410285e-35 .00854 -.707106781186548 -1197885481783886e-31 -.707106781
186548 -16940658945086e-29 1 0 14 584 812 586 ?14 587 588 4 582 +0 0 14 587 19 5
0 585 838 0 587 582 589 0 -0 .0001199999999999978 .00854 0 -.707106781186548 -.7
07106781186548 -1 0 0 14 587 810 590 ?584 591 592 4 585 +0 0 584 591 19 50 589 8
37 0 591 585 593 0 -0 -.0001199999999999978 .00854 0 .707106781186548 -.70710678
1186548 1 0 0 14 591 808 594 ?587 595 596 4 589 +0 0 587 595 19 50 593 836 0 595
 589 597 0 --.0001199999999999978 -1016439536705142e-35 .00854 .707106781186548
 598942740891943e-31 -.707106781186548 8470329472543e-29 -1 0 14 595 806 598 ?59
1 599 600 4 593 +0 0 591 599 19 50 597 972 0 465 593 601 0 +-32e-5 32e-5 -.0028
 -.707106781186545 -59894274089194e-30 -.707106781186551 -8470329472543e-29 1 0
 14 465 945 602 ?231 467 463 4 597 +0 0 231 467 19 50 601 971 0 467 597 15 0 +-3
2e-5 -32e-5 -.0028 0 -.707106781186545 -.707106781186551 -1 0 0 14 467 943 603 ?
465 455 447 4 601 +0 0 465 455 19 50 15 970 0 455 601 5 0 +-32e-5 32e-5 -.0028 0
 .707106781186545 -.707106781186551 1 0 0 14 455 941 604 ?467 14 451 4 15 +0 0 4
67 14 19 81 1 604 1284 487 455 605 0 603 606 607 14 14 939 606 ?455 584 457 4 5
 +0 0 455 584 19 81 1 606 1285 487 14 608 0 604 609 610 80 255 1 487 611 612 900
0 1 1 1 1 1 1 1 1 0 FFFFTFTFFFFFFF1 81 1 608 1168 613 14 0 606 614 605 615 81 1
 609 1286 487 599 616 0 606 617 618 82 255 1 610 -869269173 14 599 664 609 ?595
 619 620 4 621 +0 0 595 619 19 81 1 616 1163 613 599 0 609 622 623 624 81 1 617
 1287 487 619 622 0 609 625 626 82 1 618 -904855222 14 619 637 617 ?599 627 628
 4 495 +481 481 599 627 19 81 1 622 1162 613 619 0 617 629 616 630 81 1 625 1288
 487 627 629 0 617 631 632 82 1 626 -898301622 14 627 629 625 ?619 491 633 4 634
 +470 470 619 491 19 81 1 629 1161 613 627 0 625 635 622 636 81 1 631 1289 487 4
91 635 0 625 637 638 82 1 632 -896663222 14 491 621 631 ?627 485 639 4 494 +473
 473 627 485 19 81 1 635 1160 613 491 0 631 640 629 641 81 1 637 1290 487 476 64
2 0 631 643 644 82 1 638 -895024822 14 476 454 637 ?543 553 475 4 645 -0 0 543 5
53 19 81 1 642 1152 613 476 0 637 646 647 648 81 1 643 1291 487 543 647 0 637 64
9 650 82 1 644 -951844535 14 543 458 643 ?461 476 527 4 651 -0 0 461 476 19 81 1
 647 1153 613 543 0 643 642 652 653 81 1 649 1292 487 553 646 0 643 654 655 82 1
 650 -951713464 14 553 450 649 ?476 656 552 4 496 -0 0 476 656 19 81 1 646 1151
 613 553 0 649 657 642 658 81 1 654 1293 487 656 657 0 649 659 660 82 1 655 -951
975608 14 656 320 654 ?553 661 662 4 663 +0 0 553 661 19 81 1 657 1150 613 656 0
 654 664 646 665 81 1 659 1294 487 661 664 0 654 666 667 82 1 660 179175735 14 6
61 316 659 ?656 668 669 4 670 -0 0 656 668 19 81 1 664 1149 613 661 0 659 671 65
7 672 81 1 666 1295 487 668 671 0 659 673 674 82 1 667 172622135 14 668 312 666
 ?661 517 675 4 676 -0 0 661 517 19 81 1 671 1148 613 668 0 666 677 664 678 81 1
 673 1296 487 517 677 0 666 679 680 82 1 674 180683063 14 517 303 673 ?668 511 6
81 4 682 +0 0 668 511 19 81 1 677 1147 613 517 0 673 683 671 684 81 1 679 1297 4
87 231 685 0 673 686 687 82 1 680 180224311 14 231 1061 679 ?688 465 227 4 689 -
0 0 688 465 19 81 1 685 1172 613 231 0 679 690 691 692 81 1 686 1298 487 688 691
 0 679 693 694 82 1 687 -783417012 14 688 1064 686 ?695 231 25 4 696 +0 0 695 23
1 19 81 1 691 1173 613 688 0 686 685 697 698 81 1 693 1299 487 695 697 0 686 699
 700 82 1 694 -783613620 14 695 1067 693 ?224 688 701 4 702 -0 0 224 688 19 81 1
 697 1174 613 695 0 693 691 703 704 81 1 699 1300 487 224 703 0 693 705 706 82 1
 700 -783482548 14 224 1070 699 ?212 695 218 4 707 -0 0 212 695 19 81 1 703 1175
 613 224 0 699 697 708 709 81 1 705 1301 487 212 708 0 699 710 711 82 1 706 -782
958260 14 212 1073 705 ?0 224 207 4 712 +0 0 0 224 19 81 1 708 1176 613 212 0 70
5 703 0 713 81 1 710 1302 487 461 652 0 705 714 715 82 1 711 -782827188 14 461 6
61 710 ?481 543 460 4 716 -0 0 481 543 19 81 1 652 1154 613 461 0 710 647 717 71
8 81 1 714 1303 487 481 717 0 710 719 720 82 1 715 -920387253 14 481 641 714 ?47
0 461 479 4 495 +619 619 470 461 19 81 1 717 1155 613 481 0 714 652 721 722 81 1
 719 1304 487 470 721 0 714 0 723 82 1 720 -898825909 14 470 633 719 ?473 481 46
8 4 634 +627 627 473 481 19 81 1 721 1156 613 470 0 719 717 724 725 82 1 723 -89
7187509 80 1 613 0 726 8001 0 0 0 0 3 5 0 0 0 FFFFTFTFFFFFFF2 81 1 724 1157 613
 473 0 493 721 488 727 83 255 3 725 .862745098039216 .741176470588235 .498039215
686275 81 1 493 1265 487 473 724 0 489 497 728 81 1 488 1158 613 483 0 484 724 6
40 729 83 3 727 .862745098039216 .741176470588235 .498039215686275 81 1 640 1159
 613 485 0 489 488 635 730 83 3 729 .862745098039216 .741176470588235 .498039215
686275 81 1 489 1264 487 485 640 0 484 493 731 83 3 730 .862745098039216 .741176
470588235 .498039215686275 82 1 731 -894041782 82 1 728 -895549109 79 255 15 726
 SDL/TYSA_COLOUR50 634 671 0 627 494 495 0 +-32e-5 32e-5 -.003 -1 -8470329472543
e-29 0 8470329472543e-29 -1 0 50 494 672 0 491 716 634 0 +-32e-5 -32e-5 -.003 0
 -1 0 0 0 -1 50 495 670 0 619 634 486 0 +-32e-5 32e-5 -.003 0 1 0 0 0 1 50 716 6
73 0 461 621 494 0 +0 0 -.003 0 0 1 1 0 0 50 621 674 0 599 689 716 0 +0 0 .00854
 0 0 1 1 0 0 50 689 1079 0 231 696 621 0 +.00127 334100863023396e-33 .0021 -1 -1
61821219773956e-30 990869194151477e-47 -161821219773956e-30 1 0 50 696 1080 0 68
8 702 689 0 +942124781365467e-82 -67e-5 .0021 0 -1 612323399573677e-31 0 -612323
399573677e-31 -1 50 702 1081 0 695 707 696 0 +4331623501927415e-83 1285879139104
72e-33 .0021 -616297582203916e-47 -612323399573677e-31 -1 0 1 -612323399573677e-
31 50 707 1082 0 224 712 702 0 +-758000809799839e-83 67e-5 .0021 0 -1 6123233995
73677e-31 0 -612323399573677e-31 -1 50 712 1083 0 212 0 707 0 +4331623501927415e
-83 489858719658941e-34 8e-4 -616297582203916e-47 -612323399573677e-31 -1 0 1 -6
12323399573677e-31 83 3 722 .862745098039216 .741176470588235 .498039215686275 8
3 3 718 .862745098039216 .741176470588235 .498039215686275 83 3 713 .14509803921
56862 .1411764705882352 .1411764705882352 83 3 709 .1450980392156862 .1411764705
882352 .1411764705882352 83 3 704 .1450980392156862 .1411764705882352 .141176470
5882352 15 701 1069 0 226 695 0 17 226 0 701 196 193 197 228 241 0 222 -17 196 0
 701 732 226 194 199 225 0 219 -17 193 0 701 226 732 191 27 243 0 232 +17 228 0
 227 230 222 191 226 241 0 0 +17 732 0 701 193 196 189 247 245 0 28 -17 27 0 25
 23 232 189 193 243 0 732 -17 232 0 25 27 26 191 230 233 0 228 -15 25 1066 0 26
 688 0 17 26 0 25 232 23 200 30 220 0 230 +17 30 0 207 209 208 10 26 220 0 215 -
17 215 0 568 28 217 10 209 216 0 0 -17 28 0 568 247 215 189 23 29 0 0 -17 217 0
 568 215 247 202 219 239 0 0 +17 247 0 568 217 28 194 732 245 0 0 +17 219 0 218
 199 204 194 217 239 0 247 -83 3 698 .1450980392156862 .1411764705882352 .141176
4705882352 81 1 690 1171 613 465 0 602 733 685 734 83 3 692 .1450980392156862 .1
411764705882352 .1411764705882352 81 1 602 1282 487 465 690 0 598 603 735 81 1 7
33 1170 613 467 0 603 605 690 736 83 3 734 .862745098039216 .741176470588235 .49
8039215686275 81 1 603 1283 487 467 733 0 602 604 737 81 1 605 1169 613 455 0 60
4 608 733 738 83 3 736 .862745098039216 .741176470588235 .498039215686275 83 3 7
38 .862745098039216 .741176470588235 .498039215686275 82 1 737 -871562933 81 1 5
98 1281 487 595 623 0 594 602 739 82 1 735 -873135797 81 1 623 1164 613 595 0 59
8 616 740 741 81 1 594 1280 487 591 740 0 590 598 742 82 1 739 -883162806 81 1 7
40 1165 613 591 0 594 623 743 744 81 1 590 1279 487 587 743 0 586 594 745 82 1 7
42 -884276918 81 1 743 1166 613 587 0 590 740 614 746 81 1 586 1278 487 584 614
 0 583 590 747 82 1 745 -885456566 81 1 614 1167 613 584 0 586 743 608 748 81 1
 583 1277 487 505 749 0 581 586 750 82 1 747 -887029430 81 1 749 1137 613 505 0
 583 751 752 753 81 1 581 1276 487 551 752 0 578 583 754 82 1 750 54657332 81 1
 752 1138 613 551 0 581 749 755 756 81 1 578 1275 487 540 755 0 577 581 757 82 1
 754 54395208 81 1 755 1139 613 540 0 578 752 758 759 81 1 577 1274 487 536 758
 0 573 578 760 82 1 757 53870920 81 1 758 1140 613 536 0 577 755 761 762 81 1 57
3 1273 487 530 761 0 571 577 763 82 1 760 53608756 81 1 761 1141 613 530 0 573 7
58 570 764 81 1 571 1272 487 521 765 0 567 573 766 82 1 763 53346632 81 1 765 11
43 613 521 0 571 570 767 768 82 1 766 52822344 81 1 570 1142 613 566 0 567 761 7
65 769 81 1 767 1144 613 512 0 520 765 514 770 83 3 768 .1450980392156862 .14117
64705882352 .1411764705882352 81 1 520 1270 487 512 767 0 515 567 771 81 1 514 1
145 613 501 0 510 767 683 772 83 3 770 .1450980392156862 .1411764705882352 .1411
764705882352 81 1 683 1146 613 511 0 515 514 677 773 83 3 772 .1450980392156862
 .1411764705882352 .1411764705882352 81 1 515 1269 487 511 683 0 510 520 774 83
 3 773 .1450980392156862 .1411764705882352 .1411764705882352 82 1 774 180945207
 82 1 771 40763721 83 3 769 .1450980392156862 .1411764705882352 .141176470588235
2 83 3 764 .1450980392156862 .1411764705882352 .1411764705882352 83 3 762 .14509
80392156862 .1411764705882352 .1411764705882352 83 3 759 .1450980392156862 .1411
764705882352 .1411764705882352 83 3 756 .1450980392156862 .1411764705882352 .141
1764705882352 81 1 751 1136 613 498 0 503 502 749 775 83 3 753 .1450980392156862
 .1411764705882352 .1411764705882352 81 1 503 1267 487 498 751 0 497 510 776 81
 1 502 1135 613 12 0 497 0 751 777 83 3 775 .1450980392156862 .1411764705882352
 .1411764705882352 83 3 777 .1450980392156862 .1411764705882352 .141176470588235
2 82 1 776 188612936 83 3 748 .862745098039216 .741176470588235 .498039215686275
 83 3 746 .862745098039216 .741176470588235 .498039215686275 83 3 744 .862745098
039216 .741176470588235 .498039215686275 83 3 741 .862745098039216 .741176470588
235 .498039215686275 83 3 684 .1450980392156862 .1411764705882352 .1411764705882
352 15 681 306 0 778 517 0 50 682 329 0 517 663 676 0 +-942124781365467e-82 -67e
-5 .0021 0 -1 612323399573677e-31 0 -612323399573677e-31 -1 50 663 330 0 656 670
 682 0 +-4331623501927415e-83 489858719658941e-34 8e-4 616297582203916e-47 -6123
23399573677e-31 -1 0 1 -612323399573677e-31 50 676 327 0 668 682 519 0 +75800080
9799839e-83 67e-5 .0021 0 -1 612323399573677e-31 0 -612323399573677e-31 -1 50 51
9 326 0 511 676 508 0 +-.00127 334100863023396e-33 .0021 1 -161821219773956e-30
 990869194151477e-47 161821219773956e-30 1 0 50 508 2 0 512 519 500 0 +0 0 .0025
4 0 0 -1 -1 0 0 50 670 331 0 661 651 663 0 +-4331623501927415e-83 12858791391047
2e-33 .0021 616297582203916e-47 -612323399573677e-31 -1 0 1 -612323399573677e-31
 50 651 471 0 543 645 670 0 +.00105 -87e-5 -52340794533783e-32 0 -1 0 0 0 -1 50
 645 472 0 476 496 651 0 +.00105 -87e-5 54e-5 2492418787323e-28 -62310469683075e
-30 1 1 0 -2492418787323e-28 50 496 473 0 553 486 645 0 +.00105 87e-5 -523407945
33783e-32 -500423308140608e-46 1 -200778180089908e-30 0 200778180089908e-30 1 17
 778 0 681 146 133 135 321 305 0 327 -17 146 0 681 311 778 144 327 325 0 779 -17
 133 0 681 778 311 131 780 322 0 314 +17 321 0 662 781 137 131 778 305 0 0 +17 3
27 0 545 319 782 135 146 325 0 0 +15 545 255 0 782 498 0 17 319 0 545 783 327 88
 137 317 0 0 +17 782 0 545 327 783 144 149 307 0 0 -17 783 0 545 782 319 147 330
 328 0 0 -17 149 0 669 151 779 147 782 307 0 784 +15 669 319 0 143 661 0 17 151
 0 669 143 149 134 784 304 0 785 +17 779 0 669 149 143 144 311 309 0 782 -17 784
 0 675 330 785 147 151 304 0 783 -15 675 315 0 140 668 0 17 330 0 675 140 784 88
 783 328 0 319 +17 785 0 675 784 140 134 332 312 0 786 -17 140 0 675 785 330 138
 90 315 0 332 +17 332 0 518 314 786 138 785 312 0 781 +17 786 0 518 332 780 134
 143 302 0 0 -15 518 302 0 314 511 0 17 780 0 518 786 314 108 133 322 0 311 -17
 143 0 669 779 151 108 786 302 0 780 +17 314 0 518 780 332 131 781 296 0 321 +17
 311 0 681 133 146 108 779 309 0 0 +17 781 0 662 90 321 138 314 296 0 0 -15 662
 323 0 781 656 0 17 90 0 662 137 781 88 140 315 0 330 -17 137 0 662 321 90 135 3
19 317 0 778 -83 3 678 .1450980392156862 .1411764705882352 .1411764705882352 83
 3 672 .1450980392156862 .1411764705882352 .1411764705882352 83 3 665 .145098039
2156862 .1411764705882352 .1411764705882352 83 3 658 .0980392156862745 .09803921
56862745 .0980392156862745 83 3 653 .0980392156862745 .0980392156862745 .0980392
156862745 83 3 648 .0980392156862745 .0980392156862745 .0980392156862745 83 3 64
1 .862745098039216 .741176470588235 .498039215686275 15 639 624 0 787 491 0 17 7
87 0 639 60 174 64 788 254 0 0 +17 60 0 639 789 787 58 790 416 0 791 +17 174 0 6
39 787 789 165 271 269 0 788 -17 788 0 492 792 411 165 787 254 0 274 -16 254 558
 0 ?787 251 255 249 251 251 1 15 492 616 0 793 485 0 17 792 0 492 793 788 82 274
 272 0 265 -17 411 0 492 788 793 64 794 409 0 787 +17 274 0 522 271 265 165 792
 272 0 0 +15 522 537 0 265 512 562 17 271 0 522 268 274 177 174 269 0 0 +17 265
 0 522 274 268 82 188 253 0 0 +17 268 0 522 265 271 186 179 266 0 0 +17 188 0 62
8 795 84 186 265 253 0 796 -15 628 640 0 795 619 0 17 795 0 628 69 188 61 796 26
0 0 797 +17 84 0 628 188 69 82 793 263 0 792 -17 796 0 633 179 63 186 795 260 0
 268 -15 633 632 0 791 627 0 17 179 0 633 791 796 177 268 266 0 789 -17 63 0 633
 796 791 61 798 414 0 795 +16 260 568 0 ?795 258 261 256 258 258 1 17 791 0 633
 63 179 58 789 257 0 798 +17 798 0 600 799 797 58 63 414 0 428 -15 600 807 0 797
 595 0 17 799 0 600 800 798 79 428 426 0 801 -17 797 0 600 798 800 61 425 423 0
 802 -17 428 0 596 790 801 58 799 426 0 0 +15 596 809 0 428 591 0 17 790 0 596 8
03 428 64 60 416 0 411 -17 801 0 596 428 803 79 78 400 0 0 -17 803 0 596 801 790
 76 66 421 0 804 -17 78 0 620 408 81 76 801 400 0 803 +15 620 746 0 78 599 0 17
 408 0 620 75 78 70 804 406 0 0 +17 81 0 620 78 75 79 800 402 0 799 +17 75 0 620
 81 408 73 805 404 0 800 +17 800 0 600 797 799 73 81 402 0 425 -17 425 0 592 805
 802 73 797 423 0 0 +15 592 811 0 425 587 0 17 805 0 592 806 425 70 75 404 0 408
 -17 802 0 592 425 806 61 69 412 0 0 -17 806 0 592 802 805 67 72 419 0 0 -17 69
 0 628 84 795 67 802 412 0 793 +17 793 0 492 411 792 67 84 263 0 794 +16 263 553
 0 ?793 261 426 259 261 261 1 17 794 0 588 72 66 67 411 409 0 806 -15 588 813 0
 66 584 0 17 72 0 588 804 794 70 806 419 0 805 +17 66 0 588 794 804 64 803 421 0
 790 +17 804 0 588 66 72 76 408 406 0 0 -17 789 0 639 174 60 177 791 257 0 271 -
16 257 563 0 ?791 255 258 252 255 255 1 83 3 636 .862745098039216 .7411764705882
35 .498039215686275 83 3 630 .862745098039216 .741176470588235 .498039215686275
 83 3 624 .862745098039216 .741176470588235 .498039215686275 83 3 615 .862745098
039216 .741176470588235 .498039215686275 79 14 612 SWEntUnchanged82 1 607 -87038
3285 82 1 572 53084492 17 116 0 562 113 119 114 532 345 0 531 +17 119 0 562 116
 122 117 535 343 0 533 +17 122 0 562 119 125 120 539 341 0 537 +17 125 0 562 122
 128 123 546 339 0 541 +17 546 0 506 384 541 126 125 339 0 0 -17 130 0 550 387 5
47 95 128 336 0 335 -17 387 0 550 356 130 105 561 385 0 353 +17 549 0 552 158 16
7 168 285 283 0 282 -17 98 0 527 164 172 96 278 276 0 523 -82 1 516 51118408 82
 1 504 -948764344 82 1 490 -894566069 17 456 0 451 453 452 55 42 444 0 466 -19 1
3 175 0 1 0 8 4 S0 74 4 CI16 index_map_offset0 0 1 dCCZ20 11 2 0 0 719 708 0 0 0
 0 0 0 0 0 0 0 0 0 0 0 0 0 0 0 1 0 
