**ABCDEFGHIJKLMNOPQRSTUVWXYZabcdefghijklmnopqrstuvwxyz**************************
**PARASOLID !"#$%&'()*+,-./:;<=>?@[\]^_`{|}~0123456789**************************
**PART1;
MC=AMD64;
MC_MODEL=Intel64 Family 6 Model 60 Stepping 3, GenuineIntel;
MC_ID=unknown;
OS=Windows_NT;
OS_RELEASE=unknown;
FRU=Parasolid Version 31.1, build 284, 10- 9-2019;
APPL=SOLIDWORKS 2020-2020062;
SITE=;
USER=unknown;
FORMAT=text;
GUISE=transmit;
KEY=FUSERC_FUSERC3216(1206)X160;
FILE=FUSERC_FUSERC3216(1206)X160.x_t;
DATE=Mon Feb  8 14:48:29 2021;
**PART2;
SCH=SCH_3101284_31100;
USFLD_SIZE=0;
**PART3;
**END_OF_HEADER*****************************************************************
T51 : TRANSMIT FILE created by modeller version 310128423 SCH_3101284_31100_1300
6222 0 12 34 CCCCCCI4 mesh1006 0 I8 polyline1008 0 CCCCCCCDI5 owner1040 0 CCCCCC
I13 boundary_mesh1006 0 I17 boundary_polyline1008 0 CCCA16 index_map_offset0 0 1
 dA9 index_map82 0 A17 node_id_index_map82 0 A20 schema_embedding_map82 0 A5 chi
ld12 0 A14 lowest_node_id0 0 1 dA16 mesh_offset_data206 0 Z1 703 2 3 0 0 0 0 0 0
 1e3 1e-8 0 4 0 1 0 1 1 5 6 7 8 0 0 9 10 11 0 0 0 0 0 0 0 81 255 2 2 683 12 1 13
 0 0 0 0 14 70 11 CI9 list_type0 0 1 uI10 notransmit0 0 1 lCCCDCCDI12 finger_ind
ex0 0 1 dI12 finger_block1012 0 CZ3 0 4 T1 0 0 9 20 1 15 15 13 255 5 165 0 1 0 1
6 0 0 17 0 50 255 6 88 0 18 19 0 0 +-.0016 8e-4 .0016 0 -1 0 0 0 -1 30 255 7 317
 0 10 20 0 0 +-95e-5 0 0 0 1 0 29 255 8 475 0 11 21 0 -12125e-8 8e-4 .0016 19 8
 CCCCCCCA5 owner12 0 Z9 236 0 1 17 0 22 V0 16 255 10 315 0 ?23 0 24 7 0 0 1 18 2
55 11 473 0 25 0 26 8 ?1 17 255 25 0 27 28 29 11 30 31 0 32 +18 26 470 0 28 11 3
3 21 ?1 17 28 0 27 34 25 26 32 35 0 36 -18 33 467 0 37 26 38 39 ?1 29 21 472 0 2
6 39 8 -12125e-8 -8e-4 .0016 29 39 469 0 33 40 21 -67375e-8 -8e-4 .0016 29 40 31
1 0 38 41 39 -95e-5 8e-4 0 18 38 309 0 42 33 43 40 ?1 29 41 138 0 43 44 40 95e-5
 -8e-4 0 18 43 136 0 45 38 46 41 ?1 29 44 259 0 46 47 41 95e-5 8e-4 .0016 18 46
 198 0 48 43 49 44 ?1 29 47 260 0 49 50 44 95e-5 -8e-4 .0016 18 49 208 0 34 46 5
1 47 ?1 29 50 262 0 51 52 47 95e-5 8e-4 0 18 51 199 0 53 49 54 50 ?1 29 52 263 0
 54 55 50 .00162 -82e-5 -2e-5 18 54 207 0 56 51 57 52 ?1 29 55 264 0 57 58 52 .0
0162 -82e-5 .00162 18 57 206 0 59 54 60 55 ?1 29 58 265 0 60 61 55 .00162 82e-5
 .00162 18 60 205 0 62 57 63 58 ?1 29 61 266 0 63 64 58 .00162 82e-5 -2e-5 18 63
 202 0 65 60 66 61 ?1 29 64 267 0 66 67 61 95e-5 -82e-5 -2e-5 18 66 200 0 68 63
 69 64 ?1 29 67 268 0 69 70 64 95e-5 -82e-5 .00162 18 69 204 0 71 66 72 67 ?1 29
 70 269 0 72 73 67 95e-5 82e-5 .00162 18 72 203 0 74 69 75 70 ?1 29 73 270 0 75
 76 70 95e-5 82e-5 -2e-5 18 75 201 0 77 72 78 73 ?1 29 76 412 0 78 79 73 -95e-5
 8e-4 .0016 18 78 364 0 80 75 81 76 ?1 29 79 413 0 81 82 76 -95e-5 -8e-4 .0016 1
8 81 355 0 83 78 84 79 ?1 29 82 415 0 84 85 79 -95e-5 -8e-4 0 18 84 356 0 86 81
 87 82 ?1 29 85 416 0 87 88 82 -.00162 82e-5 .00162 18 87 360 0 89 84 90 85 ?1 2
9 88 417 0 90 91 85 -.00162 82e-5 -2e-5 18 90 361 0 92 87 93 88 ?1 29 91 418 0 9
3 94 88 -.00162 -82e-5 .00162 18 93 359 0 95 90 96 91 ?1 29 94 419 0 96 97 91 -.
00162 -82e-5 -2e-5 18 96 362 0 98 93 99 94 ?1 29 97 420 0 99 100 94 -95e-5 82e-5
 -2e-5 18 99 357 0 101 96 102 97 ?1 29 100 421 0 102 103 97 -95e-5 82e-5 .00162
 18 102 358 0 104 99 105 100 ?1 29 103 422 0 105 106 100 -95e-5 -82e-5 .00162 18
 105 363 0 107 102 108 103 ?1 29 106 423 0 108 109 103 -95e-5 -82e-5 -2e-5 18 10
8 366 0 110 105 111 106 ?1 29 109 568 0 112 113 106 -67375e-8 8e-4 .0016 18 112
 521 0 114 115 0 109 ?1 29 113 572 0 111 116 109 -67375e-8 8e-4 .00161 18 111 52
4 0 117 108 118 113 ?1 29 116 573 0 118 119 113 -12125e-8 8e-4 .00161 18 118 523
 0 120 111 121 116 ?1 29 119 574 0 121 122 116 -12125e-8 -8e-4 .00161 18 121 522
 0 123 118 115 119 ?1 29 122 575 0 115 0 119 -67375e-8 -8e-4 .00161 18 115 519 0
 124 121 112 122 ?1 17 124 0 125 126 127 115 123 128 0 129 -15 255 125 78 0 130
 131 0 17 126 0 125 130 124 33 132 133 0 134 +17 127 0 125 124 36 121 135 136 0
 137 -17 123 0 138 120 129 121 124 128 0 127 +16 128 509 0 ?123 139 140 141 0 0
 1 17 129 0 138 123 117 115 142 140 0 132 +15 138 544 0 129 143 0 17 117 0 138 1
29 120 111 144 145 0 146 +17 142 0 147 148 132 111 129 140 0 0 -16 140 506 0 ?12
9 128 35 149 0 0 1 17 132 0 147 142 134 115 126 133 0 0 -15 147 529 0 134 150 0
 17 134 0 147 132 148 33 151 152 0 0 +16 133 497 0 ?126 153 136 154 0 0 1 16 153
 351 0 ?155 156 133 157 0 0 1 16 136 501 0 ?135 133 158 159 0 0 1 30 154 556 0 1
33 159 157 0 +-67375e-8 -8e-4 .00161 0 0 -1 30 159 557 0 136 160 154 0 +-12125e-
8 -8e-4 .00161 0 0 -1 30 157 411 0 153 154 161 0 +-95e-5 -82e-5 -2e-5 0 1 0 30 1
61 410 0 156 157 162 0 +-95e-5 -82e-5 .00162 0 0 -1 16 156 354 0 ?110 163 153 16
1 0 0 1 30 162 409 0 163 161 164 0 +-95e-5 -82e-5 .00162 0 -1 0 16 163 353 0 ?16
5 166 156 162 0 0 1 30 164 408 0 166 162 167 0 +-95e-5 82e-5 .00162 0 0 1 16 166
 352 0 ?168 169 163 164 0 0 1 30 167 407 0 169 164 170 0 +-.00162 -82e-5 .00162
 1 0 0 16 169 347 0 ?171 172 166 167 0 0 1 30 170 406 0 172 167 173 0 +-.00162 -
82e-5 -2e-5 1 0 0 16 172 349 0 ?174 175 169 170 0 0 1 30 173 405 0 175 170 176 0
 +-.00162 -82e-5 .00162 0 0 -1 16 175 348 0 ?98 177 172 173 0 0 1 30 176 404 0 1
77 173 178 0 +-.00162 -82e-5 -2e-5 0 1 0 16 177 342 0 ?179 180 175 176 0 0 1 30
 178 403 0 180 176 181 0 +-.00162 82e-5 .00162 0 0 1 16 180 344 0 ?182 183 177 1
78 0 0 1 30 181 402 0 183 178 184 0 +-.00162 -82e-5 .00162 0 -1 0 16 183 346 0 ?
185 186 180 181 0 0 1 30 184 401 0 186 181 187 0 +-.00162 82e-5 .00162 1 0 0 16
 186 345 0 ?188 189 183 184 0 0 1 30 187 400 0 189 184 190 0 +-.00162 82e-5 -2e-
5 1 0 0 16 189 343 0 ?191 192 186 187 0 0 1 30 190 399 0 192 187 193 0 +-95e-5 -
8e-4 .0016 0 0 -1 16 192 339 0 ?194 195 189 190 0 0 1 30 193 398 0 195 190 196 0
 +-95e-5 8e-4 .0016 0 0 1 16 195 341 0 ?197 198 192 193 0 0 1 30 196 397 0 198 1
93 199 0 +-95e-5 0 .0016 0 1 0 16 198 350 0 ?200 201 195 196 0 0 1 30 199 258 0
 201 196 202 0 +95e-5 -82e-5 -2e-5 0 1 0 16 201 170 0 ?203 204 198 199 0 0 1 30
 202 257 0 204 199 205 0 +95e-5 82e-5 .00162 0 0 1 16 204 174 0 ?206 207 201 202
 0 0 1 30 205 256 0 207 202 208 0 +95e-5 -82e-5 .00162 0 -1 0 16 207 178 0 ?209
 210 204 205 0 0 1 30 208 255 0 210 205 211 0 +95e-5 -82e-5 .00162 0 0 -1 16 210
 182 0 ?212 213 207 208 0 0 1 30 211 254 0 213 208 214 0 +.00162 -82e-5 -2e-5 0
 1 0 16 213 185 0 ?215 216 210 211 0 0 1 30 214 253 0 216 211 217 0 +.00162 82e-
5 .00162 0 0 1 16 216 188 0 ?62 218 213 214 0 0 1 30 217 252 0 218 214 219 0 +.0
0162 -82e-5 .00162 0 -1 0 16 218 191 0 ?59 220 216 217 0 0 1 30 219 251 0 220 21
7 221 0 +.00162 -82e-5 .00162 0 0 -1 16 220 194 0 ?56 222 218 219 0 0 1 30 221 2
50 0 222 219 223 0 +.00162 -82e-5 -2e-5 -1 0 0 16 222 169 0 ?68 224 220 221 0 0
 1 30 223 249 0 224 221 225 0 +.00162 -82e-5 .00162 -1 0 0 16 224 181 0 ?71 226
 222 223 0 0 1 30 225 248 0 226 223 227 0 +.00162 82e-5 .00162 -1 0 0 16 226 177
 0 ?74 228 224 225 0 0 1 30 227 247 0 228 225 229 0 +.00162 82e-5 -2e-5 -1 0 0 1
6 228 173 0 ?77 230 226 227 0 0 1 30 229 246 0 230 227 231 0 +95e-5 -8e-4 .0016
 0 0 1 16 230 168 0 ?232 233 228 229 0 0 1 30 231 245 0 233 229 234 0 +95e-5 8e-
4 .0016 0 0 -1 16 233 166 0 ?235 236 230 231 0 0 1 30 234 244 0 236 231 237 0 +9
5e-5 0 .0016 0 -1 0 16 236 197 0 ?238 239 233 234 0 0 1 30 237 8 0 31 234 240 0
 +-.0016 8e-4 .0016 -1 0 0 16 31 148 0 ?25 241 242 237 242 242 1 30 240 14 0 243
 237 244 0 +-.0016 -8e-4 .0016 1 0 0 16 243 324 0 ?37 24 241 240 241 241 1 30 24
4 68 0 239 240 245 0 +-.0016 8e-4 0 -1 0 0 16 239 140 0 ?246 247 236 244 0 0 1 3
0 245 66 0 247 244 20 0 +-.0016 -8e-4 0 1 0 0 16 247 313 0 ?45 242 239 245 0 0 1
 30 20 144 0 24 245 7 0 +95e-5 0 0 0 -1 0 16 24 142 0 ?248 10 243 20 0 0 1 17 24
8 0 249 250 251 43 53 24 0 0 +15 249 44 0 250 252 0 17 250 0 249 23 248 84 45 24
7 0 0 -17 251 0 249 248 23 51 246 239 0 0 -17 53 0 253 48 254 51 248 24 0 235 -1
5 253 234 0 48 255 256 17 48 0 253 238 53 46 235 233 0 29 -17 254 0 253 53 238 4
3 232 230 0 248 -17 235 0 257 246 30 51 48 233 0 251 +15 257 82 0 246 18 0 17 24
6 0 257 197 235 38 251 239 0 0 +17 30 0 257 235 258 46 25 31 0 0 -17 258 0 257 3
0 144 11 259 158 0 0 +17 144 0 257 258 146 118 117 145 0 0 -17 259 0 260 137 32
 118 258 158 0 144 -16 158 505 0 ?258 136 261 160 0 0 1 16 261 493 0 ?148 158 14
5 262 0 0 1 30 160 558 0 158 262 159 0 +-12125e-8 8e-4 .00161 0 0 -1 30 262 559
 0 261 263 160 0 +-67375e-8 8e-4 .00161 0 0 -1 30 263 561 0 35 264 262 0 +-12125
e-8 -8e-4 .0016 -67762635780344e-30 1 0 16 35 498 0 ?32 140 152 263 0 0 1 30 264
 563 0 152 265 263 0 +-67375e-8 -8e-4 .0016 0 -1 0 16 152 490 0 ?134 35 0 264 0
 0 1 30 265 564 0 145 266 264 0 +-67375e-8 8e-4 .00161 -1 0 0 16 145 515 0 ?117
 261 139 265 0 0 1 30 266 565 0 139 141 265 0 +-12125e-8 -8e-4 .00161 -677626357
80344e-30 1 0 16 139 512 0 ?120 145 128 266 0 0 1 30 141 566 0 128 149 266 0 +-6
7375e-8 -8e-4 .00161 1 0 0 30 149 567 0 140 0 141 0 +-67375e-8 -8e-4 .00161 0 -1
 0 17 120 0 138 117 123 118 137 139 0 259 +17 137 0 260 135 259 121 120 139 0 0
 -15 260 537 0 32 267 0 17 135 0 260 32 137 26 127 136 0 0 +17 32 0 260 259 135
 11 28 35 0 258 +14 255 267 534 268 ?143 150 260 5 269 -0 0 143 150 22 81 1 268
 684 270 267 271 0 0 272 273 14 143 542 272 ?0 267 138 5 274 -0 0 0 267 22 14 15
0 526 275 ?267 276 147 5 277 -0 0 267 276 22 50 269 552 0 267 274 277 0 +-12125e
-8 -8e-4 .00161 -1 -67762635780344e-30 0 67762635780344e-30 -1 0 13 22 237 0 0 0
 0 0 0 9 16 14 16 487 278 ?279 0 280 5 281 +279 279 279 0 22 81 1 278 687 270 16
 282 0 275 283 284 14 279 482 283 ?285 16 27 5 281 +16 16 285 16 22 15 280 480 0
 37 16 0 50 281 2 0 16 286 287 0 +0 0 .0016 0 0 1 1 0 0 50 286 238 0 285 288 281
 0 +.00162 -82e-5 -2e-5 0 0 1 1 0 0 50 287 65 0 252 281 19 0 +0 0 0 0 0 1 1 0 0
 14 252 43 289 ?290 131 249 5 287 -0 0 290 131 22 50 19 86 0 131 287 6 0 +-.0016
 -8e-4 .0016 0 1 0 0 0 1 14 131 79 291 ?252 18 125 5 19 -0 0 252 18 22 81 1 291
 690 270 131 292 0 289 293 294 14 18 83 293 ?131 255 257 5 6 -0 0 131 255 22 81
 1 293 691 270 18 295 0 291 296 297 14 255 232 296 ?18 298 253 5 299 +0 0 18 298
 22 81 1 296 692 270 255 300 0 293 301 302 14 298 229 301 ?255 303 304 5 305 -0
 0 255 303 22 50 299 243 0 255 306 305 0 +95e-5 0 0 -1 0 0 0 0 1 50 306 391 0 29
0 307 299 0 +-.00162 -82e-5 -2e-5 0 0 1 -1 0 0 50 305 242 0 298 299 308 0 +.0016
2 0 0 -1 0 0 0 0 1 50 308 241 0 303 305 309 0 +.00162 -82e-5 .00162 0 1 0 0 0 1
 14 303 225 310 ?298 311 312 5 308 -0 0 298 311 22 50 309 240 0 311 308 288 0 +.
00162 -82e-5 .00162 0 0 -1 -1 0 0 14 311 221 313 ?303 314 315 5 309 -0 0 303 314
 22 50 288 239 0 314 309 286 0 +.00162 82e-5 .00162 0 -1 0 0 0 -1 14 314 217 316
 ?311 285 317 5 288 -0 0 311 285 22 81 1 316 696 270 314 318 0 313 319 320 14 28
5 213 319 ?314 279 321 5 286 -0 0 314 279 22 15 317 220 0 77 314 0 17 77 0 317 2
06 65 75 322 228 0 323 +17 206 0 317 324 77 72 323 204 0 0 +17 65 0 317 77 324 6
3 62 216 0 215 -17 322 0 321 325 203 63 77 228 0 0 -17 323 0 256 326 327 75 206
 204 0 203 -15 256 235 0 326 255 0 17 326 0 256 328 323 66 203 201 0 212 -17 327
 0 256 323 328 72 209 207 0 206 -17 203 0 321 322 68 75 326 201 0 0 +15 321 216
 0 68 285 0 17 68 0 321 203 325 66 329 222 0 326 +17 325 0 321 68 322 54 215 213
 0 0 -17 329 0 312 330 212 54 68 222 0 325 -15 312 228 0 71 303 0 17 330 0 312 7
1 329 57 56 220 0 0 -17 212 0 312 329 71 66 328 210 0 0 +17 71 0 312 212 330 69
 331 224 0 209 +17 328 0 256 327 326 69 212 210 0 0 -17 331 0 315 332 209 57 71
 224 0 330 -17 209 0 315 331 74 69 327 207 0 328 +15 315 224 0 74 311 0 17 74 0
 315 209 332 72 324 226 0 327 +17 332 0 315 74 331 60 59 218 0 0 -17 324 0 317 6
5 206 60 74 226 0 332 -17 59 0 304 56 62 57 332 218 0 331 +15 304 231 0 215 298
 0 17 56 0 304 215 59 54 330 220 0 329 +17 62 0 304 59 215 60 65 216 0 324 +17 2
15 0 304 62 56 63 325 213 0 322 +81 1 319 697 270 285 333 0 316 334 335 80 255 1
 270 336 337 9000 1 1 1 1 1 1 1 1 0 FFFFTFTFFFFFFF1 81 1 333 621 338 285 0 319 3
39 318 340 81 1 334 698 270 276 341 0 319 342 343 82 255 1 335 -966721321 14 276
 385 334 ?150 344 345 5 346 +0 0 150 344 22 81 1 341 635 338 276 0 334 347 348 3
49 81 1 342 699 270 344 347 0 334 350 351 82 1 343 -886964008 14 344 382 342 ?27
6 352 353 5 354 -0 0 276 352 22 81 1 347 634 338 344 0 342 355 341 356 81 1 350
 700 270 352 355 0 342 357 358 82 1 351 -887095080 14 352 379 350 ?344 359 360 5
 361 -0 0 344 359 22 81 1 355 633 338 352 0 350 362 347 363 81 1 357 701 270 359
 362 0 350 364 365 82 1 358 -887226152 14 359 376 357 ?352 366 367 5 368 -0 0 35
2 366 22 81 1 362 632 338 359 0 357 369 355 370 81 1 364 702 270 366 369 0 357 3
71 372 82 1 365 -887619368 14 366 373 364 ?359 290 373 5 307 -0 0 359 290 22 81
 1 369 631 338 366 0 364 374 362 375 81 1 371 703 270 290 374 0 364 0 376 82 1 3
72 -887750440 14 290 370 371 ?366 252 377 5 306 -0 0 366 252 22 81 1 374 630 338
 290 0 371 378 369 379 82 1 376 -887553832 80 1 338 0 380 8001 0 0 0 0 3 5 0 0 0
 FFFFTFTFFFFFFF2 81 1 378 629 338 252 0 289 292 374 381 83 255 3 379 .8235294117
64706 .819607843137255 .780392156862745 81 1 289 689 270 252 378 0 283 291 382 8
1 1 292 628 338 131 0 291 295 378 383 83 3 381 0 .752941176470588 0 81 1 295 627
 338 18 0 293 300 292 384 83 3 383 0 .752941176470588 0 81 1 300 626 338 255 0 2
96 385 295 386 83 3 384 0 .752941176470588 0 81 1 385 625 338 298 0 301 387 300
 388 83 3 386 .823529411764706 .819607843137255 .780392156862745 81 1 301 693 27
0 298 385 0 296 310 389 81 1 387 624 338 303 0 310 390 385 391 83 3 388 .8235294
11764706 .819607843137255 .780392156862745 81 1 310 694 270 303 387 0 301 313 39
2 81 1 390 623 338 311 0 313 318 387 393 83 3 391 .823529411764706 .819607843137
255 .780392156862745 81 1 313 695 270 311 390 0 310 316 394 81 1 318 622 338 314
 0 316 333 390 395 83 3 393 .823529411764706 .819607843137255 .780392156862745 8
3 3 395 .823529411764706 .819607843137255 .780392156862745 82 1 394 -967245609 8
2 1 392 -967507753 82 1 389 -974061353 81 1 283 688 270 279 339 0 278 289 396 82
 1 382 -1006698280 81 1 339 620 338 279 0 283 282 333 397 82 1 396 -849674022 81
 1 282 619 338 16 0 278 0 339 398 83 3 397 0 .752941176470588 0 83 3 398 0 .7529
41176470588 0 79 255 15 380 SDL/TYSA_COLOUR15 377 372 0 399 290 0 17 399 0 377 1
79 400 96 174 172 0 0 -17 179 0 377 191 399 90 401 177 0 0 +17 400 0 377 399 191
 108 155 153 0 174 -17 174 0 353 107 98 108 399 172 0 0 +15 353 384 0 402 344 0
 17 107 0 353 402 174 105 110 156 0 165 -17 98 0 353 174 402 96 95 175 0 401 +17
 402 0 353 98 107 93 171 169 0 185 -17 95 0 360 89 401 93 98 175 0 402 -17 401 0
 360 95 92 96 179 177 0 399 -15 360 381 0 401 352 0 17 92 0 360 401 89 90 182 18
0 0 403 -17 89 0 360 92 95 87 185 183 0 404 -17 182 0 373 188 403 87 92 180 0 0
 +17 403 0 373 182 101 90 191 189 0 179 -15 373 375 0 403 366 0 17 101 0 373 403
 188 99 168 166 0 155 -17 191 0 377 400 179 99 403 189 0 0 +17 188 0 373 101 182
 102 404 186 0 0 +17 168 0 405 165 155 102 101 166 0 188 +17 155 0 405 168 110 9
9 400 153 0 191 +15 405 388 0 155 276 0 17 110 0 405 155 165 108 107 156 0 400 +
17 165 0 405 110 168 105 104 163 0 171 +17 104 0 367 404 171 102 165 163 0 168 -
17 171 0 367 104 185 105 402 169 0 0 +15 367 378 0 404 359 0 17 185 0 367 171 40
4 93 89 183 0 0 +17 404 0 367 185 104 87 188 186 0 182 -83 3 375 .82352941176470
6 .819607843137255 .780392156862745 50 307 392 0 366 368 306 0 +-.00162 82e-5 .0
0162 0 -1 0 0 0 -1 50 368 393 0 359 361 307 0 +-.00162 -82e-5 .00162 0 0 -1 1 0
 0 50 361 394 0 352 354 368 0 +-.00162 0 0 1 0 0 0 0 1 50 354 395 0 344 346 361
 0 +-.00162 -82e-5 .00162 0 1 0 0 0 1 50 346 396 0 276 277 354 0 +-95e-5 0 0 1 0
 0 0 0 1 50 277 550 0 150 269 346 0 +-67375e-8 -8e-4 .00161 1 0 0 0 0 -1 83 3 37
0 .823529411764706 .819607843137255 .780392156862745 83 3 363 .823529411764706 .
819607843137255 .780392156862745 83 3 356 .823529411764706 .819607843137255 .780
392156862745 81 1 348 636 338 150 0 275 341 271 406 83 3 349 .823529411764706 .8
19607843137255 .780392156862745 81 1 275 686 270 150 348 0 272 278 407 81 1 271
 637 338 267 0 268 348 408 409 83 3 406 .1450980392156862 .1411764705882352 .141
1764705882352 81 1 408 638 338 143 0 272 271 0 410 83 3 409 .1450980392156862 .1
411764705882352 .1411764705882352 81 1 272 685 270 143 408 0 268 275 411 83 3 41
0 .1450980392156862 .1411764705882352 .1411764705882352 82 1 411 -861732646 82 1
 407 -854392614 15 345 387 0 83 276 405 17 83 0 345 200 86 81 194 192 0 412 -17
 200 0 345 42 83 78 412 198 0 197 +17 86 0 345 83 42 84 23 10 0 194 -17 194 0 12
5 45 130 84 83 192 0 250 +17 412 0 280 37 80 81 200 198 0 130 -17 37 0 280 151 4
12 33 130 243 0 126 +17 80 0 280 412 151 78 114 242 0 200 +17 130 0 125 194 126
 81 37 243 0 0 -17 151 0 280 80 37 112 134 152 0 148 -17 114 0 257 146 197 112 8
0 242 0 151 -16 242 477 0 ?80 31 247 237 31 31 1 17 146 0 257 144 114 111 148 26
1 0 142 -17 197 0 257 114 246 78 42 195 0 0 +17 42 0 345 86 200 38 197 195 0 23
 -17 23 0 249 251 250 38 86 10 0 246 +17 148 0 147 134 142 112 146 261 0 0 +17 4
5 0 125 232 194 43 250 247 0 254 +17 232 0 125 36 45 49 254 230 0 0 +17 36 0 125
 127 232 26 34 241 0 135 -17 34 0 27 29 28 49 36 241 0 238 +16 241 471 0 ?34 243
 31 240 243 243 1 15 27 327 0 25 279 0 17 29 0 27 25 34 46 238 236 0 30 -17 238
 0 253 254 48 49 29 236 0 232 +83 3 340 .823529411764706 .819607843137255 .78039
2156862745 79 14 337 SWEntUnchanged82 1 320 -966983465 82 1 302 -959577897 82 1
 297 -1005256486 82 1 294 -1005780774 82 1 284 -849215270 50 274 555 0 143 0 269
 0 +0 0 .00161 0 0 -1 -1 0 0 82 1 273 -854916902 19 17 95 0 1 0 9 5 S0 74 4 CI16
 index_map_offset0 0 1 dCCZ20 15 9 0 0 371 413 414 415 416 417 408 13 2 0 0 0 0
 0 0 0 0 0 0 0 81 2 413 579 418 1 0 414 0 0 0 419 81 2 414 586 420 1 413 415 0 0
 0 421 81 1 415 594 422 1 414 416 0 0 423 81 2 416 596 424 1 415 417 0 0 0 0 81
 2 417 618 425 1 416 13 0 0 0 426 81 2 13 682 427 1 417 2 0 0 428 0 80 2 427 429
 430 8004 0 0 0 0 3 5 0 0 0 FFTFFFFFFFFFFF2 3 83 1 428 1e3 79 16 430 SDL/TYSA_DE
NSITY80 2 425 431 432 9000 0 0 0 0 3 5 0 0 0 FFTFFFFFFFFFFF9 1 82 1 426 1 79 24
 432 BODY_IN_LIGHTWEIGHT_PERM80 2 424 433 434 9000 0 0 0 0 3 5 0 0 0 FFTFFFFFFFF
FFF9 1 79 16 434 BODY_RECIPE_200180 1 422 435 436 9000 1 1 1 1 1 1 1 1 0 FFTFFFF
FFFFFFF1 82 1 423 50087 79 10 436 BODY_MATCH80 2 420 437 438 9000 0 0 0 0 3 5 0
 0 0 FFTFFFFFFFFFFF9 1 82 1 421 66 79 30 438 LAST_BODY_MODIFYING_FEATURE_ID80 2
 418 439 440 9000 0 0 0 0 3 5 0 0 0 FFTFFFFFFFFFFT9 1 82 1 419 261 79 19 440 ENT
_TIME_STAMP_200180 2 12 441 442 9000 0 0 0 0 3 5 0 0 0 FFTFFFFFFFFFFF9 1 82 1 14
 104 79 12 442 ATOM_ID_20011 0 
