**ABCDEFGHIJKLMNOPQRSTUVWXYZabcdefghijklmnopqrstuvwxyz**************************
**PARASOLID !"#$%&'()*+,-./:;<=>?@[\]^_`{|}~0123456789**************************
**PART1;
MC=AMD64;
MC_MODEL=Intel64 Family 6 Model 15 Stepping 13, GenuineIntel;
MC_ID=unknown;
OS=Windows_NT;
OS_RELEASE=unknown;
FRU=Parasolid Version 30.0, build 310,  6- 8-2018;
APPL=SOLIDWORKS 2018-2018211;
SITE=;
USER=unknown;
FORMAT=text;
GUISE=transmit;
KEY=FUSERC_FUSERC4632(1812)X55;
FILE=FUSERC_FUSERC4632(1812)X55.x_t;
DATE=Sat Aug 17 14:09:26 2019;
**PART2;
SCH=SCH_3000310_30000;
USFLD_SIZE=0;
**PART3;
**END_OF_HEADER*****************************************************************
T51 : TRANSMIT FILE created by modeller version 300031023 SCH_3000310_30000_1300
6205 0 12 33 CCCCCCI4 mesh1006 0 I8 polyline1008 0 CCCCCCCDI5 owner1040 0 CCCCCC
I13 boundary_mesh1006 0 I17 boundary_polyline1008 0 CCCA16 index_map_offset0 0 1
 dA9 index_map82 0 A17 node_id_index_map82 0 A20 schema_embedding_map82 0 A5 chi
ld12 0 A14 lowest_node_id0 0 1 dZ1 866 2 3 0 0 0 0 0 0 1e3 1e-8 0 4 0 1 0 1 1 5
 6 7 8 0 0 9 10 11 0 0 0 0 0 0 81 255 2 2 708 12 1 0 0 0 0 13 0 70 11 CI9 list_t
ype0 0 1 uI10 notransmit0 0 1 lCCCDCCDI12 finger_index0 0 1 dI12 finger_block101
2 0 CZ3 0 4 T1 0 0 3 20 1 14 14 13 255 5 166 0 1 0 15 0 0 16 0 50 255 6 88 0 17
 18 0 0 +-.0023 .0016 55e-5 0 -1 0 0 0 -1 30 255 7 318 0 10 19 0 0 +-.00165 0 0
 0 1 0 29 255 8 564 0 11 20 0 -82125e-8 .0016 55e-5 19 8 CCCCCCCA5 owner12 0 Z9
 237 0 1 16 0 21 V0 16 255 10 316 0 ?22 0 23 7 0 0 1 18 255 11 562 0 24 0 25 8 ?
1 17 255 24 0 26 27 28 11 29 30 0 31 +18 25 559 0 27 11 32 20 ?1 17 27 0 26 33 2
4 25 31 34 0 35 -18 32 556 0 36 25 37 38 ?1 29 20 561 0 25 38 8 -82125e-8 -.0016
 55e-5 29 38 558 0 32 39 20 -.00137375 -.0016 55e-5 29 39 312 0 37 40 38 -.00165
 .0016 0 18 37 310 0 41 32 42 39 ?1 29 40 139 0 42 43 39 .00165 -.0016 0 18 42 1
37 0 44 37 45 40 ?1 29 43 260 0 45 46 40 .00165 .0016 55e-5 18 45 199 0 47 42 48
 43 ?1 29 46 261 0 48 49 43 .00165 -.0016 55e-5 18 48 209 0 33 45 50 46 ?1 29 49
 263 0 50 51 46 .00165 .0016 0 18 50 200 0 52 48 53 49 ?1 29 51 264 0 53 54 49 .
00232 -.00162 -2e-5 18 53 208 0 55 50 56 51 ?1 29 54 265 0 56 57 51 .00232 -.001
62 57e-5 18 56 207 0 58 53 59 54 ?1 29 57 266 0 59 60 54 .00232 .00162 57e-5 18
 59 206 0 61 56 62 57 ?1 29 60 267 0 62 63 57 .00232 .00162 -2e-5 18 62 203 0 64
 59 65 60 ?1 29 63 268 0 65 66 60 .00165 -.00162 -2e-5 18 65 201 0 67 62 68 63 ?
1 29 66 269 0 68 69 63 .00165 -.00162 57e-5 18 68 205 0 70 65 71 66 ?1 29 69 270
 0 71 72 66 .00165 .00162 57e-5 18 71 204 0 73 68 74 69 ?1 29 72 271 0 74 75 69
 .00165 .00162 -2e-5 18 74 202 0 76 71 77 72 ?1 29 75 413 0 77 78 72 -.00165 .00
16 55e-5 18 77 365 0 79 74 80 75 ?1 29 78 414 0 80 81 75 -.00165 -.0016 55e-5 18
 80 356 0 82 77 83 78 ?1 29 81 416 0 83 84 78 -.00165 -.0016 0 18 83 357 0 85 80
 86 81 ?1 29 84 417 0 86 87 81 -.00232 .00162 57e-5 18 86 361 0 88 83 89 84 ?1 2
9 87 418 0 89 90 84 -.00232 .00162 -2e-5 18 89 362 0 91 86 92 87 ?1 29 90 419 0
 92 93 87 -.00232 -.00162 57e-5 18 92 360 0 94 89 95 90 ?1 29 93 420 0 95 96 90
 -.00232 -.00162 -2e-5 18 95 363 0 97 92 98 93 ?1 29 96 421 0 98 99 93 -.00165 .
00162 -2e-5 18 98 358 0 100 95 101 96 ?1 29 99 422 0 101 102 96 -.00165 .00162 5
7e-5 18 101 359 0 103 98 104 99 ?1 29 102 423 0 104 105 99 -.00165 -.00162 57e-5
 18 104 364 0 106 101 107 102 ?1 29 105 424 0 107 108 102 -.00165 -.00162 -2e-5
 18 107 367 0 109 104 110 105 ?1 29 108 659 0 111 112 105 -.00137375 .0016 55e-5
 18 111 612 0 113 114 0 108 ?1 29 112 663 0 110 115 108 -.00137375 .0016 56e-5 1
8 110 615 0 116 107 117 112 ?1 29 115 664 0 117 118 112 -82125e-8 .0016 56e-5 18
 117 614 0 119 110 120 115 ?1 29 118 665 0 120 121 115 -82125e-8 -.0016 56e-5 18
 120 613 0 122 117 114 118 ?1 29 121 666 0 114 0 118 -.00137375 -.0016 56e-5 18
 114 610 0 123 120 111 121 ?1 17 123 0 124 125 126 114 122 127 0 128 -15 255 124
 78 0 129 130 0 17 125 0 124 129 123 32 131 132 0 133 +17 126 0 124 123 35 120 1
34 135 0 136 -17 122 0 137 119 128 120 123 127 0 126 +16 127 600 0 ?122 138 139
 140 0 0 1 17 128 0 137 122 116 114 141 139 0 131 +15 137 635 0 128 142 0 17 116
 0 137 128 119 110 143 144 0 145 +17 141 0 146 147 131 110 128 139 0 0 -16 139 5
97 0 ?128 127 34 148 0 0 1 17 131 0 146 141 133 114 125 132 0 0 -15 146 620 0 13
3 149 0 17 133 0 146 131 147 32 150 151 0 0 +16 132 588 0 ?125 152 135 153 0 0 1
 16 152 352 0 ?154 155 132 156 0 0 1 16 135 592 0 ?134 132 157 158 0 0 1 30 153
 647 0 132 158 156 0 +-.00137375 -.0016 56e-5 0 0 -1 30 158 648 0 135 159 153 0
 +-82125e-8 -.0016 56e-5 0 0 -1 30 156 412 0 152 153 160 0 +-.00165 -.00162 -2e-
5 0 1 0 30 160 411 0 155 156 161 0 +-.00165 -.00162 57e-5 0 0 -1 16 155 355 0 ?1
09 162 152 160 0 0 1 30 161 410 0 162 160 163 0 +-.00165 -.00162 57e-5 0 -1 0 16
 162 354 0 ?164 165 155 161 0 0 1 30 163 409 0 165 161 166 0 +-.00165 .00162 57e
-5 0 0 1 16 165 353 0 ?167 168 162 163 0 0 1 30 166 408 0 168 163 169 0 +-.00232
 -.00162 57e-5 1 0 0 16 168 348 0 ?170 171 165 166 0 0 1 30 169 407 0 171 166 17
2 0 +-.00232 -.00162 -2e-5 1 0 0 16 171 350 0 ?173 174 168 169 0 0 1 30 172 406
 0 174 169 175 0 +-.00232 -.00162 57e-5 0 0 -1 16 174 349 0 ?97 176 171 172 0 0
 1 30 175 405 0 176 172 177 0 +-.00232 -.00162 -2e-5 0 1 0 16 176 343 0 ?178 179
 174 175 0 0 1 30 177 404 0 179 175 180 0 +-.00232 .00162 57e-5 0 0 1 16 179 345
 0 ?181 182 176 177 0 0 1 30 180 403 0 182 177 183 0 +-.00232 -.00162 57e-5 0 -1
 0 16 182 347 0 ?184 185 179 180 0 0 1 30 183 402 0 185 180 186 0 +-.00232 .0016
2 57e-5 1 0 0 16 185 346 0 ?187 188 182 183 0 0 1 30 186 401 0 188 183 189 0 +-.
00232 .00162 -2e-5 1 0 0 16 188 344 0 ?190 191 185 186 0 0 1 30 189 400 0 191 18
6 192 0 +-.00165 -.0016 55e-5 0 0 -1 16 191 340 0 ?193 194 188 189 0 0 1 30 192
 399 0 194 189 195 0 +-.00165 .0016 55e-5 0 0 1 16 194 342 0 ?196 197 191 192 0
 0 1 30 195 398 0 197 192 198 0 +-.00165 0 55e-5 0 1 0 16 197 351 0 ?199 200 194
 195 0 0 1 30 198 259 0 200 195 201 0 +.00165 -.00162 -2e-5 0 1 0 16 200 171 0 ?
202 203 197 198 0 0 1 30 201 258 0 203 198 204 0 +.00165 .00162 57e-5 0 0 1 16 2
03 175 0 ?205 206 200 201 0 0 1 30 204 257 0 206 201 207 0 +.00165 -.00162 57e-5
 0 -1 0 16 206 179 0 ?208 209 203 204 0 0 1 30 207 256 0 209 204 210 0 +.00165 -
.00162 57e-5 0 0 -1 16 209 183 0 ?211 212 206 207 0 0 1 30 210 255 0 212 207 213
 0 +.00232 -.00162 -2e-5 0 1 0 16 212 186 0 ?214 215 209 210 0 0 1 30 213 254 0
 215 210 216 0 +.00232 .00162 57e-5 0 0 1 16 215 189 0 ?61 217 212 213 0 0 1 30
 216 253 0 217 213 218 0 +.00232 -.00162 57e-5 0 -1 0 16 217 192 0 ?58 219 215 2
16 0 0 1 30 218 252 0 219 216 220 0 +.00232 -.00162 57e-5 0 0 -1 16 219 195 0 ?5
5 221 217 218 0 0 1 30 220 251 0 221 218 222 0 +.00232 -.00162 -2e-5 -1 0 0 16 2
21 170 0 ?67 223 219 220 0 0 1 30 222 250 0 223 220 224 0 +.00232 -.00162 57e-5
 -1 0 0 16 223 182 0 ?70 225 221 222 0 0 1 30 224 249 0 225 222 226 0 +.00232 .0
0162 57e-5 -1 0 0 16 225 178 0 ?73 227 223 224 0 0 1 30 226 248 0 227 224 228 0
 +.00232 .00162 -2e-5 -1 0 0 16 227 174 0 ?76 229 225 226 0 0 1 30 228 247 0 229
 226 230 0 +.00165 -.0016 55e-5 0 0 1 16 229 169 0 ?231 232 227 228 0 0 1 30 230
 246 0 232 228 233 0 +.00165 .0016 55e-5 0 0 -1 16 232 167 0 ?234 235 229 230 0
 0 1 30 233 245 0 235 230 236 0 +.00165 0 55e-5 0 -1 0 16 235 198 0 ?237 238 232
 233 0 0 1 30 236 8 0 30 233 239 0 +-.0023 .0016 55e-5 -1 0 0 16 30 149 0 ?24 24
0 241 236 241 241 1 30 239 14 0 242 236 243 0 +-.0023 -.0016 55e-5 1 0 0 16 242
 325 0 ?36 23 240 239 240 240 1 30 243 68 0 238 239 244 0 +-.0023 .0016 0 -1 0 0
 16 238 141 0 ?245 246 235 243 0 0 1 30 244 66 0 246 243 19 0 +-.0023 -.0016 0 1
 0 0 16 246 314 0 ?44 241 238 244 0 0 1 30 19 145 0 23 244 7 0 +.00165 0 0 0 -1
 0 16 23 143 0 ?247 10 242 19 0 0 1 17 247 0 248 249 250 42 52 23 0 0 +15 248 44
 0 249 251 0 17 249 0 248 22 247 83 44 246 0 0 -17 250 0 248 247 22 50 245 238 0
 0 -17 52 0 252 47 253 50 247 23 0 234 -15 252 235 0 47 254 255 17 47 0 252 237
 52 45 234 232 0 28 -17 253 0 252 52 237 42 231 229 0 247 -17 234 0 256 245 29 5
0 47 232 0 250 +15 256 82 0 245 17 0 17 245 0 256 196 234 37 250 238 0 0 +17 29
 0 256 234 257 45 24 30 0 0 -17 257 0 256 29 143 11 258 157 0 0 +17 143 0 256 25
7 145 117 116 144 0 0 -17 258 0 259 136 31 117 257 157 0 143 -16 157 596 0 ?257
 135 260 159 0 0 1 16 260 584 0 ?147 157 144 261 0 0 1 30 159 649 0 157 261 158
 0 +-82125e-8 .0016 56e-5 0 0 -1 30 261 650 0 260 262 159 0 +-.00137375 .0016 56
e-5 0 0 -1 30 262 652 0 34 263 261 0 +-82125e-8 -.0016 55e-5 0 1 0 16 34 589 0 ?
31 139 151 262 0 0 1 30 263 654 0 151 264 262 0 +-.00137375 -.0016 55e-5 0 -1 0
 16 151 581 0 ?133 34 0 263 0 0 1 30 264 655 0 144 265 263 0 +-.00137375 .0016 5
6e-5 -1 0 0 16 144 606 0 ?116 260 138 264 0 0 1 30 265 656 0 138 140 264 0 +-821
25e-8 -.0016 56e-5 0 1 0 16 138 603 0 ?119 144 127 265 0 0 1 30 140 657 0 127 14
8 265 0 +-.00137375 -.0016 56e-5 1 0 0 30 148 658 0 139 0 140 0 +-.00137375 -.00
16 56e-5 0 -1 0 17 119 0 137 116 122 117 136 138 0 258 +17 136 0 259 134 258 120
 119 138 0 0 -15 259 628 0 31 266 0 17 134 0 259 31 136 25 126 135 0 0 +17 31 0
 259 258 134 11 27 34 0 257 +14 255 266 625 267 ?142 149 259 5 268 -0 0 142 149
 21 81 1 267 847 269 266 270 0 0 271 272 14 142 633 271 ?0 266 137 5 273 -0 0 0
 266 21 14 149 617 274 ?266 275 146 5 276 -0 0 266 275 21 50 268 643 0 266 273 2
76 0 +-82125e-8 -.0016 56e-5 -1 0 0 0 0 1 13 21 238 0 0 0 0 0 0 9 15 14 15 577 2
77 ?278 0 279 5 280 +278 278 278 0 21 81 1 277 850 269 15 281 0 274 282 283 14 2
78 571 282 ?284 15 26 5 280 +15 15 284 15 21 15 279 569 0 36 15 0 50 280 2 0 15
 285 286 0 +0 0 55e-5 0 0 1 1 0 0 50 285 239 0 284 287 280 0 +.00232 -.00162 -2e
-5 0 0 1 1 0 0 50 286 65 0 251 280 18 0 +0 0 0 0 0 1 1 0 0 14 251 43 288 ?289 13
0 248 5 286 -0 0 289 130 21 50 18 86 0 130 286 6 0 +-.0023 -.0016 55e-5 0 1 0 0
 0 1 14 130 79 290 ?251 17 124 5 18 -0 0 251 17 21 81 1 290 853 269 130 291 0 28
8 292 293 14 17 83 292 ?130 254 256 5 6 -0 0 130 254 21 81 1 292 854 269 17 294
 0 290 295 296 14 254 233 295 ?17 297 252 5 298 +0 0 17 297 21 81 1 295 855 269
 254 299 0 292 300 301 14 297 230 300 ?254 302 303 5 304 -0 0 254 302 21 50 298
 244 0 254 305 304 0 +.00165 0 0 -1 0 0 0 0 1 50 305 392 0 289 306 298 0 +-.0023
2 -.00162 -2e-5 0 0 1 -1 0 0 50 304 243 0 297 298 307 0 +.00232 0 0 -1 0 0 0 0 1
 50 307 242 0 302 304 308 0 +.00232 -.00162 57e-5 0 1 0 0 0 1 14 302 226 309 ?29
7 310 311 5 307 -0 0 297 310 21 50 308 241 0 310 307 287 0 +.00232 -.00162 57e-5
 0 0 -1 -1 0 0 14 310 222 312 ?302 313 314 5 308 -0 0 302 313 21 50 287 240 0 31
3 308 285 0 +.00232 .00162 57e-5 0 -1 0 0 0 -1 14 313 218 315 ?310 284 316 5 287
 -0 0 310 284 21 81 1 315 859 269 313 317 0 312 318 319 14 284 214 318 ?313 278
 320 5 285 -0 0 313 278 21 15 316 221 0 76 313 0 17 76 0 316 205 64 74 321 227 0
 322 +17 205 0 316 323 76 71 322 203 0 0 +17 64 0 316 76 323 62 61 215 0 214 -17
 321 0 320 324 202 62 76 227 0 0 -17 322 0 255 325 326 74 205 203 0 202 -15 255
 236 0 325 254 0 17 325 0 255 327 322 65 202 200 0 211 -17 326 0 255 322 327 71
 208 206 0 205 -17 202 0 320 321 67 74 325 200 0 0 +15 320 217 0 67 284 0 17 67
 0 320 202 324 65 328 221 0 325 +17 324 0 320 67 321 53 214 212 0 0 -17 328 0 31
1 329 211 53 67 221 0 324 -15 311 229 0 70 302 0 17 329 0 311 70 328 56 55 219 0
 0 -17 211 0 311 328 70 65 327 209 0 0 +17 70 0 311 211 329 68 330 223 0 208 +17
 327 0 255 326 325 68 211 209 0 0 -17 330 0 314 331 208 56 70 223 0 329 -17 208
 0 314 330 73 68 326 206 0 327 +15 314 225 0 73 310 0 17 73 0 314 208 331 71 323
 225 0 326 +17 331 0 314 73 330 59 58 217 0 0 -17 323 0 316 64 205 59 73 225 0 3
31 -17 58 0 303 55 61 56 331 217 0 330 +15 303 232 0 214 297 0 17 55 0 303 214 5
8 53 329 219 0 328 +17 61 0 303 58 214 59 64 215 0 323 +17 214 0 303 61 55 62 32
4 212 0 321 +81 1 318 860 269 284 332 0 315 333 334 80 255 1 269 335 336 9000 1
 1 1 1 1 1 1 1 0 FFFFTFTFFFFFFF1 81 1 332 785 337 284 0 318 338 317 339 81 1 333
 861 269 275 340 0 318 341 342 82 255 1 334 1963655307 14 275 386 333 ?149 343 3
44 5 345 +0 0 149 343 21 81 1 340 799 337 275 0 333 346 347 348 81 1 341 862 269
 343 346 0 333 349 350 82 1 342 2043412620 14 343 383 341 ?275 351 352 5 353 -0
 0 275 351 21 81 1 346 798 337 343 0 341 354 340 355 81 1 349 863 269 351 354 0
 341 356 357 82 1 350 2043281548 14 351 380 349 ?343 358 359 5 360 -0 0 343 358
 21 81 1 354 797 337 351 0 349 361 346 362 81 1 356 864 269 358 361 0 349 363 36
4 82 1 357 2043150476 14 358 377 356 ?351 365 366 5 367 -0 0 351 365 21 81 1 361
 796 337 358 0 356 368 354 369 81 1 363 865 269 365 368 0 356 370 371 82 1 364 2
042757260 14 365 374 363 ?358 289 372 5 306 -0 0 358 289 21 81 1 368 795 337 365
 0 363 373 361 374 81 1 370 866 269 289 373 0 363 0 375 82 1 371 2042626188 14 2
89 371 370 ?365 251 376 5 305 -0 0 365 251 21 81 1 373 794 337 289 0 370 377 368
 378 82 1 375 2042822796 80 1 337 0 379 8001 0 0 0 0 3 5 0 0 0 FFFFTFTFFFFFFF2 8
1 1 377 793 337 251 0 288 291 373 380 83 255 3 378 .823529411764706 .81960784313
7255 .780392156862745 81 1 288 852 269 251 377 0 282 290 381 81 1 291 792 337 13
0 0 290 294 377 382 83 3 380 0 .752941176470588 0 81 1 294 791 337 17 0 292 299
 291 383 83 3 382 0 .752941176470588 0 81 1 299 790 337 254 0 295 384 294 385 83
 3 383 0 .752941176470588 0 81 1 384 789 337 297 0 300 386 299 387 83 3 385 .823
529411764706 .819607843137255 .780392156862745 81 1 300 856 269 297 384 0 295 30
9 388 81 1 386 788 337 302 0 309 389 384 390 83 3 387 .823529411764706 .81960784
3137255 .780392156862745 81 1 309 857 269 302 386 0 300 312 391 81 1 389 787 337
 310 0 312 317 386 392 83 3 390 .823529411764706 .819607843137255 .7803921568627
45 81 1 312 858 269 310 389 0 309 315 393 81 1 317 786 337 313 0 315 332 389 394
 83 3 392 .823529411764706 .819607843137255 .780392156862745 83 3 394 .823529411
764706 .819607843137255 .780392156862745 82 1 393 1963131019 82 1 391 1962868875
 82 1 388 1956315275 81 1 282 851 269 278 338 0 277 288 395 82 1 381 433389708 8
1 1 338 784 337 278 0 282 281 332 396 82 1 395 -1576992621 81 1 281 783 337 15 0
 277 0 338 397 83 3 396 0 .752941176470588 0 83 3 397 0 .752941176470588 0 79 25
5 15 379 SDL/TYSA_COLOUR15 376 373 0 398 289 0 17 398 0 376 178 399 95 173 171 0
 0 -17 178 0 376 190 398 89 400 176 0 0 +17 399 0 376 398 190 107 154 152 0 173
 -17 173 0 352 106 97 107 398 171 0 0 +15 352 385 0 401 343 0 17 106 0 352 401 1
73 104 109 155 0 164 -17 97 0 352 173 401 95 94 174 0 400 +17 401 0 352 97 106 9
2 170 168 0 184 -17 94 0 359 88 400 92 97 174 0 401 -17 400 0 359 94 91 95 178 1
76 0 398 -15 359 382 0 400 351 0 17 91 0 359 400 88 89 181 179 0 402 -17 88 0 35
9 91 94 86 184 182 0 403 -17 181 0 372 187 402 86 91 179 0 0 +17 402 0 372 181 1
00 89 190 188 0 178 -15 372 376 0 402 365 0 17 100 0 372 402 187 98 167 165 0 15
4 -17 190 0 376 399 178 98 402 188 0 0 +17 187 0 372 100 181 101 403 185 0 0 +17
 167 0 404 164 154 101 100 165 0 187 +17 154 0 404 167 109 98 399 152 0 190 +15
 404 389 0 154 275 0 17 109 0 404 154 164 107 106 155 0 399 +17 164 0 404 109 16
7 104 103 162 0 170 +17 103 0 366 403 170 101 164 162 0 167 -17 170 0 366 103 18
4 104 401 168 0 0 +15 366 379 0 403 358 0 17 184 0 366 170 403 92 88 182 0 0 +17
 403 0 366 184 103 86 187 185 0 181 -83 3 374 .823529411764706 .819607843137255
 .780392156862745 50 306 393 0 365 367 305 0 +-.00232 .00162 57e-5 0 -1 0 0 0 -1
 50 367 394 0 358 360 306 0 +-.00232 -.00162 57e-5 0 0 -1 1 0 0 50 360 395 0 351
 353 367 0 +-.00232 0 0 1 0 0 0 0 1 50 353 396 0 343 345 360 0 +-.00232 -.00162
 57e-5 0 1 0 0 0 1 50 345 397 0 275 276 353 0 +-.00165 0 0 1 0 0 0 0 1 50 276 64
1 0 149 268 345 0 +-.00137375 -.0016 56e-5 1 0 0 0 0 -1 83 3 369 .82352941176470
6 .819607843137255 .780392156862745 83 3 362 .823529411764706 .819607843137255 .
780392156862745 83 3 355 .823529411764706 .819607843137255 .780392156862745 81 1
 347 800 337 149 0 274 340 270 405 83 3 348 .823529411764706 .819607843137255 .7
80392156862745 81 1 274 849 269 149 347 0 271 277 406 81 1 270 801 337 266 0 267
 347 407 408 83 3 405 .1450980392156862 .1411764705882352 .1411764705882352 81 1
 407 802 337 142 0 271 270 0 409 83 3 408 .1450980392156862 .1411764705882352 .1
411764705882352 81 1 271 848 269 142 407 0 267 274 410 83 3 409 .145098039215686
2 .1411764705882352 .1411764705882352 82 1 410 -1589051245 82 1 406 -1581711213
 15 344 388 0 82 275 404 17 82 0 344 199 85 80 193 191 0 411 -17 199 0 344 41 82
 77 411 197 0 196 +17 85 0 344 82 41 83 22 10 0 193 -17 193 0 124 44 129 83 82 1
91 0 249 +17 411 0 279 36 79 80 199 197 0 129 -17 36 0 279 150 411 32 129 242 0
 125 +17 79 0 279 411 150 77 113 241 0 199 +17 129 0 124 193 125 80 36 242 0 0 -
17 150 0 279 79 36 111 133 151 0 147 -17 113 0 256 145 196 111 79 241 0 150 -16
 241 566 0 ?79 30 246 236 30 30 1 17 145 0 256 143 113 110 147 260 0 141 -17 196
 0 256 113 245 77 41 194 0 0 +17 41 0 344 85 199 37 196 194 0 22 -17 22 0 248 25
0 249 37 85 10 0 245 +17 147 0 146 133 141 111 145 260 0 0 +17 44 0 124 231 193
 42 249 246 0 253 +17 231 0 124 35 44 48 253 229 0 0 +17 35 0 124 126 231 25 33
 240 0 134 -17 33 0 26 28 27 48 35 240 0 237 +16 240 560 0 ?33 242 30 239 242 24
2 1 15 26 328 0 24 278 0 17 28 0 26 24 33 45 237 235 0 29 -17 237 0 252 253 47 4
8 28 235 0 231 +83 3 339 .823529411764706 .819607843137255 .780392156862745 79 1
4 336 SWEntUnchanged82 1 319 1963393163 82 1 301 1970798731 82 1 296 -1957625709
 82 1 293 -1957756781 82 1 283 -1576468333 50 273 646 0 142 0 268 0 +0 0 56e-5 0
 0 -1 -1 0 0 82 1 272 -1582235501 19 16 95 0 1 0 9 5 S0 74 4 CI16 index_map_offs
et0 0 1 dCCZ20 14 3 0 0 370 2 407 0 0 0 0 0 0 0 0 0 0 0 0 0 0 0 0 0 80 2 12 412
 413 8004 0 0 0 0 3 5 0 0 0 FFTFFFFFFFFFFF2 3 83 1 13 1 79 16 413 SDL/TYSA_DENSI
TY1 0 
