**ABCDEFGHIJKLMNOPQRSTUVWXYZabcdefghijklmnopqrstuvwxyz**************************
**PARASOLID !"#$%&'()*+,-./:;<=>?@[\]^_`{|}~0123456789**************************
**PART1;
MC=AMD64;
MC_MODEL=Intel64 Family 6 Model 60 Stepping 3, GenuineIntel;
MC_ID=unknown;
OS=Windows_NT;
OS_RELEASE=unknown;
FRU=Parasolid Version 30.0, build 310,  6- 8-2018;
APPL=SOLIDWORKS 2018-2018316;
SITE=;
USER=unknown;
FORMAT=text;
GUISE=transmit;
KEY=FUSERC_FUSERC4632(1812)X160;
FILE=FUSERC_FUSERC4632(1812)X160.x_t;
DATE=Thu Nov 21 09:58:13 2019;
**PART2;
SCH=SCH_3000310_30000;
USFLD_SIZE=0;
**PART3;
**END_OF_HEADER*****************************************************************
T51 : TRANSMIT FILE created by modeller version 300031023 SCH_3000310_30000_1300
6205 0 12 33 CCCCCCI4 mesh1006 0 I8 polyline1008 0 CCCCCCCDI5 owner1040 0 CCCCCC
I13 boundary_mesh1006 0 I17 boundary_polyline1008 0 CCCA16 index_map_offset0 0 1
 dA9 index_map82 0 A17 node_id_index_map82 0 A20 schema_embedding_map82 0 A5 chi
ld12 0 A14 lowest_node_id0 0 1 dZ1 810 2 3 0 0 0 0 0 0 1e3 1e-8 0 4 0 1 0 1 1 5
 6 7 8 0 0 9 10 11 0 0 0 0 0 0 81 255 2 2 618 12 1 0 0 0 0 13 0 70 11 CI9 list_t
ype0 0 1 uI10 notransmit0 0 1 lCCCDCCDI12 finger_index0 0 1 dI12 finger_block101
2 0 CZ3 0 4 T1 0 0 3 20 1 14 14 13 255 5 165 0 1 0 15 0 0 16 0 50 255 6 88 0 17
 18 0 0 +-.0023 .0016 .0016 942784497813482e-31 -1 0 1 942784497813482e-31 0 30
 255 7 317 0 10 19 0 0 +-.00165 0 0 0 1 0 29 255 8 475 0 11 20 0 -82125e-8 .0016
 .0016 19 8 CCCCCCCA5 owner12 0 Z9 236 0 1 16 0 21 V0 16 255 10 315 0 ?22 0 23 7
 0 0 1 18 255 11 473 0 24 0 25 8 ?1 17 255 24 0 26 27 28 11 29 30 0 31 +18 25 47
0 0 27 11 32 20 ?1 17 27 0 26 33 24 25 31 34 0 35 -18 32 467 0 36 25 37 38 ?1 29
 20 472 0 25 38 8 -82125e-8 -.0016 .0016 29 38 469 0 32 39 20 -.00137375 -.0016
 .0016 29 39 311 0 37 40 38 -.00165 .0016 0 18 37 309 0 41 32 42 39 ?1 29 40 138
 0 42 43 39 .00165 -.0016 0 18 42 136 0 44 37 45 40 ?1 29 43 259 0 45 46 40 .001
65 .0016 .0016 18 45 198 0 47 42 48 43 ?1 29 46 260 0 48 49 43 .00165 -.0016 .00
16 18 48 208 0 33 45 50 46 ?1 29 49 262 0 50 51 46 .00165 .0016 0 18 50 199 0 52
 48 53 49 ?1 29 51 263 0 53 54 49 .00232 -.00162 -2e-5 18 53 207 0 55 50 56 51 ?
1 29 54 264 0 56 57 51 .00232 -.00162 .00162 18 56 206 0 58 53 59 54 ?1 29 57 26
5 0 59 60 54 .00232 .00162 .00162 18 59 205 0 61 56 62 57 ?1 29 60 266 0 62 63 5
7 .00232 .00162 -2e-5 18 62 202 0 64 59 65 60 ?1 29 63 267 0 65 66 60 .00165 -.0
0162 -2e-5 18 65 200 0 67 62 68 63 ?1 29 66 268 0 68 69 63 .00165 -.00162 .00162
 18 68 204 0 70 65 71 66 ?1 29 69 269 0 71 72 66 .00165 .00162 .00162 18 71 203
 0 73 68 74 69 ?1 29 72 270 0 74 75 69 .00165 .00162 -2e-5 18 74 201 0 76 71 77
 72 ?1 29 75 412 0 77 78 72 -.00165 .0016 .0016 18 77 364 0 79 74 80 75 ?1 29 78
 413 0 80 81 75 -.00165 -.0016 .0016 18 80 355 0 82 77 83 78 ?1 29 81 415 0 83 8
4 78 -.00165 -.0016 0 18 83 356 0 85 80 86 81 ?1 29 84 416 0 86 87 81 -.00232 .0
0162 .00162 18 86 360 0 88 83 89 84 ?1 29 87 417 0 89 90 84 -.00232 .00162 -2e-5
 18 89 361 0 91 86 92 87 ?1 29 90 418 0 92 93 87 -.00232 -.00162 .00162 18 92 35
9 0 94 89 95 90 ?1 29 93 419 0 95 96 90 -.00232 -.00162 -2e-5 18 95 362 0 97 92
 98 93 ?1 29 96 420 0 98 99 93 -.00165 .00162 -2e-5 18 98 357 0 100 95 101 96 ?1
 29 99 421 0 101 102 96 -.00165 .00162 .00162 18 101 358 0 103 98 104 99 ?1 29 1
02 422 0 104 105 99 -.00165 -.00162 .00162 18 104 363 0 106 101 107 102 ?1 29 10
5 423 0 107 108 102 -.00165 -.00162 -2e-5 18 107 366 0 109 104 110 105 ?1 29 108
 568 0 111 112 105 -.00137375 .0016 .0016 18 111 521 0 113 114 0 108 ?1 29 112 5
72 0 110 115 108 -.00137375 .0016 .00161 18 110 524 0 116 107 117 112 ?1 29 115
 573 0 117 118 112 -82125e-8 .0016 .00161 18 117 523 0 119 110 120 115 ?1 29 118
 574 0 120 121 115 -82125e-8 -.0016 .00161 18 120 522 0 122 117 114 118 ?1 29 12
1 575 0 114 0 118 -.00137375 -.0016 .00161 18 114 519 0 123 120 111 121 ?1 17 12
3 0 124 125 126 114 122 127 0 128 -15 255 124 78 0 129 130 0 17 125 0 124 129 12
3 32 131 132 0 133 +17 126 0 124 123 35 120 134 135 0 136 -17 122 0 137 119 128
 120 123 127 0 126 +16 127 509 0 ?122 138 139 140 0 0 1 17 128 0 137 122 116 114
 141 139 0 131 +15 137 544 0 128 142 0 17 116 0 137 128 119 110 143 144 0 145 +1
7 141 0 146 147 131 110 128 139 0 0 -16 139 506 0 ?128 127 34 148 0 0 1 17 131 0
 146 141 133 114 125 132 0 0 -15 146 529 0 133 149 0 17 133 0 146 131 147 32 150
 151 0 0 +16 132 497 0 ?125 152 135 153 0 0 1 16 152 351 0 ?154 155 132 156 0 0
 1 16 135 501 0 ?134 132 157 158 0 0 1 30 153 556 0 132 158 156 0 +-.00137375 -.
0016 .00161 0 0 -1 30 158 557 0 135 159 153 0 +-82125e-8 -.0016 .00161 0 0 -1 30
 156 411 0 152 153 160 0 +-.00165 -.00162 -2e-5 0 1 0 30 160 410 0 155 156 161 0
 +-.00165 -.00162 .00162 0 0 -1 16 155 354 0 ?109 162 152 160 0 0 1 30 161 409 0
 162 160 163 0 +-.00165 -.00162 .00162 0 -1 0 16 162 353 0 ?164 165 155 161 0 0
 1 30 163 408 0 165 161 166 0 +-.00165 .00162 .00162 0 0 1 16 165 352 0 ?167 168
 162 163 0 0 1 30 166 407 0 168 163 169 0 +-.00232 -.00162 .00162 1 0 0 16 168 3
47 0 ?170 171 165 166 0 0 1 30 169 406 0 171 166 172 0 +-.00232 -.00162 -2e-5 1
 0 0 16 171 349 0 ?173 174 168 169 0 0 1 30 172 405 0 174 169 175 0 +-.00232 -.0
0162 .00162 0 0 -1 16 174 348 0 ?97 176 171 172 0 0 1 30 175 404 0 176 172 177 0
 +-.00232 -.00162 -2e-5 0 1 0 16 176 342 0 ?178 179 174 175 0 0 1 30 177 403 0 1
79 175 180 0 +-.00232 .00162 .00162 0 0 1 16 179 344 0 ?181 182 176 177 0 0 1 30
 180 402 0 182 177 183 0 +-.00232 -.00162 .00162 0 -1 0 16 182 346 0 ?184 185 17
9 180 0 0 1 30 183 401 0 185 180 186 0 +-.00232 .00162 .00162 1 0 0 16 185 345 0
 ?187 188 182 183 0 0 1 30 186 400 0 188 183 189 0 +-.00232 .00162 -2e-5 1 0 0 1
6 188 343 0 ?190 191 185 186 0 0 1 30 189 399 0 191 186 192 0 +-.00165 -.0016 .0
016 0 0 -1 16 191 339 0 ?193 194 188 189 0 0 1 30 192 398 0 194 189 195 0 +-.001
65 .0016 .0016 0 0 1 16 194 341 0 ?196 197 191 192 0 0 1 30 195 397 0 197 192 19
8 0 +-.00165 0 .0016 0 1 0 16 197 350 0 ?199 200 194 195 0 0 1 30 198 258 0 200
 195 201 0 +.00165 -.00162 -2e-5 0 1 0 16 200 170 0 ?202 203 197 198 0 0 1 30 20
1 257 0 203 198 204 0 +.00165 .00162 .00162 0 0 1 16 203 174 0 ?205 206 200 201
 0 0 1 30 204 256 0 206 201 207 0 +.00165 -.00162 .00162 0 -1 0 16 206 178 0 ?20
8 209 203 204 0 0 1 30 207 255 0 209 204 210 0 +.00165 -.00162 .00162 0 0 -1 16
 209 182 0 ?211 212 206 207 0 0 1 30 210 254 0 212 207 213 0 +.00232 -.00162 -2e
-5 0 1 0 16 212 185 0 ?214 215 209 210 0 0 1 30 213 253 0 215 210 216 0 +.00232
 .00162 .00162 0 0 1 16 215 188 0 ?61 217 212 213 0 0 1 30 216 252 0 217 213 218
 0 +.00232 -.00162 .00162 0 -1 0 16 217 191 0 ?58 219 215 216 0 0 1 30 218 251 0
 219 216 220 0 +.00232 -.00162 .00162 0 0 -1 16 219 194 0 ?55 221 217 218 0 0 1
 30 220 250 0 221 218 222 0 +.00232 -.00162 -2e-5 -1 0 0 16 221 169 0 ?67 223 21
9 220 0 0 1 30 222 249 0 223 220 224 0 +.00232 -.00162 .00162 -1 0 0 16 223 181
 0 ?70 225 221 222 0 0 1 30 224 248 0 225 222 226 0 +.00232 .00162 .00162 -1 0 0
 16 225 177 0 ?73 227 223 224 0 0 1 30 226 247 0 227 224 228 0 +.00232 .00162 -2
e-5 -1 0 0 16 227 173 0 ?76 229 225 226 0 0 1 30 228 246 0 229 226 230 0 +.00165
 -.0016 .0016 0 0 1 16 229 168 0 ?231 232 227 228 0 0 1 30 230 245 0 232 228 233
 0 +.00165 .0016 .0016 0 0 -1 16 232 166 0 ?234 235 229 230 0 0 1 30 233 244 0 2
35 230 236 0 +.00165 0 .0016 0 -1 0 16 235 197 0 ?237 238 232 233 0 0 1 30 236 8
 0 30 233 239 0 +-.0023 .0016 .0016 -1 -942784497813482e-31 0 16 30 148 0 ?24 24
0 241 236 241 241 1 30 239 14 0 242 236 243 0 +-.0023 -.0016 .0016 1 0 0 16 242
 324 0 ?36 23 240 239 240 240 1 30 243 68 0 238 239 244 0 +-.0023 .0016 0 -1 -94
2784497813482e-31 0 16 238 140 0 ?245 246 235 243 0 0 1 30 244 66 0 246 243 19 0
 +-.0023 -.0016 0 1 0 0 16 246 313 0 ?44 241 238 244 0 0 1 30 19 144 0 23 244 7
 0 +.00165 0 0 0 -1 0 16 23 142 0 ?247 10 242 19 0 0 1 17 247 0 248 249 250 42 5
2 23 0 0 +15 248 44 0 249 251 0 17 249 0 248 22 247 83 44 246 0 0 -17 250 0 248
 247 22 50 245 238 0 0 -17 52 0 252 47 253 50 247 23 0 234 -15 252 234 0 47 254
 255 17 47 0 252 237 52 45 234 232 0 28 -17 253 0 252 52 237 42 231 229 0 247 -1
7 234 0 256 245 29 50 47 232 0 250 +15 256 82 0 245 17 0 17 245 0 256 196 234 37
 250 238 0 0 +17 29 0 256 234 257 45 24 30 0 0 -17 257 0 256 29 143 11 258 157 0
 0 +17 143 0 256 257 145 117 116 144 0 0 -17 258 0 259 136 31 117 257 157 0 143
 -16 157 505 0 ?257 135 260 159 0 0 1 16 260 493 0 ?147 157 144 261 0 0 1 30 159
 558 0 157 261 158 0 +-82125e-8 .0016 .00161 0 0 -1 30 261 559 0 260 262 159 0 +
-.00137375 .0016 .00161 0 0 -1 30 262 561 0 34 263 261 0 +-82125e-8 -.0016 .0016
 0 1 0 16 34 498 0 ?31 139 151 262 0 0 1 30 263 563 0 151 264 262 0 +-.00137375
 -.0016 .0016 0 -1 0 16 151 490 0 ?133 34 0 263 0 0 1 30 264 564 0 144 265 263 0
 +-.00137375 .0016 .00161 -1 0 0 16 144 515 0 ?116 260 138 264 0 0 1 30 265 565
 0 138 140 264 0 +-82125e-8 -.0016 .00161 0 1 0 16 138 512 0 ?119 144 127 265 0
 0 1 30 140 566 0 127 148 265 0 +-.00137375 -.0016 .00161 1 0 0 30 148 567 0 139
 0 140 0 +-.00137375 -.0016 .00161 0 -1 0 17 119 0 137 116 122 117 136 138 0 258
 +17 136 0 259 134 258 120 119 138 0 0 -15 259 537 0 31 266 0 17 134 0 259 31 13
6 25 126 135 0 0 +17 31 0 259 258 134 11 27 34 0 257 +14 255 266 534 267 ?142 14
9 259 5 268 -0 0 142 149 21 81 1 267 791 269 266 270 0 0 271 272 14 142 542 271
 ?0 266 137 5 273 -0 0 0 266 21 14 149 526 274 ?266 275 146 5 276 -0 0 266 275 2
1 50 268 552 0 266 273 276 0 +-82125e-8 -.0016 .00161 -1 0 0 0 0 1 13 21 237 0 0
 0 0 0 0 9 15 14 15 487 277 ?278 0 279 5 280 +278 278 278 0 21 81 1 277 794 269
 15 281 0 274 282 283 14 278 482 282 ?284 15 26 5 280 +15 15 284 15 21 15 279 48
0 0 36 15 0 50 280 2 0 15 285 286 0 +0 0 .0016 0 0 1 1 0 0 50 285 238 0 284 287
 280 0 +.00232 -.00162 -2e-5 0 0 1 1 0 0 50 286 65 0 251 280 18 0 +0 0 0 0 0 1 1
 0 0 14 251 43 288 ?289 130 248 5 286 -0 0 289 130 21 50 18 86 0 130 286 6 0 +-.
0023 -.0016 .0016 0 1 0 0 0 1 14 130 79 290 ?251 17 124 5 18 -0 0 251 17 21 81 1
 290 797 269 130 291 0 288 292 293 14 17 83 292 ?130 254 256 5 6 -0 0 130 254 21
 81 1 292 798 269 17 294 0 290 295 296 14 254 232 295 ?17 297 252 5 298 +0 0 17
 297 21 81 1 295 799 269 254 299 0 292 300 301 14 297 229 300 ?254 302 303 5 304
 -0 0 254 302 21 50 298 243 0 254 305 304 0 +.00165 0 0 -1 0 0 0 0 1 50 305 391
 0 289 306 298 0 +-.00232 -.00162 -2e-5 0 0 1 -1 0 0 50 304 242 0 297 298 307 0
 +.00232 0 0 -1 0 0 0 0 1 50 307 241 0 302 304 308 0 +.00232 -.00162 .00162 0 1
 0 0 0 1 14 302 225 309 ?297 310 311 5 307 -0 0 297 310 21 50 308 240 0 310 307
 287 0 +.00232 -.00162 .00162 0 0 -1 -1 0 0 14 310 221 312 ?302 313 314 5 308 -0
 0 302 313 21 50 287 239 0 313 308 285 0 +.00232 .00162 .00162 0 -1 0 0 0 -1 14
 313 217 315 ?310 284 316 5 287 -0 0 310 284 21 81 1 315 803 269 313 317 0 312 3
18 319 14 284 213 318 ?313 278 320 5 285 -0 0 313 278 21 15 316 220 0 76 313 0 1
7 76 0 316 205 64 74 321 227 0 322 +17 205 0 316 323 76 71 322 203 0 0 +17 64 0
 316 76 323 62 61 215 0 214 -17 321 0 320 324 202 62 76 227 0 0 -17 322 0 255 32
5 326 74 205 203 0 202 -15 255 235 0 325 254 0 17 325 0 255 327 322 65 202 200 0
 211 -17 326 0 255 322 327 71 208 206 0 205 -17 202 0 320 321 67 74 325 200 0 0
 +15 320 216 0 67 284 0 17 67 0 320 202 324 65 328 221 0 325 +17 324 0 320 67 32
1 53 214 212 0 0 -17 328 0 311 329 211 53 67 221 0 324 -15 311 228 0 70 302 0 17
 329 0 311 70 328 56 55 219 0 0 -17 211 0 311 328 70 65 327 209 0 0 +17 70 0 311
 211 329 68 330 223 0 208 +17 327 0 255 326 325 68 211 209 0 0 -17 330 0 314 331
 208 56 70 223 0 329 -17 208 0 314 330 73 68 326 206 0 327 +15 314 224 0 73 310
 0 17 73 0 314 208 331 71 323 225 0 326 +17 331 0 314 73 330 59 58 217 0 0 -17 3
23 0 316 64 205 59 73 225 0 331 -17 58 0 303 55 61 56 331 217 0 330 +15 303 231
 0 214 297 0 17 55 0 303 214 58 53 329 219 0 328 +17 61 0 303 58 214 59 64 215 0
 323 +17 214 0 303 61 55 62 324 212 0 321 +81 1 318 804 269 284 332 0 315 333 33
4 80 255 1 269 335 336 9000 1 1 1 1 1 1 1 1 0 FFFFTFTFFFFFFF1 81 1 332 729 337 2
84 0 318 338 317 339 81 1 333 805 269 275 340 0 318 341 342 82 255 1 334 -185204
7154 14 275 385 333 ?149 343 344 5 345 +0 0 149 343 21 81 1 340 743 337 275 0 33
3 346 347 348 81 1 341 806 269 343 346 0 333 349 350 82 1 342 -1772289841 14 343
 382 341 ?275 351 352 5 353 -0 0 275 351 21 81 1 346 742 337 343 0 341 354 340 3
55 81 1 349 807 269 351 354 0 341 356 357 82 1 350 -1772420913 14 351 379 349 ?3
43 358 359 5 360 -0 0 343 358 21 81 1 354 741 337 351 0 349 361 346 362 81 1 356
 808 269 358 361 0 349 363 364 82 1 357 -1772551985 14 358 376 356 ?351 365 366
 5 367 -0 0 351 365 21 81 1 361 740 337 358 0 356 368 354 369 81 1 363 809 269 3
65 368 0 356 370 371 82 1 364 -1772945201 14 365 373 363 ?358 289 372 5 306 -0 0
 358 289 21 81 1 368 739 337 365 0 363 373 361 374 81 1 370 810 269 289 373 0 36
3 0 375 82 1 371 -1773076273 14 289 370 370 ?365 251 376 5 305 -0 0 365 251 21 8
1 1 373 738 337 289 0 370 377 368 378 82 1 375 -1772879665 80 1 337 0 379 8001 0
 0 0 0 3 5 0 0 0 FFFFTFTFFFFFFF2 81 1 377 737 337 251 0 288 291 373 380 83 255 3
 378 .823529411764706 .819607843137255 .780392156862745 81 1 288 796 269 251 377
 0 282 290 381 81 1 291 736 337 130 0 290 294 377 382 83 3 380 0 .75294117647058
8 0 81 1 294 735 337 17 0 292 299 291 383 83 3 382 0 .752941176470588 0 81 1 299
 734 337 254 0 295 384 294 385 83 3 383 0 .752941176470588 0 81 1 384 733 337 29
7 0 300 386 299 387 83 3 385 .823529411764706 .819607843137255 .780392156862745
 81 1 300 800 269 297 384 0 295 309 388 81 1 386 732 337 302 0 309 389 384 390 8
3 3 387 .823529411764706 .819607843137255 .780392156862745 81 1 309 801 269 302
 386 0 300 312 391 81 1 389 731 337 310 0 312 317 386 392 83 3 390 .823529411764
706 .819607843137255 .780392156862745 81 1 312 802 269 310 389 0 309 315 393 81
 1 317 730 337 313 0 315 332 389 394 83 3 392 .823529411764706 .819607843137255
 .780392156862745 83 3 394 .823529411764706 .819607843137255 .780392156862745 82
 1 393 -1852571442 82 1 391 -1852833586 82 1 388 -1859387186 81 1 282 795 269 27
8 338 0 277 288 395 82 1 381 -1892024113 81 1 338 728 337 278 0 282 281 332 396
 82 1 395 -1734999855 81 1 281 727 337 15 0 277 0 338 397 83 3 396 0 .7529411764
70588 0 83 3 397 0 .752941176470588 0 79 255 15 379 SDL/TYSA_COLOUR15 376 372 0
 398 289 0 17 398 0 376 178 399 95 173 171 0 0 -17 178 0 376 190 398 89 400 176
 0 0 +17 399 0 376 398 190 107 154 152 0 173 -17 173 0 352 106 97 107 398 171 0
 0 +15 352 384 0 401 343 0 17 106 0 352 401 173 104 109 155 0 164 -17 97 0 352 1
73 401 95 94 174 0 400 +17 401 0 352 97 106 92 170 168 0 184 -17 94 0 359 88 400
 92 97 174 0 401 -17 400 0 359 94 91 95 178 176 0 398 -15 359 381 0 400 351 0 17
 91 0 359 400 88 89 181 179 0 402 -17 88 0 359 91 94 86 184 182 0 403 -17 181 0
 372 187 402 86 91 179 0 0 +17 402 0 372 181 100 89 190 188 0 178 -15 372 375 0
 402 365 0 17 100 0 372 402 187 98 167 165 0 154 -17 190 0 376 399 178 98 402 18
8 0 0 +17 187 0 372 100 181 101 403 185 0 0 +17 167 0 404 164 154 101 100 165 0
 187 +17 154 0 404 167 109 98 399 152 0 190 +15 404 388 0 154 275 0 17 109 0 404
 154 164 107 106 155 0 399 +17 164 0 404 109 167 104 103 162 0 170 +17 103 0 366
 403 170 101 164 162 0 167 -17 170 0 366 103 184 104 401 168 0 0 +15 366 378 0 4
03 358 0 17 184 0 366 170 403 92 88 182 0 0 +17 403 0 366 184 103 86 187 185 0 1
81 -83 3 374 .823529411764706 .819607843137255 .780392156862745 50 306 392 0 365
 367 305 0 +-.00232 .00162 .00162 0 -1 0 0 0 -1 50 367 393 0 358 360 306 0 +-.00
232 -.00162 .00162 0 0 -1 1 0 0 50 360 394 0 351 353 367 0 +-.00232 0 0 1 0 0 0
 0 1 50 353 395 0 343 345 360 0 +-.00232 -.00162 .00162 0 1 0 0 0 1 50 345 396 0
 275 276 353 0 +-.00165 0 0 1 0 0 0 0 1 50 276 550 0 149 268 345 0 +-.00137375 -
.0016 .00161 1 0 0 0 0 -1 83 3 369 .823529411764706 .819607843137255 .7803921568
62745 83 3 362 .823529411764706 .819607843137255 .780392156862745 83 3 355 .8235
29411764706 .819607843137255 .780392156862745 81 1 347 744 337 149 0 274 340 270
 405 83 3 348 .823529411764706 .819607843137255 .780392156862745 81 1 274 793 26
9 149 347 0 271 277 406 81 1 270 745 337 266 0 267 347 407 408 83 3 405 .1450980
392156862 .1411764705882352 .1411764705882352 81 1 407 746 337 142 0 271 270 0 4
09 83 3 408 .1450980392156862 .1411764705882352 .1411764705882352 81 1 271 792 2
69 142 407 0 267 274 410 83 3 409 .1450980392156862 .1411764705882352 .141176470
5882352 82 1 410 -1747058479 82 1 406 -1739718447 15 344 387 0 82 275 404 17 82
 0 344 199 85 80 193 191 0 411 -17 199 0 344 41 82 77 411 197 0 196 +17 85 0 344
 82 41 83 22 10 0 193 -17 193 0 124 44 129 83 82 191 0 249 +17 411 0 279 36 79 8
0 199 197 0 129 -17 36 0 279 150 411 32 129 242 0 125 +17 79 0 279 411 150 77 11
3 241 0 199 +17 129 0 124 193 125 80 36 242 0 0 -17 150 0 279 79 36 111 133 151
 0 147 -17 113 0 256 145 196 111 79 241 0 150 -16 241 477 0 ?79 30 246 236 30 30
 1 17 145 0 256 143 113 110 147 260 0 141 -17 196 0 256 113 245 77 41 194 0 0 +1
7 41 0 344 85 199 37 196 194 0 22 -17 22 0 248 250 249 37 85 10 0 245 +17 147 0
 146 133 141 111 145 260 0 0 +17 44 0 124 231 193 42 249 246 0 253 +17 231 0 124
 35 44 48 253 229 0 0 +17 35 0 124 126 231 25 33 240 0 134 -17 33 0 26 28 27 48
 35 240 0 237 +16 240 471 0 ?33 242 30 239 242 242 1 15 26 327 0 24 278 0 17 28
 0 26 24 33 45 237 235 0 29 -17 237 0 252 253 47 48 28 235 0 231 +83 3 339 .8235
29411764706 .819607843137255 .780392156862745 79 14 336 SWEntUnchanged82 1 319 -
1852309298 82 1 301 -1844903730 82 1 296 -1890582319 82 1 293 -1891106607 82 1 2
83 -1734541103 50 273 555 0 142 0 268 0 +0 0 .00161 0 0 -1 -1 0 0 82 1 272 -1740
242735 19 16 95 0 1 0 9 5 S0 74 4 CI16 index_map_offset0 0 1 dCCZ20 14 3 0 0 370
 2 407 0 0 0 0 0 0 0 0 0 0 0 0 0 0 0 0 0 80 2 12 412 413 8004 0 0 0 0 3 5 0 0 0
 FFTFFFFFFFFFFF2 3 83 1 13 1 79 16 413 SDL/TYSA_DENSITY1 0 
