**ABCDEFGHIJKLMNOPQRSTUVWXYZabcdefghijklmnopqrstuvwxyz**************************
**PARASOLID !"#$%&'()*+,-./:;<=>?@[\]^_`{|}~0123456789**************************
**PART1;
MC=AMD64;
MC_MODEL=Intel64 Family 6 Model 15 Stepping 13, GenuineIntel;
MC_ID=unknown;
OS=Windows_NT;
OS_RELEASE=unknown;
FRU=Parasolid Version 30.0, build 310,  6- 8-2018;
APPL=SOLIDWORKS 2018-2018211;
SITE=;
USER=unknown;
FORMAT=text;
GUISE=transmit;
KEY=FUSERC_FUSERC2012(0805)X100;
FILE=FUSERC_FUSERC2012(0805)X100.x_t;
DATE=Sat Aug 17 21:26:06 2019;
**PART2;
SCH=SCH_3000310_30000;
USFLD_SIZE=0;
**PART3;
**END_OF_HEADER*****************************************************************
T51 : TRANSMIT FILE created by modeller version 300031023 SCH_3000310_30000_1300
6205 0 12 33 CCCCCCI4 mesh1006 0 I8 polyline1008 0 CCCCCCCDI5 owner1040 0 CCCCCC
I13 boundary_mesh1006 0 I17 boundary_polyline1008 0 CCCA16 index_map_offset0 0 1
 dA9 index_map82 0 A17 node_id_index_map82 0 A20 schema_embedding_map82 0 A5 chi
ld12 0 A14 lowest_node_id0 0 1 dZ1 701 0 2 0 0 0 0 0 0 1e3 1e-8 0 3 0 1 0 1 1 4
 5 6 7 0 0 8 9 10 0 0 0 0 0 0 70 11 CI9 list_type0 0 1 uI10 notransmit0 0 1 lCCC
DCCDI12 finger_index0 0 1 dI12 finger_block1012 0 CZ2 0 4 T1 0 0 2 20 1 11 11 13
 255 4 165 0 1 0 12 0 0 13 0 50 255 5 88 0 14 15 0 0 +-.001 6e-4 .001 -108420217
2485504e-31 -1 0 1 -1084202172485504e-31 0 30 255 6 317 0 9 16 0 0 +-6e-4 0 0 0
 1 0 29 255 7 472 0 10 17 0 -9e-5 6e-4 .001 19 8 CCCCCCCA5 owner12 0 Z8 236 0 1
 13 0 18 V0 16 255 9 315 0 ?19 0 20 6 0 0 1 18 255 10 470 0 21 0 22 7 ?1 17 255
 21 0 23 24 25 10 26 27 0 28 +18 22 467 0 24 10 29 17 ?1 17 24 0 23 30 21 22 28
 31 0 32 -18 29 464 0 33 22 34 35 ?1 29 17 469 0 22 35 7 -9e-5 -6e-4 .001 29 35
 466 0 29 36 17 -43e-5 -6e-4 .001 29 36 311 0 34 37 35 -6e-4 6e-4 0 18 34 309 0
 38 29 39 36 ?1 29 37 138 0 39 40 36 6e-4 -6e-4 0 18 39 136 0 41 34 42 37 ?1 29
 40 259 0 42 43 37 6e-4 6e-4 .001 18 42 198 0 44 39 45 40 ?1 29 43 260 0 45 46 4
0 6e-4 -6e-4 .001 18 45 208 0 30 42 47 43 ?1 29 46 262 0 47 48 43 6e-4 6e-4 0 18
 47 199 0 49 45 50 46 ?1 29 48 263 0 50 51 46 .00102 -62e-5 -2e-5 18 50 207 0 52
 47 53 48 ?1 29 51 264 0 53 54 48 .00102 -62e-5 .00102 18 53 206 0 55 50 56 51 ?
1 29 54 265 0 56 57 51 .00102 62e-5 .00102 18 56 205 0 58 53 59 54 ?1 29 57 266
 0 59 60 54 .00102 62e-5 -2e-5 18 59 202 0 61 56 62 57 ?1 29 60 267 0 62 63 57 6
e-4 -62e-5 -2e-5 18 62 200 0 64 59 65 60 ?1 29 63 268 0 65 66 60 6e-4 -62e-5 .00
102 18 65 204 0 67 62 68 63 ?1 29 66 269 0 68 69 63 6e-4 62e-5 .00102 18 68 203
 0 70 65 71 66 ?1 29 69 270 0 71 72 66 6e-4 62e-5 -2e-5 18 71 201 0 73 68 74 69
 ?1 29 72 412 0 74 75 69 -6e-4 6e-4 .001 18 74 364 0 76 71 77 72 ?1 29 75 413 0
 77 78 72 -6e-4 -6e-4 .001 18 77 355 0 79 74 80 75 ?1 29 78 415 0 80 81 75 -6e-4
 -6e-4 0 18 80 356 0 82 77 83 78 ?1 29 81 416 0 83 84 78 -.00102 62e-5 .00102 18
 83 360 0 85 80 86 81 ?1 29 84 417 0 86 87 81 -.00102 62e-5 -2e-5 18 86 361 0 88
 83 89 84 ?1 29 87 418 0 89 90 84 -.00102 -62e-5 .00102 18 89 359 0 91 86 92 87
 ?1 29 90 419 0 92 93 87 -.00102 -62e-5 -2e-5 18 92 362 0 94 89 95 90 ?1 29 93 4
20 0 95 96 90 -6e-4 62e-5 -2e-5 18 95 357 0 97 92 98 93 ?1 29 96 421 0 98 99 93
 -6e-4 62e-5 .00102 18 98 358 0 100 95 101 96 ?1 29 99 422 0 101 102 96 -6e-4 -6
2e-5 .00102 18 101 363 0 103 98 104 99 ?1 29 102 423 0 104 105 99 -6e-4 -62e-5 -
2e-5 18 104 366 0 106 101 107 102 ?1 29 105 565 0 108 109 102 -43e-5 6e-4 .001 1
8 108 518 0 110 111 0 105 ?1 29 109 569 0 107 112 105 -43e-5 6e-4 .00101 18 107
 521 0 113 104 114 109 ?1 29 112 570 0 114 115 109 -9e-5 6e-4 .00101 18 114 520
 0 116 107 117 112 ?1 29 115 571 0 117 118 112 -9e-5 -6e-4 .00101 18 117 519 0 1
19 114 111 115 ?1 29 118 572 0 111 0 115 -43e-5 -6e-4 .00101 18 111 516 0 120 11
7 108 118 ?1 17 120 0 121 122 123 111 119 124 0 125 -15 255 121 78 0 126 127 0 1
7 122 0 121 126 120 29 128 129 0 130 +17 123 0 121 120 32 117 131 132 0 133 -17
 119 0 134 116 125 117 120 124 0 123 +16 124 506 0 ?119 135 136 137 0 0 1 17 125
 0 134 119 113 111 138 136 0 128 +15 134 541 0 125 139 0 17 113 0 134 125 116 10
7 140 141 0 142 +17 138 0 143 144 128 107 125 136 0 0 -16 136 503 0 ?125 124 31
 145 0 0 1 17 128 0 143 138 130 111 122 129 0 0 -15 143 526 0 130 146 0 17 130 0
 143 128 144 29 147 148 0 0 +16 129 494 0 ?122 149 132 150 0 0 1 16 149 351 0 ?1
51 152 129 153 0 0 1 16 132 498 0 ?131 129 154 155 0 0 1 30 150 553 0 129 155 15
3 0 +-43e-5 -6e-4 .00101 0 0 -1 30 155 554 0 132 156 150 0 +-9e-5 -6e-4 .00101 0
 0 -1 30 153 411 0 149 150 157 0 +-6e-4 -62e-5 -2e-5 0 1 0 30 157 410 0 152 153
 158 0 +-6e-4 -62e-5 .00102 0 0 -1 16 152 354 0 ?106 159 149 157 0 0 1 30 158 40
9 0 159 157 160 0 +-6e-4 -62e-5 .00102 0 -1 0 16 159 353 0 ?161 162 152 158 0 0
 1 30 160 408 0 162 158 163 0 +-6e-4 62e-5 .00102 0 0 1 16 162 352 0 ?164 165 15
9 160 0 0 1 30 163 407 0 165 160 166 0 +-.00102 -62e-5 .00102 1 0 0 16 165 347 0
 ?167 168 162 163 0 0 1 30 166 406 0 168 163 169 0 +-.00102 -62e-5 -2e-5 1 0 0 1
6 168 349 0 ?170 171 165 166 0 0 1 30 169 405 0 171 166 172 0 +-.00102 -62e-5 .0
0102 0 0 -1 16 171 348 0 ?94 173 168 169 0 0 1 30 172 404 0 173 169 174 0 +-.001
02 -62e-5 -2e-5 0 1 0 16 173 342 0 ?175 176 171 172 0 0 1 30 174 403 0 176 172 1
77 0 +-.00102 62e-5 .00102 0 0 1 16 176 344 0 ?178 179 173 174 0 0 1 30 177 402
 0 179 174 180 0 +-.00102 -62e-5 .00102 0 -1 0 16 179 346 0 ?181 182 176 177 0 0
 1 30 180 401 0 182 177 183 0 +-.00102 62e-5 .00102 1 0 0 16 182 345 0 ?184 185
 179 180 0 0 1 30 183 400 0 185 180 186 0 +-.00102 62e-5 -2e-5 1 0 0 16 185 343
 0 ?187 188 182 183 0 0 1 30 186 399 0 188 183 189 0 +-6e-4 -6e-4 .001 0 0 -1 16
 188 339 0 ?190 191 185 186 0 0 1 30 189 398 0 191 186 192 0 +-6e-4 6e-4 .001 0
 0 1 16 191 341 0 ?193 194 188 189 0 0 1 30 192 397 0 194 189 195 0 +-6e-4 0 .00
1 0 1 0 16 194 350 0 ?196 197 191 192 0 0 1 30 195 258 0 197 192 198 0 +6e-4 -62
e-5 -2e-5 0 1 0 16 197 170 0 ?199 200 194 195 0 0 1 30 198 257 0 200 195 201 0 +
6e-4 62e-5 .00102 0 0 1 16 200 174 0 ?202 203 197 198 0 0 1 30 201 256 0 203 198
 204 0 +6e-4 -62e-5 .00102 0 -1 0 16 203 178 0 ?205 206 200 201 0 0 1 30 204 255
 0 206 201 207 0 +6e-4 -62e-5 .00102 0 0 -1 16 206 182 0 ?208 209 203 204 0 0 1
 30 207 254 0 209 204 210 0 +.00102 -62e-5 -2e-5 0 1 0 16 209 185 0 ?211 212 206
 207 0 0 1 30 210 253 0 212 207 213 0 +.00102 62e-5 .00102 0 0 1 16 212 188 0 ?5
8 214 209 210 0 0 1 30 213 252 0 214 210 215 0 +.00102 -62e-5 .00102 0 -1 0 16 2
14 191 0 ?55 216 212 213 0 0 1 30 215 251 0 216 213 217 0 +.00102 -62e-5 .00102
 0 0 -1 16 216 194 0 ?52 218 214 215 0 0 1 30 217 250 0 218 215 219 0 +.00102 -6
2e-5 -2e-5 -1 0 0 16 218 169 0 ?64 220 216 217 0 0 1 30 219 249 0 220 217 221 0
 +.00102 -62e-5 .00102 -1 0 0 16 220 181 0 ?67 222 218 219 0 0 1 30 221 248 0 22
2 219 223 0 +.00102 62e-5 .00102 -1 0 0 16 222 177 0 ?70 224 220 221 0 0 1 30 22
3 247 0 224 221 225 0 +.00102 62e-5 -2e-5 -1 0 0 16 224 173 0 ?73 226 222 223 0
 0 1 30 225 246 0 226 223 227 0 +6e-4 -6e-4 .001 0 0 1 16 226 168 0 ?228 229 224
 225 0 0 1 30 227 245 0 229 225 230 0 +6e-4 6e-4 .001 0 0 -1 16 229 166 0 ?231 2
32 226 227 0 0 1 30 230 244 0 232 227 233 0 +6e-4 0 .001 0 -1 0 16 232 197 0 ?23
4 235 229 230 0 0 1 30 233 8 0 27 230 236 0 +-.001 6e-4 .001 -1 1084202172485504
e-31 0 16 27 148 0 ?21 237 238 233 238 238 1 30 236 14 0 239 233 240 0 +-.001 -6
e-4 .001 1 0 0 16 239 324 0 ?33 20 237 236 237 237 1 30 240 68 0 235 236 241 0 +
-.001 6e-4 0 -1 1084202172485504e-31 0 16 235 140 0 ?242 243 232 240 0 0 1 30 24
1 66 0 243 240 16 0 +-.001 -6e-4 0 1 0 0 16 243 313 0 ?41 238 235 241 0 0 1 30 1
6 144 0 20 241 6 0 +6e-4 0 0 0 -1 0 16 20 142 0 ?244 9 239 16 0 0 1 17 244 0 245
 246 247 39 49 20 0 0 +15 245 44 0 246 248 0 17 246 0 245 19 244 80 41 243 0 0 -
17 247 0 245 244 19 47 242 235 0 0 -17 49 0 249 44 250 47 244 20 0 231 -15 249 2
34 0 44 251 252 17 44 0 249 234 49 42 231 229 0 25 -17 250 0 249 49 234 39 228 2
26 0 244 -17 231 0 253 242 26 47 44 229 0 247 +15 253 82 0 242 14 0 17 242 0 253
 193 231 34 247 235 0 0 +17 26 0 253 231 254 42 21 27 0 0 -17 254 0 253 26 140 1
0 255 154 0 0 +17 140 0 253 254 142 114 113 141 0 0 -17 255 0 256 133 28 114 254
 154 0 140 -16 154 502 0 ?254 132 257 156 0 0 1 16 257 490 0 ?144 154 141 258 0
 0 1 30 156 555 0 154 258 155 0 +-9e-5 6e-4 .00101 0 0 -1 30 258 556 0 257 259 1
56 0 +-43e-5 6e-4 .00101 0 0 -1 30 259 558 0 31 260 258 0 +-9e-5 -6e-4 .001 0 1
 0 16 31 495 0 ?28 136 148 259 0 0 1 30 260 560 0 148 261 259 0 +-43e-5 -6e-4 .0
01 0 -1 0 16 148 487 0 ?130 31 0 260 0 0 1 30 261 561 0 141 262 260 0 +-43e-5 6e
-4 .00101 -1 0 0 16 141 512 0 ?113 257 135 261 0 0 1 30 262 562 0 135 137 261 0
 +-9e-5 -6e-4 .00101 0 1 0 16 135 509 0 ?116 141 124 262 0 0 1 30 137 563 0 124
 145 262 0 +-43e-5 -6e-4 .00101 1 0 0 30 145 564 0 136 0 137 0 +-43e-5 -6e-4 .00
101 0 -1 0 17 116 0 134 113 119 114 133 135 0 255 +17 133 0 256 131 255 117 116
 135 0 0 -15 256 534 0 28 263 0 17 131 0 256 28 133 22 123 132 0 0 +17 28 0 256
 255 131 10 24 31 0 254 +14 255 263 531 264 ?139 146 256 4 265 -0 0 139 146 18 8
1 255 1 264 682 266 263 267 0 0 268 269 14 139 539 268 ?0 263 134 4 270 -0 0 0 2
63 18 14 146 523 271 ?263 272 143 4 273 -0 0 263 272 18 50 265 549 0 263 270 273
 0 +-9e-5 -6e-4 .00101 -1 0 0 0 0 1 13 18 237 0 0 0 0 0 0 8 12 14 12 484 274 ?27
5 0 276 4 277 +275 275 275 0 18 81 1 274 685 266 12 278 0 271 279 280 14 275 479
 279 ?281 12 23 4 277 +12 12 281 12 18 15 276 477 0 33 12 0 50 277 2 0 12 282 28
3 0 +0 0 .001 0 0 1 1 0 0 50 282 238 0 281 284 277 0 +.00102 -62e-5 -2e-5 0 0 1
 1 0 0 50 283 65 0 248 277 15 0 +0 0 0 0 0 1 1 0 0 14 248 43 285 ?286 127 245 4
 283 -0 0 286 127 18 50 15 86 0 127 283 5 0 +-.001 -6e-4 .001 0 1 0 0 0 1 14 127
 79 287 ?248 14 121 4 15 -0 0 248 14 18 81 1 287 688 266 127 288 0 285 289 290 1
4 14 83 289 ?127 251 253 4 5 -0 0 127 251 18 81 1 289 689 266 14 291 0 287 292 2
93 14 251 232 292 ?14 294 249 4 295 +0 0 14 294 18 81 1 292 690 266 251 296 0 28
9 297 298 14 294 229 297 ?251 299 300 4 301 -0 0 251 299 18 50 295 243 0 251 302
 301 0 +6e-4 0 0 -1 0 0 0 0 1 50 302 391 0 286 303 295 0 +-.00102 -62e-5 -2e-5 0
 0 1 -1 0 0 50 301 242 0 294 295 304 0 +.00102 0 0 -1 0 0 0 0 1 50 304 241 0 299
 301 305 0 +.00102 -62e-5 .00102 0 1 0 0 0 1 14 299 225 306 ?294 307 308 4 304 -
0 0 294 307 18 50 305 240 0 307 304 284 0 +.00102 -62e-5 .00102 0 0 -1 -1 0 0 14
 307 221 309 ?299 310 311 4 305 -0 0 299 310 18 50 284 239 0 310 305 282 0 +.001
02 62e-5 .00102 0 -1 0 0 0 -1 14 310 217 312 ?307 281 313 4 284 -0 0 307 281 18
 81 1 312 694 266 310 314 0 309 315 316 14 281 213 315 ?310 275 317 4 282 -0 0 3
10 275 18 15 313 220 0 73 310 0 17 73 0 313 202 61 71 318 224 0 319 +17 202 0 31
3 320 73 68 319 200 0 0 +17 61 0 313 73 320 59 58 212 0 211 -17 318 0 317 321 19
9 59 73 224 0 0 -17 319 0 252 322 323 71 202 200 0 199 -15 252 235 0 322 251 0 1
7 322 0 252 324 319 62 199 197 0 208 -17 323 0 252 319 324 68 205 203 0 202 -17
 199 0 317 318 64 71 322 197 0 0 +15 317 216 0 64 281 0 17 64 0 317 199 321 62 3
25 218 0 322 +17 321 0 317 64 318 50 211 209 0 0 -17 325 0 308 326 208 50 64 218
 0 321 -15 308 228 0 67 299 0 17 326 0 308 67 325 53 52 216 0 0 -17 208 0 308 32
5 67 62 324 206 0 0 +17 67 0 308 208 326 65 327 220 0 205 +17 324 0 252 323 322
 65 208 206 0 0 -17 327 0 311 328 205 53 67 220 0 326 -17 205 0 311 327 70 65 32
3 203 0 324 +15 311 224 0 70 307 0 17 70 0 311 205 328 68 320 222 0 323 +17 328
 0 311 70 327 56 55 214 0 0 -17 320 0 313 61 202 56 70 222 0 328 -17 55 0 300 52
 58 53 328 214 0 327 +15 300 231 0 211 294 0 17 52 0 300 211 55 50 326 216 0 325
 +17 58 0 300 55 211 56 61 212 0 320 +17 211 0 300 58 52 59 321 209 0 318 +81 1
 315 695 266 281 329 0 312 330 331 80 255 1 266 332 333 9000 1 1 1 1 1 1 1 1 0 F
FFFTFTFFFFFFF1 81 1 329 620 334 281 0 315 335 314 336 81 1 330 696 266 272 337 0
 315 338 339 82 255 1 331 -1266024237 14 272 385 330 ?146 340 341 4 342 +0 0 146
 340 18 81 1 337 634 334 272 0 330 343 344 345 81 1 338 697 266 340 343 0 330 34
6 347 82 1 339 -1186266924 14 340 382 338 ?272 348 349 4 350 -0 0 272 348 18 81
 1 343 633 334 340 0 338 351 337 352 81 1 346 698 266 348 351 0 338 353 354 82 1
 347 -1186397996 14 348 379 346 ?340 355 356 4 357 -0 0 340 355 18 81 1 351 632
 334 348 0 346 358 343 359 81 1 353 699 266 355 358 0 346 360 361 82 1 354 -1186
529068 14 355 376 353 ?348 362 363 4 364 -0 0 348 362 18 81 1 358 631 334 355 0
 353 365 351 366 81 1 360 700 266 362 365 0 353 367 368 82 1 361 -1186922284 14
 362 373 360 ?355 286 369 4 303 -0 0 355 286 18 81 1 365 630 334 362 0 360 370 3
58 371 81 1 367 701 266 286 370 0 360 0 372 82 1 368 -1187053356 14 286 370 367
 ?362 248 373 4 302 -0 0 362 248 18 81 1 370 629 334 286 0 367 374 365 375 82 1
 372 -1186856748 80 1 334 0 376 8001 0 0 0 0 3 5 0 0 0 FFFFTFTFFFFFFF2 81 1 374
 628 334 248 0 285 288 370 377 83 255 3 375 .823529411764706 .819607843137255 .7
80392156862745 81 1 285 687 266 248 374 0 279 287 378 81 1 288 627 334 127 0 287
 291 374 379 83 3 377 0 .752941176470588 0 81 1 291 626 334 14 0 289 296 288 380
 83 3 379 0 .752941176470588 0 81 1 296 625 334 251 0 292 381 291 382 83 3 380 0
 .752941176470588 0 81 1 381 624 334 294 0 297 383 296 384 83 3 382 .82352941176
4706 .819607843137255 .780392156862745 81 1 297 691 266 294 381 0 292 306 385 81
 1 383 623 334 299 0 306 386 381 387 83 3 384 .823529411764706 .819607843137255
 .780392156862745 81 1 306 692 266 299 383 0 297 309 388 81 1 386 622 334 307 0
 309 314 383 389 83 3 387 .823529411764706 .819607843137255 .780392156862745 81
 1 309 693 266 307 386 0 306 312 390 81 1 314 621 334 310 0 312 329 386 391 83 3
 389 .823529411764706 .819607843137255 .780392156862745 83 3 391 .82352941176470
6 .819607843137255 .780392156862745 82 1 390 -1266548525 82 1 388 -1266810669 82
 1 385 -1273364269 81 1 279 686 266 275 335 0 274 285 392 82 1 378 -1306001196 8
1 1 335 619 334 275 0 279 278 329 393 82 1 392 -656277281 81 1 278 618 334 12 0
 274 0 335 394 83 3 393 0 .752941176470588 0 83 3 394 0 .752941176470588 0 79 25
5 15 376 SDL/TYSA_COLOUR15 373 372 0 395 286 0 17 395 0 373 175 396 92 170 168 0
 0 -17 175 0 373 187 395 86 397 173 0 0 +17 396 0 373 395 187 104 151 149 0 170
 -17 170 0 349 103 94 104 395 168 0 0 +15 349 384 0 398 340 0 17 103 0 349 398 1
70 101 106 152 0 161 -17 94 0 349 170 398 92 91 171 0 397 +17 398 0 349 94 103 8
9 167 165 0 181 -17 91 0 356 85 397 89 94 171 0 398 -17 397 0 356 91 88 92 175 1
73 0 395 -15 356 381 0 397 348 0 17 88 0 356 397 85 86 178 176 0 399 -17 85 0 35
6 88 91 83 181 179 0 400 -17 178 0 369 184 399 83 88 176 0 0 +17 399 0 369 178 9
7 86 187 185 0 175 -15 369 375 0 399 362 0 17 97 0 369 399 184 95 164 162 0 151
 -17 187 0 373 396 175 95 399 185 0 0 +17 184 0 369 97 178 98 400 182 0 0 +17 16
4 0 401 161 151 98 97 162 0 184 +17 151 0 401 164 106 95 396 149 0 187 +15 401 3
88 0 151 272 0 17 106 0 401 151 161 104 103 152 0 396 +17 161 0 401 106 164 101
 100 159 0 167 +17 100 0 363 400 167 98 161 159 0 164 -17 167 0 363 100 181 101
 398 165 0 0 +15 363 378 0 400 355 0 17 181 0 363 167 400 89 85 179 0 0 +17 400
 0 363 181 100 83 184 182 0 178 -83 3 371 .823529411764706 .819607843137255 .780
392156862745 50 303 392 0 362 364 302 0 +-.00102 62e-5 .00102 0 -1 0 0 0 -1 50 3
64 393 0 355 357 303 0 +-.00102 -62e-5 .00102 0 0 -1 1 0 0 50 357 394 0 348 350
 364 0 +-.00102 0 0 1 0 0 0 0 1 50 350 395 0 340 342 357 0 +-.00102 -62e-5 .0010
2 0 1 0 0 0 1 50 342 396 0 272 273 350 0 +-6e-4 0 0 1 0 0 0 0 1 50 273 547 0 146
 265 342 0 +-43e-5 -6e-4 .00101 1 0 0 0 0 -1 83 3 366 .823529411764706 .81960784
3137255 .780392156862745 83 3 359 .823529411764706 .819607843137255 .78039215686
2745 83 3 352 .823529411764706 .819607843137255 .780392156862745 81 1 344 635 33
4 146 0 271 337 267 402 83 3 345 .823529411764706 .819607843137255 .780392156862
745 81 1 271 684 266 146 344 0 268 274 403 81 1 267 636 334 263 0 264 344 404 40
5 83 3 402 .1450980392156862 .1411764705882352 .1411764705882352 81 1 404 637 33
4 139 0 268 267 0 406 83 3 405 .1450980392156862 .1411764705882352 .141176470588
2352 81 1 268 683 266 139 404 0 264 271 407 83 3 406 .1450980392156862 .14117647
05882352 .1411764705882352 82 1 407 -668335905 82 1 403 -660995873 15 341 387 0
 79 272 401 17 79 0 341 196 82 77 190 188 0 408 -17 196 0 341 38 79 74 408 194 0
 193 +17 82 0 341 79 38 80 19 9 0 190 -17 190 0 121 41 126 80 79 188 0 246 +17 4
08 0 276 33 76 77 196 194 0 126 -17 33 0 276 147 408 29 126 239 0 122 +17 76 0 2
76 408 147 74 110 238 0 196 +17 126 0 121 190 122 77 33 239 0 0 -17 147 0 276 76
 33 108 130 148 0 144 -17 110 0 253 142 193 108 76 238 0 147 -16 238 474 0 ?76 2
7 243 233 27 27 1 17 142 0 253 140 110 107 144 257 0 138 -17 193 0 253 110 242 7
4 38 191 0 0 +17 38 0 341 82 196 34 193 191 0 19 -17 19 0 245 247 246 34 82 9 0
 242 +17 144 0 143 130 138 108 142 257 0 0 +17 41 0 121 228 190 39 246 243 0 250
 +17 228 0 121 32 41 45 250 226 0 0 +17 32 0 121 123 228 22 30 237 0 131 -17 30
 0 23 25 24 45 32 237 0 234 +16 237 468 0 ?30 239 27 236 239 239 1 15 23 327 0 2
1 275 0 17 25 0 23 21 30 42 234 232 0 26 -17 234 0 249 250 44 45 25 232 0 228 +8
3 3 336 .823529411764706 .819607843137255 .780392156862745 79 14 333 SWEntUnchan
ged82 1 316 -1266286381 82 1 298 -1258880813 82 1 293 -783810337 82 1 290 -78394
1409 82 1 280 -655818529 50 270 552 0 139 0 265 0 +0 0 .00101 0 0 -1 -1 0 0 82 1
 269 -661520161 19 13 95 0 1 0 8 4 S0 74 4 CI16 index_map_offset0 0 1 dCCZ20 11
 2 0 0 367 404 0 0 0 0 0 0 0 0 0 0 0 0 0 0 0 0 0 0 1 0 
