**ABCDEFGHIJKLMNOPQRSTUVWXYZabcdefghijklmnopqrstuvwxyz**************************
**PARASOLID !"#$%&'()*+,-./:;<=>?@[\]^_`{|}~0123456789**************************
**PART1;
MC=AMD64;
MC_MODEL=Intel64 Family 6 Model 60 Stepping 3, GenuineIntel;
MC_ID=unknown;
OS=Windows_NT;
OS_RELEASE=unknown;
FRU=Parasolid Version 30.0, build 310,  6- 8-2018;
APPL=SOLIDWORKS 2018-2018316;
SITE=;
USER=unknown;
FORMAT=text;
GUISE=transmit;
KEY=Hailei New Energy -CR123A-2PT;
FILE=Hailei New Energy -CR123A-2PT.x_t;
DATE=Mon Nov  4 18:29:32 2019;
**PART2;
SCH=SCH_3000310_30000;
USFLD_SIZE=0;
**PART3;
**END_OF_HEADER*****************************************************************
T51 : TRANSMIT FILE created by modeller version 300031023 SCH_3000310_30000_1300
6205 0 10 19 CCCCCCCI4 mesh1006 0 I8 polyline1008 0 CCCCCCCCCCZ1 9 2 3 0 0 0 0 0
 0 0 1e3 1e-8 0 0 0 1 0 1 4 81 255 1 2 9 5 1 0 0 0 0 0 70 11 CI9 list_type0 0 1
 uI10 notransmit0 0 1 lCCCDCCDI12 finger_index0 0 1 dI12 finger_block1012 0 CZ3
 0 4 T1 0 0 1 20 1 6 6 11 255 4 7 0 1 7 8 1 9 0 9 0 12 33 CCCCCCI4 mesh1006 0 I8
 polyline1008 0 CCCCCCCDI5 owner1040 0 CCCCCCI13 boundary_mesh1006 0 I17 boundar
y_polyline1008 0 CCCA16 index_map_offset0 0 1 dA9 index_map82 0 A17 node_id_inde
x_map82 0 A20 schema_embedding_map82 0 A5 child12 0 A14 lowest_node_id0 0 1 dZ7
 4988 10 11 0 0 0 0 0 0 1e3 1e-8 4 12 0 1 0 1 1 13 14 15 16 0 0 17 18 19 0 0 0 0
 0 0 100 255 8 8 4 0 0 1 649659876875875e-31 1332719685573972e-31 -5551115123125
78e-31 .997564050259825 -.0697564737441242 -1374791229546074e-31 .06975647374412
42 .997564050259825 -135525271560688e-32 .002879541832525855 -.0174714145768837
 1 3 ?11 9 5 0 1 7 20 1 21 4 0 4 100 20 6 9 0 0 -1 367990539720714e-30 -13619910
0821474e-30 3765949022615205e-31 .997564050259824 -.0697564737441239 11019760423
51016e-31 -.0697564737441239 -.997564050259824 -253422579670222e-31 .00287954183
252585 .0174714145768837 1 3 ?11 21 3 0 1 12 22 1 23 9 0 0 12 12 609 24 25 0 0 0
 0 0 0 1e3 1e-8 21 26 7 1 0 1 1 27 28 29 30 0 0 31 32 33 0 0 0 0 0 0 100 22 4 21
 0 0 1 0 0 0 1 0 0 0 1 200953375243694e-30 .0083 -.01709 1 1 ?11 23 1 0 1 26 34
 1 0 21 0 0 12 26 535 35 36 37 0 0 0 0 0 1e3 1e-8 23 38 12 1 0 1 1 39 40 41 42 0
 0 43 44 45 0 0 0 0 0 0 100 34 2 23 0 0 1 0 0 0 1 0 0 0 1 200953375243694e-30 .0
083 -.01709 1 1 ?81 1 35 535 5 26 46 0 0 0 47 70 36 0 4 T26 0 0 4 20 1 48 48 50
 255 37 257 0 26 49 0 0 +0 0 .03403 0 0 1 1 0 0 13 255 39 29 0 26 0 50 0 0 51 0
 54 255 40 188 0 52 53 0 0 +0 0 .0324 0 0 1 .00795 35e-5 1 0 0 31 255 41 213 0 4
4 54 0 0 -0 0 .03045 0 0 -1 -1 0 0 .0083 29 255 42 210 0 45 55 0 .0083 0 .03045
 19 8 CCCCCCCA5 owner12 0 Z43 7 0 26 51 0 56 V0 16 255 44 211 0 ?57 0 58 41 0 0
 26 18 255 45 208 0 59 0 60 42 ?26 17 255 59 0 61 62 63 45 64 65 0 62 +18 60 200
 0 64 45 0 55 ?26 17 64 0 61 63 62 60 59 65 0 63 -29 55 202 0 60 0 42 .0083 0 .0
2925 15 255 61 226 0 64 66 0 17 63 0 61 59 64 60 67 58 0 67 -17 62 0 61 64 59 45
 57 44 0 57 -16 65 218 0 ?59 68 0 69 0 0 26 16 68 104 0 ?70 71 65 72 0 0 26 31 6
9 233 0 65 0 73 0 +.0096775 0 .02985 0 1 0 0 0 1 .0015025 31 73 124 0 71 69 72 0
 +0 0 .0326 0 0 1 1 0 0 .00645 16 71 101 0 ?74 75 68 73 0 0 26 31 72 123 0 68 73
 76 0 +0 0 .03275 0 0 1 1 0 0 .00645 31 76 83 0 77 72 78 0 +0 0 15e-5 0 0 -1 -1
 0 0 .00645 16 77 60 0 ?79 80 75 76 0 0 26 31 78 82 0 75 76 81 0 +0 0 0 0 0 -1 -
1 0 0 .00645 16 75 63 0 ?82 77 71 78 0 0 26 31 81 140 0 80 78 83 0 -0 0 .0324 0
 0 1 1 0 0 .0083 16 80 137 0 ?84 85 77 81 0 0 26 31 83 146 0 85 81 86 0 +0 0 35e
-5 0 0 1 1 0 0 .0083 16 85 143 0 ?87 88 80 83 0 0 26 31 86 152 0 88 83 89 0 -0 0
 0 0 0 1 1 0 0 .00795 16 88 149 0 ?90 91 85 86 0 0 26 31 89 158 0 91 86 54 0 +0
 0 .03275 0 0 1 1 0 0 .00795 16 91 155 0 ?92 58 88 89 0 0 26 31 54 205 0 58 89 4
1 0 -0 0 .02925 0 0 1 1 0 0 .0083 16 58 203 0 ?67 44 91 54 0 0 26 17 67 0 93 67
 67 60 63 58 0 0 +15 93 201 0 67 94 95 14 255 94 25 96 ?0 97 93 39 98 -50 50 0 9
7 56 15 95 144 0 87 94 0 17 87 0 95 87 87 0 99 85 0 0 +17 99 0 100 99 99 0 87 85
 0 0 -15 100 170 0 99 97 0 14 97 168 101 ?94 102 103 39 53 +0 0 94 102 56 81 1 1
01 533 104 97 105 0 106 96 107 14 102 16 106 ?97 108 109 39 110 -0 0 97 108 56 1
5 103 169 0 111 97 100 54 53 175 0 97 98 40 0 +0 0 35e-5 0 0 1 .00795 35e-5 1 0
 0 13 56 8 0 0 0 0 0 0 43 50 14 50 206 112 ?113 0 114 39 98 -94 94 113 0 56 81 1
 112 524 104 50 115 0 0 116 117 14 113 1 116 ?118 50 119 39 120 +0 0 118 50 56 1
5 114 209 0 57 50 121 51 255 98 28 0 94 110 53 0 -0 0 .03275 0 0 -1 .0083 -1 0 0
 50 110 22 0 102 120 98 0 +0 0 0 0 0 1 1 0 0 50 120 2 0 113 122 110 0 +0 0 .0327
5 0 0 1 1 0 0 51 122 79 0 108 123 120 0 +0 0 15e-5 0 0 -1 .00645 -1 0 0 14 108 6
6 124 ?102 125 126 39 122 -0 0 102 125 56 50 123 81 0 125 127 122 0 +0 0 15e-5 0
 0 -1 -1 0 0 14 125 71 128 ?108 66 129 39 123 +0 0 108 66 56 51 127 120 0 118 13
0 123 0 +0 0 .0326 0 0 1 .00645 1 0 0 14 118 107 131 ?132 113 133 39 127 -0 0 13
2 113 56 50 130 122 0 132 134 127 0 +0 0 .0326 0 0 1 1 0 0 14 132 112 135 ?52 11
8 136 39 130 +0 0 52 118 56 54 134 232 0 66 0 130 0 +0 0 .02985 0 0 1 .0096775 .
0015025 1 0 0 14 66 224 137 ?125 52 61 39 134 -0 0 125 52 56 81 1 137 529 104 66
 138 0 139 128 140 14 52 181 139 ?66 132 141 39 40 +0 0 66 132 56 81 1 139 528 1
04 52 142 0 135 137 143 15 141 182 0 144 52 145 17 144 0 141 144 144 0 84 80 0 0
 -15 145 183 0 146 52 0 17 146 0 145 146 146 0 92 91 0 0 -17 92 0 119 92 92 0 14
6 91 0 0 +15 119 156 0 92 113 147 15 147 96 0 148 113 0 17 148 0 147 148 148 0 7
0 68 0 0 -17 70 0 149 70 70 0 148 68 0 0 +15 149 111 0 70 118 0 17 84 0 121 84 8
4 0 144 80 0 0 +15 121 138 0 84 50 0 80 255 1 104 0 150 8001 0 0 0 0 3 5 0 0 0 F
FFFTFTFFFFFFF2 81 1 142 522 151 52 0 139 138 0 152 81 1 135 527 104 132 153 0 13
1 139 154 83 255 3 143 .00784313725490196 .23921568627451 .823529411764706 81 1
 153 518 151 132 0 135 155 138 156 81 1 131 526 104 118 155 0 116 135 157 83 3 1
54 .1019607843137254 .1019607843137254 .1019607843137254 81 1 155 516 151 118 0
 131 158 153 159 81 1 116 525 104 113 160 0 112 131 161 83 3 157 .00784313725490
196 .23921568627451 .823529411764706 81 1 160 510 151 113 0 116 115 162 163 83 3
 161 .00784313725490196 .23921568627451 .823529411764706 80 1 151 164 165 9000 1
 1 1 1 1 1 1 1 0 FFFFTFTFFFFFFF1 81 1 115 508 151 50 0 112 166 160 167 81 1 162
 512 151 108 0 124 160 158 168 82 255 1 163 101122160 81 1 124 531 104 108 162 0
 128 106 169 81 1 158 514 151 125 0 128 162 155 170 82 1 168 1185153130 81 1 128
 530 104 125 158 0 137 124 171 82 1 170 1183187050 83 3 171 .894117647058824 .91
3725490196078 .929411764705882 81 1 106 532 104 102 166 0 124 101 172 83 3 169 .
00784313725490196 .23921568627451 .823529411764706 81 1 166 506 151 102 0 106 10
5 115 173 83 3 172 .00784313725490196 .23921568627451 .823529411764706 81 1 105
 504 151 97 0 101 174 166 175 82 1 173 102826096 81 1 174 502 151 94 0 96 0 105
 176 82 1 175 -243138448 81 1 96 534 104 94 174 0 101 0 177 82 1 176 103088331 8
3 3 177 .00784313725490196 .23921568627451 .823529411764706 82 1 167 1312882891
 79 255 14 165 SWEntUnchanged82 1 159 -588709778 81 1 138 520 151 66 0 137 153 1
42 178 82 1 156 -590675858 82 1 178 1314586827 82 1 152 -241893264 79 15 150 SDL
/TYSA_COLOUR83 3 140 .00784313725490196 .23921568627451 .823529411764706 15 136
 114 0 74 132 0 17 74 0 136 74 74 0 179 71 0 0 +17 179 0 133 179 179 0 74 71 0 0
 -15 133 110 0 179 118 149 15 129 73 0 79 125 0 17 79 0 129 79 79 0 180 77 0 0 +
17 180 0 126 180 180 0 79 77 0 0 -15 126 69 0 180 108 181 15 181 70 0 82 108 0 1
7 82 0 181 82 82 0 182 75 0 0 +17 182 0 183 182 182 0 82 75 0 0 -15 183 54 0 182
 102 0 17 57 0 114 57 57 45 62 44 0 0 +83 3 117 .00784313725490196 .239215686274
51 .823529411764706 17 111 0 103 111 111 0 90 88 0 0 -17 90 0 109 90 90 0 111 88
 0 0 +15 109 150 0 90 102 183 83 3 107 .00784313725490196 .23921568627451 .82352
9411764706 19 51 30 0 26 0 43 39 S0 50 49 255 0 26 184 37 0 +0 0 .03403 0 0 1 1
 0 0 50 184 254 0 26 185 49 0 +0 0 .03403 0 0 1 1 0 0 50 185 253 0 26 0 184 0 +0
 0 .03403 0 0 1 1 0 0 74 4 CI16 index_map_offset0 0 1 dCCZ20 48 4 0 0 142 46 96
 35 0 0 0 0 0 0 0 0 0 0 0 0 0 0 0 0 81 2 46 261 186 26 0 35 0 0 187 0 80 2 186 1
88 189 8004 0 0 0 0 3 5 0 0 0 FFTFFFFFFFFFFF2 3 83 1 187 1 79 16 189 SDL/TYSA_DE
NSITY80 1 5 190 191 8017 0 0 0 0 0 0 0 0 0 TTTTTTTTTTTTTF3 84 255 35 47 Hailei N
ew Energy -CR123A-2PT - bat79 13 191 SDL/TYSA_NAME81 1 24 609 5 12 192 0 0 0 193
 70 25 0 4 T12 0 0 4 20 1 194 194 13 27 5 0 12 0 195 0 0 196 0 51 28 471 0 197 1
98 0 199 +-.0083 125e-6 .03338 -1 0 0 5e-4 0 0 1 30 255 29 473 0 200 201 0 0 -0
 -867361737988404e-33 .0328958770817241 -1 0 0 29 30 430 0 33 202 0 -.0031000000
00000035 542671774380772e-30 .03289587708172395 19 31 3 0 12 196 0 203 V0 16 32
 436 0 ?204 0 205 201 0 0 12 18 33 428 0 204 0 206 30 ?12 17 204 0 207 208 209 3
3 210 32 0 211 +18 206 425 0 212 33 213 202 ?12 17 212 0 207 214 215 206 216 217
 0 218 +18 213 357 0 219 206 220 221 ?12 29 202 427 0 206 221 30 .0031 -29732235
85307675e-33 .0328958770817241 29 221 359 0 213 222 202 -.002962957113218275 -19
30289470107955e-29 .0337792179855656 29 222 356 0 220 223 221 .00296295711321733
5 -474796512454108e-31 .0337792179855668 18 220 354 0 224 213 225 222 ?12 29 223
 94 0 225 226 222 -.003077234960154975 -375e-6 .03338 18 225 92 0 227 220 228 22
3 ?12 29 226 298 0 228 229 223 -.00307723496015499 375e-6 .03338 18 228 208 0 20
8 225 230 226 ?12 29 229 299 0 230 231 226 .003077234960155025 375e-6 .03338 18
 230 215 0 216 228 232 229 ?12 29 231 305 0 232 0 229 .003077234960154975 -375e-
6 .03338 18 232 210 0 214 230 0 231 ?12 17 214 0 207 209 212 232 218 205 0 233 +
15 207 52 0 209 195 234 17 209 0 207 204 214 225 235 236 0 237 +17 218 0 238 211
 239 206 214 205 0 240 -16 205 431 0 ?214 32 241 242 0 0 12 17 233 0 243 237 244
 232 224 245 0 235 -15 243 385 0 246 247 0 17 237 0 243 246 233 225 239 248 0 21
0 -17 244 0 243 233 246 220 249 250 0 0 +17 224 0 251 252 235 220 233 245 0 253
 +16 245 355 0 ?224 254 255 256 0 0 12 17 235 0 251 224 227 232 209 236 0 239 -1
5 251 123 0 257 258 259 17 227 0 251 235 219 225 246 254 0 209 +16 236 51 0 ?209
 248 260 261 260 260 12 17 239 0 238 218 210 232 237 248 0 0 +15 238 453 0 211 1
97 0 17 210 0 238 239 211 225 204 32 0 0 -16 248 344 0 ?239 255 236 262 0 0 12 1
6 255 349 0 ?263 245 248 264 0 0 12 30 262 346 0 248 261 264 0 +.002938516281673
475 -375e-6 .03338 1 0 0 31 261 54 0 236 265 262 0 -0 0 .03338 0 0 1 1 0 0 .0031
 30 264 351 0 255 262 256 0 --.00293851628167349 375e-6 .03338 1 0 0 38 12 CCCCC
CCCCCCA17 intersection_data204 0 Z256 370 0 245 264 266 0 +267 268 269 270 271 2
72 38 266 371 0 254 256 273 0 +267 268 274 275 276 277 51 267 402 0 247 268 278
 279 +-.0083 249999999999991e-19 .03338 -1 0 0 4e-4 0 0 1 54 268 70 0 258 280 26
7 281 +0 0 .03338 0 0 1 .00245 65e-5 1 0 0 40 255 6 269 0 1 6 2631232063312165e-
20 .3580771367503325 ??.003077234960154975 -375e-6 .03338 .003067637192088815 -.
000355463264504237 .03350348159523905 .00304209187263953 -.000300263875717301 .0
3361281626050035 .003006528973803205 -.000210526819092127 .03370330653796105 .00
2972760082343245 -847357488808576e-19 .03376465317549395 .0029622420457586 24999
9999999967e-19 .03378 41 3 CI8 term_use0 0 1 cCZ1 270 L?.003077234960154975 -375
e-6 .03338 41 1 271 L?.0029622420457586 249999999999967e-19 .03378 204 2 17 INTE
RSECTION_DATA17 Intersection data7 uv_type0 0 1 u6 values0 1 1 fT24 272 4 4.7123
8898038469 -.01137723496015498 6.16192058135261 0 5.02621914905632 -.01136763719
208882 6.16782452831749 .1911333062411055 5.33362495704329 -.01134209187263952 6
.18480088564685 .366316610942948 5.65359081538196 -.0113065289738032 6.213276205
6493 .520593007564938 6.00528265758429 -.01127276008234324 6.2546889573347 .6332
57920595813 6.28318530717958 -.0112622420457586 .00843935306051009 .662873823650
133 14 258 63 282 ?283 284 251 27 268 +0 0 283 284 203 50 280 23 0 284 285 268 0
 +0 0 .03403 0 0 1 1 0 0 141 255 281 286 287 288 268 38 286 373 0 289 273 290 0
 +278 268 291 292 293 294 141 287 273 295 281 268 141 288 256 281 295 268 141 29
5 266 288 287 268 38 273 372 0 296 266 286 0 +278 268 297 298 299 300 16 296 360
 0 ?252 289 254 273 0 0 12 51 278 401 0 283 267 198 301 +-.0083 -250000000000008
5e-20 .03338 -1 0 0 4e-4 0 0 1 40 6 297 0 1 6 269976098647233e-19 .3690250821760
345 ??.002962242045758605 -2500000000000085e-20 .03378 .002975026837871375 96673
9432967202e-19 .0337610452092897 .003004282285342085 .000204012897395154 .033707
9528820222 .003040933967352105 .0002976244707013625 .0336164602522723 .003069724
76317691 .0003597599202437415 .03348936088777085 .003077234960154975 375e-6 .033
38 41 1 298 L?.002962242045758605 -2500000000000085e-20 .03378 41 1 299 L?.00307
7234960154975 375e-6 .03338 204 24 300 4 0 -.0112622420457586 6.27474595411908 .
662873823650131 .3090826219028695 -.01127502683787138 .03248371963655035 .626389
324601936 .609591082124333 -.0113042822853421 .0678032711776038 .528852451287331
 .938311642336262 -.0113409339673521 .0975619914634812 .3723281023453185 1.29386
8085050002 -.0113697247631769 .1166639671080106 .169051574760069 1.5707963267949
15 -.01137723496015498 .1212647258269734 -106752213906265e-28 14 283 382 302 ?24
7 258 303 27 278 -0 0 247 258 203 51 198 472 0 304 278 28 305 +-.0083 -125e-6 .0
3338 -1 0 0 5e-4 0 0 1 141 301 273 306 306 278 141 306 286 301 301 278 14 304 45
4 307 ?0 197 308 27 198 -0 0 0 197 203 141 305 309 310 310 198 38 309 441 0 217
 290 311 0 +285 198 312 313 314 315 141 310 311 305 305 198 38 311 442 0 241 309
 242 0 +285 198 316 317 318 319 16 241 429 0 ?208 205 217 311 0 0 12 38 242 443
 0 205 311 201 0 +285 28 320 321 322 323 51 285 22 0 195 324 280 325 -0 0 .04407
81240867132 0 0 -1 .0031 -1 0 0 40 6 316 0 1 6 283883188228428e-19 .338568364277
25 ??-.003097478813486865 -125e-6 .03288 -.003099755766109315 389126004279374e-1
9 .0329076308017864 -.00309449687462619 .0001846323182131155 .03298740882903715
 -.003085781053810785 .00029657256775097 .03311115697866625 -.003078808009611425
 .0003618580383970085 .0332661173830288 -.003077234960154975 375e-6 .03338 41 1
 317 L?-.003097478813486865 -125e-6 .03288 41 1 318 L?-.003077234960154975 375e-
6 .03338 204 24 319 4 6.24285179171402 .0111981240867132 3.141592653589795 -.005
20252118651314 .01255278141016752 .01117049328492678 2.807592012651825 -.0052002
4423389069 .05959408034018 .01109071525767602 2.473786848010135 -.00520550312537
381 .0958151086213817 .01096696710804692 2.1384865915431 -.00521421894618922 .11
6995118969712 .01081200670368442 1.80057830121959 -.00522119199038857 .121264725
8269732 .0106981240867132 1.570796326794895 -.00522276503984502 14 195 10 326 ?3
27 0 207 27 285 -0 0 327 0 203 50 324 20 0 327 0 285 0 +0 0 .0326 0 0 1 1 0 0 14
1 325 309 328 329 285 141 328 201 330 325 285 141 329 311 325 330 285 141 330 24
2 329 328 285 38 201 444 0 32 242 29 0 +285 28 331 332 333 334 40 6 331 0 1 6 28
52787092338055e-20 .3404668110873735 ??-.003077234960154975 -375e-6 .03338 -.003
08051434586649 -.0003470322245998955 .033215119501034 -.003088533982797645 -.000
266379122875866 .0330688370488363 -.00309677491744445 -.0001413687047649576 .032
95685970042805 -.003099968747801315 1391986548542586e-20 .0328924949192919 -.003
097478813486865 .0001249999999999986 .03288 41 1 332 L?-.003077234960154975 -375
e-6 .03338 41 1 333 L?-.003097478813486865 .0001249999999999986 .03288 204 24 33
4 4 6.16192058135261 .0106981240867132 4.71238898038469 -.00522276503984503 6.17
100428440697 .01086300458567918 4.376338579300695 -.00521948565413351 6.19715045
888506 .01100928703787692 4.040678355916445 -.00521146601720236 6.23756667832523
 .01112126438628514 3.703424573833235 -.00520322508255555 .00449029427827321 .01
11856291674213 3.365622204356875 -.00520003125219868 .0403335154655622 .01119812
40867132 3.141592653589795 -.00520252118651314 14 327 15 335 ?284 195 336 27 324
 -0 0 284 195 203 81 1 335 602 104 327 337 0 326 338 339 14 284 18 338 ?258 327
 340 27 280 +0 0 258 327 203 15 336 17 0 341 327 0 13 203 4 0 0 0 0 0 0 31 195 1
7 341 0 336 341 341 0 342 343 0 0 -17 342 0 234 342 342 0 341 343 0 0 +16 343 6
 0 ?342 344 250 345 0 0 12 16 344 45 0 ?346 260 343 265 0 0 12 16 250 391 0 ?244
 343 200 290 0 0 12 31 345 21 0 343 0 265 0 +0 0 .0326 0 0 1 1 0 0 .0031 31 265
 48 0 344 345 261 0 +0 0 .03403 0 0 1 1 0 0 .00245 16 200 461 0 ?240 250 0 29 0
 0 12 30 290 403 0 250 286 309 0 --867361737988404e-32 -867361737988404e-33 .033
7792179855668 -1 0 0 17 240 0 308 216 347 206 211 200 0 0 +15 308 455 0 347 304
 0 17 216 0 308 263 240 230 212 217 0 252 -17 347 0 308 240 263 33 208 241 0 0 -
17 211 0 238 210 218 33 240 200 0 347 -17 263 0 308 347 216 228 348 255 0 0 +17
 208 0 207 215 204 228 347 241 0 257 +17 215 0 207 212 208 230 257 260 0 348 +17
 257 0 251 219 252 228 215 260 0 349 -17 219 0 251 227 257 213 349 289 0 249 +17
 252 0 251 257 224 230 253 296 0 215 +16 260 96 0 ?215 236 344 261 236 236 12 17
 349 0 303 348 249 228 219 289 0 263 -15 303 383 0 249 283 0 17 348 0 303 253 34
9 230 263 255 0 0 -17 249 0 303 349 253 213 244 250 0 246 -16 289 365 0 ?219 217
 296 286 0 0 12 16 217 426 0 ?212 241 289 309 0 0 12 17 253 0 303 249 348 220 25
2 296 0 244 -17 246 0 243 244 237 213 227 254 0 0 -16 254 358 0 ?227 296 245 266
 0 0 12 17 346 0 340 346 346 0 350 344 0 0 +15 340 46 0 346 284 0 17 350 0 259 3
50 350 0 346 344 0 0 -15 259 65 0 350 258 0 15 234 13 0 342 195 0 81 1 338 603 1
04 284 351 0 335 282 352 81 1 351 595 151 284 0 338 337 353 354 81 1 282 604 104
 258 355 0 338 302 356 83 3 352 .894117647058824 .913725490196078 .9294117647058
82 81 1 355 585 151 258 0 282 0 357 358 81 1 302 605 104 283 357 0 282 359 360 8
3 3 356 .894117647058824 .913725490196078 .929411764705882 81 1 357 587 151 283
 0 302 355 361 362 81 1 359 606 104 247 353 0 302 363 364 83 3 360 .894117647058
824 .913725490196078 .929411764705882 14 247 384 359 ?197 283 243 27 267 -0 0 19
7 283 203 81 1 353 597 151 247 0 359 351 365 366 81 1 363 607 104 197 365 0 359
 307 367 83 3 364 .894117647058824 .913725490196078 .929411764705882 14 197 452
 363 ?304 247 238 27 28 -0 0 304 247 203 81 1 365 599 151 197 0 363 353 0 368 81
 1 307 608 104 304 361 0 363 0 369 83 3 367 .894117647058824 .913725490196078 .9
29411764705882 81 1 361 589 151 304 0 307 357 370 371 83 3 369 .894117647058824
 .913725490196078 .929411764705882 81 1 370 591 151 195 0 326 361 337 372 82 1 3
71 -11337478 81 1 326 601 104 195 370 0 0 335 373 81 1 337 593 151 327 0 335 370
 351 374 82 1 372 23331066 82 1 374 1349583053 83 3 373 .894117647058824 .913725
490196078 .929411764705882 82 1 368 -9895686 82 1 366 -496107270 82 1 362 -49466
5478 82 1 358 24248570 82 1 354 1352138973 83 3 339 .894117647058824 .9137254901
96078 .929411764705882 40 6 320 0 1 6 2838831882284275e-20 .33856836427725 ??.00
3097478813486865 125e-6 .03288 .003099755766109315 -389126004279391e-19 .0329076
308017864 .00309449687462619 -.000184632318213117 .03298740882903715 .0030857810
53810785 -.000296572567750972 .03311115697866625 .003078808009611425 -.000361858
03839701 .0332661173830288 .003077234960154975 -375e-6 .03338 41 1 321 L?.003097
478813486865 125e-6 .03288 41 1 322 L?.003077234960154975 -375e-6 .03338 204 24
 323 4 3.10125913812423 .0111981240867132 3.141592653589795 -.01139747881348686
 3.15414543499996 .01117049328492678 3.47559329452776 -.0113997557661093 3.20118
6733929975 .01109071525767602 3.809398459169455 -.0113944968746262 3.23740776221
1175 .01096696710804692 4.144698715636485 -.0113857810538108 3.258587772559505 .
01081200670368442 4.48260700596 -.01137880800961142 3.262857379416765 .010698124
0867132 4.71238898038469 -.01137723496015498 40 6 312 0 1 6 285278709233806e-19
 .340466811087374 ??.003077234960154975 375e-6 .03338 .00308051434586649 .000347
032224599894 .033215119501034 .003088533982797645 .0002663791228758645 .03306883
70488363 .00309677491744445 .000141368704764956 .03295685970042805 .003099968747
801315 -1391986548542756e-20 .0328924949192919 .003097478813486865 -125e-6 .0328
8 41 1 313 L?.003077234960154975 375e-6 .03338 41 1 314 L?.003097478813486865 -1
25e-6 .03288 204 24 315 4 3.02032792776282 .0106981240867132 1.570796326794895 -
.01137723496015498 3.02941163081718 .01086300458567918 1.906846727878895 -.01138
05143458665 3.055557805295265 .01100928703787692 2.242506951263145 -.01138853398
279764 3.095974024735435 .01112126438628514 2.579760733346355 -.0113967749174444
4 3.146082947868065 .0111856291674213 2.917563102822715 -.01139996874780132 3.18
1926169055355 .0111981240867132 3.141592653589795 -.01139747881348686 40 6 291 0
 1 6 263123206331217e-19 .3580771367503325 ??-.00307723496015499 375e-6 .03338 -
.003067637192088815 .000355463264504235 .03350348159523905 -.00304209187263953 .
0003002638757172995 .03361281626050035 -.003006528973803205 .0002105268190921255
 .03370330653796105 -.002972760082343245 847357488808562e-19 .03376465317549395
 -.0029622420457586 -2499999999999845e-20 .03378 41 1 292 L?-.00307723496015499
 375e-6 .03338 41 1 293 L?-.0029622420457586 -2499999999999845e-20 .03378 204 24
 294 4 1.570796326794895 -.00522276503984501 3.02032792776282 0 1.25696615812326
6 -.00523236280791119 3.0262318747277 .191133306241106 .949560350136294 -.005257
90812736047 3.04320823205706 .366316610942948 .629594491797627 -.005293471026196
79 3.0716835520595 .520593007564937 .2779026495952945 -.00532723991765676 3.1130
9630374491 .633257920595813 595464161919777e-29 -.0053377579542414 3.15003200665
0305 .662873823650133 141 279 256 375 375 267 141 375 266 279 279 267 40 6 274 0
 1 6 269976098647235e-19 .3690250821760345 ??-.002962242045758605 24999999999999
1e-19 .03378 -.002975026837871375 -966739432967218e-19 .0337610452092897 -.00300
4282285342085 -.0002040128973951555 .0337079528820222 -.003040933967352105 -.000
2976244707013645 .0336164602522723 -.00306972476317691 -.000359759920243743 .033
48936088777085 -.003077234960154975 -375e-6 .03338 41 1 275 L?-.0029622420457586
05 249999999999991e-19 .03378 41 1 276 L?-.003077234960154975 -375e-6 .03338 204
 24 277 4 0 -.0053377579542414 3.133153300529285 .662873823650131 5.974102685276
72 -.00532497316212863 3.174076373226345 .626389324601936 5.67359422505525 -.005
29571771465792 3.2093959247674 .528852451287331 5.34487366484332 -.0052590660326
479 3.239154645053275 .3723281023453185 4.98931722212958 -.00523027523682309 3.2
58256620697805 .169051574760069 4.71238898038469 -.00522276503984502 3.262857379
416765 0 19 196 1 0 12 0 31 27 S0 141 199 242 376 376 28 141 376 201 199 199 28
 74 20 194 4 0 0 365 192 307 24 0 0 0 0 0 0 0 0 0 0 0 0 0 0 0 0 81 2 192 79 186
 12 0 24 0 0 377 0 83 1 377 1 84 35 193 Hailei New Energy -CR123A-2PT - bat81 1
 10 4988 5 7 0 0 0 0 378 70 11 0 4 T7 0 0 3 20 1 379 379 13 13 294 0 7 0 380 0 0
 381 0 54 14 1583 0 382 383 0 0 +.0011425 .00628126544700199 839717490557567e-19
 -1058380693340762e-31 -.0697564737441254 -.997564050259824 .000356281411877177
 2e-4 0 .997564050259824 -.0697564737441254 31 15 1553 0 18 384 0 0 +.0011425 .0
0627196458383611 -490367909788866e-19 -1058380693340762e-31 -.0697564737441254 -
.997564050259824 0 .997564050259824 -.0697564737441254 .000207210213377191 29 16
 1220 0 19 385 0 .0002849999999999955 .00475434281700951 .0002002562010392975 19
 17 88 0 7 381 0 386 V0 16 18 1550 0 ?387 0 388 15 0 0 7 18 19 1218 0 389 0 390
 16 ?7 17 389 0 391 392 393 19 394 395 0 396 +18 390 1215 0 397 19 398 385 ?7 17
 397 0 399 400 401 390 402 403 0 404 -18 398 1200 0 405 390 406 407 ?7 29 385 12
17 0 390 407 16 .002 .00475434281700951 .0002002562010392975 29 407 1202 0 398 4
08 385 -.0002849999999999955 .00475434281700951 .000200256201039297 29 408 1192
 0 406 409 407 -.002 .00475434281700951 .000200256201039297 18 406 1190 0 410 39
8 411 408 ?7 29 409 1179 0 411 412 408 -285e-6 .00447531692203301 21e-5 18 411 1
177 0 413 406 414 409 ?7 29 412 1176 0 414 415 409 .0002849999999999955 .0044753
1692203301 21e-5 18 414 1174 0 416 411 417 412 ?7 29 415 1173 0 417 418 412 .002
 .004475316922033005 21e-5 18 417 1171 0 402 414 419 415 ?7 29 418 1170 0 419 42
0 415 -.002 .004475316922033005 21e-5 18 419 1168 0 421 417 422 418 ?7 29 420 11
62 0 422 423 418 .002 .00475434281700952 -974379896070356e-20 18 422 1160 0 424
 419 425 420 ?7 29 423 1159 0 425 426 420 .0002849999999999955 .0047543428170095
2 -974379896070356e-20 18 425 1157 0 427 422 428 423 ?7 29 426 1151 0 428 429 42
3 -.002 .00475434281700952 -974379896070362e-20 18 428 1149 0 430 425 431 426 ?7
 29 429 1148 0 431 432 426 -.0002849999999999955 .00475434281700952 -97437989607
0362e-20 18 431 1146 0 433 428 434 429 ?7 29 432 1135 0 434 435 429 .002 .004475
31692203302 0 18 434 1133 0 436 431 437 432 ?7 29 435 1132 0 437 438 432 .000284
9999999999955 .00447531692203302 0 18 437 1130 0 439 434 440 435 ?7 29 438 1129
 0 440 441 435 -285e-6 .00447531692203302 0 18 440 1127 0 442 437 443 438 ?7 29
 441 1126 0 443 444 438 -.002 .00447531692203302 0 18 443 1124 0 445 440 446 441
 ?7 29 444 210 0 447 448 441 -.000284999999999996 0 0 18 447 181 0 449 450 451 4
44 ?7 29 448 211 0 451 452 444 .0002849999999999955 0 0 18 451 182 0 453 447 454
 448 ?7 29 452 214 0 454 455 448 .002 -.001085 0 18 454 185 0 456 451 457 452 ?7
 29 455 215 0 457 458 452 46e-5 -.002485 0 18 457 186 0 459 454 460 455 ?7 29 45
8 216 0 460 461 455 46e-5 -.005985 0 18 460 187 0 462 457 463 458 ?7 29 461 217
 0 463 464 458 1e-4 -.007585 0 18 463 188 0 465 460 466 461 ?7 29 464 218 0 466
 467 461 -1e-4 -.007585 0 18 466 189 0 468 463 469 464 ?7 29 467 219 0 469 470 4
64 -46e-5 -.005985 0 18 469 190 0 471 466 472 467 ?7 29 470 220 0 472 473 467 -4
6e-5 -.002485 0 18 472 191 0 474 469 475 470 ?7 29 473 221 0 475 476 470 -.002 -
.001085 0 18 475 192 0 477 472 478 473 ?7 29 476 87 0 446 479 473 -.000284999999
999996 0 21e-5 18 446 85 0 480 443 481 476 ?7 29 479 84 0 481 482 476 .000284999
9999999955 0 21e-5 18 481 82 0 483 446 484 479 ?7 29 482 75 0 484 485 479 .002 -
.001085 21e-5 18 484 73 0 486 481 487 482 ?7 29 485 72 0 487 488 482 46e-5 -.002
485 21e-5 18 487 70 0 489 484 490 485 ?7 29 488 69 0 490 491 485 46e-5 -.005985
 21e-5 18 490 67 0 492 487 493 488 ?7 29 491 66 0 493 494 488 1e-4 -.007585 21e-
5 18 493 64 0 495 490 496 491 ?7 29 494 63 0 496 497 491 -1e-4 -.007585 21e-5 18
 496 61 0 498 493 499 494 ?7 29 497 60 0 499 500 494 -46e-5 -.005985 21e-5 18 49
9 58 0 501 496 502 497 ?7 29 500 57 0 502 503 497 -46e-5 -.002485 21e-5 18 502 5
5 0 504 499 450 500 ?7 29 503 54 0 450 505 500 -.002 -.001085 21e-5 18 450 52 0
 506 502 447 503 ?7 29 505 715 0 478 507 503 .0002849999999999955 .007215 281902
889468727e-19 18 478 672 0 508 475 509 505 ?7 29 507 1079 0 509 510 505 -.002 .0
07215 281902889468727e-19 18 509 898 0 511 478 512 507 ?7 29 510 1880 0 512 513
 507 .0002849999999999955 .0072003868243992 -.0001807878582709925 18 512 1803 0
 514 509 515 510 ?7 29 513 1881 0 515 516 510 -.0002849999999999955 .00720038682
43992 -.0001807878582709925 18 515 1795 0 517 512 518 513 ?7 29 516 1882 0 518 5
19 513 -.0002849999999999955 .007215 281902889468723e-19 18 518 1799 0 520 515 5
21 516 ?7 29 519 1884 0 521 522 516 .002 .0072003868243992 -.000180787858270992
 18 521 1800 0 523 518 524 519 ?7 29 522 1885 0 524 525 519 -.002 .0072003868243
992 -.0001807878582709925 18 524 1805 0 526 521 527 522 ?7 29 525 1887 0 527 0 5
22 .002 .007215 281902889468726e-19 18 527 1801 0 528 524 0 525 ?7 17 528 0 529
 523 508 527 530 531 0 532 +15 529 1829 0 508 533 0 17 523 0 529 514 528 521 532
 534 0 535 -17 508 0 529 528 514 478 536 537 0 392 +17 530 0 538 396 539 478 528
 531 0 0 -16 531 651 0 ?528 540 541 542 0 0 7 17 532 0 543 544 545 527 523 534 0
 539 +15 543 1723 0 532 546 0 17 544 0 543 402 532 390 539 540 0 0 -17 545 0 543
 532 424 521 547 548 0 0 +16 534 1772 0 ?532 549 0 550 0 0 7 17 539 0 538 530 40
4 527 544 540 0 0 +15 538 689 0 396 551 0 17 404 0 538 539 396 390 400 552 0 544
 +16 540 1216 0 ?539 553 531 554 0 0 7 16 553 177 0 ?555 556 540 557 0 0 7 30 55
4 703 0 540 542 558 0 +.002 .004615 21e-5 0 .997564050259824 -.0697564737441254
 30 542 704 0 531 559 554 0 +.0002849999999999955 .007215 281902889468727e-19 1
 -1517250853624035e-30 0 30 558 5 0 560 554 561 0 +-285e-6 0 21e-5 0 1 0 16 560
 4 0 ?562 563 564 558 0 0 7 30 561 11 0 563 558 565 0 +-.002 .007215 21e-5 26125
3535538676e-30 -1 0 16 563 1169 0 ?506 566 560 561 0 0 7 30 565 14 0 566 561 567
 0 +-.002 -.001085 21e-5 .739940073395944 -.672672793996312 0 16 566 13 0 ?504 5
68 563 565 0 0 7 30 567 17 0 568 565 569 0 +-46e-5 -.002485 21e-5 0 -1 0 16 568
 16 0 ?501 570 566 567 0 0 7 30 569 20 0 570 567 571 0 +-46e-5 -.005985 21e-5 .2
19512195121951 -.975609756097561 0 16 570 19 0 ?498 572 568 569 0 0 7 30 571 23
 0 572 569 573 0 +-1e-4 -.007585 21e-5 1 0 0 16 572 22 0 ?495 574 570 571 0 0 7
 30 573 26 0 574 571 575 0 +1e-4 -.007585 21e-5 .219512195121951 .97560975609756
1 0 16 574 25 0 ?492 576 572 573 0 0 7 30 575 29 0 576 573 577 0 +46e-5 -.005985
 21e-5 0 1 0 16 576 28 0 ?489 578 574 575 0 0 7 30 577 32 0 578 575 579 0 +46e-5
 -.002485 21e-5 .739940073395944 .672672793996312 0 16 578 31 0 ?486 580 576 577
 0 0 7 30 579 35 0 580 577 581 0 +.002 -.001085 21e-5 522507071077352e-31 1 0 16
 580 34 0 ?582 583 578 579 0 0 7 30 581 41 0 583 579 584 0 +.000284999999999995
 .007215 21e-5 150270571377062e-31 -1 0 16 583 1175 0 ?483 585 580 581 0 0 7 31
 584 44 0 585 581 557 0 +0 0 21e-5 0 0 -1 -1 0 0 .000284999999999996 16 585 43 0
 ?480 586 583 584 0 0 7 30 557 209 0 553 584 587 0 +-285e-6 0 0 0 1 0 30 587 207
 0 556 557 588 0 +-.002 .007215 0 261253535538676e-30 -1 0 16 556 1125 0 ?477 58
9 553 587 0 0 7 30 588 206 0 589 587 590 0 +-.002 -.001085 0 .739940073395944 -.
672672793996312 0 16 589 165 0 ?474 591 556 588 0 0 7 30 590 205 0 591 588 592 0
 +-46e-5 -.002485 0 0 -1 0 16 591 161 0 ?471 593 589 590 0 0 7 30 592 204 0 593
 590 594 0 +-46e-5 -.005985 0 .219512195121951 -.975609756097561 0 16 593 157 0
 ?468 595 591 592 0 0 7 30 594 203 0 595 592 596 0 +-1e-4 -.007585 0 1 0 0 16 59
5 153 0 ?465 597 593 594 0 0 7 30 596 202 0 597 594 598 0 +1e-4 -.007585 0 .2195
12195121951 .975609756097561 0 16 597 149 0 ?462 599 595 596 0 0 7 30 598 201 0
 599 596 600 0 +46e-5 -.005985 0 0 1 0 16 599 145 0 ?459 601 597 598 0 0 7 30 60
0 200 0 601 598 602 0 +46e-5 -.002485 0 .739940073395944 .672672793996312 0 16 6
01 141 0 ?456 603 599 600 0 0 7 30 602 199 0 603 600 604 0 +.002 -.001085 0 5225
07071077352e-31 1 0 16 603 137 0 ?605 606 601 602 0 0 7 30 604 197 0 606 602 607
 0 +.000284999999999995 .007215 0 150270571377062e-31 -1 0 16 606 1131 0 ?453 56
4 603 604 0 0 7 31 607 196 0 564 604 608 0 +0 0 0 0 0 -1 -1 0 0 .000284999999999
996 16 564 125 0 ?449 560 606 607 0 0 7 30 608 280 0 586 607 609 0 +-.0002849999
99999996 0 21e-5 0 0 -1 16 586 224 0 ?610 611 585 608 0 0 7 30 609 281 0 611 608
 612 0 +.0002849999999999955 0 21e-5 0 0 -1 16 611 225 0 ?613 614 586 609 0 0 7
 30 612 284 0 614 609 615 0 +.002 -.001085 21e-5 0 0 -1 16 614 228 0 ?616 617 61
1 612 0 0 7 30 615 285 0 617 612 618 0 +46e-5 -.002485 21e-5 0 0 -1 16 617 229 0
 ?619 620 614 615 0 0 7 30 618 286 0 620 615 621 0 +46e-5 -.005985 21e-5 0 0 -1
 16 620 230 0 ?622 623 617 618 0 0 7 30 621 287 0 623 618 624 0 +1e-4 -.007585 2
1e-5 0 0 -1 16 623 231 0 ?625 626 620 621 0 0 7 30 624 288 0 626 621 627 0 +-1e-
4 -.007585 21e-5 0 0 -1 16 626 232 0 ?628 629 623 624 0 0 7 30 627 289 0 629 624
 630 0 +-46e-5 -.005985 21e-5 0 0 -1 16 629 233 0 ?631 632 626 627 0 0 7 30 630
 290 0 632 627 633 0 +-46e-5 -.002485 21e-5 0 0 -1 16 632 234 0 ?634 635 629 630
 0 0 7 30 633 291 0 635 630 636 0 +-.002 -.001085 21e-5 0 0 -1 16 635 235 0 ?637
 638 632 633 0 0 7 30 636 1138 0 638 633 639 0 -.002 .00447531692203302 0 -1 151
7250853624025e-30 0 16 638 1136 0 ?436 640 635 636 0 0 7 30 639 1143 0 640 636 6
41 0 +-285e-6 .00447531692203302 0 1 1517250853624025e-30 0 16 640 1141 0 ?642 6
43 638 639 0 0 7 30 641 1154 0 643 639 644 0 --.002 .00475434281700952 -97437989
6070362e-20 1 1517250853624025e-30 -1236286752311852e-47 16 643 1152 0 ?430 645
 640 641 0 0 7 30 644 1165 0 645 641 646 0 +.0002849999999999955 .00475434281700
952 -974379896070356e-20 -1 1517250853624025e-30 -1236286752311852e-47 16 645 11
63 0 ?647 648 643 644 0 0 7 30 646 1182 0 648 644 649 0 -.000284999999999995 .00
447531692203301 21e-5 1 -1517250853624035e-30 0 16 648 1180 0 ?416 650 645 646 0
 0 7 30 649 1187 0 650 646 651 0 +-.002 .004475316922033005 21e-5 -1 -1517250853
624035e-30 0 16 650 1185 0 ?652 653 648 649 0 0 7 31 651 1195 0 653 649 654 0 --
.002 .004475316922033005 -.00379 1 261253535538676e-30 0 -261253535538676e-30 1
 0 .004 16 653 1193 0 ?410 655 650 651 0 0 7 30 654 1205 0 655 651 656 0 --.0002
849999999999955 .00475434281700951 .000200256201039297 -1 -1517250853624035e-30
 741967476603272e-49 16 655 1203 0 ?405 657 653 654 0 0 7 31 656 1210 0 657 654
 658 0 --285e-6 .00447531692203301 -.00379 -1 0 0 0 0 1 .004 16 657 1208 0 ?413
 552 655 656 0 0 7 30 658 1223 0 552 656 659 0 +.002 .00475434281700951 .0002002
562010392975 1 -1517250853624035e-30 741967476603272e-49 16 552 1221 0 ?404 403
 657 658 0 0 7 31 659 1228 0 403 658 660 0 -.002 .004475316922033005 -.00379 -1
 522507071077352e-31 0 -522507071077352e-31 -1 0 .004 16 403 1226 0 ?402 395 552
 659 0 0 7 31 660 1234 0 395 659 661 0 -.0002849999999999955 .00447531692203301
 -.00379 1 150270571377062e-31 0 -150270571377062e-31 1 0 .004 16 395 1232 0 ?38
9 662 403 660 0 0 7 31 661 1260 0 662 660 663 0 +-285e-6 .00447531692203302 -.00
4 -1 0 0 0 0 1 .004 16 662 1238 0 ?433 664 395 661 0 0 7 31 663 1261 0 664 661 6
65 0 +-.002 .00447531692203302 -.004 1 261253535538676e-30 0 -261253535538676e-3
0 1 0 .004 16 664 1244 0 ?445 666 662 663 0 0 7 31 665 1262 0 666 663 667 0 +.00
02849999999999955 .00447531692203302 -.004 1 150270571377062e-31 0 -150270571377
062e-31 1 0 .004 16 666 1250 0 ?439 668 664 665 0 0 7 31 667 1263 0 668 665 669
 0 +.002 .00447531692203302 -.004 -1 522507071077352e-31 0 -522507071077352e-31
 -1 0 .004 16 668 1255 0 ?424 670 666 667 0 0 7 31 669 1484 0 670 667 671 0 +.00
11425 .00528021357305496 .000103850020286891 -881983911117301e-31 -.069756473744
1254 -.997564050259824 0 .997564050259824 -.0697564737441254 2087121525220845e-2
0 16 670 1481 0 ?672 673 668 669 0 0 7 31 671 1490 0 673 669 674 0 +.0011425 .00
627777762331479 3409354654276545e-20 -881983911117301e-31 -.0697564737441254 -.9
97564050259824 0 .997564050259824 -.0697564737441254 2087121525220855e-20 16 673
 1487 0 ?675 676 670 671 0 0 7 31 674 1535 0 676 671 677 0 +.0011425 .0052744005
3357629 2071968276523885e-20 -1058380693340762e-31 -.0697564737441254 -.99756405
0259824 0 .997564050259824 -.0697564737441254 .000207210213377191 16 676 1532 0
 ?678 679 673 674 0 0 7 31 677 1541 0 679 674 384 0 -.0011425 .00626731415225317
 -.000115541060996208 -1058380693340762e-31 -.0697564737441254 -.997564050259824
 0 .997564050259824 -.0697564737441254 .000356281411877177 16 679 1538 0 ?680 38
8 676 677 0 0 7 31 384 1547 0 388 677 15 0 -.0011425 .00526975010199334 -4578458
72520827e-19 -1058380693340762e-31 -.0697564737441254 -.997564050259824 0 .99756
4050259824 -.0697564737441254 .000356281411877177 16 388 1544 0 ?681 18 679 384
 0 0 7 17 681 0 682 681 681 0 683 388 0 0 +15 682 1545 0 681 684 685 17 683 0 68
6 683 683 0 681 388 0 0 -15 686 1564 0 683 687 688 14 687 1563 689 ?382 690 686
 13 383 +0 0 382 690 386 15 688 1565 0 691 687 0 17 691 0 688 691 691 0 678 676
 0 0 -17 678 0 692 678 678 0 691 676 0 0 +15 692 1533 0 678 693 694 14 693 1500
 695 ?690 696 692 13 697 -0 0 690 696 386 15 694 1502 0 698 693 0 17 698 0 694 6
98 698 0 672 670 0 0 -17 672 0 699 672 672 0 698 670 0 0 +15 699 1482 0 672 700
 0 14 700 1442 701 ?696 702 699 13 703 +0 0 696 702 386 81 1 701 4974 104 700 70
4 0 705 706 707 14 696 1424 706 ?693 700 708 13 709 +0 0 693 700 386 14 702 1354
 705 ?700 710 399 13 711 +0 0 700 710 386 50 703 1454 0 700 709 712 0 +.0011425
 .00528021357305496 .000103850020286891 -881983911117301e-31 -.0697564737441254
 -.997564050259824 0 .997564050259824 -.0697564737441254 13 386 89 0 0 0 0 0 0 1
7 380 14 380 1737 713 ?714 0 715 13 716 -0 0 714 0 386 81 1 713 4952 104 380 717
 0 0 718 719 14 714 1731 718 ?546 380 720 13 721 -0 0 546 380 386 15 715 1736 0
 722 380 0 50 716 279 0 380 721 723 0 +-285e-6 0 21e-5 -1 0 0 0 0 1 50 721 277 0
 714 724 716 0 +-.002 .007215 21e-5 1 261253535538676e-30 0 -261253535538676e-30
 1 0 51 723 1303 0 725 716 726 0 +-679017842019265e-32 .00447531692203302 -.004
 -1 -1517250853624025e-30 0 .004 1517250853624025e-30 -1 0 14 725 1291 727 ?728
 729 730 13 723 -0 0 728 729 386 51 726 1324 0 728 723 731 0 +.002 .004475316922
03302 -.004 1 -1517250853624025e-30 0 .004 1517250853624025e-30 1 0 14 728 1312
 732 ?710 725 733 13 726 -0 0 710 725 386 51 731 1345 0 710 726 711 0 +-67901784
2019268e-32 .00447531692203301 -.00379 1 1517250853624035e-30 0 .004 -1517250853
624035e-30 1 0 14 710 1333 734 ?702 728 735 13 731 +0 0 702 728 386 51 711 1366
 0 702 731 697 0 +.000284999999999995 .00447531692203301 -.00379 -1 151725085362
4035e-30 0 .004 -1517250853624035e-30 -1 0 54 697 1507 0 693 711 736 0 +.0011425
 .00526277445461893 -.0001455409922780652 881983911117301e-31 .0697564737441254
 .997564050259824 2087121525220845e-20 25e-5 0 -.997564050259824 .06975647374412
54 54 736 1520 0 690 697 383 0 +.0011425 .00626033850487876 -.000215297466022190
5 881983911117301e-31 .0697564737441254 .997564050259824 2087121525220855e-20 25
e-5 0 -.997564050259824 .0697564737441254 14 690 1513 737 ?687 693 738 13 736 -0
 0 687 693 386 54 383 1570 0 687 736 14 0 +.0011425 .00528370139674217 .00015372
8222799882 -1058380693340762e-31 -.0697564737441254 -.997564050259824 .000356281
411877177 2e-4 0 .997564050259824 -.0697564737441254 81 1 737 4977 104 690 739 0
 695 689 740 15 738 1551 0 387 690 741 17 387 0 738 387 387 0 742 18 0 0 +15 741
 1515 0 743 690 0 17 743 0 741 743 743 0 675 673 0 0 -17 675 0 708 675 675 0 743
 673 0 0 +15 708 1488 0 675 696 0 17 742 0 744 742 742 0 387 18 0 0 -15 744 1578
 0 742 382 0 14 382 1576 745 ?746 687 747 13 14 +0 0 746 687 386 81 1 745 4979 1
04 382 748 0 689 749 750 14 746 1615 749 ?751 382 752 13 753 +0 0 751 382 386 15
 747 1577 0 754 382 744 17 754 0 747 754 754 0 680 679 0 0 -17 680 0 685 680 680
 0 754 679 0 0 +15 685 1539 0 680 684 755 14 684 1715 756 ?757 758 682 13 759 +0
 0 757 758 386 15 755 683 0 760 684 0 17 760 0 755 535 647 512 761 762 0 0 +17 5
35 0 755 547 760 521 514 763 0 545 +17 647 0 755 760 547 425 764 645 0 761 +17 7
61 0 391 439 536 425 760 762 0 0 -16 762 1158 0 ?760 541 548 765 0 0 7 16 541 12
19 0 ?392 531 762 559 0 0 7 16 548 1161 0 ?545 762 766 767 0 0 7 30 765 710 0 76
2 768 767 0 +.0002849999999999955 .004615 0 0 .997564050259824 -.069756473744125
4 30 768 1045 0 766 769 765 0 +-.002 .004615 21e-5 0 .997564050259824 -.06975647
37441254 30 767 709 0 548 765 559 0 +.002 .004615 0 0 .997564050259824 -.0697564
737441254 30 559 706 0 541 767 542 0 +.0002849999999999955 .004615 21e-5 0 .9975
64050259824 -.0697564737441254 16 766 1191 0 ?770 548 771 768 0 0 7 30 769 1046
 0 771 772 768 0 +-.0002849999999999955 .007215 281902889468727e-19 -1 -15172508
53624035e-30 0 16 771 866 0 ?773 766 774 769 0 0 7 30 772 1047 0 774 775 769 0 +
-.0002849999999999955 .004615 21e-5 0 .997564050259824 -.0697564737441254 16 774
 1201 0 ?776 771 777 772 0 0 7 30 775 1049 0 778 779 772 0 +-.002 .004615 0 0 .9
97564050259824 -.0697564737441254 16 778 1150 0 ?780 777 781 775 0 0 7 30 779 10
50 0 777 782 775 0 +-.0002849999999999955 .004615 0 0 .997564050259824 -.0697564
737441254 16 777 1147 0 ?783 774 778 779 0 0 7 31 782 1632 0 781 784 779 0 +-.00
11425 .00627777762331479 3409354654276545e-20 -881983911117301e-31 .069756473744
1254 .997564050259824 0 .997564050259824 -.0697564737441254 2087121525220855e-20
 16 781 1611 0 ?785 778 786 782 0 0 7 31 784 1633 0 786 787 782 0 +-.0011425 .00
627196458383611 -490367909788866e-19 -1058380693340762e-31 .0697564737441254 .99
7564050259824 0 .997564050259824 -.0697564737441254 .000207210213377191 16 786 1
612 0 ?788 781 789 784 0 0 7 31 787 1634 0 789 790 784 0 --.0011425 .00626731415
225317 -.000115541060996208 -1058380693340762e-31 .0697564737441254 .99756405025
9824 0 .997564050259824 -.0697564737441254 .000356281411877177 16 789 1609 0 ?79
1 786 792 787 0 0 7 31 790 1671 0 792 793 787 0 +-.0011425 .00528021357305496 .0
00103850020286891 -881983911117301e-31 .0697564737441254 .997564050259824 0 .997
564050259824 -.0697564737441254 2087121525220845e-20 16 792 1650 0 ?794 789 795
 790 0 0 7 31 793 1672 0 795 796 790 0 +-.0011425 .00527440053357629 20719682765
23885e-20 -1058380693340762e-31 .0697564737441254 .997564050259824 0 .9975640502
59824 -.0697564737441254 .000207210213377191 16 795 1651 0 ?797 792 798 793 0 0
 7 31 796 1673 0 798 799 793 0 --.0011425 .00526975010199334 -457845872520827e-1
9 -1058380693340762e-31 .0697564737441254 .997564050259824 0 .997564050259824 -.
0697564737441254 .000356281411877177 16 798 1648 0 ?800 795 801 796 0 0 7 30 799
 1864 0 801 802 796 0 +-285e-6 .00719254356862118 -.000292951641518469 0 -.06975
6473744124 -.997564050259824 16 801 1789 0 ?517 798 537 799 0 0 7 30 802 1865 0
 537 803 799 0 +.000284999999999995 .00722765151063596 .000209115320194958 -1048
234516677854e-33 .069756473744124 .997564050259824 16 537 1793 0 ?508 801 804 80
2 0 0 7 30 803 1870 0 804 805 802 0 +.002 .0072003868243992 -.000180787858270992
 1 -151788304147971e-29 1219727444046196e-31 16 804 1766 0 ?806 537 763 803 763
 763 7 30 805 1871 0 549 550 803 0 +-.002 .007215 2819028894687205e-20 0 -.06975
6473744124 -.997564050259824 16 549 1763 0 ?807 763 534 805 0 0 7 30 550 1873 0
 534 0 805 0 +.002 .007215 281902889468726e-19 0 .069756473744124 .9975640502598
24 17 807 0 720 808 770 524 511 549 0 780 +16 763 1769 0 ?535 804 549 803 804 80
4 7 15 720 1729 0 807 714 0 17 808 0 720 445 807 428 780 778 0 809 -17 770 0 720
 807 410 509 810 766 0 773 +17 511 0 811 520 526 509 807 549 0 770 -17 780 0 812
 806 430 524 808 778 0 0 +15 812 978 0 780 757 0 17 806 0 812 813 780 515 526 80
4 0 783 +17 430 0 812 780 813 428 814 643 0 808 +17 813 0 812 430 806 431 783 77
7 0 814 -17 814 0 730 442 809 431 430 643 0 0 -15 730 1292 0 809 725 0 17 442 0
 730 815 814 440 433 662 0 642 -17 809 0 730 814 815 428 445 664 0 0 -17 815 0 7
30 809 442 443 642 640 0 0 -17 445 0 720 477 808 443 809 664 0 816 +17 477 0 720
 817 445 475 816 556 0 637 +17 816 0 818 642 819 443 477 556 0 815 -15 818 124 0
 816 820 0 17 642 0 818 821 816 440 815 640 0 555 +17 819 0 818 816 822 475 474
 589 0 0 -17 822 0 818 819 823 472 471 591 0 0 -17 474 0 824 825 637 472 819 589
 0 634 +15 824 258 0 474 826 0 17 825 0 824 827 474 502 634 632 0 828 -17 637 0
 824 474 827 475 817 635 0 819 +17 634 0 829 471 828 472 825 632 0 822 +15 829 2
56 0 471 830 0 17 471 0 829 831 634 469 822 591 0 631 +17 828 0 829 634 831 502
 501 568 0 0 -17 831 0 829 828 471 499 631 629 0 832 -17 501 0 833 498 504 499 8
28 568 0 831 +15 833 424 0 562 834 0 17 498 0 833 495 501 496 832 570 0 835 +17
 504 0 833 501 506 502 827 566 0 825 +17 506 0 833 504 652 450 836 563 0 817 +17
 827 0 824 637 825 450 504 566 0 0 -17 652 0 833 506 562 419 837 650 0 836 +17 8
36 0 720 410 817 419 506 563 0 0 -17 817 0 720 836 477 450 637 635 0 827 -17 410
 0 720 770 836 406 421 653 0 810 +17 421 0 735 837 838 419 410 653 0 652 -17 810
 0 839 405 773 406 770 766 0 838 -15 839 982 0 810 729 0 17 405 0 839 776 810 39
8 838 655 0 840 +17 773 0 839 810 776 509 520 771 0 0 +17 838 0 735 421 841 406
 405 655 0 0 -15 735 1334 0 841 710 0 17 841 0 735 838 837 398 413 657 0 0 -17 8
37 0 735 841 421 411 652 650 0 0 -17 413 0 715 842 840 411 841 657 0 562 +17 842
 0 715 610 413 446 562 560 0 0 -17 840 0 715 413 722 398 776 774 0 841 -17 562 0
 833 652 480 411 842 560 0 837 +17 480 0 833 562 483 446 843 585 0 844 +17 483 0
 833 480 416 481 393 583 0 845 +17 843 0 846 613 844 481 480 585 0 0 -17 844 0 8
46 843 449 446 610 586 0 842 -15 846 238 0 449 847 0 17 449 0 846 844 613 447 84
8 564 0 610 +17 610 0 715 555 842 447 844 586 0 821 +17 555 0 715 433 610 440 82
1 553 0 0 +17 821 0 818 848 642 447 555 553 0 0 -17 848 0 818 849 821 451 449 56
4 0 0 -17 849 0 818 436 848 437 453 606 0 850 -17 436 0 818 851 849 434 850 638
 0 605 +17 453 0 391 845 439 451 849 606 0 613 +17 850 0 733 427 852 437 436 638
 0 0 -15 733 1313 0 852 728 0 17 427 0 733 764 850 425 439 666 0 647 -17 852 0 7
33 850 764 434 424 668 0 0 -17 764 0 733 852 427 422 647 645 0 0 -17 424 0 543 5
45 605 422 852 668 0 547 +17 605 0 543 424 616 434 851 603 0 852 +17 547 0 755 6
47 535 422 545 548 0 764 -17 616 0 543 605 853 454 854 614 0 851 +17 851 0 818 8
55 436 454 605 603 0 0 -17 855 0 818 856 851 457 456 601 0 0 -17 856 0 818 857 8
55 460 459 599 0 0 -17 456 0 858 854 619 454 855 601 0 616 +15 858 246 0 456 859
 0 17 854 0 858 860 456 484 616 614 0 853 -17 619 0 858 456 860 457 861 617 0 85
5 +17 860 0 858 619 854 487 486 578 0 0 -17 861 0 862 863 459 487 619 617 0 860
 -15 862 248 0 459 864 0 17 863 0 862 622 861 490 489 576 0 0 -17 459 0 862 861
 622 457 856 599 0 619 +17 622 0 862 459 863 460 865 620 0 856 +17 865 0 866 867
 462 490 622 620 0 863 -15 866 250 0 462 868 0 17 867 0 866 625 865 493 492 574
 0 0 -17 462 0 866 865 625 460 857 597 0 622 +17 625 0 866 462 867 463 869 623 0
 857 +17 857 0 818 870 856 463 462 597 0 0 -17 870 0 818 823 857 466 465 595 0 0
 -17 823 0 818 822 870 469 468 593 0 0 -17 465 0 871 869 628 463 870 595 0 625 +
15 871 252 0 465 872 0 17 869 0 871 873 465 493 625 623 0 867 -17 628 0 871 465
 873 466 835 626 0 870 +17 873 0 871 628 869 496 495 572 0 0 -17 835 0 874 832 4
68 496 628 626 0 873 -15 874 254 0 468 875 0 17 832 0 874 631 835 499 498 570 0
 0 -17 468 0 874 835 631 466 823 593 0 628 +17 631 0 874 468 832 469 831 629 0 8
23 +14 875 255 876 ?872 830 874 13 877 -0 0 872 830 386 81 1 876 4962 104 875 87
8 0 879 880 881 14 872 253 880 ?868 875 871 13 882 -0 0 868 875 386 14 830 257 8
79 ?875 826 829 13 883 -0 0 875 826 386 50 877 274 0 875 882 883 0 +-46e-5 -.005
985 21e-5 .975609756097561 .219512195121951 0 -.219512195121951 .975609756097561
 0 50 882 273 0 872 884 877 0 +-1e-4 -.007585 21e-5 0 1 0 0 0 1 50 883 275 0 830
 877 724 0 +-46e-5 -.002485 21e-5 1 0 0 0 0 -1 50 724 276 0 826 883 721 0 +-.002
 -.001085 21e-5 .672672793996312 .739940073395944 0 -.739940073395944 .672672793
996312 0 14 826 259 885 ?830 820 824 13 724 -0 0 830 820 386 81 1 885 4960 104 8
26 886 0 887 879 888 14 820 404 887 ?826 834 818 13 889 +0 0 826 834 386 81 1 88
7 4959 104 820 890 0 891 885 892 14 834 425 891 ?820 757 833 13 893 -0 0 820 757
 386 50 889 195 0 820 893 894 0 +0 0 0 0 0 -1 -1 0 0 50 893 2 0 834 895 889 0 +0
 0 21e-5 0 0 -1 -1 0 0 51 894 266 0 847 889 896 0 +0 0 21e-5 0 0 -1 .00028499999
9999996 -1 0 0 14 847 239 897 ?551 859 846 13 894 -0 0 551 859 386 50 896 267 0
 758 894 898 0 +.000284999999999995 .007215 21e-5 1 150270571377062e-31 0 -15027
0571377062e-31 1 0 14 758 1719 899 ?684 546 391 13 896 -0 0 684 546 386 50 898 2
69 0 546 896 900 0 +.002 -.001085 21e-5 -1 522507071077352e-31 0 -52250707107735
2e-31 -1 0 14 546 1725 901 ?758 714 543 13 898 -0 0 758 714 386 50 900 270 0 859
 898 902 0 +46e-5 -.002485 21e-5 -.672672793996312 .739940073395944 0 -.73994007
3395944 -.672672793996312 0 14 859 247 903 ?847 864 858 13 900 -0 0 847 864 386
 50 902 271 0 864 900 884 0 +46e-5 -.005985 21e-5 -1 0 0 0 0 1 14 864 249 904 ?8
59 868 862 13 902 -0 0 859 868 386 50 884 272 0 868 902 882 0 +1e-4 -.007585 21e
-5 -.975609756097561 .219512195121951 0 -.219512195121951 -.975609756097561 0 14
 868 251 905 ?864 872 866 13 884 -0 0 864 872 386 81 1 905 4964 104 868 906 0 88
0 904 907 81 1 906 4931 151 868 0 905 908 909 910 81 1 880 4963 104 872 911 0 87
6 905 912 81 1 904 4965 104 864 908 0 905 903 913 83 3 907 .894117647058824 .913
725490196078 .929411764705882 81 1 908 4929 151 864 0 904 914 906 915 81 1 903 4
966 104 859 914 0 904 897 916 83 3 913 .894117647058824 .913725490196078 .929411
764705882 81 1 914 4927 151 859 0 903 917 908 918 81 1 897 4967 104 847 919 0 90
3 920 921 83 3 916 .894117647058824 .913725490196078 .929411764705882 81 1 919 4
919 151 847 0 897 922 923 924 81 1 920 4968 104 551 909 0 897 925 926 83 3 921 .
894117647058824 .913725490196078 .929411764705882 14 551 687 920 ?729 847 538 13
 895 +0 0 729 847 386 81 1 909 4932 151 551 0 920 906 927 928 81 1 925 4969 104
 729 927 0 920 727 929 83 3 926 .894117647058824 .913725490196078 .9294117647058
82 14 729 979 925 ?725 551 839 13 930 +0 0 725 551 386 81 1 927 4934 151 729 0 9
25 909 931 932 81 1 727 4970 104 725 933 0 925 732 934 83 3 929 .894117647058824
 .913725490196078 .929411764705882 81 1 933 4892 151 725 0 727 935 936 937 81 1
 732 4971 104 728 936 0 727 734 938 83 3 934 .894117647058824 .913725490196078 .
929411764705882 81 1 936 4894 151 728 0 732 933 939 940 81 1 734 4972 104 710 93
9 0 732 705 941 83 3 938 .894117647058824 .913725490196078 .929411764705882 81 1
 939 4896 151 710 0 734 936 739 942 81 1 705 4973 104 702 943 0 734 701 944 83 3
 941 .894117647058824 .913725490196078 .929411764705882 81 1 943 4882 151 702 0
 705 945 717 946 83 3 944 .894117647058824 .913725490196078 .929411764705882 81
 1 945 4880 151 696 0 706 704 943 947 81 1 717 4884 151 380 0 713 943 935 948 82
 1 946 1811218644 81 1 935 4888 151 714 0 718 717 933 949 82 1 948 1968701660 81
 1 718 4953 104 714 935 0 713 901 950 82 1 949 1968177372 81 1 901 4954 104 546
 917 0 718 899 951 83 3 950 .894117647058824 .913725490196078 .929411764705882 8
1 1 917 4923 151 546 0 901 923 914 952 81 1 899 4955 104 758 923 0 901 756 953 8
3 3 951 .894117647058824 .913725490196078 .929411764705882 81 1 923 4920 151 758
 0 899 919 917 954 81 1 756 4956 104 684 955 0 899 956 957 83 3 953 .89411764705
8824 .913725490196078 .929411764705882 81 1 955 4904 151 684 0 756 958 878 959 8
1 1 956 4957 104 757 960 0 756 891 961 83 3 957 .894117647058824 .91372549019607
8 .929411764705882 14 757 1704 956 ?834 684 962 13 712 +0 0 834 684 386 81 1 960
 4946 151 757 0 956 963 964 965 81 1 891 4958 104 834 922 0 956 887 966 83 3 961
 .894117647058824 .913725490196078 .929411764705882 81 1 922 4916 151 834 0 891
 890 919 967 83 3 966 .894117647058824 .913725490196078 .929411764705882 81 1 89
0 4914 151 820 0 887 886 922 968 82 1 967 1788149972 81 1 886 4913 151 826 0 885
 969 890 970 82 1 968 1788018900 81 1 969 4911 151 830 0 879 911 886 971 82 1 97
0 1530659022 81 1 879 4961 104 830 969 0 885 876 972 81 1 911 4909 151 872 0 880
 878 969 973 82 1 971 1530396878 81 1 878 4907 151 875 0 876 955 911 974 82 1 97
3 1529872590 82 1 974 1530134734 83 3 972 .894117647058824 .913725490196078 .929
411764705882 81 1 963 4944 151 975 0 976 977 960 978 81 1 964 4948 151 979 0 980
 960 981 982 82 1 965 1962606812 14 979 1824 980 ?533 975 811 13 983 +533 533 53
3 975 386 81 1 980 4986 104 979 964 0 976 984 985 81 1 981 4950 151 533 0 984 96
4 0 986 82 1 982 1961492700 14 533 1827 984 ?0 979 529 13 983 +979 979 0 979 386
 81 1 984 4987 104 533 981 0 980 0 987 82 1 986 1961033948 83 3 987 .89411764705
8824 .913725490196078 .929411764705882 50 983 1858 0 979 0 988 0 +10956480570318
02e-32 .00717793039302037 -.000501929788736334 152269394322176e-29 .997564050259
824 -.069756473744124 0 .069756473744124 .997564050259824 54 988 1670 0 975 983
 989 0 +-.0011425 .00526277445461893 -.0001455409922780652 -881983911117301e-31
 .0697564737441254 .997564050259824 2087121525220845e-20 25e-5 0 -.9975640502598
24 .0697564737441254 14 975 1661 976 ?979 990 991 13 988 -0 0 979 990 386 54 989
 1669 0 990 988 992 0 +-.0011425 .00528370139674217 .000153728222799882 10583806
93340762e-31 -.0697564737441254 -.997564050259824 .000356281411877177 2e-4 0 .99
7564050259824 -.0697564737441254 14 990 1657 993 ?975 994 995 13 989 +0 0 975 99
4 386 50 992 1668 0 994 989 996 0 +-.0011425 .00528021357305496 .000103850020286
891 881983911117301e-31 -.0697564737441254 -.997564050259824 0 .997564050259824
 -.0697564737441254 14 994 1654 997 ?990 998 999 13 992 +0 0 990 998 386 54 996
 1631 0 998 992 1000 0 +-.0011425 .00626033850487876 -.0002152974660221905 -8819
83911117301e-31 .0697564737441254 .997564050259824 2087121525220855e-20 25e-5 0
 -.997564050259824 .0697564737441254 14 998 1622 1001 ?994 751 1002 13 996 -0 0
 994 751 386 54 1000 1630 0 751 996 753 0 +-.0011425 .00628126544700199 83971749
0557567e-19 1058380693340762e-31 -.0697564737441254 -.997564050259824 .000356281
411877177 2e-4 0 .997564050259824 -.0697564737441254 14 751 1618 1003 ?998 746 1
004 13 1000 +0 0 998 746 386 50 753 1629 0 746 1000 709 0 +-.0011425 .0062777776
2331479 340935465427654e-19 881983911117301e-31 -.0697564737441254 -.99756405025
9824 0 .997564050259824 -.0697564737441254 50 709 1457 0 696 753 703 0 +.0011425
 .00627777762331479 340935465427654e-19 -881983911117301e-31 -.0697564737441254
 -.997564050259824 0 .997564050259824 -.0697564737441254 81 1 1003 4981 104 751
 931 0 749 1001 1005 15 1004 1620 0 791 751 1006 17 791 0 1004 791 791 0 1007 78
9 0 0 +15 1006 1621 0 788 751 0 17 788 0 1006 788 788 0 1008 786 0 0 +17 1008 0
 1002 1008 1008 0 788 786 0 0 -15 1002 1624 0 1008 998 1009 15 1009 1625 0 785 9
98 0 17 785 0 1009 785 785 0 1010 781 0 0 +17 1010 0 752 1010 1010 0 785 781 0 0
 -15 752 1617 0 1010 746 0 17 1007 0 1011 1007 1007 0 791 789 0 0 -15 1011 1604
 0 1007 757 812 81 1 931 4936 151 751 0 1003 927 1012 1013 81 1 749 4980 104 746
 958 0 745 1003 1014 81 1 1001 4982 104 998 1012 0 1003 997 1015 83 3 1005 .8941
17647058824 .913725490196078 .929411764705882 81 1 1012 4938 151 998 0 1001 931
 1016 1017 81 1 997 4983 104 994 1016 0 1001 993 1018 83 3 1015 .894117647058824
 .913725490196078 .929411764705882 81 1 1016 4940 151 994 0 997 1012 977 1019 81
 1 993 4984 104 990 977 0 997 976 1020 83 3 1018 .894117647058824 .9137254901960
78 .929411764705882 81 1 977 4942 151 990 0 993 1016 963 1021 81 1 976 4985 104
 975 963 0 993 980 1022 83 3 1020 .894117647058824 .913725490196078 .92941176470
5882 83 3 1022 .894117647058824 .913725490196078 .929411764705882 82 1 1021 1934
295257 82 1 1019 1934098649 82 1 1017 1930690777 81 1 958 4902 151 746 0 749 748
 955 1023 83 3 1014 .894117647058824 .913725490196078 .929411764705882 81 1 748
 4900 151 382 0 745 739 958 1024 82 1 1023 1930166489 81 1 739 4898 151 690 0 73
7 939 748 1025 82 1 1024 1861877976 82 1 1025 1854865624 82 1 1013 1930363097 15
 999 1656 0 1026 994 0 17 1026 0 999 1026 1026 0 794 792 0 0 -17 794 0 1027 794
 794 0 1026 792 0 0 +15 1027 1664 0 794 975 0 15 995 1659 0 800 990 1028 17 800
 0 995 800 800 0 1029 798 0 0 +15 1028 1660 0 797 990 0 17 797 0 1028 797 797 0
 1030 795 0 0 +17 1030 0 991 1030 1030 0 797 795 0 0 -15 991 1663 0 1030 975 102
7 17 1029 0 962 1029 1029 0 800 798 0 0 -15 962 1643 0 1029 757 1011 83 3 985 .8
94117647058824 .913725490196078 .929411764705882 15 811 1826 0 517 979 0 17 517
 0 811 526 520 515 722 801 0 806 +17 526 0 811 511 517 524 806 804 0 807 -17 520
 0 811 517 511 518 773 771 0 722 -17 722 0 715 840 783 518 517 801 0 776 -17 783
 0 715 722 433 515 813 777 0 0 +17 776 0 839 773 405 518 840 774 0 0 +17 433 0 7
15 783 555 431 442 662 0 813 +82 1 978 1934622937 50 712 1002 0 757 703 930 0 +-
.002 .004615 0 1058380693340762e-31 -.0697564737441254 -.997564050259824 0 .9975
64050259824 -.0697564737441254 50 930 1001 0 729 712 759 0 +-.000284999999999995
5 .004615 21e-5 -105838069334077e-30 .0697564737441254 .997564050259824 0 -.9975
64050259824 .0697564737441254 50 759 700 0 684 930 895 0 +.002 .004615 0 -105838
0693340762e-31 -.0697564737441254 -.997564050259824 0 .997564050259824 -.0697564
737441254 50 895 698 0 551 759 893 0 +.0002849999999999955 .004615 21e-5 1058380
69334077e-30 .0697564737441254 .997564050259824 0 -.997564050259824 .06975647374
41254 82 1 959 1966211292 82 1 954 1967128796 82 1 952 1967653084 81 1 706 4975
 104 696 945 0 701 695 1031 81 1 704 4878 151 700 0 701 1032 945 1033 82 1 947 1
841234135 81 1 1032 4876 151 693 0 695 1034 704 1035 82 1 1033 1845231831 81 1 6
95 4976 104 693 1032 0 706 737 1036 81 1 1034 4874 151 687 0 689 0 1032 1037 82
 1 1035 1853620440 81 1 689 4978 104 687 1034 0 737 745 1038 82 1 1037 186063279
2 83 3 1038 .894117647058824 .913725490196078 .929411764705882 83 3 1036 .894117
647058824 .913725490196078 .929411764705882 83 3 1031 .894117647058824 .91372549
0196078 .929411764705882 82 1 942 1809252564 82 1 940 1807286484 82 1 937 180532
0404 82 1 932 1759969500 82 1 928 1788543196 82 1 924 1528037582 82 1 918 152908
6158 82 1 915 1529348302 83 3 912 .894117647058824 .913725490196078 .92941176470
5882 82 1 910 1529610446 15 391 1718 0 536 758 0 17 536 0 391 761 392 512 508 53
7 0 760 -17 392 0 391 536 389 478 396 541 0 530 +17 396 0 538 404 530 19 392 541
 0 400 -17 400 0 399 394 397 19 404 552 0 0 -15 399 1355 0 394 702 0 17 394 0 39
9 401 400 414 389 395 0 0 -17 401 0 399 397 394 417 416 648 0 0 -17 416 0 833 48
3 582 414 401 648 0 393 +17 582 0 833 416 486 417 853 580 0 401 +17 393 0 391 38
9 845 414 483 583 0 394 -17 845 0 391 393 453 481 613 611 0 843 -17 613 0 846 44
9 843 451 845 611 0 848 +17 486 0 833 582 489 484 860 578 0 854 +17 853 0 543 61
6 402 484 582 580 0 0 -17 402 0 543 853 544 417 397 403 0 582 +17 489 0 833 486
 492 487 863 576 0 861 +17 492 0 833 489 495 490 867 574 0 865 +17 495 0 833 492
 498 493 873 572 0 869 +83 3 892 .894117647058824 .913725490196078 .929411764705
882 83 3 888 .894117647058824 .913725490196078 .929411764705882 83 3 881 .894117
647058824 .913725490196078 .929411764705882 17 439 0 391 453 761 437 427 666 0 8
49 +17 514 0 529 508 523 512 535 763 0 536 -83 3 750 .894117647058824 .913725490
196078 .929411764705882 83 3 740 .894117647058824 .913725490196078 .929411764705
882 83 3 719 .894117647058824 .913725490196078 .929411764705882 83 3 707 .894117
647058824 .913725490196078 .929411764705882 19 381 295 0 7 0 17 13 S0 74 20 379
 3 0 0 981 984 10 0 0 0 0 0 0 0 0 0 0 0 0 0 0 0 0 0 84 36 378 Hailei New Energy
 -CR123A-2PT - cont74 20 6 1 0 0 2 0 0 0 0 0 0 0 0 0 0 0 0 0 0 0 0 0 0 0 1 0 
