**ABCDEFGHIJKLMNOPQRSTUVWXYZabcdefghijklmnopqrstuvwxyz**************************
**PARASOLID !"#$%&'()*+,-./:;<=>?@[\]^_`{|}~0123456789**************************
**PART1;
MC=AMD64;
MC_MODEL=Intel64 Family 6 Model 15 Stepping 13, GenuineIntel;
MC_ID=unknown;
OS=Windows_NT;
OS_RELEASE=unknown;
FRU=Parasolid Version 30.0, build 310,  6- 8-2018;
APPL=SOLIDWORKS 2018-2018211;
SITE=;
USER=unknown;
FORMAT=text;
GUISE=transmit;
KEY=User Library-LED_0603_G;
FILE=User Library-LED_0603_G.x_t;
DATE=Fri Aug  2 22:47:20 2019;
**PART2;
SCH=SCH_3000310_30000;
USFLD_SIZE=0;
**PART3;
**END_OF_HEADER*****************************************************************
T51 : TRANSMIT FILE created by modeller version 300031023 SCH_3000310_30000_1300
6205 0 10 19 CCCCCCCI4 mesh1006 0 I8 polyline1008 0 CCCCCCCCCCZ1 11 2 3 0 0 0 0
 0 0 0 1e3 1e-8 0 0 0 1 0 1 4 81 255 1 2 11 5 1 0 0 0 0 0 70 11 CI9 list_type0 0
 1 uI10 notransmit0 0 1 lCCCDCCDI12 finger_index0 0 1 dI12 finger_block1012 0 CZ
3 0 4 T1 0 0 1 20 1 6 6 11 255 4 9 0 1 7 8 1 9 0 0 0 12 33 CCCCCCI4 mesh1006 0 I
8 polyline1008 0 CCCCCCCDI5 owner1040 0 CCCCCCI13 boundary_mesh1006 0 I17 bounda
ry_polyline1008 0 CCCA16 index_map_offset0 0 1 dA9 index_map82 0 A17 node_id_ind
ex_map82 0 A20 schema_embedding_map82 0 A5 child12 0 A14 lowest_node_id0 0 1 dZ7
 206 10 11 0 0 0 0 0 0 1e3 1e-8 4 12 0 1 0 1 1 13 14 15 16 0 0 17 18 19 0 0 0 0
 0 0 100 255 8 10 4 0 0 1 0 0 0 1 0 0 0 1 0 0 0 1 0 ?11 9 7 0 1 12 20 1 21 4 0 0
 12 12 391 22 23 0 0 0 0 0 0 1e3 1e-8 9 24 7 1 0 1 1 25 26 27 28 0 0 29 30 31 0
 0 0 0 0 0 100 20 8 9 0 0 1 0 0 0 1 0 0 0 1 0 0 0 1 0 ?11 21 5 0 1 24 32 1 33 9
 0 0 12 24 511 34 35 0 0 0 0 0 0 1e3 1e-8 21 36 12 1 0 1 1 37 38 39 40 0 0 41 42
 43 0 0 0 0 0 0 100 32 6 21 0 0 1 0 0 0 1 0 0 0 1 0 0 0 1 0 ?11 33 3 0 1 36 44 1
 45 21 0 0 12 36 1979 46 47 0 0 0 0 0 0 1e3 1e-8 33 48 24 1 0 1 1 49 50 51 52 0
 0 53 54 55 0 0 0 0 0 0 100 44 4 33 0 0 1 0 0 0 -1 0 0 0 -1 0 0 0 1 2 ?11 45 1 0
 1 48 56 1 0 33 0 0 12 48 477 57 58 0 0 0 0 0 0 1e3 1e-8 45 59 36 1 0 3 1 60 61
 62 63 0 0 64 65 66 0 0 0 0 0 0 100 56 2 45 0 0 1 0 0 0 1 0 0 0 1 0 0 0 1 0 ?81
 1 57 477 5 48 0 0 0 0 67 70 58 0 4 T48 0 0 3 20 1 68 68 13 255 60 3 0 48 0 69 0
 0 64 69 51 255 61 363 0 70 71 0 0 +-7e-4 -3e-4 2e-4 0 0 1 4e-5 1 0 0 31 255 62
 398 0 72 73 0 0 --7e-4 -3e-4 2e-4 0 0 1 1 0 0 4e-5 29 255 63 395 0 74 75 0 -8e-
4 2e-4 2e-4 19 8 CCCCCCCA5 owner12 0 Z64 5 0 48 0 0 60 V0 16 255 65 33 0 ?76 0 7
7 78 0 0 48 18 255 66 29 0 79 0 80 81 ?48 17 255 79 0 82 83 84 66 85 86 0 87 +18
 80 25 0 88 66 89 90 206155281280883e-22 48 29 81 49 0 66 0 91 -4e-4 -4e-4 0 29
 91 309 0 92 81 90 -4e-4 4e-4 0 18 92 7 0 93 94 95 91 206155281280883e-22 48 29
 90 310 0 80 91 96 -8e-4 -4e-4 0 29 96 319 0 95 90 97 -4e-4 -4e-4 2e-4 18 95 71
 0 98 92 99 96 206155281280883e-22 48 29 97 327 0 100 96 101 -8e-4 -4e-4 2e-4 18
 100 92 0 102 99 103 97 206155281280883e-22 48 29 101 346 0 94 97 104 -8e-4 4e-4
 0 18 94 9 0 105 106 92 101 206155281280883e-22 48 29 104 350 0 99 101 107 -4e-4
 4e-4 2e-4 18 99 72 0 108 95 100 104 206155281280883e-22 48 29 107 351 0 109 104
 110 -8e-4 4e-4 2e-4 18 109 205 0 111 74 0 107 206155281280883e-22 48 29 110 385
 0 89 107 112 -8e-4 -2e-4 0 18 89 21 0 113 80 106 110 ?48 29 112 388 0 106 110 7
5 -8e-4 2e-4 0 18 106 13 0 114 89 94 112 ?48 29 75 392 0 103 112 63 -8e-4 -2e-4
 2e-4 18 103 112 0 115 100 74 75 ?48 17 115 0 116 117 102 103 118 119 0 120 +18
 74 178 0 117 103 109 63 ?48 17 117 0 116 111 115 74 120 121 0 122 -15 255 116 2
65 0 102 123 0 17 111 0 116 108 117 109 122 124 0 125 +17 120 0 126 127 128 103
 117 121 0 129 +16 121 143 0 ?120 119 130 73 0 0 48 17 122 0 131 114 132 74 111
 124 0 128 -15 131 200 0 122 133 0 17 114 0 131 134 122 106 128 130 0 135 -17 13
2 0 131 122 134 109 105 136 0 0 -16 124 202 0 ?111 136 137 138 0 0 48 17 128 0 1
26 120 135 74 114 130 0 0 +15 126 140 0 127 139 0 17 135 0 126 128 127 106 113 1
40 0 141 -16 130 171 0 ?128 121 136 142 0 0 48 16 136 201 0 ?105 130 124 143 0 0
 48 30 255 142 194 0 130 144 143 0 +-8e-4 2e-4 2e-4 0 0 1 30 144 135 0 48 145 14
2 146 +-8e-4 -4e-4 0 0 0 -1 133 255 143 224 0 136 142 147 0 +147 -8e-4 4e-4 2e-4
 -8e-4 4e-4 0 2e-4 0 30 147 225 0 48 143 148 149 --8e-4 4e-4 0 0 0 1 133 148 226
 0 150 147 151 0 +151 -4e-4 4e-4 0 -8e-4 4e-4 0 4e-4 0 141 255 149 143 149 149 1
47 16 150 10 0 ?152 153 86 148 0 0 48 30 151 227 0 48 148 154 155 --8e-4 4e-4 0
 1 0 0 133 154 257 0 156 151 157 0 +157 -4e-4 4e-4 0 -4e-4 4e-4 2e-4 0 -2e-4 141
 155 148 155 155 151 16 156 69 0 ?158 159 160 154 0 0 48 30 157 258 0 48 154 78
 161 --4e-4 4e-4 0 0 0 -1 133 78 259 0 65 157 162 0 +162 -4e-4 -4e-4 0 -4e-4 4e-
4 0 -8e-4 0 141 161 154 161 161 157 30 162 260 0 48 78 163 164 +-4e-4 4e-4 0 0 1
 0 133 163 303 0 137 162 165 0 +165 -8e-4 4e-4 2e-4 -4e-4 4e-4 2e-4 0 4e-4 141 1
64 78 164 164 162 16 137 234 0 ?108 124 72 163 0 0 48 30 165 304 0 48 163 166 16
7 +-8e-4 4e-4 2e-4 1 0 0 133 166 307 0 159 165 168 0 +168 -4e-4 4e-4 2e-4 -4e-4
 -4e-4 2e-4 0 -8e-4 141 167 163 167 167 165 16 159 68 0 ?98 86 156 166 0 0 48 30
 168 308 0 48 166 169 170 --4e-4 4e-4 2e-4 0 1 0 133 169 312 0 119 168 171 0 +17
1 -8e-4 -4e-4 2e-4 -8e-4 -2e-4 2e-4 0 2e-4 141 170 166 170 170 168 16 119 109 0
 ?115 172 121 169 0 0 48 30 171 313 0 48 169 173 174 +-8e-4 -4e-4 2e-4 0 1 0 133
 173 314 0 175 171 176 0 +176 -4e-4 -4e-4 2e-4 -8e-4 -4e-4 2e-4 0 -4e-4 141 174
 169 174 174 171 16 175 89 0 ?102 160 172 173 0 0 48 30 176 315 0 48 173 177 178
 --4e-4 -4e-4 2e-4 1 0 0 133 177 320 0 86 176 179 0 +179 -4e-4 -4e-4 2e-4 -4e-4
 -4e-4 0 -2e-4 0 141 178 173 178 178 176 16 86 67 0 ?79 150 159 177 0 0 48 30 17
9 321 0 48 177 138 180 +-4e-4 -4e-4 0 0 0 -1 133 138 338 0 124 179 181 0 +181 -8
e-4 2e-4 2e-4 -8e-4 4e-4 2e-4 6e-4 8e-4 141 180 177 180 180 179 30 181 339 0 48
 138 182 183 +-8e-4 -4e-4 2e-4 0 1 0 31 182 366 0 184 181 185 0 +-7e-4 -3e-4 18e
-5 0 0 1 1 0 0 4e-5 141 183 138 183 183 181 16 184 358 0 ?186 72 0 182 0 0 48 31
 185 387 0 140 182 73 0 --8e-4 0 0 0 0 1 1 0 0 2e-4 16 140 18 0 ?113 187 153 185
 0 0 48 31 73 391 0 121 185 62 0 --8e-4 0 2e-4 0 0 1 1 0 0 2e-4 17 113 0 188 189
 141 89 135 140 0 127 +16 187 26 0 ?189 77 140 190 0 0 48 16 153 14 0 ?141 140 1
50 191 0 0 48 17 141 0 188 113 152 106 134 153 0 0 +133 191 53 0 153 192 193 0 +
193 -8e-4 4e-4 0 -8e-4 2e-4 0 0 -2e-4 30 192 51 0 48 190 191 194 --8e-4 4e-4 0 0
 1 0 30 193 54 0 48 191 195 196 --8e-4 4e-4 0 0 1 0 30 195 128 0 172 193 197 0 -
-8e-4 -2e-4 0 0 0 1 141 196 191 196 196 193 16 172 108 0 ?127 175 119 195 0 0 48
 133 197 132 0 77 195 198 0 +198 -8e-4 -4e-4 0 -4e-4 -4e-4 0 0 4e-4 16 77 30 0 ?
199 65 187 197 0 0 48 30 198 133 0 48 197 145 200 +-8e-4 -4e-4 0 1 0 0 133 145 1
34 0 160 198 144 0 +144 -8e-4 -4e-4 2e-4 -8e-4 -4e-4 0 -2e-4 0 141 200 197 200 2
00 198 16 160 88 0 ?88 156 175 145 0 0 48 17 88 0 201 202 118 80 203 160 0 83 +1
5 201 107 0 118 204 0 17 202 0 201 129 88 89 189 187 0 0 -17 118 0 201 88 129 10
0 115 119 0 203 -17 203 0 82 84 83 100 88 160 0 0 -17 83 0 82 203 79 80 199 77 0
 189 -15 82 86 0 203 205 0 17 199 0 188 76 189 66 83 77 0 0 +17 189 0 188 199 11
3 80 202 187 0 0 +15 188 8 0 199 69 0 14 255 69 2 206 1e-8 207 0 188 60 208 +0 0
 207 0 60 81 1 206 459 209 69 210 0 0 211 212 14 207 63 211 1e-8 205 69 213 60 2
14 -0 0 205 69 60 50 255 208 6 0 69 0 214 0 +-8e-4 4e-4 0 0 0 1 1 0 0 50 214 74
 0 207 208 215 0 +-4e-4 4e-4 0 1 0 0 0 0 -1 50 215 95 0 205 214 216 0 +-4e-4 -4e
-4 0 0 -1 0 0 0 -1 14 205 84 217 1e-8 204 207 82 60 215 -0 0 204 207 60 50 216 1
16 0 204 215 218 0 +-8e-4 -4e-4 0 -1 0 0 0 0 1 14 204 105 219 1e-8 139 205 201 6
0 216 -0 0 139 205 60 51 218 149 0 139 216 220 0 +-8e-4 0 2e-4 0 0 1 2e-4 1 0 0
 14 139 138 221 1e-8 133 204 126 60 218 +0 0 133 204 60 50 220 209 0 133 218 222
 0 +-8e-4 -4e-4 0 -1 0 0 0 0 1 14 133 198 223 1e-8 224 139 131 60 220 -0 0 224 1
39 60 50 222 240 0 224 220 71 0 +-8e-4 4e-4 0 0 1 0 0 0 1 14 224 229 225 1e-8 12
3 133 226 60 222 -0 0 123 133 60 50 71 281 0 123 222 61 0 +-8e-4 4e-4 2e-4 0 0 1
 1 0 0 14 123 262 227 1e-8 70 224 228 60 71 -0 0 70 224 60 81 1 227 473 209 123
 229 0 225 230 231 14 70 355 230 1e-8 0 123 232 60 61 +0 0 0 123 60 15 228 264 0
 233 123 116 17 233 0 228 233 233 0 234 72 0 0 -17 234 0 235 234 234 0 233 72 0
 0 +16 72 266 0 ?234 137 184 62 0 0 48 15 235 357 0 234 70 0 81 1 230 475 209 70
 236 0 227 0 237 15 232 404 0 186 70 235 17 186 0 232 186 186 0 238 184 0 0 +17
 238 0 0 0 0 0 186 184 0 0 -80 255 1 209 239 240 9000 1 1 1 1 1 1 1 1 0 FFFFTFTF
FFFFFF1 81 1 236 440 241 70 0 230 229 0 242 82 255 1 237 999999 80 1 241 0 243 8
001 0 0 0 0 3 5 0 0 0 FFFFTFTFFFFFFF2 81 1 229 439 241 123 0 227 244 236 245 83
 255 3 242 .780392156862745 .568627450980392 .1137254901960784 81 1 244 438 241
 224 0 225 246 229 247 83 3 245 .780392156862745 .568627450980392 .1137254901960
784 81 1 225 471 209 224 244 0 223 227 248 81 1 246 437 241 133 0 223 249 244 25
0 83 3 247 .780392156862745 .568627450980392 .1137254901960784 81 1 223 469 209
 133 246 0 221 225 251 81 1 249 436 241 139 0 221 252 246 253 83 3 250 .78039215
6862745 .568627450980392 .1137254901960784 81 1 221 467 209 139 249 0 219 223 25
4 81 1 252 435 241 204 0 219 255 249 256 83 3 253 .780392156862745 .568627450980
392 .1137254901960784 81 1 219 465 209 204 252 0 217 221 257 81 1 255 434 241 20
5 0 217 258 252 259 83 3 256 .780392156862745 .568627450980392 .1137254901960784
 81 1 217 463 209 205 255 0 211 219 260 81 1 258 433 241 207 0 211 210 255 261 8
3 3 259 .780392156862745 .568627450980392 .1137254901960784 81 1 211 461 209 207
 258 0 206 217 262 81 1 210 432 241 69 0 206 0 258 263 83 3 261 .780392156862745
 .568627450980392 .1137254901960784 83 3 263 .780392156862745 .568627450980392 .
1137254901960784 82 1 262 999999 82 1 260 999999 82 1 257 999999 82 1 254 999999
 82 1 251 999999 82 1 248 999999 79 255 15 243 SDL/TYSA_COLOUR79 14 240 SWEntUnc
hanged82 1 231 999999 15 226 231 0 158 224 0 17 158 0 226 125 93 99 264 156 0 26
5 +17 125 0 226 105 158 109 108 137 0 132 -17 93 0 226 158 105 92 152 150 0 264
 -17 264 0 213 87 265 92 158 156 0 76 -17 265 0 213 264 85 99 98 159 0 0 -15 213
 65 0 85 207 0 17 85 0 213 265 87 95 79 86 0 0 -17 98 0 116 102 108 95 265 159 0
 84 +17 102 0 116 115 98 100 84 175 0 118 +17 108 0 116 98 111 99 125 137 0 158
 +17 84 0 82 79 203 95 102 175 0 85 -17 87 0 213 85 264 66 76 65 0 199 -17 76 0
 188 152 199 92 87 65 0 0 +17 152 0 188 141 76 94 93 150 0 0 +17 105 0 226 93 12
5 94 132 136 0 134 +17 134 0 131 132 114 94 141 153 0 152 -82 1 212 999999 17 12
9 0 201 118 202 103 127 172 0 0 -17 127 0 126 135 120 89 129 172 0 202 +133 190
 50 0 187 0 192 0 +192 -8e-4 -2e-4 0 -8e-4 -4e-4 0 -6e-4 -8e-4 141 194 190 194 1
94 192 141 146 145 146 146 144 74 4 CI16 index_map_offset0 0 1 dCCZ20 68 3 0 0 2
36 230 57 0 0 0 0 0 0 0 0 0 0 0 0 0 0 0 0 0 80 1 5 266 267 8017 0 0 0 0 0 0 0 0
 0 TTTTTTTTTTTTTF3 84 255 33 67 User Library-LED_0603_R_Pocket00279 13 267 SDL/T
YSA_NAME81 1 46 1979 5 36 0 0 0 0 268 70 47 0 4 T36 0 0 3 20 1 269 269 13 49 408
 0 36 0 270 0 0 271 0 50 50 339 0 270 272 0 0 +2e-4 4e-4 2e-6 0 1224646799147e-2
8 1 0 -1 1224646799147e-28 30 51 424 0 273 274 0 0 +-2e-4 -1e-4 1224646799147e-3
2 0 -1224646799147e-28 -1 29 52 426 0 275 276 0 -2e-4 -1e-4 1224646799146e-32 19
 53 409 0 36 271 0 277 V0 16 54 37 0 ?278 0 279 280 0 0 36 18 55 33 0 281 0 282
 283 ?36 17 281 0 284 278 285 55 286 287 0 288 +18 282 29 0 289 55 290 291 ?36 2
9 283 414 0 55 292 293 2e-4 -4e-4 4898587196587e-32 29 292 413 0 294 295 283 2e-
4 -4e-4 2e-6 29 293 417 0 296 283 291 0 -4e-4 2e-6 18 296 120 0 297 298 299 293
 ?36 29 291 418 0 282 293 300 0 -4e-4 4898587196587e-32 29 300 421 0 299 291 301
 0 -1e-4 2e-6 18 299 149 0 302 296 303 300 ?36 29 301 422 0 290 300 276 0 -1e-4
 1224646799146e-32 18 290 25 0 304 282 275 301 ?36 29 276 425 0 303 301 52 -2e-4
 -1e-4 2e-6 18 303 178 0 305 299 306 276 ?36 17 305 0 307 308 309 303 310 311 0
 312 +18 306 207 0 313 303 314 315 206155281280883e-22 36 17 313 0 316 317 318 3
06 312 319 0 320 +18 314 238 0 321 306 322 323 2061552812810145e-23 36 29 315 39
4 0 306 324 325 -2e-4 1e-4 2e-6 29 324 386 0 326 327 315 -2e-4 1e-4 -12246467991
48e-32 29 325 401 0 328 315 323 -578241158659e-33 1e-4 -1224646799148e-32 18 328
 13 0 329 326 330 325 206155281281015e-22 36 29 323 402 0 314 325 331 -173472347
5977e-33 1e-4 2e-6 29 331 405 0 330 323 332 -578241158659e-33 4e-4 -489858719658
9e-32 18 330 9 0 333 328 334 331 2061552812808945e-23 36 29 332 406 0 322 331 29
5 -1156482317318e-33 4e-4 2e-6 18 322 269 0 335 314 0 332 2061552812808945e-23 3
6 29 295 407 0 298 332 292 2e-4 4e-4 2e-6 18 298 87 0 336 294 296 295 2061552812
80883e-22 36 17 336 0 337 338 339 298 335 340 0 341 -18 294 86 0 285 334 298 292
 ?36 17 285 0 284 281 341 294 342 343 0 344 +18 334 7 0 345 330 294 327 20615528
1280883e-22 36 17 345 0 346 288 347 334 348 349 0 338 -29 327 367 0 334 0 324 2e
-4 4e-4 -4898587196589e-32 15 346 8 0 350 351 0 17 288 0 346 350 345 55 278 54 0
 352 -17 347 0 346 345 353 330 354 355 0 348 -17 348 0 337 339 338 330 345 349 0
 0 +16 349 10 0 ?348 355 287 356 0 0 36 17 338 0 337 348 336 334 341 357 0 278 -
15 337 291 0 339 358 0 17 341 0 284 285 278 298 338 357 0 342 +16 357 84 0 ?341
 343 359 360 0 0 36 17 278 0 284 341 281 334 288 54 0 0 +15 284 80 0 281 361 0 1
4 361 78 362 1e-8 351 363 284 49 364 +0 0 363 351 277 81 1 362 1959 209 361 365
 0 0 366 367 14 351 2 366 1e-8 0 361 346 49 368 -0 0 361 0 277 14 363 112 369 1e
-8 361 370 371 49 372 +0 0 370 361 277 50 364 89 0 361 368 372 0 +2e-4 4e-4 -489
8587196589e-32 1 0 0 0 0 -1 13 277 3 0 0 0 0 0 0 53 351 50 368 6 0 351 0 364 0 +
2e-4 4e-4 -4898587196589e-32 0 1224646799147e-28 1 0 -1 1224646799147e-28 50 372
 123 0 363 364 373 0 +2e-4 -4e-4 4898587196589e-32 0 -1 1224646799147e-28 0 -122
4646799147e-28 -1 50 373 152 0 370 372 374 0 +0 -4e-4 4898587196589e-32 -1 0 0 0
 0 1 14 370 141 375 1e-8 363 376 377 49 373 +0 0 376 363 277 50 374 181 0 376 37
3 378 0 +0 -1e-4 1224646799147e-32 0 -1 1224646799147e-28 0 -1224646799147e-28 -
1 14 376 170 379 1e-8 370 380 307 49 374 +0 0 380 370 277 50 378 210 0 380 374 3
81 0 +-2e-4 -1e-4 1224646799147e-32 -1 0 0 0 0 1 14 380 199 382 1e-8 376 383 316
 49 378 +0 0 383 376 277 50 381 240 0 383 378 384 0 +-1734723475977e-33 1e-4 -12
24646799147e-32 0 -1 1224646799147e-28 0 -1224646799147e-28 -1 14 383 229 385 1e
-8 380 386 387 49 381 -0 0 386 380 277 50 384 271 0 386 381 272 0 +-173472347597
7e-33 4e-4 -4898587196589e-32 1 0 0 0 0 -1 14 386 260 388 1e-8 383 358 389 49 38
4 -0 0 358 383 277 50 272 300 0 358 384 50 0 +2e-4 4e-4 -4898587196589e-32 0 -1
 1224646799147e-28 0 -1224646799147e-28 -1 14 358 289 390 1e-8 386 270 337 49 27
2 -0 0 270 386 277 81 1 390 1975 209 358 391 0 388 392 393 14 270 320 392 1e-8 3
58 0 394 49 50 +0 0 0 358 277 81 1 392 1977 209 270 395 0 390 0 396 15 394 322 0
 344 270 0 17 344 0 394 342 397 294 297 398 0 286 -17 342 0 394 335 344 298 285
 343 0 0 -17 397 0 394 344 310 296 302 399 0 400 -17 297 0 371 289 286 296 344 3
98 0 397 +16 398 117 0 ?297 359 401 402 0 0 36 17 286 0 371 297 352 294 281 287
 0 0 -15 371 114 0 289 363 0 17 352 0 371 286 289 55 350 279 0 0 +16 287 82 0 ?2
81 349 343 403 0 0 36 16 343 83 0 ?285 287 357 404 0 0 36 30 403 412 0 287 405 4
06 0 +2e-4 -4e-4 -4898587196589e-32 0 0 -1 30 405 399 0 36 407 403 408 --1734723
475977e-33 4e-4 2e-6 0 1 0 30 406 416 0 359 403 274 0 +0 -4e-4 4898587196589e-32
 0 -1224646799147e-28 -1 16 359 116 0 ?289 357 398 406 0 0 36 30 274 420 0 401 4
06 51 0 -0 -1e-4 4898587196589e-32 0 0 1 16 401 145 0 ?304 398 399 274 0 0 36 17
 304 0 377 409 302 290 309 401 0 410 +16 399 146 0 ?302 401 273 411 0 0 36 17 30
2 0 377 304 400 299 397 399 0 310 +16 273 174 0 ?308 399 311 51 0 0 36 30 411 15
3 0 399 412 413 0 +0 -4e-4 2e-6 0 1 0 30 412 137 0 414 402 411 0 +0 4e-4 -489858
7196589e-32 0 -1 1224646799147e-28 30 413 166 0 415 411 416 0 +2e-4 -1e-4 122464
6799146e-32 1 0 0 16 415 26 0 ?417 414 418 413 0 0 36 30 416 182 0 311 413 419 0
 -0 -1e-4 2e-6 1 0 0 16 311 175 0 ?305 273 420 416 0 0 36 133 419 194 0 418 416
 421 0 +421 -2e-4 1e-4 -1224646799148e-32 -2e-4 -1e-4 1224646799146e-32 3e-4 5e-
4 16 418 22 0 ?422 415 423 419 0 0 36 30 421 195 0 36 419 424 425 +-2e-4 4e-4 -4
898587196589e-32 0 -1 1224646799147e-28 133 424 212 0 319 421 426 0 +426 -2e-4 -
1e-4 2e-6 -2e-4 1e-4 2e-6 0 2e-4 141 425 419 425 425 421 16 319 204 0 ?313 420 4
27 424 0 0 36 30 426 211 0 36 424 428 429 +-2e-4 -1e-4 2e-6 0 1 0 133 428 224 0
 420 426 430 0 +430 -2e-4 1e-4 2e-6 -2e-4 1e-4 -1224646799148e-32 2e-6 -24492935
98295e-32 141 429 424 429 429 426 16 420 203 0 ?317 311 319 428 0 0 36 30 430 22
5 0 36 428 431 432 --2e-4 1e-4 1224646799147e-32 0 0 1 133 431 226 0 423 430 433
 0 +433 0 1e-4 -1224646799148e-32 -2e-4 1e-4 -1224646799148e-32 -2e-4 -4e-4 141
 432 428 432 432 430 16 423 18 0 ?434 418 355 431 0 0 36 30 433 227 0 36 431 435
 436 -2e-4 1e-4 -1224646799148e-32 1 0 0 133 435 255 0 437 433 438 0 +438 -17347
23475977e-33 1e-4 -1224646799148e-32 -1734723475977e-33 1e-4 2e-6 10004303281430
26e-47 -2e-6 141 436 431 436 436 433 16 437 235 0 ?439 427 440 435 0 0 36 30 438
 256 0 36 435 441 442 --1734723475977e-33 1e-4 -1224646799147e-32 0 -12246467991
47e-28 -1 133 441 257 0 355 438 443 0 +443 0 4e-4 -4898587196589e-32 0 1e-4 -122
4646799148e-32 0 3e-4 141 442 435 442 442 438 16 355 14 0 ?354 423 349 441 0 0 3
6 30 443 258 0 36 441 444 445 +0 4e-4 -4898587196589e-32 0 -1 1224646799147e-28
 133 444 286 0 446 443 447 0 +447 -1734723475977e-33 4e-4 -4898587196589e-32 -17
34723475977e-33 4e-4 2e-6 0 -200000000000005e-20 141 445 441 445 445 443 16 446
 266 0 ?339 440 340 444 0 0 36 30 447 287 0 36 444 448 449 --1734723475977e-33 4
e-4 -4898587196589e-32 0 0 -1 133 448 364 0 340 447 450 0 +450 2e-4 4e-4 2e-6 0
 4e-4 2e-6 0 -2e-4 141 449 444 449 449 447 16 340 294 0 ?335 446 0 448 0 0 36 30
 450 365 0 36 448 451 452 -2e-4 4e-4 2e-6 1 0 0 133 451 388 0 427 450 453 0 +453
 -1734723475977e-33 1e-4 2e-6 -2e-4 1e-4 2e-6 0 -2e-4 141 452 448 452 452 450 16
 427 234 0 ?320 319 437 451 0 0 36 30 453 389 0 36 451 407 454 --1734723475977e-
33 1e-4 2e-6 1 0 0 133 407 398 0 440 453 405 0 +405 -1734723475977e-33 4e-4 2e-6
 -1734723475977e-33 1e-4 2e-6 0 -3e-4 141 454 451 454 454 453 16 440 265 0 ?321
 437 446 407 0 0 36 17 321 0 394 320 335 314 455 440 0 456 +17 320 0 394 312 321
 306 456 427 0 457 +17 335 0 394 321 342 322 336 340 0 455 +17 455 0 389 333 439
 322 321 440 0 339 -17 456 0 387 329 457 314 320 427 0 439 -15 387 231 0 457 383
 0 17 329 0 387 434 456 328 439 437 0 353 -17 457 0 387 456 434 306 317 420 0 0
 -17 439 0 389 455 354 314 329 437 0 0 +15 389 262 0 439 386 0 17 354 0 389 439
 333 328 347 355 0 0 +17 333 0 389 354 455 330 339 446 0 347 -17 339 0 337 336 3
48 322 333 446 0 0 +17 434 0 387 457 329 326 353 423 0 0 +17 317 0 316 422 313 3
26 457 420 0 458 +15 316 201 0 317 380 0 17 422 0 316 318 317 275 458 418 0 0 +1
8 326 17 0 317 275 328 324 2061552812810145e-23 36 17 458 0 346 353 459 326 422
 418 0 434 -17 353 0 346 347 458 328 434 423 0 354 -17 459 0 346 458 410 275 417
 415 0 422 -17 410 0 346 459 350 290 409 414 0 417 -18 275 21 0 308 290 326 52 ?
36 17 417 0 307 309 308 290 459 415 0 0 +15 307 172 0 308 376 0 17 309 0 307 305
 417 299 304 401 0 0 -17 308 0 307 417 305 275 318 273 0 459 +17 318 0 316 313 4
22 303 308 273 0 0 -17 350 0 346 410 288 282 352 279 0 409 -17 409 0 377 400 304
 282 410 414 0 0 +16 414 30 0 ?409 279 415 412 0 0 36 16 279 34 0 ?352 54 414 46
0 0 0 36 30 460 102 0 279 461 280 0 +2e-4 -4e-4 4898587196587e-32 1 0 0 30 461 9
1 0 36 404 460 462 -2e-4 4e-4 2e-6 0 1 0 133 280 103 0 54 460 463 0 +463 2e-4 -4
e-4 4898587196587e-32 2e-4 4e-4 -4898587196589e-32 8e-4 0 30 463 104 0 36 280 36
0 464 -2e-4 4e-4 -4898587196589e-32 0 -1 1224646799147e-28 133 360 106 0 357 463
 465 0 +465 2e-4 4e-4 -4898587196589e-32 2e-4 4e-4 2e-6 0 -200000000000005e-20 1
41 464 280 464 464 463 30 465 107 0 36 360 356 466 -2e-4 4e-4 -4898587196589e-32
 0 0 -1 133 356 108 0 349 465 467 0 +467 2e-4 4e-4 -4898587196589e-32 0 4e-4 -48
98587196589e-32 0 -2e-4 141 466 360 466 466 465 30 467 109 0 36 356 402 468 -2e-
4 4e-4 -4898587196589e-32 1 0 0 30 402 124 0 398 467 412 0 -2e-4 -4e-4 2e-6 1 0
 0 141 468 356 468 468 467 133 404 92 0 343 0 461 0 +461 2e-4 4e-4 2e-6 2e-4 -4e
-4 2e-6 0 -8e-4 141 462 404 462 462 461 15 377 143 0 304 370 0 17 400 0 377 302
 409 296 289 359 0 0 -17 289 0 371 352 297 282 400 359 0 350 +17 312 0 394 310 3
20 303 313 319 0 318 -17 310 0 394 397 312 299 305 311 0 309 -141 408 407 408 40
8 405 81 1 395 455 241 270 0 392 0 391 469 82 1 396 999999 81 1 391 456 241 358
 0 390 395 470 471 83 3 469 0 .666666666666667 0 81 1 470 457 241 386 0 388 391
 472 473 83 3 471 0 .666666666666667 0 81 1 388 1973 209 386 470 0 385 390 474 8
1 1 472 458 241 383 0 385 470 475 476 83 3 473 0 .666666666666667 0 81 1 385 197
1 209 383 472 0 382 388 477 81 1 475 459 241 380 0 382 472 478 479 83 3 476 0 .6
66666666666667 0 81 1 382 1969 209 380 475 0 379 385 480 81 1 478 460 241 376 0
 379 475 481 482 83 3 479 0 .666666666666667 0 81 1 379 1967 209 376 478 0 375 3
82 483 81 1 481 461 241 370 0 375 478 484 485 83 3 482 0 .666666666666667 0 81 1
 375 1965 209 370 481 0 369 379 486 81 1 484 462 241 363 0 369 481 365 487 83 3
 485 0 .666666666666667 0 81 1 369 1963 209 363 484 0 366 375 488 81 1 365 463 2
41 361 0 362 484 489 490 83 3 487 0 .666666666666667 0 81 1 489 464 241 351 0 36
6 365 0 491 83 3 490 0 .666666666666667 0 81 1 366 1961 209 351 489 0 362 369 49
2 83 3 491 0 .666666666666667 0 82 1 492 999999 82 1 488 999999 82 1 486 999999
 82 1 483 999999 82 1 480 999999 82 1 477 999999 82 1 474 999999 82 1 393 999999
 82 1 367 999999 19 271 5 0 36 0 53 49 S0 74 20 269 3 0 0 489 392 46 0 0 0 0 0 0
 0 0 0 0 0 0 0 0 0 0 0 84 30 268 User Library-LED_0603_R_Pad00481 1 34 511 5 24
 0 0 0 0 493 70 35 0 4 T24 0 0 3 20 1 494 494 13 37 382 0 24 0 495 0 0 496 0 50
 38 351 0 495 497 0 0 +-5e-4 35e-5 6e-4 0 0 1 1 0 0 32 255 39 406 0 498 499 0 0
 --.000451640950777 -.000301640950777 58e-5 -.707106781186548 .707106781186548 0
 -.707106781186548 -.707106781186548 0 282842712474619e-19 2e-5 29 40 408 0 500
 501 0 -.000471567883757846 -.0003215678837576905 .000581708022826973 19 41 383
 0 24 496 0 502 V0 16 42 21 0 ?503 0 504 505 0 0 24 18 43 17 0 506 0 507 508 ?24
 17 506 0 509 503 510 43 511 512 0 513 +18 507 13 0 514 43 515 516 ?24 29 508 34
 0 43 0 516 5e-4 35e-5 2e-4 29 516 37 0 507 508 517 5e-4 -35e-5 2e-4 29 517 40 0
 518 516 519 -5e-4 35e-5 2e-4 18 518 7 0 520 515 521 517 ?24 29 519 41 0 515 517
 522 -5e-4 -35e-5 2e-4 18 515 9 0 523 507 518 519 ?24 29 522 64 0 521 519 524 5e
-4 35e-5 25e-5 18 521 54 0 525 518 526 522 ?24 29 524 62 0 526 522 527 -5e-4 35e
-5 25e-5 18 526 55 0 528 521 529 524 ?24 29 527 85 0 529 524 530 5e-4 -35e-5 25e
-5 18 529 75 0 531 526 532 527 ?24 29 530 106 0 532 527 533 -5e-4 -35e-5 25e-5 1
8 532 96 0 534 529 535 530 ?24 29 533 389 0 536 530 537 .000451640950777 .000301
640950777 6e-4 18 536 222 0 538 500 539 533 ?24 29 537 390 0 535 533 540 .000471
567883757846 .0003215678837576905 .000581708022826973 18 535 139 0 541 532 542 5
37 ?24 29 540 395 0 542 537 543 -.000471567883757845 .0003215678837576905 .00058
1708022826973 18 542 140 0 544 535 545 540 ?24 29 543 396 0 539 540 546 -.000451
640950777 .000301640950777 6e-4 18 539 223 0 547 536 548 543 ?24 29 546 401 0 54
8 543 549 .000451640950777 -.000301640950777 6e-4 18 548 260 0 550 539 551 546 ?
24 29 549 402 0 545 546 501 .000471567883757691 -.0003215678837578455 .000581708
022826973 18 545 160 0 552 542 500 549 ?24 29 501 407 0 551 549 40 -.00045164095
0777 -.000301640950777 6e-4 18 551 291 0 553 548 0 501 ?24 17 553 0 554 555 556
 551 557 558 0 559 +15 554 284 0 560 561 0 17 555 0 554 560 553 500 562 498 0 56
3 +17 556 0 554 553 560 548 552 564 0 0 -17 557 0 565 566 559 548 553 558 0 556
 -16 558 288 0 ?553 498 567 568 0 0 24 17 559 0 565 557 569 551 547 567 0 562 -1
5 565 342 0 557 495 0 17 569 0 565 559 566 539 538 570 0 0 -17 547 0 571 572 562
 539 559 567 0 573 +16 567 316 0 ?547 558 0 574 0 0 24 17 562 0 571 547 575 551
 555 498 0 0 -15 571 313 0 572 576 0 17 575 0 571 562 572 500 544 577 0 578 -16
 498 287 0 ?555 579 558 39 0 0 24 16 579 257 0 ?550 564 498 580 0 0 24 17 550 0
 581 552 582 548 566 579 0 557 +16 564 256 0 ?552 583 579 499 0 0 24 30 580 263
 0 579 584 585 0 +.000451640950777 32e-5 6e-4 0 -1 0 30 584 247 0 586 587 580 0
 +.000471567883758001 .0003215678837576905 .000581708022826973 .0850914041686829
 .0850914041695997 -.99273304864553 30 585 276 0 588 580 589 0 -5e-4 -.000321567
8837576905 .000581708022826973 1 -4323630019078185e-34 370596858778056e-34 16 58
8 178 0 ?563 590 577 585 0 0 24 30 589 278 0 591 585 568 0 +.000471567883757691
 -.0003215678837580005 .000581708022826973 .0850914041695997 -.0850914041686829
 -.99273304864553 16 591 156 0 ?531 592 593 589 0 0 24 30 568 294 0 558 589 594
 0 +47e-5 -.000301640950777 6e-4 -1 0 0 30 594 307 0 590 568 574 0 +-.0004715678
83758001 -.0003215678837576905 .000581708022826973 -.0850914041686829 -.08509140
41695997 -.99273304864553 16 590 177 0 ?534 593 588 594 0 0 24 30 574 323 0 567
 594 595 0 +-.000451640950777 -32e-5 6e-4 0 1 0 32 595 388 0 596 574 597 0 -.000
451640950777 .000301640950777 58e-5 .707106781186548 -.707106781186548 0 .707106
781186548 .707106781186548 0 282842712474619e-19 2e-5 16 596 218 0 ?541 577 570
 595 0 0 24 32 597 394 0 583 595 499 0 +-.000451640950777 .000301640950777 58e-5
 .707106781186548 .707106781186548 0 .707106781186548 -.707106781186548 0 282842
712474619e-19 2e-5 16 583 220 0 ?573 570 564 597 0 0 24 32 499 400 0 564 597 39
 0 -.000451640950777 -.000301640950777 58e-5 -.707106781186548 -.707106781186548
 0 .707106781186548 -.707106781186548 0 282842712474619e-19 2e-5 17 573 0 598 53
8 599 539 572 583 0 569 +16 570 219 0 ?538 596 583 600 0 0 24 17 538 0 598 541 5
73 536 569 570 0 566 +30 600 226 0 570 601 602 0 +-47e-5 .000301640950777 6e-4 1
 0 0 30 601 122 0 603 604 600 0 +-5e-4 -35e-5 25e-5 0 1 0 30 602 239 0 605 600 6
06 0 +-5e-4 35e-5 25e-5 .0850914041686829 -.0850914041695997 .99273304864553 16
 605 133 0 ?607 603 586 602 0 0 24 30 606 241 0 577 602 608 0 +-.000471567883757
691 -35e-5 .000581708022826973 4323630019078185e-34 1 -370596858778056e-34 16 57
7 199 0 ?544 588 596 606 0 0 24 30 608 243 0 592 606 587 0 +-5e-4 .0003215678837
576905 .000581708022826973 1 -4323630019078185e-34 -370596858778056e-34 16 592 1
36 0 ?609 586 591 608 0 0 24 30 587 245 0 593 608 584 0 -.000471567883757691 35e
-5 .000581708022826973 4323630019078185e-34 1 370596858778056e-34 16 593 157 0 ?
610 591 590 587 0 0 24 17 610 0 611 531 612 545 613 593 0 560 +15 611 153 0 614
 615 0 17 531 0 611 614 610 529 616 591 0 617 +17 612 0 611 610 614 535 525 586
 0 0 -17 613 0 581 582 552 535 610 593 0 612 -17 560 0 554 556 555 545 563 588 0
 616 -17 563 0 618 534 616 500 560 588 0 575 +17 616 0 618 563 619 545 531 591 0
 0 -15 618 174 0 619 620 0 17 619 0 618 616 534 529 621 622 0 623 -17 534 0 618
 619 563 532 578 590 0 621 +17 621 0 624 523 623 532 619 622 0 625 +16 622 93 0
 ?621 626 603 604 0 0 24 17 623 0 624 621 627 529 514 628 0 0 -15 624 90 0 523 6
29 0 17 627 0 624 623 523 507 630 631 0 0 +17 514 0 632 633 617 507 623 628 0 63
4 +16 628 71 0 ?514 635 636 637 0 0 24 16 635 52 0 ?638 639 628 640 0 0 24 16 63
6 72 0 ?617 628 626 641 0 0 24 30 637 81 0 628 640 641 0 +5e-4 -35e-5 2e-4 0 0 -
1 30 640 58 0 635 642 637 0 +-5e-4 35e-5 2e-4 0 0 1 30 641 80 0 636 637 643 0 -5
e-4 35e-5 25e-5 0 1 0 30 643 102 0 626 641 604 0 +-5e-4 -35e-5 2e-4 0 0 -1 16 62
6 92 0 ?523 636 622 643 0 0 24 30 604 101 0 622 643 601 0 -5e-4 -35e-5 25e-5 1 0
 0 17 523 0 624 627 621 515 644 626 0 630 +17 644 0 645 528 646 532 523 626 0 0
 -17 630 0 647 520 634 515 627 631 0 646 -15 647 8 0 634 648 0 17 520 0 647 513
 630 518 646 649 0 650 -17 634 0 647 630 513 507 633 504 0 627 -16 631 14 0 ?627
 504 649 651 0 0 24 17 646 0 645 644 650 515 520 649 0 0 +15 645 111 0 650 652 0
 17 650 0 645 646 528 518 638 635 0 503 -16 649 10 0 ?646 631 512 653 0 0 24 16
 512 50 0 ?506 649 639 654 0 0 24 30 653 39 0 649 651 654 0 --5e-4 35e-5 2e-4 0
 1 0 30 651 36 0 631 655 653 0 +-5e-4 -35e-5 2e-4 1 0 0 30 654 60 0 512 653 642
 0 -5e-4 35e-5 2e-4 0 0 1 30 642 59 0 639 654 640 0 +-5e-4 35e-5 25e-5 1 0 0 16
 639 51 0 ?510 512 635 642 0 0 24 17 510 0 509 506 638 521 656 639 0 614 +15 509
 48 0 506 657 0 17 638 0 509 510 503 526 650 635 0 658 +17 656 0 659 607 525 526
 510 639 0 0 -17 614 0 611 612 531 521 617 636 0 511 -17 617 0 632 514 511 529 6
14 636 0 619 +17 511 0 632 617 633 521 506 512 0 0 -15 632 69 0 514 660 0 17 633
 0 632 511 514 43 634 504 0 0 +16 504 18 0 ?633 42 631 655 0 0 24 30 655 33 0 50
4 505 651 0 +5e-4 35e-5 2e-4 0 1 0 30 505 31 0 42 0 655 0 --5e-4 35e-5 2e-4 1 0
 0 14 660 67 661 1e-8 657 629 632 37 662 +0 0 629 657 502 81 1 661 483 209 660 6
63 0 0 664 665 14 657 46 664 1e-8 648 660 509 37 666 +0 0 660 648 502 14 629 88
 667 1e-8 660 652 624 37 668 +0 0 652 660 502 50 662 78 0 660 666 668 0 +5e-4 35
e-5 2e-4 1 0 0 0 0 -1 13 502 3 0 0 0 0 0 0 41 648 14 648 2 669 1e-8 0 657 647 37
 670 -0 0 657 0 502 81 1 669 489 209 648 671 0 667 672 673 50 670 6 0 648 0 666
 0 +-5e-4 35e-5 2e-4 0 0 1 1 0 0 50 666 57 0 657 670 662 0 +-5e-4 35e-5 2e-4 0 1
 0 0 0 1 81 1 671 458 241 648 0 669 674 0 675 81 1 667 487 209 629 676 0 664 669
 677 81 1 672 491 209 652 678 0 669 679 680 82 1 673 999999 14 652 109 672 1e-8
 629 681 645 37 682 +0 0 681 629 502 81 1 678 454 241 652 0 672 683 676 684 81 1
 679 493 209 681 683 0 672 685 686 82 1 680 999999 14 681 130 679 1e-8 652 615 6
59 37 687 +0 0 615 652 502 81 1 683 453 241 681 0 679 688 678 689 81 1 685 495 2
09 615 688 0 679 690 691 82 1 686 999999 14 615 151 685 1e-8 681 620 611 37 692
 +0 0 620 681 502 81 1 688 452 241 615 0 685 693 683 694 81 1 690 497 209 620 69
3 0 685 695 696 82 1 691 999999 14 620 172 690 1e-8 615 697 618 37 698 +0 0 697
 615 502 81 1 693 451 241 620 0 690 699 688 700 81 1 695 499 209 697 699 0 690 7
01 702 82 1 696 999999 14 697 193 695 1e-8 620 703 704 37 705 +0 0 703 620 502 8
1 1 699 450 241 697 0 695 706 693 707 81 1 701 501 209 703 706 0 695 708 709 82
 1 702 999999 14 703 214 701 1e-8 697 710 598 37 711 +0 0 710 697 502 81 1 706 4
49 241 703 0 701 712 699 713 81 1 708 503 209 710 712 0 701 714 715 82 1 709 999
999 14 710 251 708 1e-8 703 561 581 37 716 +0 0 561 703 502 81 1 712 448 241 710
 0 708 717 706 718 81 1 714 505 209 561 717 0 708 719 720 82 1 715 999999 14 561
 282 714 1e-8 710 576 554 37 721 +0 0 576 710 502 81 1 717 447 241 561 0 714 722
 712 723 81 1 719 507 209 576 722 0 714 724 725 82 1 720 999999 14 576 311 719 1
e-8 561 495 571 37 497 +0 0 495 561 502 81 1 722 446 241 576 0 719 726 717 727 8
1 1 724 509 209 495 726 0 719 0 728 82 1 725 999999 14 495 340 724 1e-8 576 0 56
5 37 38 +0 0 0 576 502 81 1 726 445 241 495 0 724 0 722 729 82 1 728 999999 83 3
 729 0 .847058823529412 0 83 3 727 0 .847058823529412 0 51 497 322 0 576 721 38
 0 +-.000451640950777 -32e-5 58e-5 0 1 0 2e-5 0 0 1 51 721 293 0 561 716 497 0 +
47e-5 -.000301640950777 58e-5 -1 0 0 2e-5 0 0 1 51 716 262 0 710 711 721 0 +.000
451640950777 32e-5 58e-5 0 -1 0 2e-5 0 0 -1 51 711 225 0 703 705 716 0 +-47e-5 .
000301640950777 58e-5 1 0 0 2e-5 0 0 -1 50 705 204 0 697 698 711 0 +-485e-6 -35e
-5 425e-6 -.996346649041753 4339483675923925e-34 .0854011413464188 .085401141346
4188 0 .996346649041753 50 698 183 0 620 692 705 0 +5e-4 -335e-6 425e-6 -4339483
675923925e-34 -.996346649041753 .0854011413464188 0 -.0854011413464188 -.9963466
49041753 50 692 162 0 615 687 698 0 +485e-6 35e-5 425e-6 .996346649041753 -43394
83675923925e-34 .0854011413464188 .0854011413464188 0 -.996346649041753 50 687 1
41 0 681 682 692 0 +-5e-4 335e-6 425e-6 4339483675923925e-34 .996346649041753 .0
854011413464188 0 -.0854011413464188 .996346649041753 50 682 120 0 652 668 687 0
 +-5e-4 -35e-5 2e-4 -1 0 0 0 0 1 50 668 99 0 629 662 682 0 +5e-4 -35e-5 2e-4 0 -
1 0 0 0 -1 83 3 723 0 .847058823529412 0 83 3 718 0 .847058823529412 0 15 581 25
3 0 613 710 0 83 3 713 0 .847058823529412 0 15 598 216 0 541 703 0 17 541 0 598
 599 538 535 582 596 0 609 +17 599 0 598 573 541 542 609 592 0 0 -17 582 0 581 5
50 613 536 541 596 0 0 -17 609 0 659 525 607 535 599 592 0 613 +15 659 132 0 656
 681 0 17 525 0 659 656 609 521 612 586 0 510 +17 607 0 659 609 656 542 658 605
 0 599 +17 658 0 704 625 544 526 607 605 0 656 -15 704 195 0 625 697 0 17 625 0
 704 578 658 532 528 603 0 644 -17 544 0 704 658 578 542 575 577 0 572 +17 578 0
 704 544 625 500 534 590 0 0 -17 572 0 571 575 547 542 573 583 0 607 -18 500 181
 0 555 545 536 40 ?24 17 528 0 645 650 644 526 625 603 0 638 +16 603 114 0 ?528
 622 605 601 0 0 24 16 586 135 0 ?525 605 592 584 0 0 24 83 3 707 0 .84705882352
9412 0 83 3 700 0 .847058823529412 0 83 3 694 0 .847058823529412 0 83 3 689 0 .8
47058823529412 0 81 1 676 455 241 629 0 667 678 663 730 83 3 684 0 .847058823529
412 0 81 1 663 456 241 660 0 661 676 674 731 83 3 730 0 .847058823529412 0 81 1
 674 457 241 657 0 664 663 671 732 83 3 731 0 .847058823529412 0 81 1 664 485 20
9 657 674 0 661 667 733 83 3 732 0 .847058823529412 0 82 1 733 999999 82 1 677 9
99999 83 3 675 0 .847058823529412 0 82 1 665 999999 17 503 0 509 638 506 518 513
 42 0 0 +17 513 0 647 634 520 43 503 42 0 633 -17 552 0 581 613 550 545 556 564
 0 610 +17 566 0 565 569 557 536 550 579 0 582 -19 496 5 0 24 0 41 37 S0 74 20 4
94 3 0 0 671 724 34 0 0 0 0 0 0 0 0 0 0 0 0 0 0 0 0 0 84 30 493 User Library-LED
_0603_R_Fillet81 1 22 391 5 12 0 0 0 0 734 70 23 0 4 T12 0 0 3 20 1 735 735 13 2
5 315 0 12 0 736 0 0 737 0 50 26 260 0 736 738 0 0 +4e-4 4e-4 2e-4 0 0 1 1 0 0 3
1 27 323 0 739 740 0 0 -8e-4 0 2e-4 0 0 1 1 0 0 2e-4 29 28 325 0 741 742 0 8e-4
 2e-4 2e-4 19 29 316 0 12 737 0 743 V0 16 30 29 0 ?744 0 745 746 0 0 12 18 31 25
 0 747 0 748 749 ?12 17 747 0 750 744 751 31 752 753 0 754 +18 748 21 0 755 31 7
56 757 ?12 29 749 321 0 31 757 742 8e-4 2e-4 0 29 757 320 0 748 758 749 8e-4 -2e
-4 0 29 742 324 0 759 749 28 8e-4 -2e-4 2e-4 18 759 99 0 760 761 762 742 ?12 17
 760 0 763 755 752 759 764 739 0 765 -18 761 66 0 766 741 759 767 20615528128088
3e-22 12 18 762 126 0 768 759 769 770 206155281280883e-22 12 17 768 0 771 772 77
3 762 765 774 0 775 +18 769 158 0 776 762 777 778 206155281280883e-22 12 29 770
 308 0 762 779 780 8e-4 -4e-4 2e-4 29 779 301 0 781 782 770 4e-4 -4e-4 0 29 780
 309 0 783 770 778 4e-4 4e-4 0 18 783 9 0 784 781 785 780 206155281280883e-22 12
 29 778 312 0 769 780 767 4e-4 -4e-4 2e-4 29 767 313 0 761 778 758 8e-4 4e-4 2e-
4 29 758 314 0 777 767 757 4e-4 4e-4 2e-4 18 777 189 0 786 769 0 758 20615528128
0883e-22 12 17 786 0 787 784 788 777 789 790 0 791 +15 787 183 0 784 792 0 17 78
4 0 787 793 786 783 794 795 0 796 +17 788 0 787 786 793 769 797 798 0 0 -17 789
 0 799 775 791 769 786 790 0 788 -16 790 186 0 ?786 795 800 801 0 0 12 17 791 0
 799 789 802 777 766 800 0 794 -15 799 247 0 764 736 0 17 802 0 799 791 764 761
 751 803 0 0 -17 766 0 804 805 794 761 791 800 0 806 +16 800 215 0 ?766 790 0 80
7 0 0 12 17 794 0 804 766 808 777 784 795 0 0 -15 804 212 0 805 809 0 17 808 0 8
04 794 805 783 810 811 0 0 +16 795 185 0 ?784 812 790 813 0 0 12 16 812 155 0 ?7
76 798 795 814 0 0 12 133 813 207 0 795 815 816 0 +816 4e-4 4e-4 2e-4 4e-4 4e-4
 0 2e-4 0 30 815 179 0 12 817 813 818 -4e-4 4e-4 0 0 1 0 30 816 208 0 12 813 819
 820 -4e-4 4e-4 0 0 0 1 133 819 242 0 803 816 821 0 +821 8e-4 4e-4 2e-4 8e-4 2e-
4 2e-4 0 -2e-4 141 820 813 820 820 816 16 803 62 0 ?751 753 822 819 0 0 12 30 82
1 243 0 12 819 807 823 -8e-4 4e-4 2e-4 0 1 0 133 807 280 0 800 821 824 0 +824 4e
-4 4e-4 2e-4 8e-4 4e-4 2e-4 0 4e-4 141 823 819 823 823 821 30 824 281 0 12 807 8
25 826 +4e-4 4e-4 2e-4 1 0 0 133 825 285 0 774 824 827 0 +827 8e-4 -2e-4 2e-4 8e
-4 -4e-4 2e-4 -6e-4 -8e-4 141 826 807 826 826 824 16 774 123 0 ?768 828 798 825
 0 0 12 30 827 286 0 12 825 814 829 -8e-4 4e-4 2e-4 0 1 0 133 814 295 0 812 827
 830 0 +830 8e-4 -4e-4 2e-4 4e-4 -4e-4 2e-4 0 -4e-4 141 829 825 829 829 827 30 8
30 296 0 12 814 801 831 -8e-4 -4e-4 2e-4 1 0 0 133 801 303 0 790 830 832 0 +832
 4e-4 -4e-4 2e-4 4e-4 4e-4 2e-4 0 8e-4 141 831 814 831 831 830 30 832 304 0 12 8
01 740 833 +4e-4 -4e-4 2e-4 0 1 0 31 740 319 0 745 832 27 0 -8e-4 0 0 0 0 1 1 0
 0 2e-4 141 833 801 833 833 832 16 745 26 0 ?834 30 835 740 0 0 12 17 834 0 763
 752 755 31 836 745 0 0 +16 835 22 0 ?837 745 838 839 0 0 12 17 837 0 771 773 77
2 748 840 835 0 0 +16 838 18 0 ?841 835 842 843 0 0 12 133 839 42 0 835 844 845
 0 +845 8e-4 -4e-4 0 8e-4 -2e-4 0 -8e-4 -6e-4 30 844 41 0 12 746 839 846 +8e-4 4
e-4 0 0 1 0 30 845 43 0 12 839 847 848 +8e-4 4e-4 0 0 1 0 30 847 81 0 753 845 84
9 0 +8e-4 2e-4 0 0 0 -1 141 848 839 848 848 845 16 753 61 0 ?747 811 803 847 0 0
 12 133 849 83 0 822 847 850 0 +850 8e-4 4e-4 0 8e-4 4e-4 2e-4 0 -2e-4 16 822 63
 0 ?806 803 851 849 0 0 12 30 850 84 0 12 849 852 853 -8e-4 4e-4 0 0 0 -1 133 85
2 85 0 811 850 854 0 +854 8e-4 4e-4 0 4e-4 4e-4 0 4e-4 0 141 853 849 853 853 850
 16 811 10 0 ?808 842 753 852 0 0 12 30 854 86 0 12 852 855 856 -4e-4 4e-4 0 1 0
 0 30 855 115 0 851 854 857 0 +8e-4 -2e-4 2e-4 0 0 1 141 856 852 856 856 854 16
 851 92 0 ?773 822 739 855 0 0 12 133 857 145 0 828 855 858 0 +858 8e-4 -4e-4 2e
-4 8e-4 -4e-4 0 -2e-4 0 16 828 122 0 ?772 739 774 857 0 0 12 30 858 146 0 12 857
 843 859 +8e-4 -4e-4 0 0 0 -1 133 843 147 0 838 858 860 0 +860 4e-4 -4e-4 0 8e-4
 -4e-4 0 0 4e-4 141 859 857 859 859 858 30 860 148 0 12 843 861 862 +4e-4 -4e-4
 0 1 0 0 133 861 176 0 798 860 863 0 +863 4e-4 -4e-4 2e-4 4e-4 -4e-4 0 -2e-4 0 1
41 862 843 862 862 860 16 798 154 0 ?797 774 812 861 0 0 12 30 863 177 0 12 861
 817 864 +4e-4 -4e-4 0 0 0 -1 133 817 178 0 842 863 815 0 +815 4e-4 4e-4 0 4e-4
 -4e-4 0 0 -8e-4 141 864 861 864 864 863 16 842 14 0 ?793 838 811 817 0 0 12 17
 793 0 787 788 784 781 796 842 0 0 +18 781 13 0 797 756 783 779 206155281280883e
-22 12 17 796 0 865 810 866 783 793 842 0 808 -15 865 8 0 836 867 0 17 810 0 865
 754 796 785 808 811 0 805 -17 866 0 865 796 840 781 841 838 0 793 -17 840 0 865
 866 836 756 837 835 0 841 -17 841 0 868 869 797 756 866 838 0 0 +15 868 152 0 7
97 870 0 17 869 0 868 776 841 762 772 828 0 0 -17 797 0 868 841 776 781 788 798
 0 866 +18 756 17 0 772 748 781 782 206155281280883e-22 12 17 772 0 771 837 768
 756 869 828 0 840 +29 782 293 0 756 871 779 8e-4 -4e-4 0 29 871 283 0 785 0 782
 8e-4 4e-4 0 18 785 7 0 810 783 741 871 206155281280883e-22 12 18 741 65 0 751 7
85 761 28 ?12 17 751 0 750 747 806 741 802 803 0 764 +15 750 60 0 751 872 0 17 8
06 0 750 751 744 761 805 822 0 802 +17 764 0 799 802 765 741 760 739 0 752 +17 7
65 0 799 764 775 759 768 774 0 773 -16 739 95 0 ?764 851 828 27 0 0 12 17 752 0
 763 760 834 741 747 753 0 0 -15 763 91 0 834 873 0 14 873 89 874 1e-8 872 875 7
63 25 876 -0 0 875 872 743 81 1 874 375 209 873 877 0 0 878 879 14 872 58 878 1e
-8 867 873 750 25 880 +0 0 873 867 743 14 875 119 881 1e-8 873 870 771 25 882 +0
 0 870 873 743 51 876 100 0 873 880 882 0 +8e-4 0 2e-4 0 0 1 2e-4 1 0 0 13 743 3
 0 0 0 0 0 0 29 867 14 867 2 883 1e-8 0 872 865 25 884 -0 0 872 0 743 81 1 883 3
81 209 867 885 0 881 886 887 50 884 6 0 867 0 880 0 +4e-4 4e-4 0 0 0 1 1 0 0 50
 880 69 0 872 884 876 0 +8e-4 4e-4 0 1 0 0 0 0 -1 81 1 885 357 241 867 0 883 888
 0 889 81 1 881 379 209 875 890 0 878 883 891 81 1 886 383 209 870 892 0 883 893
 894 82 1 887 999999 14 870 150 886 1e-8 875 792 868 25 895 +0 0 792 875 743 81
 1 892 353 241 870 0 886 896 890 897 81 1 893 385 209 792 896 0 886 898 899 82 1
 894 999999 14 792 181 893 1e-8 870 809 787 25 900 +0 0 809 870 743 81 1 896 352
 241 792 0 893 901 892 902 81 1 898 387 209 809 901 0 893 903 904 82 1 899 99999
9 14 809 210 898 1e-8 792 736 804 25 738 +0 0 736 792 743 81 1 901 351 241 809 0
 898 905 896 906 81 1 903 389 209 736 905 0 898 0 907 82 1 904 999999 14 736 245
 903 1e-8 809 0 799 25 26 +0 0 0 809 743 81 1 905 350 241 736 0 903 0 901 908 82
 1 907 999999 83 3 908 .780392156862745 .568627450980392 .1137254901960784 83 3
 906 .780392156862745 .568627450980392 .1137254901960784 50 738 221 0 809 900 26
 0 +4e-4 4e-4 0 0 1 0 0 0 1 50 900 192 0 792 895 738 0 +4e-4 -4e-4 0 -1 0 0 0 0
 1 50 895 161 0 870 882 900 0 +8e-4 -4e-4 0 0 -1 0 0 0 -1 50 882 130 0 875 876 8
95 0 +8e-4 4e-4 0 1 0 0 0 0 -1 83 3 902 .780392156862745 .568627450980392 .11372
54901960784 81 1 890 354 241 875 0 881 892 877 909 83 3 897 .780392156862745 .56
8627450980392 .1137254901960784 81 1 877 355 241 873 0 874 890 888 910 83 3 909
 .780392156862745 .568627450980392 .1137254901960784 81 1 888 356 241 872 0 878
 877 885 911 83 3 910 .780392156862745 .568627450980392 .1137254901960784 81 1 8
78 377 209 872 888 0 874 881 912 83 3 911 .780392156862745 .568627450980392 .113
7254901960784 82 1 912 999999 82 1 891 999999 83 3 889 .780392156862745 .5686274
50980392 .1137254901960784 15 771 121 0 768 875 0 82 1 879 999999 17 775 0 799 7
65 789 762 776 812 0 869 -17 773 0 771 768 837 759 755 851 0 0 +17 755 0 763 834
 760 748 773 851 0 836 -17 836 0 865 840 754 748 834 745 0 837 -17 754 0 865 836
 810 31 744 30 0 834 -17 744 0 750 806 747 785 754 30 0 0 +17 776 0 868 797 869
 769 775 812 0 789 +17 805 0 804 808 766 785 806 822 0 744 -133 746 40 0 30 0 84
4 0 +844 8e-4 2e-4 0 8e-4 4e-4 0 -2e-4 0 141 846 746 846 846 844 141 818 817 818
 818 815 19 737 5 0 12 0 29 25 S0 74 20 735 3 0 0 885 903 22 0 0 0 0 0 0 0 0 0 0
 0 0 0 0 0 0 0 84 33 734 User Library-LED_0603_R_Pocket00181 1 10 206 5 7 0 0 0
 0 913 70 11 0 4 T7 0 0 3 20 1 914 914 13 13 150 0 7 0 915 0 0 916 0 50 14 141 0
 915 917 0 0 +-4e-4 4e-4 2e-4 0 0 1 1 0 0 30 15 122 0 918 919 0 0 +-4e-4 -4e-4 2
e-4 0 1 0 29 16 106 0 920 921 0 -4e-4 -4e-4 2e-4 19 17 151 0 7 916 0 922 V0 16 1
8 21 0 ?923 0 924 925 0 0 7 18 19 17 0 926 0 927 928 ?7 17 926 0 929 923 930 19
 931 932 0 933 +18 927 13 0 934 19 935 936 ?7 29 928 34 0 19 0 936 4e-4 4e-4 0 2
9 936 37 0 927 928 937 4e-4 -4e-4 0 29 937 40 0 938 936 939 -4e-4 4e-4 0 18 938
 7 0 940 935 941 937 ?7 29 939 41 0 935 937 942 -4e-4 -4e-4 0 18 935 9 0 943 927
 938 939 ?7 29 942 64 0 941 939 944 4e-4 4e-4 2e-4 18 941 54 0 930 938 945 942 ?
7 29 944 62 0 945 942 921 -4e-4 4e-4 2e-4 18 945 55 0 946 941 947 944 ?7 29 921
 85 0 947 944 16 4e-4 -4e-4 2e-4 18 947 75 0 948 945 920 921 ?7 17 948 0 949 934
 931 947 950 951 0 952 +18 920 96 0 953 947 0 16 ?7 17 953 0 954 943 955 920 952
 956 0 957 +15 954 90 0 943 958 0 17 943 0 954 959 953 935 960 961 0 962 +17 955
 0 954 953 959 947 934 963 0 0 -17 952 0 964 950 957 947 953 956 0 955 -16 956 9
3 0 ?953 961 918 919 0 0 7 17 957 0 964 952 965 920 946 918 0 960 -15 964 132 0
 950 915 0 17 965 0 964 957 950 945 930 966 0 0 -17 946 0 967 968 960 945 957 91
8 0 969 +16 918 114 0 ?946 956 0 15 0 0 7 17 960 0 967 946 970 920 943 961 0 0 -
15 967 111 0 968 971 0 17 970 0 967 960 968 935 940 972 0 0 +16 961 92 0 ?943 95
1 956 973 0 0 7 16 951 72 0 ?948 963 961 974 0 0 7 30 973 102 0 961 974 919 0 +-
4e-4 -4e-4 0 0 0 -1 30 974 80 0 951 975 973 0 -4e-4 4e-4 2e-4 0 1 0 30 919 101 0
 956 973 15 0 -4e-4 -4e-4 2e-4 1 0 0 30 975 81 0 963 976 974 0 +4e-4 -4e-4 0 0 0
 -1 16 963 71 0 ?934 977 951 975 0 0 7 30 976 58 0 977 978 975 0 +-4e-4 4e-4 0 0
 0 1 16 977 52 0 ?969 966 963 976 0 0 7 30 978 59 0 966 979 976 0 +-4e-4 4e-4 2e
-4 1 0 0 16 966 51 0 ?930 932 977 978 0 0 7 30 979 60 0 932 980 978 0 -4e-4 4e-4
 0 0 0 1 16 932 50 0 ?926 972 966 979 0 0 7 30 980 39 0 972 981 979 0 --4e-4 4e-
4 0 0 1 0 16 972 10 0 ?970 982 932 980 0 0 7 30 981 36 0 982 983 980 0 +-4e-4 -4
e-4 0 1 0 0 16 982 14 0 ?959 924 972 981 0 0 7 30 983 33 0 924 925 981 0 +4e-4 4
e-4 0 0 1 0 16 924 18 0 ?984 18 982 983 0 0 7 30 925 31 0 18 0 983 0 --4e-4 4e-4
 0 1 0 0 17 984 0 949 931 934 19 985 924 0 0 +15 949 69 0 934 986 0 17 931 0 949
 948 984 941 926 932 0 0 -17 934 0 949 984 948 927 955 963 0 985 +17 985 0 987 9
62 933 927 984 924 0 959 -15 987 8 0 985 988 0 17 962 0 987 940 985 935 959 982
 0 970 -17 933 0 987 985 940 19 923 18 0 984 -17 959 0 954 955 943 927 962 982 0
 0 +17 940 0 987 933 962 938 970 972 0 968 -17 923 0 929 969 926 938 933 18 0 0
 +15 929 48 0 926 989 0 17 969 0 929 930 923 945 968 977 0 965 +17 930 0 929 926
 969 941 965 966 0 950 +17 968 0 967 970 946 938 969 977 0 923 -17 950 0 964 965
 952 941 948 951 0 931 -14 989 46 990 1e-8 988 986 929 13 991 +0 0 986 988 922 8
1 1 990 194 209 989 992 0 0 993 994 14 988 2 993 1e-8 0 989 987 13 995 -0 0 989
 0 922 14 986 67 996 1e-8 989 958 949 13 997 +0 0 958 989 922 50 991 57 0 989 99
5 997 0 +-4e-4 4e-4 0 0 1 0 0 0 1 13 922 3 0 0 0 0 0 0 17 988 50 995 6 0 988 0 9
91 0 +-4e-4 4e-4 0 0 0 1 1 0 0 50 997 78 0 986 991 998 0 +4e-4 4e-4 0 1 0 0 0 0
 -1 50 998 99 0 958 997 917 0 +4e-4 -4e-4 0 0 -1 0 0 0 -1 14 958 88 999 1e-8 986
 971 954 13 998 +0 0 971 986 922 50 917 120 0 971 998 14 0 +-4e-4 -4e-4 0 -1 0 0
 0 0 1 14 971 109 1000 1e-8 958 915 967 13 917 +0 0 915 958 922 81 1 1000 202 20
9 971 1001 0 999 1002 1003 14 915 130 1002 1e-8 971 0 964 13 14 +0 0 0 971 922 8
1 1 1002 204 209 915 1004 0 1000 0 1005 81 1 1004 173 241 915 0 1002 0 1001 1006
 82 1 1005 999999 81 1 1001 174 241 971 0 1000 1004 1007 1008 83 3 1006 .8 .8 .8
 81 1 1007 175 241 958 0 999 1001 1009 1010 83 3 1008 .8 .8 .8 81 1 999 200 209
 958 1007 0 996 1000 1011 81 1 1009 176 241 986 0 996 1007 992 1012 83 3 1010 .8
 .8 .8 81 1 996 198 209 986 1009 0 993 999 1013 81 1 992 177 241 989 0 990 1009
 1014 1015 83 3 1012 .8 .8 .8 81 1 1014 178 241 988 0 993 992 0 1016 83 3 1015 .
8 .8 .8 81 1 993 196 209 988 1014 0 990 996 1017 83 3 1016 .8 .8 .8 82 1 1017 99
9999 82 1 1013 999999 82 1 1011 999999 82 1 1003 999999 82 1 994 999999 19 916 5
 0 7 0 17 13 S0 74 20 914 3 0 0 1014 1002 10 0 0 0 0 0 0 0 0 0 0 0 0 0 0 0 0 0 8
4 27 913 User Library-LED_0603_R_Pad74 20 6 1 0 0 2 0 0 0 0 0 0 0 0 0 0 0 0 0 0
 0 0 0 0 0 1 0 
