**ABCDEFGHIJKLMNOPQRSTUVWXYZabcdefghijklmnopqrstuvwxyz**************************
**PARASOLID !"#$%&'()*+,-./:;<=>?@[\]^_`{|}~0123456789**************************
**PART1;
MC=AMD64;
MC_MODEL=Intel64 Family 6 Model 60 Stepping 3, GenuineIntel;
MC_ID=unknown;
OS=Windows_NT;
OS_RELEASE=unknown;
FRU=Parasolid Version 30.0, build 310,  6- 8-2018;
APPL=SOLIDWORKS 2018-2018316;
SITE=;
USER=unknown;
FORMAT=text;
GUISE=transmit;
KEY=ARIOSE_LF-MB12A12;
FILE=ARIOSE_LF-MB12A12.x_t;
DATE=Mon Dec 16 10:57:40 2019;
**PART2;
SCH=SCH_3000310_30000;
USFLD_SIZE=0;
**PART3;
**END_OF_HEADER*****************************************************************
T51 : TRANSMIT FILE created by modeller version 300031023 SCH_3000310_30000_1300
6205 0 12 33 CCCCCCI4 mesh1006 0 I8 polyline1008 0 CCCCCCCDI5 owner1040 0 CCCCCC
I13 boundary_mesh1006 0 I17 boundary_polyline1008 0 CCCA16 index_map_offset0 0 1
 dA9 index_map82 0 A17 node_id_index_map82 0 A20 schema_embedding_map82 0 A5 chi
ld12 0 A14 lowest_node_id0 0 1 dZ1 866 2 3 4 0 0 0 0 0 1e3 1e-8 0 5 0 1 0 1 1 6
 7 8 9 0 0 10 11 12 0 0 0 0 0 0 81 255 2 2 664 13 1 0 0 0 0 14 0 70 11 CI9 list_
type0 0 1 uI10 notransmit0 0 1 lCCCDCCDI12 finger_index0 0 1 dI12 finger_block10
12 0 CZ3 0 4 T1 0 0 3 20 1 15 15 50 255 4 179 0 1 16 0 0 +0 0 .0072 0 0 1 1 0 0
 13 255 6 29 0 1 0 17 0 0 18 0 51 255 7 28 0 17 19 0 0 -0 0 .0075 0 0 -1 .006 -1
 0 0 31 255 8 183 0 20 21 0 0 -0 0 .0072 0 0 1 1 0 0 .00125 29 255 9 337 0 12 22
 0 .00385 -5e-5 .0074 19 8 CCCCCCCA5 owner12 0 Z10 7 0 1 18 0 23 V0 16 255 11 85
 0 ?24 0 25 21 0 0 1 18 255 12 335 0 26 0 27 9 ?1 17 255 26 0 28 29 30 12 31 32
 0 33 +18 27 469 0 34 12 35 22 ?1 17 34 0 36 37 38 27 39 40 0 41 -18 35 467 0 29
 27 42 43 ?1 29 22 581 0 27 44 9 .0042 -5e-5 .0075 29 44 582 0 45 46 22 .0042 5e
-5 .0074 18 45 448 0 47 48 49 44 ?1 29 46 583 0 50 51 44 .00385 5e-5 .0074 18 50
 450 0 52 53 48 46 ?1 29 51 584 0 54 55 46 .00385 4e-4 .0074 18 54 452 0 56 57 5
3 51 ?1 29 55 585 0 58 59 51 .00375 4e-4 .0074 18 58 454 0 60 61 57 55 ?1 29 59
 586 0 62 63 55 .00375 5e-5 .0074 18 62 456 0 64 65 61 59 ?1 29 63 587 0 66 67 5
9 .0034 5e-5 .0074 18 66 458 0 68 69 65 63 ?1 29 67 588 0 70 71 63 .0034 -5e-5 .
0074 18 70 460 0 72 73 69 67 ?1 29 71 589 0 74 75 67 .00375 -5e-5 .0074 18 74 46
2 0 76 77 73 71 ?1 29 75 590 0 78 79 71 .00375 -4e-4 .0074 18 78 464 0 80 81 77
 75 ?1 29 79 591 0 42 82 75 .00385 -4e-4 .0074 18 42 466 0 30 35 81 79 ?1 29 82
 593 0 83 84 79 .0042 -5e-5 .0074 18 83 446 0 39 49 0 82 ?1 29 84 594 0 81 85 82
 .00385 -4e-4 .0075 18 81 465 0 86 42 78 84 ?1 29 85 595 0 77 87 84 .00375 -4e-4
 .0075 18 77 463 0 88 78 74 85 ?1 29 87 596 0 73 89 85 .00375 -5e-5 .0075 18 73
 461 0 90 74 70 87 ?1 29 89 597 0 69 91 87 .0034 -5e-5 .0075 18 69 459 0 92 70 6
6 89 ?1 29 91 598 0 65 93 89 .0034 5e-5 .0075 18 65 457 0 94 66 62 91 ?1 29 93 5
99 0 61 95 91 .00375 5e-5 .0075 18 61 455 0 96 62 58 93 ?1 29 95 600 0 57 97 93
 .00375 4e-4 .0075 18 57 453 0 98 58 54 95 ?1 29 97 601 0 53 99 95 .00385 4e-4 .
0075 18 53 451 0 100 54 50 97 ?1 29 99 602 0 48 101 97 .00385 5e-5 .0075 18 48 4
49 0 102 50 45 99 ?1 29 101 603 0 49 43 99 .0042 5e-5 .0075 18 49 447 0 103 45 8
3 101 ?1 29 43 604 0 35 0 101 .00385 -5e-5 .0075 17 103 0 104 47 105 49 106 107
 0 108 +15 255 104 477 0 105 109 0 17 47 0 104 110 103 45 108 111 0 112 +17 105
 0 104 103 110 48 52 113 0 106 -17 106 0 114 115 116 48 103 107 0 0 -16 107 388
 0 ?103 111 40 117 0 0 1 17 108 0 118 41 112 49 47 111 0 116 -15 118 473 0 108 1
19 0 17 41 0 118 39 108 27 116 120 0 121 +17 112 0 118 108 39 45 122 123 0 124 -
16 111 389 0 ?47 113 107 125 0 0 1 17 116 0 114 106 121 49 41 120 0 0 -15 114 52
8 0 116 126 0 17 121 0 114 116 127 27 37 128 0 0 +16 120 386 0 ?41 40 0 129 0 0
 1 16 40 387 0 ?39 107 120 130 0 0 1 30 255 129 558 0 120 117 131 0 +.0042 0 .00
75 0 -1 0 30 117 559 0 107 132 129 0 +0 5e-5 .0075 1 0 0 30 131 557 0 128 129 12
5 0 +0 -5e-5 .0075 1 0 0 16 128 445 0 ?121 133 134 131 0 0 1 30 125 556 0 111 13
1 135 0 +.0042 5e-5 .00863137084989848 0 0 -1 30 135 555 0 113 125 136 0 +.00385
 5e-5 .00863137084989848 0 0 -1 16 113 390 0 ?52 137 111 135 0 0 1 30 136 554 0
 138 135 139 0 +.00385 4e-4 .00863137084989848 0 0 -1 16 138 395 0 ?56 140 141 1
36 0 0 1 30 139 553 0 142 136 143 0 +.00375 4e-4 .00863137084989848 0 0 -1 16 14
2 397 0 ?60 144 140 139 0 0 1 30 143 552 0 145 139 146 0 +.00375 5e-5 .008631370
84989848 0 0 -1 16 145 399 0 ?64 147 144 143 0 0 1 30 146 551 0 147 143 148 0 +.
0034 5e-5 .00863137084989848 0 0 -1 16 147 400 0 ?68 149 145 146 0 0 1 30 148 55
0 0 150 146 151 0 +.0034 -5e-5 .00863137084989848 0 0 -1 16 150 404 0 ?72 152 14
9 148 0 0 1 30 151 549 0 153 148 154 0 +.00375 -5e-5 .00863137084989848 0 0 -1 1
6 153 409 0 ?76 155 156 151 0 0 1 30 154 548 0 155 151 157 0 +.00375 -4e-4 .0086
3137084989848 0 0 -1 16 155 410 0 ?80 158 153 154 0 0 1 30 157 547 0 159 154 160
 0 +.00385 -4e-4 .00863137084989848 0 0 -1 16 159 414 0 ?30 32 158 157 0 0 1 30
 160 546 0 161 157 130 0 +.00385 -5e-5 .00863137084989848 0 0 -1 16 161 418 0 ?3
3 162 32 160 0 0 1 30 130 545 0 40 160 163 0 +.0042 -5e-5 .00863137084989848 0 0
 -1 31 163 320 0 164 130 165 0 +.0038 0 .0074 0 0 1 1 0 0 5e-4 16 164 297 0 ?166
 167 133 163 0 0 1 31 165 319 0 133 163 168 0 +.0038 0 .0075 0 0 1 1 0 0 5e-4 16
 133 300 0 ?169 164 128 165 0 0 1 31 168 219 0 167 165 170 0 +0 0 .0057 0 0 1 1
 0 0 .0057 16 167 189 0 ?171 172 164 168 0 0 1 31 170 218 0 172 168 173 0 +0 0 .
0072 0 0 1 1 0 0 .0057 16 172 187 0 ?174 20 167 170 0 0 1 31 173 162 0 175 170 1
76 0 +0 0 .0075 0 0 1 1 0 0 .00125 16 175 143 0 ?177 178 20 173 0 0 1 31 176 115
 0 178 173 179 0 +.0038 -924608333356252e-33 -.0025 0 0 -1 -1 0 0 3e-4 16 178 95
 0 ?180 181 175 176 0 0 1 31 179 82 0 181 176 182 0 +-.0038 140222058502372e-32
 -.0025 0 0 -1 -1 0 0 3e-4 16 181 62 0 ?183 184 178 179 0 0 1 31 182 5 0 185 179
 186 0 +0 0 .0075 0 0 1 1 0 0 .006 16 185 4 0 ?187 25 184 182 0 0 1 31 186 23 0
 184 182 188 0 +0 0 0 0 0 1 1 0 0 .006 16 184 18 0 ?189 185 181 186 0 0 1 31 188
 55 0 25 186 21 0 --.0038 140222058502372e-32 0 0 0 1 1 0 0 3e-4 16 25 52 0 ?190
 11 185 188 0 0 1 31 21 88 0 11 188 8 0 -.0038 -924608333356252e-33 0 0 0 1 1 0
 0 3e-4 17 190 0 191 190 190 0 192 25 0 0 +15 191 69 0 190 193 0 17 192 0 194 19
2 192 0 190 25 0 0 -15 194 54 0 192 195 196 14 255 195 16 197 ?193 198 199 6 19
 -0 0 193 198 23 15 196 17 0 200 195 0 17 200 0 196 200 200 0 189 184 0 0 -17 18
9 0 201 189 189 0 200 184 0 0 +15 201 26 0 189 17 0 14 17 25 202 ?198 0 203 6 7
 -0 0 198 0 23 81 1 202 842 204 17 205 0 197 206 207 14 198 1 206 ?195 17 208 6
 209 +0 0 195 17 23 15 203 24 0 210 17 201 13 23 8 0 0 0 0 0 0 10 17 17 210 0 20
3 210 210 0 187 185 0 0 -17 187 0 211 187 187 0 210 185 0 0 +15 211 3 0 187 198
 0 81 1 206 843 204 198 212 0 202 213 214 15 208 291 0 215 198 216 50 209 2 0 19
8 217 19 0 +0 0 .0075 0 0 1 1 0 0 51 217 78 0 193 218 209 0 --.0038 140222058502
372e-32 -.0025 0 0 1 3e-4 1 0 0 50 19 22 0 195 209 7 0 +0 0 0 0 0 1 1 0 0 14 193
 65 213 ?219 195 220 6 217 -0 0 219 195 23 50 218 80 0 219 221 217 0 +-.0038 140
222058502372e-32 -.0025 0 0 -1 -1 0 0 14 219 70 222 ?223 193 224 6 218 +0 0 223
 193 23 51 221 111 0 223 225 218 0 -.0038 -924608333356252e-33 -.0025 0 0 1 3e-4
 1 0 0 14 223 98 226 ?227 219 228 6 221 -0 0 227 219 23 50 225 113 0 227 229 221
 0 +.0038 -924608333356252e-33 -.0025 0 0 -1 -1 0 0 14 227 103 230 ?231 223 232
 6 225 +0 0 231 223 23 51 229 159 0 231 233 225 0 +0 0 .0057 0 0 1 .00125 1 0 0
 14 231 146 234 ?235 227 236 6 229 -0 0 235 227 23 50 233 161 0 237 238 229 0 +0
 0 .0057 0 0 1 1 0 0 14 237 151 239 ?240 241 242 6 233 +0 0 240 241 23 50 238 21
4 0 235 243 233 0 +0 0 .0072 0 0 1 1 0 0 14 235 197 244 ?241 231 245 6 238 -0 0
 241 231 23 51 243 215 0 241 246 238 0 -0 0 .0236220346110533 0 0 -1 .0057 -1 0
 0 14 241 201 247 ?237 235 248 6 243 +0 0 237 235 23 51 246 316 0 240 249 243 0
 +.0038 0 .0074 0 0 1 5e-4 1 0 0 14 240 303 250 ?251 237 252 6 246 -0 0 251 237
 23 50 249 318 0 251 253 246 0 +.0038 0 .0074 0 0 1 1 0 0 14 251 308 254 ?119 24
0 255 6 249 +0 0 119 240 23 50 253 531 0 126 256 249 0 +0 0 .0075 0 0 1 1 0 0 14
 126 524 257 ?0 258 114 6 253 +0 0 0 258 23 50 256 532 0 119 259 253 0 +.0042 0
 .00863137084989848 1 0 0 0 0 -1 14 119 470 260 ?109 251 118 6 256 +0 0 109 251
 23 50 259 533 0 109 261 256 0 +0 5e-5 .00863137084989848 0 1 0 0 0 1 14 109 474
 262 ?263 119 104 6 259 +0 0 263 119 23 50 261 534 0 263 264 259 0 +.00385 0 .00
863137084989848 -1 0 0 0 0 1 14 263 478 265 ?266 109 267 6 261 -0 0 266 109 23 5
0 264 535 0 266 268 261 0 +0 4e-4 .00863137084989848 0 1 0 0 0 1 14 266 482 269
 ?270 263 271 6 264 +0 0 270 263 23 50 268 536 0 270 272 264 0 +.00375 0 .008631
37084989848 -1 0 0 0 0 1 14 270 486 273 ?274 266 275 6 268 +0 0 274 266 23 50 27
2 537 0 274 276 268 0 +0 5e-5 .00863137084989848 0 1 0 0 0 1 14 274 490 277 ?278
 270 279 6 272 +0 0 278 270 23 50 276 538 0 278 280 272 0 +.0034 0 .008631370849
89848 1 0 0 0 0 -1 14 278 494 281 ?282 274 283 6 276 -0 0 282 274 23 50 280 539
 0 282 284 276 0 +0 -5e-5 .00863137084989848 0 1 0 0 0 1 14 282 498 285 ?286 278
 287 6 280 -0 0 286 278 23 50 284 540 0 286 288 280 0 +.00375 0 .008631370849898
48 -1 0 0 0 0 1 14 286 502 289 ?290 282 291 6 284 +0 0 290 282 23 50 288 541 0 2
90 292 284 0 +0 -4e-4 .00863137084989848 0 1 0 0 0 1 14 290 506 293 ?294 286 295
 6 288 -0 0 294 286 23 50 292 542 0 294 296 288 0 +.00385 0 .00863137084989848 -
1 0 0 0 0 1 14 294 510 297 ?258 290 28 6 292 -0 0 258 290 23 50 296 543 0 258 0
 292 0 +0 -5e-5 .00863137084989848 0 1 0 0 0 1 14 258 514 298 ?126 294 36 6 296
 -0 0 126 294 23 81 1 298 866 204 258 299 0 297 0 300 15 36 517 0 37 258 0 17 37
 0 36 33 34 35 121 128 0 127 -17 33 0 36 38 37 12 29 161 0 301 +17 127 0 114 121
 302 35 86 134 0 0 +17 302 0 114 127 303 81 88 304 0 0 +17 86 0 28 30 29 81 127
 134 0 305 -16 134 444 0 ?127 128 304 306 0 0 1 16 304 443 0 ?302 134 307 308 0
 0 1 30 306 568 0 134 309 308 0 +.00385 0 .0075 0 1 0 30 309 569 0 123 310 306 0
 +.0042 0 .0074 0 -1 0 30 308 567 0 304 306 311 0 +0 -4e-4 .0075 1 0 0 30 311 56
6 0 156 308 312 0 +.00375 0 .0075 0 1 0 16 156 408 0 ?90 153 152 311 0 0 1 30 31
2 565 0 307 311 313 0 +0 -5e-5 .0075 1 0 0 16 307 442 0 ?314 304 315 312 0 0 1 3
0 313 564 0 315 312 316 0 +.0034 0 .0075 0 -1 0 16 315 441 0 ?317 307 318 313 0
 0 1 30 316 563 0 144 313 319 0 +0 5e-5 .0075 1 0 0 16 144 398 0 ?96 145 142 316
 0 0 1 30 319 562 0 140 316 320 0 +.00375 0 .0075 0 1 0 16 140 396 0 ?98 142 138
 319 0 0 1 30 320 561 0 141 319 132 0 +0 4e-4 .0075 1 0 0 16 141 394 0 ?100 138
 137 320 0 0 1 30 132 560 0 318 320 117 0 +.00385 0 .0075 0 1 0 16 318 440 0 ?11
5 315 321 132 0 0 1 17 115 0 114 322 106 53 102 318 0 0 +16 321 437 0 ?124 318 3
23 310 0 0 1 17 124 0 255 122 324 45 110 321 0 0 +16 323 434 0 ?325 321 326 327
 0 0 1 30 310 570 0 321 328 309 0 +0 5e-5 .0074 1 0 0 30 328 571 0 137 327 310 0
 +.00385 0 .0074 0 1 0 16 137 391 0 ?329 141 113 328 0 0 1 30 327 572 0 323 330
 328 0 +0 4e-4 .0074 1 0 0 30 330 573 0 326 331 327 0 +.00375 0 .0074 0 1 0 16 3
26 431 0 ?332 323 333 330 0 0 1 30 331 574 0 333 334 330 0 +0 5e-5 .0074 1 0 0 1
6 333 428 0 ?335 326 336 331 0 0 1 30 334 575 0 149 337 331 0 +.0034 0 .0074 0 -
1 0 16 149 401 0 ?338 150 147 334 0 0 1 30 337 576 0 152 339 334 0 +0 -5e-5 .007
4 1 0 0 16 152 405 0 ?340 156 150 337 0 0 1 30 339 577 0 336 341 337 0 +.00375 0
 .0074 0 1 0 16 336 425 0 ?342 333 123 339 0 0 1 30 341 578 0 158 343 339 0 +0 -
4e-4 .0074 1 0 0 16 158 411 0 ?344 159 155 341 0 0 1 30 343 579 0 32 345 341 0 +
.00385 0 .0074 0 1 0 16 32 415 0 ?26 161 159 343 0 0 1 30 345 580 0 162 0 343 0
 +0 -5e-5 .0074 1 0 0 16 162 419 0 ?38 123 161 345 0 0 1 17 38 0 36 34 33 83 301
 162 0 122 +16 123 422 0 ?122 336 162 309 0 0 1 17 122 0 255 301 124 83 112 123
 0 0 +15 255 380 0 122 251 346 17 301 0 255 31 122 12 38 162 0 0 -17 31 0 255 34
7 301 42 26 32 0 0 -17 347 0 255 342 31 78 344 158 0 0 -17 342 0 255 348 347 74
 349 336 0 0 +17 344 0 295 305 80 42 347 158 0 31 +15 295 509 0 88 290 0 17 305
 0 295 88 344 81 30 159 0 302 -17 80 0 295 344 88 78 350 155 0 349 +17 88 0 295
 80 305 77 302 304 0 350 -17 350 0 291 90 349 77 80 155 0 303 -17 349 0 291 350
 76 78 342 336 0 347 -15 291 505 0 350 286 0 17 76 0 291 349 90 74 351 153 0 340
 +17 90 0 291 76 350 73 303 156 0 351 +17 351 0 287 92 340 73 76 153 0 314 -17 3
40 0 287 351 72 74 348 152 0 342 +15 287 501 0 92 282 0 17 72 0 287 340 92 70 35
2 150 0 338 +17 348 0 255 353 342 70 340 152 0 0 -17 353 0 255 335 348 66 338 14
9 0 0 -17 335 0 255 332 353 62 354 333 0 0 +17 338 0 283 352 68 70 353 149 0 348
 +15 283 497 0 94 278 0 17 352 0 283 94 338 69 72 150 0 317 -17 68 0 283 338 94
 66 355 147 0 354 +17 94 0 283 68 352 65 317 315 0 355 -17 355 0 279 96 354 65 6
8 147 0 356 -17 354 0 279 355 64 66 335 333 0 353 -15 279 493 0 355 274 0 17 64
 0 279 354 96 62 357 145 0 358 +17 96 0 279 64 355 61 356 144 0 357 +17 357 0 27
5 98 358 61 64 145 0 359 -17 358 0 275 357 60 62 332 326 0 335 -15 275 489 0 357
 270 0 17 60 0 275 358 98 58 360 142 0 361 +17 332 0 255 325 335 58 358 326 0 0
 +17 325 0 255 324 332 54 361 323 0 0 +17 324 0 255 124 325 50 329 137 0 0 -17 3
61 0 271 360 56 58 325 323 0 332 -15 271 485 0 360 266 0 17 360 0 271 100 361 57
 60 142 0 322 -17 56 0 271 361 100 54 362 138 0 329 +17 100 0 271 56 360 53 322
 141 0 362 +17 362 0 267 102 329 53 56 138 0 115 -17 329 0 267 362 52 54 324 137
 0 325 +15 267 481 0 102 263 0 17 52 0 267 329 102 50 105 113 0 110 +17 102 0 26
7 52 362 48 115 318 0 105 -17 110 0 104 105 47 50 124 321 0 324 -17 322 0 114 35
9 115 57 100 141 0 0 -17 359 0 114 356 322 61 98 140 0 0 -17 356 0 114 317 359 6
5 96 144 0 0 -17 98 0 275 60 357 57 359 140 0 360 +17 317 0 114 314 356 69 94 31
5 0 0 +17 314 0 114 303 317 73 92 307 0 0 +17 303 0 114 302 314 77 90 156 0 0 -1
7 92 0 287 72 351 69 314 307 0 352 -17 30 0 28 26 86 42 305 159 0 344 +15 28 513
 0 86 294 0 15 346 310 0 166 251 0 17 166 0 346 166 166 0 363 164 0 0 +17 363 0
 252 363 363 0 166 164 0 0 -15 252 306 0 363 240 364 15 364 307 0 169 240 0 17 1
69 0 364 169 169 0 215 133 0 0 +17 215 0 208 215 215 0 169 133 0 0 -17 29 0 28 8
6 26 35 33 161 0 37 -80 255 1 204 365 366 9000 1 1 1 1 1 1 1 1 0 FFFFTFTFFFFFFF1
 81 1 299 784 367 258 0 298 368 369 370 81 1 297 865 204 294 368 0 293 298 371 8
2 255 1 300 -507772801 81 1 368 783 367 294 0 297 372 299 373 81 1 293 864 204 2
90 372 0 289 297 374 82 1 371 -502136705 81 1 372 782 367 290 0 293 375 368 376
 81 1 289 863 204 286 375 0 285 293 377 82 1 374 -501350273 81 1 375 781 367 286
 0 289 378 372 379 81 1 285 862 204 282 378 0 281 289 380 82 1 377 -500563841 81
 1 378 780 367 282 0 285 381 375 382 81 1 281 861 204 278 381 0 277 285 383 82 1
 380 -499777409 81 1 381 779 367 278 0 281 384 378 385 81 1 277 860 204 274 384
 0 273 281 386 82 1 383 -498990977 81 1 384 778 367 274 0 277 387 381 388 81 1 2
73 859 204 270 387 0 269 277 389 82 1 386 -498204545 81 1 387 777 367 270 0 273
 390 384 391 81 1 269 858 204 266 390 0 265 273 392 82 1 389 -497418113 81 1 390
 776 367 266 0 269 393 387 394 81 1 265 857 204 263 393 0 262 269 395 82 1 392 -
496631681 81 1 393 775 367 263 0 265 396 390 397 81 1 262 856 204 109 396 0 260
 265 398 82 1 395 -495845249 81 1 396 774 367 109 0 262 399 393 400 81 1 260 855
 204 119 399 0 257 262 401 82 1 398 -495058817 81 1 399 773 367 119 0 260 402 39
6 403 81 1 257 854 204 126 369 0 254 260 404 82 1 401 -494600065 81 1 369 785 36
7 126 0 257 299 0 405 81 1 254 853 204 251 402 0 250 257 406 82 1 404 -510590849
 81 1 402 772 367 251 0 254 407 399 408 81 1 250 852 204 240 407 0 247 254 409 8
2 1 406 -421265281 81 1 407 771 367 240 0 250 410 402 411 81 1 247 851 204 241 4
12 0 244 250 413 82 1 409 -419299204 81 1 412 769 367 241 0 247 414 410 415 81 1
 244 850 204 235 414 0 239 247 416 82 1 413 -1916534667 81 1 414 768 367 235 0 2
44 417 412 418 81 1 239 849 204 237 410 0 234 244 419 82 1 416 -1906114443 81 1
 410 770 367 237 0 239 412 407 420 81 1 234 848 204 231 417 0 230 239 421 82 1 4
19 1243283573 81 1 417 767 367 231 0 234 422 414 423 81 1 230 847 204 227 422 0
 226 234 424 82 1 421 1245249653 81 1 422 766 367 227 0 230 425 417 426 81 1 226
 846 204 223 425 0 222 230 427 82 1 424 298516591 81 1 425 765 367 223 0 226 428
 422 429 81 1 222 845 204 219 428 0 213 226 430 82 1 427 300482671 81 1 428 764
 367 219 0 222 431 425 432 81 1 213 844 204 193 431 0 206 222 433 82 1 430 29438
7823 81 1 431 763 367 193 0 213 434 428 435 82 1 433 296353903 80 1 367 0 436 80
01 0 0 0 0 3 5 0 0 0 FFFFTFTFFFFFFF2 81 1 434 762 367 195 0 197 212 431 437 83 2
55 3 435 .823529411764706 .819607843137255 .780392156862745 81 1 197 841 204 195
 434 0 0 202 438 81 1 212 761 367 198 0 206 205 434 439 83 3 437 .10196078431372
54 .1019607843137254 .1019607843137254 81 1 205 760 367 17 0 202 0 212 440 83 3
 439 .1019607843137254 .1019607843137254 .1019607843137254 83 3 440 .10196078431
37254 .1019607843137254 .1019607843137254 82 1 438 -69992337 79 255 15 436 SDL/T
YSA_COLOUR83 3 432 .823529411764706 .819607843137255 .780392156862745 83 3 429 .
823529411764706 .819607843137255 .780392156862745 83 3 426 .823529411764706 .819
607843137255 .780392156862745 83 3 423 .1019607843137254 .1019607843137254 .1019
607843137254 83 3 420 .898039215686275 .898039215686275 .898039215686275 83 3 41
8 .898039215686275 .898039215686275 .898039215686275 83 3 415 .1019607843137254
 .1019607843137254 .1019607843137254 83 3 411 .1019607843137254 .101960784313725
4 .1019607843137254 83 3 408 .1019607843137254 .1019607843137254 .10196078431372
54 83 3 405 .1019607843137254 .1019607843137254 .1019607843137254 83 3 403 .1019
607843137254 .1019607843137254 .1019607843137254 83 3 400 .1019607843137254 .101
9607843137254 .1019607843137254 83 3 397 .1019607843137254 .1019607843137254 .10
19607843137254 83 3 394 .1019607843137254 .1019607843137254 .1019607843137254 83
 3 391 .1019607843137254 .1019607843137254 .1019607843137254 83 3 388 .101960784
3137254 .1019607843137254 .1019607843137254 83 3 385 .1019607843137254 .10196078
43137254 .1019607843137254 83 3 382 .1019607843137254 .1019607843137254 .1019607
843137254 83 3 379 .1019607843137254 .1019607843137254 .1019607843137254 83 3 37
6 .1019607843137254 .1019607843137254 .1019607843137254 83 3 373 .10196078431372
54 .1019607843137254 .1019607843137254 83 3 370 .1019607843137254 .1019607843137
254 .1019607843137254 79 14 366 SWEntUnchanged15 248 204 0 441 241 442 17 441 0
 248 441 441 0 171 167 0 0 -15 442 205 0 174 241 0 17 174 0 442 174 174 0 443 17
2 0 0 +17 443 0 245 443 443 0 174 172 0 0 -15 245 199 0 443 235 444 15 444 200 0
 445 235 0 17 445 0 444 445 445 0 446 20 0 0 -17 446 0 236 446 446 0 445 20 0 0
 +16 20 188 0 ?446 175 172 8 0 0 1 15 236 181 0 446 231 447 15 447 150 0 177 231
 0 17 177 0 447 177 177 0 448 175 0 0 +17 448 0 216 448 448 0 177 175 0 0 -15 21
6 135 0 448 198 211 17 171 0 242 171 171 0 441 167 0 0 +15 242 195 0 171 237 0 1
5 232 105 0 180 227 0 17 180 0 232 180 180 0 449 178 0 0 +17 449 0 228 449 449 0
 180 178 0 0 -15 228 101 0 449 223 450 15 450 102 0 24 223 0 17 24 0 450 24 24 0
 451 11 0 0 +17 451 0 199 451 451 0 24 11 0 0 -15 199 87 0 451 195 194 15 224 72
 0 183 219 0 17 183 0 224 183 183 0 452 181 0 0 +17 452 0 220 452 452 0 183 181
 0 0 -15 220 68 0 452 193 191 82 1 214 1444020348 82 1 207 -69730196 17 39 0 118
 112 41 83 34 40 0 38 +19 18 30 0 1 0 10 6 S0 50 16 177 0 1 453 4 0 +0 0 .0072 0
 0 1 1 0 0 50 453 176 0 1 454 16 0 +0 0 .0072 0 0 1 1 0 0 50 454 175 0 1 0 453 0
 +0 0 .0072 0 0 1 1 0 0 74 4 CI16 index_map_offset0 0 1 dCCZ20 15 3 0 0 298 2 36
9 0 0 0 0 0 0 0 0 0 0 0 0 0 0 0 0 0 80 2 13 455 456 8004 0 0 0 0 3 5 0 0 0 FFTFF
FFFFFFFFF2 3 83 1 14 1 79 16 456 SDL/TYSA_DENSITY1 0 
