**ABCDEFGHIJKLMNOPQRSTUVWXYZabcdefghijklmnopqrstuvwxyz**************************
**PARASOLID !"#$%&'()*+,-./:;<=>?@[\]^_`{|}~0123456789**************************
**PART1;
MC=AMD64;
MC_MODEL=Intel64 Family 6 Model 60 Stepping 3, GenuineIntel;
MC_ID=unknown;
OS=Windows_NT;
OS_RELEASE=unknown;
FRU=Parasolid Version 30.0, build 310,  6- 8-2018;
APPL=SOLIDWORKS 2018-2018316;
SITE=;
USER=unknown;
FORMAT=text;
GUISE=transmit;
KEY=MOD_ESP-12-Q;
FILE=MOD_ESP-12-Q.x_t;
DATE=Mon Oct  7 12:39:03 2019;
**PART2;
SCH=SCH_3000310_30000;
USFLD_SIZE=0;
**PART3;
**END_OF_HEADER*****************************************************************
T51 : TRANSMIT FILE created by modeller version 300031023 SCH_3000310_30000_1300
6205 0 12 33 CCCCCCI4 mesh1006 0 I8 polyline1008 0 CCCCCCCDI5 owner1040 0 CCCCCC
I13 boundary_mesh1006 0 I17 boundary_polyline1008 0 CCCA16 index_map_offset0 0 1
 dA9 index_map82 0 A17 node_id_index_map82 0 A20 schema_embedding_map82 0 A5 chi
ld12 0 A14 lowest_node_id0 0 1 dZ1 2693 2 3 4 0 0 0 0 0 1e3 1e-8 0 5 0 1 0 1 1 6
 7 8 9 0 0 10 11 12 0 0 0 0 0 0 81 255 2 2 2204 13 1 0 0 0 0 14 0 70 11 CI9 list
_type0 0 1 uI10 notransmit0 0 1 lCCCDCCDI12 finger_index0 0 1 dI12 finger_block1
012 0 CZ3 0 4 T1 0 0 3 20 1 15 15 50 255 4 140 0 1 16 0 0 +0 0 .0034 0 0 1 1 0 0
 13 255 6 94 0 1 0 17 0 0 18 0 50 7 89 0 19 20 0 0 +.008 .012 .001 -1 -144560289
664734e-30 0 144560289664734e-30 -1 0 30 255 8 93 0 11 21 0 0 +.008 .012 .001 0
 0 -1 29 255 9 1756 0 12 22 0 .0047 -.012 0 19 8 CCCCCCCA5 owner12 0 Z10 28 0 1
 18 0 23 V0 16 255 11 77 0 ?24 0 25 8 0 0 1 18 255 12 1754 0 26 0 27 9 ?1 17 255
 26 0 28 29 30 12 31 32 0 33 -18 27 1748 0 34 12 35 22 ?1 17 34 0 36 37 38 27 39
 40 0 41 -18 35 1742 0 42 27 43 44 ?1 29 22 1750 0 27 44 9 .0027 -.012 0 29 44 1
744 0 35 45 22 7e-4 -.012 0 29 45 1738 0 43 46 44 -.0013 -.012 0 18 43 1736 0 47
 35 48 45 ?1 29 46 1732 0 48 49 45 -.0033 -.012 0 18 48 1730 0 50 43 51 46 ?1 29
 49 1622 0 51 52 46 -.0053 -.012 0 18 51 1620 0 53 48 54 49 ?1 29 52 993 0 54 55
 49 .008 .0032 0 18 54 991 0 56 51 57 52 ?1 29 55 987 0 57 58 52 .008 .0012 0 18
 57 985 0 59 54 60 55 ?1 29 58 981 0 60 61 55 .008 -8e-4 0 18 60 979 0 62 57 63
 58 ?1 29 61 975 0 63 64 58 .008 -.0028 0 18 63 973 0 65 60 66 61 ?1 29 64 969 0
 66 67 61 .008 -.0048 0 18 66 967 0 68 63 69 64 ?1 29 67 963 0 69 70 64 .008 -.0
068 0 18 69 961 0 71 66 72 67 ?1 29 70 957 0 72 73 67 .008 -.0088 0 18 72 955 0
 74 69 75 70 ?1 29 73 951 0 75 76 70 .008 -.0108 0 18 75 949 0 77 72 78 73 ?1 29
 76 397 0 78 79 73 -.008 -.0082 0 18 78 395 0 80 75 81 76 ?1 29 79 391 0 81 82 7
6 -.008 -.0062 0 18 81 389 0 83 78 84 79 ?1 29 82 385 0 84 85 79 -.008 -.0042 0
 18 84 383 0 86 81 87 82 ?1 29 85 379 0 87 88 82 -.008 -.0022 0 18 87 377 0 89 8
4 90 85 ?1 29 88 373 0 90 91 85 -.008 -.000199999999999997 0 18 90 371 0 92 87 9
3 88 ?1 29 91 367 0 93 94 88 -.008 .0018 0 18 93 365 0 95 90 96 91 ?1 29 94 361
 0 96 97 91 -.008 .0038 0 18 96 359 0 98 93 99 94 ?1 29 97 259 0 99 100 94 -.008
 -.0102 0 18 99 257 0 101 96 102 97 ?1 29 100 152 0 102 103 97 .00615 -.0107 .00
1 18 102 150 0 104 99 105 100 ?1 29 103 149 0 105 106 100 -.00615 -.0107 .001 18
 105 147 0 107 102 108 103 ?1 29 106 143 0 108 109 103 .00615 .0045 .001 18 108
 141 0 110 105 111 106 ?1 29 109 70 0 112 113 106 .008 -.012 0 18 112 61 0 114 1
15 116 109 ?1 29 113 71 0 116 117 109 -.008 -.012 0 18 116 62 0 118 112 119 113
 ?1 29 117 72 0 119 120 113 -.008 .012 0 18 119 63 0 121 116 122 117 ?1 29 120 7
3 0 122 123 117 .008 .012 0 18 122 64 0 124 119 125 120 ?1 29 123 27 0 111 126 1
20 .008 -.012 .001 18 111 25 0 127 108 128 123 ?1 29 126 24 0 128 129 123 -.008
 -.012 .001 18 128 22 0 130 111 131 126 ?1 29 129 21 0 131 132 126 -.008 .012 .0
01 18 131 19 0 133 128 115 129 ?1 29 132 18 0 115 134 129 .008 .012 .001 18 115
 16 0 135 131 112 132 ?1 29 134 228 0 125 136 132 .00615 -.0107 .0034 18 125 185
 0 137 122 138 134 ?1 29 136 230 0 139 140 134 -.00615 .0045 .001 18 139 182 0 1
41 138 142 136 ?1 29 140 233 0 142 143 136 -.00615 .0045 .0034 18 142 181 0 144
 139 145 140 ?1 29 143 234 0 145 146 140 .00615 .0045 .0034 18 145 179 0 147 142
 148 143 ?1 29 146 235 0 138 149 143 -.00615 -.0107 .0034 18 138 183 0 150 125 1
39 146 ?1 29 149 333 0 148 151 146 -.008 -.0102 .001 18 148 301 0 152 145 153 14
9 ?1 29 151 334 0 153 154 149 -.008 -.0108 .001 18 153 302 0 155 148 156 151 ?1
 29 154 335 0 156 157 151 -.008 -.0108 0 18 156 303 0 158 153 159 154 ?1 29 157
 856 0 159 160 154 -.008 -.0082 .001 18 159 574 0 161 156 162 157 ?1 29 160 857
 0 162 163 157 -.008 -.0088 .001 18 162 575 0 164 159 165 160 ?1 29 163 858 0 16
5 166 160 -.008 -.0088 0 18 165 576 0 167 162 168 163 ?1 29 166 860 0 168 169 16
3 -.008 -.0062 .001 18 168 605 0 170 165 171 166 ?1 29 169 861 0 171 172 166 -.0
08 -.0068 .001 18 171 606 0 173 168 174 169 ?1 29 172 862 0 174 175 169 -.008 -.
0068 0 18 174 607 0 176 171 177 172 ?1 29 175 864 0 177 178 172 -.008 -.0042 .00
1 18 177 636 0 179 174 180 175 ?1 29 178 865 0 180 181 175 -.008 -.0048 .001 18
 180 637 0 182 177 183 178 ?1 29 181 866 0 183 184 178 -.008 -.0048 0 18 183 638
 0 185 180 186 181 ?1 29 184 868 0 186 187 181 -.008 -.0022 .001 18 186 667 0 18
8 183 189 184 ?1 29 187 869 0 189 190 184 -.008 -.0028 .001 18 189 668 0 191 186
 192 187 ?1 29 190 870 0 192 193 187 -.008 -.0028 0 18 192 669 0 194 189 195 190
 ?1 29 193 872 0 195 196 190 -.008 -.000199999999999997 .001 18 195 698 0 197 19
2 198 193 ?1 29 196 873 0 198 199 193 -.008 -8e-4 .001 18 198 699 0 200 195 201
 196 ?1 29 199 874 0 201 202 196 -.008 -8e-4 0 18 201 700 0 203 198 204 199 ?1 2
9 202 876 0 204 205 199 -.008 .0018 .001 18 204 729 0 206 201 207 202 ?1 29 205
 877 0 207 208 202 -.008 .0012 .001 18 207 730 0 209 204 210 205 ?1 29 208 878 0
 210 211 205 -.008 .0012 0 18 210 731 0 212 207 213 208 ?1 29 211 880 0 213 214
 208 -.008 .0038 .001 18 213 760 0 215 210 216 211 ?1 29 214 881 0 216 217 211 -
.008 .0032 .001 18 216 761 0 218 213 219 214 ?1 29 217 882 0 219 220 214 -.008 .
0032 0 18 219 762 0 221 216 222 217 ?1 29 220 1493 0 223 224 217 .008 .0032 .001
 18 223 1384 0 225 226 227 220 ?1 29 224 1495 0 227 228 220 .008 .0038 0 18 227
 1385 0 229 223 230 224 ?1 29 228 1496 0 230 231 224 .008 .0038 .001 18 230 1386
 0 232 227 233 228 ?1 29 231 1497 0 234 235 228 .008 .0012 .001 18 234 1360 0 23
6 237 238 231 ?1 29 235 1499 0 238 239 231 .008 .0018 0 18 238 1361 0 240 234 22
6 235 ?1 29 239 1500 0 226 241 235 .008 .0018 .001 18 226 1362 0 242 238 223 239
 ?1 29 241 1501 0 243 244 239 .008 -8e-4 .001 18 243 1336 0 245 246 247 241 ?1 2
9 244 1503 0 247 248 241 .008 -.000199999999999997 0 18 247 1337 0 249 243 237 2
44 ?1 29 248 1504 0 237 250 244 .008 -.000199999999999997 .001 18 237 1338 0 251
 247 234 248 ?1 29 250 1505 0 252 253 248 .008 -.0028 .001 18 252 1312 0 254 255
 256 250 ?1 29 253 1507 0 256 257 250 .008 -.0022 0 18 256 1313 0 258 252 246 25
3 ?1 29 257 1508 0 246 259 253 .008 -.0022 .001 18 246 1314 0 260 256 243 257 ?1
 29 259 1509 0 261 262 257 .008 -.0048 .001 18 261 1288 0 263 264 265 259 ?1 29
 262 1511 0 265 266 259 .008 -.0042 0 18 265 1289 0 267 261 255 262 ?1 29 266 15
12 0 255 268 262 .008 -.0042 .001 18 255 1290 0 269 265 252 266 ?1 29 268 1513 0
 270 271 266 .008 -.0068 .001 18 270 1264 0 272 273 274 268 ?1 29 271 1515 0 274
 275 268 .008 -.0062 0 18 274 1265 0 276 270 264 271 ?1 29 275 1516 0 264 277 27
1 .008 -.0062 .001 18 264 1266 0 278 274 261 275 ?1 29 277 1517 0 279 280 275 .0
08 -.0088 .001 18 279 1240 0 281 282 283 277 ?1 29 280 1519 0 283 284 277 .008 -
.0082 0 18 283 1241 0 285 279 273 280 ?1 29 284 1520 0 273 286 280 .008 -.0082 .
001 18 273 1242 0 287 283 270 284 ?1 29 286 1521 0 222 288 284 .008 -.0108 .001
 18 222 1216 0 289 219 290 286 ?1 29 288 1523 0 290 291 286 .008 -.0102 0 18 290
 1217 0 292 222 282 288 ?1 29 291 1524 0 282 293 288 .008 -.0102 .001 18 282 121
8 0 294 290 279 291 ?1 29 293 1696 0 233 295 291 -.0053 -.012 .001 18 233 1664 0
 296 230 297 293 ?1 29 295 1697 0 297 298 293 -.0047 -.012 .001 18 297 1665 0 29
9 233 300 295 ?1 29 298 1698 0 300 301 295 -.0047 -.012 0 18 300 1666 0 302 297
 303 298 ?1 29 301 2085 0 303 304 298 -.0033 -.012 .001 18 303 1887 0 305 300 30
6 301 ?1 29 304 2086 0 306 307 301 -.0027 -.012 .001 18 306 1888 0 308 303 309 3
04 ?1 29 307 2087 0 309 310 304 -.0027 -.012 0 18 309 1889 0 311 306 312 307 ?1
 29 310 2089 0 312 313 307 -.0013 -.012 .001 18 312 1918 0 314 309 315 310 ?1 29
 313 2090 0 315 316 310 -7e-4 -.012 .001 18 315 1919 0 317 312 318 313 ?1 29 316
 2091 0 318 319 313 -7e-4 -.012 0 18 318 1920 0 320 315 321 316 ?1 29 319 2093 0
 321 322 316 7e-4 -.012 .001 18 321 1949 0 323 318 324 319 ?1 29 322 2094 0 324
 325 319 .0013 -.012 .001 18 324 1950 0 326 321 327 322 ?1 29 325 2095 0 327 328
 322 .0013 -.012 0 18 327 1951 0 329 324 330 325 ?1 29 328 2097 0 330 331 325 .0
027 -.012 .001 18 330 1980 0 38 327 332 328 ?1 29 331 2098 0 332 333 328 .0033 -
.012 .001 18 332 1981 0 334 330 335 331 ?1 29 333 2099 0 335 336 331 .0033 -.012
 0 18 335 1982 0 37 332 337 333 ?1 29 336 2101 0 337 338 333 .0047 -.012 .001 18
 337 2011 0 30 335 339 336 ?1 29 338 2102 0 339 340 336 .0053 -.012 .001 18 339
 2012 0 341 337 342 338 ?1 29 340 2103 0 342 0 338 .0053 -.012 0 18 342 2013 0 2
9 339 0 340 ?1 17 29 0 28 341 26 342 33 343 0 344 +15 255 28 2019 0 30 345 0 17
 341 0 28 30 29 339 344 346 0 347 -17 33 0 348 349 350 12 29 343 0 351 -16 343 2
000 0 ?29 352 0 353 0 0 1 17 344 0 354 114 355 342 341 346 0 350 +15 354 1836 0
 355 356 0 17 114 0 354 357 344 112 350 358 0 359 +17 355 0 354 344 357 339 127
 360 0 0 -16 346 2003 0 ?344 361 32 362 0 0 1 17 350 0 348 33 363 342 114 358 0
 0 -15 348 44 0 364 365 0 17 363 0 348 350 366 112 367 368 0 0 -16 358 1758 0 ?1
14 369 370 371 369 372 1 16 369 1752 0 ?351 373 358 371 373 358 1 16 370 49 0 ?3
74 358 375 376 377 378 1 30 371 66 0 372 376 379 0 +-.008 -.012 0 1 0 0 16 372 4
5 0 ?380 381 382 371 358 382 1 17 380 0 383 384 385 51 386 372 0 0 +16 381 1083
 0 ?135 387 372 388 387 389 1 16 382 1624 0 ?390 372 391 371 372 391 1 17 390 0
 392 393 394 48 395 382 0 0 +16 391 1734 0 ?396 382 397 371 382 397 1 17 396 0 3
98 399 400 43 364 391 0 0 +16 397 1740 0 ?401 391 373 371 391 373 1 17 401 0 402
 403 404 35 405 397 0 0 +16 373 1746 0 ?406 397 369 371 397 369 1 17 406 0 407 3
9 408 27 409 373 0 0 +15 407 1852 0 410 411 0 17 39 0 407 410 406 330 34 40 0 41
2 +17 408 0 407 406 410 327 326 413 0 409 +17 409 0 348 414 41 327 406 373 0 0 -
17 414 0 348 405 409 35 329 415 0 401 -17 41 0 348 409 349 27 37 352 0 406 -17 3
49 0 348 41 33 335 351 369 0 0 -17 37 0 36 334 34 335 41 352 0 416 +16 352 1969
 0 ?37 415 343 417 0 0 1 16 415 1938 0 ?329 418 352 419 0 0 1 31 255 417 2077 0
 352 419 353 0 +.003 -.012 0 0 0 -1 -1 0 0 3e-4 31 419 2079 0 415 420 417 0 +.00
1 -.012 0 0 0 -1 -1 0 0 3e-4 31 353 2075 0 343 417 421 0 +.005 -.012 0 0 0 -1 -1
 0 0 3e-4 31 421 2074 0 422 353 423 0 +.005 -.012 .001 0 0 1 1 0 0 3e-4 16 422 2
005 0 ?30 32 424 421 0 0 1 30 423 2073 0 32 421 362 0 -.0047 -.012 .0034 0 0 -1
 16 32 2004 0 ?31 346 422 423 0 0 1 30 362 2072 0 346 423 425 0 +.0053 -.012 .00
34 0 0 -1 31 425 2071 0 361 362 426 0 +.003 -.012 .001 0 0 1 1 0 0 3e-4 16 361 1
974 0 ?38 40 346 425 0 0 1 30 426 2070 0 40 425 427 0 -.0027 -.012 .0034 0 0 -1
 16 40 1973 0 ?39 428 361 426 0 0 1 30 427 2069 0 428 426 429 0 +.0033 -.012 .00
34 0 0 -1 16 428 1972 0 ?416 430 40 427 0 0 1 31 429 2068 0 430 427 431 0 +.001
 -.012 .001 0 0 1 1 0 0 3e-4 16 430 1943 0 ?323 432 428 429 0 0 1 30 431 2067 0
 432 429 433 0 -7e-4 -.012 .0034 0 0 -1 16 432 1942 0 ?403 413 430 431 0 0 1 30
 433 2066 0 413 431 434 0 +.0013 -.012 .0034 0 0 -1 16 413 1941 0 ?408 435 432 4
33 0 0 1 31 434 2065 0 435 433 436 0 +-.001 -.012 .001 0 0 1 1 0 0 3e-4 16 435 1
912 0 ?314 437 413 434 0 0 1 30 436 2064 0 437 434 438 0 --.0013 -.012 .0034 0 0
 -1 16 437 1911 0 ?399 439 435 436 0 0 1 30 438 2063 0 439 436 440 0 +-7e-4 -.01
2 .0034 0 0 -1 16 439 1910 0 ?404 441 437 438 0 0 1 31 440 2062 0 441 438 442 0
 +-.003 -.012 .001 0 0 1 1 0 0 3e-4 16 441 1881 0 ?305 443 439 440 0 0 1 30 442
 2061 0 443 440 444 0 --.0033 -.012 .0034 0 0 -1 16 443 1880 0 ?393 445 441 442
 0 0 1 30 444 2060 0 445 442 446 0 +-.0027 -.012 .0034 0 0 -1 16 445 1879 0 ?400
 447 443 444 0 0 1 31 446 1694 0 447 444 448 0 +-.005 -.012 0 0 0 -1 -1 0 0 3e-4
 16 447 1650 0 ?302 449 445 446 0 0 1 31 448 1693 0 449 446 450 0 +-.005 -.012 .
001 0 0 1 1 0 0 3e-4 16 449 1656 0 ?296 451 447 448 0 0 1 30 450 1692 0 451 448
 452 0 --.0053 -.012 .0034 0 0 -1 16 451 1655 0 ?384 453 449 450 0 0 1 30 452 16
91 0 453 450 454 0 +-.0047 -.012 .0034 0 0 -1 16 453 1654 0 ?394 455 451 452 0 0
 1 31 454 1492 0 456 452 457 0 +.008 -.0105 .001 0 0 -1 -1 0 0 3e-4 16 456 1212
 0 ?458 459 460 454 0 0 1 30 457 1491 0 459 454 461 0 -.008 -.0102 .0034 0 0 -1
 16 459 1206 0 ?294 462 456 457 0 0 1 31 461 1490 0 462 457 463 0 +.008 -.0105 0
 0 0 1 1 0 0 3e-4 16 462 1214 0 ?366 464 459 461 0 0 1 30 463 1489 0 464 461 465
 0 +.008 -.0108 .0034 0 0 -1 16 464 1209 0 ?77 466 462 463 0 0 1 31 465 1486 0 4
67 463 468 0 +.008 -.0085 .001 0 0 -1 -1 0 0 3e-4 16 467 1236 0 ?469 470 471 465
 0 0 1 30 468 1485 0 470 465 472 0 -.008 -.0082 .0034 0 0 -1 16 470 1230 0 ?287
 473 467 468 0 0 1 31 472 1484 0 473 468 474 0 +.008 -.0085 0 0 0 1 1 0 0 3e-4 1
6 473 1238 0 ?475 460 470 472 0 0 1 30 474 1483 0 460 472 476 0 +.008 -.0088 .00
34 0 0 -1 16 460 1233 0 ?74 456 473 474 0 0 1 31 476 1480 0 477 474 478 0 +.008
 -.0065 .001 0 0 -1 -1 0 0 3e-4 16 477 1260 0 ?479 480 481 476 0 0 1 30 478 1479
 0 480 476 482 0 -.008 -.0062 .0034 0 0 -1 16 480 1254 0 ?278 483 477 478 0 0 1
 31 482 1478 0 483 478 484 0 +.008 -.0065 0 0 0 1 1 0 0 3e-4 16 483 1262 0 ?485
 471 480 482 0 0 1 30 484 1477 0 471 482 486 0 +.008 -.0068 .0034 0 0 -1 16 471
 1257 0 ?71 467 483 484 0 0 1 31 486 1474 0 487 484 488 0 +.008 -.0045 .001 0 0
 -1 -1 0 0 3e-4 16 487 1284 0 ?489 490 491 486 0 0 1 30 488 1473 0 490 486 492 0
 -.008 -.0042 .0034 0 0 -1 16 490 1278 0 ?269 493 487 488 0 0 1 31 492 1472 0 49
3 488 494 0 +.008 -.0045 0 0 0 1 1 0 0 3e-4 16 493 1286 0 ?495 481 490 492 0 0 1
 30 494 1471 0 481 492 496 0 +.008 -.0048 .0034 0 0 -1 16 481 1281 0 ?68 477 493
 494 0 0 1 31 496 1468 0 497 494 498 0 +.008 -.0025 .001 0 0 -1 -1 0 0 3e-4 16 4
97 1308 0 ?499 500 501 496 0 0 1 30 498 1467 0 500 496 502 0 -.008 -.0022 .0034
 0 0 -1 16 500 1302 0 ?260 503 497 498 0 0 1 31 502 1466 0 503 498 504 0 +.008 -
.0025 0 0 0 1 1 0 0 3e-4 16 503 1310 0 ?505 491 500 502 0 0 1 30 504 1465 0 491
 502 506 0 +.008 -.0028 .0034 0 0 -1 16 491 1305 0 ?65 487 503 504 0 0 1 31 506
 1462 0 507 504 508 0 +.008 -5e-4 .001 0 0 -1 -1 0 0 3e-4 16 507 1332 0 ?509 510
 511 506 0 0 1 30 508 1461 0 510 506 512 0 -.008 -.000199999999999997 .0034 0 0
 -1 16 510 1326 0 ?251 513 507 508 0 0 1 31 512 1460 0 513 508 514 0 +.008 -5e-4
 0 0 0 1 1 0 0 3e-4 16 513 1334 0 ?515 501 510 512 0 0 1 30 514 1459 0 501 512 5
16 0 +.008 -8e-4 .0034 0 0 -1 16 501 1329 0 ?62 497 513 514 0 0 1 31 516 1456 0
 517 514 518 0 +.008 .0015 .001 0 0 -1 -1 0 0 3e-4 16 517 1356 0 ?519 520 521 51
6 0 0 1 30 518 1455 0 520 516 522 0 -.008 .0018 .0034 0 0 -1 16 520 1350 0 ?242
 523 517 518 0 0 1 31 522 1454 0 523 518 524 0 +.008 .0015 0 0 0 1 1 0 0 3e-4 16
 523 1358 0 ?525 511 520 522 0 0 1 30 524 1453 0 511 522 526 0 +.008 .0012 .0034
 0 0 -1 16 511 1353 0 ?59 507 523 524 0 0 1 31 526 1450 0 455 524 527 0 +.008 .0
035 .001 0 0 -1 -1 0 0 3e-4 16 455 1380 0 ?528 529 453 526 0 0 1 30 527 1449 0 5
29 526 530 0 -.008 .0038 .0034 0 0 -1 16 529 1374 0 ?232 531 455 527 0 0 1 31 53
0 1448 0 531 527 532 0 +.008 .0035 0 0 0 1 1 0 0 3e-4 16 531 1382 0 ?533 521 529
 530 0 0 1 30 532 1447 0 521 530 534 0 +.008 .0032 .0034 0 0 -1 16 521 1377 0 ?5
6 517 531 532 0 0 1 31 534 854 0 535 532 536 0 +-.008 -.0085 0 0 0 -1 -1 0 0 3e-
4 16 535 563 0 ?167 537 538 534 0 0 1 31 536 852 0 538 534 539 0 +-.008 -.0065 0
 0 0 -1 -1 0 0 3e-4 16 538 594 0 ?176 535 540 536 0 0 1 31 539 850 0 540 536 541
 0 +-.008 -.0045 0 0 0 -1 -1 0 0 3e-4 16 540 625 0 ?185 538 542 539 0 0 1 31 541
 848 0 542 539 543 0 +-.008 -.0025 0 0 0 -1 -1 0 0 3e-4 16 542 656 0 ?194 540 54
4 541 0 0 1 31 543 846 0 544 541 545 0 +-.008 -5e-4 0 0 0 -1 -1 0 0 3e-4 16 544
 687 0 ?203 542 546 543 0 0 1 31 545 844 0 546 543 547 0 +-.008 .0015 0 0 0 -1 -
1 0 0 3e-4 16 546 718 0 ?212 544 466 545 0 0 1 31 547 842 0 466 545 548 0 +-.008
 .0035 0 0 0 -1 -1 0 0 3e-4 16 466 749 0 ?221 546 464 547 0 0 1 31 548 841 0 537
 547 549 0 +-.008 .0035 .001 0 0 1 1 0 0 3e-4 16 537 754 0 ?215 550 535 548 0 0
 1 30 549 840 0 550 548 551 0 --.008 .0038 .0034 0 0 -1 16 550 753 0 ?552 553 53
7 549 0 0 1 30 551 839 0 553 549 554 0 +-.008 .0032 .0034 0 0 -1 16 553 752 0 ?5
55 556 550 551 0 0 1 31 554 838 0 556 551 557 0 +-.008 .0015 .001 0 0 1 1 0 0 3e
-4 16 556 723 0 ?206 558 553 554 0 0 1 30 557 837 0 558 554 559 0 --.008 .0018 .
0034 0 0 -1 16 558 722 0 ?560 561 556 557 0 0 1 30 559 836 0 561 557 562 0 +-.00
8 .0012 .0034 0 0 -1 16 561 721 0 ?563 564 558 559 0 0 1 31 562 835 0 564 559 56
5 0 +-.008 -5e-4 .001 0 0 1 1 0 0 3e-4 16 564 692 0 ?197 566 561 562 0 0 1 30 56
5 834 0 566 562 567 0 --.008 -.000199999999999997 .0034 0 0 -1 16 566 691 0 ?568
 569 564 565 0 0 1 30 567 833 0 569 565 570 0 +-.008 -8e-4 .0034 0 0 -1 16 569 6
90 0 ?571 572 566 567 0 0 1 31 570 832 0 572 567 573 0 +-.008 -.0025 .001 0 0 1
 1 0 0 3e-4 16 572 661 0 ?188 574 569 570 0 0 1 30 573 831 0 574 570 575 0 --.00
8 -.0022 .0034 0 0 -1 16 574 660 0 ?576 577 572 573 0 0 1 30 575 830 0 577 573 5
78 0 +-.008 -.0028 .0034 0 0 -1 16 577 659 0 ?579 580 574 575 0 0 1 31 578 829 0
 580 575 581 0 +-.008 -.0045 .001 0 0 1 1 0 0 3e-4 16 580 630 0 ?179 582 577 578
 0 0 1 30 581 828 0 582 578 583 0 --.008 -.0042 .0034 0 0 -1 16 582 629 0 ?584 5
85 580 581 0 0 1 30 583 827 0 585 581 586 0 +-.008 -.0048 .0034 0 0 -1 16 585 62
8 0 ?587 588 582 583 0 0 1 31 586 826 0 588 583 589 0 +-.008 -.0065 .001 0 0 1 1
 0 0 3e-4 16 588 599 0 ?170 590 585 586 0 0 1 30 589 825 0 590 586 591 0 --.008
 -.0062 .0034 0 0 -1 16 590 598 0 ?592 593 588 589 0 0 1 30 591 824 0 593 589 59
4 0 +-.008 -.0068 .0034 0 0 -1 16 593 597 0 ?595 596 590 591 0 0 1 31 594 823 0
 596 591 597 0 +-.008 -.0085 .001 0 0 1 1 0 0 3e-4 16 596 568 0 ?161 598 593 594
 0 0 1 30 597 822 0 598 594 599 0 --.008 -.0082 .0034 0 0 -1 16 598 567 0 ?600 6
01 596 597 0 0 1 30 599 821 0 601 597 602 0 +-.008 -.0088 .0034 0 0 -1 16 601 56
6 0 ?603 604 598 599 0 0 1 31 602 331 0 604 599 605 0 +-.008 -.0105 0 0 0 -1 -1
 0 0 3e-4 16 604 287 0 ?158 606 601 602 0 0 1 31 605 330 0 606 602 607 0 +-.008
 -.0105 .001 0 0 1 1 0 0 3e-4 16 606 293 0 ?608 609 604 605 0 0 1 30 607 329 0 6
09 605 610 0 --.008 -.0102 .0034 0 0 -1 16 609 292 0 ?611 612 606 607 0 0 1 30 6
10 328 0 612 607 613 0 +-.008 -.0108 .0034 0 0 -1 16 612 291 0 ?614 615 609 610
 0 0 1 30 613 227 0 616 610 617 0 +-.00615 -.0107 .001 1 0 0 16 616 171 0 ?618 6
19 620 613 0 0 1 30 617 226 0 621 613 622 0 +-.00615 -.0107 .001 0 -1 0 16 621 1
67 0 ?623 620 624 617 0 0 1 30 622 225 0 625 617 626 0 +-.00615 .0045 .001 -1 0
 0 16 625 163 0 ?627 624 628 622 0 0 1 30 626 224 0 629 622 630 0 +.00615 -.0107
 .001 0 1 0 16 629 159 0 ?631 628 615 626 0 0 1 30 630 223 0 632 626 633 0 +-.00
615 -.0107 .0034 0 -1 0 16 632 177 0 ?634 635 636 630 0 0 1 30 633 222 0 636 630
 637 0 +-.00615 .0045 .0034 -1 0 0 16 636 176 0 ?638 632 639 633 0 0 1 30 637 22
1 0 639 633 640 0 +.00615 -.0107 .0034 0 1 0 16 639 175 0 ?641 636 619 637 0 0 1
 30 640 220 0 619 637 642 0 +-.00615 -.0107 .0034 1 0 0 16 619 174 0 ?643 639 61
6 640 0 0 1 30 642 219 0 628 640 644 0 +.00615 .0045 .0263532605976599 0 0 -1 16
 628 162 0 ?645 625 629 642 0 0 1 30 644 218 0 624 642 646 0 +-.00615 .0045 .026
3532605976599 0 0 -1 16 624 166 0 ?647 621 625 644 0 0 1 30 646 217 0 620 644 64
8 0 +-.00615 -.0107 .0263532605976599 0 0 -1 16 620 170 0 ?649 616 621 646 0 0 1
 30 648 216 0 615 646 388 0 +.00615 -.0107 .0263532605976599 0 0 -1 16 615 158 0
 ?650 629 612 648 0 0 1 30 388 5 0 389 648 651 0 +.008 .012 .001 -14456028966473
4e-30 1 0 16 389 4 0 ?652 653 654 388 381 654 1 30 651 8 0 653 388 655 0 +-.008
 .012 .001 -1 0 0 16 653 7 0 ?133 656 389 651 0 0 1 30 655 11 0 657 651 658 0 +-
.008 .012 .001 144560289664734e-30 -1 0 16 657 10 0 ?659 360 660 655 661 656 1 3
0 658 14 0 662 655 663 0 +-.008 -.012 .001 1 0 0 16 662 13 0 ?664 665 666 658 36
0 666 1 30 663 69 0 368 658 667 0 +.008 .012 0 -144560289664734e-30 1 0 16 368 5
7 0 ?367 668 669 663 635 669 1 30 667 68 0 668 663 376 0 +-.008 .012 0 -1 0 0 16
 668 53 0 ?121 378 368 667 0 0 1 30 376 67 0 370 667 371 0 +-.008 .012 0 1445602
89664734e-30 -1 0 17 121 0 670 671 24 119 672 668 0 673 +16 378 261 0 ?118 377 6
68 376 370 375 1 17 118 0 674 675 614 116 676 378 0 385 +16 377 399 0 ?101 677 3
78 376 677 370 1 16 375 363 0 ?678 370 679 376 378 679 1 17 678 0 680 560 555 93
 681 375 0 0 +16 679 369 0 ?682 375 683 376 375 683 1 17 682 0 684 568 563 90 68
5 679 0 0 +16 683 375 0 ?686 679 687 376 679 687 1 17 686 0 688 576 571 87 689 6
83 0 0 +16 687 381 0 ?690 683 691 376 683 691 1 17 690 0 692 584 579 84 693 687
 0 0 +16 691 387 0 ?694 687 677 376 687 677 1 17 694 0 695 592 587 81 696 691 0
 0 +16 677 393 0 ?697 691 377 376 691 377 1 17 697 0 698 600 595 78 699 677 0 0
 +15 698 547 0 697 700 0 17 600 0 698 701 697 159 80 598 0 702 +17 595 0 698 697
 701 174 173 593 0 699 +17 699 0 348 703 704 174 697 677 0 0 -17 703 0 348 696 6
99 81 176 538 0 694 -17 704 0 348 699 705 78 167 535 0 697 -17 705 0 348 704 706
 165 101 377 0 0 -17 167 0 707 164 80 165 704 535 0 603 +15 707 582 0 161 708 0
 17 164 0 707 161 167 162 603 601 0 709 -17 80 0 707 167 161 78 600 598 0 704 -1
7 603 0 710 101 711 165 164 601 0 705 +15 710 555 0 711 712 0 17 101 0 710 611 6
03 99 705 377 0 713 +17 711 0 710 603 611 162 152 661 0 0 -17 611 0 710 711 101
 148 713 609 0 0 +17 152 0 714 715 709 148 711 661 0 608 +16 661 476 0 ?152 716
 656 655 716 657 1 16 716 470 0 ?702 717 661 655 717 661 1 16 656 272 0 ?130 661
 653 655 657 660 1 17 130 0 714 664 715 128 718 656 0 675 +16 660 440 0 ?719 657
 720 655 656 720 1 17 719 0 714 721 722 204 723 660 0 0 +16 720 446 0 ?724 660 7
25 655 660 725 1 17 724 0 714 726 721 195 727 720 0 0 +16 725 452 0 ?728 720 729
 655 720 729 1 17 728 0 714 730 726 186 731 725 0 0 +16 729 458 0 ?732 725 717 6
55 725 717 1 17 732 0 714 733 730 177 734 729 0 0 +16 717 464 0 ?735 729 716 655
 729 716 1 17 735 0 714 736 733 168 737 717 0 0 +15 714 1832 0 738 739 740 17 73
6 0 714 702 735 171 170 588 0 701 -17 733 0 714 735 732 180 179 580 0 737 -17 73
7 0 695 587 592 180 735 717 0 0 -15 695 539 0 694 741 0 17 587 0 695 694 737 183
 182 585 0 696 +17 592 0 695 737 694 168 83 590 0 735 +17 83 0 742 176 170 81 59
2 590 0 703 -15 742 613 0 170 743 0 17 176 0 742 173 83 174 703 538 0 595 +17 17
0 0 742 83 173 168 736 588 0 592 +17 173 0 742 170 176 171 595 593 0 736 -14 255
 743 610 744 ?708 745 742 6 746 -0 0 708 745 23 81 1 744 2639 747 743 748 0 0 74
9 750 14 708 579 749 ?751 743 707 6 752 -0 0 751 743 23 14 745 641 753 ?743 754
 755 6 756 -0 0 743 754 23 51 255 746 808 0 743 752 756 0 +-.008 -.0065 .0034 0
 0 -1 3e-4 -1 0 0 13 23 29 0 0 0 0 0 0 10 17 14 17 1869 757 ?758 0 398 6 759 -75
8 760 758 0 23 81 1 757 2642 747 17 761 0 753 762 763 14 758 1861 762 ?411 17 40
2 6 759 -411 17 411 17 23 15 398 1868 0 764 17 0 50 759 86 0 760 765 766 0 +-.00
8 -.012 .001 0 1 0 0 0 1 14 760 79 767 ?739 768 383 6 759 -17 769 739 768 23 81
 1 767 2644 747 760 770 0 762 771 772 14 739 1 771 ?365 760 714 6 773 +0 0 365 7
60 23 14 768 81 774 ?760 775 776 6 766 -712 777 760 775 23 15 383 78 0 380 760 0
 14 769 1643 778 ?779 356 392 6 759 -760 356 779 356 23 81 1 778 2647 747 769 78
0 0 774 781 782 14 779 1198 781 ?783 769 784 6 7 -783 19 783 769 23 14 356 1837
 785 ?769 786 354 6 759 -769 786 769 786 23 15 392 1642 0 390 769 0 81 1 785 264
9 747 356 787 0 781 788 789 14 786 1845 788 ?356 411 790 6 759 -356 411 356 411
 23 81 1 788 2650 747 786 791 0 785 792 793 14 411 1853 792 ?786 758 407 6 759 -
786 758 786 758 23 15 790 1844 0 794 786 0 17 794 0 790 416 31 332 795 796 0 0 -
17 416 0 790 351 794 335 334 428 0 349 +17 31 0 790 794 351 337 26 32 0 795 +17
 795 0 714 347 797 337 794 796 0 0 +16 796 1807 0 ?795 798 360 658 798 360 1 16
 798 1801 0 ?412 799 796 658 799 796 1 16 360 1813 0 ?127 796 657 658 796 662 1
 17 127 0 714 652 347 111 355 360 0 357 +17 652 0 714 458 127 222 800 389 0 0 +1
7 347 0 714 127 795 339 30 422 0 355 -17 357 0 354 355 114 111 359 665 0 800 -17
 359 0 801 367 800 112 357 665 0 363 +16 665 74 0 ?359 802 662 379 0 0 1 17 800
 0 801 359 803 111 652 389 0 0 -15 801 84 0 367 19 0 17 803 0 801 800 367 222 77
 464 0 652 -17 367 0 801 803 359 75 363 368 0 0 +17 77 0 804 292 289 75 803 464
 0 366 +15 804 1228 0 289 805 0 17 292 0 804 294 77 290 366 462 0 806 -17 289 0
 804 77 294 222 458 456 0 803 -17 366 0 348 363 807 75 292 462 0 367 +17 807 0 3
48 366 475 290 808 669 0 0 -17 475 0 348 807 809 72 285 473 0 808 +17 808 0 784
 810 806 72 807 669 0 0 +16 669 953 0 ?808 368 811 663 368 811 1 16 811 959 0 ?8
12 669 813 663 669 813 1 17 812 0 814 815 816 69 809 811 0 0 +16 813 965 0 ?817
 811 818 663 811 818 1 17 817 0 819 820 821 66 822 813 0 0 +16 818 971 0 ?823 81
3 824 663 813 824 1 17 823 0 825 826 827 63 828 818 0 0 +16 824 977 0 ?829 818 8
30 663 818 830 1 17 829 0 831 832 833 60 834 824 0 0 +16 830 983 0 ?835 824 836
 663 824 836 1 17 835 0 837 838 839 57 840 830 0 0 +16 836 989 0 ?841 830 635 66
3 830 635 1 17 841 0 842 843 844 54 845 836 0 0 +16 635 995 0 ?124 836 632 663 8
36 368 1 17 124 0 846 847 848 122 849 635 0 672 +15 846 1126 0 850 851 0 17 847
 0 846 850 124 115 24 11 0 0 -17 848 0 846 124 850 227 232 529 0 849 -17 849 0 3
48 533 672 227 124 635 0 0 -17 672 0 348 849 852 122 121 668 0 24 -17 852 0 348
 672 853 119 374 370 0 0 -17 24 0 670 121 854 122 847 11 0 0 +15 670 82 0 121 77
5 0 17 854 0 670 24 671 115 133 653 0 847 -17 671 0 670 854 121 131 673 25 0 855
 -17 133 0 714 659 135 131 854 653 0 671 +17 659 0 714 722 133 213 855 657 0 0 +
17 135 0 714 133 528 115 850 381 0 854 +17 528 0 714 135 856 230 225 455 0 850 +
17 850 0 846 848 847 230 135 381 0 0 -17 856 0 714 528 519 223 857 387 0 0 +17 2
25 0 858 56 232 223 528 455 0 843 -15 858 1396 0 225 751 0 17 56 0 858 229 225 5
4 843 521 0 533 +17 232 0 858 225 229 230 848 529 0 528 +17 843 0 842 857 841 22
3 56 521 0 856 -15 842 1136 0 857 859 0 17 857 0 842 844 843 226 856 387 0 0 -17
 844 0 842 841 857 238 242 520 0 845 -16 387 1077 0 ?856 860 381 388 860 381 1 1
6 860 1071 0 ?861 862 387 388 862 387 1 17 861 0 714 519 509 234 863 860 0 0 +16
 862 1065 0 ?864 865 860 388 865 860 1 17 864 0 714 509 499 243 866 862 0 0 +16
 865 1059 0 ?867 868 862 388 868 862 1 17 867 0 714 499 489 252 869 865 0 0 +16
 868 1053 0 ?870 871 865 388 871 865 1 17 870 0 714 489 479 261 872 868 0 0 +16
 871 1047 0 ?873 654 868 388 654 868 1 17 873 0 714 479 469 270 874 871 0 0 +16
 654 1041 0 ?875 389 871 388 389 871 1 17 875 0 714 469 458 279 876 654 0 0 +17
 469 0 714 873 875 273 281 467 0 874 +17 458 0 714 875 652 282 289 456 0 876 +17
 876 0 784 806 810 282 875 654 0 0 -15 784 1196 0 876 779 0 17 806 0 784 808 876
 290 294 459 0 807 -17 810 0 784 876 808 279 74 460 0 875 -17 74 0 877 285 281 7
2 810 460 0 475 +15 877 1252 0 281 878 0 17 285 0 877 287 74 283 475 473 0 816 -
17 281 0 877 74 287 279 469 467 0 810 -17 287 0 877 281 285 273 816 470 0 469 +1
7 816 0 814 812 874 283 287 470 0 809 -15 814 1186 0 874 783 0 17 874 0 814 816
 815 273 873 871 0 0 -17 809 0 348 475 485 283 812 811 0 0 -17 485 0 348 809 822
 69 276 483 0 812 +17 822 0 348 485 495 274 817 813 0 0 -17 276 0 879 278 71 274
 485 483 0 821 -15 879 1276 0 272 880 0 17 278 0 879 272 276 264 821 480 0 479 +
17 71 0 879 276 272 69 815 471 0 485 +17 821 0 819 817 872 274 278 480 0 822 -15
 819 1176 0 872 881 0 17 872 0 819 821 820 264 870 868 0 0 -17 820 0 819 872 817
 261 68 481 0 870 -17 68 0 882 267 263 66 820 481 0 495 +15 882 1300 0 263 883 0
 17 267 0 882 269 68 265 495 493 0 827 -17 263 0 882 68 269 261 489 487 0 820 -1
7 495 0 348 822 828 66 267 493 0 817 +17 828 0 348 495 505 265 823 818 0 0 -17 5
05 0 348 828 834 63 258 503 0 823 +17 834 0 348 505 515 256 829 824 0 0 -17 258
 0 884 260 65 256 505 503 0 833 -15 884 1324 0 254 885 0 17 260 0 884 254 258 24
6 833 500 0 499 +17 65 0 884 258 254 63 826 491 0 505 +17 833 0 831 829 866 256
 260 500 0 834 -15 831 1156 0 866 886 0 17 866 0 831 833 832 246 864 862 0 0 -17
 832 0 831 866 829 243 62 501 0 864 -17 62 0 887 249 245 60 832 501 0 515 +15 88
7 1348 0 245 888 0 17 249 0 887 251 62 247 515 513 0 839 -17 245 0 887 62 251 24
3 509 507 0 832 -17 515 0 348 834 840 60 249 513 0 829 +17 840 0 348 515 525 247
 835 830 0 0 -17 525 0 348 840 845 57 240 523 0 835 +17 845 0 348 525 533 238 84
1 836 0 0 -17 240 0 889 242 59 238 525 523 0 844 -15 889 1372 0 236 890 0 17 242
 0 889 236 240 226 844 520 0 519 +17 59 0 889 240 236 57 838 511 0 525 +17 236 0
 889 59 242 234 519 517 0 838 -17 838 0 837 863 835 234 59 511 0 861 -15 837 114
6 0 863 891 0 17 863 0 837 839 838 237 861 860 0 0 -17 839 0 837 835 863 247 251
 510 0 840 -17 251 0 887 245 249 237 839 510 0 509 +17 509 0 714 861 864 237 245
 507 0 863 +14 891 1148 892 ?859 886 837 6 7 -859 886 859 886 23 81 1 892 2652 7
47 891 893 0 792 894 895 14 859 1138 894 ?851 891 842 6 7 -851 891 851 891 23 14
 886 1158 896 ?891 897 831 6 7 -891 897 891 897 23 81 1 896 2654 747 886 898 0 8
94 899 900 14 897 1168 899 ?886 881 825 6 7 -886 881 886 881 23 81 1 899 2655 74
7 897 901 0 896 902 903 14 881 1178 902 ?897 783 819 6 7 -897 783 897 783 23 15
 825 1166 0 869 897 0 17 869 0 825 827 826 255 867 865 0 0 -17 827 0 825 823 869
 265 269 490 0 828 -17 826 0 825 869 823 252 65 491 0 867 -17 269 0 882 263 267
 255 827 490 0 489 +17 489 0 714 867 870 255 263 487 0 869 +81 1 902 2656 747 88
1 904 0 899 905 906 14 783 1188 905 ?881 779 814 6 7 -881 779 881 779 23 81 1 90
5 2657 747 783 907 0 902 908 909 80 255 1 747 910 911 9000 1 1 1 1 1 1 1 1 0 FFF
FTFTFFFFFFF1 81 1 907 2479 912 783 0 905 913 904 914 81 1 908 2658 747 754 915 0
 905 916 917 82 255 1 909 -1969946489 14 754 672 908 ?745 918 919 6 920 -0 0 745
 918 23 81 1 915 2509 912 754 0 908 921 922 923 81 1 916 2659 747 918 921 0 908
 924 925 82 1 917 1689845888 14 918 703 916 ?754 926 927 6 928 -0 0 754 926 23 8
1 1 921 2508 912 918 0 916 929 915 930 81 1 924 2660 747 926 929 0 916 931 932 8
2 1 925 1687945344 14 926 734 924 ?918 933 934 6 935 -0 0 918 933 23 81 1 929 25
07 912 926 0 924 936 921 937 81 1 931 2661 747 933 936 0 924 938 939 82 1 932 16
86044800 14 933 765 931 ?926 940 941 6 942 -0 0 926 940 23 81 1 936 2506 912 933
 0 931 943 929 944 81 1 938 2662 747 945 946 0 931 947 948 82 1 939 1684144256 1
4 945 508 938 ?777 949 680 6 766 -777 949 777 949 23 81 1 946 2492 912 945 0 938
 950 951 952 81 1 947 2663 747 949 950 0 938 953 954 82 1 948 1703346304 14 949
 516 947 ?945 955 684 6 766 -945 955 945 955 23 81 1 950 2491 912 949 0 947 956
 946 957 81 1 953 2664 747 955 956 0 947 958 959 82 1 954 1704132736 14 955 524
 953 ?949 960 688 6 766 -949 960 949 960 23 81 1 956 2490 912 955 0 953 961 950
 962 81 1 958 2665 747 960 961 0 953 963 964 82 1 959 1704919168 14 960 532 958
 ?955 741 692 6 766 -955 741 955 741 23 81 1 961 2489 912 960 0 958 965 956 966
 81 1 963 2666 747 741 965 0 958 967 968 82 1 964 1705705600 14 741 540 963 ?960
 700 695 6 766 -960 700 960 700 23 81 1 965 2488 912 741 0 963 969 961 970 81 1
 967 2667 747 700 969 0 963 971 972 82 1 968 1706492032 14 700 548 967 ?741 712
 698 6 766 -741 712 741 712 23 81 1 969 2487 912 700 0 967 973 965 974 81 1 971
 2668 747 712 973 0 967 975 976 82 1 972 1707278464 14 712 556 971 ?700 851 710
 6 766 -700 768 700 851 23 81 1 973 2486 912 712 0 971 977 969 978 81 1 975 2669
 747 940 943 0 971 979 980 82 1 976 1708064896 14 940 307 975 ?933 981 982 6 983
 -0 0 933 981 23 81 1 943 2505 912 940 0 975 984 936 985 81 1 979 2670 747 777 9
51 0 975 986 987 82 1 980 678297713 14 777 280 979 ?19 945 674 6 766 -768 945 19
 945 23 81 1 951 2493 912 777 0 979 946 988 989 81 1 986 2671 747 981 984 0 979
 990 991 82 1 987 679805041 14 981 205 986 ?940 992 993 6 994 +0 0 940 992 23 81
 1 984 2504 912 981 0 986 995 943 996 81 1 990 2672 747 992 995 0 986 997 998 82
 1 991 1295777898 14 992 198 990 ?981 999 1000 6 1001 -0 0 981 999 23 81 1 995 2
503 912 992 0 990 1002 984 1003 81 1 997 2673 747 999 1002 0 990 1004 1005 82 1
 998 1293942890 14 999 194 997 ?992 1006 1007 6 1008 -0 0 992 1006 23 81 1 1002
 2502 912 999 0 997 1009 995 1010 81 1 1004 2674 747 1006 1009 0 997 1011 1012 8
2 1 1005 1296433258 14 1006 190 1004 ?999 1013 1014 6 1015 -0 0 999 1013 23 81 1
 1009 2501 912 1006 0 1004 1016 1002 1017 81 1 1011 2675 747 1013 1016 0 1004 10
18 1019 82 1 1012 1297219690 14 1013 186 1011 ?1006 365 1020 6 1021 -0 0 1006 36
5 23 81 1 1016 2500 912 1013 0 1011 1022 1009 1023 81 1 1018 2676 747 775 1024 0
 1011 1025 1026 82 1 1019 1297678442 14 775 83 1018 ?768 19 670 6 20 -0 0 768 19
 23 81 1 1024 2495 912 775 0 1018 988 1027 1028 81 1 1025 2677 747 19 988 0 1018
 1029 1030 82 1 1026 342622311 14 19 85 1025 ?775 777 801 6 7 -779 851 775 777 2
3 81 1 988 2494 912 19 0 1025 951 1024 1031 81 1 1029 2678 747 751 1032 0 1025 1
033 1034 82 1 1030 342884487 14 751 1394 1029 ?890 708 858 6 1035 -0 0 890 708 2
3 81 1 1032 2513 912 751 0 1029 1036 1037 1038 81 1 1033 2679 747 890 1037 0 102
9 1039 1040 82 1 1034 -1994588025 14 890 1370 1033 ?888 751 889 6 1041 -0 0 888
 751 23 81 1 1037 2514 912 890 0 1033 1032 1042 1043 81 1 1039 2680 747 888 1042
 0 1033 1044 1045 82 1 1040 -1998585721 14 888 1346 1039 ?885 890 887 6 1046 -0
 0 885 890 23 81 1 1042 2515 912 888 0 1039 1037 1047 1048 81 1 1044 2681 747 88
5 1047 0 1039 1049 1050 82 1 1045 -2002583417 14 885 1322 1044 ?883 888 884 6 10
51 -0 0 883 888 23 81 1 1047 2516 912 885 0 1044 1042 1052 1053 81 1 1049 2682 7
47 883 1052 0 1044 1054 1055 82 1 1050 -2006581113 14 883 1298 1049 ?880 885 882
 6 1056 -0 0 880 885 23 81 1 1052 2517 912 883 0 1049 1047 1057 1058 81 1 1054 2
683 747 880 1057 0 1049 1059 1060 82 1 1055 -2010578809 14 880 1274 1054 ?878 88
3 879 6 1061 -0 0 878 883 23 81 1 1057 2518 912 880 0 1054 1052 1062 1063 81 1 1
059 2684 747 878 1062 0 1054 1064 1065 82 1 1060 -2014576505 14 878 1250 1059 ?8
05 880 877 6 1066 -0 0 805 880 23 81 1 1062 2519 912 878 0 1059 1057 1067 1068 8
1 1 1064 2685 747 805 1067 0 1059 1069 1070 82 1 1065 -2018574201 14 805 1226 10
64 ?1071 878 804 6 1072 -0 0 1071 878 23 81 1 1067 2520 912 805 0 1064 1062 1073
 1074 81 1 1069 2686 747 1071 1073 0 1064 1075 1076 82 1 1070 -2022571897 14 107
1 1670 1069 ?345 805 1077 6 1078 -0 0 345 805 23 81 1 1073 2521 912 1071 0 1069
 1067 1079 1080 81 1 1075 2687 747 365 1022 0 1069 1081 1082 82 1 1076 -19293797
03 14 365 43 1075 ?1013 739 348 6 765 -0 0 1013 739 23 81 1 1022 2499 912 365 0
 1075 1083 1016 1084 81 1 1081 2688 747 345 1079 0 1075 1085 1086 82 1 1082 3411
80557 14 345 2016 1081 ?1087 1071 28 6 1088 -0 0 1087 1071 23 81 1 1079 2522 912
 345 0 1081 1073 1089 1090 81 1 1085 2689 747 1087 1089 0 1081 1091 1092 82 1 10
86 -1108082547 14 1087 1985 1085 ?1093 345 36 6 1094 -0 0 1093 345 23 81 1 1089
 2523 912 1087 0 1085 1079 1095 1096 81 1 1091 2690 747 1093 1095 0 1085 1097 10
98 82 1 1092 -1106182003 14 1093 1954 1091 ?1099 1087 1100 6 1101 -0 0 1099 1087
 23 81 1 1095 2524 912 1093 0 1091 1089 1102 1103 81 1 1097 2691 747 1099 1102 0
 1091 1104 1105 82 1 1098 -1104281459 14 1099 1923 1097 ?1106 1093 1107 6 1108 -
0 0 1106 1093 23 81 1 1102 2525 912 1099 0 1097 1095 1109 1110 81 1 1104 2692 74
7 1106 1109 0 1097 1111 1112 82 1 1105 -1102380915 14 1106 1892 1104 ?0 1099 111
3 6 1114 -0 0 0 1099 23 81 1 1109 2526 912 1106 0 1104 1102 0 1115 81 1 1111 269
3 747 851 977 0 1104 0 1116 82 1 1112 -1100480371 14 851 1128 1111 ?712 859 846
 6 7 -19 859 712 859 23 81 1 977 2485 912 851 0 1111 1117 973 1118 82 1 1116 -19
75451513 80 1 912 0 1119 8001 0 0 0 0 3 5 0 0 0 FFFFTFTFFFFFFF2 81 1 1117 2484 9
12 859 0 894 893 977 1120 83 255 3 1118 .1019607843137254 .1019607843137254 .101
9607843137254 81 1 894 2653 747 859 1117 0 892 896 1121 81 1 893 2483 912 891 0
 892 898 1117 1122 83 3 1120 .1019607843137254 .1019607843137254 .10196078431372
54 81 1 898 2482 912 886 0 896 901 893 1123 83 3 1122 .1019607843137254 .1019607
843137254 .1019607843137254 81 1 901 2481 912 897 0 899 904 898 1124 83 3 1123 .
1019607843137254 .1019607843137254 .1019607843137254 81 1 904 2480 912 881 0 902
 907 901 1125 83 3 1124 .1019607843137254 .1019607843137254 .1019607843137254 83
 3 1125 .1019607843137254 .1019607843137254 .1019607843137254 82 1 1121 -1974534
009 79 255 15 1119 SDL/TYSA_COLOUR83 3 1115 .862745098039216 .741176470588235 .4
98039215686275 15 1113 1895 0 305 1106 0 51 1114 2052 0 1106 0 1108 0 +-.003 -.0
12 .0034 0 0 -1 3e-4 -1 0 0 51 1108 2049 0 1099 1114 1101 0 +-.001 -.012 .0034 0
 0 -1 3e-4 -1 0 0 51 1101 2046 0 1093 1108 1094 0 +.001 -.012 .0034 0 0 -1 3e-4
 -1 0 0 51 1094 2043 0 1087 1101 1088 0 +.003 -.012 .0034 0 0 -1 3e-4 -1 0 0 51
 1088 2040 0 345 1094 1078 0 +.005 -.012 .0034 0 0 -1 3e-4 -1 0 0 51 1078 1687 0
 1071 1088 1072 0 +-.005 -.012 .0034 0 0 -1 3e-4 -1 0 0 51 1072 1444 0 805 1078
 1066 0 +.008 -.0105 .0034 0 0 -1 3e-4 1 0 0 51 1066 1440 0 878 1072 1061 0 +.00
8 -.0085 .0034 0 0 -1 3e-4 1 0 0 51 1061 1436 0 880 1066 1056 0 +.008 -.0065 .00
34 0 0 -1 3e-4 1 0 0 51 1056 1432 0 883 1061 1051 0 +.008 -.0045 .0034 0 0 -1 3e
-4 1 0 0 51 1051 1428 0 885 1056 1046 0 +.008 -.0025 .0034 0 0 -1 3e-4 1 0 0 51
 1046 1424 0 888 1051 1041 0 +.008 -5e-4 .0034 0 0 -1 3e-4 1 0 0 51 1041 1420 0
 890 1046 1035 0 +.008 .0015 .0034 0 0 -1 3e-4 1 0 0 51 1035 1416 0 751 1041 752
 0 +.008 .0035 .0034 0 0 -1 3e-4 1 0 0 51 752 811 0 708 1035 746 0 +-.008 -.0085
 .0034 0 0 -1 3e-4 -1 0 0 17 305 0 1113 50 308 303 738 441 0 393 +17 50 0 1113 3
11 305 48 393 443 0 1126 -17 308 0 1113 305 311 306 400 445 0 738 -17 738 0 714
 1127 1128 306 305 441 0 764 -17 393 0 392 1129 390 303 50 443 0 1128 +17 1129 0
 392 394 393 297 1128 666 0 0 -17 1128 0 714 738 1130 303 1129 666 0 0 +17 1130
 0 714 1128 664 297 296 449 0 1129 -16 666 1635 0 ?1128 662 1131 658 662 1131 1
 16 1131 1789 0 ?1127 666 799 658 666 799 1 17 1127 0 714 1132 738 312 764 1131
 0 0 +16 799 1795 0 ?1133 1131 798 658 1131 798 1 17 1133 0 714 1134 1132 321 11
35 799 0 0 +17 1134 0 714 412 1133 324 323 430 0 410 -17 1132 0 714 1133 1127 31
5 314 435 0 1135 -17 1135 0 402 404 403 315 1133 799 0 0 -15 402 1860 0 1135 758
 0 17 404 0 402 401 1135 318 317 439 0 405 +17 403 0 402 1135 401 321 42 432 0 1
133 +17 42 0 1100 329 323 35 403 432 0 414 -15 1100 1957 0 323 1093 0 17 329 0 1
100 326 42 327 414 415 0 408 +17 323 0 1100 42 326 321 1134 430 0 403 +17 326 0
 1100 323 329 324 408 413 0 1134 -17 317 0 1107 314 320 315 404 439 0 1132 -17 4
05 0 348 1136 414 318 401 397 0 0 -17 1136 0 348 364 405 43 320 418 0 396 -17 36
4 0 348 1126 1136 309 396 391 0 0 -17 320 0 1107 317 47 318 1136 418 0 404 +16 4
18 1907 0 ?320 424 415 420 0 0 1 16 424 1876 0 ?311 422 418 1137 0 0 1 31 420 20
81 0 418 1137 419 0 +-.001 -.012 0 0 0 -1 -1 0 0 3e-4 31 1137 2083 0 424 0 420 0
 +-.003 -.012 0 0 0 -1 -1 0 0 3e-4 17 311 0 1113 308 50 309 1126 424 0 400 +17 1
126 0 348 395 364 48 311 424 0 390 -17 400 0 398 396 764 309 308 445 0 364 +17 7
64 0 398 400 399 306 1127 1131 0 0 -17 399 0 398 764 396 312 47 437 0 1127 +17 4
7 0 1107 320 314 43 399 437 0 1136 -15 1107 1926 0 314 1099 0 17 314 0 1107 47 3
17 312 1132 435 0 399 +17 395 0 348 1138 1126 300 390 382 0 0 -17 1138 0 348 386
 395 51 302 447 0 380 -17 386 0 348 676 1138 116 380 372 0 0 -17 302 0 1077 299
 53 300 1138 447 0 394 +15 1077 1673 0 296 1071 0 17 299 0 1077 296 302 297 394
 453 0 1130 -17 53 0 1077 302 296 51 384 451 0 1138 -17 394 0 392 390 1129 300 2
99 453 0 395 +17 296 0 1077 53 299 233 1130 449 0 384 +17 384 0 383 1139 380 233
 53 451 0 664 +17 1139 0 383 385 384 128 664 662 0 0 -17 664 0 714 1130 130 233
 1139 662 0 0 +17 385 0 383 380 1139 116 675 802 0 386 +17 675 0 674 718 118 128
 385 802 0 1139 -16 802 75 0 ?385 25 665 1140 0 0 1 16 25 76 0 ?673 11 802 21 0
 0 1 30 1140 91 0 802 379 21 0 +-.008 -.012 .001 0 0 -1 30 379 90 0 665 371 1140
 0 +.008 -.012 .001 0 0 -1 30 21 92 0 25 1140 8 0 +-.008 .012 .001 0 0 -1 17 673
 0 776 374 855 119 671 25 0 852 +15 776 80 0 374 768 0 17 374 0 776 552 673 96 8
52 370 0 0 +17 855 0 776 673 552 131 659 657 0 0 -17 552 0 776 855 374 213 98 55
0 0 659 +17 98 0 941 221 215 96 552 550 0 853 -15 941 768 0 215 933 0 17 221 0 9
41 218 98 219 853 466 0 555 +17 215 0 941 98 218 213 722 537 0 552 +17 853 0 348
 852 681 96 221 466 0 374 -17 681 0 348 853 1141 219 678 375 0 0 -17 1141 0 348
 681 685 93 212 546 0 678 -17 685 0 348 1141 1142 210 682 679 0 0 -17 212 0 934
 209 95 210 1141 546 0 563 +15 934 737 0 206 926 0 17 209 0 934 206 212 207 563
 561 0 721 -17 95 0 934 212 206 93 560 558 0 1141 -17 563 0 684 682 727 210 209
 561 0 685 +15 684 515 0 682 949 0 17 727 0 684 563 568 207 724 720 0 0 -17 568
 0 684 727 682 195 92 566 0 724 +17 92 0 927 203 197 90 568 566 0 1142 -15 927 7
06 0 197 918 0 17 203 0 927 200 92 201 1142 544 0 571 +17 197 0 927 92 200 195 7
26 564 0 568 +17 1142 0 348 685 689 90 203 544 0 682 -17 689 0 348 1142 1143 201
 686 683 0 0 -17 1143 0 348 689 693 87 194 542 0 686 -17 693 0 348 1143 1144 192
 690 687 0 0 -17 194 0 919 191 89 192 1143 542 0 579 +15 919 675 0 188 754 0 17
 191 0 919 188 194 189 579 577 0 730 -17 89 0 919 194 188 87 576 574 0 1143 -17
 579 0 692 690 734 192 191 577 0 693 +15 692 531 0 690 960 0 17 734 0 692 579 58
4 189 732 729 0 0 -17 584 0 692 734 690 177 86 582 0 732 +17 86 0 755 185 179 84
 584 582 0 1144 -15 755 644 0 179 745 0 17 185 0 755 182 86 183 1144 540 0 587 +
17 179 0 755 86 182 177 733 580 0 584 +17 1144 0 348 693 696 84 185 540 0 690 -1
7 696 0 348 1144 703 183 694 691 0 0 -17 182 0 755 179 185 180 587 585 0 733 -17
 188 0 919 89 191 186 730 572 0 576 +17 576 0 688 731 686 186 89 574 0 728 +15 6
88 523 0 686 955 0 17 731 0 688 571 576 198 728 725 0 0 -17 571 0 688 686 731 20
1 200 569 0 689 +17 200 0 927 197 203 198 571 569 0 726 -17 726 0 714 728 724 19
8 197 564 0 731 -17 730 0 714 732 728 189 188 572 0 734 -17 206 0 934 95 209 204
 721 556 0 560 +17 560 0 680 723 678 204 95 558 0 719 +15 680 507 0 678 945 0 17
 723 0 680 555 560 216 719 660 0 0 -17 555 0 680 678 723 219 218 553 0 681 +17 2
18 0 941 215 221 216 555 553 0 722 -17 722 0 714 719 659 216 215 537 0 723 -17 7
21 0 714 724 719 207 206 556 0 727 -15 674 279 0 718 777 0 17 718 0 674 614 675
 153 130 656 0 0 -17 614 0 674 118 718 156 155 612 0 676 +17 155 0 982 608 158 1
53 614 612 0 715 -17 676 0 348 706 386 156 118 378 0 0 -17 706 0 348 705 676 99
 158 604 0 0 -17 158 0 982 155 713 156 706 604 0 614 +15 982 310 0 608 940 0 17
 713 0 982 158 608 99 611 609 0 706 -17 608 0 982 713 155 148 715 606 0 611 +17
 715 0 714 130 152 153 608 606 0 718 -17 412 0 714 797 1134 330 410 798 0 0 +17
 410 0 407 408 39 324 412 798 0 0 -17 797 0 714 795 412 332 38 361 0 794 -17 38
 0 36 34 334 330 797 361 0 39 +15 36 1988 0 38 1087 0 17 334 0 36 38 37 332 416
 428 0 797 -83 3 1110 .862745098039216 .741176470588235 .498039215686275 83 3 11
03 .862745098039216 .741176470588235 .498039215686275 83 3 1096 .862745098039216
 .741176470588235 .498039215686275 83 3 1090 .862745098039216 .741176470588235 .
498039215686275 81 1 1083 2498 912 739 0 771 770 1022 1145 83 3 1084 .1019607843
137254 .1019607843137254 .1019607843137254 81 1 771 2645 747 739 1083 0 767 774
 1146 81 1 770 2497 912 760 0 767 1027 1083 1147 83 3 1145 .1019607843137254 .10
19607843137254 .1019607843137254 81 1 1027 2496 912 768 0 774 1024 770 1148 83 3
 1147 .1019607843137254 .1019607843137254 .1019607843137254 81 1 774 2646 747 76
8 1027 0 771 778 1149 83 3 1148 .1019607843137254 .1019607843137254 .10196078431
37254 82 1 1149 342360192 82 1 1146 335544461 50 765 65 0 365 773 759 0 +0 0 0 0
 0 1 1 0 0 50 773 2 0 739 994 765 0 +0 0 .001 0 0 1 1 0 0 50 994 210 0 981 1021
 773 0 +0 0 .0034 0 0 1 1 0 0 50 1021 211 0 1013 1015 994 0 +.00615 -.0107 .0263
532605976599 -1 0 0 0 0 1 50 1015 212 0 1006 1008 1021 0 +-.00615 .0045 .0263532
605976599 0 -1 0 0 0 -1 50 1008 213 0 999 1001 1015 0 +-.00615 -.0107 .026353260
5976599 1 0 0 0 0 -1 50 1001 214 0 992 983 1008 0 +-.00615 -.0107 .0263532605976
599 0 1 0 0 0 1 51 983 324 0 940 942 1001 0 +-.008 -.0105 .0034 0 0 -1 3e-4 -1 0
 0 51 942 793 0 933 935 983 0 +-.008 .0035 .0034 0 0 -1 3e-4 -1 0 0 51 935 796 0
 926 928 942 0 +-.008 .0015 .0034 0 0 -1 3e-4 -1 0 0 51 928 799 0 918 920 935 0
 +-.008 -5e-4 .0034 0 0 -1 3e-4 -1 0 0 51 920 802 0 754 756 928 0 +-.008 -.0025
 .0034 0 0 -1 3e-4 -1 0 0 51 756 805 0 745 746 920 0 +-.008 -.0045 .0034 0 0 -1
 3e-4 -1 0 0 83 3 1080 .862745098039216 .741176470588235 .498039215686275 83 3 1
074 .862745098039216 .741176470588235 .498039215686275 83 3 1068 .86274509803921
6 .741176470588235 .498039215686275 83 3 1063 .862745098039216 .741176470588235
 .498039215686275 83 3 1058 .862745098039216 .741176470588235 .498039215686275 8
3 3 1053 .862745098039216 .741176470588235 .498039215686275 83 3 1048 .862745098
039216 .741176470588235 .498039215686275 83 3 1043 .862745098039216 .74117647058
8235 .498039215686275 81 1 1036 2512 912 708 0 749 748 1032 1150 83 3 1038 .8627
45098039216 .741176470588235 .498039215686275 81 1 749 2640 747 708 1036 0 744 7
53 1151 81 1 748 2511 912 743 0 744 922 1036 1152 83 3 1150 .862745098039216 .74
1176470588235 .498039215686275 81 1 922 2510 912 745 0 753 915 748 1153 83 3 115
2 .862745098039216 .741176470588235 .498039215686275 81 1 753 2641 747 745 922 0
 749 757 1154 83 3 1153 .862745098039216 .741176470588235 .498039215686275 82 1
 1154 1691746432 82 1 1151 1695547520 83 3 1031 .1019607843137254 .1019607843137
254 .1019607843137254 83 3 1028 .1019607843137254 .1019607843137254 .10196078431
37254 50 20 88 0 775 766 7 0 +-.008 .012 .001 0 -1 0 0 0 -1 50 766 87 0 768 759
 20 0 +-.008 .012 .001 1 144560289664734e-30 0 -144560289664734e-30 1 0 83 3 102
3 .823529411764706 .819607843137255 .780392156862745 15 1020 189 0 1155 1013 0 1
7 1155 0 1020 650 1156 125 641 639 0 643 -17 650 0 1020 631 1155 102 137 615 0 6
18 +17 1156 0 1020 1155 631 145 645 628 0 641 -17 641 0 993 638 643 145 1155 639
 0 0 +17 643 0 993 641 634 125 1157 619 0 0 +15 993 207 0 643 981 0 17 634 0 993
 643 638 138 144 632 0 0 +17 1157 0 1000 649 137 138 643 619 0 634 -15 1000 201
 0 1157 992 0 17 649 0 1000 618 1157 105 150 620 0 623 +17 137 0 1000 1157 618 1
25 650 615 0 1155 -17 618 0 1000 137 649 102 107 616 0 0 +17 107 0 740 141 104 1
05 618 616 0 649 -15 740 154 0 104 739 0 17 141 0 740 110 107 139 623 621 0 647
 -17 104 0 740 107 110 102 631 629 0 650 -17 110 0 740 104 141 108 627 625 0 645
 -17 631 0 1020 1156 650 108 104 629 0 0 +17 627 0 1014 1158 645 139 110 625 0 0
 +17 645 0 1014 627 147 108 1156 628 0 631 +15 1014 193 0 147 1006 0 17 147 0 10
14 645 1158 145 638 636 0 1156 -17 1158 0 1014 147 627 142 647 624 0 638 -17 638
 0 993 634 641 142 147 636 0 0 +17 647 0 1007 623 144 139 1158 624 0 627 +15 100
7 197 0 144 999 0 17 623 0 1007 150 647 105 141 621 0 0 +17 144 0 1007 647 150 1
42 634 632 0 1158 -17 150 0 1007 144 623 138 649 620 0 1157 -83 3 1017 .82352941
1764706 .819607843137255 .780392156862745 83 3 1010 .823529411764706 .8196078431
37255 .780392156862745 83 3 1003 .823529411764706 .819607843137255 .780392156862
745 83 3 996 .823529411764706 .819607843137255 .780392156862745 83 3 989 .101960
7843137254 .1019607843137254 .1019607843137254 83 3 985 .862745098039216 .741176
470588235 .498039215686275 83 3 978 .1019607843137254 .1019607843137254 .1019607
843137254 83 3 974 .1019607843137254 .1019607843137254 .1019607843137254 83 3 97
0 .1019607843137254 .1019607843137254 .1019607843137254 83 3 966 .10196078431372
54 .1019607843137254 .1019607843137254 83 3 962 .1019607843137254 .1019607843137
254 .1019607843137254 83 3 957 .1019607843137254 .1019607843137254 .101960784313
7254 83 3 952 .1019607843137254 .1019607843137254 .1019607843137254 83 3 944 .86
2745098039216 .741176470588235 .498039215686275 83 3 937 .862745098039216 .74117
6470588235 .498039215686275 83 3 930 .862745098039216 .741176470588235 .49803921
5686275 83 3 923 .862745098039216 .741176470588235 .498039215686275 81 1 913 247
8 912 779 0 781 780 907 1159 83 3 914 .1019607843137254 .1019607843137254 .10196
07843137254 81 1 781 2648 747 779 913 0 778 785 1160 81 1 780 2477 912 769 0 778
 787 913 1161 83 3 1159 .1019607843137254 .1019607843137254 .1019607843137254 81
 1 787 2476 912 356 0 785 791 780 1162 83 3 1161 .1019607843137254 .101960784313
7254 .1019607843137254 81 1 791 2475 912 786 0 788 1163 787 1164 83 3 1162 .1019
607843137254 .1019607843137254 .1019607843137254 81 1 1163 2474 912 411 0 792 11
65 791 1166 83 3 1164 .1019607843137254 .1019607843137254 .1019607843137254 81 1
 792 2651 747 411 1163 0 788 892 1167 81 1 1165 2473 912 758 0 762 761 1163 1168
 83 3 1166 .1019607843137254 .1019607843137254 .1019607843137254 81 1 762 2643 7
47 758 1165 0 757 767 1169 81 1 761 2472 912 17 0 757 0 1165 1170 83 3 1168 .101
9607843137254 .1019607843137254 .1019607843137254 83 3 1170 .1019607843137254 .1
019607843137254 .1019607843137254 82 1 1169 -1092419443 82 1 1167 -1093205875 82
 1 1160 -1969028985 79 14 911 SWEntUnchanged82 1 906 -1970863993 82 1 903 -19717
81497 82 1 900 -1972699001 82 1 895 -1973616505 17 519 0 714 856 861 226 236 517
 0 857 +17 533 0 348 845 849 54 229 531 0 841 +17 229 0 858 232 56 227 533 531 0
 848 -17 254 0 884 65 260 252 499 497 0 826 -17 499 0 714 864 867 246 254 497 0
 866 +17 272 0 879 71 278 270 479 477 0 815 -17 815 0 814 874 812 270 71 471 0 8
73 -17 479 0 714 870 873 264 272 477 0 872 +17 294 0 804 289 292 282 806 459 0 4
58 +17 30 0 28 26 341 337 347 422 0 31 +17 351 0 790 31 416 12 349 369 0 0 +82 1
 793 -1093992307 82 1 789 -1094778739 82 1 782 -1927872371 82 1 772 342098057 82
 1 763 -1091633011 82 1 750 1693646976 17 702 0 714 709 736 159 701 716 0 0 +17
 701 0 698 595 600 171 702 716 0 0 -17 709 0 714 152 702 162 161 596 0 711 -17 1
61 0 707 80 164 159 709 596 0 600 +19 18 95 0 1 0 10 6 S0 50 16 138 0 1 1171 4 0
 +0 0 .0034 0 0 1 1 0 0 50 1171 137 0 1 1172 16 0 +0 0 .0034 0 0 1 1 0 0 50 1172
 136 0 1 0 1171 0 +0 0 .0034 0 0 1 1 0 0 74 4 CI16 index_map_offset0 0 1 dCCZ20
 15 3 0 0 1111 2 1109 0 0 0 0 0 0 0 0 0 0 0 0 0 0 0 0 0 80 2 13 1173 1174 8004 0
 0 0 0 3 5 0 0 0 FFTFFFFFFFFFFF2 3 83 1 14 1 79 16 1174 SDL/TYSA_DENSITY1 0 
