**ABCDEFGHIJKLMNOPQRSTUVWXYZabcdefghijklmnopqrstuvwxyz**************************
**PARASOLID !"#$%&'()*+,-./:;<=>?@[\]^_`{|}~0123456789**************************
**PART1;
MC=AMD64;
MC_MODEL=Intel64 Family 6 Model 60 Stepping 3, GenuineIntel;
MC_ID=unknown;
OS=Windows_NT;
OS_RELEASE=unknown;
FRU=Parasolid Version 30.0, build 310,  6- 8-2018;
APPL=SOLIDWORKS 2018-2018316;
SITE=;
USER=unknown;
FORMAT=text;
GUISE=transmit;
KEY=SILABS_Si7021;
FILE=SILABS_Si7021.x_t;
DATE=Wed Oct 23 14:17:27 2019;
**PART2;
SCH=SCH_3000310_30000;
USFLD_SIZE=0;
**PART3;
**END_OF_HEADER*****************************************************************
T51 : TRANSMIT FILE created by modeller version 300031023 SCH_3000310_30000_1300
6205 0 12 33 CCCCCCI4 mesh1006 0 I8 polyline1008 0 CCCCCCCDI5 owner1040 0 CCCCCC
I13 boundary_mesh1006 0 I17 boundary_polyline1008 0 CCCA16 index_map_offset0 0 1
 dA9 index_map82 0 A17 node_id_index_map82 0 A20 schema_embedding_map82 0 A5 chi
ld12 0 A14 lowest_node_id0 0 1 dZ1 2303 2 3 4 5 0 0 0 0 1e3 1e-8 0 6 0 1 0 1 1 7
 8 9 10 0 0 11 12 13 0 0 0 0 0 0 81 255 2 2 1968 14 1 0 0 0 0 15 0 70 11 CI9 lis
t_type0 0 1 uI10 notransmit0 0 1 lCCCDCCDI12 finger_index0 0 1 dI12 finger_block
1012 0 CZ3 0 4 T1 0 0 3 20 1 16 16 51 255 4 1689 0 1 0 0 17 +0 -3061616997868385
e-35 -5e-4 0 -612323399573677e-31 -1 45e-5 0 1 -612323399573677e-31 137 255 5 17
10 0 1 0 0 0 +4 18 0 ?13 255 7 106 0 1 0 19 0 0 20 0 50 255 8 101 0 21 22 0 0 +0
 -.0012 5e-5 0 1 0 0 0 1 38 12 CCCCCCCCCCCA17 intersection_data204 0 Z9 1904 0 1
 23 0 24 +25 26 27 28 29 30 29 255 10 1905 0 31 32 0 .000450088184479186 1971650
627848565e-22 -5e-4 19 8 CCCCCCCA5 owner12 0 Z11 35 0 1 20 0 33 V0 16 255 12 89
 0 ?34 0 35 36 0 0 1 18 255 13 1758 0 37 0 38 32 .0001080294803061642 1 17 255 3
7 0 39 40 41 13 42 43 44 45 -18 38 772 0 46 13 47 48 ?1 29 32 1781 0 13 48 10 -.
000450044192399121 -2020930169538065e-22 -5e-4 29 48 776 0 38 49 32 .0015 -.0012
 734788079488412e-34 29 49 487 0 47 50 48 75e-5 8e-4 -489858719658941e-34 18 47
 485 0 51 38 52 49 ?1 29 50 483 0 52 53 49 35e-5 .0012 -734788079488412e-34 18 5
2 481 0 54 47 55 50 ?1 29 53 479 0 55 56 50 -75e-5 .0012 -734788079488412e-34 18
 55 477 0 57 52 58 53 ?1 29 56 472 0 58 59 53 -75e-5 -.0012 734788079488412e-34
 18 58 470 0 60 55 61 56 ?1 29 59 389 0 61 62 56 -.0013 .0012 -732328401937832e-
34 18 61 387 0 63 58 64 59 ?1 29 62 382 0 64 65 59 -.0015 .0012 -734788079488412
e-34 18 64 377 0 66 61 67 62 ?1 29 65 290 0 67 68 62 -.0013 2e-4 -12246467991473
54e-35 18 67 288 0 69 64 70 65 ?1 29 68 283 0 70 71 65 -.0015 2e-4 -122464679914
7354e-35 18 70 278 0 72 67 73 68 ?1 29 71 277 0 73 74 68 -.0015 -2e-4 1224646799
147354e-35 18 73 272 0 75 70 76 71 ?1 29 74 84 0 77 78 71 -.0013 -8e-4 0 18 77 7
5 0 79 80 81 74 ?1 29 78 26 0 76 82 74 -.0013 -8e-4 5e-5 18 76 24 0 83 73 80 78
 ?1 29 82 23 0 80 84 78 -.0013 -.0012 5e-5 18 80 21 0 85 76 77 82 ?1 29 84 247 0
 81 86 82 -.0013 -.0012 0 18 81 184 0 87 77 88 84 ?1 29 86 248 0 88 89 84 -.0015
 -8e-4 489858719658941e-34 18 88 185 0 90 81 91 86 1e-8 1 29 89 249 0 91 92 86 -
.0015 -.0012 734788079488412e-34 18 91 194 0 93 88 94 89 1e-8 1 29 92 250 0 95 9
6 89 -.0015 -.0015 918485099360515e-34 18 95 190 0 97 98 99 92 ?1 29 96 251 0 99
 100 92 .0015 -.0015 918485099360515e-34 18 99 189 0 101 95 102 96 ?1 29 100 252
 0 102 103 96 .0015 .0015 -918485099360515e-34 18 102 187 0 104 99 105 100 ?1 29
 103 253 0 105 106 100 -.0015 .0015 -918485099360515e-34 18 105 186 0 107 102 10
8 103 ?1 29 106 254 0 94 109 103 -.0015 -.0015 -8e-4 18 94 193 0 110 91 111 106
 ?1 29 109 255 0 111 112 106 .0015 -.0015 -8e-4 18 111 192 0 113 94 114 109 ?1 2
9 112 256 0 114 115 109 .0015 .0015 -8e-4 18 114 191 0 116 111 98 112 ?1 29 115
 257 0 98 117 112 -.0015 .0015 -8e-4 18 98 188 0 118 114 95 115 ?1 29 117 357 0
 119 120 115 -.0013 -2e-4 0 18 119 311 0 121 122 123 117 ?1 29 120 361 0 108 124
 117 -.0013 -2e-4 5e-5 18 108 317 0 125 105 122 120 ?1 29 124 364 0 122 126 120
 -.0013 2e-4 5e-5 18 122 310 0 127 108 119 124 ?1 29 126 456 0 128 129 124 -.001
3 8e-4 0 18 128 410 0 130 131 132 126 ?1 29 129 460 0 123 133 126 -.0013 8e-4 5e
-5 18 123 416 0 134 119 131 129 ?1 29 133 463 0 131 135 129 -.0013 .0012 5e-5 18
 131 409 0 136 123 128 133 ?1 29 135 565 0 137 138 133 75e-5 -.0012 0 18 137 515
 0 139 140 141 135 ?1 29 138 570 0 132 142 135 75e-5 -.0012 5e-5 18 132 518 0 14
3 128 144 138 ?1 29 142 571 0 144 145 138 -75e-5 -.0012 5e-5 18 144 513 0 146 13
2 147 142 ?1 29 145 572 0 147 148 142 -75e-5 .0012 5e-5 18 147 511 0 149 144 150
 145 ?1 29 148 573 0 150 151 145 35e-5 .0012 5e-5 18 150 517 0 152 147 140 148 ?
1 29 151 574 0 140 153 148 75e-5 8e-4 5e-5 18 140 510 0 154 150 137 151 ?1 29 15
3 661 0 155 156 151 .0013 8e-4 0 18 155 615 0 157 158 159 153 ?1 29 156 662 0 15
9 160 153 .0013 .0012 0 18 159 620 0 161 155 162 156 ?1 29 160 665 0 141 163 156
 .0013 8e-4 5e-5 18 141 618 0 164 137 158 160 ?1 29 163 666 0 158 165 160 .0013
 .0012 5e-5 18 158 613 0 166 141 155 163 ?1 29 165 756 0 167 168 163 .0013 -2e-4
 0 18 167 710 0 169 170 171 165 ?1 29 168 757 0 171 172 165 .0013 2e-4 0 18 171
 715 0 173 167 174 168 ?1 29 172 760 0 162 175 168 .0013 -2e-4 5e-5 18 162 713 0
 176 159 170 172 ?1 29 175 761 0 170 177 172 .0013 2e-4 5e-5 18 170 708 0 178 16
2 167 175 ?1 29 177 849 0 179 180 175 .0013 -8e-4 0 18 179 804 0 181 182 183 177
 ?1 29 180 852 0 183 184 177 .0013 -.0012 0 18 183 806 0 185 179 186 180 ?1 29 1
84 853 0 174 187 180 .0013 -8e-4 5e-5 18 174 810 0 188 171 182 184 ?1 29 187 856
 0 182 189 184 .0013 -.0012 5e-5 18 182 803 0 190 174 179 187 ?1 29 189 1010 0 1
91 192 187 .0015 -8e-4 0 18 191 961 0 193 194 195 189 ?1 29 192 1013 0 186 196 1
89 .001518 -8e-4 5e-5 18 186 965 0 197 183 198 192 ?1 29 196 1014 0 198 199 192
 .001518 -8e-4 0 18 198 964 0 200 186 201 196 ?1 29 199 1015 0 201 202 196 .0015
18 -.0012 0 18 201 963 0 203 198 194 199 ?1 29 202 1016 0 194 204 199 .001518 -.
0012 5e-5 18 194 960 0 205 201 191 202 ?1 29 204 1115 0 206 207 202 .0015 2e-4 2
71050543121376e-34 18 206 1066 0 208 209 210 204 ?1 29 207 1116 0 210 211 204 .0
015 -2e-4 0 18 210 1064 0 212 206 213 207 ?1 29 211 1118 0 195 214 207 .001518 2
e-4 5e-5 18 195 1070 0 215 191 216 211 ?1 29 214 1119 0 216 217 211 .001518 2e-4
 271050543121376e-34 18 216 1069 0 218 195 219 214 ?1 29 217 1120 0 219 220 214
 .001518 -2e-4 0 18 219 1068 0 221 216 209 217 ?1 29 220 1121 0 209 222 217 .001
518 -2e-4 5e-5 18 209 1065 0 223 219 206 220 ?1 29 222 1220 0 224 225 220 .0015
 .0012 0 18 224 1171 0 226 227 228 222 ?1 29 225 1221 0 228 229 222 .0015 8e-4 0
 18 228 1169 0 230 224 231 225 ?1 29 229 1223 0 213 232 225 .001518 .0012 5e-5 1
8 213 1175 0 233 210 234 229 ?1 29 232 1224 0 234 235 229 .001518 .0012 0 18 234
 1174 0 236 213 237 232 ?1 29 235 1225 0 237 238 232 .001518 8e-4 0 18 237 1173
 0 239 234 227 235 ?1 29 238 1226 0 227 240 235 .001518 8e-4 5e-5 18 227 1170 0
 241 237 224 238 ?1 29 240 1379 0 242 243 238 -.0015 8e-4 0 18 242 1330 0 244 24
5 246 240 ?1 29 243 1382 0 231 247 240 -.001518 8e-4 5e-5 18 231 1334 0 248 228
 249 243 ?1 29 247 1383 0 249 250 243 -.001518 8e-4 0 18 249 1333 0 251 231 252
 247 ?1 29 250 1384 0 252 253 247 -.001518 .0012 -1084202172485504e-34 18 252 13
32 0 254 249 245 250 ?1 29 253 1385 0 245 255 250 -.001518 .0012 5e-5 18 245 132
9 0 256 252 242 253 ?1 29 255 1490 0 246 257 253 -.001518 -2e-4 5e-5 18 246 1442
 0 258 242 259 255 ?1 29 257 1491 0 259 260 255 -.001518 -2e-4 0 18 259 1441 0 2
61 246 262 257 ?1 29 260 1492 0 262 263 257 -.001518 2e-4 -271050543121376e-34 1
8 262 1440 0 264 259 265 260 ?1 29 263 1493 0 265 266 260 -.001518 2e-4 5e-5 18
 265 1437 0 267 262 268 263 ?1 29 266 1599 0 268 269 263 -.001518 -.0012 5e-5 18
 268 1551 0 270 265 271 266 ?1 29 269 1600 0 271 272 266 -.001518 -.0012 0 18 27
1 1550 0 273 268 274 269 ?1 29 272 1601 0 274 275 269 -.001518 -8e-4 0 18 274 15
49 0 276 271 277 272 ?1 29 275 1602 0 277 278 272 -.001518 -8e-4 5e-5 18 277 154
6 0 279 274 280 275 ?1 29 278 1855 0 280 281 275 2158402000759085e-22 -.00045004
4194378436 -5e-4 18 280 1806 0 40 277 31 278 .000108060064435132 1 29 281 1857 0
 282 0 278 -32883963079036e-20 .000450043994557215 -5e-4 18 282 1808 0 41 31 0 2
81 .0001079101883078838 1 17 41 0 39 37 283 282 284 285 0 42 -18 31 1807 0 283 2
80 282 10 ?1 17 283 0 39 41 40 31 286 287 0 284 -15 255 39 1826 0 37 288 289 17
 40 0 39 283 37 280 45 290 291 286 -17 286 0 292 45 284 280 283 287 0 0 +16 287
 1747 0 ?286 285 290 23 0 0 1 17 284 0 292 286 42 31 41 285 0 0 +15 292 1682 0 2
84 293 0 17 42 0 292 284 45 282 37 43 294 0 +16 285 1668 0 ?284 295 287 296 0 0
 1 16 295 1525 0 ?297 298 285 299 0 0 1 133 255 296 1895 0 285 300 301 0 +301 -3
28872615990433e-21 .000450088105427641 -5e-4 .000450088184479186 197165062784856
5e-22 -5e-4 0 .000712404326691314 137 300 1890 0 1 294 296 302 +26 303 0 ?38 301
 1896 0 1 296 304 305 +25 26 306 307 308 309 38 304 1899 0 310 301 23 0 -25 311
 312 313 313 314 141 255 305 296 305 305 301 124 255 25 1831 0 288 0 26 315 +316
 317 50 26 1691 0 293 25 318 319 +-1479114197289396e-50 -320374785468663e-34 -5e
-4 -1848892746611745e-47 -630089756675957e-31 -1 0 1 -630089756675957e-31 40 255
 7 306 0 1 7 2580056684501255e-20 .3392030393948025 ??-328872615990433e-21 .0004
50088105427641 -5e-4 233116913633791e-19 .000449479201807493 -5e-4 .000117216398
199148 .0004344694402986925 -5e-4 .000255287304347918 .0003706850664270465 -5e-4
 .000363612856658294 .000265017712933482 -5e-4 .000430750844458915 .000130105870
2780642 -5e-4 .000450088184479186 197165062787689e-21 -5e-4 41 3 CI8 term_use0 0
 1 cCZ1 307 L?-328872615990433e-21 .000450088105427641 -5e-4 41 1 308 L?.0004500
88184479186 197165062787689e-21 -5e-4 204 2 17 INTERSECTION_DATA17 Intersection
 data7 uv_type0 0 1 u6 values0 1 1 fT28 309 4 .454128710201425 -1043419160892208
e-31 .000450088105427641 -328872615990433e-21 .46244529586946 -312747177923198e-
30 .000449479201807493 233116913633791e-19 .495278252066436 -513043735661037e-30
 .0004344694402986925 .000117216398199148 .547937148819454 -76178457395566e-29 .
0003706850664270465 .000255287304347918 .60237476824418 -926490295939763e-30 .00
02650177129334825 .000363612856658294 .657085324418681 -989121510221092e-30 .000
1301058702780642 .000430750844458915 .70417517017431 -960388265963863e-30 197165
062787721e-21 .000450088184479186 14 255 293 1679 320 ?0 288 292 7 26 +0 0 0 288
 33 50 318 1582 0 321 26 322 0 +-.001518 0 0 1 0 0 0 0 -1 141 319 323 324 325 26
 137 323 1870 0 1 326 294 327 +26 328 0 ?141 324 9 329 319 26 141 325 300 319 32
9 26 141 329 301 325 324 26 133 326 1869 0 45 330 323 0 +323 -3761257958494065e-
20 -.000448425349257785 -5e-4 -.000448368874955264 -3827991603113795e-20 -5e-4 0
 1 133 294 1889 0 42 323 300 0 +300 -.000448425380553771 376122064655311e-19 -5e
-4 -3345251179850485e-22 .000449999875658811 -5e-4 0 1 141 327 326 327 327 323 1
34 255 328 0 0 0 0 0 0 +331 332 136 255 331 2 5 2 3 5 FFF1 333 334 335 135 255 3
32 1 0 45 255 10 333 -.000448425349257785 -3761257958494065e-20 -.00043471292969
3683 -.0002010950261508655 -.0003184347458453275 -.000317961181024385 -.00020264
5410294538 -.0004343360156952465 -382799160311379e-19 -.000448368874955264 127 2
55 3 334 3 2 3 128 255 3 335 0 .5 1 17 45 0 292 42 286 13 40 290 326 0 +30 255 3
30 1615 0 1 336 326 337 +-.001518 -8e-4 0 1 0 0 133 336 1614 0 338 339 330 0 +33
0 -.001518 -8e-4 0 -.0015 -8e-4 0 0 1799999999999955e-20 141 337 336 337 337 330
 16 338 1528 0 ?340 341 342 336 0 0 1 30 339 1611 0 1 343 336 344 +-.001518 -.00
12 0 1 0 0 133 343 1610 0 342 345 339 0 +339 -.001518 -.0012 0 -.0015 -.0012 0 0
 1799999999999955e-20 141 344 343 344 344 339 16 342 1532 0 ?346 338 347 343 0 0
 1 30 345 1609 0 1 299 343 348 +-.0015 -8e-4 0 0 -1 0 133 299 1608 0 295 349 345
 0 +345 -.0015 -8e-4 0 -.0015 -.0012 0 0 4e-4 141 348 299 348 348 345 133 349 38
1 0 350 351 299 0 +352 -.0015 .0012 -734788079488412e-34 -.0015 .0015 -918485099
360515e-34 -3e-4 0 16 350 378 0 ?107 353 354 349 0 0 1 133 351 282 0 353 355 349
 0 +352 -.0015 2e-4 -1224646799147354e-35 -.0015 8e-4 -489858719658941e-34 -.001
3 -7e-4 30 352 241 0 1 356 357 358 +-.0015 .0015 -918485099360515e-34 0 1 -61232
3399573677e-31 30 356 242 0 359 360 352 0 +.0015 -.0015 -8e-4 -1 0 0 30 357 240
 0 361 352 362 0 +.0015 .0015 -918485099360515e-34 1 0 0 141 358 363 364 365 352
 133 363 231 0 366 367 368 0 +352 -.0015 -8e-4 489858719658941e-34 -.0015 -2e-4
 1224646799147354e-35 -.0023 -.0017 141 364 349 369 358 352 141 365 367 358 369
 352 133 367 232 0 370 371 363 0 +352 -.0015 -.0015 918485099360515e-34 -.0015 -
.0012 734788079488412e-34 -.003 -.0027 141 369 351 365 364 352 16 370 149 0 ?372
 361 366 367 0 0 1 30 371 234 0 373 374 367 0 +-.0015 .0015 -8e-4 0 612323399573
677e-31 1 16 373 162 0 ?375 376 377 371 0 0 1 30 374 235 0 377 378 371 0 +.0015
 .0015 -8e-4 0 612323399573677e-31 1 16 377 166 0 ?379 373 380 374 0 0 1 30 378
 236 0 380 381 374 0 +.0015 -.0015 -8e-4 0 612323399573677e-31 1 16 380 170 0 ?3
82 377 383 378 0 0 1 30 381 237 0 383 384 378 0 +-.0015 -.0015 -8e-4 0 612323399
573677e-31 1 16 383 158 0 ?385 380 359 381 0 0 1 30 384 238 0 386 362 381 0 +.00
15 -.0015 918485099360515e-34 -1 0 0 16 386 167 0 ?97 387 388 384 0 0 1 30 362 2
39 0 388 357 384 0 +.0015 .0015 -918485099360515e-34 0 -1 612323399573677e-31 16
 388 163 0 ?389 386 390 362 391 390 1 17 389 0 392 393 379 224 394 388 0 0 +16 3
90 583 0 ?395 388 396 362 388 396 1 16 391 773 0 ?101 396 361 362 396 388 1 17 1
01 0 392 397 46 99 398 391 0 382 +16 396 678 0 ?193 390 391 362 390 391 1 16 361
 159 0 ?104 391 370 357 0 0 1 17 104 0 399 400 375 102 401 361 0 379 +15 399 206
 0 104 402 0 17 400 0 399 118 104 114 379 377 0 403 -17 375 0 399 104 118 105 40
4 373 0 0 +17 401 0 405 406 394 105 104 361 0 375 -17 379 0 392 389 403 102 400
 377 0 394 +15 392 1133 0 393 407 0 17 403 0 392 379 397 114 113 408 0 0 -17 394
 0 405 401 409 102 389 388 0 0 -15 405 691 0 398 410 0 17 409 0 405 394 411 224
 412 413 0 389 -17 411 0 405 409 414 159 415 416 0 0 -17 412 0 417 418 419 159 4
09 413 0 411 +16 413 601 0 ?412 416 420 421 0 0 1 16 416 603 0 ?415 422 413 423
 0 0 1 16 420 699 0 ?173 413 424 425 0 0 1 30 421 654 0 413 426 423 0 +0 .0012 0
 -1 0 0 30 426 656 0 427 428 421 0 +0 8e-4 5e-5 -1 0 0 31 255 423 653 0 416 421
 429 0 +.0013 .001 0 0 0 1 1 0 0 2e-4 30 429 652 0 422 423 430 0 +0 8e-4 0 -1 0
 0 16 422 612 0 ?414 431 416 429 0 0 1 30 430 648 0 432 429 433 0 +.0013 8e-4 5e
-5 0 0 -1 16 432 606 0 ?157 434 427 430 0 0 1 30 433 647 0 434 430 435 0 +.0013
 .0012 5e-5 0 0 -1 16 434 604 0 ?161 436 432 433 0 0 1 30 435 564 0 437 433 438
 0 +75e-5 0 5e-5 0 1 0 16 437 505 0 ?439 440 441 435 0 0 1 30 438 563 0 440 435
 442 0 +775e-6 775e-6 5e-5 -.707106781186549 .707106781186546 0 16 440 506 0 ?15
2 443 437 438 0 0 1 30 442 562 0 443 438 444 0 +0 .0012 5e-5 1 0 0 16 443 499 0
 ?445 446 440 442 0 0 1 30 444 561 0 446 442 447 0 +-75e-5 0 5e-5 0 1 0 16 446 5
01 0 ?448 449 443 444 0 0 1 30 447 560 0 449 444 450 0 +0 -.0012 5e-5 1 0 0 16 4
49 507 0 ?143 451 446 447 0 0 1 30 450 559 0 436 447 452 0 +75e-5 0 0 0 1 0 16 4
36 495 0 ?453 454 434 450 0 0 1 30 452 558 0 454 450 455 0 +775e-6 775e-6 0 -.70
7106781186549 .707106781186546 0 16 454 497 0 ?456 457 436 452 0 0 1 30 455 557
 0 457 452 458 0 +0 .0012 0 1 0 0 16 457 509 0 ?54 459 454 455 0 0 1 30 458 556
 0 459 455 460 0 +-75e-5 0 0 0 1 0 16 459 508 0 ?57 441 457 458 0 0 1 30 460 555
 0 441 458 461 0 +0 -.0012 0 1 0 0 16 441 503 0 ?462 437 459 460 0 0 1 30 461 55
4 0 451 460 463 0 +75e-5 -.0012 5e-5 0 0 -1 16 451 496 0 ?464 465 449 461 0 0 1
 30 463 553 0 465 461 466 0 +-75e-5 -.0012 5e-5 0 0 -1 16 465 504 0 ?467 468 451
 463 0 0 1 30 466 552 0 468 463 469 0 +-75e-5 .0012 5e-5 0 0 -1 16 468 502 0 ?47
0 471 465 466 0 0 1 30 469 551 0 471 466 472 0 +35e-5 .0012 5e-5 0 0 -1 16 471 5
00 0 ?473 474 468 469 0 0 1 30 472 550 0 474 469 475 0 +75e-5 8e-4 5e-5 0 0 -1 1
6 474 498 0 ?476 477 471 472 0 0 1 31 475 455 0 478 472 479 0 --.0013 .001 5e-5
 0 0 1 1 0 0 2e-4 16 478 397 0 ?480 481 482 475 0 0 1 30 479 454 0 481 475 483 0
 +0 .0012 5e-5 1 0 0 16 481 399 0 ?484 485 478 479 0 0 1 30 483 452 0 485 479 48
6 0 +0 8e-4 5e-5 1 0 0 16 485 406 0 ?134 487 481 483 0 0 1 31 486 451 0 477 483
 488 0 --.0013 .001 0 0 0 1 1 0 0 2e-4 16 477 407 0 ?130 489 474 486 0 0 1 30 48
8 450 0 489 486 490 0 +0 .0012 0 1 0 0 16 489 408 0 ?63 482 477 488 0 0 1 30 490
 448 0 482 488 491 0 +0 8e-4 0 1 0 0 16 482 403 0 ?492 478 489 490 0 0 1 30 491
 447 0 487 490 493 0 +-.0013 8e-4 5e-5 0 0 -1 16 487 398 0 ?494 495 485 491 0 0
 1 30 493 444 0 495 491 496 0 +-.0013 .0012 5e-5 0 0 -1 16 495 400 0 ?497 498 48
7 493 0 0 1 31 496 356 0 499 493 500 0 --.0013 0 5e-5 0 0 1 1 0 0 2e-4 16 499 29
8 0 ?501 502 503 496 0 0 1 30 500 355 0 502 496 504 0 +0 2e-4 5e-5 1 0 0 16 502
 300 0 ?505 506 499 500 0 0 1 30 504 353 0 506 500 507 0 +0 -2e-4 5e-5 1 0 0 16
 506 306 0 ?125 508 502 504 0 0 1 31 507 352 0 498 504 509 0 --.0013 0 0 0 0 1 1
 0 0 2e-4 16 498 307 0 ?121 510 495 507 0 0 1 30 509 351 0 510 507 511 0 +0 2e-4
 0 1 0 0 16 510 309 0 ?69 503 498 509 0 0 1 30 511 349 0 503 509 512 0 +0 -2e-4
 0 1 0 0 16 503 304 0 ?513 499 510 511 0 0 1 30 512 348 0 508 511 514 0 +-.0013
 -2e-4 5e-5 0 0 -1 16 508 299 0 ?515 354 506 512 0 0 1 30 514 345 0 354 512 516
 0 +-.0013 2e-4 5e-5 0 0 -1 16 354 301 0 ?517 350 508 514 0 0 1 30 516 245 0 387
 514 518 0 +-.0015 .0015 -8e-4 0 1 -612323399573677e-31 16 387 171 0 ?519 520 38
6 516 0 0 1 30 518 244 0 520 516 360 0 +.0015 .0015 -8e-4 1 0 0 16 520 174 0 ?11
6 408 387 518 0 0 1 30 360 243 0 408 518 356 0 +.0015 .0015 -8e-4 0 -1 612323399
573677e-31 16 408 177 0 ?113 359 520 360 0 0 1 17 113 0 521 110 116 111 403 408
 0 397 +16 359 180 0 ?110 383 408 356 0 0 1 17 110 0 521 519 113 94 522 359 0 52
3 +15 521 217 0 519 524 0 17 519 0 521 116 110 98 525 387 0 404 +17 522 0 526 38
2 523 111 110 359 0 0 -17 523 0 526 522 97 94 385 383 0 525 -15 526 214 0 97 527
 0 17 97 0 526 523 382 95 528 386 0 385 +17 385 0 529 372 525 95 523 383 0 530 +
17 525 0 529 385 404 94 519 387 0 0 -15 529 1290 0 372 19 0 17 404 0 529 525 107
 98 375 373 0 0 -17 107 0 529 404 66 105 406 350 0 401 +17 66 0 529 107 244 64 5
31 532 0 406 -17 406 0 405 63 401 64 107 350 0 533 -17 63 0 405 130 406 61 533 4
89 0 497 +17 533 0 534 535 497 64 63 489 0 536 -15 534 422 0 533 537 0 17 535 0
 534 538 533 252 536 539 0 540 -17 497 0 534 533 484 61 136 495 0 541 +17 536 0
 542 531 540 64 535 539 0 0 +15 542 1347 0 531 543 0 17 531 0 542 544 536 242 66
 532 0 545 +17 540 0 542 536 544 252 251 546 0 0 -16 539 1311 0 ?536 547 548 549
 0 0 1 16 547 1149 0 ?226 550 539 551 0 0 1 16 548 1315 0 ?545 539 552 553 0 0 1
 30 549 1367 0 539 553 554 0 +-.001518 .0012 -1084202172485504e-34 1 0 0 30 553
 1368 0 548 555 549 0 +-.001518 8e-4 0 1 0 0 30 554 1218 0 550 549 556 0 +.00151
8 8e-4 5e-5 0 -1 -271050543121376e-30 16 550 1157 0 ?557 558 547 554 0 0 1 30 55
6 1217 0 558 554 559 0 +.001518 8e-4 5e-5 0 0 -1 16 558 1160 0 ?239 560 550 556
 0 0 1 30 559 1216 0 560 556 561 0 +.001518 8e-4 0 0 1 0 16 560 1163 0 ?236 562
 558 559 0 0 1 30 561 1215 0 562 559 551 0 +.001518 .0012 5e-5 0 0 1 16 562 1166
 0 ?563 564 560 561 0 0 1 30 551 1212 0 547 561 565 0 +.0015 8e-4 0 0 1 0 30 565
 1209 0 564 551 566 0 +.001518 .0012 0 -1 0 0 16 564 1156 0 ?419 567 562 565 0 0
 1 30 566 1208 0 567 565 568 0 +.001518 8e-4 0 -1 0 0 16 567 1152 0 ?230 569 564
 566 0 0 1 30 568 1113 0 570 566 571 0 +.001518 2e-4 5e-5 0 -1 -135525271560688e
-30 16 570 1052 0 ?572 573 569 568 0 0 1 30 571 1112 0 573 568 574 0 +.001518 -2
e-4 5e-5 0 0 -1 16 573 1055 0 ?221 575 570 571 0 0 1 30 574 1111 0 575 571 576 0
 +.001518 2e-4 271050543121376e-34 0 1 67762635780344e-30 16 575 1058 0 ?218 577
 573 574 0 0 1 30 576 1110 0 577 574 578 0 +.001518 2e-4 5e-5 0 0 1 16 577 1061
 0 ?579 580 575 576 0 0 1 30 578 1107 0 569 576 581 0 +.0015 2e-4 27105054312137
6e-34 0 1 67762635780344e-30 16 569 1044 0 ?208 570 567 578 0 0 1 30 581 1104 0
 580 578 582 0 +.001518 2e-4 271050543121376e-34 -1 0 0 16 580 1051 0 ?583 584 5
77 581 0 0 1 30 582 1103 0 584 581 585 0 +.001518 -2e-4 0 -1 0 0 16 584 1047 0 ?
212 586 580 582 0 0 1 30 585 1008 0 587 582 588 0 +.001518 -8e-4 5e-5 0 -1 -2710
505431213765e-31 16 587 947 0 ?589 590 586 585 0 0 1 30 588 1007 0 590 585 591 0
 +.001518 -.0012 5e-5 0 -4336808689942025e-30 -1 16 590 950 0 ?203 592 587 588 0
 0 1 30 591 1006 0 592 588 593 0 +.001518 -8e-4 0 0 1 0 16 592 953 0 ?200 594 59
0 591 0 0 1 30 593 1005 0 594 591 595 0 +.001518 -8e-4 5e-5 0 216840434497101e-2
9 1 16 594 956 0 ?596 597 592 593 0 0 1 30 595 1002 0 586 593 598 0 +.0015 -8e-4
 0 0 1 0 16 586 939 0 ?599 587 584 595 0 0 1 30 598 999 0 597 595 600 0 +.001518
 -8e-4 0 -1 0 0 16 597 946 0 ?601 602 594 598 0 0 1 30 600 998 0 602 598 603 0 +
.001518 -.0012 0 -1 0 0 16 602 942 0 ?604 605 597 600 0 0 1 31 603 848 0 606 600
 607 0 -.0013 -.001 5e-5 0 0 1 1 0 0 2e-4 16 606 791 0 ?608 609 610 603 0 0 1 30
 607 847 0 609 603 611 0 +0 -.0012 5e-5 -1 0 0 16 609 793 0 ?612 613 606 607 0 0
 1 30 611 845 0 613 607 614 0 +0 -8e-4 5e-5 -1 0 0 16 613 800 0 ?188 615 609 611
 0 0 1 31 614 844 0 605 611 616 0 -.0013 -.001 0 0 0 1 1 0 0 2e-4 16 605 801 0 ?
617 618 602 614 0 0 1 30 616 843 0 618 614 619 0 +0 -.0012 0 -1 0 0 16 618 802 0
 ?620 610 605 616 0 0 1 30 619 841 0 610 616 621 0 +0 -8e-4 0 -1 0 0 16 610 797
 0 ?622 606 618 619 0 0 1 30 621 840 0 615 619 623 0 +.0013 -8e-4 5e-5 0 0 -1 16
 615 792 0 ?181 624 613 621 0 0 1 30 623 837 0 624 621 625 0 +.0013 -.0012 5e-5
 0 0 -1 16 624 794 0 ?185 626 615 623 0 0 1 30 625 753 0 627 623 628 0 +0 2e-4 5
e-5 -1 0 0 16 627 704 0 ?629 630 631 625 0 0 1 31 628 752 0 630 625 632 0 +.0013
 0 5e-5 0 0 1 1 0 0 2e-4 16 630 705 0 ?176 633 627 628 0 0 1 30 632 751 0 633 62
8 634 0 +0 -2e-4 5e-5 -1 0 0 16 633 700 0 ?635 424 630 632 0 0 1 30 634 749 0 62
6 632 636 0 +0 2e-4 0 -1 0 0 16 626 696 0 ?637 638 624 634 0 0 1 31 636 748 0 63
8 634 639 0 +.0013 0 0 0 0 1 1 0 0 2e-4 16 638 698 0 ?640 631 626 636 0 0 1 30 6
39 747 0 631 636 641 0 +0 -2e-4 0 -1 0 0 16 631 707 0 ?642 627 638 639 0 0 1 30
 641 743 0 424 639 425 0 +.0013 -2e-4 5e-5 0 0 -1 16 424 701 0 ?169 420 633 641
 0 0 1 30 425 742 0 420 641 643 0 +.0013 2e-4 5e-5 0 0 -1 30 643 658 0 431 425 4
28 0 +0 .0012 5e-5 -1 0 0 16 431 609 0 ?644 645 422 643 0 0 1 31 428 657 0 645 6
43 426 0 +.0013 .001 5e-5 0 0 1 1 0 0 2e-4 16 645 610 0 ?164 427 431 428 0 0 1 1
7 164 0 646 241 644 141 166 645 0 647 +16 427 605 0 ?648 432 645 426 0 0 1 17 64
8 0 649 157 650 141 241 427 0 0 +15 649 629 0 651 652 0 17 157 0 649 651 648 155
 647 432 0 415 +17 650 0 649 648 653 227 239 558 0 557 -17 241 0 646 654 164 227
 648 427 0 650 -15 646 635 0 644 655 0 17 654 0 646 644 241 213 557 550 0 0 -17
 644 0 646 164 654 158 233 431 0 418 +17 557 0 656 239 563 227 654 550 0 0 +15 6
56 1195 0 557 657 0 17 239 0 656 236 557 237 650 558 0 653 +17 563 0 656 557 236
 213 658 562 0 654 +17 236 0 656 563 239 234 659 560 0 660 +17 658 0 417 419 233
 234 563 562 0 0 -15 417 623 0 412 661 0 17 419 0 417 412 658 224 660 564 0 409
 +17 233 0 417 658 418 213 644 431 0 563 -17 418 0 417 233 412 158 161 434 0 0 -
17 161 0 662 415 166 159 418 434 0 412 +15 662 626 0 415 663 0 17 415 0 662 647
 161 155 411 416 0 414 +17 166 0 662 161 647 158 164 645 0 644 -17 647 0 662 166
 415 141 157 432 0 648 -17 414 0 405 411 664 155 651 422 0 0 +17 664 0 405 414 6
65 228 395 390 0 0 -17 651 0 649 653 157 228 414 422 0 664 -17 653 0 649 650 651
 237 230 567 0 659 -17 230 0 666 226 659 228 653 567 0 393 +17 659 0 666 230 660
 237 236 560 0 0 -15 666 1188 0 226 667 0 17 660 0 666 659 226 234 419 564 0 658
 -17 226 0 666 660 230 224 393 547 0 419 +17 393 0 392 395 389 228 226 547 0 651
 -17 395 0 392 668 393 206 664 390 0 0 +17 668 0 392 193 395 210 208 569 0 669 -
17 193 0 392 46 668 191 670 396 0 671 +17 208 0 672 673 212 206 668 569 0 583 +1
7 669 0 674 675 169 210 642 631 0 670 -15 674 724 0 669 676 0 17 675 0 674 677 6
69 219 212 584 0 678 -17 169 0 674 669 635 167 679 424 0 640 +17 642 0 405 680 6
70 167 669 631 0 0 +17 670 0 405 642 671 210 193 396 0 0 -17 671 0 405 670 617 1
91 622 610 0 599 -17 617 0 405 671 620 179 681 605 0 0 +17 622 0 682 683 601 179
 671 610 0 617 +17 599 0 684 685 604 191 46 586 0 601 +15 684 978 0 599 686 0 17
 685 0 684 687 599 198 601 597 0 688 -17 604 0 684 599 687 38 689 602 0 0 +17 46
 0 392 101 193 38 599 586 0 690 -17 601 0 682 622 688 191 685 597 0 0 +15 682 82
2 0 622 691 0 17 688 0 682 601 197 198 596 594 0 0 -17 197 0 682 688 683 186 188
 613 0 596 -17 596 0 692 589 200 186 688 594 0 693 +15 692 985 0 589 694 0 17 58
9 0 692 203 596 194 693 587 0 0 +17 200 0 692 596 203 198 687 592 0 685 +17 693
 0 695 188 205 186 589 587 0 0 -15 695 825 0 696 697 0 17 188 0 695 696 693 174
 197 613 0 683 +17 205 0 695 693 696 194 612 609 0 698 -17 696 0 695 205 188 182
 608 606 0 612 -17 612 0 699 185 698 182 205 609 0 0 +17 698 0 699 612 689 194 2
03 590 0 589 -15 699 816 0 690 700 0 17 689 0 699 698 690 201 604 602 0 687 -17
 203 0 692 200 589 201 698 590 0 689 +17 690 0 699 689 185 38 620 618 0 398 -17
 687 0 684 604 685 201 200 592 0 0 -17 185 0 699 690 612 183 190 624 0 681 +17 6
20 0 405 617 398 183 690 618 0 0 +17 398 0 405 620 528 38 101 391 0 604 -17 528
 0 405 398 530 99 97 386 0 0 -17 530 0 405 528 93 95 372 370 0 0 -17 93 0 405 53
0 87 91 701 376 0 372 -17 372 0 529 90 385 91 530 370 0 297 +17 90 0 529 702 372
 88 297 295 0 703 -17 297 0 704 705 340 91 90 295 0 346 +15 704 1564 0 297 706 0
 17 705 0 704 707 297 271 346 342 0 708 -17 340 0 704 297 707 88 709 338 0 0 +17
 346 0 710 701 708 91 705 342 0 0 +15 710 96 0 701 21 0 17 701 0 710 711 346 81
 93 376 0 0 +17 708 0 710 346 270 271 712 347 0 0 -17 270 0 710 708 711 268 713
 714 0 712 -17 712 0 715 716 273 268 708 347 0 717 +16 347 1542 0 ?712 342 718 7
19 0 0 1 16 718 1539 0 ?273 347 720 721 0 0 1 30 719 1591 0 347 721 722 0 +-.001
518 -.0012 5e-5 0 0 1 30 721 1592 0 718 723 719 0 +-.001518 -8e-4 0 0 -1 0 30 72
2 1485 0 724 719 725 0 +-.001518 2e-4 5e-5 0 1 -135525271560688e-30 16 724 1424
 0 ?726 727 341 722 0 0 1 30 725 1484 0 727 722 728 0 +-.001518 2e-4 5e-5 0 0 -1
 16 727 1427 0 ?264 729 724 725 0 0 1 30 728 1483 0 729 725 730 0 +-.001518 2e-4
 -271050543121376e-34 0 -1 67762635780344e-30 16 729 1430 0 ?261 731 727 728 0 0
 1 30 730 1482 0 731 728 732 0 +-.001518 -2e-4 5e-5 0 0 1 16 731 1433 0 ?733 734
 729 730 0 0 1 30 732 1479 0 341 730 735 0 +-.0015 2e-4 -271050543121376e-34 0 -
1 67762635780344e-30 16 341 1416 0 ?736 724 338 732 0 0 1 30 735 1476 0 734 732
 737 0 +-.001518 -2e-4 0 1 0 0 16 734 1423 0 ?738 739 731 735 0 0 1 30 737 1475
 0 739 735 740 0 +-.001518 2e-4 -271050543121376e-34 1 0 0 16 739 1419 0 ?741 53
2 734 737 0 0 1 30 740 1377 0 742 737 743 0 +-.001518 .0012 5e-5 0 1 0 16 742 13
16 0 ?744 745 532 740 0 0 1 30 743 1376 0 745 740 746 0 +-.001518 .0012 5e-5 0 0
 -1 16 745 1319 0 ?254 546 742 743 0 0 1 30 746 1375 0 546 743 747 0 +-.001518 .
0012 -1084202172485504e-34 0 -1 271050543121376e-30 16 546 1322 0 ?251 552 745 7
46 0 0 1 30 747 1374 0 552 746 555 0 +-.001518 8e-4 5e-5 0 0 1 16 552 1325 0 ?74
8 548 546 747 0 0 1 30 555 1371 0 532 747 553 0 +-.0015 .0012 -1084202172485504e
-34 0 -1 271050543121376e-30 16 532 1308 0 ?531 742 739 555 0 0 1 17 748 0 749 7
44 251 231 750 552 0 751 +15 749 1354 0 744 752 0 17 744 0 749 254 748 245 751 7
42 0 0 +17 251 0 749 748 254 249 540 546 0 544 +17 750 0 753 545 248 249 748 552
 0 0 -17 751 0 754 134 256 231 744 742 0 0 -15 754 432 0 755 756 0 17 134 0 754
 755 751 123 248 485 0 757 +17 256 0 754 751 755 245 484 481 0 538 -17 755 0 754
 256 134 131 480 478 0 484 -17 484 0 534 497 538 131 256 481 0 0 +17 538 0 534 4
84 535 245 254 745 0 744 -17 254 0 749 251 744 252 538 745 0 535 +17 480 0 758 4
94 136 123 755 478 0 0 +15 758 419 0 541 759 0 17 494 0 758 541 480 128 757 487
 0 492 +17 136 0 758 480 541 131 497 495 0 755 -17 541 0 758 136 494 61 130 477
 0 0 -17 130 0 405 760 63 128 541 477 0 494 +17 760 0 405 761 130 242 492 482 0
 531 -17 761 0 405 69 760 70 244 353 0 762 -17 492 0 753 757 545 128 760 482 0 0
 +15 753 429 0 492 763 0 17 757 0 753 248 492 123 494 487 0 480 -17 545 0 753 49
2 750 242 544 548 0 0 +17 544 0 542 540 531 249 545 548 0 750 -17 248 0 753 750
 757 231 134 485 0 748 -14 763 427 764 ?756 537 753 7 765 -0 0 756 537 33 81 1 7
64 2253 766 763 767 0 320 768 769 14 756 430 768 ?770 763 754 7 771 +0 0 770 763
 33 14 537 420 772 ?763 759 534 7 773 +0 0 763 759 33 50 765 441 0 763 771 773 0
 +0 8e-4 5e-5 0 1 0 0 0 1 13 33 36 0 0 0 0 0 0 11 19 14 19 1508 774 ?407 0 529 7
 775 +0 0 407 0 33 81 1 774 2256 766 19 776 0 772 777 778 14 407 1135 777 ?410 1
9 392 7 779 -0 0 410 19 33 50 775 98 0 19 780 781 0 +-.0015 0 5e-5 -1 0 0 0 0 1
 50 780 2 0 782 783 775 0 +0 0 5e-5 0 0 1 1 0 0 50 781 99 0 784 775 22 0 +0 -8e-
4 5e-5 0 1 0 0 0 1 14 784 93 785 ?782 786 787 7 781 +0 0 782 786 33 51 22 100 0
 786 781 8 0 --.0013 -.001 5e-5 0 0 -1 2e-4 -1 0 0 14 786 95 788 ?784 21 789 7 2
2 -0 0 784 21 33 81 1 788 2259 766 786 790 0 785 791 792 14 21 97 791 ?786 410 7
10 7 8 -0 0 786 410 33 15 789 94 0 793 786 0 17 793 0 789 794 34 77 87 795 0 0 +
17 794 0 789 85 793 76 796 35 0 797 -17 34 0 789 793 85 81 711 12 0 701 +17 87 0
 405 93 79 81 793 795 0 34 -16 795 63 0 ?793 798 376 799 0 0 1 16 798 58 0 ?79 7
14 795 355 0 0 1 16 376 68 0 ?701 795 373 800 0 0 1 31 799 80 0 795 801 802 0 +-
.0013 -.001 0 0 0 1 1 0 0 2e-4 30 801 13 0 803 804 799 0 +0 -8e-4 5e-5 1 0 0 30
 802 79 0 1 799 805 806 +0 -8e-4 0 1 0 0 30 805 104 0 35 802 36 0 +-.0013 -8e-4
 5e-5 0 0 -1 141 806 355 806 806 802 133 355 269 0 798 807 351 0 +802 -.0015 -8e
-4 0 -.0013 -8e-4 0 -.0015 -.0013 30 807 260 0 1 800 355 808 +0 -.0012 0 1 0 0 1
33 800 259 0 376 36 807 0 +807 -.0015 -.0012 0 -.0013 -.0012 0 -.0015 -.0013 141
 808 800 808 808 807 30 36 105 0 12 805 800 0 +-.0013 -.0012 5e-5 0 0 -1 16 35 8
8 0 ?796 12 803 805 0 0 1 17 796 0 787 809 797 77 794 35 0 793 +16 803 12 0 ?797
 35 810 801 0 0 1 17 797 0 787 796 811 76 279 803 0 0 +16 810 8 0 ?83 803 714 80
4 0 0 1 17 83 0 812 279 713 76 85 810 0 794 +16 714 4 0 ?713 810 798 368 0 0 1 3
1 804 9 0 810 368 801 0 +-.0013 -.001 5e-5 0 0 1 1 0 0 2e-4 30 368 5 0 714 363 8
04 0 +0 -.0012 5e-5 1 0 0 17 713 0 812 83 717 80 270 714 0 711 +15 812 3 0 713 7
82 0 17 717 0 812 713 279 268 716 298 0 0 -17 711 0 710 270 701 80 34 12 0 0 -17
 279 0 812 717 83 277 797 803 0 811 -17 716 0 715 276 712 277 717 298 0 0 +16 29
8 1533 0 ?716 720 295 813 0 0 1 16 720 1536 0 ?276 718 298 723 0 0 1 30 813 1594
 0 298 291 723 0 +-.001518 -8e-4 5e-5 0 1 -271050543121376e-30 133 291 1837 0 40
 814 813 0 +814 -.000450088182237382 -2020586147051805e-22 -5e-4 215807121230646
e-21 -.000450088175651823 -5e-4 .204173443997124 -.0458314057348706 30 723 1593
 0 720 813 721 0 +-.001518 -8e-4 5e-5 0 0 -1 137 814 1853 0 1 44 291 815 -25 816
 0 ?133 44 1854 0 37 0 814 0 +814 -328870840856648e-21 .000450088105428968 -5e-4
 -.000450088182237382 -2020586147051805e-22 -5e-4 .454128710827616 .204173443997
124 141 815 44 817 817 814 134 816 0 0 0 0 0 0 +818 819 136 818 1 2 2 2 5 FFF1 8
20 821 822 135 819 2 0 45 4 820 0 -437295340554762e-46 1 -437295340554762e-46 12
7 2 821 2 2 128 2 822 0 1 141 817 291 815 815 814 17 276 0 715 273 716 274 811 7
20 0 709 +15 715 1571 0 716 321 0 17 273 0 715 712 276 271 707 718 0 705 +17 811
 0 787 797 709 277 276 720 0 716 -17 709 0 787 811 809 274 340 338 0 707 -15 787
 92 0 809 784 0 17 809 0 787 709 796 88 79 798 0 340 -17 707 0 704 340 705 274 2
73 718 0 0 -17 79 0 405 87 703 77 809 798 0 796 +17 703 0 405 79 75 88 702 366 0
 809 -17 75 0 405 703 121 73 513 503 0 702 -17 702 0 529 72 90 73 703 366 0 736
 +16 366 155 0 ?702 370 353 363 0 0 1 16 353 279 0 ?244 366 350 351 0 0 1 17 244
 0 529 66 72 242 761 353 0 760 +17 72 0 529 244 702 70 736 341 0 761 -17 736 0 8
23 824 741 73 72 341 0 738 +15 823 1455 0 736 825 0 17 824 0 823 826 736 259 738
 734 0 827 -17 741 0 823 736 826 70 828 739 0 0 +17 738 0 829 513 827 73 824 734
 0 0 +15 829 330 0 513 830 0 17 513 0 829 831 738 119 75 503 0 0 +17 827 0 829 7
38 258 259 733 731 0 0 -17 258 0 829 827 831 246 125 506 0 733 -17 733 0 832 726
 261 246 827 731 0 833 +15 832 1462 0 726 834 0 17 726 0 832 264 733 265 833 724
 0 0 +17 261 0 832 733 264 259 826 729 0 824 +17 833 0 835 125 267 246 726 724 0
 0 -15 835 333 0 836 837 0 17 125 0 835 836 833 108 258 506 0 831 +17 267 0 835
 833 836 265 505 502 0 838 -17 836 0 835 267 125 122 501 499 0 505 -17 505 0 839
 517 838 122 267 502 0 0 +17 838 0 839 505 828 265 264 727 0 726 -15 839 323 0 7
62 840 0 17 828 0 839 838 762 262 741 739 0 826 -17 264 0 832 261 726 262 838 72
7 0 828 +17 762 0 839 828 517 70 69 510 0 741 -17 826 0 823 741 824 262 261 729
 0 0 -17 517 0 839 762 505 67 127 354 0 841 +17 69 0 405 121 761 67 762 510 0 51
7 +17 121 0 405 75 69 119 841 498 0 515 +17 841 0 842 127 515 67 121 498 0 0 -17
 515 0 842 841 501 119 831 508 0 513 +15 842 320 0 841 843 0 17 501 0 842 515 12
7 108 836 499 0 0 +17 831 0 829 258 513 108 515 508 0 501 -17 127 0 842 501 841
 122 517 354 0 836 -14 843 318 844 ?840 524 842 7 845 +0 0 840 524 33 81 1 844 2
261 766 843 846 0 791 847 848 14 840 321 847 ?830 843 839 7 849 +0 0 830 843 33
 14 524 215 850 ?843 527 851 7 311 +0 0 843 527 33 51 845 339 0 843 849 311 0 +-
.0013 0 5e-5 0 0 -1 2e-4 -1 0 0 50 849 340 0 840 852 845 0 +0 2e-4 5e-5 0 1 0 0
 0 1 50 311 228 0 524 845 853 854 +0 -489858719658941e-34 -8e-4 0 -6123233995736
77e-31 -1 0 1 -612323399573677e-31 50 853 227 0 410 311 855 0 +0 0 0 0 -61232339
9573677e-31 -1 0 1 -612323399573677e-31 141 854 304 854 854 311 14 410 693 856 ?
21 407 857 7 853 -0 0 21 407 33 50 855 226 0 527 853 779 0 +.0015 -.0015 -8e-4 0
 1 -612323399573677e-31 0 612323399573677e-31 1 14 527 211 858 ?524 402 526 7 85
5 -0 0 524 402 33 50 779 225 0 407 855 783 0 +.0015 .0015 -8e-4 -1 0 0 0 0 1 50
 783 224 0 402 779 780 0 +.0015 .0015 -8e-4 0 -1 612323399573677e-31 0 -61232339
9573677e-31 -1 14 402 203 859 ?527 782 399 7 783 -0 0 527 782 33 81 1 859 2266 7
66 402 860 0 858 861 862 14 782 1 861 ?402 784 812 7 780 +0 0 402 784 33 81 1 86
1 2267 766 782 863 0 859 864 865 80 255 1 766 866 867 9000 1 1 1 1 1 1 1 1 0 FFF
FTFTFFFFFFF1 81 1 863 2079 868 782 0 861 869 860 870 81 1 864 2268 766 657 871 0
 861 872 873 82 255 1 865 1180696823 14 657 1193 864 ?543 667 656 7 874 -0 0 543
 667 33 81 1 871 2114 868 657 0 864 875 876 877 81 1 872 2269 766 667 875 0 864
 878 879 82 1 873 1465909493 14 667 1185 872 ?657 880 666 7 881 -0 0 657 880 33
 81 1 875 2113 868 667 0 872 882 871 883 81 1 878 2270 766 880 882 0 872 884 885
 82 1 879 1472725237 14 880 1088 878 ?667 886 887 7 888 +0 0 667 886 33 81 1 882
 2112 868 880 0 878 889 875 890 81 1 884 2271 766 886 889 0 878 891 892 82 1 885
 1454244085 14 886 1080 884 ?880 694 672 7 893 -0 0 880 694 33 81 1 889 2111 868
 886 0 884 894 882 895 81 1 891 2272 766 694 894 0 884 896 897 82 1 892 14610598
29 14 694 983 891 ?886 686 692 7 898 +0 0 886 686 33 81 1 894 2110 868 694 0 891
 899 889 900 81 1 896 2273 766 686 899 0 891 901 902 82 1 897 1442513141 14 686
 975 896 ?694 697 684 7 903 -0 0 694 697 33 81 1 899 2109 868 686 0 896 904 894
 905 81 1 901 2274 766 697 904 0 896 906 907 82 1 902 1449328885 14 697 823 901
 ?686 691 695 7 908 +0 0 686 691 33 81 1 904 2108 868 697 0 901 909 899 910 81 1
 906 2275 766 691 909 0 901 911 912 82 1 907 1393819893 14 691 820 906 ?697 700
 682 7 913 -0 0 697 700 33 81 1 909 2107 868 691 0 906 914 904 915 81 1 911 2276
 766 700 914 0 906 916 917 82 1 912 1393557749 14 700 814 911 ?691 918 699 7 919
 +0 0 691 918 33 81 1 914 2106 868 700 0 911 920 909 921 81 1 916 2277 766 922 9
23 0 911 924 925 82 1 917 1393098997 14 922 728 916 ?918 676 926 7 927 +0 0 918
 676 33 81 1 923 2104 868 922 0 916 928 920 929 81 1 924 2278 766 676 928 0 916
 930 931 82 1 925 1382482165 14 676 722 924 ?922 932 674 7 933 +0 0 922 932 33 8
1 1 928 2103 868 676 0 924 934 923 935 81 1 930 2279 766 936 937 0 924 938 939 8
2 1 931 1382940917 14 936 716 930 ?932 655 940 7 941 -0 0 932 655 33 81 1 937 21
01 868 936 0 930 942 934 943 81 1 938 2280 766 655 942 0 930 944 945 82 1 939 13
82678773 14 655 633 938 ?936 652 646 7 946 +0 0 936 652 33 81 1 942 2100 868 655
 0 938 947 937 948 81 1 944 2281 766 652 947 0 938 949 950 82 1 945 1371865333 1
4 652 627 944 ?655 663 649 7 951 +0 0 655 663 33 81 1 947 2099 868 652 0 944 952
 942 953 81 1 949 2282 766 661 954 0 944 955 956 82 1 950 1372324085 14 661 621
 949 ?663 957 417 7 958 -0 0 663 957 33 81 1 954 2097 868 661 0 949 959 952 960
 81 1 955 2283 766 918 920 0 949 961 962 82 1 956 1372061941 14 918 811 955 ?700
 922 963 7 964 +0 0 700 922 33 81 1 920 2105 868 918 0 955 923 914 965 81 1 961
 2284 766 932 934 0 955 966 967 82 1 962 1392967923 14 932 719 961 ?676 936 968
 7 969 -0 0 676 936 33 81 1 934 2102 868 932 0 961 937 928 970 81 1 966 2285 766
 663 952 0 961 971 972 82 1 967 1382809843 14 663 624 966 ?652 661 662 7 973 -0
 0 652 661 33 81 1 952 2098 868 663 0 966 954 947 974 81 1 971 2286 766 957 959
 0 966 975 976 82 1 972 1372193011 14 957 535 971 ?661 977 978 7 979 +0 0 661 97
7 33 81 1 959 2096 868 957 0 971 980 954 981 81 1 975 2287 766 977 980 0 971 982
 983 82 1 976 1360855283 14 977 532 975 ?957 984 985 7 986 -0 0 957 984 33 81 1
 980 2095 868 977 0 975 987 959 988 81 1 982 2288 766 984 987 0 975 989 990 82 1
 983 1360724211 14 984 529 982 ?977 991 992 7 993 +0 0 977 991 33 81 1 987 2094
 868 984 0 982 994 980 995 81 1 989 2289 766 991 994 0 982 996 997 82 1 990 1360
920819 14 991 526 989 ?984 998 999 7 1000 +0 0 984 998 33 81 1 994 2093 868 991
 0 989 1001 987 1002 81 1 996 2290 766 998 1001 0 989 1003 1004 82 1 997 1361379
571 14 998 523 996 ?991 770 1005 7 1006 -0 0 991 770 33 81 1 1001 2092 868 998 0
 996 1007 994 1008 81 1 1003 2291 766 770 1007 0 996 1009 1010 82 1 1004 1361248
499 14 770 520 1003 ?998 756 1011 7 1012 -0 0 998 756 33 81 1 1007 2091 868 770
 0 1003 1013 1001 1014 81 1 1009 2292 766 759 1015 0 1003 1016 1017 82 1 1010 13
61117427 14 759 417 1009 ?537 837 758 7 1018 +0 0 537 837 33 81 1 1015 2087 868
 759 0 1009 1019 1020 1021 81 1 1016 2293 766 830 1022 0 1009 1023 1024 82 1 101
7 1348862195 14 830 328 1016 ?837 840 829 7 852 -0 0 837 840 33 81 1 1022 2085 8
68 830 0 1016 1025 1019 1026 81 1 1023 2294 766 837 1019 0 1016 1027 1028 82 1 1
024 1338114295 14 837 331 1023 ?759 830 835 7 1029 +0 0 759 830 33 81 1 1019 208
6 868 837 0 1023 1022 1015 1030 81 1 1027 2295 766 543 876 0 1023 1031 1032 82 1
 1028 1338376439 14 543 1344 1027 ?752 657 542 7 1033 -0 0 752 657 33 81 1 876 2
115 868 543 0 1027 871 1034 1035 81 1 1031 2296 766 752 1034 0 1027 1036 1037 82
 1 1032 1531117815 14 752 1352 1031 ?825 543 749 7 1038 -0 0 825 543 33 81 1 103
4 2116 868 752 0 1031 876 1039 1040 81 1 1036 2297 766 825 1039 0 1031 1041 1042
 82 1 1037 1524302071 14 825 1452 1036 ?834 752 823 7 1043 -0 0 834 752 33 81 1
 1039 2117 868 825 0 1036 1034 1044 1045 81 1 1041 2298 766 834 1044 0 1036 1046
 1047 82 1 1042 1542848759 14 834 1460 1041 ?706 825 832 7 1048 -0 0 706 825 33
 81 1 1044 2118 868 834 0 1041 1039 1049 1050 81 1 1046 2299 766 706 1049 0 1041
 1051 1052 82 1 1047 1536033015 14 706 1561 1046 ?321 834 704 7 322 -0 0 321 834
 33 81 1 1049 2119 868 706 0 1046 1044 1053 1054 81 1 1051 2300 766 321 1053 0 1
046 1055 1056 82 1 1052 1554514167 14 321 1569 1051 ?288 706 715 7 318 -0 0 288
 706 33 81 1 1053 2120 868 321 0 1051 1049 1057 1058 81 1 1055 2301 766 288 1057
 0 1051 0 1059 82 1 1056 1547698423 14 288 1823 1055 ?293 321 39 7 25 -0 0 293 3
21 33 81 1 1057 2121 868 288 0 1055 1053 1060 1061 82 1 1059 1726480637 80 1 868
 0 1062 8001 0 0 0 0 3 5 0 0 0 FFFFTFTFFFFFFF2 81 1 1060 2122 868 293 0 320 1057
 0 1063 83 255 3 1061 .1450980392156862 .1411764705882352 .1411764705882352 81 1
 320 2252 766 293 1060 0 0 764 1064 83 3 1063 .666666666666667 .698039215686275
 .768627450980392 82 1 1064 1628438781 79 255 15 1062 SDL/TYSA_COLOUR83 3 1058 .
823529411764706 .819607843137255 .780392156862745 83 3 1054 .823529411764706 .81
9607843137255 .780392156862745 50 322 1579 0 706 318 1048 0 +-.001518 -8e-4 0 0
 0 1 1 0 0 50 1048 1473 0 834 322 1043 0 +-.001518 0 0 1 0 0 0 0 -1 50 1043 1470
 0 825 1048 1038 0 +-.001518 2e-4 -271050543121376e-34 0 67762635780344e-30 1 0
 -1 67762635780344e-30 50 1038 1365 0 752 1043 1033 0 +-.001518 0 0 1 0 0 0 0 -1
 50 1033 1362 0 543 1038 874 0 +-.001518 .0012 -1084202172485504e-34 0 271050543
121376e-30 1 0 -1 271050543121376e-30 50 874 1206 0 657 1033 881 0 +.001518 0 0
 -1 0 0 0 0 1 50 881 1203 0 667 874 888 0 +.001518 8e-4 0 0 0 1 1 0 0 50 888 110
1 0 880 881 893 0 +.001518 0 0 1 0 0 0 0 -1 50 893 1098 0 886 888 898 0 +.001518
 2e-4 271050543121376e-34 0 -67762635780344e-30 1 0 -1 -67762635780344e-30 50 89
8 996 0 694 893 903 0 +.001518 0 0 1 0 0 0 0 -1 50 903 993 0 686 898 908 0 +.001
518 -8e-4 0 0 0 1 1 0 0 50 908 836 0 697 903 913 0 +0 0 5e-5 0 0 1 1 0 0 50 913
 834 0 691 908 919 0 +0 -8e-4 5e-5 0 -1 0 0 0 -1 50 919 832 0 700 913 964 0 +0 -
.0012 5e-5 0 -1 0 0 0 -1 51 964 831 0 918 919 927 0 +.0013 -.001 5e-5 0 0 -1 2e-
4 -1 0 0 50 927 741 0 922 964 933 0 +0 0 5e-5 0 0 1 1 0 0 50 933 738 0 676 927 9
69 0 +0 -2e-4 5e-5 0 -1 0 0 0 -1 51 969 737 0 932 933 941 0 -.0013 0 5e-5 0 0 -1
 2e-4 -1 0 0 50 941 736 0 936 969 946 0 +0 2e-4 5e-5 0 -1 0 0 0 -1 50 946 646 0
 655 941 951 0 +0 0 5e-5 0 0 1 1 0 0 50 951 643 0 652 946 973 0 +0 8e-4 5e-5 0 -
1 0 0 0 -1 51 973 642 0 663 951 958 0 -.0013 .001 5e-5 0 0 -1 2e-4 -1 0 0 50 958
 641 0 661 973 979 0 +0 .0012 5e-5 0 -1 0 0 0 -1 50 979 549 0 957 958 986 0 +0 0
 5e-5 0 0 1 1 0 0 50 986 547 0 977 979 993 0 +0 -.0012 5e-5 0 1 0 0 0 1 50 993 5
46 0 984 986 1000 0 +-75e-5 0 5e-5 -1 0 0 0 0 1 50 1000 545 0 991 993 1006 0 +0
 .0012 5e-5 0 1 0 0 0 1 50 1006 544 0 998 1000 1012 0 +775e-6 775e-6 5e-5 -.7071
06781186546 -.707106781186549 0 .707106781186549 -.707106781186546 0 50 1012 543
 0 770 1006 771 0 +75e-5 0 5e-5 -1 0 0 0 0 1 50 771 443 0 756 1012 765 0 +0 0 5e
-5 0 0 1 1 0 0 83 3 1050 .823529411764706 .819607843137255 .780392156862745 83 3
 1045 .823529411764706 .819607843137255 .780392156862745 83 3 1040 .823529411764
706 .819607843137255 .780392156862745 83 3 1035 .823529411764706 .81960784313725
5 .780392156862745 83 3 1030 .823529411764706 .819607843137255 .780392156862745
 50 1029 344 0 837 1018 852 0 +0 0 5e-5 0 0 1 1 0 0 51 1018 438 0 759 773 1029 0
 +-.0013 .001 5e-5 0 0 -1 2e-4 -1 0 0 50 852 342 0 830 1029 849 0 +0 -2e-4 5e-5
 0 1 0 0 0 1 50 773 439 0 537 765 1018 0 +0 .0012 5e-5 0 1 0 0 0 1 81 1 1025 208
4 868 840 0 847 846 1022 1065 83 3 1026 .823529411764706 .819607843137255 .78039
2156862745 81 1 847 2262 766 840 1025 0 844 850 1066 81 1 846 2083 868 843 0 844
 1067 1025 1068 83 3 1065 .823529411764706 .819607843137255 .780392156862745 81
 1 1067 2082 868 524 0 850 1069 846 1070 83 3 1068 .823529411764706 .81960784313
7255 .780392156862745 81 1 850 2263 766 524 1067 0 847 856 1071 81 1 1069 2081 8
68 527 0 858 860 1067 1072 83 3 1070 .1450980392156862 .1411764705882352 .141176
4705882352 81 1 858 2265 766 527 1069 0 856 859 1073 81 1 860 2080 868 402 0 859
 863 1069 1074 83 3 1072 .1450980392156862 .1411764705882352 .1411764705882352 8
3 3 1074 .1450980392156862 .1411764705882352 .1411764705882352 81 1 856 2264 766
 410 1075 0 850 858 1076 82 1 1073 1328546035 81 1 1075 2075 868 410 0 856 1077
 1078 1079 82 1 1076 1387593975 81 1 1077 2074 868 407 0 777 776 1075 1080 81 1
 1078 2076 868 21 0 791 1075 790 1081 83 3 1079 .1450980392156862 .1411764705882
352 .1411764705882352 81 1 791 2260 766 21 1078 0 788 844 1082 81 1 790 2077 868
 786 0 788 1078 869 1083 83 3 1081 .823529411764706 .819607843137255 .7803921568
62745 81 1 869 2078 868 784 0 785 790 863 1084 83 3 1083 .823529411764706 .81960
7843137255 .780392156862745 81 1 785 2258 766 784 869 0 777 788 1085 83 3 1084 .
823529411764706 .819607843137255 .780392156862745 81 1 777 2257 766 407 1077 0 7
74 785 1086 82 1 1085 1188298999 82 1 1086 1480196341 82 1 1082 1188757751 81 1
 776 2073 868 19 0 774 0 1077 1087 83 3 1080 .1019607843137254 .1019607843137254
 .1019607843137254 83 3 1087 .1019607843137254 .1019607843137254 .10196078431372
54 82 1 1071 1328808189 82 1 1066 1337655543 81 1 1020 2088 868 537 0 772 1015 7
67 1088 83 3 1021 .823529411764706 .819607843137255 .780392156862745 81 1 772 22
55 766 537 1020 0 768 774 1089 81 1 767 2089 868 763 0 764 1020 1013 1090 83 3 1
088 .823529411764706 .819607843137255 .780392156862745 81 1 1013 2090 868 756 0
 768 767 1007 1091 83 3 1090 .823529411764706 .819607843137255 .780392156862745
 81 1 768 2254 766 756 1013 0 764 772 1092 83 3 1091 .823529411764706 .819607843
137255 .780392156862745 82 1 1092 1349714167 82 1 1089 1348993271 83 3 1014 .823
529411764706 .819607843137255 .780392156862745 15 1011 522 0 453 770 0 17 453 0
 1011 1093 464 47 139 436 0 0 +17 1093 0 1011 1094 453 140 476 474 0 0 -17 464 0
 1011 453 1094 137 1095 451 0 0 +17 139 0 857 60 51 137 453 436 0 462 -15 857 49
0 0 139 410 405 17 60 0 857 57 139 58 462 441 0 467 -17 51 0 857 139 54 47 456 4
54 0 476 -17 462 0 985 1095 467 137 60 441 0 464 +15 985 534 0 462 977 0 17 1095
 0 985 1096 462 132 464 451 0 1094 -17 467 0 985 462 1096 58 146 465 0 1097 +17
 1096 0 985 467 1095 144 143 449 0 1098 -17 146 0 992 448 1097 144 467 465 0 109
6 -17 1097 0 992 146 470 58 57 459 0 0 -15 992 531 0 1097 984 0 17 470 0 992 109
7 448 55 149 468 0 1099 +17 57 0 857 54 60 55 1097 459 0 470 +17 54 0 857 51 57
 52 1099 457 0 473 +17 1099 0 999 149 473 55 54 457 0 0 -17 473 0 999 1099 445 5
2 1100 471 0 456 +15 999 528 0 1099 991 0 17 445 0 999 473 149 150 1101 443 0 0
 +17 1100 0 1005 154 456 150 473 471 0 445 -17 456 0 1005 1100 476 52 51 454 0 0
 +15 1005 525 0 456 998 0 17 476 0 1005 456 154 47 1093 474 0 453 +17 154 0 1005
 476 1100 140 152 440 0 439 -17 152 0 978 1101 439 150 154 440 0 1100 +17 439 0
 978 152 143 140 1094 437 0 1093 +15 978 537 0 439 957 0 17 143 0 978 439 1098 1
32 1096 449 0 1095 +17 1094 0 1011 464 1093 132 439 437 0 0 -17 1098 0 978 143 1
101 144 448 446 0 0 -17 1101 0 978 1098 152 147 445 443 0 448 -17 448 0 992 470
 146 147 1098 446 0 0 +17 149 0 999 445 1099 147 470 468 0 1101 -83 3 1008 .8235
29411764706 .819607843137255 .780392156862745 83 3 1002 .823529411764706 .819607
843137255 .780392156862745 83 3 995 .823529411764706 .819607843137255 .780392156
862745 83 3 988 .823529411764706 .819607843137255 .780392156862745 83 3 981 .823
529411764706 .819607843137255 .780392156862745 83 3 974 .823529411764706 .819607
843137255 .780392156862745 83 3 970 .823529411764706 .819607843137255 .780392156
862745 15 968 721 0 640 932 0 17 640 0 968 679 173 167 680 638 0 642 +17 679 0 9
68 178 640 162 169 424 0 635 -17 173 0 968 640 178 171 1102 420 0 637 +17 680 0
 405 665 642 171 640 638 0 0 -17 665 0 405 664 680 206 637 626 0 395 -17 637 0 9
40 1102 583 171 665 626 0 680 +15 940 718 0 637 936 0 17 1102 0 940 215 637 170
 173 420 0 0 -17 583 0 940 637 1103 206 673 580 0 665 +17 1103 0 940 583 215 216
 579 577 0 0 -17 673 0 672 678 208 216 583 580 0 1103 -15 672 1083 0 208 886 0 1
7 678 0 672 212 673 219 218 575 0 0 -17 212 0 672 208 678 210 675 584 0 668 +17
 218 0 887 579 221 216 678 575 0 673 +15 887 1090 0 572 880 0 17 579 0 887 572 2
18 195 1103 577 0 1104 +17 221 0 887 218 572 219 677 573 0 675 +17 572 0 887 221
 579 209 1104 570 0 0 +17 677 0 674 635 675 209 221 573 0 572 -17 635 0 674 169
 677 162 223 633 0 0 +17 223 0 926 1104 176 209 635 633 0 677 -15 926 730 0 629
 922 0 17 1104 0 926 629 223 195 572 570 0 0 -17 176 0 926 223 629 162 178 630 0
 679 +17 629 0 926 176 1104 170 215 627 0 1102 +17 178 0 968 173 679 170 176 630
 0 629 -17 215 0 940 1103 1102 195 629 627 0 579 -83 3 965 .823529411764706 .819
607843137255 .780392156862745 15 963 813 0 681 918 0 17 681 0 963 190 181 183 61
7 605 0 620 -17 190 0 963 608 681 182 185 624 0 696 -17 181 0 963 681 608 179 68
3 615 0 622 +17 608 0 963 181 190 174 696 606 0 0 +17 683 0 682 197 622 174 181
 615 0 608 -83 3 960 .823529411764706 .819607843137255 .780392156862745 83 3 953
 .823529411764706 .819607843137255 .780392156862745 83 3 948 .823529411764706 .8
19607843137255 .780392156862745 83 3 943 .823529411764706 .819607843137255 .7803
92156862745 83 3 935 .823529411764706 .819607843137255 .780392156862745 83 3 929
 .823529411764706 .819607843137255 .780392156862745 83 3 921 .823529411764706 .8
19607843137255 .780392156862745 83 3 915 .823529411764706 .819607843137255 .7803
92156862745 83 3 910 .823529411764706 .819607843137255 .780392156862745 83 3 905
 .823529411764706 .819607843137255 .780392156862745 83 3 900 .823529411764706 .8
19607843137255 .780392156862745 83 3 895 .823529411764706 .819607843137255 .7803
92156862745 83 3 890 .823529411764706 .819607843137255 .780392156862745 83 3 883
 .823529411764706 .819607843137255 .780392156862745 83 3 877 .823529411764706 .8
19607843137255 .780392156862745 83 3 870 .823529411764706 .819607843137255 .7803
92156862745 79 14 867 SWEntUnchanged82 1 862 1328087283 15 851 1771 0 1105 524 5
21 17 1105 0 851 1105 1105 0 1106 310 0 0 -17 1106 0 289 1106 1106 0 1105 310 0
 0 +16 310 1786 0 ?1106 43 0 304 0 0 1 16 43 1790 0 32e-6 42 290 310 0 0 0 1 16
 290 1755 0 32e-6 45 287 43 0 0 0 1 15 289 1827 0 1106 288 0 82 1 848 1337524467
 17 85 0 789 34 794 80 83 810 0 713 -82 1 792 1188430067 82 1 778 1562444023 82
 1 769 1349452023 17 382 0 526 97 522 99 397 380 0 528 +17 397 0 392 403 101 111
 382 380 0 522 -17 116 0 521 113 519 114 118 520 0 400 +17 118 0 399 375 400 98
 116 520 0 519 -141 315 814 1107 1108 25 126 255 316 TF3 3 18 4 2 5 17 2 FTF2 3
 1109 1110 1111 1112 1113 125 255 317 0 1 0 1 0 1 0 1 2 PPBBPPBB????0 0 0 0 45 2
16 1109 -.0001188129426282206 -.0004342092739298945 -5e-4 -.0001188129426282206
 -.0004342092739298945 -.00040940122895595 .000163802465893959 -.000499728882294
632 -.000604700614477975 .0004464178744161385 -.000565248490659369 -8e-4 -.00014
25785479299094 -.000426995979574634 -5e-4 -.0001425785479299094 -.00042699597957
4634 -.00040940122895595 .0001359933766283892 -.000508001973564663 -.00060470061
4477975 .000414565301186688 -.000589007967554692 -8e-4 -.0001658277918265585 -.0
00418885803059828 -5e-4 -.0001658277918265585 -.000418885803059828 -.00040939681
7075432 .000108110034106924 -.000515068372637628 -.000604698408537716 .000382047
8600404065 -.000611250942215427 -8e-4 -.000199075140130497 -.0004041748141247455
 -5e-4 -.000199075140130497 -.0004041748141247455 -.000409387573094092 662310565
187743e-19 -.000522139285960976 -.000604693786547046 .0003315372531680455 -.0006
40103757797207 -8e-4 -.000230618537567486 -.0003870630233425555 -5e-4 -.00023061
8537567486 -.0003870630233425555 -.0004093810268079845 2446691108640835e-20 -.00
052577290530333 -.000604690513403992 .0002795523597403025 -.000664482787264104 -
8e-4 -.000409190617032228 -.000270857001461367 -5e-4 -.000409190617032228 -.0002
70857001461367 -.000409382851015555 -.000224416192802673 -.000527499205302101 -.
000604691425507777 -396417685731185e-19 -.000784141409142836 -8e-4 -.00048830898
1594346 -594290971344462e-19 -5e-4 -.000488308981594346 -594290971344462e-19 -.0
004093963444535195 -.000437680697769397 -.000372370635385733 -.00060469817222676
 -.0003870524139444485 -.00068531217363702 -8e-4 -.000358469683199662 .000368351
7982959535 -5e-4 -.000358469683199662 .0003683517982959535 -.0004094073345839875
 -.000586596340629961 .0001281929713945242 -.000604703667291994 -.00081472299806
0259 -.000111965855506905 -8e-4 -.000106960307737824 .000502735570304866 -5e-4 -
.000106960307737824 .000502735570304866 -.00040940122895595 -.000427988813916872
5 .0004211345152293345 -.000604700614477975 -.000749017320095922 .00033953346015
3803 -8e-4 .000368351798295954 .000358469683199662 -5e-4 .000368351798295954 .00
0358469683199662 -.00040940122895595 .0001281929713945242 .000586596340629961 -.
000604700614477975 -.0001119658555069054 .000814722998060259 -8e-4 .000502735570
304866 .0001069603077378236 -5e-4 .000502735570304866 .0001069603077378236 -.000
409407334583988 .0004211345152293345 .0004279888139168725 -.000604703667291994 .
0003395334601538025 .000749017320095922 -8e-4 .0003728962719101825 -.00032082058
7692576 -5e-4 .0003728962719101825 -.000320820587692576 -.000409396344453519 .00
0570050158089898 -725747928633845e-19 -.00060469817222676 .000767204044269613 .0
00175671001965807 -8e-4 .00018960729619219 -.000452603081671508 -5e-4 .000189607
29619219 -.000452603081671508 -.000409382851015554 .000476261295084051 -.0003190
50494422524 -.000604691425507777 .000762915293975913 -.000185497907173541 -8e-4
 -2342974472560595e-20 -.0004499485981430975 -5e-4 -2342974472560595e-20 -.00044
99485981430975 -.0004093810268079845 .0002669068389495565 -.000453648010037705 -
.000604690513403992 .000557243422624719 -.000457347421932313 -8e-4 -591628853225
28e-18 -.0004466407334660185 -5e-4 -59162885322528e-18 -.0004466407334660185 -.0
004093875730940925 .0002299480051893585 -.00047343415772509 -.000604693786547046
 .000519058895701246 -.000500227581984162 -8e-4 -94978070714307e-18 -.0004403899
84707347 -5e-4 -94978070714307e-18 -.000440389984707347 -.0004093968170754325 .0
00191014138329816 -.000490404737868928 -.000604698408537716 .000477006347373939
 -.000540419491030509 -8e-4 -.0001188129426282206 -.0004342092739298945 -5e-4 -.
0001188129426282206 -.0004342092739298945 -.00040940122895595 .00016380246589395
9 -.000499728882294632 -.000604700614477975 .0004464178744161385 -.0005652484906
59369 -8e-4 -.0001425785479299094 -.000426995979574634 -5e-4 -.00014257854792990
94 -.000426995979574634 -.00040940122895595 .0001359933766283892 -.0005080019735
64663 -.000604700614477975 .000414565301186688 -.000589007967554692 -8e-4 127 17
 1110 1 1 2 1 1 1 1 2 2 2 1 1 1 1 2 1 1 127 2 1111 4 4 128 17 1112 -.025 -.0125
 0 .0125 .025 .0375 .05 .25 .5 .75 .95 .9625 .975 .9875 1 1.0125 1.025 128 2 111
3 0 1 141 1107 9 1114 315 25 141 1108 301 315 1114 25 141 1114 304 1108 1107 25
 133 23 1903 0 287 304 9 0 +9 .000450088184479186 1971650627848565e-22 -5e-4 215
8619500942035e-22 -.000450088175624712 -5e-4 0 .000711542931030001 40 20 312 0 1
 20 4136690294793555e-20 .341368953142738 ??-.000430491587801414 .00057712822910
7031 -8e-4 -.000552644771507976 .000461704914820669 -8e-4 -.000673571692479332 .
00025427884701826 -8e-4 -.000719664231368679 1826811722962405e-20 -8e-4 -.000684
913261657311 -.0002224683868859085 -8e-4 -.000572778320766392 -.0004362636449293
59 -8e-4 -.000396259678643154 -.00060130594756743 -8e-4 -.0001752108577205765 -.
000698238594853272 -8e-4 655524721310584e-19 -.000716996439628425 -8e-4 .0003005
718382738035 -.000654392720672928 -8e-4 .000499172953358085 -.00051896069710183
 -8e-4 .000643403041759356 -.0003232977214006705 -8e-4 .000713744634238026 -9362
74436522103e-19 -8e-4 .000704542177615867 .0001488098886116782 -8e-4 .0006151678
49673603 .000374205521381821 -8e-4 .00045787701671233 .000555823433832654 -8e-4
 .0002469255230150685 .000676291935747645 -8e-4 1036216616345212e-20 .0007198282
87561481 -8e-4 -.000230008083019467 .000682420224278213 -8e-4 -.0004304915878013
825 .000577128229107054 -8e-4 41 1 313 H?-.000430491587801414 .00057712822910703
1 -8e-4 204 80 314 4 .5 1.00000000000307 .000577128229107031 -.00043049158780141
4 .463854054277341 1.00000000000307 .000461704914820669 -.000552644771507976 .41
0176749453582 1.00000000000307 .00025427884701826 -.000673571692479332 .35562040
52008585 1.00000000000307 182681172296241e-19 -.000719664231368679 .300867164812
047 1.00000000000307 -.0002224683868859085 -.000684913261657311 .248482589758894
5 1.00000000000307 -.000436263644929359 -.000572778320766392 .195877056990797 1.
00000000000307 -.00060130594756743 -.000396259678643154 .141487324762222 1.00000
0000003072 -.000698238594853272 -.0001752108577205765 .0867078670527178 1.000000
000003072 -.000716996439628425 655524721310584e-19 .0324316087815453 1.000000000
003072 -.000654392720672928 .0003005718382738035 .980862774869696 1.000000000003
076 -.00051896069710183 .000499172953358085 .927095456894013 1.000000000003076 -
.0003232977214006705 .000643403041759356 .87270865009132 1.000000000003078 -9362
74436522102e-19 .000713744634238026 .817824604087041 1.000000000003078 .00014880
98886116784 .000704542177615867 .764396890521154 1.00000000000308 .0003742055213
81821 .000615167849673603 .71276500730242 1.00000000000308 .000555823433832654 .
00045787701671233 .658411580195703 1.000000000003078 .000676291935747645 .000246
9255230150685 .603835250531354 1.000000000003078 .000719828287561481 10362166163
45212e-20 .549111296082812 1.00000000000308 .000682420224278213 -.00023000808301
9467 .500000000000008 1.00000000000308 .000577128229107054 -.0004304915878013825
 141 302 294 302 302 300 134 303 0 0 0 0 0 0 +1115 1116 136 1115 2 5 2 3 5 FFF1
 1117 1118 1119 135 1116 1 0 45 10 1117 376122064655311e-19 -.000448425380553771
 .0002119022643851185 -.000433806596854986 .000331115900161413 -.000304733097415
2585 .0004498691703297635 -.000176158039279263 .000449999875658811 -334525117985
0485e-22 127 3 1118 3 2 3 128 3 1119 0 .5 1 19 20 107 0 1 0 11 7 S0 141 24 23 24
 24 9 40 8 27 0 1 8 257996643693973e-19 .3392005590244735 ??.000450088184479186
 1971650627848565e-22 -5e-4 .000449472304448616 -2344321816943055e-20 -5e-4 .000
434435059706126 -.0001173435045957056 -5e-4 .000370612571970632 -.00025539250729
8286 -5e-4 .0003231288684406685 -.0003132369243155705 -5e-4 .000201006678527305
 -.00040251469137412 -5e-4 55856609383572e-18 -.0004465801883767015 -5e-4 215861
9500942035e-22 -.000450088175624712 -5e-4 41 1 28 L?.000450088184479186 19716506
27848565e-22 -5e-4 41 1 29 L?2158619500942035e-22 -.000450088175624712 -5e-4 204
 32 30 4 .704175170174311 -502568755377832e-34 1971650627848885e-22 .00045008818
4479186 .712491453293269 1629987784558125e-32 -2344321816943055e-20 .00044947230
4448616 .745322736808396 925978456574691e-31 -.0001173435045957054 .000434435059
706126 .797982284843096 303759901053979e-30 -.000255392507298286 .00037061257197
0632 .824660752737197 463212937736541e-30 -.0003132369243155705 .000323128868440
6685 .879486134861475 767902738682858e-30 -.00040251469137412 .00020100667852730
5 .934364353609891 990408633972421e-30 -.0004465801883767015 55856609383572e-18
 .954168574924428 1200657989056336e-30 -.000450088175624712 2158619500942035e-22
 134 18 0 0 0 0 0 0 +1120 1121 136 1120 1 2 2 2 5 FFF1 1122 1123 1124 135 1121 1
 0 45 4 1122 6.28318530717959 -2755455298081545e-35 0 -2755455298081545e-35 127
 2 1123 2 2 128 2 1124 0 1 141 17 5 17 17 4 74 4 CI16 index_map_offset0 0 1 dCCZ
20 16 3 0 0 1055 2 1060 0 0 0 0 0 0 0 0 0 0 0 0 0 0 0 0 0 80 2 14 1125 1126 8004
 0 0 0 0 3 5 0 0 0 FFTFFFFFFFFFFF2 3 83 1 15 1 79 16 1126 SDL/TYSA_DENSITY1 0 
